%TF.GenerationSoftware,KiCad,Pcbnew,9.0.2*%
%TF.CreationDate,2025-06-27T22:30:48-07:00*%
%TF.ProjectId,Proj3,50726f6a-332e-46b6-9963-61645f706362,rev?*%
%TF.SameCoordinates,Original*%
%TF.FileFunction,Other,User*%
%FSLAX46Y46*%
G04 Gerber Fmt 4.6, Leading zero omitted, Abs format (unit mm)*
G04 Created by KiCad (PCBNEW 9.0.2) date 2025-06-27 22:30:48*
%MOMM*%
%LPD*%
G01*
G04 APERTURE LIST*
%ADD10C,0.050000*%
G04 APERTURE END LIST*
D10*
%TO.C,D37*%
X106500000Y-217312000D02*
X112000000Y-217312000D01*
X112000000Y-217312000D02*
X112000000Y-210412000D01*
X106500000Y-210412000D02*
X106500000Y-217312000D01*
X112000000Y-210412000D02*
X106500000Y-210412000D01*
%TO.C,D12*%
X122930000Y-210562000D02*
X117430000Y-210562000D01*
X117430000Y-210562000D02*
X117430000Y-217462000D01*
X122930000Y-217462000D02*
X122930000Y-210562000D01*
X117430000Y-217462000D02*
X122930000Y-217462000D01*
%TO.C,SW66*%
X311650000Y-215062000D02*
X294150000Y-215062000D01*
X311650000Y-215062000D02*
X311650000Y-200862000D01*
X294150000Y-200862000D02*
X294150000Y-215062000D01*
X294150000Y-200862000D02*
X311650000Y-200862000D01*
%TO.C,D2*%
X405800000Y-200772000D02*
X400300000Y-200772000D01*
X400300000Y-200772000D02*
X400300000Y-207672000D01*
X405800000Y-207672000D02*
X405800000Y-200772000D01*
X400300000Y-207672000D02*
X405800000Y-207672000D01*
%TO.C,D38*%
X400150000Y-215262000D02*
X405650000Y-215262000D01*
X405650000Y-215262000D02*
X405650000Y-208362000D01*
X400150000Y-208362000D02*
X400150000Y-215262000D01*
X405650000Y-208362000D02*
X400150000Y-208362000D01*
%TO.C,D10*%
X91730000Y-203102000D02*
X91730000Y-210002000D01*
X91730000Y-210002000D02*
X97230000Y-210002000D01*
X97230000Y-203102000D02*
X91730000Y-203102000D01*
X97230000Y-210002000D02*
X97230000Y-203102000D01*
%TO.C,D93*%
X365517700Y-201702000D02*
X365517700Y-207202000D01*
X365517700Y-207202000D02*
X372417700Y-207202000D01*
X372417700Y-201702000D02*
X365517700Y-201702000D01*
X372417700Y-207202000D02*
X372417700Y-201702000D01*
%TO.C,D77*%
X357887700Y-201792000D02*
X357887700Y-207292000D01*
X357887700Y-207292000D02*
X364787700Y-207292000D01*
X364787700Y-201792000D02*
X357887700Y-201792000D01*
X364787700Y-207292000D02*
X364787700Y-201792000D01*
%TO.C,D117*%
X391560000Y-200482000D02*
X391560000Y-207382000D01*
X391560000Y-207382000D02*
X397060000Y-207382000D01*
X397060000Y-200482000D02*
X391560000Y-200482000D01*
X397060000Y-207382000D02*
X397060000Y-200482000D01*
%TO.C,D13*%
X274700000Y-201232000D02*
X274700000Y-208132000D01*
X274700000Y-208132000D02*
X280200000Y-208132000D01*
X280200000Y-201232000D02*
X274700000Y-201232000D01*
X280200000Y-208132000D02*
X280200000Y-201232000D01*
%TO.C,D21*%
X122040000Y-202552000D02*
X122040000Y-209452000D01*
X122040000Y-209452000D02*
X127540000Y-209452000D01*
X127540000Y-202552000D02*
X122040000Y-202552000D01*
X127540000Y-209452000D02*
X127540000Y-202552000D01*
%TO.C,D60*%
X142990000Y-202222000D02*
X142990000Y-209122000D01*
X142990000Y-209122000D02*
X148490000Y-209122000D01*
X148490000Y-202222000D02*
X142990000Y-202222000D01*
X148490000Y-209122000D02*
X148490000Y-202222000D01*
%TO.C,D30*%
X381757700Y-208322000D02*
X381757700Y-213822000D01*
X381757700Y-213822000D02*
X388657700Y-213822000D01*
X388657700Y-208322000D02*
X381757700Y-208322000D01*
X388657700Y-213822000D02*
X388657700Y-208322000D01*
%TO.C,D45*%
X111930000Y-203042000D02*
X111930000Y-209942000D01*
X111930000Y-209942000D02*
X117430000Y-209942000D01*
X117430000Y-203042000D02*
X111930000Y-203042000D01*
X117430000Y-209942000D02*
X117430000Y-203042000D01*
%TO.C,D44*%
X349767700Y-201792000D02*
X349767700Y-207292000D01*
X349767700Y-207292000D02*
X356667700Y-207292000D01*
X356667700Y-201792000D02*
X349767700Y-201792000D01*
X356667700Y-207292000D02*
X356667700Y-201792000D01*
%TO.C,D92*%
X223490000Y-209122000D02*
X223490000Y-216022000D01*
X223490000Y-216022000D02*
X228990000Y-216022000D01*
X228990000Y-209122000D02*
X223490000Y-209122000D01*
X228990000Y-216022000D02*
X228990000Y-209122000D01*
%TO.C,D86*%
X334007700Y-201922000D02*
X334007700Y-207422000D01*
X334007700Y-207422000D02*
X340907700Y-207422000D01*
X340907700Y-201922000D02*
X334007700Y-201922000D01*
X340907700Y-207422000D02*
X340907700Y-201922000D01*
%TO.C,D4*%
X341647700Y-201792000D02*
X341647700Y-207292000D01*
X341647700Y-207292000D02*
X348547700Y-207292000D01*
X348547700Y-201792000D02*
X341647700Y-201792000D01*
X348547700Y-207292000D02*
X348547700Y-201792000D01*
%TO.C,D1*%
X341647700Y-208412000D02*
X341647700Y-213912000D01*
X341647700Y-213912000D02*
X348547700Y-213912000D01*
X348547700Y-208412000D02*
X341647700Y-208412000D01*
X348547700Y-213912000D02*
X348547700Y-208412000D01*
%TO.C,D68*%
X169250000Y-209932000D02*
X169250000Y-216832000D01*
X169250000Y-216832000D02*
X174750000Y-216832000D01*
X174750000Y-209932000D02*
X169250000Y-209932000D01*
X174750000Y-216832000D02*
X174750000Y-209932000D01*
%TO.C,D76*%
X161280000Y-209712000D02*
X161280000Y-216612000D01*
X161280000Y-216612000D02*
X166780000Y-216612000D01*
X166780000Y-209712000D02*
X161280000Y-209712000D01*
X166780000Y-216612000D02*
X166780000Y-209712000D01*
%TO.C,D110*%
X235620000Y-209282000D02*
X235620000Y-216182000D01*
X235620000Y-216182000D02*
X241120000Y-216182000D01*
X241120000Y-209282000D02*
X235620000Y-209282000D01*
X241120000Y-216182000D02*
X241120000Y-209282000D01*
%TO.C,D100*%
X258260000Y-201062000D02*
X258260000Y-207962000D01*
X258260000Y-207962000D02*
X263760000Y-207962000D01*
X263760000Y-201062000D02*
X258260000Y-201062000D01*
X263760000Y-207962000D02*
X263760000Y-201062000D01*
%TO.C,D116*%
X229740000Y-201152000D02*
X229740000Y-208052000D01*
X229740000Y-208052000D02*
X235240000Y-208052000D01*
X235240000Y-201152000D02*
X229740000Y-201152000D01*
X235240000Y-208052000D02*
X235240000Y-201152000D01*
%TO.C,D62*%
X373637700Y-208322000D02*
X373637700Y-213822000D01*
X373637700Y-213822000D02*
X380537700Y-213822000D01*
X380537700Y-208322000D02*
X373637700Y-208322000D01*
X380537700Y-213822000D02*
X380537700Y-208322000D01*
%TO.C,D94*%
X365517700Y-208322000D02*
X365517700Y-213822000D01*
X365517700Y-213822000D02*
X372417700Y-213822000D01*
X372417700Y-208322000D02*
X365517700Y-208322000D01*
X372417700Y-213822000D02*
X372417700Y-208322000D01*
%TO.C,D109*%
X161280000Y-201592000D02*
X161280000Y-208492000D01*
X161280000Y-208492000D02*
X166780000Y-208492000D01*
X166780000Y-201592000D02*
X161280000Y-201592000D01*
X166780000Y-208492000D02*
X166780000Y-201592000D01*
%TO.C,D61*%
X373637700Y-201702000D02*
X373637700Y-207202000D01*
X373637700Y-207202000D02*
X380537700Y-207202000D01*
X380537700Y-201702000D02*
X373637700Y-201702000D01*
X380537700Y-207202000D02*
X380537700Y-201702000D01*
%TO.C,D111*%
X250560000Y-208792000D02*
X250560000Y-215692000D01*
X250560000Y-215692000D02*
X256060000Y-215692000D01*
X256060000Y-208792000D02*
X250560000Y-208792000D01*
X256060000Y-215692000D02*
X256060000Y-208792000D01*
%TO.C,R1*%
X412000000Y-236659500D02*
X413900000Y-236659500D01*
X412000000Y-240019500D02*
X412000000Y-236659500D01*
X413900000Y-236659500D02*
X413900000Y-240019500D01*
X413900000Y-240019500D02*
X412000000Y-240019500D01*
%TO.C,D19*%
X281590000Y-215692000D02*
X287090000Y-215692000D01*
X287090000Y-215692000D02*
X287090000Y-208792000D01*
X281590000Y-208792000D02*
X281590000Y-215692000D01*
X287090000Y-208792000D02*
X281590000Y-208792000D01*
%TO.C,D28*%
X101030000Y-203082000D02*
X101030000Y-209982000D01*
X101030000Y-209982000D02*
X106530000Y-209982000D01*
X106530000Y-203082000D02*
X101030000Y-203082000D01*
X106530000Y-209982000D02*
X106530000Y-203082000D01*
%TO.C,D108*%
X169110000Y-201672000D02*
X169110000Y-208572000D01*
X169110000Y-208572000D02*
X174610000Y-208572000D01*
X174610000Y-201672000D02*
X169110000Y-201672000D01*
X174610000Y-208572000D02*
X174610000Y-201672000D01*
%TO.C,D69*%
X132000000Y-202922000D02*
X132000000Y-209822000D01*
X132000000Y-209822000D02*
X137500000Y-209822000D01*
X137500000Y-202922000D02*
X132000000Y-202922000D01*
X137500000Y-209822000D02*
X137500000Y-202922000D01*
%TO.C,D36*%
X349767700Y-208412000D02*
X349767700Y-213912000D01*
X349767700Y-213912000D02*
X356667700Y-213912000D01*
X356667700Y-208412000D02*
X349767700Y-208412000D01*
X356667700Y-213912000D02*
X356667700Y-208412000D01*
%TO.C,D52*%
X325887700Y-208542000D02*
X325887700Y-214042000D01*
X325887700Y-214042000D02*
X332787700Y-214042000D01*
X332787700Y-208542000D02*
X325887700Y-208542000D01*
X332787700Y-214042000D02*
X332787700Y-208542000D01*
%TO.C,D115*%
X152950000Y-201702000D02*
X152950000Y-208602000D01*
X152950000Y-208602000D02*
X158450000Y-208602000D01*
X158450000Y-201702000D02*
X152950000Y-201702000D01*
X158450000Y-208602000D02*
X158450000Y-201702000D01*
%TO.C,D70*%
X357887700Y-208412000D02*
X357887700Y-213912000D01*
X357887700Y-213912000D02*
X364787700Y-213912000D01*
X364787700Y-208412000D02*
X357887700Y-208412000D01*
X364787700Y-213912000D02*
X364787700Y-208412000D01*
%TO.C,D102*%
X391560000Y-208602000D02*
X391560000Y-215502000D01*
X391560000Y-215502000D02*
X397060000Y-215502000D01*
X397060000Y-208602000D02*
X391560000Y-208602000D01*
X397060000Y-215502000D02*
X397060000Y-208602000D01*
%TO.C,D29*%
X381757700Y-201702000D02*
X381757700Y-207202000D01*
X381757700Y-207202000D02*
X388657700Y-207202000D01*
X388657700Y-201702000D02*
X381757700Y-201702000D01*
X388657700Y-207202000D02*
X388657700Y-201702000D01*
%TO.C,D84*%
X334007700Y-208542000D02*
X334007700Y-214042000D01*
X334007700Y-214042000D02*
X340907700Y-214042000D01*
X340907700Y-208542000D02*
X334007700Y-208542000D01*
X340907700Y-214042000D02*
X340907700Y-208542000D01*
%TO.C,D53*%
X325887700Y-201922000D02*
X325887700Y-207422000D01*
X325887700Y-207422000D02*
X332787700Y-207422000D01*
X332787700Y-201922000D02*
X325887700Y-201922000D01*
X332787700Y-207422000D02*
X332787700Y-201922000D01*
%TO.C,D85*%
X152950000Y-209822000D02*
X152950000Y-216722000D01*
X152950000Y-216722000D02*
X158450000Y-216722000D01*
X158450000Y-209822000D02*
X152950000Y-209822000D01*
X158450000Y-216722000D02*
X158450000Y-209822000D01*
%TO.C,D54*%
X265330000Y-208962000D02*
X265330000Y-215862000D01*
X265330000Y-215862000D02*
X270830000Y-215862000D01*
X270830000Y-208962000D02*
X265330000Y-208962000D01*
X270830000Y-215862000D02*
X270830000Y-208962000D01*
%TO.C,D20*%
X317430000Y-205022000D02*
X317430000Y-210522000D01*
X317430000Y-210522000D02*
X324330000Y-210522000D01*
X324330000Y-205022000D02*
X317430000Y-205022000D01*
X324330000Y-210522000D02*
X324330000Y-205022000D01*
%TO.C,D101*%
X244160000Y-201232000D02*
X244160000Y-208132000D01*
X244160000Y-208132000D02*
X249660000Y-208132000D01*
X249660000Y-201232000D02*
X244160000Y-201232000D01*
X249660000Y-208132000D02*
X249660000Y-201232000D01*
%TO.C,D119*%
X427360000Y-292442000D02*
X420460000Y-292442000D01*
X427360000Y-297942000D02*
X427360000Y-292442000D01*
X420460000Y-292442000D02*
X420460000Y-297942000D01*
X420460000Y-297942000D02*
X427360000Y-297942000D01*
%TO.C,D11*%
X412790000Y-201322000D02*
X407290000Y-201322000D01*
X412790000Y-208222000D02*
X412790000Y-201322000D01*
X407290000Y-201322000D02*
X407290000Y-208222000D01*
X407290000Y-208222000D02*
X412790000Y-208222000D01*
%TO.C,D3*%
X427640000Y-279892000D02*
X420740000Y-279892000D01*
X427640000Y-285392000D02*
X427640000Y-279892000D01*
X420740000Y-279892000D02*
X420740000Y-285392000D01*
X420740000Y-285392000D02*
X427640000Y-285392000D01*
%TO.C,D120*%
X427640000Y-304992000D02*
X420740000Y-304992000D01*
X427640000Y-310492000D02*
X427640000Y-304992000D01*
X420740000Y-304992000D02*
X420740000Y-310492000D01*
X420740000Y-310492000D02*
X427640000Y-310492000D01*
%TO.C,D78*%
X412790000Y-217562000D02*
X407290000Y-217562000D01*
X412790000Y-224462000D02*
X412790000Y-217562000D01*
X407290000Y-217562000D02*
X407290000Y-224462000D01*
X407290000Y-224462000D02*
X412790000Y-224462000D01*
%TO.C,D118*%
X427530000Y-267492000D02*
X420630000Y-267492000D01*
X427530000Y-272992000D02*
X427530000Y-267492000D01*
X420630000Y-267492000D02*
X420630000Y-272992000D01*
X420630000Y-272992000D02*
X427530000Y-272992000D01*
%TO.C,D46*%
X412790000Y-209442000D02*
X407290000Y-209442000D01*
X412790000Y-216342000D02*
X412790000Y-209442000D01*
X407290000Y-209442000D02*
X407290000Y-216342000D01*
X407290000Y-216342000D02*
X412790000Y-216342000D01*
%TO.C,D22*%
X412860000Y-226312000D02*
X407360000Y-226312000D01*
X412860000Y-233212000D02*
X412860000Y-226312000D01*
X407360000Y-226312000D02*
X407360000Y-233212000D01*
X407360000Y-233212000D02*
X412860000Y-233212000D01*
%TD*%
M02*
