%TF.GenerationSoftware,KiCad,Pcbnew,9.0.2*%
%TF.CreationDate,2025-06-27T23:50:21-07:00*%
%TF.ProjectId,Proj3,50726f6a-332e-46b6-9963-61645f706362,rev?*%
%TF.SameCoordinates,Original*%
%TF.FileFunction,Paste,Top*%
%TF.FilePolarity,Positive*%
%FSLAX46Y46*%
G04 Gerber Fmt 4.6, Leading zero omitted, Abs format (unit mm)*
G04 Created by KiCad (PCBNEW 9.0.2) date 2025-06-27 23:50:21*
%MOMM*%
%LPD*%
G01*
G04 APERTURE LIST*
G04 Aperture macros list*
%AMRoundRect*
0 Rectangle with rounded corners*
0 $1 Rounding radius*
0 $2 $3 $4 $5 $6 $7 $8 $9 X,Y pos of 4 corners*
0 Add a 4 corners polygon primitive as box body*
4,1,4,$2,$3,$4,$5,$6,$7,$8,$9,$2,$3,0*
0 Add four circle primitives for the rounded corners*
1,1,$1+$1,$2,$3*
1,1,$1+$1,$4,$5*
1,1,$1+$1,$6,$7*
1,1,$1+$1,$8,$9*
0 Add four rect primitives between the rounded corners*
20,1,$1+$1,$2,$3,$4,$5,0*
20,1,$1+$1,$4,$5,$6,$7,0*
20,1,$1+$1,$6,$7,$8,$9,0*
20,1,$1+$1,$8,$9,$2,$3,0*%
G04 Aperture macros list end*
%ADD10RoundRect,0.090000X0.660000X0.360000X-0.660000X0.360000X-0.660000X-0.360000X0.660000X-0.360000X0*%
%ADD11RoundRect,0.090000X0.360000X-0.660000X0.360000X0.660000X-0.360000X0.660000X-0.360000X-0.660000X0*%
%ADD12RoundRect,0.090000X-0.660000X-0.360000X0.660000X-0.360000X0.660000X0.360000X-0.660000X0.360000X0*%
%ADD13RoundRect,0.090000X-0.360000X0.660000X-0.360000X-0.660000X0.360000X-0.660000X0.360000X0.660000X0*%
%ADD14RoundRect,0.250000X0.450000X-0.262500X0.450000X0.262500X-0.450000X0.262500X-0.450000X-0.262500X0*%
G04 APERTURE END LIST*
D10*
%TO.C,D119*%
X426360000Y-296842000D03*
X426360000Y-293542000D03*
X421460000Y-293542000D03*
X421460000Y-296842000D03*
%TD*%
D11*
%TO.C,D10*%
X92830000Y-209002000D03*
X96130000Y-209002000D03*
X96130000Y-204102000D03*
X92830000Y-204102000D03*
%TD*%
D10*
%TO.C,D93*%
X371417700Y-206102000D03*
X371417700Y-202802000D03*
X366517700Y-202802000D03*
X366517700Y-206102000D03*
%TD*%
D12*
%TO.C,D77*%
X358887700Y-202892000D03*
X358887700Y-206192000D03*
X363787700Y-206192000D03*
X363787700Y-202892000D03*
%TD*%
D13*
%TO.C,D117*%
X395960000Y-201482000D03*
X392660000Y-201482000D03*
X392660000Y-206382000D03*
X395960000Y-206382000D03*
%TD*%
%TO.C,D13*%
X279100000Y-202232000D03*
X275800000Y-202232000D03*
X275800000Y-207132000D03*
X279100000Y-207132000D03*
%TD*%
D11*
%TO.C,D11*%
X408390000Y-207222000D03*
X411690000Y-207222000D03*
X411690000Y-202322000D03*
X408390000Y-202322000D03*
%TD*%
D12*
%TO.C,D3*%
X421740000Y-280992000D03*
X421740000Y-284292000D03*
X426640000Y-284292000D03*
X426640000Y-280992000D03*
%TD*%
D11*
%TO.C,D21*%
X123140000Y-208452000D03*
X126440000Y-208452000D03*
X126440000Y-203552000D03*
X123140000Y-203552000D03*
%TD*%
D13*
%TO.C,D60*%
X147390000Y-203222000D03*
X144090000Y-203222000D03*
X144090000Y-208122000D03*
X147390000Y-208122000D03*
%TD*%
D10*
%TO.C,D30*%
X387657700Y-212722000D03*
X387657700Y-209422000D03*
X382757700Y-209422000D03*
X382757700Y-212722000D03*
%TD*%
D13*
%TO.C,D45*%
X116330000Y-204042000D03*
X113030000Y-204042000D03*
X113030000Y-208942000D03*
X116330000Y-208942000D03*
%TD*%
D12*
%TO.C,D44*%
X350767700Y-202892000D03*
X350767700Y-206192000D03*
X355667700Y-206192000D03*
X355667700Y-202892000D03*
%TD*%
D13*
%TO.C,D92*%
X227890000Y-210122000D03*
X224590000Y-210122000D03*
X224590000Y-215022000D03*
X227890000Y-215022000D03*
%TD*%
D12*
%TO.C,D86*%
X335007700Y-203022000D03*
X335007700Y-206322000D03*
X339907700Y-206322000D03*
X339907700Y-203022000D03*
%TD*%
D10*
%TO.C,D120*%
X426640000Y-309392000D03*
X426640000Y-306092000D03*
X421740000Y-306092000D03*
X421740000Y-309392000D03*
%TD*%
D12*
%TO.C,D4*%
X342647700Y-202892000D03*
X342647700Y-206192000D03*
X347547700Y-206192000D03*
X347547700Y-202892000D03*
%TD*%
%TO.C,D1*%
X342647700Y-209512000D03*
X342647700Y-212812000D03*
X347547700Y-212812000D03*
X347547700Y-209512000D03*
%TD*%
D13*
%TO.C,D68*%
X173650000Y-210932000D03*
X170350000Y-210932000D03*
X170350000Y-215832000D03*
X173650000Y-215832000D03*
%TD*%
%TO.C,D76*%
X165680000Y-210712000D03*
X162380000Y-210712000D03*
X162380000Y-215612000D03*
X165680000Y-215612000D03*
%TD*%
%TO.C,D37*%
X110900000Y-211412000D03*
X107600000Y-211412000D03*
X107600000Y-216312000D03*
X110900000Y-216312000D03*
%TD*%
%TO.C,D110*%
X240020000Y-210282000D03*
X236720000Y-210282000D03*
X236720000Y-215182000D03*
X240020000Y-215182000D03*
%TD*%
D11*
%TO.C,D78*%
X408390000Y-223462000D03*
X411690000Y-223462000D03*
X411690000Y-218562000D03*
X408390000Y-218562000D03*
%TD*%
D10*
%TO.C,D118*%
X426530000Y-271892000D03*
X426530000Y-268592000D03*
X421630000Y-268592000D03*
X421630000Y-271892000D03*
%TD*%
D13*
%TO.C,D100*%
X262660000Y-202062000D03*
X259360000Y-202062000D03*
X259360000Y-206962000D03*
X262660000Y-206962000D03*
%TD*%
%TO.C,D116*%
X234140000Y-202152000D03*
X230840000Y-202152000D03*
X230840000Y-207052000D03*
X234140000Y-207052000D03*
%TD*%
D10*
%TO.C,D62*%
X379537700Y-212722000D03*
X379537700Y-209422000D03*
X374637700Y-209422000D03*
X374637700Y-212722000D03*
%TD*%
D13*
%TO.C,D12*%
X121830000Y-211562000D03*
X118530000Y-211562000D03*
X118530000Y-216462000D03*
X121830000Y-216462000D03*
%TD*%
D10*
%TO.C,D94*%
X371417700Y-212722000D03*
X371417700Y-209422000D03*
X366517700Y-209422000D03*
X366517700Y-212722000D03*
%TD*%
D13*
%TO.C,D109*%
X165680000Y-202592000D03*
X162380000Y-202592000D03*
X162380000Y-207492000D03*
X165680000Y-207492000D03*
%TD*%
D10*
%TO.C,D61*%
X379537700Y-206102000D03*
X379537700Y-202802000D03*
X374637700Y-202802000D03*
X374637700Y-206102000D03*
%TD*%
D14*
%TO.C,R1*%
X412950000Y-239252000D03*
X412950000Y-237427000D03*
%TD*%
D11*
%TO.C,D19*%
X282690000Y-214692000D03*
X285990000Y-214692000D03*
X285990000Y-209792000D03*
X282690000Y-209792000D03*
%TD*%
D13*
%TO.C,D28*%
X105430000Y-204082000D03*
X102130000Y-204082000D03*
X102130000Y-208982000D03*
X105430000Y-208982000D03*
%TD*%
%TO.C,D108*%
X173510000Y-202672000D03*
X170210000Y-202672000D03*
X170210000Y-207572000D03*
X173510000Y-207572000D03*
%TD*%
%TO.C,D2*%
X404700000Y-201772000D03*
X401400000Y-201772000D03*
X401400000Y-206672000D03*
X404700000Y-206672000D03*
%TD*%
D11*
%TO.C,D69*%
X133100000Y-208822000D03*
X136400000Y-208822000D03*
X136400000Y-203922000D03*
X133100000Y-203922000D03*
%TD*%
%TO.C,D38*%
X401250000Y-214262000D03*
X404550000Y-214262000D03*
X404550000Y-209362000D03*
X401250000Y-209362000D03*
%TD*%
D12*
%TO.C,D36*%
X350767700Y-209512000D03*
X350767700Y-212812000D03*
X355667700Y-212812000D03*
X355667700Y-209512000D03*
%TD*%
%TO.C,D52*%
X326887700Y-209642000D03*
X326887700Y-212942000D03*
X331787700Y-212942000D03*
X331787700Y-209642000D03*
%TD*%
D13*
%TO.C,D115*%
X157350000Y-202702000D03*
X154050000Y-202702000D03*
X154050000Y-207602000D03*
X157350000Y-207602000D03*
%TD*%
D12*
%TO.C,D70*%
X358887700Y-209512000D03*
X358887700Y-212812000D03*
X363787700Y-212812000D03*
X363787700Y-209512000D03*
%TD*%
D13*
%TO.C,D102*%
X395960000Y-209602000D03*
X392660000Y-209602000D03*
X392660000Y-214502000D03*
X395960000Y-214502000D03*
%TD*%
D10*
%TO.C,D29*%
X387657700Y-206102000D03*
X387657700Y-202802000D03*
X382757700Y-202802000D03*
X382757700Y-206102000D03*
%TD*%
D12*
%TO.C,D84*%
X335007700Y-209642000D03*
X335007700Y-212942000D03*
X339907700Y-212942000D03*
X339907700Y-209642000D03*
%TD*%
%TO.C,D53*%
X326887700Y-203022000D03*
X326887700Y-206322000D03*
X331787700Y-206322000D03*
X331787700Y-203022000D03*
%TD*%
D13*
%TO.C,D85*%
X157350000Y-210822000D03*
X154050000Y-210822000D03*
X154050000Y-215722000D03*
X157350000Y-215722000D03*
%TD*%
D11*
%TO.C,D54*%
X266430000Y-214862000D03*
X269730000Y-214862000D03*
X269730000Y-209962000D03*
X266430000Y-209962000D03*
%TD*%
D12*
%TO.C,D20*%
X318430000Y-206122000D03*
X318430000Y-209422000D03*
X323330000Y-209422000D03*
X323330000Y-206122000D03*
%TD*%
D11*
%TO.C,D46*%
X408390000Y-215342000D03*
X411690000Y-215342000D03*
X411690000Y-210442000D03*
X408390000Y-210442000D03*
%TD*%
D13*
%TO.C,D101*%
X248560000Y-202232000D03*
X245260000Y-202232000D03*
X245260000Y-207132000D03*
X248560000Y-207132000D03*
%TD*%
%TO.C,D22*%
X411760000Y-227312000D03*
X408460000Y-227312000D03*
X408460000Y-232212000D03*
X411760000Y-232212000D03*
%TD*%
M02*
