%TF.GenerationSoftware,KiCad,Pcbnew,9.0.2*%
%TF.CreationDate,2025-06-27T22:30:47-07:00*%
%TF.ProjectId,Proj3,50726f6a-332e-46b6-9963-61645f706362,rev?*%
%TF.SameCoordinates,Original*%
%TF.FileFunction,Copper,L1,Top*%
%TF.FilePolarity,Positive*%
%FSLAX46Y46*%
G04 Gerber Fmt 4.6, Leading zero omitted, Abs format (unit mm)*
G04 Created by KiCad (PCBNEW 9.0.2) date 2025-06-27 22:30:47*
%MOMM*%
%LPD*%
G01*
G04 APERTURE LIST*
G04 Aperture macros list*
%AMRoundRect*
0 Rectangle with rounded corners*
0 $1 Rounding radius*
0 $2 $3 $4 $5 $6 $7 $8 $9 X,Y pos of 4 corners*
0 Add a 4 corners polygon primitive as box body*
4,1,4,$2,$3,$4,$5,$6,$7,$8,$9,$2,$3,0*
0 Add four circle primitives for the rounded corners*
1,1,$1+$1,$2,$3*
1,1,$1+$1,$4,$5*
1,1,$1+$1,$6,$7*
1,1,$1+$1,$8,$9*
0 Add four rect primitives between the rounded corners*
20,1,$1+$1,$2,$3,$4,$5,0*
20,1,$1+$1,$4,$5,$6,$7,0*
20,1,$1+$1,$6,$7,$8,$9,0*
20,1,$1+$1,$8,$9,$2,$3,0*%
G04 Aperture macros list end*
%ADD10C,0.750000*%
%TA.AperFunction,NonConductor*%
%ADD11C,0.750000*%
%TD*%
%TA.AperFunction,SMDPad,CuDef*%
%ADD12RoundRect,0.090000X-0.360000X0.660000X-0.360000X-0.660000X0.360000X-0.660000X0.360000X0.660000X0*%
%TD*%
%TA.AperFunction,ComponentPad*%
%ADD13C,2.250000*%
%TD*%
%TA.AperFunction,ComponentPad*%
%ADD14C,1.905000*%
%TD*%
%TA.AperFunction,ComponentPad*%
%ADD15R,1.905000X1.905000*%
%TD*%
%TA.AperFunction,ComponentPad*%
%ADD16C,1.600000*%
%TD*%
%TA.AperFunction,ComponentPad*%
%ADD17RoundRect,0.250000X-0.550000X0.550000X-0.550000X-0.550000X0.550000X-0.550000X0.550000X0.550000X0*%
%TD*%
%TA.AperFunction,ComponentPad*%
%ADD18RoundRect,0.250000X0.550000X-0.550000X0.550000X0.550000X-0.550000X0.550000X-0.550000X-0.550000X0*%
%TD*%
%TA.AperFunction,ComponentPad*%
%ADD19R,2.000000X2.000000*%
%TD*%
%TA.AperFunction,ComponentPad*%
%ADD20C,2.000000*%
%TD*%
%TA.AperFunction,ComponentPad*%
%ADD21R,3.200000X2.000000*%
%TD*%
%TA.AperFunction,SMDPad,CuDef*%
%ADD22RoundRect,0.090000X0.360000X-0.660000X0.360000X0.660000X-0.360000X0.660000X-0.360000X-0.660000X0*%
%TD*%
%TA.AperFunction,SMDPad,CuDef*%
%ADD23RoundRect,0.090000X0.660000X0.360000X-0.660000X0.360000X-0.660000X-0.360000X0.660000X-0.360000X0*%
%TD*%
%TA.AperFunction,SMDPad,CuDef*%
%ADD24RoundRect,0.090000X-0.660000X-0.360000X0.660000X-0.360000X0.660000X0.360000X-0.660000X0.360000X0*%
%TD*%
%TA.AperFunction,SMDPad,CuDef*%
%ADD25RoundRect,0.250000X0.450000X-0.262500X0.450000X0.262500X-0.450000X0.262500X-0.450000X-0.262500X0*%
%TD*%
%TA.AperFunction,ComponentPad*%
%ADD26RoundRect,0.200000X0.600000X0.600000X-0.600000X0.600000X-0.600000X-0.600000X0.600000X-0.600000X0*%
%TD*%
%TA.AperFunction,ViaPad*%
%ADD27C,0.600000*%
%TD*%
%TA.AperFunction,Conductor*%
%ADD28C,0.200000*%
%TD*%
G04 APERTURE END LIST*
D10*
D11*
X92791000Y-291915150D02*
X92933857Y-291486579D01*
X92933857Y-291486579D02*
X92933857Y-290772293D01*
X92933857Y-290772293D02*
X92791000Y-290486579D01*
X92791000Y-290486579D02*
X92648142Y-290343721D01*
X92648142Y-290343721D02*
X92362428Y-290200864D01*
X92362428Y-290200864D02*
X92076714Y-290200864D01*
X92076714Y-290200864D02*
X91791000Y-290343721D01*
X91791000Y-290343721D02*
X91648142Y-290486579D01*
X91648142Y-290486579D02*
X91505285Y-290772293D01*
X91505285Y-290772293D02*
X91362428Y-291343721D01*
X91362428Y-291343721D02*
X91219571Y-291629436D01*
X91219571Y-291629436D02*
X91076714Y-291772293D01*
X91076714Y-291772293D02*
X90791000Y-291915150D01*
X90791000Y-291915150D02*
X90505285Y-291915150D01*
X90505285Y-291915150D02*
X90219571Y-291772293D01*
X90219571Y-291772293D02*
X90076714Y-291629436D01*
X90076714Y-291629436D02*
X89933857Y-291343721D01*
X89933857Y-291343721D02*
X89933857Y-290629436D01*
X89933857Y-290629436D02*
X90076714Y-290200864D01*
X92076714Y-289058007D02*
X92076714Y-287629436D01*
X92933857Y-289343721D02*
X89933857Y-288343721D01*
X89933857Y-288343721D02*
X92933857Y-287343721D01*
X92933857Y-286343721D02*
X89933857Y-286343721D01*
X89933857Y-286343721D02*
X92076714Y-285343721D01*
X92076714Y-285343721D02*
X89933857Y-284343721D01*
X89933857Y-284343721D02*
X92933857Y-284343721D01*
X92933857Y-282915150D02*
X89933857Y-282915150D01*
X91362428Y-282915150D02*
X91362428Y-281200864D01*
X92933857Y-281200864D02*
X89933857Y-281200864D01*
X92933857Y-279772293D02*
X89933857Y-279772293D01*
X89933857Y-278772293D02*
X89933857Y-277058008D01*
X92933857Y-277915150D02*
X89933857Y-277915150D01*
X92933857Y-276058008D02*
X89933857Y-276058008D01*
X91362428Y-276058008D02*
X91362428Y-274343722D01*
X92933857Y-274343722D02*
X89933857Y-274343722D01*
X92791000Y-273058008D02*
X92933857Y-272629437D01*
X92933857Y-272629437D02*
X92933857Y-271915151D01*
X92933857Y-271915151D02*
X92791000Y-271629437D01*
X92791000Y-271629437D02*
X92648142Y-271486579D01*
X92648142Y-271486579D02*
X92362428Y-271343722D01*
X92362428Y-271343722D02*
X92076714Y-271343722D01*
X92076714Y-271343722D02*
X91791000Y-271486579D01*
X91791000Y-271486579D02*
X91648142Y-271629437D01*
X91648142Y-271629437D02*
X91505285Y-271915151D01*
X91505285Y-271915151D02*
X91362428Y-272486579D01*
X91362428Y-272486579D02*
X91219571Y-272772294D01*
X91219571Y-272772294D02*
X91076714Y-272915151D01*
X91076714Y-272915151D02*
X90791000Y-273058008D01*
X90791000Y-273058008D02*
X90505285Y-273058008D01*
X90505285Y-273058008D02*
X90219571Y-272915151D01*
X90219571Y-272915151D02*
X90076714Y-272772294D01*
X90076714Y-272772294D02*
X89933857Y-272486579D01*
X89933857Y-272486579D02*
X89933857Y-271772294D01*
X89933857Y-271772294D02*
X90076714Y-271343722D01*
X92933857Y-267772294D02*
X89933857Y-267772294D01*
X89933857Y-267772294D02*
X89933857Y-266629437D01*
X89933857Y-266629437D02*
X90076714Y-266343722D01*
X90076714Y-266343722D02*
X90219571Y-266200865D01*
X90219571Y-266200865D02*
X90505285Y-266058008D01*
X90505285Y-266058008D02*
X90933857Y-266058008D01*
X90933857Y-266058008D02*
X91219571Y-266200865D01*
X91219571Y-266200865D02*
X91362428Y-266343722D01*
X91362428Y-266343722D02*
X91505285Y-266629437D01*
X91505285Y-266629437D02*
X91505285Y-267772294D01*
X91362428Y-264772294D02*
X91362428Y-263772294D01*
X92933857Y-263343722D02*
X92933857Y-264772294D01*
X92933857Y-264772294D02*
X89933857Y-264772294D01*
X89933857Y-264772294D02*
X89933857Y-263343722D01*
X92933857Y-260343722D02*
X91505285Y-261343722D01*
X92933857Y-262058008D02*
X89933857Y-262058008D01*
X89933857Y-262058008D02*
X89933857Y-260915151D01*
X89933857Y-260915151D02*
X90076714Y-260629436D01*
X90076714Y-260629436D02*
X90219571Y-260486579D01*
X90219571Y-260486579D02*
X90505285Y-260343722D01*
X90505285Y-260343722D02*
X90933857Y-260343722D01*
X90933857Y-260343722D02*
X91219571Y-260486579D01*
X91219571Y-260486579D02*
X91362428Y-260629436D01*
X91362428Y-260629436D02*
X91505285Y-260915151D01*
X91505285Y-260915151D02*
X91505285Y-262058008D01*
X92791000Y-259200865D02*
X92933857Y-258772294D01*
X92933857Y-258772294D02*
X92933857Y-258058008D01*
X92933857Y-258058008D02*
X92791000Y-257772294D01*
X92791000Y-257772294D02*
X92648142Y-257629436D01*
X92648142Y-257629436D02*
X92362428Y-257486579D01*
X92362428Y-257486579D02*
X92076714Y-257486579D01*
X92076714Y-257486579D02*
X91791000Y-257629436D01*
X91791000Y-257629436D02*
X91648142Y-257772294D01*
X91648142Y-257772294D02*
X91505285Y-258058008D01*
X91505285Y-258058008D02*
X91362428Y-258629436D01*
X91362428Y-258629436D02*
X91219571Y-258915151D01*
X91219571Y-258915151D02*
X91076714Y-259058008D01*
X91076714Y-259058008D02*
X90791000Y-259200865D01*
X90791000Y-259200865D02*
X90505285Y-259200865D01*
X90505285Y-259200865D02*
X90219571Y-259058008D01*
X90219571Y-259058008D02*
X90076714Y-258915151D01*
X90076714Y-258915151D02*
X89933857Y-258629436D01*
X89933857Y-258629436D02*
X89933857Y-257915151D01*
X89933857Y-257915151D02*
X90076714Y-257486579D01*
X89933857Y-255629436D02*
X89933857Y-255058008D01*
X89933857Y-255058008D02*
X90076714Y-254772293D01*
X90076714Y-254772293D02*
X90362428Y-254486579D01*
X90362428Y-254486579D02*
X90933857Y-254343722D01*
X90933857Y-254343722D02*
X91933857Y-254343722D01*
X91933857Y-254343722D02*
X92505285Y-254486579D01*
X92505285Y-254486579D02*
X92791000Y-254772293D01*
X92791000Y-254772293D02*
X92933857Y-255058008D01*
X92933857Y-255058008D02*
X92933857Y-255629436D01*
X92933857Y-255629436D02*
X92791000Y-255915151D01*
X92791000Y-255915151D02*
X92505285Y-256200865D01*
X92505285Y-256200865D02*
X91933857Y-256343722D01*
X91933857Y-256343722D02*
X90933857Y-256343722D01*
X90933857Y-256343722D02*
X90362428Y-256200865D01*
X90362428Y-256200865D02*
X90076714Y-255915151D01*
X90076714Y-255915151D02*
X89933857Y-255629436D01*
X92933857Y-253058008D02*
X89933857Y-253058008D01*
X89933857Y-253058008D02*
X92933857Y-251343722D01*
X92933857Y-251343722D02*
X89933857Y-251343722D01*
X92076714Y-250058008D02*
X92076714Y-248629437D01*
X92933857Y-250343722D02*
X89933857Y-249343722D01*
X89933857Y-249343722D02*
X92933857Y-248343722D01*
X92933857Y-245915150D02*
X92933857Y-247343722D01*
X92933857Y-247343722D02*
X89933857Y-247343722D01*
X92933857Y-242629437D02*
X89933857Y-242629437D01*
X92933857Y-240915151D02*
X91219571Y-242200865D01*
X89933857Y-240915151D02*
X91648142Y-242629437D01*
X91362428Y-239629437D02*
X91362428Y-238629437D01*
X92933857Y-238200865D02*
X92933857Y-239629437D01*
X92933857Y-239629437D02*
X89933857Y-239629437D01*
X89933857Y-239629437D02*
X89933857Y-238200865D01*
X91505285Y-236343722D02*
X92933857Y-236343722D01*
X89933857Y-237343722D02*
X91505285Y-236343722D01*
X91505285Y-236343722D02*
X89933857Y-235343722D01*
X91362428Y-233343722D02*
X91505285Y-232915150D01*
X91505285Y-232915150D02*
X91648142Y-232772293D01*
X91648142Y-232772293D02*
X91933857Y-232629436D01*
X91933857Y-232629436D02*
X92362428Y-232629436D01*
X92362428Y-232629436D02*
X92648142Y-232772293D01*
X92648142Y-232772293D02*
X92791000Y-232915150D01*
X92791000Y-232915150D02*
X92933857Y-233200865D01*
X92933857Y-233200865D02*
X92933857Y-234343722D01*
X92933857Y-234343722D02*
X89933857Y-234343722D01*
X89933857Y-234343722D02*
X89933857Y-233343722D01*
X89933857Y-233343722D02*
X90076714Y-233058008D01*
X90076714Y-233058008D02*
X90219571Y-232915150D01*
X90219571Y-232915150D02*
X90505285Y-232772293D01*
X90505285Y-232772293D02*
X90791000Y-232772293D01*
X90791000Y-232772293D02*
X91076714Y-232915150D01*
X91076714Y-232915150D02*
X91219571Y-233058008D01*
X91219571Y-233058008D02*
X91362428Y-233343722D01*
X91362428Y-233343722D02*
X91362428Y-234343722D01*
X89933857Y-230772293D02*
X89933857Y-230200865D01*
X89933857Y-230200865D02*
X90076714Y-229915150D01*
X90076714Y-229915150D02*
X90362428Y-229629436D01*
X90362428Y-229629436D02*
X90933857Y-229486579D01*
X90933857Y-229486579D02*
X91933857Y-229486579D01*
X91933857Y-229486579D02*
X92505285Y-229629436D01*
X92505285Y-229629436D02*
X92791000Y-229915150D01*
X92791000Y-229915150D02*
X92933857Y-230200865D01*
X92933857Y-230200865D02*
X92933857Y-230772293D01*
X92933857Y-230772293D02*
X92791000Y-231058008D01*
X92791000Y-231058008D02*
X92505285Y-231343722D01*
X92505285Y-231343722D02*
X91933857Y-231486579D01*
X91933857Y-231486579D02*
X90933857Y-231486579D01*
X90933857Y-231486579D02*
X90362428Y-231343722D01*
X90362428Y-231343722D02*
X90076714Y-231058008D01*
X90076714Y-231058008D02*
X89933857Y-230772293D01*
X92076714Y-228343722D02*
X92076714Y-226915151D01*
X92933857Y-228629436D02*
X89933857Y-227629436D01*
X89933857Y-227629436D02*
X92933857Y-226629436D01*
X92933857Y-223915150D02*
X91505285Y-224915150D01*
X92933857Y-225629436D02*
X89933857Y-225629436D01*
X89933857Y-225629436D02*
X89933857Y-224486579D01*
X89933857Y-224486579D02*
X90076714Y-224200864D01*
X90076714Y-224200864D02*
X90219571Y-224058007D01*
X90219571Y-224058007D02*
X90505285Y-223915150D01*
X90505285Y-223915150D02*
X90933857Y-223915150D01*
X90933857Y-223915150D02*
X91219571Y-224058007D01*
X91219571Y-224058007D02*
X91362428Y-224200864D01*
X91362428Y-224200864D02*
X91505285Y-224486579D01*
X91505285Y-224486579D02*
X91505285Y-225629436D01*
X92933857Y-222629436D02*
X89933857Y-222629436D01*
X89933857Y-222629436D02*
X89933857Y-221915150D01*
X89933857Y-221915150D02*
X90076714Y-221486579D01*
X90076714Y-221486579D02*
X90362428Y-221200864D01*
X90362428Y-221200864D02*
X90648142Y-221058007D01*
X90648142Y-221058007D02*
X91219571Y-220915150D01*
X91219571Y-220915150D02*
X91648142Y-220915150D01*
X91648142Y-220915150D02*
X92219571Y-221058007D01*
X92219571Y-221058007D02*
X92505285Y-221200864D01*
X92505285Y-221200864D02*
X92791000Y-221486579D01*
X92791000Y-221486579D02*
X92933857Y-221915150D01*
X92933857Y-221915150D02*
X92933857Y-222629436D01*
D12*
%TO.P,D37,4,DIN*%
%TO.N,Net-(D29-DOUT)*%
X110900000Y-216312000D03*
%TO.P,D37,3,VSS*%
%TO.N,GND*%
X107600000Y-216312000D03*
%TO.P,D37,2,DOUT*%
%TO.N,Net-(D37-DOUT)*%
X107600000Y-211412000D03*
%TO.P,D37,1,VDD*%
%TO.N,+5V*%
X110900000Y-211412000D03*
%TD*%
D13*
%TO.P,SW60,1,1*%
%TO.N,Net-(D99-A)*%
X119050000Y-295112000D03*
%TO.P,SW60,2,2*%
%TO.N,/COL12*%
X114050000Y-293012000D03*
D14*
%TO.P,SW60,3*%
%TO.N,N/C*%
X120320000Y-284412000D03*
D15*
%TO.P,SW60,4*%
X117780000Y-284412000D03*
%TD*%
D16*
%TO.P,D67,2,A*%
%TO.N,Net-(D67-A)*%
X253720000Y-294772000D03*
D17*
%TO.P,D67,1,K*%
%TO.N,/ROW5*%
X253720000Y-287152000D03*
%TD*%
D16*
%TO.P,D75,2,A*%
%TO.N,Net-(D75-A)*%
X298740000Y-256812000D03*
D17*
%TO.P,D75,1,K*%
%TO.N,/ROW5*%
X298740000Y-249192000D03*
%TD*%
%TO.P,D95,1,K*%
%TO.N,/ROW1*%
X240380000Y-306042000D03*
D16*
%TO.P,D95,2,A*%
%TO.N,Net-(D95-A)*%
X240380000Y-313662000D03*
%TD*%
%TO.P,D57,2,A*%
%TO.N,Net-(D57-A)*%
X355630000Y-256632000D03*
D17*
%TO.P,D57,1,K*%
%TO.N,/ROW3*%
X355630000Y-249012000D03*
%TD*%
D16*
%TO.P,D24,2,A*%
%TO.N,Net-(D24-A)*%
X241640000Y-256732000D03*
D17*
%TO.P,D24,1,K*%
%TO.N,/ROW2*%
X241640000Y-249112000D03*
%TD*%
D16*
%TO.P,D42,2,A*%
%TO.N,Net-(D42-A)*%
X222520000Y-259432000D03*
D17*
%TO.P,D42,1,K*%
%TO.N,/ROW4*%
X222520000Y-251812000D03*
%TD*%
D16*
%TO.P,D43,2,A*%
%TO.N,Net-(D43-A)*%
X303680000Y-275442000D03*
D17*
%TO.P,D43,1,K*%
%TO.N,/ROW5*%
X303680000Y-267822000D03*
%TD*%
D16*
%TO.P,D59,2,A*%
%TO.N,Net-(D59-A)*%
X260610000Y-256172000D03*
D17*
%TO.P,D59,1,K*%
%TO.N,/ROW5*%
X260610000Y-248552000D03*
%TD*%
D16*
%TO.P,D74,2,A*%
%TO.N,Net-(D74-A)*%
X336960000Y-256332000D03*
D17*
%TO.P,D74,1,K*%
%TO.N,/ROW4*%
X336960000Y-248712000D03*
%TD*%
D16*
%TO.P,D80,2,A*%
%TO.N,Net-(D80-A)*%
X227360000Y-275172000D03*
D17*
%TO.P,D80,1,K*%
%TO.N,/ROW2*%
X227360000Y-267552000D03*
%TD*%
D16*
%TO.P,D91,2,A*%
%TO.N,Net-(D91-A)*%
X279750000Y-256092000D03*
D17*
%TO.P,D91,1,K*%
%TO.N,/ROW5*%
X279750000Y-248472000D03*
%TD*%
D16*
%TO.P,D40,2,A*%
%TO.N,Net-(D40-A)*%
X379920000Y-256582000D03*
D17*
%TO.P,D40,1,K*%
%TO.N,/ROW2*%
X379920000Y-248962000D03*
%TD*%
D13*
%TO.P,SW56,1,1*%
%TO.N,Net-(D95-A)*%
X228870000Y-313415700D03*
%TO.P,SW56,2,2*%
%TO.N,/COL12*%
X223870000Y-311315700D03*
D14*
%TO.P,SW56,3*%
%TO.N,N/C*%
X230140000Y-302715700D03*
D15*
%TO.P,SW56,4*%
X227600000Y-302715700D03*
%TD*%
D17*
%TO.P,D66,1,K*%
%TO.N,/ROW4*%
X246410000Y-268312000D03*
D16*
%TO.P,D66,2,A*%
%TO.N,Net-(D66-A)*%
X246410000Y-275932000D03*
%TD*%
%TO.P,D41,2,A*%
%TO.N,Net-(D41-A)*%
X203550000Y-256522000D03*
D17*
%TO.P,D41,1,K*%
%TO.N,/ROW3*%
X203550000Y-248902000D03*
%TD*%
D16*
%TO.P,D14,2,A*%
%TO.N,Net-(D14-A)*%
X208500000Y-275272000D03*
D17*
%TO.P,D14,1,K*%
%TO.N,/ROW1*%
X208500000Y-267652000D03*
%TD*%
D16*
%TO.P,D17,2,A*%
%TO.N,Net-(D17-A)*%
X234540000Y-286172000D03*
D18*
%TO.P,D17,1,K*%
%TO.N,/ROW4*%
X234540000Y-293792000D03*
%TD*%
D16*
%TO.P,D34,2,A*%
%TO.N,Net-(D34-A)*%
X380780000Y-276342000D03*
D17*
%TO.P,D34,1,K*%
%TO.N,/ROW4*%
X380780000Y-268722000D03*
%TD*%
D16*
%TO.P,D64,2,A*%
%TO.N,Net-(D64-A)*%
X265380000Y-275472000D03*
D17*
%TO.P,D64,1,K*%
%TO.N,/ROW2*%
X265380000Y-267852000D03*
%TD*%
D16*
%TO.P,D26,2,A*%
%TO.N,Net-(D26-A)*%
X308410000Y-313442000D03*
D17*
%TO.P,D26,1,K*%
%TO.N,/ROW4*%
X308410000Y-305822000D03*
%TD*%
D16*
%TO.P,D107,2,A*%
%TO.N,Net-(D107-A)*%
X403520000Y-275602000D03*
D17*
%TO.P,D107,1,K*%
%TO.N,/ROW5*%
X403520000Y-267982000D03*
%TD*%
D16*
%TO.P,D79,2,A*%
%TO.N,Net-(D79-A)*%
X322530000Y-275362000D03*
D17*
%TO.P,D79,1,K*%
%TO.N,/ROW1*%
X322530000Y-267742000D03*
%TD*%
D16*
%TO.P,D8,2,A*%
%TO.N,Net-(D8-A)*%
X403490000Y-313122000D03*
D17*
%TO.P,D8,1,K*%
%TO.N,/ROW4*%
X403490000Y-305502000D03*
%TD*%
D16*
%TO.P,D18,2,A*%
%TO.N,Net-(D18-A)*%
X329810000Y-294552000D03*
D17*
%TO.P,D18,1,K*%
%TO.N,/ROW5*%
X329810000Y-286932000D03*
%TD*%
D16*
%TO.P,D32,2,A*%
%TO.N,Net-(D32-A)*%
X384270000Y-313872000D03*
D17*
%TO.P,D32,1,K*%
%TO.N,/ROW2*%
X384270000Y-306252000D03*
%TD*%
D16*
%TO.P,D65,2,A*%
%TO.N,Net-(D65-A)*%
X284330000Y-275672000D03*
D17*
%TO.P,D65,1,K*%
%TO.N,/ROW3*%
X284330000Y-268052000D03*
%TD*%
D16*
%TO.P,D81,2,A*%
%TO.N,Net-(D81-A)*%
X272420000Y-296662000D03*
D17*
%TO.P,D81,1,K*%
%TO.N,/ROW3*%
X272420000Y-289042000D03*
%TD*%
D16*
%TO.P,D83,2,A*%
%TO.N,Net-(D83-A)*%
X272480000Y-286822000D03*
D17*
%TO.P,D83,1,K*%
%TO.N,/ROW5*%
X272480000Y-279202000D03*
%TD*%
D16*
%TO.P,D7,2,A*%
%TO.N,Net-(D7-A)*%
X310930000Y-313392000D03*
D17*
%TO.P,D7,1,K*%
%TO.N,/ROW3*%
X310930000Y-305772000D03*
%TD*%
D16*
%TO.P,D106,2,A*%
%TO.N,Net-(D106-A)*%
X403630000Y-256142000D03*
D17*
%TO.P,D106,1,K*%
%TO.N,/ROW4*%
X403630000Y-248522000D03*
%TD*%
D16*
%TO.P,D47,2,A*%
%TO.N,Net-(D47-A)*%
X288890000Y-314222000D03*
D17*
%TO.P,D47,1,K*%
%TO.N,/ROW1*%
X288890000Y-306602000D03*
%TD*%
D16*
%TO.P,D58,2,A*%
%TO.N,Net-(D58-A)*%
X341580000Y-275752000D03*
D17*
%TO.P,D58,1,K*%
%TO.N,/ROW4*%
X341580000Y-268132000D03*
%TD*%
D16*
%TO.P,D5,2,A*%
%TO.N,Net-(D5-A)*%
X365620000Y-314262000D03*
D17*
%TO.P,D5,1,K*%
%TO.N,/ROW1*%
X365620000Y-306642000D03*
%TD*%
D16*
%TO.P,D89,2,A*%
%TO.N,Net-(D89-A)*%
X317850000Y-256462000D03*
D17*
%TO.P,D89,1,K*%
%TO.N,/ROW3*%
X317850000Y-248842000D03*
%TD*%
D12*
%TO.P,D12,1,VDD*%
%TO.N,+5V*%
X121830000Y-211562000D03*
%TO.P,D12,2,DOUT*%
%TO.N,Net-(D12-DOUT)*%
X118530000Y-211562000D03*
%TO.P,D12,3,VSS*%
%TO.N,GND*%
X118530000Y-216462000D03*
%TO.P,D12,4,DIN*%
%TO.N,Net-(D12-DIN)*%
X121830000Y-216462000D03*
%TD*%
D15*
%TO.P,SW70,4*%
%TO.N,N/C*%
X177620000Y-302485700D03*
D14*
%TO.P,SW70,3*%
X180160000Y-302485700D03*
D13*
%TO.P,SW70,1,1*%
%TO.N,unconnected-(SW70-Pad1)*%
X178890000Y-313185700D03*
%TO.P,SW70,2,2*%
%TO.N,unconnected-(SW70-Pad2)*%
X173890000Y-311085700D03*
%TD*%
D19*
%TO.P,SW66,A,A*%
%TO.N,/ROTA*%
X295650000Y-205462000D03*
D20*
%TO.P,SW66,C,C*%
%TO.N,GND*%
X295650000Y-207962000D03*
%TO.P,SW66,B,B*%
%TO.N,/ROTB*%
X295650000Y-210462000D03*
D21*
%TO.P,SW66,MP*%
%TO.N,N/C*%
X303150000Y-202362000D03*
X303150000Y-213562000D03*
D20*
%TO.P,SW66,S2,S2*%
%TO.N,Net-(D111-A)*%
X310150000Y-205462000D03*
%TO.P,SW66,S1,S1*%
%TO.N,/COL14*%
X310150000Y-210462000D03*
%TD*%
D12*
%TO.P,D2,1,VDD*%
%TO.N,+5V*%
X404700000Y-201772000D03*
%TO.P,D2,2,DOUT*%
%TO.N,Net-(D11-DIN)*%
X401400000Y-201772000D03*
%TO.P,D2,3,VSS*%
%TO.N,GND*%
X401400000Y-206672000D03*
%TO.P,D2,4,DIN*%
%TO.N,Net-(D118-DOUT)*%
X404700000Y-206672000D03*
%TD*%
D22*
%TO.P,D38,1,VDD*%
%TO.N,+5V*%
X401250000Y-214262000D03*
%TO.P,D38,2,DOUT*%
%TO.N,Net-(D30-DOUT)*%
X404550000Y-214262000D03*
%TO.P,D38,3,VSS*%
%TO.N,GND*%
X404550000Y-209362000D03*
%TO.P,D38,4,DIN*%
%TO.N,Net-(D38-DIN)*%
X401250000Y-209362000D03*
%TD*%
D13*
%TO.P,SW33,1,1*%
%TO.N,Net-(D57-A)*%
X346440000Y-255992000D03*
%TO.P,SW33,2,2*%
%TO.N,/COL7*%
X341440000Y-253892000D03*
D14*
%TO.P,SW33,3*%
%TO.N,N/C*%
X347710000Y-245292000D03*
D15*
%TO.P,SW33,4*%
X345170000Y-245292000D03*
%TD*%
D13*
%TO.P,SW45,1,1*%
%TO.N,Net-(D75-A)*%
X289290000Y-256000000D03*
%TO.P,SW45,2,2*%
%TO.N,/COL9*%
X284290000Y-253900000D03*
D14*
%TO.P,SW45,3*%
%TO.N,N/C*%
X290560000Y-245300000D03*
D15*
%TO.P,SW45,4*%
X288020000Y-245300000D03*
%TD*%
D13*
%TO.P,SW9,1,1*%
%TO.N,Net-(D17-A)*%
X301260000Y-294112000D03*
%TO.P,SW9,2,2*%
%TO.N,/COL2*%
X296260000Y-292012000D03*
D14*
%TO.P,SW9,3*%
%TO.N,N/C*%
X302530000Y-283412000D03*
D15*
%TO.P,SW9,4*%
X299990000Y-283412000D03*
%TD*%
D13*
%TO.P,SW38,1,1*%
%TO.N,Net-(D65-A)*%
X275060000Y-275042000D03*
%TO.P,SW38,2,2*%
%TO.N,/COL8*%
X270060000Y-272942000D03*
D14*
%TO.P,SW38,3*%
%TO.N,N/C*%
X276330000Y-264342000D03*
D15*
%TO.P,SW38,4*%
X273790000Y-264342000D03*
%TD*%
D13*
%TO.P,SW15,1,1*%
%TO.N,Net-(D27-A)*%
X113070000Y-255992000D03*
%TO.P,SW15,2,2*%
%TO.N,/COL3*%
X108070000Y-253892000D03*
D14*
%TO.P,SW15,3*%
%TO.N,N/C*%
X114340000Y-245292000D03*
D15*
%TO.P,SW15,4*%
X111800000Y-245292000D03*
%TD*%
D13*
%TO.P,SW19,1,1*%
%TO.N,Net-(D34-A)*%
X363120000Y-275042000D03*
%TO.P,SW19,2,2*%
%TO.N,/COL4*%
X358120000Y-272942000D03*
D14*
%TO.P,SW19,3*%
%TO.N,N/C*%
X364390000Y-264342000D03*
D15*
%TO.P,SW19,4*%
X361850000Y-264342000D03*
%TD*%
D13*
%TO.P,SW30,1,1*%
%TO.N,Net-(D51-A)*%
X102590000Y-313122000D03*
%TO.P,SW30,2,2*%
%TO.N,/COL6*%
X97590000Y-311022000D03*
D14*
%TO.P,SW30,3*%
%TO.N,N/C*%
X103860000Y-302422000D03*
D15*
%TO.P,SW30,4*%
X101320000Y-302422000D03*
%TD*%
D22*
%TO.P,D10,1,VDD*%
%TO.N,+5V*%
X92830000Y-209002000D03*
%TO.P,D10,2,DOUT*%
%TO.N,Net-(D10-DOUT)*%
X96130000Y-209002000D03*
%TO.P,D10,3,VSS*%
%TO.N,GND*%
X96130000Y-204102000D03*
%TO.P,D10,4,DIN*%
%TO.N,Net-(D1-DOUT)*%
X92830000Y-204102000D03*
%TD*%
D23*
%TO.P,D93,1,VDD*%
%TO.N,+5V*%
X371417700Y-206102000D03*
%TO.P,D93,2,DOUT*%
%TO.N,Net-(D101-DIN)*%
X371417700Y-202802000D03*
%TO.P,D93,3,VSS*%
%TO.N,GND*%
X366517700Y-202802000D03*
%TO.P,D93,4,DIN*%
%TO.N,Net-(D85-DOUT)*%
X366517700Y-206102000D03*
%TD*%
D13*
%TO.P,SW62,1,1*%
%TO.N,Net-(D104-A)*%
X203570000Y-236942000D03*
%TO.P,SW62,2,2*%
%TO.N,/COL13*%
X198570000Y-234842000D03*
D14*
%TO.P,SW62,3*%
%TO.N,N/C*%
X204840000Y-226242000D03*
D15*
%TO.P,SW62,4*%
X202300000Y-226242000D03*
%TD*%
D24*
%TO.P,D77,1,VDD*%
%TO.N,+5V*%
X358887700Y-202892000D03*
%TO.P,D77,2,DOUT*%
%TO.N,Net-(D77-DOUT)*%
X358887700Y-206192000D03*
%TO.P,D77,3,VSS*%
%TO.N,GND*%
X363787700Y-206192000D03*
%TO.P,D77,4,DIN*%
%TO.N,Net-(D69-DOUT)*%
X363787700Y-202892000D03*
%TD*%
D13*
%TO.P,SW57,1,1*%
%TO.N,Net-(D96-A)*%
X140730000Y-313172000D03*
%TO.P,SW57,2,2*%
%TO.N,/COL12*%
X135730000Y-311072000D03*
D14*
%TO.P,SW57,3*%
%TO.N,N/C*%
X142000000Y-302472000D03*
D15*
%TO.P,SW57,4*%
X139460000Y-302472000D03*
%TD*%
D12*
%TO.P,D117,1,VDD*%
%TO.N,+5V*%
X395960000Y-201482000D03*
%TO.P,D117,2,DOUT*%
%TO.N,Net-(D117-DOUT)*%
X392660000Y-201482000D03*
%TO.P,D117,3,VSS*%
%TO.N,GND*%
X392660000Y-206382000D03*
%TO.P,D117,4,DIN*%
%TO.N,Net-(D110-DOUT)*%
X395960000Y-206382000D03*
%TD*%
D13*
%TO.P,SW63,1,1*%
%TO.N,Net-(D105-A)*%
X347660000Y-294102000D03*
%TO.P,SW63,2,2*%
%TO.N,/COL13*%
X342660000Y-292002000D03*
D14*
%TO.P,SW63,3*%
%TO.N,N/C*%
X348930000Y-283402000D03*
D15*
%TO.P,SW63,4*%
X346390000Y-283402000D03*
%TD*%
D12*
%TO.P,D13,1,VDD*%
%TO.N,+5V*%
X279100000Y-202232000D03*
%TO.P,D13,2,DOUT*%
%TO.N,Net-(D13-DOUT)*%
X275800000Y-202232000D03*
%TO.P,D13,3,VSS*%
%TO.N,GND*%
X275800000Y-207132000D03*
%TO.P,D13,4,DIN*%
%TO.N,Net-(D13-DIN)*%
X279100000Y-207132000D03*
%TD*%
D13*
%TO.P,SW54,1,1*%
%TO.N,Net-(D90-A)*%
X174990000Y-256000000D03*
%TO.P,SW54,2,2*%
%TO.N,/COL11*%
X169990000Y-253900000D03*
D14*
%TO.P,SW54,3*%
%TO.N,N/C*%
X176260000Y-245300000D03*
D15*
%TO.P,SW54,4*%
X173720000Y-245300000D03*
%TD*%
D13*
%TO.P,SW65,1,1*%
%TO.N,Net-(D107-A)*%
X394070000Y-275042000D03*
%TO.P,SW65,2,2*%
%TO.N,/COL13*%
X389070000Y-272942000D03*
D14*
%TO.P,SW65,3*%
%TO.N,N/C*%
X395340000Y-264342000D03*
D15*
%TO.P,SW65,4*%
X392800000Y-264342000D03*
%TD*%
D22*
%TO.P,D21,1,VDD*%
%TO.N,+5V*%
X123140000Y-208452000D03*
%TO.P,D21,2,DOUT*%
%TO.N,Net-(D21-DOUT)*%
X126440000Y-208452000D03*
%TO.P,D21,3,VSS*%
%TO.N,GND*%
X126440000Y-203552000D03*
%TO.P,D21,4,DIN*%
%TO.N,Net-(D12-DOUT)*%
X123140000Y-203552000D03*
%TD*%
D13*
%TO.P,SW2,1,1*%
%TO.N,Net-(D6-A)*%
X375020000Y-294092000D03*
%TO.P,SW2,2,2*%
%TO.N,/COL1*%
X370020000Y-291992000D03*
D14*
%TO.P,SW2,3*%
%TO.N,N/C*%
X376290000Y-283392000D03*
D15*
%TO.P,SW2,4*%
X373750000Y-283392000D03*
%TD*%
D12*
%TO.P,D60,1,VDD*%
%TO.N,+5V*%
X147390000Y-203222000D03*
%TO.P,D60,2,DOUT*%
%TO.N,Net-(D60-DOUT)*%
X144090000Y-203222000D03*
%TO.P,D60,3,VSS*%
%TO.N,GND*%
X144090000Y-208122000D03*
%TO.P,D60,4,DIN*%
%TO.N,Net-(D52-DOUT)*%
X147390000Y-208122000D03*
%TD*%
D13*
%TO.P,SW41,1,1*%
%TO.N,Net-(D71-A)*%
X121650000Y-313142000D03*
%TO.P,SW41,2,2*%
%TO.N,/COL9*%
X116650000Y-311042000D03*
D14*
%TO.P,SW41,3*%
%TO.N,N/C*%
X122920000Y-302442000D03*
D15*
%TO.P,SW41,4*%
X120380000Y-302442000D03*
%TD*%
D13*
%TO.P,SW1,1,1*%
%TO.N,Net-(D5-A)*%
X355970000Y-313142000D03*
%TO.P,SW1,2,2*%
%TO.N,/COL1*%
X350970000Y-311042000D03*
D14*
%TO.P,SW1,3*%
%TO.N,N/C*%
X357240000Y-302442000D03*
D15*
%TO.P,SW1,4*%
X354700000Y-302442000D03*
%TD*%
D23*
%TO.P,D30,1,VDD*%
%TO.N,+5V*%
X387657700Y-212722000D03*
%TO.P,D30,2,DOUT*%
%TO.N,Net-(D30-DOUT)*%
X387657700Y-209422000D03*
%TO.P,D30,3,VSS*%
%TO.N,GND*%
X382757700Y-209422000D03*
%TO.P,D30,4,DIN*%
%TO.N,Net-(D21-DOUT)*%
X382757700Y-212722000D03*
%TD*%
D12*
%TO.P,D45,1,VDD*%
%TO.N,+5V*%
X116330000Y-204042000D03*
%TO.P,D45,2,DOUT*%
%TO.N,Net-(D45-DOUT)*%
X113030000Y-204042000D03*
%TO.P,D45,3,VSS*%
%TO.N,GND*%
X113030000Y-208942000D03*
%TO.P,D45,4,DIN*%
%TO.N,Net-(D37-DOUT)*%
X116330000Y-208942000D03*
%TD*%
D13*
%TO.P,SW4,1,1*%
%TO.N,Net-(D8-A)*%
X394070000Y-313142000D03*
%TO.P,SW4,2,2*%
%TO.N,/COL1*%
X389070000Y-311042000D03*
D14*
%TO.P,SW4,3*%
%TO.N,N/C*%
X395340000Y-302442000D03*
D15*
%TO.P,SW4,4*%
X392800000Y-302442000D03*
%TD*%
D24*
%TO.P,D44,1,VDD*%
%TO.N,+5V*%
X350767700Y-202892000D03*
%TO.P,D44,2,DOUT*%
%TO.N,Net-(D44-DOUT)*%
X350767700Y-206192000D03*
%TO.P,D44,3,VSS*%
%TO.N,GND*%
X355667700Y-206192000D03*
%TO.P,D44,4,DIN*%
%TO.N,Net-(D36-DOUT)*%
X355667700Y-202892000D03*
%TD*%
D13*
%TO.P,SW48,1,1*%
%TO.N,Net-(D81-A)*%
X282190000Y-294102000D03*
%TO.P,SW48,2,2*%
%TO.N,/COL10*%
X277190000Y-292002000D03*
D14*
%TO.P,SW48,3*%
%TO.N,N/C*%
X283460000Y-283402000D03*
D15*
%TO.P,SW48,4*%
X280920000Y-283402000D03*
%TD*%
D13*
%TO.P,SW51,1,1*%
%TO.N,Net-(D87-A)*%
X298810000Y-236875700D03*
%TO.P,SW51,2,2*%
%TO.N,/COL11*%
X293810000Y-234775700D03*
D14*
%TO.P,SW51,3*%
%TO.N,N/C*%
X300080000Y-226175700D03*
D15*
%TO.P,SW51,4*%
X297540000Y-226175700D03*
%TD*%
D13*
%TO.P,SW5,1,1*%
%TO.N,Net-(D9-A)*%
X148820000Y-294112000D03*
%TO.P,SW5,2,2*%
%TO.N,/COL1*%
X143820000Y-292012000D03*
D14*
%TO.P,SW5,3*%
%TO.N,N/C*%
X150090000Y-283412000D03*
D15*
%TO.P,SW5,4*%
X147550000Y-283412000D03*
%TD*%
D12*
%TO.P,D92,1,VDD*%
%TO.N,+5V*%
X227890000Y-210122000D03*
%TO.P,D92,2,DOUT*%
%TO.N,Net-(D100-DIN)*%
X224590000Y-210122000D03*
%TO.P,D92,3,VSS*%
%TO.N,GND*%
X224590000Y-215022000D03*
%TO.P,D92,4,DIN*%
%TO.N,Net-(D84-DOUT)*%
X227890000Y-215022000D03*
%TD*%
D24*
%TO.P,D86,1,VDD*%
%TO.N,+5V*%
X335007700Y-203022000D03*
%TO.P,D86,2,DOUT*%
%TO.N,Net-(D86-DOUT)*%
X335007700Y-206322000D03*
%TO.P,D86,3,VSS*%
%TO.N,GND*%
X339907700Y-206322000D03*
%TO.P,D86,4,DIN*%
%TO.N,Net-(D78-DOUT)*%
X339907700Y-203022000D03*
%TD*%
%TO.P,D4,1,VDD*%
%TO.N,+5V*%
X342647700Y-202892000D03*
%TO.P,D4,2,DOUT*%
%TO.N,Net-(D13-DIN)*%
X342647700Y-206192000D03*
%TO.P,D4,3,VSS*%
%TO.N,GND*%
X347547700Y-206192000D03*
%TO.P,D4,4,DIN*%
%TO.N,Net-(D120-DOUT)*%
X347547700Y-202892000D03*
%TD*%
%TO.P,D1,1,VDD*%
%TO.N,+5V*%
X342647700Y-209512000D03*
%TO.P,D1,2,DOUT*%
%TO.N,Net-(D1-DOUT)*%
X342647700Y-212812000D03*
%TO.P,D1,3,VSS*%
%TO.N,GND*%
X347547700Y-212812000D03*
%TO.P,D1,4,DIN*%
%TO.N,/LEDMAT*%
X347547700Y-209512000D03*
%TD*%
D13*
%TO.P,SW26,1,1*%
%TO.N,Net-(D47-A)*%
X298820000Y-313192000D03*
%TO.P,SW26,2,2*%
%TO.N,/COL6*%
X293820000Y-311092000D03*
D14*
%TO.P,SW26,3*%
%TO.N,N/C*%
X300090000Y-302492000D03*
D15*
%TO.P,SW26,4*%
X297550000Y-302492000D03*
%TD*%
D13*
%TO.P,SW34,1,1*%
%TO.N,Net-(D58-A)*%
X332170000Y-275042000D03*
%TO.P,SW34,2,2*%
%TO.N,/COL7*%
X327170000Y-272942000D03*
D14*
%TO.P,SW34,3*%
%TO.N,N/C*%
X333440000Y-264342000D03*
D15*
%TO.P,SW34,4*%
X330900000Y-264342000D03*
%TD*%
D13*
%TO.P,SW69,1,1*%
%TO.N,Net-(D114-A)*%
X356060000Y-236922000D03*
%TO.P,SW69,2,2*%
%TO.N,/COL14*%
X351060000Y-234822000D03*
D14*
%TO.P,SW69,3*%
%TO.N,N/C*%
X357330000Y-226222000D03*
D15*
%TO.P,SW69,4*%
X354790000Y-226222000D03*
%TD*%
D13*
%TO.P,SW17,1,1*%
%TO.N,Net-(D32-A)*%
X375030000Y-313172000D03*
%TO.P,SW17,2,2*%
%TO.N,/COL4*%
X370030000Y-311072000D03*
D14*
%TO.P,SW17,3*%
%TO.N,N/C*%
X376300000Y-302472000D03*
D15*
%TO.P,SW17,4*%
X373760000Y-302472000D03*
%TD*%
D12*
%TO.P,D68,1,VDD*%
%TO.N,+5V*%
X173650000Y-210932000D03*
%TO.P,D68,2,DOUT*%
%TO.N,Net-(D68-DOUT)*%
X170350000Y-210932000D03*
%TO.P,D68,3,VSS*%
%TO.N,GND*%
X170350000Y-215832000D03*
%TO.P,D68,4,DIN*%
%TO.N,Net-(D60-DOUT)*%
X173650000Y-215832000D03*
%TD*%
%TO.P,D76,1,VDD*%
%TO.N,+5V*%
X165680000Y-210712000D03*
%TO.P,D76,2,DOUT*%
%TO.N,Net-(D76-DOUT)*%
X162380000Y-210712000D03*
%TO.P,D76,3,VSS*%
%TO.N,GND*%
X162380000Y-215612000D03*
%TO.P,D76,4,DIN*%
%TO.N,Net-(D68-DOUT)*%
X165680000Y-215612000D03*
%TD*%
D13*
%TO.P,SW7,1,1*%
%TO.N,Net-(D15-A)*%
X186960000Y-294102000D03*
%TO.P,SW7,2,2*%
%TO.N,/COL2*%
X181960000Y-292002000D03*
D14*
%TO.P,SW7,3*%
%TO.N,N/C*%
X188230000Y-283402000D03*
D15*
%TO.P,SW7,4*%
X185690000Y-283402000D03*
%TD*%
D12*
%TO.P,D110,1,VDD*%
%TO.N,+5V*%
X240020000Y-210282000D03*
%TO.P,D110,2,DOUT*%
%TO.N,Net-(D110-DOUT)*%
X236720000Y-210282000D03*
%TO.P,D110,3,VSS*%
%TO.N,GND*%
X236720000Y-215182000D03*
%TO.P,D110,4,DIN*%
%TO.N,Net-(D102-DOUT)*%
X240020000Y-215182000D03*
%TD*%
D13*
%TO.P,SW13,1,1*%
%TO.N,Net-(D25-A)*%
X136890000Y-256000000D03*
%TO.P,SW13,2,2*%
%TO.N,/COL3*%
X131890000Y-253900000D03*
D14*
%TO.P,SW13,3*%
%TO.N,N/C*%
X138160000Y-245300000D03*
D15*
%TO.P,SW13,4*%
X135620000Y-245300000D03*
%TD*%
D13*
%TO.P,SW35,1,1*%
%TO.N,Net-(D59-A)*%
X251190000Y-256000000D03*
%TO.P,SW35,2,2*%
%TO.N,/COL7*%
X246190000Y-253900000D03*
D14*
%TO.P,SW35,3*%
%TO.N,N/C*%
X252460000Y-245300000D03*
D15*
%TO.P,SW35,4*%
X249920000Y-245300000D03*
%TD*%
D13*
%TO.P,SW71,1,1*%
%TO.N,unconnected-(SW71-Pad1)*%
X278910000Y-313162000D03*
%TO.P,SW71,2,2*%
%TO.N,unconnected-(SW71-Pad2)*%
X273910000Y-311062000D03*
D14*
%TO.P,SW71,3*%
%TO.N,N/C*%
X280180000Y-302462000D03*
D15*
%TO.P,SW71,4*%
X277640000Y-302462000D03*
%TD*%
D12*
%TO.P,D100,1,VDD*%
%TO.N,+5V*%
X262660000Y-202062000D03*
%TO.P,D100,2,DOUT*%
%TO.N,Net-(D100-DOUT)*%
X259360000Y-202062000D03*
%TO.P,D100,3,VSS*%
%TO.N,GND*%
X259360000Y-206962000D03*
%TO.P,D100,4,DIN*%
%TO.N,Net-(D100-DIN)*%
X262660000Y-206962000D03*
%TD*%
D13*
%TO.P,SW40,1,1*%
%TO.N,Net-(D67-A)*%
X244100000Y-294082000D03*
%TO.P,SW40,2,2*%
%TO.N,/COL8*%
X239100000Y-291982000D03*
D14*
%TO.P,SW40,3*%
%TO.N,N/C*%
X245370000Y-283382000D03*
D15*
%TO.P,SW40,4*%
X242830000Y-283382000D03*
%TD*%
D13*
%TO.P,SW22,1,1*%
%TO.N,Net-(D40-A)*%
X370530000Y-256012000D03*
%TO.P,SW22,2,2*%
%TO.N,/COL5*%
X365530000Y-253912000D03*
D14*
%TO.P,SW22,3*%
%TO.N,N/C*%
X371800000Y-245312000D03*
D15*
%TO.P,SW22,4*%
X369260000Y-245312000D03*
%TD*%
D12*
%TO.P,D116,1,VDD*%
%TO.N,+5V*%
X234140000Y-202152000D03*
%TO.P,D116,2,DOUT*%
%TO.N,Net-(D116-DOUT)*%
X230840000Y-202152000D03*
%TO.P,D116,3,VSS*%
%TO.N,GND*%
X230840000Y-207052000D03*
%TO.P,D116,4,DIN*%
%TO.N,Net-(D109-DOUT)*%
X234140000Y-207052000D03*
%TD*%
D13*
%TO.P,SW58,1,1*%
%TO.N,Net-(D97-A)*%
X241720000Y-236922000D03*
%TO.P,SW58,2,2*%
%TO.N,/COL12*%
X236720000Y-234822000D03*
D14*
%TO.P,SW58,3*%
%TO.N,N/C*%
X242990000Y-226222000D03*
D15*
%TO.P,SW58,4*%
X240450000Y-226222000D03*
%TD*%
D23*
%TO.P,D62,1,VDD*%
%TO.N,+5V*%
X379537700Y-212722000D03*
%TO.P,D62,2,DOUT*%
%TO.N,Net-(D62-DOUT)*%
X379537700Y-209422000D03*
%TO.P,D62,3,VSS*%
%TO.N,GND*%
X374637700Y-209422000D03*
%TO.P,D62,4,DIN*%
%TO.N,Net-(D54-DOUT)*%
X374637700Y-212722000D03*
%TD*%
D13*
%TO.P,SW36,1,1*%
%TO.N,Net-(D63-A)*%
X160790000Y-275022000D03*
%TO.P,SW36,2,2*%
%TO.N,/COL8*%
X155790000Y-272922000D03*
D14*
%TO.P,SW36,3*%
%TO.N,N/C*%
X162060000Y-264322000D03*
D15*
%TO.P,SW36,4*%
X159520000Y-264322000D03*
%TD*%
D23*
%TO.P,D94,1,VDD*%
%TO.N,+5V*%
X371417700Y-212722000D03*
%TO.P,D94,2,DOUT*%
%TO.N,Net-(D102-DIN)*%
X371417700Y-209422000D03*
%TO.P,D94,3,VSS*%
%TO.N,GND*%
X366517700Y-209422000D03*
%TO.P,D94,4,DIN*%
%TO.N,Net-(D86-DOUT)*%
X366517700Y-212722000D03*
%TD*%
D13*
%TO.P,SW25,1,1*%
%TO.N,Net-(D43-A)*%
X294110000Y-275042000D03*
%TO.P,SW25,2,2*%
%TO.N,/COL5*%
X289110000Y-272942000D03*
D14*
%TO.P,SW25,3*%
%TO.N,N/C*%
X295380000Y-264342000D03*
D15*
%TO.P,SW25,4*%
X292840000Y-264342000D03*
%TD*%
D13*
%TO.P,SW28,1,1*%
%TO.N,Net-(D49-A)*%
X394060000Y-294072000D03*
%TO.P,SW28,2,2*%
%TO.N,/COL6*%
X389060000Y-291972000D03*
D14*
%TO.P,SW28,3*%
%TO.N,N/C*%
X395330000Y-283372000D03*
D15*
%TO.P,SW28,4*%
X392790000Y-283372000D03*
%TD*%
D13*
%TO.P,SW31,1,1*%
%TO.N,Net-(D55-A)*%
X159840000Y-313175700D03*
%TO.P,SW31,2,2*%
%TO.N,/COL7*%
X154840000Y-311075700D03*
D14*
%TO.P,SW31,3*%
%TO.N,N/C*%
X161110000Y-302475700D03*
D15*
%TO.P,SW31,4*%
X158570000Y-302475700D03*
%TD*%
D13*
%TO.P,SW43,1,1*%
%TO.N,Net-(D73-A)*%
X213090000Y-256000000D03*
%TO.P,SW43,2,2*%
%TO.N,/COL9*%
X208090000Y-253900000D03*
D14*
%TO.P,SW43,3*%
%TO.N,N/C*%
X214360000Y-245300000D03*
D15*
%TO.P,SW43,4*%
X211820000Y-245300000D03*
%TD*%
D12*
%TO.P,D109,1,VDD*%
%TO.N,+5V*%
X165680000Y-202592000D03*
%TO.P,D109,2,DOUT*%
%TO.N,Net-(D109-DOUT)*%
X162380000Y-202592000D03*
%TO.P,D109,3,VSS*%
%TO.N,GND*%
X162380000Y-207492000D03*
%TO.P,D109,4,DIN*%
%TO.N,Net-(D101-DOUT)*%
X165680000Y-207492000D03*
%TD*%
D23*
%TO.P,D61,1,VDD*%
%TO.N,+5V*%
X379537700Y-206102000D03*
%TO.P,D61,2,DOUT*%
%TO.N,Net-(D61-DOUT)*%
X379537700Y-202802000D03*
%TO.P,D61,3,VSS*%
%TO.N,GND*%
X374637700Y-202802000D03*
%TO.P,D61,4,DIN*%
%TO.N,Net-(D53-DOUT)*%
X374637700Y-206102000D03*
%TD*%
D22*
%TO.P,D111,1,K*%
%TO.N,/ROW1*%
X251660000Y-214692000D03*
%TO.P,D111,2,A*%
%TO.N,Net-(D111-A)*%
X254960000Y-214692000D03*
%TO.P,D111,3*%
%TO.N,N/C*%
X254960000Y-209792000D03*
%TO.P,D111,4*%
X251660000Y-209792000D03*
%TD*%
D13*
%TO.P,SW6,1,1*%
%TO.N,Net-(D14-A)*%
X198870000Y-275062000D03*
%TO.P,SW6,2,2*%
%TO.N,/COL2*%
X193870000Y-272962000D03*
D14*
%TO.P,SW6,3*%
%TO.N,N/C*%
X200140000Y-264362000D03*
D15*
%TO.P,SW6,4*%
X197600000Y-264362000D03*
%TD*%
D25*
%TO.P,R1,1*%
%TO.N,/LEDMAT*%
X412950000Y-239252000D03*
%TO.P,R1,2*%
%TO.N,Net-(A1-GPIO19)*%
X412950000Y-237427000D03*
%TD*%
D13*
%TO.P,SW23,1,1*%
%TO.N,Net-(D41-A)*%
X194040000Y-256000000D03*
%TO.P,SW23,2,2*%
%TO.N,/COL5*%
X189040000Y-253900000D03*
D14*
%TO.P,SW23,3*%
%TO.N,N/C*%
X195310000Y-245300000D03*
D15*
%TO.P,SW23,4*%
X192770000Y-245300000D03*
%TD*%
D22*
%TO.P,D19,1,VDD*%
%TO.N,+5V*%
X282690000Y-214692000D03*
%TO.P,D19,2,DOUT*%
%TO.N,Net-(D19-DOUT)*%
X285990000Y-214692000D03*
%TO.P,D19,3,VSS*%
%TO.N,GND*%
X285990000Y-209792000D03*
%TO.P,D19,4,DIN*%
%TO.N,Net-(D10-DOUT)*%
X282690000Y-209792000D03*
%TD*%
D13*
%TO.P,SW3,1,1*%
%TO.N,Net-(D7-A)*%
X327370000Y-313152000D03*
%TO.P,SW3,2,2*%
%TO.N,/COL1*%
X322370000Y-311052000D03*
D14*
%TO.P,SW3,3*%
%TO.N,N/C*%
X328640000Y-302452000D03*
D15*
%TO.P,SW3,4*%
X326100000Y-302452000D03*
%TD*%
D13*
%TO.P,SW18,1,1*%
%TO.N,Net-(D33-A)*%
X125020000Y-276132000D03*
%TO.P,SW18,2,2*%
%TO.N,/COL4*%
X120020000Y-274032000D03*
D14*
%TO.P,SW18,3*%
%TO.N,N/C*%
X126290000Y-265432000D03*
D15*
%TO.P,SW18,4*%
X123750000Y-265432000D03*
%TD*%
D13*
%TO.P,SW61,1,1*%
%TO.N,Net-(D103-A)*%
X317790000Y-236872000D03*
%TO.P,SW61,2,2*%
%TO.N,/COL13*%
X312790000Y-234772000D03*
D14*
%TO.P,SW61,3*%
%TO.N,N/C*%
X319060000Y-226172000D03*
D15*
%TO.P,SW61,4*%
X316520000Y-226172000D03*
%TD*%
D13*
%TO.P,SW21,1,1*%
%TO.N,Net-(D39-A)*%
X127370000Y-236942000D03*
%TO.P,SW21,2,2*%
%TO.N,/COL5*%
X122370000Y-234842000D03*
D14*
%TO.P,SW21,3*%
%TO.N,N/C*%
X128640000Y-226242000D03*
D15*
%TO.P,SW21,4*%
X126100000Y-226242000D03*
%TD*%
D13*
%TO.P,SW68,1,1*%
%TO.N,Net-(D113-A)*%
X198000000Y-215992000D03*
%TO.P,SW68,2,2*%
%TO.N,/COL14*%
X193000000Y-213892000D03*
D14*
%TO.P,SW68,3*%
%TO.N,N/C*%
X199270000Y-205292000D03*
D15*
%TO.P,SW68,4*%
X196730000Y-205292000D03*
%TD*%
D13*
%TO.P,SW39,1,1*%
%TO.N,Net-(D66-A)*%
X236980000Y-275082000D03*
%TO.P,SW39,2,2*%
%TO.N,/COL8*%
X231980000Y-272982000D03*
D14*
%TO.P,SW39,3*%
%TO.N,N/C*%
X238250000Y-264382000D03*
D15*
%TO.P,SW39,4*%
X235710000Y-264382000D03*
%TD*%
D12*
%TO.P,D28,1,VDD*%
%TO.N,+5V*%
X105430000Y-204082000D03*
%TO.P,D28,2,DOUT*%
%TO.N,Net-(D28-DOUT)*%
X102130000Y-204082000D03*
%TO.P,D28,3,VSS*%
%TO.N,GND*%
X102130000Y-208982000D03*
%TO.P,D28,4,DIN*%
%TO.N,Net-(D19-DOUT)*%
X105430000Y-208982000D03*
%TD*%
D13*
%TO.P,SW50,1,1*%
%TO.N,Net-(D83-A)*%
X263180000Y-294102000D03*
%TO.P,SW50,2,2*%
%TO.N,/COL10*%
X258180000Y-292002000D03*
D14*
%TO.P,SW50,3*%
%TO.N,N/C*%
X264450000Y-283402000D03*
D15*
%TO.P,SW50,4*%
X261910000Y-283402000D03*
%TD*%
D13*
%TO.P,SW67,1,1*%
%TO.N,Net-(D112-A)*%
X279840000Y-236922000D03*
%TO.P,SW67,2,2*%
%TO.N,/COL14*%
X274840000Y-234822000D03*
D14*
%TO.P,SW67,3*%
%TO.N,N/C*%
X281110000Y-226222000D03*
D15*
%TO.P,SW67,4*%
X278570000Y-226222000D03*
%TD*%
D13*
%TO.P,SW27,1,1*%
%TO.N,Net-(D48-A)*%
X179800000Y-275042000D03*
%TO.P,SW27,2,2*%
%TO.N,/COL6*%
X174800000Y-272942000D03*
D14*
%TO.P,SW27,3*%
%TO.N,N/C*%
X181070000Y-264342000D03*
D15*
%TO.P,SW27,4*%
X178530000Y-264342000D03*
%TD*%
D12*
%TO.P,D108,1,VDD*%
%TO.N,+5V*%
X173510000Y-202672000D03*
%TO.P,D108,2,DOUT*%
%TO.N,Net-(D108-DOUT)*%
X170210000Y-202672000D03*
%TO.P,D108,3,VSS*%
%TO.N,GND*%
X170210000Y-207572000D03*
%TO.P,D108,4,DIN*%
%TO.N,Net-(D100-DOUT)*%
X173510000Y-207572000D03*
%TD*%
D13*
%TO.P,SW44,1,1*%
%TO.N,Net-(D74-A)*%
X327390000Y-255992000D03*
%TO.P,SW44,2,2*%
%TO.N,/COL9*%
X322390000Y-253892000D03*
D14*
%TO.P,SW44,3*%
%TO.N,N/C*%
X328660000Y-245292000D03*
D15*
%TO.P,SW44,4*%
X326120000Y-245292000D03*
%TD*%
D13*
%TO.P,SW16,1,1*%
%TO.N,Net-(D31-A)*%
X385230000Y-238005700D03*
%TO.P,SW16,2,2*%
%TO.N,/COL4*%
X380230000Y-235905700D03*
D14*
%TO.P,SW16,3*%
%TO.N,N/C*%
X386500000Y-227305700D03*
D15*
%TO.P,SW16,4*%
X383960000Y-227305700D03*
%TD*%
D22*
%TO.P,D69,1,VDD*%
%TO.N,+5V*%
X133100000Y-208822000D03*
%TO.P,D69,2,DOUT*%
%TO.N,Net-(D69-DOUT)*%
X136400000Y-208822000D03*
%TO.P,D69,3,VSS*%
%TO.N,GND*%
X136400000Y-203922000D03*
%TO.P,D69,4,DIN*%
%TO.N,Net-(D61-DOUT)*%
X133100000Y-203922000D03*
%TD*%
D13*
%TO.P,SW52,1,1*%
%TO.N,Net-(D88-A)*%
X184520000Y-236942000D03*
%TO.P,SW52,2,2*%
%TO.N,/COL11*%
X179520000Y-234842000D03*
D14*
%TO.P,SW52,3*%
%TO.N,N/C*%
X185790000Y-226242000D03*
D15*
%TO.P,SW52,4*%
X183250000Y-226242000D03*
%TD*%
D24*
%TO.P,D36,1,VDD*%
%TO.N,+5V*%
X350767700Y-209512000D03*
%TO.P,D36,2,DOUT*%
%TO.N,Net-(D36-DOUT)*%
X350767700Y-212812000D03*
%TO.P,D36,3,VSS*%
%TO.N,GND*%
X355667700Y-212812000D03*
%TO.P,D36,4,DIN*%
%TO.N,Net-(D28-DOUT)*%
X355667700Y-209512000D03*
%TD*%
D13*
%TO.P,SW24,1,1*%
%TO.N,Net-(D42-A)*%
X232140000Y-256000000D03*
%TO.P,SW24,2,2*%
%TO.N,/COL5*%
X227140000Y-253900000D03*
D14*
%TO.P,SW24,3*%
%TO.N,N/C*%
X233410000Y-245300000D03*
D15*
%TO.P,SW24,4*%
X230870000Y-245300000D03*
%TD*%
D24*
%TO.P,D52,1,VDD*%
%TO.N,+5V*%
X326887700Y-209642000D03*
%TO.P,D52,2,DOUT*%
%TO.N,Net-(D52-DOUT)*%
X326887700Y-212942000D03*
%TO.P,D52,3,VSS*%
%TO.N,GND*%
X331787700Y-212942000D03*
%TO.P,D52,4,DIN*%
%TO.N,Net-(D44-DOUT)*%
X331787700Y-209642000D03*
%TD*%
D13*
%TO.P,SW14,1,1*%
%TO.N,Net-(D26-A)*%
X225080000Y-294082000D03*
%TO.P,SW14,2,2*%
%TO.N,/COL3*%
X220080000Y-291982000D03*
D14*
%TO.P,SW14,3*%
%TO.N,N/C*%
X226350000Y-283382000D03*
D15*
%TO.P,SW14,4*%
X223810000Y-283382000D03*
%TD*%
D13*
%TO.P,SW12,1,1*%
%TO.N,Net-(D24-A)*%
X155940000Y-256000000D03*
%TO.P,SW12,2,2*%
%TO.N,/COL3*%
X150940000Y-253900000D03*
D14*
%TO.P,SW12,3*%
%TO.N,N/C*%
X157210000Y-245300000D03*
D15*
%TO.P,SW12,4*%
X154670000Y-245300000D03*
%TD*%
D13*
%TO.P,SW32,1,1*%
%TO.N,Net-(D56-A)*%
X165470000Y-236942000D03*
%TO.P,SW32,2,2*%
%TO.N,/COL7*%
X160470000Y-234842000D03*
D14*
%TO.P,SW32,3*%
%TO.N,N/C*%
X166740000Y-226242000D03*
D15*
%TO.P,SW32,4*%
X164200000Y-226242000D03*
%TD*%
D12*
%TO.P,D115,1,VDD*%
%TO.N,+5V*%
X157350000Y-202702000D03*
%TO.P,D115,2,DOUT*%
%TO.N,Net-(D115-DOUT)*%
X154050000Y-202702000D03*
%TO.P,D115,3,VSS*%
%TO.N,GND*%
X154050000Y-207602000D03*
%TO.P,D115,4,DIN*%
%TO.N,Net-(D108-DOUT)*%
X157350000Y-207602000D03*
%TD*%
D13*
%TO.P,SW10,1,1*%
%TO.N,Net-(D18-A)*%
X320340000Y-294092000D03*
%TO.P,SW10,2,2*%
%TO.N,/COL2*%
X315340000Y-291992000D03*
D14*
%TO.P,SW10,3*%
%TO.N,N/C*%
X321610000Y-283392000D03*
D15*
%TO.P,SW10,4*%
X319070000Y-283392000D03*
%TD*%
D13*
%TO.P,SW37,1,1*%
%TO.N,Net-(D64-A)*%
X256010000Y-275032000D03*
%TO.P,SW37,2,2*%
%TO.N,/COL8*%
X251010000Y-272932000D03*
D14*
%TO.P,SW37,3*%
%TO.N,N/C*%
X257280000Y-264332000D03*
D15*
%TO.P,SW37,4*%
X254740000Y-264332000D03*
%TD*%
D24*
%TO.P,D70,1,VDD*%
%TO.N,+5V*%
X358887700Y-209512000D03*
%TO.P,D70,2,DOUT*%
%TO.N,Net-(D70-DOUT)*%
X358887700Y-212812000D03*
%TO.P,D70,3,VSS*%
%TO.N,GND*%
X363787700Y-212812000D03*
%TO.P,D70,4,DIN*%
%TO.N,Net-(D62-DOUT)*%
X363787700Y-209512000D03*
%TD*%
D13*
%TO.P,SW8,1,1*%
%TO.N,Net-(D16-A)*%
X206020000Y-294102000D03*
%TO.P,SW8,2,2*%
%TO.N,/COL2*%
X201020000Y-292002000D03*
D14*
%TO.P,SW8,3*%
%TO.N,N/C*%
X207290000Y-283402000D03*
D15*
%TO.P,SW8,4*%
X204750000Y-283402000D03*
%TD*%
D12*
%TO.P,D102,1,VDD*%
%TO.N,+5V*%
X395960000Y-209602000D03*
%TO.P,D102,2,DOUT*%
%TO.N,Net-(D102-DOUT)*%
X392660000Y-209602000D03*
%TO.P,D102,3,VSS*%
%TO.N,GND*%
X392660000Y-214502000D03*
%TO.P,D102,4,DIN*%
%TO.N,Net-(D102-DIN)*%
X395960000Y-214502000D03*
%TD*%
D13*
%TO.P,SW42,1,1*%
%TO.N,Net-(D72-A)*%
X146420000Y-236942000D03*
%TO.P,SW42,2,2*%
%TO.N,/COL9*%
X141420000Y-234842000D03*
D14*
%TO.P,SW42,3*%
%TO.N,N/C*%
X147690000Y-226242000D03*
D15*
%TO.P,SW42,4*%
X145150000Y-226242000D03*
%TD*%
D23*
%TO.P,D29,1,VDD*%
%TO.N,+5V*%
X387657700Y-206102000D03*
%TO.P,D29,2,DOUT*%
%TO.N,Net-(D29-DOUT)*%
X387657700Y-202802000D03*
%TO.P,D29,3,VSS*%
%TO.N,GND*%
X382757700Y-202802000D03*
%TO.P,D29,4,DIN*%
%TO.N,Net-(D20-DOUT)*%
X382757700Y-206102000D03*
%TD*%
D24*
%TO.P,D84,1,VDD*%
%TO.N,+5V*%
X335007700Y-209642000D03*
%TO.P,D84,2,DOUT*%
%TO.N,Net-(D84-DOUT)*%
X335007700Y-212942000D03*
%TO.P,D84,3,VSS*%
%TO.N,GND*%
X339907700Y-212942000D03*
%TO.P,D84,4,DIN*%
%TO.N,Net-(D76-DOUT)*%
X339907700Y-209642000D03*
%TD*%
D13*
%TO.P,SW49,1,1*%
%TO.N,Net-(D82-A)*%
X222610000Y-236932000D03*
%TO.P,SW49,2,2*%
%TO.N,/COL10*%
X217610000Y-234832000D03*
D14*
%TO.P,SW49,3*%
%TO.N,N/C*%
X223880000Y-226232000D03*
D15*
%TO.P,SW49,4*%
X221340000Y-226232000D03*
%TD*%
D13*
%TO.P,SW53,1,1*%
%TO.N,Net-(D89-A)*%
X308340000Y-255992000D03*
%TO.P,SW53,2,2*%
%TO.N,/COL11*%
X303340000Y-253892000D03*
D14*
%TO.P,SW53,3*%
%TO.N,N/C*%
X309610000Y-245292000D03*
D15*
%TO.P,SW53,4*%
X307070000Y-245292000D03*
%TD*%
D13*
%TO.P,SW55,1,1*%
%TO.N,Net-(D91-A)*%
X270240000Y-256000000D03*
%TO.P,SW55,2,2*%
%TO.N,/COL11*%
X265240000Y-253900000D03*
D14*
%TO.P,SW55,3*%
%TO.N,N/C*%
X271510000Y-245300000D03*
D15*
%TO.P,SW55,4*%
X268970000Y-245300000D03*
%TD*%
D24*
%TO.P,D53,1,VDD*%
%TO.N,+5V*%
X326887700Y-203022000D03*
%TO.P,D53,2,DOUT*%
%TO.N,Net-(D53-DOUT)*%
X326887700Y-206322000D03*
%TO.P,D53,3,VSS*%
%TO.N,GND*%
X331787700Y-206322000D03*
%TO.P,D53,4,DIN*%
%TO.N,Net-(D45-DOUT)*%
X331787700Y-203022000D03*
%TD*%
D12*
%TO.P,D85,1,VDD*%
%TO.N,+5V*%
X157350000Y-210822000D03*
%TO.P,D85,2,DOUT*%
%TO.N,Net-(D85-DOUT)*%
X154050000Y-210822000D03*
%TO.P,D85,3,VSS*%
%TO.N,GND*%
X154050000Y-215722000D03*
%TO.P,D85,4,DIN*%
%TO.N,Net-(D77-DOUT)*%
X157350000Y-215722000D03*
%TD*%
D13*
%TO.P,SW11,1,1*%
%TO.N,Net-(D23-A)*%
X108320000Y-236942000D03*
%TO.P,SW11,2,2*%
%TO.N,/COL3*%
X103320000Y-234842000D03*
D14*
%TO.P,SW11,3*%
%TO.N,N/C*%
X109590000Y-226242000D03*
D15*
%TO.P,SW11,4*%
X107050000Y-226242000D03*
%TD*%
D13*
%TO.P,SW47,1,1*%
%TO.N,Net-(D80-A)*%
X217900000Y-275052000D03*
%TO.P,SW47,2,2*%
%TO.N,/COL10*%
X212900000Y-272952000D03*
D14*
%TO.P,SW47,3*%
%TO.N,N/C*%
X219170000Y-264352000D03*
D15*
%TO.P,SW47,4*%
X216630000Y-264352000D03*
%TD*%
D13*
%TO.P,SW29,1,1*%
%TO.N,Net-(D50-A)*%
X167900000Y-294102000D03*
%TO.P,SW29,2,2*%
%TO.N,/COL6*%
X162900000Y-292002000D03*
D14*
%TO.P,SW29,3*%
%TO.N,N/C*%
X169170000Y-283402000D03*
D15*
%TO.P,SW29,4*%
X166630000Y-283402000D03*
%TD*%
D22*
%TO.P,D54,1,VDD*%
%TO.N,+5V*%
X266430000Y-214862000D03*
%TO.P,D54,2,DOUT*%
%TO.N,Net-(D54-DOUT)*%
X269730000Y-214862000D03*
%TO.P,D54,3,VSS*%
%TO.N,GND*%
X269730000Y-209962000D03*
%TO.P,D54,4,DIN*%
%TO.N,Net-(D46-DOUT)*%
X266430000Y-209962000D03*
%TD*%
D24*
%TO.P,D20,1,VDD*%
%TO.N,+5V*%
X318430000Y-206122000D03*
%TO.P,D20,2,DOUT*%
%TO.N,Net-(D20-DOUT)*%
X318430000Y-209422000D03*
%TO.P,D20,3,VSS*%
%TO.N,GND*%
X323330000Y-209422000D03*
%TO.P,D20,4,DIN*%
%TO.N,Net-(D11-DOUT)*%
X323330000Y-206122000D03*
%TD*%
D12*
%TO.P,D101,1,VDD*%
%TO.N,+5V*%
X248560000Y-202232000D03*
%TO.P,D101,2,DOUT*%
%TO.N,Net-(D101-DOUT)*%
X245260000Y-202232000D03*
%TO.P,D101,3,VSS*%
%TO.N,GND*%
X245260000Y-207132000D03*
%TO.P,D101,4,DIN*%
%TO.N,Net-(D101-DIN)*%
X248560000Y-207132000D03*
%TD*%
D13*
%TO.P,SW20,1,1*%
%TO.N,Net-(D35-A)*%
X260780000Y-236942000D03*
%TO.P,SW20,2,2*%
%TO.N,/COL4*%
X255780000Y-234842000D03*
D14*
%TO.P,SW20,3*%
%TO.N,N/C*%
X262050000Y-226242000D03*
D15*
%TO.P,SW20,4*%
X259510000Y-226242000D03*
%TD*%
D13*
%TO.P,SW59,1,1*%
%TO.N,Net-(D98-A)*%
X336940000Y-236912000D03*
%TO.P,SW59,2,2*%
%TO.N,/COL12*%
X331940000Y-234812000D03*
D14*
%TO.P,SW59,3*%
%TO.N,N/C*%
X338210000Y-226212000D03*
D15*
%TO.P,SW59,4*%
X335670000Y-226212000D03*
%TD*%
D13*
%TO.P,SW46,1,1*%
%TO.N,Net-(D79-A)*%
X313150000Y-275042000D03*
%TO.P,SW46,2,2*%
%TO.N,/COL10*%
X308150000Y-272942000D03*
D14*
%TO.P,SW46,3*%
%TO.N,N/C*%
X314420000Y-264342000D03*
D15*
%TO.P,SW46,4*%
X311880000Y-264342000D03*
%TD*%
D13*
%TO.P,SW64,1,1*%
%TO.N,Net-(D106-A)*%
X394070000Y-255992000D03*
%TO.P,SW64,2,2*%
%TO.N,/COL13*%
X389070000Y-253892000D03*
D14*
%TO.P,SW64,3*%
%TO.N,N/C*%
X395340000Y-245292000D03*
D15*
%TO.P,SW64,4*%
X392800000Y-245292000D03*
%TD*%
D17*
%TO.P,D99,1,K*%
%TO.N,/ROW5*%
X138040000Y-288762000D03*
D16*
%TO.P,D99,2,A*%
%TO.N,Net-(D99-A)*%
X138040000Y-296382000D03*
%TD*%
D17*
%TO.P,D114,1,K*%
%TO.N,/ROW5*%
X366060000Y-229222000D03*
D16*
%TO.P,D114,2,A*%
%TO.N,Net-(D114-A)*%
X366060000Y-236842000D03*
%TD*%
D17*
%TO.P,D112,1,K*%
%TO.N,/ROW1*%
X289240000Y-229732000D03*
D16*
%TO.P,D112,2,A*%
%TO.N,Net-(D112-A)*%
X289240000Y-237352000D03*
%TD*%
D17*
%TO.P,D71,1,K*%
%TO.N,/ROW1*%
X131090000Y-306242000D03*
D16*
%TO.P,D71,2,A*%
%TO.N,Net-(D71-A)*%
X131090000Y-313862000D03*
%TD*%
D23*
%TO.P,D119,1,VDD*%
%TO.N,+5V*%
X426360000Y-296842000D03*
%TO.P,D119,2,DOUT*%
%TO.N,Net-(D119-DOUT)*%
X426360000Y-293542000D03*
%TO.P,D119,3,VSS*%
%TO.N,GND*%
X421460000Y-293542000D03*
%TO.P,D119,4,DIN*%
%TO.N,Net-(D116-DOUT)*%
X421460000Y-296842000D03*
%TD*%
D17*
%TO.P,D105,1,K*%
%TO.N,/ROW3*%
X359110000Y-286542000D03*
D16*
%TO.P,D105,2,A*%
%TO.N,Net-(D105-A)*%
X359110000Y-294162000D03*
%TD*%
D17*
%TO.P,D27,1,K*%
%TO.N,/ROW5*%
X122780000Y-248992000D03*
D16*
%TO.P,D27,2,A*%
%TO.N,Net-(D27-A)*%
X122780000Y-256612000D03*
%TD*%
D18*
%TO.P,D103,1,K*%
%TO.N,/ROW1*%
X327200000Y-237702000D03*
D16*
%TO.P,D103,2,A*%
%TO.N,Net-(D103-A)*%
X327200000Y-230082000D03*
%TD*%
D22*
%TO.P,D11,1,VDD*%
%TO.N,+5V*%
X408390000Y-207222000D03*
%TO.P,D11,2,DOUT*%
%TO.N,Net-(D11-DOUT)*%
X411690000Y-207222000D03*
%TO.P,D11,3,VSS*%
%TO.N,GND*%
X411690000Y-202322000D03*
%TO.P,D11,4,DIN*%
%TO.N,Net-(D11-DIN)*%
X408390000Y-202322000D03*
%TD*%
D24*
%TO.P,D3,1,VDD*%
%TO.N,+5V*%
X421740000Y-280992000D03*
%TO.P,D3,2,DOUT*%
%TO.N,Net-(D12-DIN)*%
X421740000Y-284292000D03*
%TO.P,D3,3,VSS*%
%TO.N,GND*%
X426640000Y-284292000D03*
%TO.P,D3,4,DIN*%
%TO.N,Net-(D119-DOUT)*%
X426640000Y-280992000D03*
%TD*%
D17*
%TO.P,D90,1,K*%
%TO.N,/ROW4*%
X184560000Y-248552000D03*
D16*
%TO.P,D90,2,A*%
%TO.N,Net-(D90-A)*%
X184560000Y-256172000D03*
%TD*%
D17*
%TO.P,D51,1,K*%
%TO.N,/ROW5*%
X112200000Y-306152000D03*
D16*
%TO.P,D51,2,A*%
%TO.N,Net-(D51-A)*%
X112200000Y-313772000D03*
%TD*%
D18*
%TO.P,D113,1,K*%
%TO.N,/ROW2*%
X215710000Y-218562000D03*
D16*
%TO.P,D113,2,A*%
%TO.N,Net-(D113-A)*%
X215710000Y-210942000D03*
%TD*%
D17*
%TO.P,D48,1,K*%
%TO.N,/ROW2*%
X189390000Y-268262000D03*
D16*
%TO.P,D48,2,A*%
%TO.N,Net-(D48-A)*%
X189390000Y-275882000D03*
%TD*%
D17*
%TO.P,D49,1,K*%
%TO.N,/ROW3*%
X402430000Y-284612000D03*
D16*
%TO.P,D49,2,A*%
%TO.N,Net-(D49-A)*%
X402430000Y-292232000D03*
%TD*%
D17*
%TO.P,D35,1,K*%
%TO.N,/ROW5*%
X270030000Y-230132000D03*
D16*
%TO.P,D35,2,A*%
%TO.N,Net-(D35-A)*%
X270030000Y-237752000D03*
%TD*%
D18*
%TO.P,D98,1,K*%
%TO.N,/ROW4*%
X346460000Y-237110000D03*
D16*
%TO.P,D98,2,A*%
%TO.N,Net-(D98-A)*%
X346460000Y-229490000D03*
%TD*%
D17*
%TO.P,D56,1,K*%
%TO.N,/ROW2*%
X174660000Y-229762000D03*
D16*
%TO.P,D56,2,A*%
%TO.N,Net-(D56-A)*%
X174660000Y-237382000D03*
%TD*%
D23*
%TO.P,D120,1,VDD*%
%TO.N,+5V*%
X426640000Y-309392000D03*
%TO.P,D120,2,DOUT*%
%TO.N,Net-(D120-DOUT)*%
X426640000Y-306092000D03*
%TO.P,D120,3,VSS*%
%TO.N,GND*%
X421740000Y-306092000D03*
%TO.P,D120,4,DIN*%
%TO.N,Net-(D117-DOUT)*%
X421740000Y-309392000D03*
%TD*%
D17*
%TO.P,D33,1,K*%
%TO.N,/ROW3*%
X135790000Y-268712000D03*
D16*
%TO.P,D33,2,A*%
%TO.N,Net-(D33-A)*%
X135790000Y-276332000D03*
%TD*%
D17*
%TO.P,D104,1,K*%
%TO.N,/ROW2*%
X213170000Y-229912000D03*
D16*
%TO.P,D104,2,A*%
%TO.N,Net-(D104-A)*%
X213170000Y-237532000D03*
%TD*%
D17*
%TO.P,D23,1,K*%
%TO.N,/ROW1*%
X117850000Y-228692000D03*
D16*
%TO.P,D23,2,A*%
%TO.N,Net-(D23-A)*%
X117850000Y-236312000D03*
%TD*%
D17*
%TO.P,D31,1,K*%
%TO.N,/ROW1*%
X396240000Y-231352000D03*
D16*
%TO.P,D31,2,A*%
%TO.N,Net-(D31-A)*%
X396240000Y-238972000D03*
%TD*%
D22*
%TO.P,D78,1,VDD*%
%TO.N,+5V*%
X408390000Y-223462000D03*
%TO.P,D78,2,DOUT*%
%TO.N,Net-(D78-DOUT)*%
X411690000Y-223462000D03*
%TO.P,D78,3,VSS*%
%TO.N,GND*%
X411690000Y-218562000D03*
%TO.P,D78,4,DIN*%
%TO.N,Net-(D70-DOUT)*%
X408390000Y-218562000D03*
%TD*%
D23*
%TO.P,D118,1,VDD*%
%TO.N,+5V*%
X426530000Y-271892000D03*
%TO.P,D118,2,DOUT*%
%TO.N,Net-(D118-DOUT)*%
X426530000Y-268592000D03*
%TO.P,D118,3,VSS*%
%TO.N,GND*%
X421630000Y-268592000D03*
%TO.P,D118,4,DIN*%
%TO.N,Net-(D115-DOUT)*%
X421630000Y-271892000D03*
%TD*%
D17*
%TO.P,D9,1,K*%
%TO.N,/ROW5*%
X158640000Y-287042000D03*
D16*
%TO.P,D9,2,A*%
%TO.N,Net-(D9-A)*%
X158640000Y-294662000D03*
%TD*%
D17*
%TO.P,D25,1,K*%
%TO.N,/ROW3*%
X146050000Y-249002000D03*
D16*
%TO.P,D25,2,A*%
%TO.N,Net-(D25-A)*%
X146050000Y-256622000D03*
%TD*%
D17*
%TO.P,D97,1,K*%
%TO.N,/ROW3*%
X250990000Y-230032000D03*
D16*
%TO.P,D97,2,A*%
%TO.N,Net-(D97-A)*%
X250990000Y-237652000D03*
%TD*%
D17*
%TO.P,D88,1,K*%
%TO.N,/ROW2*%
X194310000Y-229882000D03*
D16*
%TO.P,D88,2,A*%
%TO.N,Net-(D88-A)*%
X194310000Y-237502000D03*
%TD*%
D17*
%TO.P,D82,1,K*%
%TO.N,/ROW4*%
X232090000Y-229442000D03*
D16*
%TO.P,D82,2,A*%
%TO.N,Net-(D82-A)*%
X232090000Y-237062000D03*
%TD*%
D17*
%TO.P,D39,1,K*%
%TO.N,/ROW1*%
X136770000Y-229722000D03*
D16*
%TO.P,D39,2,A*%
%TO.N,Net-(D39-A)*%
X136770000Y-237342000D03*
%TD*%
D17*
%TO.P,D96,1,K*%
%TO.N,/ROW2*%
X150160000Y-305692000D03*
D16*
%TO.P,D96,2,A*%
%TO.N,Net-(D96-A)*%
X150160000Y-313312000D03*
%TD*%
D17*
%TO.P,D63,1,K*%
%TO.N,/ROW1*%
X170300000Y-267522000D03*
D16*
%TO.P,D63,2,A*%
%TO.N,Net-(D63-A)*%
X170300000Y-275142000D03*
%TD*%
D17*
%TO.P,D72,1,K*%
%TO.N,/ROW2*%
X155920000Y-229702000D03*
D16*
%TO.P,D72,2,A*%
%TO.N,Net-(D72-A)*%
X155920000Y-237322000D03*
%TD*%
D17*
%TO.P,D6,1,K*%
%TO.N,/ROW2*%
X384340000Y-286312000D03*
D16*
%TO.P,D6,2,A*%
%TO.N,Net-(D6-A)*%
X384340000Y-293932000D03*
%TD*%
D17*
%TO.P,D87,1,K*%
%TO.N,/ROW1*%
X308170000Y-229832000D03*
D16*
%TO.P,D87,2,A*%
%TO.N,Net-(D87-A)*%
X308170000Y-237452000D03*
%TD*%
D17*
%TO.P,D16,1,K*%
%TO.N,/ROW3*%
X215570000Y-286762000D03*
D16*
%TO.P,D16,2,A*%
%TO.N,Net-(D16-A)*%
X215570000Y-294382000D03*
%TD*%
D17*
%TO.P,D50,1,K*%
%TO.N,/ROW4*%
X177280000Y-286592000D03*
D16*
%TO.P,D50,2,A*%
%TO.N,Net-(D50-A)*%
X177280000Y-294212000D03*
%TD*%
D17*
%TO.P,D15,1,K*%
%TO.N,/ROW2*%
X196480000Y-286892000D03*
D16*
%TO.P,D15,2,A*%
%TO.N,Net-(D15-A)*%
X196480000Y-294512000D03*
%TD*%
D22*
%TO.P,D46,1,VDD*%
%TO.N,+5V*%
X408390000Y-215342000D03*
%TO.P,D46,2,DOUT*%
%TO.N,Net-(D46-DOUT)*%
X411690000Y-215342000D03*
%TO.P,D46,3,VSS*%
%TO.N,GND*%
X411690000Y-210442000D03*
%TO.P,D46,4,DIN*%
%TO.N,Net-(D38-DIN)*%
X408390000Y-210442000D03*
%TD*%
D17*
%TO.P,D73,1,K*%
%TO.N,/ROW3*%
X222550000Y-241892000D03*
D16*
%TO.P,D73,2,A*%
%TO.N,Net-(D73-A)*%
X222550000Y-249512000D03*
%TD*%
D12*
%TO.P,D22,1,VDD*%
%TO.N,+5V*%
X411760000Y-227312000D03*
%TO.P,D22,2,DOUT*%
%TO.N,unconnected-(D22-DOUT-Pad2)*%
X408460000Y-227312000D03*
%TO.P,D22,3,VSS*%
%TO.N,GND*%
X408460000Y-232212000D03*
%TO.P,D22,4,DIN*%
%TO.N,Net-(D13-DOUT)*%
X411760000Y-232212000D03*
%TD*%
D17*
%TO.P,D55,1,K*%
%TO.N,/ROW1*%
X169250000Y-305952000D03*
D16*
%TO.P,D55,2,A*%
%TO.N,Net-(D55-A)*%
X169250000Y-313572000D03*
%TD*%
%TO.P,A1,D3*%
%TO.N,N/C*%
X421585900Y-230542000D03*
%TO.P,A1,D2*%
X424125900Y-230542000D03*
D26*
%TO.P,A1,D1*%
X426665900Y-230542000D03*
%TD*%
D27*
%TO.N,Net-(D98-A)*%
X346570000Y-225720000D03*
X347660000Y-227381700D03*
%TO.N,GND*%
X108750800Y-216798800D03*
%TO.N,Net-(D109-DOUT)*%
X227620000Y-201130000D03*
X177160000Y-202020000D03*
%TO.N,Net-(D116-DOUT)*%
X310330000Y-296494627D03*
X307780000Y-297210000D03*
%TO.N,/ROW1*%
X309380000Y-297150000D03*
X305931100Y-303700800D03*
X313180000Y-297163700D03*
X320750000Y-303190000D03*
X343250000Y-303760000D03*
X333552700Y-303725200D03*
%TO.N,Net-(D101-DOUT)*%
X230323700Y-204893700D03*
X206780000Y-201329800D03*
%TO.N,GND*%
X427550000Y-241470000D03*
X436940000Y-242620000D03*
X417560000Y-204522000D03*
X436940000Y-204522000D03*
X433213300Y-223380000D03*
X433265300Y-225650000D03*
X430810000Y-231010000D03*
X436940000Y-229922000D03*
X427390000Y-217230000D03*
X436940000Y-217220000D03*
X153058200Y-216113500D03*
%TO.N,+5V*%
X409580200Y-215677700D03*
X423852500Y-296997300D03*
%TO.N,GND*%
X235417400Y-214524200D03*
%TO.N,Net-(D26-A)*%
X307548100Y-299835600D03*
%TO.N,GND*%
X171342100Y-216172400D03*
%TO.N,Net-(D17-A)*%
X235087600Y-291508000D03*
%TO.N,/COL5*%
X185413200Y-240523600D03*
%TO.N,Net-(D76-DOUT)*%
X158076800Y-212058600D03*
X158603100Y-221140900D03*
X337218100Y-220125400D03*
%TO.N,+5V*%
X406065900Y-269995800D03*
X328629600Y-203131600D03*
%TO.N,/COL10*%
X313505900Y-241481300D03*
%TO.N,/LEDMAT*%
X345597200Y-239898500D03*
X348376100Y-210690400D03*
%TO.N,GND*%
X143116000Y-207956600D03*
%TO.N,/COL5*%
X228311800Y-266245100D03*
%TO.N,+5V*%
X328763900Y-208494500D03*
X280078800Y-202780900D03*
%TO.N,GND*%
X125167700Y-203877900D03*
X286955300Y-210541200D03*
X229853000Y-207761600D03*
X338964000Y-213885700D03*
X337337100Y-205419800D03*
%TO.N,/COL12*%
X131793000Y-293904400D03*
%TO.N,GND*%
X367941800Y-202929000D03*
X260592700Y-207039300D03*
%TO.N,/COL14*%
X354988000Y-235492900D03*
%TO.N,GND*%
X419983300Y-293904400D03*
%TO.N,/COL4*%
X361096800Y-273036900D03*
%TO.N,/ROTB*%
X297807200Y-224718000D03*
X410514300Y-225416300D03*
%TO.N,/COL6*%
X387342100Y-278469000D03*
X389753200Y-236272300D03*
X434384200Y-235801100D03*
X171778600Y-291539200D03*
X298611400Y-281041900D03*
X99025100Y-299835600D03*
%TO.N,/COL1*%
X434468500Y-218873000D03*
%TO.N,/COL9*%
X435053400Y-240840300D03*
X207022400Y-261925900D03*
X134317100Y-261282800D03*
%TO.N,/COL13*%
X328807100Y-234082500D03*
X405560300Y-252386000D03*
%TO.N,/COL1*%
X390956200Y-218974100D03*
%TO.N,/ROW2*%
X384340000Y-277981300D03*
X266580700Y-276757100D03*
X245746400Y-266928000D03*
X191371000Y-266245200D03*
%TO.N,Net-(A1-GPIO19)*%
X415448000Y-237602000D03*
%TO.N,/ROW4*%
X221872600Y-285797700D03*
X319463700Y-266917000D03*
%TO.N,/COL4*%
X250949000Y-264248400D03*
X433694000Y-234592400D03*
%TO.N,+5V*%
X277868900Y-214381900D03*
%TO.N,/COL13*%
X343582200Y-276110800D03*
%TO.N,/ROW5*%
X364147200Y-243489200D03*
X434004200Y-229188400D03*
%TO.N,GND*%
X412677300Y-201970800D03*
%TO.N,/ROW4*%
X312071700Y-293904400D03*
%TO.N,/COL1*%
X370105000Y-309159500D03*
%TO.N,/ROW1*%
X289674700Y-216423400D03*
X394913700Y-233621500D03*
%TO.N,/COL3*%
X220603700Y-228531500D03*
%TO.N,+5V*%
X423852500Y-308732400D03*
X423852500Y-282042000D03*
%TO.N,/COL11*%
X438620000Y-238890000D03*
%TO.N,/ROW2*%
X439265600Y-224690100D03*
X381980400Y-228369300D03*
%TO.N,/COL10*%
X280738000Y-273145200D03*
%TO.N,/ROW1*%
X289674700Y-302801200D03*
X161582000Y-227934300D03*
X420205500Y-229892700D03*
%TO.N,GND*%
X412719700Y-218770500D03*
X138045300Y-204936400D03*
%TO.N,/COL1*%
X146687500Y-300627000D03*
%TO.N,/ROW4*%
X235710100Y-285467700D03*
X404690500Y-272013300D03*
%TO.N,/COL3*%
X434744200Y-221937400D03*
X153324900Y-290938800D03*
%TO.N,/COL14*%
X414412600Y-233801000D03*
%TO.N,GND*%
X365047700Y-212779900D03*
%TO.N,/COL7*%
X347186600Y-240247600D03*
X435040700Y-236766600D03*
%TO.N,/COL5*%
X438586800Y-228373400D03*
%TO.N,/COL2*%
X328400400Y-220928100D03*
X434744200Y-219764400D03*
%TO.N,/ROTA*%
X298651500Y-222689800D03*
X406188700Y-224415400D03*
%TO.N,/COL7*%
X343571600Y-270198300D03*
X246163500Y-259222100D03*
X157288800Y-259701500D03*
%TO.N,/ROW3*%
X310842700Y-282634200D03*
X274780200Y-282634200D03*
%TO.N,/ROW5*%
X390505300Y-229654600D03*
X115482600Y-283492100D03*
X305911900Y-282478000D03*
%TO.N,/ROW4*%
X404599200Y-221892200D03*
X433239300Y-221909200D03*
%TO.N,GND*%
X423797500Y-267214000D03*
X409437100Y-231626800D03*
%TO.N,/ROW3*%
X431942900Y-240227000D03*
X215202200Y-282634200D03*
X244991200Y-240522000D03*
%TO.N,GND*%
X394268000Y-204936400D03*
X101097100Y-208834600D03*
X325108900Y-210531300D03*
X354403100Y-212806300D03*
X412666600Y-210262100D03*
X354319200Y-206106800D03*
X153078000Y-207602000D03*
X381698100Y-210224300D03*
X171199900Y-207979900D03*
X346276000Y-212779900D03*
X330502800Y-212871300D03*
%TO.N,/COL8*%
X268822400Y-246967100D03*
X434600600Y-239881400D03*
%TO.N,GND*%
X268732700Y-210536100D03*
%TO.N,+5V*%
X409580200Y-207902000D03*
%TO.N,/COL14*%
X315830200Y-235907500D03*
X314208000Y-233240200D03*
%TO.N,+5V*%
X409580200Y-223360200D03*
%TO.N,GND*%
X114444700Y-207902000D03*
X381269300Y-202929000D03*
%TO.N,/COL11*%
X300515600Y-241481300D03*
%TO.N,GND*%
X376470100Y-201970800D03*
%TO.N,/COL12*%
X411811200Y-241079000D03*
%TO.N,GND*%
X161403600Y-215839100D03*
X402368600Y-207110600D03*
X274320200Y-207902000D03*
%TO.N,/COL5*%
X370105000Y-228366500D03*
%TO.N,/COL12*%
X331379300Y-240856300D03*
%TO.N,GND*%
X375568800Y-210353000D03*
X406170800Y-208693400D03*
X427573800Y-285225800D03*
X330463600Y-206171800D03*
X161387100Y-207460000D03*
X367786300Y-209602100D03*
X95118200Y-204152900D03*
X365087300Y-206106800D03*
X345790900Y-206106800D03*
X420123300Y-305766800D03*
X244155700Y-207150700D03*
X393627500Y-213886700D03*
%TO.N,/COL10*%
X433432300Y-239282200D03*
%TO.N,GND*%
X223612000Y-214805200D03*
%TO.N,Net-(D76-DOUT)*%
X339979100Y-210755400D03*
%TO.N,Net-(D77-DOUT)*%
X360422400Y-205979100D03*
X358189400Y-217960200D03*
X224138900Y-219518700D03*
X223394600Y-215607000D03*
%TO.N,Net-(D78-DOUT)*%
X341231700Y-202911800D03*
X343294900Y-222730000D03*
%TO.N,Net-(D85-DOUT)*%
X155009000Y-210413900D03*
X155159300Y-203560900D03*
X349885900Y-201246000D03*
X349502500Y-206710700D03*
%TO.N,Net-(D86-DOUT)*%
X336442400Y-205593100D03*
X337686400Y-211237600D03*
%TO.N,Net-(D100-DOUT)*%
X239054000Y-206202400D03*
X238090600Y-207465600D03*
%TO.N,Net-(D101-DOUT)*%
X236163000Y-201762100D03*
X232712600Y-207282600D03*
%TO.N,Net-(D102-DOUT)*%
X238556800Y-214177900D03*
X236756800Y-220728300D03*
X388773100Y-217960200D03*
X390867900Y-209490200D03*
%TO.N,Net-(D110-DOUT)*%
X324963700Y-208773500D03*
X325512800Y-202253300D03*
%TO.N,Net-(D115-DOUT)*%
X373587500Y-201419800D03*
X385464500Y-269995800D03*
%TO.N,Net-(D116-DOUT)*%
X250949000Y-296870000D03*
X238106500Y-204936400D03*
%TO.N,Net-(D117-DOUT)*%
X389951100Y-308688800D03*
X387978400Y-203833200D03*
%TO.N,Net-(D118-DOUT)*%
X401973900Y-258842500D03*
X403459200Y-206785600D03*
%TO.N,Net-(D120-DOUT)*%
X355957500Y-304243100D03*
X349088900Y-202918200D03*
%TO.N,Net-(D1-DOUT)*%
X325930300Y-198766000D03*
X336402400Y-212134000D03*
%TO.N,Net-(D12-DIN)*%
X123612100Y-217097900D03*
X131793000Y-278901200D03*
%TO.N,Net-(D10-DOUT)*%
X278362100Y-218029200D03*
X280738000Y-210235400D03*
%TO.N,Net-(D11-DOUT)*%
X338378800Y-208673500D03*
X338231800Y-206470200D03*
%TO.N,Net-(D12-DOUT)*%
X122856300Y-205360700D03*
X122293200Y-209989600D03*
%TO.N,Net-(D13-DOUT)*%
X277267200Y-202544700D03*
X278433000Y-224741100D03*
%TO.N,Net-(D19-DOUT)*%
X172702900Y-218088100D03*
X167412800Y-217475200D03*
%TO.N,Net-(D21-DOUT)*%
X131444900Y-207870300D03*
X131793000Y-220934700D03*
X338889500Y-219723700D03*
X339979100Y-216617200D03*
%TO.N,Net-(D28-DOUT)*%
X353220300Y-209792300D03*
X352230000Y-218140700D03*
X102004000Y-219764400D03*
X101955400Y-205500400D03*
%TO.N,Net-(D29-DOUT)*%
X382020600Y-203922000D03*
X381297200Y-213339400D03*
%TO.N,Net-(D36-DOUT)*%
X352619500Y-202703700D03*
X352230000Y-212138200D03*
%TO.N,Net-(D45-DOUT)*%
X326154000Y-201692800D03*
X324653000Y-199067200D03*
%TO.N,Net-(D46-DOUT)*%
X284173300Y-218041400D03*
X284187500Y-211171800D03*
%TO.N,Net-(D52-DOUT)*%
X169099500Y-217777700D03*
X156391200Y-209522100D03*
%TO.N,Net-(D60-DOUT)*%
X146068900Y-203712900D03*
X148057400Y-214806300D03*
%TO.N,Net-(D69-DOUT)*%
X137532400Y-207389100D03*
X136446400Y-198232100D03*
X358189400Y-198815100D03*
X357418700Y-202594600D03*
%TO.N,Net-(D73-A)*%
X214476500Y-253282800D03*
%TO.N,Net-(D111-A)*%
X299426200Y-216210600D03*
%TO.N,Net-(D113-A)*%
X200308400Y-213068900D03*
%TD*%
D28*
%TO.N,Net-(D98-A)*%
X347660000Y-226810000D02*
X346570000Y-225720000D01*
X347660000Y-227381700D02*
X347660000Y-226810000D01*
%TO.N,GND*%
X108086800Y-216798800D02*
X107600000Y-216312000D01*
X108750800Y-216798800D02*
X108086800Y-216798800D01*
X108750800Y-216798800D02*
X108584800Y-216798800D01*
X108584800Y-216798800D02*
X108750800Y-216798800D01*
X412677300Y-201970800D02*
X415228500Y-204522000D01*
X415228500Y-204522000D02*
X417560000Y-204522000D01*
X114444700Y-207902000D02*
X104934548Y-207902000D01*
X120386000Y-216600000D02*
X118668000Y-216600000D01*
X104934548Y-207902000D02*
X104679000Y-208157548D01*
X104679000Y-208157548D02*
X104679000Y-210705000D01*
X120680000Y-216306000D02*
X120386000Y-216600000D01*
X107462700Y-213488700D02*
X118458700Y-213488700D01*
X104679000Y-210705000D02*
X107462700Y-213488700D01*
X118458700Y-213488700D02*
X120680000Y-215710000D01*
X118668000Y-216600000D02*
X118530000Y-216462000D01*
X120680000Y-215710000D02*
X120680000Y-216306000D01*
%TO.N,Net-(D12-DIN)*%
X122118000Y-216750000D02*
X121830000Y-216462000D01*
X123264200Y-216750000D02*
X122118000Y-216750000D01*
X123612100Y-217097900D02*
X123264200Y-216750000D01*
%TO.N,/ROW4*%
X380780000Y-268722000D02*
X379270000Y-267212000D01*
X379270000Y-267212000D02*
X379270000Y-264680000D01*
X345590000Y-264860000D02*
X345440000Y-264710000D01*
X379270000Y-264680000D02*
X365824717Y-264680000D01*
X365824717Y-264680000D02*
X364854717Y-265650000D01*
X364854717Y-265650000D02*
X356200000Y-265650000D01*
X356200000Y-265650000D02*
X355410000Y-264860000D01*
X355410000Y-264860000D02*
X345590000Y-264860000D01*
X345440000Y-264710000D02*
X345260000Y-264710000D01*
X345260000Y-264710000D02*
X344346900Y-265623100D01*
X344346900Y-265623100D02*
X344088900Y-265623100D01*
X344088900Y-265623100D02*
X341580000Y-268132000D01*
%TO.N,Net-(D109-DOUT)*%
X227620000Y-201130000D02*
X227620000Y-200927600D01*
X165597200Y-201204300D02*
X176344300Y-201204300D01*
X176344300Y-201204300D02*
X177160000Y-202020000D01*
X227620000Y-200927600D02*
X227817800Y-200729800D01*
%TO.N,Net-(D116-DOUT)*%
X280398200Y-297763700D02*
X307226300Y-297763700D01*
X421112627Y-296494627D02*
X421460000Y-296842000D01*
X307226300Y-297763700D02*
X307780000Y-297210000D01*
X310330000Y-296494627D02*
X421112627Y-296494627D01*
%TO.N,/ROW1*%
X333056500Y-304221400D02*
X333552700Y-303725200D01*
X321260800Y-303700800D02*
X321741500Y-303700800D01*
X321741500Y-303700800D02*
X322262100Y-304221400D01*
X322262100Y-304221400D02*
X333056500Y-304221400D01*
X320750000Y-303190000D02*
X321260800Y-303700800D01*
X313180000Y-297163700D02*
X309393700Y-297163700D01*
X309393700Y-297163700D02*
X309380000Y-297150000D01*
X343284800Y-303725200D02*
X343250000Y-303760000D01*
X344182100Y-303725200D02*
X343284800Y-303725200D01*
%TO.N,+5V*%
X184468000Y-206280000D02*
X177204500Y-206280000D01*
X227890000Y-209007300D02*
X225804400Y-209007300D01*
X222537100Y-205740000D02*
X206630000Y-205740000D01*
X177204500Y-206280000D02*
X173650000Y-209834500D01*
X225804400Y-209007300D02*
X222537100Y-205740000D01*
X190775800Y-207097200D02*
X189793800Y-206115200D01*
X205823500Y-206546500D02*
X205759000Y-206546500D01*
X206630000Y-205740000D02*
X205823500Y-206546500D01*
X205759000Y-206546500D02*
X205208300Y-207097200D01*
X189793800Y-206115200D02*
X184632800Y-206115200D01*
X205208300Y-207097200D02*
X190775800Y-207097200D01*
X184632800Y-206115200D02*
X184468000Y-206280000D01*
%TO.N,Net-(D101-DOUT)*%
X206177900Y-204893700D02*
X206780000Y-204291600D01*
X206780000Y-204291600D02*
X206780000Y-201329800D01*
%TO.N,Net-(D100-DOUT)*%
X184466700Y-205714200D02*
X192576000Y-205714200D01*
X227681800Y-208395400D02*
X237160800Y-208395400D01*
X237160800Y-208395400D02*
X238090600Y-207465600D01*
X194272600Y-204017600D02*
X203495600Y-204017600D01*
X203495600Y-204017600D02*
X204798000Y-205320000D01*
X204798000Y-205320000D02*
X224606400Y-205320000D01*
X192576000Y-205714200D02*
X194272600Y-204017600D01*
X224606400Y-205320000D02*
X227681800Y-208395400D01*
%TO.N,/COL11*%
X322172100Y-241696700D02*
X321331700Y-240856300D01*
X438620000Y-238890000D02*
X437288000Y-237558000D01*
X437288000Y-237558000D02*
X433556600Y-237558000D01*
X433556600Y-237558000D02*
X432324900Y-238789700D01*
X432324900Y-238789700D02*
X415003900Y-238789700D01*
X412096900Y-241696700D02*
X322172100Y-241696700D01*
X321331700Y-240856300D02*
X301140600Y-240856300D01*
X301140600Y-240856300D02*
X300515600Y-241481300D01*
X415003900Y-238789700D02*
X412096900Y-241696700D01*
%TO.N,Net-(D12-DIN)*%
X421740000Y-284292000D02*
X418840500Y-281392500D01*
X418840500Y-281392500D02*
X303034100Y-281392500D01*
X303034100Y-281392500D02*
X302783000Y-281643600D01*
X138173600Y-281643600D02*
X135431200Y-278901200D01*
X135431200Y-278901200D02*
X131793000Y-278901200D01*
X302783000Y-281643600D02*
X138173600Y-281643600D01*
%TO.N,GND*%
X435790000Y-241470000D02*
X427550000Y-241470000D01*
X436940000Y-242620000D02*
X435790000Y-241470000D01*
X417560000Y-204522000D02*
X412666600Y-209415400D01*
X412666600Y-209415400D02*
X412666600Y-210262100D01*
X436940000Y-204522000D02*
X417560000Y-204522000D01*
X436940000Y-217220000D02*
X436940000Y-204522000D01*
X439187800Y-229279200D02*
X439187800Y-228124457D01*
X434390000Y-225900000D02*
X433515300Y-225900000D01*
X433515300Y-225900000D02*
X433265300Y-225650000D01*
X436963343Y-225900000D02*
X434390000Y-225900000D01*
X438545000Y-229922000D02*
X439187800Y-229279200D01*
X436940000Y-229922000D02*
X438545000Y-229922000D01*
X439187800Y-228124457D02*
X436963343Y-225900000D01*
X433213300Y-223380000D02*
X434151543Y-223380000D01*
X434151543Y-223380000D02*
X436940000Y-220591543D01*
X436940000Y-220591543D02*
X436940000Y-217220000D01*
X431898000Y-229922000D02*
X436940000Y-229922000D01*
X430810000Y-231010000D02*
X431898000Y-229922000D01*
X436940000Y-217220000D02*
X427400000Y-217220000D01*
X427400000Y-217220000D02*
X427390000Y-217230000D01*
%TO.N,/COL5*%
X284106800Y-269796900D02*
X280555000Y-266245100D01*
X280555000Y-266245100D02*
X228311800Y-266245100D01*
%TO.N,/COL12*%
X223870000Y-311315700D02*
X222202700Y-309648400D01*
X222202700Y-309648400D02*
X137153600Y-309648400D01*
X137153600Y-309648400D02*
X135730000Y-311072000D01*
X331379300Y-240856300D02*
X330977600Y-240454600D01*
X330977600Y-240454600D02*
X255350700Y-240454600D01*
X255350700Y-240454600D02*
X249718100Y-234822000D01*
X249718100Y-234822000D02*
X236720000Y-234822000D01*
X331379300Y-240856300D02*
X331781000Y-241258000D01*
X331781000Y-241258000D02*
X411632200Y-241258000D01*
X411632200Y-241258000D02*
X411811200Y-241079000D01*
X131793000Y-293904400D02*
X130900600Y-293012000D01*
X130900600Y-293012000D02*
X114050000Y-293012000D01*
%TO.N,/COL10*%
X214358400Y-271493600D02*
X212900000Y-272952000D01*
X433373600Y-239223500D02*
X433432300Y-239282200D01*
X314123000Y-242098400D02*
X412384700Y-242098400D01*
X279086400Y-271493600D02*
X214358400Y-271493600D01*
X415259600Y-239223500D02*
X433373600Y-239223500D01*
X412384700Y-242098400D02*
X415259600Y-239223500D01*
X313505900Y-241481300D02*
X314123000Y-242098400D01*
X280738000Y-273145200D02*
X279086400Y-271493600D01*
%TO.N,/COL5*%
X289110000Y-272942000D02*
X285964900Y-269796800D01*
X289669500Y-266092200D02*
X296530100Y-266092200D01*
X370721800Y-228983300D02*
X412476800Y-228983300D01*
X285964900Y-269796800D02*
X285964800Y-269796900D01*
X213561900Y-253900000D02*
X227140000Y-253900000D01*
X412476800Y-228983300D02*
X412712200Y-228747900D01*
X296530100Y-266092200D02*
X304543800Y-258078500D01*
X128051600Y-240523600D02*
X185413200Y-240523600D01*
X361363600Y-258078400D02*
X365530000Y-253912000D01*
X361363600Y-258078500D02*
X361363600Y-258078400D01*
X304543800Y-258078500D02*
X361363600Y-258078500D01*
X189040000Y-253900000D02*
X194557000Y-253900000D01*
X285964800Y-269796900D02*
X284106800Y-269796900D01*
X285964900Y-269796800D02*
X289669500Y-266092200D01*
X122370000Y-234842000D02*
X128051600Y-240523600D01*
X194557000Y-253900000D02*
X196022000Y-252435000D01*
X196022000Y-252435000D02*
X212096900Y-252435000D01*
X212096900Y-252435000D02*
X213561900Y-253900000D01*
%TO.N,+5V*%
X350767700Y-202892000D02*
X351564700Y-203689000D01*
X351564700Y-203689000D02*
X358887700Y-203689000D01*
X165680000Y-210712000D02*
X164586900Y-209618900D01*
X164586900Y-209618900D02*
X157490500Y-209618900D01*
X121830000Y-211562000D02*
X123140000Y-210252000D01*
X123140000Y-210252000D02*
X123140000Y-209526400D01*
X116330000Y-205075100D02*
X119763100Y-205075100D01*
X119763100Y-205075100D02*
X123140000Y-208452000D01*
X116330000Y-205075100D02*
X116330000Y-204042000D01*
X105430000Y-204082000D02*
X106484400Y-205136400D01*
X106484400Y-205136400D02*
X116268700Y-205136400D01*
X116268700Y-205136400D02*
X116330000Y-205075100D01*
X395960000Y-201482000D02*
X398775400Y-204297400D01*
X398775400Y-204297400D02*
X405465400Y-204297400D01*
X405465400Y-204297400D02*
X408390000Y-207222000D01*
X123140000Y-209526400D02*
X132395600Y-209526400D01*
X132395600Y-209526400D02*
X133100000Y-208822000D01*
X123140000Y-208452000D02*
X123140000Y-209526400D01*
X335007700Y-209642000D02*
X334225400Y-210424300D01*
X334225400Y-210424300D02*
X327670000Y-210424300D01*
X327670000Y-210424300D02*
X326887700Y-209642000D01*
X121830000Y-211562000D02*
X120758100Y-212633900D01*
X120758100Y-212633900D02*
X112121900Y-212633900D01*
X112121900Y-212633900D02*
X110900000Y-211412000D01*
X279100000Y-202232000D02*
X278019000Y-201151000D01*
X278019000Y-201151000D02*
X262890700Y-201151000D01*
X262890700Y-201151000D02*
X262660000Y-201381700D01*
X379537700Y-211937500D02*
X379136000Y-211535800D01*
X379136000Y-211535800D02*
X372603900Y-211535800D01*
X372603900Y-211535800D02*
X371417700Y-212722000D01*
X387657700Y-212722000D02*
X386471500Y-211535800D01*
X386471500Y-211535800D02*
X379939400Y-211535800D01*
X379939400Y-211535800D02*
X379537700Y-211937500D01*
X401250000Y-214262000D02*
X399905500Y-215606500D01*
X399905500Y-215606500D02*
X390544300Y-215606500D01*
X390544300Y-215606500D02*
X387659800Y-212722000D01*
X387659800Y-212722000D02*
X387657700Y-212722000D01*
X379537700Y-205331600D02*
X386887300Y-205331600D01*
X386887300Y-205331600D02*
X387657700Y-206102000D01*
X379537700Y-206102000D02*
X379537700Y-205331600D01*
X395960000Y-207992000D02*
X389547700Y-207992000D01*
X389547700Y-207992000D02*
X387657700Y-206102000D01*
X280078800Y-202780900D02*
X279529900Y-202232000D01*
X279529900Y-202232000D02*
X279100000Y-202232000D01*
X277868900Y-214381900D02*
X277269000Y-213782000D01*
X277269000Y-213782000D02*
X267510000Y-213782000D01*
X267510000Y-213782000D02*
X266430000Y-214862000D01*
X238737200Y-203327900D02*
X235315900Y-203327900D01*
X235315900Y-203327900D02*
X234140000Y-202152000D01*
X240020000Y-210282000D02*
X238543600Y-208805600D01*
X248560000Y-202232000D02*
X247464100Y-203327900D01*
X247464100Y-203327900D02*
X238737200Y-203327900D01*
X279100000Y-202232000D02*
X280271700Y-201060300D01*
X280271700Y-201060300D02*
X323469000Y-201060300D01*
X323469000Y-201060300D02*
X325430700Y-203022000D01*
X325430700Y-203022000D02*
X326887700Y-203022000D01*
X342647700Y-202270000D02*
X342812200Y-202105500D01*
X342812200Y-202105500D02*
X348555700Y-202105500D01*
X348555700Y-202105500D02*
X348720500Y-202270300D01*
X348720500Y-202270300D02*
X350146000Y-202270300D01*
X350146000Y-202270300D02*
X350767700Y-202892000D01*
X156283800Y-204162600D02*
X156283800Y-203768200D01*
X156283800Y-203768200D02*
X157350000Y-202702000D01*
X157490500Y-209618900D02*
X156283800Y-208412200D01*
X156283800Y-208412200D02*
X156283800Y-204162600D01*
X147390000Y-203222000D02*
X148330600Y-204162600D01*
X148330600Y-204162600D02*
X156283800Y-204162600D01*
X350767700Y-209512000D02*
X351649700Y-210394000D01*
X351649700Y-210394000D02*
X358793500Y-210394000D01*
X358793500Y-210394000D02*
X358887700Y-210299800D01*
X165680000Y-202592000D02*
X166658500Y-201613500D01*
X166658500Y-201613500D02*
X172451500Y-201613500D01*
X172451500Y-201613500D02*
X173510000Y-202672000D01*
X372501700Y-205331600D02*
X379537700Y-205331600D01*
X371417700Y-206102000D02*
X372188100Y-205331600D01*
X372188100Y-205331600D02*
X372501700Y-205331600D01*
X358887700Y-203689000D02*
X364633500Y-203689000D01*
X364633500Y-203689000D02*
X365107700Y-203214800D01*
X365107700Y-203214800D02*
X365107700Y-202598900D01*
X365107700Y-202598900D02*
X365661100Y-202045500D01*
X365661100Y-202045500D02*
X372236000Y-202045500D01*
X372236000Y-202045500D02*
X372501700Y-202311200D01*
X372501700Y-202311200D02*
X372501700Y-205331600D01*
X358887700Y-202892000D02*
X358887700Y-203689000D01*
X228091700Y-208805600D02*
X227890000Y-209007300D01*
X165680000Y-210712000D02*
X166557500Y-209834500D01*
X166557500Y-209834500D02*
X173650000Y-209834500D01*
X157350000Y-210123800D02*
X157350000Y-209759400D01*
X157350000Y-209759400D02*
X157490500Y-209618900D01*
X157350000Y-210822000D02*
X157350000Y-210123800D01*
X133100000Y-208822000D02*
X134173000Y-209895000D01*
X134173000Y-209895000D02*
X148476500Y-209895000D01*
X148476500Y-209895000D02*
X148612100Y-209759400D01*
X148612100Y-209759400D02*
X155597800Y-209759400D01*
X155597800Y-209759400D02*
X155962200Y-210123800D01*
X155962200Y-210123800D02*
X157350000Y-210123800D01*
X426530000Y-271892000D02*
X424633800Y-269995800D01*
X424633800Y-269995800D02*
X406065900Y-269995800D01*
X238737200Y-203327900D02*
X238737200Y-205668400D01*
X238737200Y-205668400D02*
X238452300Y-205953300D01*
X238452300Y-205953300D02*
X238452300Y-206451500D01*
X238452300Y-206451500D02*
X238737200Y-206736400D01*
X238737200Y-206736400D02*
X238737200Y-208612000D01*
X238737200Y-208612000D02*
X238543600Y-208805600D01*
X328629600Y-203131600D02*
X329293400Y-203795400D01*
X329293400Y-203795400D02*
X334234300Y-203795400D01*
X334234300Y-203795400D02*
X335007700Y-203022000D01*
X326887700Y-203022000D02*
X328520000Y-203022000D01*
X328520000Y-203022000D02*
X328629600Y-203131600D01*
X328763900Y-208494500D02*
X327616400Y-209642000D01*
X327616400Y-209642000D02*
X326887700Y-209642000D01*
X350767700Y-209512000D02*
X349981600Y-208725900D01*
X349981600Y-208725900D02*
X346759300Y-208725900D01*
X346759300Y-208725900D02*
X345973200Y-209512000D01*
X345973200Y-209512000D02*
X342647700Y-209512000D01*
X282690000Y-214692000D02*
X282379900Y-214381900D01*
X282379900Y-214381900D02*
X277868900Y-214381900D01*
%TO.N,/COL14*%
X283934700Y-212338100D02*
X283739400Y-212142800D01*
X283739400Y-212142800D02*
X223454000Y-212142800D01*
X223454000Y-212142800D02*
X221704800Y-213892000D01*
X221704800Y-213892000D02*
X193000000Y-213892000D01*
X354988000Y-235492900D02*
X356015000Y-234465900D01*
X356015000Y-234465900D02*
X381355000Y-234465900D01*
X381355000Y-234465900D02*
X381668700Y-234779600D01*
X381668700Y-234779600D02*
X395265100Y-234779600D01*
X395265100Y-234779600D02*
X396243700Y-233801000D01*
X396243700Y-233801000D02*
X414412600Y-233801000D01*
X351060000Y-234822000D02*
X349591000Y-233353000D01*
X349591000Y-233353000D02*
X314320800Y-233353000D01*
X314320800Y-233353000D02*
X314208000Y-233240200D01*
X315830200Y-235907500D02*
X315498100Y-236239600D01*
X315498100Y-236239600D02*
X300991700Y-236239600D01*
X300991700Y-236239600D02*
X300155900Y-235403800D01*
X300155900Y-235403800D02*
X296794300Y-235403800D01*
X296794300Y-235403800D02*
X295946300Y-236251800D01*
X295946300Y-236251800D02*
X293139800Y-236251800D01*
X293139800Y-236251800D02*
X291710000Y-234822000D01*
X291710000Y-234822000D02*
X274840000Y-234822000D01*
%TO.N,+5V*%
X173650000Y-209834500D02*
X173650000Y-210932000D01*
X227890000Y-209007300D02*
X227890000Y-210122000D01*
X238543600Y-208805600D02*
X228091700Y-208805600D01*
%TO.N,/COL10*%
X281982600Y-274389800D02*
X280738000Y-273145200D01*
X290987900Y-274389800D02*
X281982600Y-274389800D01*
%TO.N,/COL14*%
X296716300Y-212338100D02*
X283934700Y-212338100D01*
%TO.N,/COL10*%
X308150000Y-272942000D02*
X292435700Y-272942000D01*
X258180000Y-292002000D02*
X277190000Y-292002000D01*
X292435700Y-272942000D02*
X290987900Y-274389800D01*
%TO.N,/COL14*%
X310150000Y-210462000D02*
X309748300Y-210863700D01*
X309748300Y-210863700D02*
X298190700Y-210863700D01*
X298190700Y-210863700D02*
X296716300Y-212338100D01*
%TO.N,/ROW4*%
X319745600Y-266635100D02*
X340083100Y-266635100D01*
X340083100Y-266635100D02*
X341580000Y-268132000D01*
X404690500Y-272013300D02*
X392872300Y-272013300D01*
X392872300Y-272013300D02*
X392255400Y-271396400D01*
X392255400Y-271396400D02*
X383454400Y-271396400D01*
X383454400Y-271396400D02*
X380780000Y-268722000D01*
X235710100Y-285467700D02*
X235309000Y-285066600D01*
X235309000Y-285066600D02*
X233917400Y-285066600D01*
X233917400Y-285066600D02*
X233368900Y-285615100D01*
X233368900Y-285615100D02*
X221872600Y-285615100D01*
X221872600Y-285615100D02*
X221872600Y-285797700D01*
X177280000Y-286592000D02*
X178256900Y-285615100D01*
X178256900Y-285615100D02*
X221872600Y-285615100D01*
X433239300Y-221909200D02*
X404616200Y-221909200D01*
X404616200Y-221909200D02*
X404599200Y-221892200D01*
%TO.N,/COL3*%
X336417200Y-221330500D02*
X336436400Y-221330500D01*
X336436400Y-221330500D02*
X336636400Y-221530500D01*
X336636400Y-221530500D02*
X337799900Y-221530500D01*
X337799900Y-221530500D02*
X338035300Y-221295100D01*
X220603700Y-228531500D02*
X229804500Y-228531500D01*
X229804500Y-228531500D02*
X236806200Y-221529800D01*
X236806200Y-221529800D02*
X328649600Y-221529800D01*
X328649600Y-221529800D02*
X328888900Y-221290500D01*
X328888900Y-221290500D02*
X336044600Y-221290500D01*
X336044600Y-221290500D02*
X336084600Y-221330500D01*
X336084600Y-221330500D02*
X336417200Y-221330500D01*
X338035300Y-221295100D02*
X338039900Y-221290500D01*
X338035300Y-221295100D02*
X338039900Y-221290500D01*
X338039900Y-221290500D02*
X434097300Y-221290500D01*
X434097300Y-221290500D02*
X434744200Y-221937400D01*
X153324900Y-290938800D02*
X153706900Y-290556800D01*
X153706900Y-290556800D02*
X218654800Y-290556800D01*
X218654800Y-290556800D02*
X220080000Y-291982000D01*
X131890000Y-253900000D02*
X131882000Y-253892000D01*
X131882000Y-253892000D02*
X108070000Y-253892000D01*
X131890000Y-253900000D02*
X150940000Y-253900000D01*
%TO.N,/ROW2*%
X381980400Y-228369300D02*
X382192700Y-228581600D01*
X382192700Y-228581600D02*
X412110300Y-228581600D01*
X412110300Y-228581600D02*
X416001800Y-224690100D01*
X416001800Y-224690100D02*
X439265600Y-224690100D01*
X266580700Y-276757100D02*
X267804900Y-277981300D01*
X267804900Y-277981300D02*
X384340000Y-277981300D01*
X245746400Y-266928000D02*
X227984000Y-266928000D01*
X227984000Y-266928000D02*
X227360000Y-267552000D01*
X265380000Y-267852000D02*
X264389600Y-266861600D01*
X264389600Y-266861600D02*
X245812800Y-266861600D01*
X245812800Y-266861600D02*
X245746400Y-266928000D01*
X191371000Y-266245200D02*
X226053200Y-266245200D01*
X226053200Y-266245200D02*
X227360000Y-267552000D01*
X155920000Y-229702000D02*
X156830200Y-228791800D01*
X156830200Y-228791800D02*
X161292500Y-228791800D01*
X161292500Y-228791800D02*
X161294000Y-228790300D01*
X161294000Y-228790300D02*
X173688300Y-228790300D01*
X173688300Y-228790300D02*
X174660000Y-229762000D01*
X213170000Y-229912000D02*
X212048300Y-228790300D01*
X212048300Y-228790300D02*
X195401700Y-228790300D01*
X195401700Y-228790300D02*
X194310000Y-229882000D01*
X194310000Y-229882000D02*
X193195200Y-228767200D01*
X193195200Y-228767200D02*
X175654800Y-228767200D01*
X175654800Y-228767200D02*
X174660000Y-229762000D01*
%TO.N,Net-(A1-GPIO19)*%
X412950000Y-237427000D02*
X413125000Y-237602000D01*
X413125000Y-237602000D02*
X415448000Y-237602000D01*
%TO.N,/COL4*%
X255780000Y-234842000D02*
X259803100Y-238865100D01*
X259803100Y-238865100D02*
X377270600Y-238865100D01*
X377270600Y-238865100D02*
X380230000Y-235905700D01*
X394773300Y-235904200D02*
X394539700Y-235670600D01*
X394539700Y-235670600D02*
X380465100Y-235670600D01*
X380465100Y-235670600D02*
X380230000Y-235905700D01*
X394938100Y-235739400D02*
X394773300Y-235904200D01*
X394938100Y-235739400D02*
X394773300Y-235904200D01*
X433694000Y-234592400D02*
X396085100Y-234592400D01*
X396085100Y-234592400D02*
X394938100Y-235739400D01*
X120020000Y-274032000D02*
X146542800Y-274032000D01*
X146542800Y-274032000D02*
X157550900Y-263023900D01*
X157550900Y-263023900D02*
X249724500Y-263023900D01*
X249724500Y-263023900D02*
X250949000Y-264248400D01*
%TO.N,/ROW1*%
X394169300Y-234365900D02*
X382023200Y-234365900D01*
X382023200Y-234365900D02*
X381680300Y-234023000D01*
X381680300Y-234023000D02*
X355607100Y-234023000D01*
X355607100Y-234023000D02*
X351229900Y-238400200D01*
X351229900Y-238400200D02*
X327898200Y-238400200D01*
X327898200Y-238400200D02*
X327200000Y-237702000D01*
X365620000Y-306642000D02*
X363896200Y-304918200D01*
X363896200Y-304918200D02*
X345375100Y-304918200D01*
X345375100Y-304918200D02*
X344182100Y-303725200D01*
X305931100Y-303700800D02*
X305366200Y-304265700D01*
X305366200Y-304265700D02*
X301924700Y-304265700D01*
X301924700Y-304265700D02*
X301724500Y-304065500D01*
X301724500Y-304065500D02*
X290939000Y-304065500D01*
X290939000Y-304065500D02*
X289674700Y-302801200D01*
X169250000Y-305008700D02*
X239346700Y-305008700D01*
X239346700Y-305008700D02*
X240380000Y-306042000D01*
X136770000Y-229722000D02*
X138101900Y-228390100D01*
X138101900Y-228390100D02*
X161126200Y-228390100D01*
X161126200Y-228390100D02*
X161582000Y-227934300D01*
%TO.N,/COL1*%
X409342200Y-219780600D02*
X409508500Y-219614300D01*
X409342200Y-219780600D02*
X409508500Y-219614300D01*
X409508500Y-219614300D02*
X433727200Y-219614300D01*
X433727200Y-219614300D02*
X434468500Y-218873000D01*
X390956200Y-218974100D02*
X391998100Y-220016000D01*
X391998100Y-220016000D02*
X409106800Y-220016000D01*
X409106800Y-220016000D02*
X409342200Y-219780600D01*
X146687500Y-300627000D02*
X167266400Y-300627000D01*
X167266400Y-300627000D02*
X171176600Y-304537200D01*
X171176600Y-304537200D02*
X299249700Y-304537200D01*
X299249700Y-304537200D02*
X305764500Y-311052000D01*
X305764500Y-311052000D02*
X322370000Y-311052000D01*
X350970000Y-311042000D02*
X350960000Y-311052000D01*
X350960000Y-311052000D02*
X322370000Y-311052000D01*
X389070000Y-311042000D02*
X387667200Y-309639200D01*
X387667200Y-309639200D02*
X370105000Y-309639200D01*
X370105000Y-309159500D02*
X370105000Y-309639200D01*
X370105000Y-309639200D02*
X352372800Y-309639200D01*
X352372800Y-309639200D02*
X350970000Y-311042000D01*
%TO.N,/ROW1*%
X289674700Y-216423400D02*
X289487300Y-216610800D01*
X289487300Y-216610800D02*
X253578800Y-216610800D01*
X253578800Y-216610800D02*
X251660000Y-214692000D01*
X394913700Y-233621500D02*
X394169300Y-234365900D01*
%TO.N,+5V*%
X262660000Y-201381700D02*
X262660000Y-202062000D01*
X408390000Y-207902000D02*
X409580200Y-207902000D01*
X408390000Y-207902000D02*
X408390000Y-207222000D01*
X404700000Y-201772000D02*
X403618600Y-200690600D01*
X403618600Y-200690600D02*
X396751400Y-200690600D01*
X396751400Y-200690600D02*
X395960000Y-201482000D01*
X421740000Y-280992000D02*
X426530000Y-276202000D01*
X426530000Y-276202000D02*
X426530000Y-271892000D01*
%TO.N,/COL11*%
X265240000Y-252440000D02*
X261302600Y-252440000D01*
X261302600Y-252440000D02*
X256680100Y-247817500D01*
X256680100Y-247817500D02*
X207698800Y-247817500D01*
X207698800Y-247817500D02*
X203507900Y-252008400D01*
X203507900Y-252008400D02*
X195798500Y-252008400D01*
X195798500Y-252008400D02*
X195384100Y-252422800D01*
X195384100Y-252422800D02*
X171467200Y-252422800D01*
X171467200Y-252422800D02*
X169990000Y-253900000D01*
X265240000Y-252440000D02*
X265240000Y-253900000D01*
X303340000Y-253892000D02*
X301888000Y-252440000D01*
X301888000Y-252440000D02*
X265240000Y-252440000D01*
%TO.N,+5V*%
X326887700Y-209642000D02*
X325017700Y-207772000D01*
X325017700Y-207772000D02*
X320080000Y-207772000D01*
X320080000Y-207772000D02*
X318430000Y-206122000D01*
X358887700Y-210299800D02*
X368995500Y-210299800D01*
X368995500Y-210299800D02*
X371417700Y-212722000D01*
X358887700Y-210299800D02*
X358887700Y-209512000D01*
X395960000Y-209602000D02*
X395960000Y-207992000D01*
X408390000Y-207902000D02*
X396050000Y-207902000D01*
X396050000Y-207902000D02*
X395960000Y-207992000D01*
X165680000Y-202592000D02*
X164596100Y-203675900D01*
X164596100Y-203675900D02*
X158323900Y-203675900D01*
X158323900Y-203675900D02*
X157350000Y-202702000D01*
X342647700Y-202892000D02*
X342647700Y-202270000D01*
X342647700Y-202270000D02*
X339085200Y-202270000D01*
X339085200Y-202270000D02*
X338817200Y-202538000D01*
X338817200Y-202538000D02*
X338817200Y-202538100D01*
X338817200Y-202538100D02*
X335491600Y-202538100D01*
X335491600Y-202538100D02*
X335007700Y-203022000D01*
X105430000Y-204082000D02*
X103146300Y-206365700D01*
X103146300Y-206365700D02*
X95466200Y-206365700D01*
X95466200Y-206365700D02*
X95466200Y-206365800D01*
X95466200Y-206365800D02*
X92830000Y-209002000D01*
X421740000Y-280992000D02*
X422802500Y-280992000D01*
X422802500Y-280992000D02*
X423852500Y-282042000D01*
X248560000Y-202232000D02*
X249820400Y-200971600D01*
X249820400Y-200971600D02*
X262249900Y-200971600D01*
X262249900Y-200971600D02*
X262660000Y-201381700D01*
X426360000Y-296842000D02*
X426204700Y-296997300D01*
X426204700Y-296997300D02*
X423852500Y-296997300D01*
X423852500Y-308732400D02*
X425980400Y-308732400D01*
X425980400Y-308732400D02*
X426640000Y-309392000D01*
X408390000Y-215342000D02*
X409244500Y-215342000D01*
X409244500Y-215342000D02*
X409580200Y-215677700D01*
X401250000Y-214262000D02*
X402330000Y-215342000D01*
X402330000Y-215342000D02*
X408390000Y-215342000D01*
X409478400Y-223462000D02*
X409580200Y-223360200D01*
X408390000Y-223462000D02*
X409478400Y-223462000D01*
X409478400Y-223462000D02*
X411760000Y-225743600D01*
X411760000Y-225743600D02*
X411760000Y-227312000D01*
X379537700Y-211937500D02*
X379537700Y-212722000D01*
%TO.N,Net-(D66-A)*%
X236980000Y-275082000D02*
X245560000Y-275082000D01*
X245560000Y-275082000D02*
X246410000Y-275932000D01*
%TO.N,Net-(D67-A)*%
X244100000Y-294082000D02*
X253030000Y-294082000D01*
X253030000Y-294082000D02*
X253720000Y-294772000D01*
%TO.N,/LEDMAT*%
X345597200Y-239898500D02*
X346555000Y-240856300D01*
X346555000Y-240856300D02*
X397987100Y-240856300D01*
X397987100Y-240856300D02*
X399591400Y-239252000D01*
X399591400Y-239252000D02*
X412950000Y-239252000D01*
X347547700Y-209512000D02*
X347547700Y-209862000D01*
X347547700Y-209862000D02*
X348376100Y-210690400D01*
%TO.N,Net-(D70-DOUT)*%
X408390000Y-218562000D02*
X392931700Y-218562000D01*
X392931700Y-218562000D02*
X389255700Y-214886000D01*
X389255700Y-214886000D02*
X389255700Y-214885900D01*
X389255700Y-214885900D02*
X387143000Y-214885900D01*
X387143000Y-214885900D02*
X384194600Y-211937500D01*
X384194600Y-211937500D02*
X381848300Y-211937500D01*
X381848300Y-211937500D02*
X380695500Y-213090300D01*
X380695500Y-213090300D02*
X380695500Y-213209700D01*
X380695500Y-213209700D02*
X380431200Y-213474000D01*
X380431200Y-213474000D02*
X377237900Y-213474000D01*
X377237900Y-213474000D02*
X375701400Y-211937500D01*
X375701400Y-211937500D02*
X373847700Y-211937500D01*
X373847700Y-211937500D02*
X372218000Y-213567200D01*
X372218000Y-213567200D02*
X359642900Y-213567200D01*
X359642900Y-213567200D02*
X358887700Y-212812000D01*
%TO.N,Net-(D76-DOUT)*%
X158076800Y-212058600D02*
X159423400Y-210712000D01*
X159423400Y-210712000D02*
X162380000Y-210712000D01*
X337218100Y-220125400D02*
X337017300Y-219924600D01*
X337017300Y-219924600D02*
X236469400Y-219924600D01*
X236469400Y-219924600D02*
X235253100Y-221140900D01*
X235253100Y-221140900D02*
X158603100Y-221140900D01*
X339907700Y-209642000D02*
X339979100Y-209713400D01*
X339979100Y-209713400D02*
X339979100Y-210755400D01*
%TO.N,Net-(D77-DOUT)*%
X358189400Y-217960200D02*
X357768200Y-217539000D01*
X357768200Y-217539000D02*
X340476200Y-217539000D01*
X340476200Y-217539000D02*
X339295700Y-218719500D01*
X339295700Y-218719500D02*
X224938100Y-218719500D01*
X224938100Y-218719500D02*
X224138900Y-219518700D01*
X223394600Y-215607000D02*
X222337000Y-214549400D01*
X222337000Y-214549400D02*
X195830300Y-214549400D01*
X195830300Y-214549400D02*
X195061000Y-215318700D01*
X195061000Y-215318700D02*
X192409100Y-215318700D01*
X192409100Y-215318700D02*
X191821600Y-214731200D01*
X191821600Y-214731200D02*
X173150000Y-214731200D01*
X173150000Y-214731200D02*
X172004400Y-215876800D01*
X172004400Y-215876800D02*
X172004400Y-216421900D01*
X172004400Y-216421900D02*
X171442800Y-216983500D01*
X171442800Y-216983500D02*
X169725800Y-216983500D01*
X169725800Y-216983500D02*
X169214100Y-216471800D01*
X169214100Y-216471800D02*
X166997400Y-216471800D01*
X166997400Y-216471800D02*
X166748900Y-216720300D01*
X166748900Y-216720300D02*
X158348300Y-216720300D01*
X158348300Y-216720300D02*
X157350000Y-215722000D01*
X360422400Y-205979100D02*
X359100600Y-205979100D01*
X359100600Y-205979100D02*
X358887700Y-206192000D01*
%TO.N,Net-(D78-DOUT)*%
X343294900Y-222730000D02*
X344161600Y-223596700D01*
X344161600Y-223596700D02*
X403745600Y-223596700D01*
X403745600Y-223596700D02*
X404933200Y-222409100D01*
X404933200Y-222409100D02*
X410637100Y-222409100D01*
X410637100Y-222409100D02*
X411690000Y-223462000D01*
X341231700Y-202911800D02*
X340017900Y-202911800D01*
X340017900Y-202911800D02*
X339907700Y-203022000D01*
%TO.N,Net-(D84-DOUT)*%
X335007700Y-212942000D02*
X334003600Y-211937900D01*
X334003600Y-211937900D02*
X297684500Y-211937900D01*
X297684500Y-211937900D02*
X296682600Y-212939800D01*
%TO.N,/ROW1*%
X420205500Y-229892700D02*
X397699300Y-229892700D01*
X135740000Y-228692000D02*
X136770000Y-229722000D01*
X397699300Y-229892700D02*
X396240000Y-231352000D01*
X169250000Y-305008700D02*
X169250000Y-305952000D01*
X168814800Y-304573500D02*
X169250000Y-305008700D01*
X287286900Y-304998900D02*
X241423100Y-304998900D01*
X288890000Y-306602000D02*
X287286900Y-304998900D01*
X132758500Y-304573500D02*
X168814800Y-304573500D01*
X131090000Y-306242000D02*
X132758500Y-304573500D01*
X207707200Y-266859200D02*
X208500000Y-267652000D01*
X241423100Y-304998900D02*
X240380000Y-306042000D01*
X290253200Y-228718800D02*
X289240000Y-229732000D01*
X170300000Y-267522000D02*
X170962800Y-266859200D01*
X170962800Y-266859200D02*
X207707200Y-266859200D01*
X307056800Y-228718800D02*
X290253200Y-228718800D01*
X308170000Y-229832000D02*
X307056800Y-228718800D01*
%TO.N,/COL7*%
X431958400Y-238388000D02*
X399300400Y-238388000D01*
%TO.N,/ROW1*%
X117850000Y-228692000D02*
X135740000Y-228692000D01*
%TO.N,/COL7*%
X432123200Y-238223200D02*
X433579800Y-236766600D01*
X397440800Y-240247600D02*
X347186600Y-240247600D01*
X433579800Y-236766600D02*
X435040700Y-236766600D01*
X399300400Y-238388000D02*
X397440800Y-240247600D01*
X432123200Y-238223200D02*
X431958400Y-238388000D01*
X432123200Y-238223200D02*
X431958400Y-238388000D01*
X246163500Y-259222100D02*
X244399300Y-260986300D01*
X244399300Y-260986300D02*
X158573600Y-260986300D01*
X158573600Y-260986300D02*
X157288800Y-259701500D01*
X341440000Y-253892000D02*
X337720100Y-257611900D01*
X337720100Y-257611900D02*
X300586000Y-257611900D01*
X300586000Y-257611900D02*
X298975800Y-259222100D01*
X298975800Y-259222100D02*
X246163500Y-259222100D01*
X327170000Y-272942000D02*
X340827900Y-272942000D01*
X340827900Y-272942000D02*
X343571600Y-270198300D01*
%TO.N,/ROW3*%
X355630000Y-247811000D02*
X375622000Y-247811000D01*
X375622000Y-247811000D02*
X376370900Y-247062100D01*
X376370900Y-247062100D02*
X409053700Y-247062100D01*
X409053700Y-247062100D02*
X415888800Y-240227000D01*
X415888800Y-240227000D02*
X431942900Y-240227000D01*
X355630000Y-247811000D02*
X355630000Y-249012000D01*
X317850000Y-248842000D02*
X319133600Y-247558400D01*
X319133600Y-247558400D02*
X355377400Y-247558400D01*
X355377400Y-247558400D02*
X355630000Y-247811000D01*
X215202200Y-282634200D02*
X215739900Y-282096500D01*
X215739900Y-282096500D02*
X274242500Y-282096500D01*
X274242500Y-282096500D02*
X274780200Y-282634200D01*
X244991200Y-240522000D02*
X243621200Y-241892000D01*
X243621200Y-241892000D02*
X222550000Y-241892000D01*
X274780200Y-282634200D02*
X275285100Y-282129300D01*
X275285100Y-282129300D02*
X303065100Y-282129300D01*
X303065100Y-282129300D02*
X303350700Y-281843700D01*
X303350700Y-281843700D02*
X310052200Y-281843700D01*
X310052200Y-281843700D02*
X310842700Y-282634200D01*
X146050000Y-249002000D02*
X147651400Y-247400600D01*
X147651400Y-247400600D02*
X202048600Y-247400600D01*
X202048600Y-247400600D02*
X203550000Y-248902000D01*
X203550000Y-248902000D02*
X210560000Y-241892000D01*
X210560000Y-241892000D02*
X222550000Y-241892000D01*
X402430000Y-284612000D02*
X401890400Y-285151600D01*
X401890400Y-285151600D02*
X360500400Y-285151600D01*
X360500400Y-285151600D02*
X359110000Y-286542000D01*
%TO.N,/COL2*%
X336583500Y-220928800D02*
X336602700Y-220928800D01*
X336602700Y-220928800D02*
X336802700Y-221128800D01*
X336802700Y-221128800D02*
X337633600Y-221128800D01*
X337633600Y-221128800D02*
X338034400Y-220728000D01*
X338034400Y-220728000D02*
X433780600Y-220728000D01*
X433780600Y-220728000D02*
X434744200Y-219764400D01*
X328400400Y-220928100D02*
X328600500Y-220728000D01*
X328600500Y-220728000D02*
X336050100Y-220728000D01*
X336050100Y-220728000D02*
X336250900Y-220928800D01*
X336250900Y-220928800D02*
X336583500Y-220928800D01*
X296260000Y-292012000D02*
X294742500Y-290494500D01*
X294742500Y-290494500D02*
X225952000Y-290494500D01*
X225952000Y-290494500D02*
X223030000Y-293416500D01*
X223030000Y-293416500D02*
X217998600Y-293416500D01*
X217998600Y-293416500D02*
X216584100Y-292002000D01*
X216584100Y-292002000D02*
X201020000Y-292002000D01*
X315340000Y-291992000D02*
X296280000Y-291992000D01*
X296280000Y-291992000D02*
X296260000Y-292012000D01*
X181960000Y-292002000D02*
X201020000Y-292002000D01*
%TO.N,/ROTA*%
X298651500Y-222689800D02*
X300377100Y-224415400D01*
X300377100Y-224415400D02*
X406188700Y-224415400D01*
%TO.N,/ROW5*%
X390505300Y-229385000D02*
X366223000Y-229385000D01*
X366223000Y-229385000D02*
X366060000Y-229222000D01*
X390505300Y-229654600D02*
X390505300Y-229385000D01*
X390505300Y-229385000D02*
X412643100Y-229385000D01*
X412643100Y-229385000D02*
X412839700Y-229188400D01*
X412839700Y-229188400D02*
X434004200Y-229188400D01*
X253720000Y-287152000D02*
X252098200Y-285530200D01*
X252098200Y-285530200D02*
X246799900Y-285530200D01*
X246799900Y-285530200D02*
X245934600Y-284664900D01*
X245934600Y-284664900D02*
X233456000Y-284664900D01*
X233456000Y-284664900D02*
X232959500Y-285161400D01*
X232959500Y-285161400D02*
X160520600Y-285161400D01*
X160520600Y-285161400D02*
X158640000Y-287042000D01*
X138040000Y-288762000D02*
X140843000Y-285959000D01*
X140843000Y-285959000D02*
X157557000Y-285959000D01*
X157557000Y-285959000D02*
X158640000Y-287042000D01*
X298740000Y-249192000D02*
X304442800Y-243489200D01*
X304442800Y-243489200D02*
X364147200Y-243489200D01*
X298740000Y-249192000D02*
X297396300Y-247848300D01*
X297396300Y-247848300D02*
X280373700Y-247848300D01*
X280373700Y-247848300D02*
X279750000Y-248472000D01*
X138040000Y-288762000D02*
X134110700Y-284832700D01*
X134110700Y-284832700D02*
X128805300Y-284832700D01*
X128805300Y-284832700D02*
X127130400Y-283157800D01*
X127130400Y-283157800D02*
X115816900Y-283157800D01*
X115816900Y-283157800D02*
X115482600Y-283492100D01*
X260610000Y-248552000D02*
X261380200Y-247781800D01*
X261380200Y-247781800D02*
X279059800Y-247781800D01*
X279059800Y-247781800D02*
X279750000Y-248472000D01*
X329810000Y-286932000D02*
X328029600Y-285151600D01*
X328029600Y-285151600D02*
X311154100Y-285151600D01*
X311154100Y-285151600D02*
X308480500Y-282478000D01*
X308480500Y-282478000D02*
X305911900Y-282478000D01*
%TO.N,/ROW4*%
X234540000Y-293792000D02*
X236936100Y-296188100D01*
X236936100Y-296188100D02*
X269735500Y-296188100D01*
X269735500Y-296188100D02*
X271311100Y-297763700D01*
X271311100Y-297763700D02*
X279630000Y-297763700D01*
X279630000Y-297763700D02*
X280943400Y-296450300D01*
X280943400Y-296450300D02*
X309525800Y-296450300D01*
X309525800Y-296450300D02*
X312071700Y-293904400D01*
X380780000Y-268722000D02*
X380780000Y-268460300D01*
X319463700Y-266917000D02*
X319745600Y-266635100D01*
%TO.N,Net-(D101-DOUT)*%
X236163000Y-201762100D02*
X244790100Y-201762100D01*
X244790100Y-201762100D02*
X245260000Y-202232000D01*
%TO.N,Net-(D102-DOUT)*%
X236756800Y-220728300D02*
X237158800Y-220326300D01*
X237158800Y-220326300D02*
X336216400Y-220326300D01*
X336216400Y-220326300D02*
X336417200Y-220527100D01*
X336417200Y-220527100D02*
X336769000Y-220527100D01*
X336769000Y-220527100D02*
X336969000Y-220727100D01*
X336969000Y-220727100D02*
X337467300Y-220727100D01*
X337467300Y-220727100D02*
X337819800Y-220374600D01*
X337819800Y-220374600D02*
X337819800Y-220374500D01*
X337819800Y-220374500D02*
X337868000Y-220326300D01*
X337868000Y-220326300D02*
X386407000Y-220326300D01*
X386407000Y-220326300D02*
X388773100Y-217960200D01*
X238556800Y-214177900D02*
X239015900Y-214177900D01*
X239015900Y-214177900D02*
X240020000Y-215182000D01*
X392660000Y-209602000D02*
X392548200Y-209490200D01*
X392548200Y-209490200D02*
X390867900Y-209490200D01*
%TO.N,Net-(D108-DOUT)*%
X170210000Y-202672000D02*
X168811600Y-202672000D01*
X168811600Y-202672000D02*
X162882800Y-208600800D01*
X162882800Y-208600800D02*
X158348800Y-208600800D01*
X158348800Y-208600800D02*
X157350000Y-207602000D01*
%TO.N,Net-(D109-DOUT)*%
X162380000Y-202592000D02*
X163432000Y-201540000D01*
X163432000Y-201540000D02*
X165261500Y-201540000D01*
X165261500Y-201540000D02*
X165597200Y-201204300D01*
X227817800Y-200729800D02*
X234140000Y-207052000D01*
%TO.N,Net-(D110-DOUT)*%
X324963700Y-208773500D02*
X324766900Y-208576700D01*
X324766900Y-208576700D02*
X299909700Y-208576700D01*
X299909700Y-208576700D02*
X296550000Y-211936400D01*
X296550000Y-211936400D02*
X284101000Y-211936400D01*
X284101000Y-211936400D02*
X283905700Y-211741100D01*
X283905700Y-211741100D02*
X238179100Y-211741100D01*
%TO.N,Net-(D86-DOUT)*%
X366517700Y-212722000D02*
X365314200Y-211518500D01*
X365314200Y-211518500D02*
X337967300Y-211518500D01*
X337967300Y-211518500D02*
X337686400Y-211237600D01*
X336442400Y-205593100D02*
X335736600Y-205593100D01*
X335736600Y-205593100D02*
X335007700Y-206322000D01*
%TO.N,Net-(D100-DIN)*%
X262660000Y-206962000D02*
X258282600Y-211339400D01*
X258282600Y-211339400D02*
X239487700Y-211339400D01*
X239487700Y-211339400D02*
X237355600Y-209207300D01*
X237355600Y-209207300D02*
X236220200Y-209207300D01*
X236220200Y-209207300D02*
X234197800Y-211229700D01*
X234197800Y-211229700D02*
X225697700Y-211229700D01*
X225697700Y-211229700D02*
X224590000Y-210122000D01*
%TO.N,Net-(D100-DOUT)*%
X184301900Y-205879000D02*
X184466700Y-205714200D01*
X184301900Y-205879000D02*
X184466700Y-205714200D01*
X173510000Y-207572000D02*
X175203000Y-205879000D01*
X175203000Y-205879000D02*
X184301900Y-205879000D01*
X239054000Y-206202400D02*
X240362900Y-204893500D01*
X240362900Y-204893500D02*
X250727700Y-204893500D01*
X250727700Y-204893500D02*
X253559200Y-202062000D01*
X253559200Y-202062000D02*
X259360000Y-202062000D01*
%TO.N,Net-(D101-DOUT)*%
X165680000Y-207492000D02*
X167859500Y-205312500D01*
X167859500Y-205312500D02*
X188300200Y-205312500D01*
X188300200Y-205312500D02*
X189996800Y-203615900D01*
X189996800Y-203615900D02*
X204900100Y-203615900D01*
X204900100Y-203615900D02*
X206177900Y-204893700D01*
X230323700Y-204893700D02*
X232712600Y-207282600D01*
%TO.N,Net-(D84-DOUT)*%
X296682600Y-212939800D02*
X283968400Y-212939800D01*
X283968400Y-212939800D02*
X283573100Y-212544500D01*
X283573100Y-212544500D02*
X250374400Y-212544500D01*
X250374400Y-212544500D02*
X250139000Y-212779900D01*
X250139000Y-212779900D02*
X249979100Y-212939800D01*
X250139000Y-212779900D02*
X249979100Y-212939800D01*
X249979100Y-212939800D02*
X229972200Y-212939800D01*
X229972200Y-212939800D02*
X227890000Y-215022000D01*
%TO.N,Net-(D85-DOUT)*%
X366517700Y-206102000D02*
X365453000Y-205037300D01*
X365453000Y-205037300D02*
X360899500Y-205037300D01*
X360899500Y-205037300D02*
X360837900Y-204975700D01*
X360837900Y-204975700D02*
X360007000Y-204975700D01*
X360007000Y-204975700D02*
X359945400Y-205037300D01*
X359945400Y-205037300D02*
X354119200Y-205037300D01*
X354119200Y-205037300D02*
X353719000Y-205437500D01*
X353719000Y-205437500D02*
X350276700Y-205437500D01*
X350276700Y-205437500D02*
X350118000Y-205278800D01*
X350118000Y-205278800D02*
X350035400Y-205278800D01*
X350035400Y-205278800D02*
X349306100Y-206008100D01*
X349306100Y-206008100D02*
X349306100Y-206514300D01*
X349306100Y-206514300D02*
X349502500Y-206710700D01*
X325321000Y-200771600D02*
X324144800Y-200771600D01*
X324144800Y-200771600D02*
X323701300Y-200328100D01*
X323701300Y-200328100D02*
X183769200Y-200328100D01*
X183769200Y-200328100D02*
X183294700Y-200802600D01*
X183294700Y-200802600D02*
X165326000Y-200802600D01*
X165326000Y-200802600D02*
X164990300Y-201138300D01*
X164990300Y-201138300D02*
X157334200Y-201138300D01*
X157334200Y-201138300D02*
X155159300Y-203313200D01*
X155159300Y-203313200D02*
X155159300Y-203560900D01*
X325487300Y-200605300D02*
X325321000Y-200771600D01*
X325487300Y-200605300D02*
X325321000Y-200771600D01*
X349885900Y-201246000D02*
X349009800Y-200369900D01*
X349009800Y-200369900D02*
X325722700Y-200369900D01*
X325722700Y-200369900D02*
X325487300Y-200605300D01*
X154050000Y-210822000D02*
X154600900Y-210822000D01*
X154600900Y-210822000D02*
X155009000Y-210413900D01*
%TO.N,/COL4*%
X358120000Y-272942000D02*
X361001900Y-272942000D01*
%TO.N,/COL6*%
X174800000Y-272942000D02*
X182899900Y-281041900D01*
%TO.N,/COL4*%
X361001900Y-272942000D02*
X361096800Y-273036900D01*
%TO.N,/ROTB*%
X297807200Y-224718000D02*
X297906300Y-224817100D01*
X297906300Y-224817100D02*
X405739600Y-224817100D01*
X405739600Y-224817100D02*
X406338800Y-225416300D01*
X406338800Y-225416300D02*
X410514300Y-225416300D01*
%TO.N,/COL6*%
X298611400Y-281041900D02*
X301070300Y-278583000D01*
X301070300Y-278583000D02*
X387228100Y-278583000D01*
X387228100Y-278583000D02*
X387342100Y-278469000D01*
X434384200Y-235801100D02*
X433879400Y-236305900D01*
X433879400Y-236305900D02*
X389786800Y-236305900D01*
X389786800Y-236305900D02*
X389753200Y-236272300D01*
X162900000Y-292002000D02*
X155066400Y-299835600D01*
X155066400Y-299835600D02*
X99025100Y-299835600D01*
X162900000Y-292002000D02*
X171315800Y-292002000D01*
X171315800Y-292002000D02*
X171778600Y-291539200D01*
X182899900Y-281041900D02*
X298611400Y-281041900D01*
%TO.N,/COL9*%
X435053400Y-240840300D02*
X417650300Y-240840300D01*
X417650300Y-240840300D02*
X410130200Y-248360400D01*
X410130200Y-248360400D02*
X406644400Y-248360400D01*
X406644400Y-248360400D02*
X402556800Y-252448000D01*
X402556800Y-252448000D02*
X323834000Y-252448000D01*
X323834000Y-252448000D02*
X322390000Y-253892000D01*
X284290000Y-253900000D02*
X289207700Y-253900000D01*
X289207700Y-253900000D02*
X290628500Y-255320800D01*
X290628500Y-255320800D02*
X305523600Y-255320800D01*
X305523600Y-255320800D02*
X306952400Y-253892000D01*
X306952400Y-253892000D02*
X322390000Y-253892000D01*
X207022400Y-261925900D02*
X134960200Y-261925900D01*
X134960200Y-261925900D02*
X134317100Y-261282800D01*
X208090000Y-253900000D02*
X208491700Y-254301700D01*
X208491700Y-254301700D02*
X225446200Y-254301700D01*
X225446200Y-254301700D02*
X226498700Y-255354200D01*
X226498700Y-255354200D02*
X230768200Y-255354200D01*
X230768200Y-255354200D02*
X231549100Y-254573300D01*
X231549100Y-254573300D02*
X242684200Y-254573300D01*
X242684200Y-254573300D02*
X243477200Y-255366300D01*
X243477200Y-255366300D02*
X248211400Y-255366300D01*
X248211400Y-255366300D02*
X249033300Y-254544400D01*
X249033300Y-254544400D02*
X263263100Y-254544400D01*
X263263100Y-254544400D02*
X264074500Y-255355800D01*
X264074500Y-255355800D02*
X268734500Y-255355800D01*
X268734500Y-255355800D02*
X270190300Y-253900000D01*
X270190300Y-253900000D02*
X284290000Y-253900000D01*
%TO.N,/COL13*%
X328807100Y-234082500D02*
X313479500Y-234082500D01*
X313479500Y-234082500D02*
X312790000Y-234772000D01*
X405560300Y-252386000D02*
X404054300Y-253892000D01*
X404054300Y-253892000D02*
X389070000Y-253892000D01*
X343582200Y-276110800D02*
X359333500Y-276110800D01*
X359333500Y-276110800D02*
X362502300Y-272942000D01*
X362502300Y-272942000D02*
X389070000Y-272942000D01*
X198570000Y-234842000D02*
X200069200Y-233342800D01*
X200069200Y-233342800D02*
X311360800Y-233342800D01*
X311360800Y-233342800D02*
X312790000Y-234772000D01*
%TO.N,Net-(D5-A)*%
X355970000Y-313142000D02*
X364500000Y-313142000D01*
X364500000Y-313142000D02*
X365620000Y-314262000D01*
%TO.N,Net-(D6-A)*%
X375020000Y-294092000D02*
X384180000Y-294092000D01*
X384180000Y-294092000D02*
X384340000Y-293932000D01*
%TO.N,Net-(D7-A)*%
X310930000Y-313392000D02*
X327130000Y-313392000D01*
X327130000Y-313392000D02*
X327370000Y-313152000D01*
%TO.N,Net-(D8-A)*%
X394070000Y-313142000D02*
X403470000Y-313142000D01*
X403470000Y-313142000D02*
X403490000Y-313122000D01*
%TO.N,Net-(D9-A)*%
X158640000Y-294662000D02*
X149370000Y-294662000D01*
X149370000Y-294662000D02*
X148820000Y-294112000D01*
%TO.N,Net-(D14-A)*%
X208500000Y-275272000D02*
X199080000Y-275272000D01*
X199080000Y-275272000D02*
X198870000Y-275062000D01*
%TO.N,Net-(D15-A)*%
X186960000Y-294102000D02*
X196070000Y-294102000D01*
X196070000Y-294102000D02*
X196480000Y-294512000D01*
%TO.N,Net-(D16-A)*%
X215570000Y-294382000D02*
X206300000Y-294382000D01*
X206300000Y-294382000D02*
X206020000Y-294102000D01*
%TO.N,Net-(D17-A)*%
X301260000Y-294112000D02*
X284217700Y-294112000D01*
X284217700Y-294112000D02*
X282781000Y-292675300D01*
X282781000Y-292675300D02*
X278966700Y-292675300D01*
X278966700Y-292675300D02*
X278205700Y-293436300D01*
X278205700Y-293436300D02*
X264532000Y-293436300D01*
X264532000Y-293436300D02*
X263771000Y-292675300D01*
X263771000Y-292675300D02*
X259597900Y-292675300D01*
X259597900Y-292675300D02*
X258803400Y-293469800D01*
X258803400Y-293469800D02*
X245505500Y-293469800D01*
X245505500Y-293469800D02*
X244691000Y-292655300D01*
X244691000Y-292655300D02*
X240630400Y-292655300D01*
X240630400Y-292655300D02*
X239869500Y-293416200D01*
X239869500Y-293416200D02*
X236995800Y-293416200D01*
X236995800Y-293416200D02*
X235087600Y-291508000D01*
%TO.N,Net-(D18-A)*%
X329810000Y-294552000D02*
X320800000Y-294552000D01*
X320800000Y-294552000D02*
X320340000Y-294092000D01*
%TO.N,Net-(D23-A)*%
X108320000Y-236942000D02*
X117220000Y-236942000D01*
X117220000Y-236942000D02*
X117850000Y-236312000D01*
%TO.N,Net-(D24-A)*%
X241640000Y-256732000D02*
X237823800Y-260548200D01*
X237823800Y-260548200D02*
X160488200Y-260548200D01*
X160488200Y-260548200D02*
X155940000Y-256000000D01*
%TO.N,Net-(D25-A)*%
X146050000Y-256622000D02*
X137512000Y-256622000D01*
X137512000Y-256622000D02*
X136890000Y-256000000D01*
%TO.N,Net-(D26-A)*%
X225080000Y-294082000D02*
X230833600Y-299835600D01*
X230833600Y-299835600D02*
X307548100Y-299835600D01*
%TO.N,Net-(D27-A)*%
X122780000Y-256612000D02*
X113690000Y-256612000D01*
X113690000Y-256612000D02*
X113070000Y-255992000D01*
%TO.N,Net-(D31-A)*%
X396240000Y-238972000D02*
X386196300Y-238972000D01*
X386196300Y-238972000D02*
X385230000Y-238005700D01*
%TO.N,Net-(D32-A)*%
X384270000Y-313872000D02*
X375730000Y-313872000D01*
X375730000Y-313872000D02*
X375030000Y-313172000D01*
%TO.N,Net-(D33-A)*%
X135790000Y-276332000D02*
X125220000Y-276332000D01*
X125220000Y-276332000D02*
X125020000Y-276132000D01*
%TO.N,Net-(D34-A)*%
X380780000Y-276342000D02*
X364420000Y-276342000D01*
X364420000Y-276342000D02*
X363120000Y-275042000D01*
%TO.N,Net-(D35-A)*%
X260780000Y-236942000D02*
X269220000Y-236942000D01*
X269220000Y-236942000D02*
X270030000Y-237752000D01*
%TO.N,Net-(D39-A)*%
X136770000Y-237342000D02*
X127770000Y-237342000D01*
X127770000Y-237342000D02*
X127370000Y-236942000D01*
%TO.N,Net-(D40-A)*%
X379920000Y-256582000D02*
X371100000Y-256582000D01*
X371100000Y-256582000D02*
X370530000Y-256012000D01*
%TO.N,Net-(D41-A)*%
X203550000Y-256522000D02*
X194562000Y-256522000D01*
X194562000Y-256522000D02*
X194040000Y-256000000D01*
%TO.N,Net-(D42-A)*%
X232140000Y-256000000D02*
X225952000Y-256000000D01*
X225952000Y-256000000D02*
X222520000Y-259432000D01*
%TO.N,Net-(D43-A)*%
X294110000Y-275042000D02*
X303280000Y-275042000D01*
X303280000Y-275042000D02*
X303680000Y-275442000D01*
%TO.N,Net-(D47-A)*%
X288890000Y-314222000D02*
X297790000Y-314222000D01*
X297790000Y-314222000D02*
X298820000Y-313192000D01*
%TO.N,Net-(D48-A)*%
X179800000Y-275042000D02*
X188550000Y-275042000D01*
X188550000Y-275042000D02*
X189390000Y-275882000D01*
%TO.N,Net-(D49-A)*%
X402430000Y-292232000D02*
X395900000Y-292232000D01*
X395900000Y-292232000D02*
X394060000Y-294072000D01*
%TO.N,Net-(D50-A)*%
X167900000Y-294102000D02*
X177170000Y-294102000D01*
X177170000Y-294102000D02*
X177280000Y-294212000D01*
%TO.N,Net-(D51-A)*%
X102590000Y-313122000D02*
X111550000Y-313122000D01*
X111550000Y-313122000D02*
X112200000Y-313772000D01*
%TO.N,Net-(D55-A)*%
X169250000Y-313572000D02*
X160236300Y-313572000D01*
X160236300Y-313572000D02*
X159840000Y-313175700D01*
%TO.N,Net-(D56-A)*%
X165470000Y-236942000D02*
X174220000Y-236942000D01*
X174220000Y-236942000D02*
X174660000Y-237382000D01*
%TO.N,Net-(D57-A)*%
X355630000Y-256632000D02*
X347080000Y-256632000D01*
X347080000Y-256632000D02*
X346440000Y-255992000D01*
%TO.N,Net-(D58-A)*%
X341580000Y-275752000D02*
X332880000Y-275752000D01*
X332880000Y-275752000D02*
X332170000Y-275042000D01*
%TO.N,Net-(D59-A)*%
X251190000Y-256000000D02*
X260438000Y-256000000D01*
X260438000Y-256000000D02*
X260610000Y-256172000D01*
%TO.N,Net-(D63-A)*%
X170300000Y-275142000D02*
X160910000Y-275142000D01*
X160910000Y-275142000D02*
X160790000Y-275022000D01*
%TO.N,Net-(D64-A)*%
X265380000Y-275472000D02*
X256450000Y-275472000D01*
X256450000Y-275472000D02*
X256010000Y-275032000D01*
%TO.N,Net-(D65-A)*%
X284330000Y-275672000D02*
X275690000Y-275672000D01*
X275690000Y-275672000D02*
X275060000Y-275042000D01*
%TO.N,Net-(D30-DOUT)*%
X387657700Y-209422000D02*
X388729300Y-210493600D01*
X388729300Y-210493600D02*
X390930300Y-210493600D01*
X390930300Y-210493600D02*
X391943100Y-211506400D01*
X391943100Y-211506400D02*
X401794400Y-211506400D01*
X401794400Y-211506400D02*
X404550000Y-214262000D01*
%TO.N,Net-(D36-DOUT)*%
X350767700Y-212812000D02*
X351556200Y-212812000D01*
X351556200Y-212812000D02*
X352230000Y-212138200D01*
X352619500Y-202703700D02*
X355479400Y-202703700D01*
X355479400Y-202703700D02*
X355667700Y-202892000D01*
%TO.N,Net-(D37-DOUT)*%
X116330000Y-208942000D02*
X115274000Y-209998000D01*
X115274000Y-209998000D02*
X109014000Y-209998000D01*
X109014000Y-209998000D02*
X107600000Y-211412000D01*
%TO.N,Net-(D44-DOUT)*%
X348799900Y-207268600D02*
X348600100Y-207468400D01*
X348600100Y-207468400D02*
X346198300Y-207468400D01*
X346198300Y-207468400D02*
X346162700Y-207504000D01*
X346162700Y-207504000D02*
X337505200Y-207504000D01*
X337505200Y-207504000D02*
X337338900Y-207337700D01*
X336425900Y-207670500D02*
X336592200Y-207504200D01*
X336425900Y-207670500D02*
X336592200Y-207504200D01*
X336592200Y-207504200D02*
X337172400Y-207504200D01*
X337172400Y-207504200D02*
X337172600Y-207504000D01*
X331787700Y-209642000D02*
X333523800Y-207905900D01*
X333523800Y-207905900D02*
X336190500Y-207905900D01*
X336190500Y-207905900D02*
X336425900Y-207670500D01*
X348966200Y-207102300D02*
X349043300Y-207102300D01*
X349043300Y-207102300D02*
X349253400Y-207312400D01*
X349253400Y-207312400D02*
X349751700Y-207312400D01*
X349751700Y-207312400D02*
X350767700Y-206296400D01*
X350767700Y-206296400D02*
X350767700Y-206192000D01*
X348799900Y-207268600D02*
X348966200Y-207102300D01*
X348799900Y-207268600D02*
X348966200Y-207102300D01*
X337338900Y-207337700D02*
X337172600Y-207504000D01*
X337338900Y-207337700D02*
X337172600Y-207504000D01*
%TO.N,Net-(D45-DOUT)*%
X326154000Y-201692800D02*
X330458500Y-201692800D01*
X330458500Y-201692800D02*
X331787700Y-203022000D01*
X324653000Y-199067200D02*
X137330500Y-199067200D01*
%TO.N,Net-(D21-DOUT)*%
X382757700Y-212722000D02*
X382757700Y-212798300D01*
X382757700Y-212798300D02*
X378938800Y-216617200D01*
X378938800Y-216617200D02*
X339979100Y-216617200D01*
%TO.N,Net-(D28-DOUT)*%
X235735100Y-219522900D02*
X225944900Y-219522900D01*
X225944900Y-219522900D02*
X225336500Y-220131300D01*
X225336500Y-220131300D02*
X162788400Y-220131300D01*
X162788400Y-220131300D02*
X162586700Y-220333000D01*
X162586700Y-220333000D02*
X159214100Y-220333000D01*
X159214100Y-220333000D02*
X159018600Y-220137500D01*
X159018600Y-220137500D02*
X102377100Y-220137500D01*
X102377100Y-220137500D02*
X102004000Y-219764400D01*
X235901400Y-219356600D02*
X235735100Y-219522900D01*
X235901400Y-219356600D02*
X235735100Y-219522900D01*
X352230000Y-218140700D02*
X351249500Y-219121200D01*
X351249500Y-219121200D02*
X236136800Y-219121200D01*
X236136800Y-219121200D02*
X235901400Y-219356600D01*
X353220300Y-209792300D02*
X355387400Y-209792300D01*
X355387400Y-209792300D02*
X355667700Y-209512000D01*
X102130000Y-204082000D02*
X101955400Y-204256600D01*
X101955400Y-204256600D02*
X101955400Y-205500400D01*
%TO.N,Net-(D29-DOUT)*%
X110900000Y-216312000D02*
X112967400Y-218379400D01*
X112967400Y-218379400D02*
X169348700Y-218379400D01*
X169348700Y-218379400D02*
X169350300Y-218377800D01*
X169350300Y-218377800D02*
X172141800Y-218377800D01*
X172141800Y-218377800D02*
X172453800Y-218689800D01*
X172453800Y-218689800D02*
X212845800Y-218689800D01*
X212845800Y-218689800D02*
X214413500Y-217122100D01*
X214413500Y-217122100D02*
X334325200Y-217122100D01*
X334325200Y-217122100D02*
X335431800Y-216015500D01*
X335431800Y-216015500D02*
X378621100Y-216015500D01*
X378621100Y-216015500D02*
X381297200Y-213339400D01*
X382020600Y-203922000D02*
X386537700Y-203922000D01*
X386537700Y-203922000D02*
X387657700Y-202802000D01*
%TO.N,Net-(D20-DOUT)*%
X360173300Y-205377400D02*
X360111700Y-205439000D01*
X360111700Y-205439000D02*
X357993000Y-205439000D01*
X357993000Y-205439000D02*
X357277700Y-206154300D01*
X357277700Y-206154300D02*
X357277700Y-206252800D01*
X357277700Y-206252800D02*
X355965500Y-207565000D01*
X355965500Y-207565000D02*
X350623100Y-207565000D01*
X350623100Y-207565000D02*
X350621600Y-207566500D01*
X350621600Y-207566500D02*
X350065600Y-207566500D01*
X350065600Y-207566500D02*
X349918000Y-207714100D01*
X349918000Y-207714100D02*
X349087100Y-207714100D01*
X349087100Y-207714100D02*
X349004800Y-207631700D01*
X348966200Y-207670300D02*
X348766400Y-207870100D01*
X348766400Y-207870100D02*
X346364600Y-207870100D01*
X346364600Y-207870100D02*
X346162900Y-208071800D01*
X346162900Y-208071800D02*
X338129700Y-208071800D01*
X338129700Y-208071800D02*
X337777100Y-208424400D01*
X337777100Y-208424400D02*
X337777100Y-208452000D01*
X337777100Y-208452000D02*
X335096100Y-211133000D01*
X335096100Y-211133000D02*
X320141000Y-211133000D01*
X320141000Y-211133000D02*
X318430000Y-209422000D01*
X348966200Y-207670300D02*
X349004800Y-207631700D01*
X348966200Y-207670300D02*
X349004800Y-207631700D01*
X372834700Y-206945500D02*
X381914200Y-206945500D01*
X381914200Y-206945500D02*
X382757700Y-206102000D01*
X372669900Y-207110300D02*
X372834700Y-206945500D01*
X372669900Y-207110300D02*
X372834700Y-206945500D01*
%TO.N,Net-(D21-DOUT)*%
X338889500Y-219723700D02*
X338688700Y-219522900D01*
X338688700Y-219522900D02*
X236303100Y-219522900D01*
X236303100Y-219522900D02*
X235293000Y-220533000D01*
X235293000Y-220533000D02*
X162954700Y-220533000D01*
X162954700Y-220533000D02*
X162748500Y-220739200D01*
X162748500Y-220739200D02*
X159052300Y-220739200D01*
X159052300Y-220739200D02*
X158852300Y-220539200D01*
X158852300Y-220539200D02*
X158354000Y-220539200D01*
X158354000Y-220539200D02*
X157958600Y-220934600D01*
X157958600Y-220934600D02*
X157958600Y-220934700D01*
X157958600Y-220934700D02*
X131793000Y-220934700D01*
X131444900Y-207870300D02*
X127021700Y-207870300D01*
X127021700Y-207870300D02*
X126440000Y-208452000D01*
%TO.N,Net-(D12-DOUT)*%
X118530000Y-211562000D02*
X120102400Y-209989600D01*
X120102400Y-209989600D02*
X122293200Y-209989600D01*
%TO.N,Net-(D13-DOUT)*%
X277267200Y-202544700D02*
X276954500Y-202232000D01*
X276954500Y-202232000D02*
X275800000Y-202232000D01*
X411760000Y-232212000D02*
X410638300Y-233333700D01*
X410638300Y-233333700D02*
X395667200Y-233333700D01*
X395667200Y-233333700D02*
X392955200Y-230621700D01*
X392955200Y-230621700D02*
X388132600Y-230621700D01*
X388132600Y-230621700D02*
X387315600Y-229804700D01*
X387315600Y-229804700D02*
X383982300Y-229804700D01*
X383982300Y-229804700D02*
X383442600Y-230344400D01*
X383442600Y-230344400D02*
X363175900Y-230344400D01*
X363175900Y-230344400D02*
X360813200Y-227981700D01*
X360813200Y-227981700D02*
X287848500Y-227981700D01*
X287848500Y-227981700D02*
X284607900Y-224741100D01*
X284607900Y-224741100D02*
X278433000Y-224741100D01*
%TO.N,Net-(D19-DOUT)*%
X172702900Y-218088100D02*
X212154100Y-218088100D01*
X212154100Y-218088100D02*
X213631700Y-216610500D01*
X213631700Y-216610500D02*
X247678400Y-216610500D01*
X247678400Y-216610500D02*
X250941000Y-213347900D01*
X250941000Y-213347900D02*
X283040300Y-213347900D01*
X283040300Y-213347900D02*
X284384400Y-214692000D01*
X284384400Y-214692000D02*
X285990000Y-214692000D01*
X105430000Y-208982000D02*
X105430000Y-210888900D01*
X105430000Y-210888900D02*
X107628800Y-213087700D01*
X107628800Y-213087700D02*
X145488000Y-213087700D01*
X145488000Y-213087700D02*
X150019400Y-217619100D01*
X150019400Y-217619100D02*
X167268900Y-217619100D01*
X167268900Y-217619100D02*
X167412800Y-217475200D01*
%TO.N,Net-(D20-DOUT)*%
X372669900Y-207110300D02*
X372493400Y-207286800D01*
X372493400Y-207286800D02*
X363113800Y-207286800D01*
X363113800Y-207286800D02*
X361266000Y-205439000D01*
X361266000Y-205439000D02*
X360733200Y-205439000D01*
X360733200Y-205439000D02*
X360671600Y-205377400D01*
X360671600Y-205377400D02*
X360173300Y-205377400D01*
%TO.N,Net-(D13-DIN)*%
X324713400Y-204106900D02*
X325273600Y-204667100D01*
X325273600Y-204667100D02*
X341122800Y-204667100D01*
X341122800Y-204667100D02*
X342647700Y-206192000D01*
%TO.N,Net-(D10-DOUT)*%
X96130000Y-209002000D02*
X106842400Y-219714400D01*
X106842400Y-219714400D02*
X218314000Y-219714400D01*
X218314000Y-219714400D02*
X219999200Y-218029200D01*
X219999200Y-218029200D02*
X278362100Y-218029200D01*
X282690000Y-209792000D02*
X281181400Y-209792000D01*
X281181400Y-209792000D02*
X280738000Y-210235400D01*
%TO.N,Net-(D11-DOUT)*%
X346295500Y-208507200D02*
X346129200Y-208673500D01*
X346295500Y-208507200D02*
X346129200Y-208673500D01*
X346129200Y-208673500D02*
X338378800Y-208673500D01*
X411690000Y-207222000D02*
X411690000Y-208748500D01*
X411690000Y-208748500D02*
X408920900Y-211517600D01*
X408920900Y-211517600D02*
X406109400Y-211517600D01*
X406109400Y-211517600D02*
X405577600Y-210985800D01*
X405577600Y-210985800D02*
X392469300Y-210985800D01*
X392469300Y-210985800D02*
X391575400Y-210091900D01*
X391575400Y-210091900D02*
X390618800Y-210091900D01*
X390618800Y-210091900D02*
X388735200Y-208208300D01*
X388735200Y-208208300D02*
X349467900Y-208208300D01*
X349467900Y-208208300D02*
X349404400Y-208271800D01*
X349404400Y-208271800D02*
X346530900Y-208271800D01*
X346530900Y-208271800D02*
X346295500Y-208507200D01*
X323330000Y-206122000D02*
X323885500Y-205566500D01*
X323885500Y-205566500D02*
X328810800Y-205566500D01*
X328810800Y-205566500D02*
X330346800Y-207102500D01*
X330346800Y-207102500D02*
X335857900Y-207102500D01*
X335857900Y-207102500D02*
X336175500Y-206784900D01*
X336175500Y-206784900D02*
X336175500Y-206643500D01*
X336175500Y-206643500D02*
X336348800Y-206470200D01*
X336348800Y-206470200D02*
X338231800Y-206470200D01*
%TO.N,Net-(D12-DOUT)*%
X122856300Y-205360700D02*
X123140000Y-205077000D01*
X123140000Y-205077000D02*
X123140000Y-203552000D01*
%TO.N,Net-(D119-DOUT)*%
X426360000Y-293542000D02*
X425546200Y-292728200D01*
X425546200Y-292728200D02*
X425546200Y-282085800D01*
X425546200Y-282085800D02*
X426640000Y-280992000D01*
%TO.N,Net-(D120-DOUT)*%
X426640000Y-306092000D02*
X424791100Y-304243100D01*
X424791100Y-304243100D02*
X355957500Y-304243100D01*
X347547700Y-202892000D02*
X349062700Y-202892000D01*
X349062700Y-202892000D02*
X349088900Y-202918200D01*
%TO.N,Net-(D1-DOUT)*%
X342647700Y-212812000D02*
X341969700Y-212134000D01*
X341969700Y-212134000D02*
X336402400Y-212134000D01*
X92830000Y-204102000D02*
X96192000Y-200740000D01*
X96192000Y-200740000D02*
X135033300Y-200740000D01*
X135033300Y-200740000D02*
X137307800Y-198465500D01*
X137307800Y-198465500D02*
X325629800Y-198465500D01*
X325629800Y-198465500D02*
X325930300Y-198766000D01*
%TO.N,Net-(D11-DIN)*%
X401400000Y-201772000D02*
X402484400Y-202856400D01*
X402484400Y-202856400D02*
X407855600Y-202856400D01*
X407855600Y-202856400D02*
X408390000Y-202322000D01*
%TO.N,Net-(D13-DIN)*%
X279100000Y-207132000D02*
X282125100Y-204106900D01*
X282125100Y-204106900D02*
X324713400Y-204106900D01*
%TO.N,Net-(D116-DOUT)*%
X230840000Y-202152000D02*
X233624400Y-204936400D01*
X233624400Y-204936400D02*
X238106500Y-204936400D01*
X280231900Y-297930000D02*
X280398200Y-297763700D01*
X280231900Y-297930000D02*
X280398200Y-297763700D01*
X250949000Y-296870000D02*
X252244400Y-298165400D01*
X252244400Y-298165400D02*
X279996500Y-298165400D01*
X279996500Y-298165400D02*
X280231900Y-297930000D01*
%TO.N,Net-(D117-DOUT)*%
X389951100Y-308688800D02*
X390794900Y-309532600D01*
X390794900Y-309532600D02*
X421599400Y-309532600D01*
X421599400Y-309532600D02*
X421740000Y-309392000D01*
X392660000Y-201482000D02*
X390308800Y-203833200D01*
X390308800Y-203833200D02*
X387978400Y-203833200D01*
%TO.N,Net-(D118-DOUT)*%
X401973900Y-258842500D02*
X408303000Y-265171600D01*
X408303000Y-265171600D02*
X423109600Y-265171600D01*
X423109600Y-265171600D02*
X426530000Y-268592000D01*
X404700000Y-206672000D02*
X403572800Y-206672000D01*
X403572800Y-206672000D02*
X403459200Y-206785600D01*
%TO.N,Net-(D110-DOUT)*%
X238179100Y-211741100D02*
X236720000Y-210282000D01*
X325512800Y-202253300D02*
X325512900Y-202253300D01*
X325512900Y-202253300D02*
X325512900Y-201453000D01*
X325512900Y-201453000D02*
X325894200Y-201071700D01*
X325894200Y-201071700D02*
X348290100Y-201071700D01*
X348290100Y-201071700D02*
X349072300Y-201853900D01*
X349072300Y-201853900D02*
X350229800Y-201853900D01*
X350229800Y-201853900D02*
X350448100Y-201635600D01*
X350448100Y-201635600D02*
X372432500Y-201635600D01*
X372432500Y-201635600D02*
X372938300Y-202141400D01*
X372938300Y-202141400D02*
X372938300Y-202678500D01*
X372938300Y-202678500D02*
X374783500Y-204523700D01*
X374783500Y-204523700D02*
X388371400Y-204523700D01*
X388371400Y-204523700D02*
X388565800Y-204329300D01*
X388565800Y-204329300D02*
X394535700Y-204329300D01*
X394535700Y-204329300D02*
X395960000Y-205753600D01*
X395960000Y-205753600D02*
X395960000Y-206382000D01*
%TO.N,Net-(D115-DOUT)*%
X385464500Y-269995800D02*
X386059200Y-270590500D01*
X386059200Y-270590500D02*
X392217700Y-270590500D01*
X392217700Y-270590500D02*
X393023600Y-271396400D01*
X393023600Y-271396400D02*
X421134400Y-271396400D01*
X421134400Y-271396400D02*
X421630000Y-271892000D01*
X325206900Y-200317700D02*
X324484300Y-200317700D01*
X324484300Y-200317700D02*
X324093000Y-199926400D01*
X324093000Y-199926400D02*
X183602900Y-199926400D01*
X183602900Y-199926400D02*
X183128400Y-200400900D01*
X183128400Y-200400900D02*
X165159600Y-200400900D01*
X165159600Y-200400900D02*
X164924200Y-200636300D01*
X164924200Y-200636300D02*
X164830700Y-200729800D01*
X164924200Y-200636300D02*
X164830700Y-200729800D01*
X164830700Y-200729800D02*
X156022200Y-200729800D01*
X156022200Y-200729800D02*
X154050000Y-202702000D01*
X325321000Y-200203600D02*
X325206900Y-200317700D01*
X325321000Y-200203600D02*
X325206900Y-200317700D01*
X373587500Y-201419800D02*
X372135900Y-199968200D01*
X372135900Y-199968200D02*
X325556400Y-199968200D01*
X325556400Y-199968200D02*
X325321000Y-200203600D01*
%TO.N,Net-(D111-A)*%
X290276400Y-216174300D02*
X290276400Y-216174200D01*
X290276400Y-216174200D02*
X289923900Y-215821700D01*
X289923900Y-215821700D02*
X289425600Y-215821700D01*
X289425600Y-215821700D02*
X289225600Y-216021700D01*
X289225600Y-216021700D02*
X289030400Y-216021700D01*
X289030400Y-216021700D02*
X288843000Y-216209100D01*
X288843000Y-216209100D02*
X256477100Y-216209100D01*
X256477100Y-216209100D02*
X254960000Y-214692000D01*
%TO.N,Net-(D112-A)*%
X279840000Y-236922000D02*
X288810000Y-236922000D01*
X288810000Y-236922000D02*
X289240000Y-237352000D01*
%TO.N,Net-(D113-A)*%
X200308400Y-213068900D02*
X213583100Y-213068900D01*
X213583100Y-213068900D02*
X215710000Y-210942000D01*
%TO.N,Net-(D114-A)*%
X366060000Y-236842000D02*
X356140000Y-236842000D01*
X356140000Y-236842000D02*
X356060000Y-236922000D01*
%TO.N,Net-(D38-DIN)*%
X408390000Y-210442000D02*
X402330000Y-210442000D01*
X402330000Y-210442000D02*
X401250000Y-209362000D01*
%TO.N,Net-(D101-DIN)*%
X249127900Y-207132000D02*
X252554700Y-203705200D01*
X252554700Y-203705200D02*
X324879700Y-203705200D01*
X324879700Y-203705200D02*
X324970300Y-203795800D01*
X324970300Y-203795800D02*
X328560400Y-203795800D01*
X328560400Y-203795800D02*
X328962100Y-204197500D01*
X328962100Y-204197500D02*
X359649200Y-204197500D01*
X359649200Y-204197500D02*
X359674400Y-204172300D01*
X359674400Y-204172300D02*
X365365800Y-204172300D01*
X365365800Y-204172300D02*
X365389500Y-204196000D01*
X365554300Y-204031200D02*
X365389500Y-204196000D01*
X365554300Y-204031200D02*
X365389500Y-204196000D01*
X371417700Y-202802000D02*
X370188500Y-204031200D01*
X370188500Y-204031200D02*
X365554300Y-204031200D01*
%TO.N,Net-(D102-DIN)*%
X371417700Y-209422000D02*
X373129800Y-211134100D01*
X373129800Y-211134100D02*
X390519900Y-211134100D01*
X390519900Y-211134100D02*
X391294000Y-211908200D01*
X391294000Y-211908200D02*
X393366200Y-211908200D01*
X393366200Y-211908200D02*
X395960000Y-214502000D01*
%TO.N,Net-(D95-A)*%
X228870000Y-313415700D02*
X240133700Y-313415700D01*
X240133700Y-313415700D02*
X240380000Y-313662000D01*
%TO.N,Net-(D96-A)*%
X150160000Y-313312000D02*
X140870000Y-313312000D01*
X140870000Y-313312000D02*
X140730000Y-313172000D01*
%TO.N,Net-(D97-A)*%
X250990000Y-237652000D02*
X242450000Y-237652000D01*
X242450000Y-237652000D02*
X241720000Y-236922000D01*
%TO.N,Net-(D99-A)*%
X138040000Y-296382000D02*
X136770000Y-295112000D01*
X136770000Y-295112000D02*
X119050000Y-295112000D01*
%TO.N,Net-(D104-A)*%
X203570000Y-236942000D02*
X212580000Y-236942000D01*
X212580000Y-236942000D02*
X213170000Y-237532000D01*
%TO.N,Net-(D105-A)*%
X359110000Y-294162000D02*
X347720000Y-294162000D01*
X347720000Y-294162000D02*
X347660000Y-294102000D01*
%TO.N,Net-(D106-A)*%
X403630000Y-256142000D02*
X394220000Y-256142000D01*
X394220000Y-256142000D02*
X394070000Y-255992000D01*
%TO.N,Net-(D107-A)*%
X394070000Y-275042000D02*
X402960000Y-275042000D01*
X402960000Y-275042000D02*
X403520000Y-275602000D01*
%TO.N,Net-(D111-A)*%
X299426200Y-216210600D02*
X290312700Y-216210600D01*
X290312700Y-216210600D02*
X290276400Y-216174300D01*
%TO.N,Net-(D69-DOUT)*%
X357438100Y-198063800D02*
X136614700Y-198063800D01*
X136614700Y-198063800D02*
X136446400Y-198232100D01*
X363787700Y-202892000D02*
X362999200Y-202103500D01*
X362999200Y-202103500D02*
X357909800Y-202103500D01*
X357909800Y-202103500D02*
X357418700Y-202594600D01*
%TO.N,Net-(D71-A)*%
X131090000Y-313862000D02*
X122370000Y-313862000D01*
X122370000Y-313862000D02*
X121650000Y-313142000D01*
%TO.N,Net-(D72-A)*%
X155920000Y-237322000D02*
X146800000Y-237322000D01*
X146800000Y-237322000D02*
X146420000Y-236942000D01*
%TO.N,Net-(D73-A)*%
X222550000Y-249512000D02*
X218779200Y-253282800D01*
X218779200Y-253282800D02*
X214476500Y-253282800D01*
%TO.N,Net-(D74-A)*%
X336960000Y-256332000D02*
X327730000Y-256332000D01*
X327730000Y-256332000D02*
X327390000Y-255992000D01*
%TO.N,Net-(D75-A)*%
X298740000Y-256812000D02*
X290102000Y-256812000D01*
X290102000Y-256812000D02*
X289290000Y-256000000D01*
%TO.N,Net-(D79-A)*%
X313150000Y-275042000D02*
X322210000Y-275042000D01*
X322210000Y-275042000D02*
X322530000Y-275362000D01*
%TO.N,Net-(D80-A)*%
X217900000Y-275052000D02*
X227240000Y-275052000D01*
X227240000Y-275052000D02*
X227360000Y-275172000D01*
%TO.N,Net-(D81-A)*%
X282190000Y-294102000D02*
X279630000Y-296662000D01*
X279630000Y-296662000D02*
X272420000Y-296662000D01*
%TO.N,Net-(D82-A)*%
X232090000Y-237062000D02*
X222740000Y-237062000D01*
X222740000Y-237062000D02*
X222610000Y-236932000D01*
%TO.N,Net-(D87-A)*%
X298810000Y-236875700D02*
X307593700Y-236875700D01*
X307593700Y-236875700D02*
X308170000Y-237452000D01*
%TO.N,Net-(D88-A)*%
X184520000Y-236942000D02*
X193750000Y-236942000D01*
X193750000Y-236942000D02*
X194310000Y-237502000D01*
%TO.N,Net-(D89-A)*%
X308340000Y-255992000D02*
X317380000Y-255992000D01*
X317380000Y-255992000D02*
X317850000Y-256462000D01*
%TO.N,Net-(D90-A)*%
X174990000Y-256000000D02*
X184388000Y-256000000D01*
X184388000Y-256000000D02*
X184560000Y-256172000D01*
%TO.N,Net-(D91-A)*%
X270240000Y-256000000D02*
X279658000Y-256000000D01*
X279658000Y-256000000D02*
X279750000Y-256092000D01*
%TO.N,Net-(D101-DIN)*%
X248560000Y-207132000D02*
X249127900Y-207132000D01*
%TO.N,Net-(D54-DOUT)*%
X288699000Y-215785100D02*
X270653100Y-215785100D01*
X270653100Y-215785100D02*
X269730000Y-214862000D01*
%TO.N,Net-(D60-DOUT)*%
X172206100Y-217151300D02*
X171972200Y-217385200D01*
X171972200Y-217385200D02*
X169559500Y-217385200D01*
X169559500Y-217385200D02*
X169348700Y-217174400D01*
X169348700Y-217174400D02*
X167962900Y-217174400D01*
X167962900Y-217174400D02*
X167662000Y-216873500D01*
X167662000Y-216873500D02*
X167163700Y-216873500D01*
X167163700Y-216873500D02*
X166862800Y-217174400D01*
X166862800Y-217174400D02*
X150425500Y-217174400D01*
X150425500Y-217174400D02*
X148057400Y-214806300D01*
X173650000Y-215832000D02*
X172497000Y-216985000D01*
X172497000Y-216985000D02*
X172372400Y-216985000D01*
X172206100Y-217151300D02*
X172372400Y-216985000D01*
X172206100Y-217151300D02*
X172372400Y-216985000D01*
X146068900Y-203712900D02*
X144580900Y-203712900D01*
X144580900Y-203712900D02*
X144090000Y-203222000D01*
%TO.N,Net-(D61-DOUT)*%
X325090600Y-199866000D02*
X324600700Y-199866000D01*
X324600700Y-199866000D02*
X324249000Y-199514300D01*
X324249000Y-199514300D02*
X165478200Y-199514300D01*
X165478200Y-199514300D02*
X164757900Y-200234600D01*
X164757900Y-200234600D02*
X164724800Y-200267700D01*
X164757900Y-200234600D02*
X164724800Y-200267700D01*
X164724800Y-200267700D02*
X136754300Y-200267700D01*
X136754300Y-200267700D02*
X133100000Y-203922000D01*
X325154700Y-199801900D02*
X325090600Y-199866000D01*
X325154700Y-199801900D02*
X325090600Y-199866000D01*
X379537700Y-202802000D02*
X376302200Y-199566500D01*
X376302200Y-199566500D02*
X325390100Y-199566500D01*
X325390100Y-199566500D02*
X325154700Y-199801900D01*
%TO.N,Net-(D62-DOUT)*%
X363787700Y-209512000D02*
X364678900Y-208620800D01*
X364678900Y-208620800D02*
X378736500Y-208620800D01*
X378736500Y-208620800D02*
X379537700Y-209422000D01*
%TO.N,Net-(D68-DOUT)*%
X165680000Y-215612000D02*
X170350000Y-210942000D01*
X170350000Y-210942000D02*
X170350000Y-210932000D01*
%TO.N,Net-(D69-DOUT)*%
X137532400Y-207389100D02*
X137532400Y-207689600D01*
X137532400Y-207689600D02*
X136400000Y-208822000D01*
X358189400Y-198815100D02*
X357438100Y-198063800D01*
%TO.N,Net-(D52-DOUT)*%
X211988000Y-217486400D02*
X172453800Y-217486400D01*
X172453800Y-217486400D02*
X172141700Y-217798500D01*
X172141700Y-217798500D02*
X169120300Y-217798500D01*
X169120300Y-217798500D02*
X169099500Y-217777700D01*
X147390000Y-208122000D02*
X147922000Y-208654000D01*
X147922000Y-208654000D02*
X155343200Y-208654000D01*
X155343200Y-208654000D02*
X156211300Y-209522100D01*
%TO.N,Net-(D53-DOUT)*%
X374637700Y-206102000D02*
X374195900Y-206543800D01*
X374195900Y-206543800D02*
X372550300Y-206543800D01*
X372550300Y-206543800D02*
X372550300Y-206543900D01*
X372550300Y-206543900D02*
X372240200Y-206854000D01*
X372240200Y-206854000D02*
X370595200Y-206854000D01*
X370595200Y-206854000D02*
X368376800Y-204635600D01*
X368376800Y-204635600D02*
X361065800Y-204635600D01*
X361065800Y-204635600D02*
X361004200Y-204574000D01*
X361004200Y-204574000D02*
X359840700Y-204574000D01*
X359840700Y-204574000D02*
X359779100Y-204635600D01*
X359779100Y-204635600D02*
X353752700Y-204635600D01*
X353752700Y-204635600D02*
X353517300Y-204871000D01*
X353352500Y-205035800D02*
X353152500Y-204835800D01*
X353152500Y-204835800D02*
X349910400Y-204835800D01*
X349910400Y-204835800D02*
X348904400Y-205841800D01*
X348904400Y-205841800D02*
X348904400Y-206409800D01*
X348904400Y-206409800D02*
X348247500Y-207066700D01*
X348247500Y-207066700D02*
X346032000Y-207066700D01*
X346032000Y-207066700D02*
X345996500Y-207102200D01*
X345996500Y-207102200D02*
X337691700Y-207102200D01*
X337691700Y-207102200D02*
X337491900Y-206902400D01*
X337491900Y-206902400D02*
X336626000Y-206902400D01*
X336626000Y-206902400D02*
X336024200Y-207504200D01*
X336024200Y-207504200D02*
X328069900Y-207504200D01*
X328069900Y-207504200D02*
X326887700Y-206322000D01*
X353517300Y-204871000D02*
X353352500Y-205035800D01*
X353517300Y-204871000D02*
X353352500Y-205035800D01*
%TO.N,Net-(D54-DOUT)*%
X374637700Y-212722000D02*
X371750800Y-215608900D01*
X371750800Y-215608900D02*
X299177100Y-215608900D01*
X299177100Y-215608900D02*
X299000900Y-215785100D01*
X299000900Y-215785100D02*
X290455300Y-215785100D01*
X290455300Y-215785100D02*
X290090200Y-215420000D01*
X290090200Y-215420000D02*
X289064100Y-215420000D01*
X289064100Y-215420000D02*
X288699000Y-215785100D01*
%TO.N,Net-(D45-DOUT)*%
X137330500Y-199067200D02*
X135114800Y-201282900D01*
X135114800Y-201282900D02*
X115789100Y-201282900D01*
X115789100Y-201282900D02*
X113030000Y-204042000D01*
%TO.N,Net-(D46-DOUT)*%
X411690000Y-215342000D02*
X411690000Y-216836500D01*
X411690000Y-216836500D02*
X408912200Y-219614300D01*
X408912200Y-219614300D02*
X392447500Y-219614300D01*
X392447500Y-219614300D02*
X389970300Y-217137100D01*
X389970300Y-217137100D02*
X340310100Y-217137100D01*
X340310100Y-217137100D02*
X340228300Y-217218900D01*
X340228300Y-217218900D02*
X338439100Y-217218900D01*
X338439100Y-217218900D02*
X337616700Y-218041300D01*
X337616700Y-218041300D02*
X284173300Y-218041300D01*
X284173300Y-218041300D02*
X284173300Y-218041400D01*
X266430000Y-209962000D02*
X267639800Y-211171800D01*
X267639800Y-211171800D02*
X284187500Y-211171800D01*
%TO.N,Net-(D52-DOUT)*%
X156211300Y-209522100D02*
X156391200Y-209522100D01*
X326887700Y-212942000D02*
X324966000Y-214863700D01*
X324966000Y-214863700D02*
X287736200Y-214863700D01*
X287736200Y-214863700D02*
X286218900Y-213346400D01*
X286218900Y-213346400D02*
X283807000Y-213346400D01*
X283807000Y-213346400D02*
X283406800Y-212946200D01*
X283406800Y-212946200D02*
X250540800Y-212946200D01*
X250540800Y-212946200D02*
X250139100Y-213347900D01*
X250139100Y-213347900D02*
X233370000Y-213347900D01*
X233370000Y-213347900D02*
X230509100Y-216208800D01*
X230509100Y-216208800D02*
X213265600Y-216208800D01*
X213265600Y-216208800D02*
X211988000Y-217486400D01*
%TO.N,/COL8*%
X268920000Y-247064700D02*
X278086500Y-247064700D01*
X278086500Y-247064700D02*
X282651100Y-242500100D01*
X412977000Y-242170200D02*
X415355700Y-239791500D01*
X282651100Y-242500100D02*
X412647100Y-242500100D01*
X412647100Y-242500100D02*
X412882500Y-242264700D01*
X412882500Y-242264700D02*
X412977000Y-242170200D01*
X412882500Y-242264700D02*
X412977000Y-242170200D01*
X415355700Y-239791500D02*
X421748300Y-239791500D01*
X421748300Y-239791500D02*
X421914600Y-239625200D01*
X421748300Y-239791500D02*
X421914600Y-239625200D01*
X432924500Y-239625200D02*
X433183200Y-239883900D01*
X421914600Y-239625200D02*
X432924500Y-239625200D01*
X251020000Y-272942000D02*
X251010000Y-272932000D01*
X434598100Y-239883900D02*
X434600600Y-239881400D01*
X433183200Y-239883900D02*
X434598100Y-239883900D01*
X157204000Y-271508000D02*
X207246400Y-271508000D01*
X207246400Y-271508000D02*
X210156600Y-274418200D01*
X155790000Y-272922000D02*
X157204000Y-271508000D01*
X210156600Y-274418200D02*
X214987300Y-274418200D01*
X214987300Y-274418200D02*
X216423500Y-272982000D01*
X251010000Y-272932000D02*
X250960000Y-272982000D01*
X216423500Y-272982000D02*
X231980000Y-272982000D01*
X250960000Y-272982000D02*
X231980000Y-272982000D01*
X268822400Y-246967100D02*
X268920000Y-247064700D01*
X270060000Y-272942000D02*
X251020000Y-272942000D01*
%TO.N,/COL5*%
X412712200Y-228747900D02*
X412878500Y-228581600D01*
X412712200Y-228747900D02*
X412878500Y-228581600D01*
%TO.N,GND*%
X367786300Y-209602100D02*
X366697800Y-209602100D01*
X162380000Y-207492000D02*
X162348000Y-207460000D01*
X162348000Y-207460000D02*
X161387100Y-207460000D01*
X162152900Y-215839100D02*
X161403600Y-215839100D01*
X162380000Y-215612000D02*
X162152900Y-215839100D01*
X153658500Y-216113500D02*
X153058200Y-216113500D01*
X154050000Y-215722000D02*
X153658500Y-216113500D01*
X170690400Y-216172400D02*
X170350000Y-215832000D01*
X423797500Y-267214000D02*
X423008000Y-267214000D01*
X423008000Y-267214000D02*
X421630000Y-268592000D01*
X171342100Y-216172400D02*
X170690400Y-216172400D01*
X229853000Y-207761600D02*
X230130400Y-207761600D01*
X230130400Y-207761600D02*
X230840000Y-207052000D01*
X427573800Y-285225800D02*
X426640000Y-284292000D01*
X402368600Y-207110600D02*
X401838600Y-207110600D01*
X401838600Y-207110600D02*
X401400000Y-206672000D01*
X339907700Y-206322000D02*
X339005500Y-205419800D01*
X137414400Y-204936400D02*
X136400000Y-203922000D01*
X339005500Y-205419800D02*
X337337100Y-205419800D01*
X138045300Y-204936400D02*
X137414400Y-204936400D01*
X325108900Y-210531300D02*
X324439300Y-210531300D01*
X324439300Y-210531300D02*
X323330000Y-209422000D01*
X268732700Y-210536100D02*
X269155900Y-210536100D01*
X274320200Y-207902000D02*
X275030000Y-207902000D01*
X269155900Y-210536100D02*
X269730000Y-209962000D01*
X286955300Y-210541200D02*
X286739200Y-210541200D01*
X286739200Y-210541200D02*
X285990000Y-209792000D01*
X275030000Y-207902000D02*
X275800000Y-207132000D01*
X374637800Y-209422000D02*
X374637700Y-209422000D01*
X375568800Y-210353000D02*
X374637800Y-209422000D01*
X339907700Y-212942000D02*
X338964000Y-213885700D01*
X330502800Y-212871300D02*
X331717000Y-212871300D01*
X366697800Y-209602100D02*
X366517700Y-209422000D01*
X331717000Y-212871300D02*
X331787700Y-212942000D01*
X346276000Y-212779900D02*
X347515600Y-212779900D01*
X347515600Y-212779900D02*
X347547700Y-212812000D01*
X355662000Y-212806300D02*
X355667700Y-212812000D01*
X354403100Y-212806300D02*
X355662000Y-212806300D01*
X381698100Y-210224300D02*
X381955400Y-210224300D01*
X365047700Y-212779900D02*
X363819800Y-212779900D01*
X381955400Y-210224300D02*
X382757700Y-209422000D01*
X363819800Y-212779900D02*
X363787700Y-212812000D01*
X170617900Y-207979900D02*
X171199900Y-207979900D01*
X170210000Y-207572000D02*
X170617900Y-207979900D01*
X144090000Y-208122000D02*
X143924600Y-207956600D01*
X143924600Y-207956600D02*
X143116000Y-207956600D01*
X154050000Y-207602000D02*
X153078000Y-207602000D01*
X412666600Y-210262100D02*
X411869900Y-210262100D01*
X411869900Y-210262100D02*
X411690000Y-210442000D01*
X412677300Y-201970800D02*
X412041200Y-201970800D01*
X412041200Y-201970800D02*
X411690000Y-202322000D01*
X409437100Y-231626800D02*
X409045200Y-231626800D01*
X409045200Y-231626800D02*
X408460000Y-232212000D01*
X223612000Y-214805200D02*
X223828800Y-215022000D01*
X223828800Y-215022000D02*
X224590000Y-215022000D01*
X235417400Y-214524200D02*
X236062200Y-214524200D01*
X236062200Y-214524200D02*
X236720000Y-215182000D01*
X376470100Y-201970800D02*
X375468900Y-201970800D01*
X375468900Y-201970800D02*
X374637700Y-202802000D01*
X381269300Y-202929000D02*
X382630700Y-202929000D01*
X382630700Y-202929000D02*
X382757700Y-202802000D01*
X412719700Y-218770500D02*
X411898500Y-218770500D01*
X411898500Y-218770500D02*
X411690000Y-218562000D01*
X114444700Y-207902000D02*
X114070000Y-207902000D01*
X114070000Y-207902000D02*
X113030000Y-208942000D01*
X406170800Y-208693400D02*
X405218600Y-208693400D01*
X405218600Y-208693400D02*
X404550000Y-209362000D01*
X330463600Y-206171800D02*
X331637500Y-206171800D01*
X331637500Y-206171800D02*
X331787700Y-206322000D01*
X125167700Y-203877900D02*
X126114100Y-203877900D01*
X126114100Y-203877900D02*
X126440000Y-203552000D01*
X95118200Y-204152900D02*
X96079100Y-204152900D01*
X96079100Y-204152900D02*
X96130000Y-204102000D01*
X365087300Y-206106800D02*
X363872900Y-206106800D01*
X363872900Y-206106800D02*
X363787700Y-206192000D01*
X345790900Y-206106800D02*
X347462500Y-206106800D01*
X347462500Y-206106800D02*
X347547700Y-206192000D01*
X420123300Y-305766800D02*
X421414800Y-305766800D01*
X421414800Y-305766800D02*
X421740000Y-306092000D01*
X260592700Y-207039300D02*
X259437300Y-207039300D01*
X259437300Y-207039300D02*
X259360000Y-206962000D01*
X367941800Y-202929000D02*
X366644700Y-202929000D01*
X366644700Y-202929000D02*
X366517700Y-202802000D01*
X419983300Y-293904400D02*
X421097600Y-293904400D01*
X421097600Y-293904400D02*
X421460000Y-293542000D01*
X101097100Y-208834600D02*
X101982600Y-208834600D01*
X101982600Y-208834600D02*
X102130000Y-208982000D01*
X394268000Y-204936400D02*
X394105600Y-204936400D01*
X394105600Y-204936400D02*
X392660000Y-206382000D01*
X354319200Y-206106800D02*
X355582500Y-206106800D01*
X355582500Y-206106800D02*
X355667700Y-206192000D01*
X244155700Y-207150700D02*
X245241300Y-207150700D01*
X245241300Y-207150700D02*
X245260000Y-207132000D01*
X393275300Y-213886700D02*
X392660000Y-214502000D01*
X393627500Y-213886700D02*
X393275300Y-213886700D01*
%TO.N,/COL5*%
X412878500Y-228581600D02*
X438378600Y-228581600D01*
X438378600Y-228581600D02*
X438586800Y-228373400D01*
X370105000Y-228366500D02*
X370721800Y-228983300D01*
%TD*%
M02*
