%TF.GenerationSoftware,KiCad,Pcbnew,9.0.2*%
%TF.CreationDate,2025-06-27T23:50:21-07:00*%
%TF.ProjectId,Proj3,50726f6a-332e-46b6-9963-61645f706362,rev?*%
%TF.SameCoordinates,Original*%
%TF.FileFunction,Legend,Bot*%
%TF.FilePolarity,Positive*%
%FSLAX46Y46*%
G04 Gerber Fmt 4.6, Leading zero omitted, Abs format (unit mm)*
G04 Created by KiCad (PCBNEW 9.0.2) date 2025-06-27 23:50:21*
%MOMM*%
%LPD*%
G01*
G04 APERTURE LIST*
%ADD10C,0.150000*%
%ADD11C,0.120000*%
G04 APERTURE END LIST*
D10*
X346780951Y-285275866D02*
X346019047Y-285275866D01*
X349310951Y-285275866D02*
X348549047Y-285275866D01*
X348929999Y-285656819D02*
X348929999Y-284894914D01*
X118170951Y-286285866D02*
X117409047Y-286285866D01*
X120700951Y-286285866D02*
X119939047Y-286285866D01*
X120319999Y-286666819D02*
X120319999Y-285904914D01*
X362240951Y-266215866D02*
X361479047Y-266215866D01*
X364770951Y-266215866D02*
X364009047Y-266215866D01*
X364389999Y-266596819D02*
X364389999Y-265834914D01*
X384350951Y-229179566D02*
X383589047Y-229179566D01*
X386880951Y-229179566D02*
X386119047Y-229179566D01*
X386499999Y-229560519D02*
X386499999Y-228798614D01*
X112190951Y-247165866D02*
X111429047Y-247165866D01*
X114720951Y-247165866D02*
X113959047Y-247165866D01*
X114339999Y-247546819D02*
X114339999Y-246784914D01*
X326490951Y-304325866D02*
X325729047Y-304325866D01*
X329020951Y-304325866D02*
X328259047Y-304325866D01*
X328639999Y-304706819D02*
X328639999Y-303944914D01*
X345560951Y-247165866D02*
X344799047Y-247165866D01*
X348090951Y-247165866D02*
X347329047Y-247165866D01*
X347709999Y-247546819D02*
X347709999Y-246784914D01*
X290940951Y-247173866D02*
X290179047Y-247173866D01*
X290559999Y-247554819D02*
X290559999Y-246792914D01*
X288410951Y-247173866D02*
X287649047Y-247173866D01*
X302910951Y-285285866D02*
X302149047Y-285285866D01*
X302529999Y-285666819D02*
X302529999Y-284904914D01*
X300380951Y-285285866D02*
X299619047Y-285285866D01*
X274180951Y-266215866D02*
X273419047Y-266215866D01*
X276710951Y-266215866D02*
X275949047Y-266215866D01*
X276329999Y-266596819D02*
X276329999Y-265834914D01*
X178010951Y-304359566D02*
X177249047Y-304359566D01*
X180540951Y-304359566D02*
X179779047Y-304359566D01*
X180159999Y-304740519D02*
X180159999Y-303978614D01*
X104240951Y-304295866D02*
X103479047Y-304295866D01*
X103859999Y-304676819D02*
X103859999Y-303914914D01*
X101710951Y-304295866D02*
X100949047Y-304295866D01*
X205220951Y-228115866D02*
X204459047Y-228115866D01*
X204839999Y-228496819D02*
X204839999Y-227734914D01*
X202690951Y-228115866D02*
X201929047Y-228115866D01*
X142380951Y-304345866D02*
X141619047Y-304345866D01*
X141999999Y-304726819D02*
X141999999Y-303964914D01*
X139850951Y-304345866D02*
X139089047Y-304345866D01*
X176640951Y-247173866D02*
X175879047Y-247173866D01*
X176259999Y-247554819D02*
X176259999Y-246792914D01*
X174110951Y-247173866D02*
X173349047Y-247173866D01*
X393190951Y-266215866D02*
X392429047Y-266215866D01*
X395720951Y-266215866D02*
X394959047Y-266215866D01*
X395339999Y-266596819D02*
X395339999Y-265834914D01*
X374140951Y-285265866D02*
X373379047Y-285265866D01*
X376670951Y-285265866D02*
X375909047Y-285265866D01*
X376289999Y-285646819D02*
X376289999Y-284884914D01*
X123300951Y-304315866D02*
X122539047Y-304315866D01*
X122919999Y-304696819D02*
X122919999Y-303934914D01*
X120770951Y-304315866D02*
X120009047Y-304315866D01*
X355090951Y-304315866D02*
X354329047Y-304315866D01*
X357620951Y-304315866D02*
X356859047Y-304315866D01*
X357239999Y-304696819D02*
X357239999Y-303934914D01*
X395720951Y-304315866D02*
X394959047Y-304315866D01*
X395339999Y-304696819D02*
X395339999Y-303934914D01*
X393190951Y-304315866D02*
X392429047Y-304315866D01*
X283840951Y-285275866D02*
X283079047Y-285275866D01*
X283459999Y-285656819D02*
X283459999Y-284894914D01*
X281310951Y-285275866D02*
X280549047Y-285275866D01*
X300460951Y-228049566D02*
X299699047Y-228049566D01*
X300079999Y-228430519D02*
X300079999Y-227668614D01*
X297930951Y-228049566D02*
X297169047Y-228049566D01*
X150470951Y-285285866D02*
X149709047Y-285285866D01*
X150089999Y-285666819D02*
X150089999Y-284904914D01*
X147940951Y-285285866D02*
X147179047Y-285285866D01*
X314600951Y-308789866D02*
X313839047Y-308789866D01*
X317130951Y-308789866D02*
X316369047Y-308789866D01*
X316749999Y-309170819D02*
X316749999Y-308408914D01*
X331290951Y-266215866D02*
X330529047Y-266215866D01*
X333820951Y-266215866D02*
X333059047Y-266215866D01*
X333439999Y-266596819D02*
X333439999Y-265834914D01*
X355180951Y-228095866D02*
X354419047Y-228095866D01*
X357710951Y-228095866D02*
X356949047Y-228095866D01*
X357329999Y-228476819D02*
X357329999Y-227714914D01*
X374150951Y-304345866D02*
X373389047Y-304345866D01*
X376680951Y-304345866D02*
X375919047Y-304345866D01*
X376299999Y-304726819D02*
X376299999Y-303964914D01*
X188610951Y-285275866D02*
X187849047Y-285275866D01*
X188229999Y-285656819D02*
X188229999Y-284894914D01*
X186080951Y-285275866D02*
X185319047Y-285275866D01*
X138540951Y-247173866D02*
X137779047Y-247173866D01*
X138159999Y-247554819D02*
X138159999Y-246792914D01*
X136010951Y-247173866D02*
X135249047Y-247173866D01*
X250310951Y-247173866D02*
X249549047Y-247173866D01*
X252840951Y-247173866D02*
X252079047Y-247173866D01*
X252459999Y-247554819D02*
X252459999Y-246792914D01*
X279260951Y-307315866D02*
X278499047Y-307315866D01*
X280560951Y-304335866D02*
X279799047Y-304335866D01*
X280179999Y-304716819D02*
X280179999Y-303954914D01*
X245750951Y-285255866D02*
X244989047Y-285255866D01*
X245369999Y-285636819D02*
X245369999Y-284874914D01*
X243220951Y-285255866D02*
X242459047Y-285255866D01*
X369650951Y-247185866D02*
X368889047Y-247185866D01*
X372180951Y-247185866D02*
X371419047Y-247185866D01*
X371799999Y-247566819D02*
X371799999Y-246804914D01*
X243370951Y-228095866D02*
X242609047Y-228095866D01*
X242989999Y-228476819D02*
X242989999Y-227714914D01*
X240840951Y-228095866D02*
X240079047Y-228095866D01*
X159910951Y-266195866D02*
X159149047Y-266195866D01*
X162440951Y-266195866D02*
X161679047Y-266195866D01*
X162059999Y-266576819D02*
X162059999Y-265814914D01*
X293230951Y-266215866D02*
X292469047Y-266215866D01*
X295760951Y-266215866D02*
X294999047Y-266215866D01*
X295379999Y-266596819D02*
X295379999Y-265834914D01*
X393180951Y-285245866D02*
X392419047Y-285245866D01*
X395710951Y-285245866D02*
X394949047Y-285245866D01*
X395329999Y-285626819D02*
X395329999Y-284864914D01*
X161490951Y-304349566D02*
X160729047Y-304349566D01*
X161109999Y-304730519D02*
X161109999Y-303968614D01*
X158960951Y-304349566D02*
X158199047Y-304349566D01*
X214740951Y-247173866D02*
X213979047Y-247173866D01*
X214359999Y-247554819D02*
X214359999Y-246792914D01*
X212210951Y-247173866D02*
X211449047Y-247173866D01*
X197990951Y-266235866D02*
X197229047Y-266235866D01*
X200520951Y-266235866D02*
X199759047Y-266235866D01*
X200139999Y-266616819D02*
X200139999Y-265854914D01*
X193160951Y-247173866D02*
X192399047Y-247173866D01*
X195690951Y-247173866D02*
X194929047Y-247173866D01*
X195309999Y-247554819D02*
X195309999Y-246792914D01*
X124140951Y-267305866D02*
X123379047Y-267305866D01*
X126670951Y-267305866D02*
X125909047Y-267305866D01*
X126289999Y-267686819D02*
X126289999Y-266924914D01*
X319440951Y-228045866D02*
X318679047Y-228045866D01*
X319059999Y-228426819D02*
X319059999Y-227664914D01*
X316910951Y-228045866D02*
X316149047Y-228045866D01*
X129020951Y-228115866D02*
X128259047Y-228115866D01*
X128639999Y-228496819D02*
X128639999Y-227734914D01*
X126490951Y-228115866D02*
X125729047Y-228115866D01*
X197120951Y-207165866D02*
X196359047Y-207165866D01*
X199650951Y-207165866D02*
X198889047Y-207165866D01*
X199269999Y-207546819D02*
X199269999Y-206784914D01*
X236100951Y-266255866D02*
X235339047Y-266255866D01*
X238630951Y-266255866D02*
X237869047Y-266255866D01*
X238249999Y-266636819D02*
X238249999Y-265874914D01*
X264830951Y-285275866D02*
X264069047Y-285275866D01*
X264449999Y-285656819D02*
X264449999Y-284894914D01*
X262300951Y-285275866D02*
X261539047Y-285275866D01*
X281490951Y-228095866D02*
X280729047Y-228095866D01*
X281109999Y-228476819D02*
X281109999Y-227714914D01*
X278960951Y-228095866D02*
X278199047Y-228095866D01*
X181450951Y-266215866D02*
X180689047Y-266215866D01*
X181069999Y-266596819D02*
X181069999Y-265834914D01*
X178920951Y-266215866D02*
X178159047Y-266215866D01*
X326510951Y-247165866D02*
X325749047Y-247165866D01*
X329040951Y-247165866D02*
X328279047Y-247165866D01*
X328659999Y-247546819D02*
X328659999Y-246784914D01*
X183640951Y-228115866D02*
X182879047Y-228115866D01*
X186170951Y-228115866D02*
X185409047Y-228115866D01*
X185789999Y-228496819D02*
X185789999Y-227734914D01*
X233790951Y-247173866D02*
X233029047Y-247173866D01*
X233409999Y-247554819D02*
X233409999Y-246792914D01*
X231260951Y-247173866D02*
X230499047Y-247173866D01*
X226730951Y-285255866D02*
X225969047Y-285255866D01*
X226349999Y-285636819D02*
X226349999Y-284874914D01*
X224200951Y-285255866D02*
X223439047Y-285255866D01*
X155060951Y-247173866D02*
X154299047Y-247173866D01*
X157590951Y-247173866D02*
X156829047Y-247173866D01*
X157209999Y-247554819D02*
X157209999Y-246792914D01*
X164590951Y-228115866D02*
X163829047Y-228115866D01*
X167120951Y-228115866D02*
X166359047Y-228115866D01*
X166739999Y-228496819D02*
X166739999Y-227734914D01*
X230520951Y-304589566D02*
X229759047Y-304589566D01*
X230139999Y-304970519D02*
X230139999Y-304208614D01*
X227990951Y-304589566D02*
X227229047Y-304589566D01*
X321990951Y-285265866D02*
X321229047Y-285265866D01*
X321609999Y-285646819D02*
X321609999Y-284884914D01*
X319460951Y-285265866D02*
X318699047Y-285265866D01*
X257660951Y-266205866D02*
X256899047Y-266205866D01*
X257279999Y-266586819D02*
X257279999Y-265824914D01*
X255130951Y-266205866D02*
X254369047Y-266205866D01*
X145540951Y-228115866D02*
X144779047Y-228115866D01*
X148070951Y-228115866D02*
X147309047Y-228115866D01*
X147689999Y-228496819D02*
X147689999Y-227734914D01*
X221730951Y-228105866D02*
X220969047Y-228105866D01*
X224260951Y-228105866D02*
X223499047Y-228105866D01*
X223879999Y-228486819D02*
X223879999Y-227724914D01*
X307460951Y-247165866D02*
X306699047Y-247165866D01*
X309990951Y-247165866D02*
X309229047Y-247165866D01*
X309609999Y-247546819D02*
X309609999Y-246784914D01*
X269360951Y-247173866D02*
X268599047Y-247173866D01*
X271890951Y-247173866D02*
X271129047Y-247173866D01*
X271509999Y-247554819D02*
X271509999Y-246792914D01*
X109970951Y-228115866D02*
X109209047Y-228115866D01*
X109589999Y-228496819D02*
X109589999Y-227734914D01*
X107440951Y-228115866D02*
X106679047Y-228115866D01*
X219550951Y-266225866D02*
X218789047Y-266225866D01*
X219169999Y-266606819D02*
X219169999Y-265844914D01*
X217020951Y-266225866D02*
X216259047Y-266225866D01*
X169550951Y-285275866D02*
X168789047Y-285275866D01*
X169169999Y-285656819D02*
X169169999Y-284894914D01*
X167020951Y-285275866D02*
X166259047Y-285275866D01*
X259900951Y-228115866D02*
X259139047Y-228115866D01*
X262430951Y-228115866D02*
X261669047Y-228115866D01*
X262049999Y-228496819D02*
X262049999Y-227734914D01*
X338590951Y-228085866D02*
X337829047Y-228085866D01*
X338209999Y-228466819D02*
X338209999Y-227704914D01*
X336060951Y-228085866D02*
X335299047Y-228085866D01*
X312270951Y-266215866D02*
X311509047Y-266215866D01*
X314800951Y-266215866D02*
X314039047Y-266215866D01*
X314419999Y-266596819D02*
X314419999Y-265834914D01*
X395720951Y-247165866D02*
X394959047Y-247165866D01*
X395339999Y-247546819D02*
X395339999Y-246784914D01*
X393190951Y-247165866D02*
X392429047Y-247165866D01*
X136374819Y-291357714D02*
X135374819Y-291357714D01*
X135374819Y-291357714D02*
X135374819Y-291595809D01*
X135374819Y-291595809D02*
X135422438Y-291738666D01*
X135422438Y-291738666D02*
X135517676Y-291833904D01*
X135517676Y-291833904D02*
X135612914Y-291881523D01*
X135612914Y-291881523D02*
X135803390Y-291929142D01*
X135803390Y-291929142D02*
X135946247Y-291929142D01*
X135946247Y-291929142D02*
X136136723Y-291881523D01*
X136136723Y-291881523D02*
X136231961Y-291833904D01*
X136231961Y-291833904D02*
X136327200Y-291738666D01*
X136327200Y-291738666D02*
X136374819Y-291595809D01*
X136374819Y-291595809D02*
X136374819Y-291357714D01*
X136374819Y-292405333D02*
X136374819Y-292595809D01*
X136374819Y-292595809D02*
X136327200Y-292691047D01*
X136327200Y-292691047D02*
X136279580Y-292738666D01*
X136279580Y-292738666D02*
X136136723Y-292833904D01*
X136136723Y-292833904D02*
X135946247Y-292881523D01*
X135946247Y-292881523D02*
X135565295Y-292881523D01*
X135565295Y-292881523D02*
X135470057Y-292833904D01*
X135470057Y-292833904D02*
X135422438Y-292786285D01*
X135422438Y-292786285D02*
X135374819Y-292691047D01*
X135374819Y-292691047D02*
X135374819Y-292500571D01*
X135374819Y-292500571D02*
X135422438Y-292405333D01*
X135422438Y-292405333D02*
X135470057Y-292357714D01*
X135470057Y-292357714D02*
X135565295Y-292310095D01*
X135565295Y-292310095D02*
X135803390Y-292310095D01*
X135803390Y-292310095D02*
X135898628Y-292357714D01*
X135898628Y-292357714D02*
X135946247Y-292405333D01*
X135946247Y-292405333D02*
X135993866Y-292500571D01*
X135993866Y-292500571D02*
X135993866Y-292691047D01*
X135993866Y-292691047D02*
X135946247Y-292786285D01*
X135946247Y-292786285D02*
X135898628Y-292833904D01*
X135898628Y-292833904D02*
X135803390Y-292881523D01*
X136374819Y-293357714D02*
X136374819Y-293548190D01*
X136374819Y-293548190D02*
X136327200Y-293643428D01*
X136327200Y-293643428D02*
X136279580Y-293691047D01*
X136279580Y-293691047D02*
X136136723Y-293786285D01*
X136136723Y-293786285D02*
X135946247Y-293833904D01*
X135946247Y-293833904D02*
X135565295Y-293833904D01*
X135565295Y-293833904D02*
X135470057Y-293786285D01*
X135470057Y-293786285D02*
X135422438Y-293738666D01*
X135422438Y-293738666D02*
X135374819Y-293643428D01*
X135374819Y-293643428D02*
X135374819Y-293452952D01*
X135374819Y-293452952D02*
X135422438Y-293357714D01*
X135422438Y-293357714D02*
X135470057Y-293310095D01*
X135470057Y-293310095D02*
X135565295Y-293262476D01*
X135565295Y-293262476D02*
X135803390Y-293262476D01*
X135803390Y-293262476D02*
X135898628Y-293310095D01*
X135898628Y-293310095D02*
X135946247Y-293357714D01*
X135946247Y-293357714D02*
X135993866Y-293452952D01*
X135993866Y-293452952D02*
X135993866Y-293643428D01*
X135993866Y-293643428D02*
X135946247Y-293738666D01*
X135946247Y-293738666D02*
X135898628Y-293786285D01*
X135898628Y-293786285D02*
X135803390Y-293833904D01*
X136694819Y-288500095D02*
X135694819Y-288500095D01*
X136694819Y-289071523D02*
X136123390Y-288642952D01*
X135694819Y-289071523D02*
X136266247Y-288500095D01*
X364394819Y-231341524D02*
X363394819Y-231341524D01*
X363394819Y-231341524D02*
X363394819Y-231579619D01*
X363394819Y-231579619D02*
X363442438Y-231722476D01*
X363442438Y-231722476D02*
X363537676Y-231817714D01*
X363537676Y-231817714D02*
X363632914Y-231865333D01*
X363632914Y-231865333D02*
X363823390Y-231912952D01*
X363823390Y-231912952D02*
X363966247Y-231912952D01*
X363966247Y-231912952D02*
X364156723Y-231865333D01*
X364156723Y-231865333D02*
X364251961Y-231817714D01*
X364251961Y-231817714D02*
X364347200Y-231722476D01*
X364347200Y-231722476D02*
X364394819Y-231579619D01*
X364394819Y-231579619D02*
X364394819Y-231341524D01*
X364394819Y-232865333D02*
X364394819Y-232293905D01*
X364394819Y-232579619D02*
X363394819Y-232579619D01*
X363394819Y-232579619D02*
X363537676Y-232484381D01*
X363537676Y-232484381D02*
X363632914Y-232389143D01*
X363632914Y-232389143D02*
X363680533Y-232293905D01*
X364394819Y-233817714D02*
X364394819Y-233246286D01*
X364394819Y-233532000D02*
X363394819Y-233532000D01*
X363394819Y-233532000D02*
X363537676Y-233436762D01*
X363537676Y-233436762D02*
X363632914Y-233341524D01*
X363632914Y-233341524D02*
X363680533Y-233246286D01*
X363728152Y-234674857D02*
X364394819Y-234674857D01*
X363347200Y-234436762D02*
X364061485Y-234198667D01*
X364061485Y-234198667D02*
X364061485Y-234817714D01*
X364714819Y-228960095D02*
X363714819Y-228960095D01*
X364714819Y-229531523D02*
X364143390Y-229102952D01*
X363714819Y-229531523D02*
X364286247Y-228960095D01*
X320864819Y-270337714D02*
X319864819Y-270337714D01*
X319864819Y-270337714D02*
X319864819Y-270575809D01*
X319864819Y-270575809D02*
X319912438Y-270718666D01*
X319912438Y-270718666D02*
X320007676Y-270813904D01*
X320007676Y-270813904D02*
X320102914Y-270861523D01*
X320102914Y-270861523D02*
X320293390Y-270909142D01*
X320293390Y-270909142D02*
X320436247Y-270909142D01*
X320436247Y-270909142D02*
X320626723Y-270861523D01*
X320626723Y-270861523D02*
X320721961Y-270813904D01*
X320721961Y-270813904D02*
X320817200Y-270718666D01*
X320817200Y-270718666D02*
X320864819Y-270575809D01*
X320864819Y-270575809D02*
X320864819Y-270337714D01*
X319864819Y-271242476D02*
X319864819Y-271909142D01*
X319864819Y-271909142D02*
X320864819Y-271480571D01*
X320864819Y-272337714D02*
X320864819Y-272528190D01*
X320864819Y-272528190D02*
X320817200Y-272623428D01*
X320817200Y-272623428D02*
X320769580Y-272671047D01*
X320769580Y-272671047D02*
X320626723Y-272766285D01*
X320626723Y-272766285D02*
X320436247Y-272813904D01*
X320436247Y-272813904D02*
X320055295Y-272813904D01*
X320055295Y-272813904D02*
X319960057Y-272766285D01*
X319960057Y-272766285D02*
X319912438Y-272718666D01*
X319912438Y-272718666D02*
X319864819Y-272623428D01*
X319864819Y-272623428D02*
X319864819Y-272432952D01*
X319864819Y-272432952D02*
X319912438Y-272337714D01*
X319912438Y-272337714D02*
X319960057Y-272290095D01*
X319960057Y-272290095D02*
X320055295Y-272242476D01*
X320055295Y-272242476D02*
X320293390Y-272242476D01*
X320293390Y-272242476D02*
X320388628Y-272290095D01*
X320388628Y-272290095D02*
X320436247Y-272337714D01*
X320436247Y-272337714D02*
X320483866Y-272432952D01*
X320483866Y-272432952D02*
X320483866Y-272623428D01*
X320483866Y-272623428D02*
X320436247Y-272718666D01*
X320436247Y-272718666D02*
X320388628Y-272766285D01*
X320388628Y-272766285D02*
X320293390Y-272813904D01*
X321184819Y-267480095D02*
X320184819Y-267480095D01*
X321184819Y-268051523D02*
X320613390Y-267622952D01*
X320184819Y-268051523D02*
X320756247Y-267480095D01*
X287574819Y-231851524D02*
X286574819Y-231851524D01*
X286574819Y-231851524D02*
X286574819Y-232089619D01*
X286574819Y-232089619D02*
X286622438Y-232232476D01*
X286622438Y-232232476D02*
X286717676Y-232327714D01*
X286717676Y-232327714D02*
X286812914Y-232375333D01*
X286812914Y-232375333D02*
X287003390Y-232422952D01*
X287003390Y-232422952D02*
X287146247Y-232422952D01*
X287146247Y-232422952D02*
X287336723Y-232375333D01*
X287336723Y-232375333D02*
X287431961Y-232327714D01*
X287431961Y-232327714D02*
X287527200Y-232232476D01*
X287527200Y-232232476D02*
X287574819Y-232089619D01*
X287574819Y-232089619D02*
X287574819Y-231851524D01*
X287574819Y-233375333D02*
X287574819Y-232803905D01*
X287574819Y-233089619D02*
X286574819Y-233089619D01*
X286574819Y-233089619D02*
X286717676Y-232994381D01*
X286717676Y-232994381D02*
X286812914Y-232899143D01*
X286812914Y-232899143D02*
X286860533Y-232803905D01*
X287574819Y-234327714D02*
X287574819Y-233756286D01*
X287574819Y-234042000D02*
X286574819Y-234042000D01*
X286574819Y-234042000D02*
X286717676Y-233946762D01*
X286717676Y-233946762D02*
X286812914Y-233851524D01*
X286812914Y-233851524D02*
X286860533Y-233756286D01*
X286670057Y-234708667D02*
X286622438Y-234756286D01*
X286622438Y-234756286D02*
X286574819Y-234851524D01*
X286574819Y-234851524D02*
X286574819Y-235089619D01*
X286574819Y-235089619D02*
X286622438Y-235184857D01*
X286622438Y-235184857D02*
X286670057Y-235232476D01*
X286670057Y-235232476D02*
X286765295Y-235280095D01*
X286765295Y-235280095D02*
X286860533Y-235280095D01*
X286860533Y-235280095D02*
X287003390Y-235232476D01*
X287003390Y-235232476D02*
X287574819Y-234661048D01*
X287574819Y-234661048D02*
X287574819Y-235280095D01*
X287894819Y-229470095D02*
X286894819Y-229470095D01*
X287894819Y-230041523D02*
X287323390Y-229612952D01*
X286894819Y-230041523D02*
X287466247Y-229470095D01*
X129424819Y-308837714D02*
X128424819Y-308837714D01*
X128424819Y-308837714D02*
X128424819Y-309075809D01*
X128424819Y-309075809D02*
X128472438Y-309218666D01*
X128472438Y-309218666D02*
X128567676Y-309313904D01*
X128567676Y-309313904D02*
X128662914Y-309361523D01*
X128662914Y-309361523D02*
X128853390Y-309409142D01*
X128853390Y-309409142D02*
X128996247Y-309409142D01*
X128996247Y-309409142D02*
X129186723Y-309361523D01*
X129186723Y-309361523D02*
X129281961Y-309313904D01*
X129281961Y-309313904D02*
X129377200Y-309218666D01*
X129377200Y-309218666D02*
X129424819Y-309075809D01*
X129424819Y-309075809D02*
X129424819Y-308837714D01*
X128424819Y-309742476D02*
X128424819Y-310409142D01*
X128424819Y-310409142D02*
X129424819Y-309980571D01*
X129424819Y-311313904D02*
X129424819Y-310742476D01*
X129424819Y-311028190D02*
X128424819Y-311028190D01*
X128424819Y-311028190D02*
X128567676Y-310932952D01*
X128567676Y-310932952D02*
X128662914Y-310837714D01*
X128662914Y-310837714D02*
X128710533Y-310742476D01*
X129744819Y-305980095D02*
X128744819Y-305980095D01*
X129744819Y-306551523D02*
X129173390Y-306122952D01*
X128744819Y-306551523D02*
X129316247Y-305980095D01*
X357444819Y-288661524D02*
X356444819Y-288661524D01*
X356444819Y-288661524D02*
X356444819Y-288899619D01*
X356444819Y-288899619D02*
X356492438Y-289042476D01*
X356492438Y-289042476D02*
X356587676Y-289137714D01*
X356587676Y-289137714D02*
X356682914Y-289185333D01*
X356682914Y-289185333D02*
X356873390Y-289232952D01*
X356873390Y-289232952D02*
X357016247Y-289232952D01*
X357016247Y-289232952D02*
X357206723Y-289185333D01*
X357206723Y-289185333D02*
X357301961Y-289137714D01*
X357301961Y-289137714D02*
X357397200Y-289042476D01*
X357397200Y-289042476D02*
X357444819Y-288899619D01*
X357444819Y-288899619D02*
X357444819Y-288661524D01*
X357444819Y-290185333D02*
X357444819Y-289613905D01*
X357444819Y-289899619D02*
X356444819Y-289899619D01*
X356444819Y-289899619D02*
X356587676Y-289804381D01*
X356587676Y-289804381D02*
X356682914Y-289709143D01*
X356682914Y-289709143D02*
X356730533Y-289613905D01*
X356444819Y-290804381D02*
X356444819Y-290899619D01*
X356444819Y-290899619D02*
X356492438Y-290994857D01*
X356492438Y-290994857D02*
X356540057Y-291042476D01*
X356540057Y-291042476D02*
X356635295Y-291090095D01*
X356635295Y-291090095D02*
X356825771Y-291137714D01*
X356825771Y-291137714D02*
X357063866Y-291137714D01*
X357063866Y-291137714D02*
X357254342Y-291090095D01*
X357254342Y-291090095D02*
X357349580Y-291042476D01*
X357349580Y-291042476D02*
X357397200Y-290994857D01*
X357397200Y-290994857D02*
X357444819Y-290899619D01*
X357444819Y-290899619D02*
X357444819Y-290804381D01*
X357444819Y-290804381D02*
X357397200Y-290709143D01*
X357397200Y-290709143D02*
X357349580Y-290661524D01*
X357349580Y-290661524D02*
X357254342Y-290613905D01*
X357254342Y-290613905D02*
X357063866Y-290566286D01*
X357063866Y-290566286D02*
X356825771Y-290566286D01*
X356825771Y-290566286D02*
X356635295Y-290613905D01*
X356635295Y-290613905D02*
X356540057Y-290661524D01*
X356540057Y-290661524D02*
X356492438Y-290709143D01*
X356492438Y-290709143D02*
X356444819Y-290804381D01*
X356444819Y-292042476D02*
X356444819Y-291566286D01*
X356444819Y-291566286D02*
X356921009Y-291518667D01*
X356921009Y-291518667D02*
X356873390Y-291566286D01*
X356873390Y-291566286D02*
X356825771Y-291661524D01*
X356825771Y-291661524D02*
X356825771Y-291899619D01*
X356825771Y-291899619D02*
X356873390Y-291994857D01*
X356873390Y-291994857D02*
X356921009Y-292042476D01*
X356921009Y-292042476D02*
X357016247Y-292090095D01*
X357016247Y-292090095D02*
X357254342Y-292090095D01*
X357254342Y-292090095D02*
X357349580Y-292042476D01*
X357349580Y-292042476D02*
X357397200Y-291994857D01*
X357397200Y-291994857D02*
X357444819Y-291899619D01*
X357444819Y-291899619D02*
X357444819Y-291661524D01*
X357444819Y-291661524D02*
X357397200Y-291566286D01*
X357397200Y-291566286D02*
X357349580Y-291518667D01*
X357764819Y-286280095D02*
X356764819Y-286280095D01*
X357764819Y-286851523D02*
X357193390Y-286422952D01*
X356764819Y-286851523D02*
X357336247Y-286280095D01*
X309264819Y-308843905D02*
X308264819Y-308843905D01*
X308264819Y-308843905D02*
X308264819Y-309082000D01*
X308264819Y-309082000D02*
X308312438Y-309224857D01*
X308312438Y-309224857D02*
X308407676Y-309320095D01*
X308407676Y-309320095D02*
X308502914Y-309367714D01*
X308502914Y-309367714D02*
X308693390Y-309415333D01*
X308693390Y-309415333D02*
X308836247Y-309415333D01*
X308836247Y-309415333D02*
X309026723Y-309367714D01*
X309026723Y-309367714D02*
X309121961Y-309320095D01*
X309121961Y-309320095D02*
X309217200Y-309224857D01*
X309217200Y-309224857D02*
X309264819Y-309082000D01*
X309264819Y-309082000D02*
X309264819Y-308843905D01*
X308264819Y-309748667D02*
X308264819Y-310415333D01*
X308264819Y-310415333D02*
X309264819Y-309986762D01*
X309584819Y-305510095D02*
X308584819Y-305510095D01*
X309584819Y-306081523D02*
X309013390Y-305652952D01*
X308584819Y-306081523D02*
X309156247Y-305510095D01*
X121114819Y-251587714D02*
X120114819Y-251587714D01*
X120114819Y-251587714D02*
X120114819Y-251825809D01*
X120114819Y-251825809D02*
X120162438Y-251968666D01*
X120162438Y-251968666D02*
X120257676Y-252063904D01*
X120257676Y-252063904D02*
X120352914Y-252111523D01*
X120352914Y-252111523D02*
X120543390Y-252159142D01*
X120543390Y-252159142D02*
X120686247Y-252159142D01*
X120686247Y-252159142D02*
X120876723Y-252111523D01*
X120876723Y-252111523D02*
X120971961Y-252063904D01*
X120971961Y-252063904D02*
X121067200Y-251968666D01*
X121067200Y-251968666D02*
X121114819Y-251825809D01*
X121114819Y-251825809D02*
X121114819Y-251587714D01*
X120210057Y-252540095D02*
X120162438Y-252587714D01*
X120162438Y-252587714D02*
X120114819Y-252682952D01*
X120114819Y-252682952D02*
X120114819Y-252921047D01*
X120114819Y-252921047D02*
X120162438Y-253016285D01*
X120162438Y-253016285D02*
X120210057Y-253063904D01*
X120210057Y-253063904D02*
X120305295Y-253111523D01*
X120305295Y-253111523D02*
X120400533Y-253111523D01*
X120400533Y-253111523D02*
X120543390Y-253063904D01*
X120543390Y-253063904D02*
X121114819Y-252492476D01*
X121114819Y-252492476D02*
X121114819Y-253111523D01*
X120114819Y-253444857D02*
X120114819Y-254111523D01*
X120114819Y-254111523D02*
X121114819Y-253682952D01*
X121434819Y-248730095D02*
X120434819Y-248730095D01*
X121434819Y-249301523D02*
X120863390Y-248872952D01*
X120434819Y-249301523D02*
X121006247Y-248730095D01*
X329774819Y-232201524D02*
X328774819Y-232201524D01*
X328774819Y-232201524D02*
X328774819Y-232439619D01*
X328774819Y-232439619D02*
X328822438Y-232582476D01*
X328822438Y-232582476D02*
X328917676Y-232677714D01*
X328917676Y-232677714D02*
X329012914Y-232725333D01*
X329012914Y-232725333D02*
X329203390Y-232772952D01*
X329203390Y-232772952D02*
X329346247Y-232772952D01*
X329346247Y-232772952D02*
X329536723Y-232725333D01*
X329536723Y-232725333D02*
X329631961Y-232677714D01*
X329631961Y-232677714D02*
X329727200Y-232582476D01*
X329727200Y-232582476D02*
X329774819Y-232439619D01*
X329774819Y-232439619D02*
X329774819Y-232201524D01*
X329774819Y-233725333D02*
X329774819Y-233153905D01*
X329774819Y-233439619D02*
X328774819Y-233439619D01*
X328774819Y-233439619D02*
X328917676Y-233344381D01*
X328917676Y-233344381D02*
X329012914Y-233249143D01*
X329012914Y-233249143D02*
X329060533Y-233153905D01*
X328774819Y-234344381D02*
X328774819Y-234439619D01*
X328774819Y-234439619D02*
X328822438Y-234534857D01*
X328822438Y-234534857D02*
X328870057Y-234582476D01*
X328870057Y-234582476D02*
X328965295Y-234630095D01*
X328965295Y-234630095D02*
X329155771Y-234677714D01*
X329155771Y-234677714D02*
X329393866Y-234677714D01*
X329393866Y-234677714D02*
X329584342Y-234630095D01*
X329584342Y-234630095D02*
X329679580Y-234582476D01*
X329679580Y-234582476D02*
X329727200Y-234534857D01*
X329727200Y-234534857D02*
X329774819Y-234439619D01*
X329774819Y-234439619D02*
X329774819Y-234344381D01*
X329774819Y-234344381D02*
X329727200Y-234249143D01*
X329727200Y-234249143D02*
X329679580Y-234201524D01*
X329679580Y-234201524D02*
X329584342Y-234153905D01*
X329584342Y-234153905D02*
X329393866Y-234106286D01*
X329393866Y-234106286D02*
X329155771Y-234106286D01*
X329155771Y-234106286D02*
X328965295Y-234153905D01*
X328965295Y-234153905D02*
X328870057Y-234201524D01*
X328870057Y-234201524D02*
X328822438Y-234249143D01*
X328822438Y-234249143D02*
X328774819Y-234344381D01*
X328774819Y-235011048D02*
X328774819Y-235630095D01*
X328774819Y-235630095D02*
X329155771Y-235296762D01*
X329155771Y-235296762D02*
X329155771Y-235439619D01*
X329155771Y-235439619D02*
X329203390Y-235534857D01*
X329203390Y-235534857D02*
X329251009Y-235582476D01*
X329251009Y-235582476D02*
X329346247Y-235630095D01*
X329346247Y-235630095D02*
X329584342Y-235630095D01*
X329584342Y-235630095D02*
X329679580Y-235582476D01*
X329679580Y-235582476D02*
X329727200Y-235534857D01*
X329727200Y-235534857D02*
X329774819Y-235439619D01*
X329774819Y-235439619D02*
X329774819Y-235153905D01*
X329774819Y-235153905D02*
X329727200Y-235058667D01*
X329727200Y-235058667D02*
X329679580Y-235011048D01*
X329454819Y-237440095D02*
X328454819Y-237440095D01*
X329454819Y-238011523D02*
X328883390Y-237582952D01*
X328454819Y-238011523D02*
X329026247Y-237440095D01*
X182894819Y-251147714D02*
X181894819Y-251147714D01*
X181894819Y-251147714D02*
X181894819Y-251385809D01*
X181894819Y-251385809D02*
X181942438Y-251528666D01*
X181942438Y-251528666D02*
X182037676Y-251623904D01*
X182037676Y-251623904D02*
X182132914Y-251671523D01*
X182132914Y-251671523D02*
X182323390Y-251719142D01*
X182323390Y-251719142D02*
X182466247Y-251719142D01*
X182466247Y-251719142D02*
X182656723Y-251671523D01*
X182656723Y-251671523D02*
X182751961Y-251623904D01*
X182751961Y-251623904D02*
X182847200Y-251528666D01*
X182847200Y-251528666D02*
X182894819Y-251385809D01*
X182894819Y-251385809D02*
X182894819Y-251147714D01*
X182894819Y-252195333D02*
X182894819Y-252385809D01*
X182894819Y-252385809D02*
X182847200Y-252481047D01*
X182847200Y-252481047D02*
X182799580Y-252528666D01*
X182799580Y-252528666D02*
X182656723Y-252623904D01*
X182656723Y-252623904D02*
X182466247Y-252671523D01*
X182466247Y-252671523D02*
X182085295Y-252671523D01*
X182085295Y-252671523D02*
X181990057Y-252623904D01*
X181990057Y-252623904D02*
X181942438Y-252576285D01*
X181942438Y-252576285D02*
X181894819Y-252481047D01*
X181894819Y-252481047D02*
X181894819Y-252290571D01*
X181894819Y-252290571D02*
X181942438Y-252195333D01*
X181942438Y-252195333D02*
X181990057Y-252147714D01*
X181990057Y-252147714D02*
X182085295Y-252100095D01*
X182085295Y-252100095D02*
X182323390Y-252100095D01*
X182323390Y-252100095D02*
X182418628Y-252147714D01*
X182418628Y-252147714D02*
X182466247Y-252195333D01*
X182466247Y-252195333D02*
X182513866Y-252290571D01*
X182513866Y-252290571D02*
X182513866Y-252481047D01*
X182513866Y-252481047D02*
X182466247Y-252576285D01*
X182466247Y-252576285D02*
X182418628Y-252623904D01*
X182418628Y-252623904D02*
X182323390Y-252671523D01*
X181894819Y-253290571D02*
X181894819Y-253385809D01*
X181894819Y-253385809D02*
X181942438Y-253481047D01*
X181942438Y-253481047D02*
X181990057Y-253528666D01*
X181990057Y-253528666D02*
X182085295Y-253576285D01*
X182085295Y-253576285D02*
X182275771Y-253623904D01*
X182275771Y-253623904D02*
X182513866Y-253623904D01*
X182513866Y-253623904D02*
X182704342Y-253576285D01*
X182704342Y-253576285D02*
X182799580Y-253528666D01*
X182799580Y-253528666D02*
X182847200Y-253481047D01*
X182847200Y-253481047D02*
X182894819Y-253385809D01*
X182894819Y-253385809D02*
X182894819Y-253290571D01*
X182894819Y-253290571D02*
X182847200Y-253195333D01*
X182847200Y-253195333D02*
X182799580Y-253147714D01*
X182799580Y-253147714D02*
X182704342Y-253100095D01*
X182704342Y-253100095D02*
X182513866Y-253052476D01*
X182513866Y-253052476D02*
X182275771Y-253052476D01*
X182275771Y-253052476D02*
X182085295Y-253100095D01*
X182085295Y-253100095D02*
X181990057Y-253147714D01*
X181990057Y-253147714D02*
X181942438Y-253195333D01*
X181942438Y-253195333D02*
X181894819Y-253290571D01*
X183214819Y-248290095D02*
X182214819Y-248290095D01*
X183214819Y-248861523D02*
X182643390Y-248432952D01*
X182214819Y-248861523D02*
X182786247Y-248290095D01*
X237114819Y-288767714D02*
X236114819Y-288767714D01*
X236114819Y-288767714D02*
X236114819Y-289005809D01*
X236114819Y-289005809D02*
X236162438Y-289148666D01*
X236162438Y-289148666D02*
X236257676Y-289243904D01*
X236257676Y-289243904D02*
X236352914Y-289291523D01*
X236352914Y-289291523D02*
X236543390Y-289339142D01*
X236543390Y-289339142D02*
X236686247Y-289339142D01*
X236686247Y-289339142D02*
X236876723Y-289291523D01*
X236876723Y-289291523D02*
X236971961Y-289243904D01*
X236971961Y-289243904D02*
X237067200Y-289148666D01*
X237067200Y-289148666D02*
X237114819Y-289005809D01*
X237114819Y-289005809D02*
X237114819Y-288767714D01*
X237114819Y-290291523D02*
X237114819Y-289720095D01*
X237114819Y-290005809D02*
X236114819Y-290005809D01*
X236114819Y-290005809D02*
X236257676Y-289910571D01*
X236257676Y-289910571D02*
X236352914Y-289815333D01*
X236352914Y-289815333D02*
X236400533Y-289720095D01*
X236114819Y-290624857D02*
X236114819Y-291291523D01*
X236114819Y-291291523D02*
X237114819Y-290862952D01*
X236794819Y-293530095D02*
X235794819Y-293530095D01*
X236794819Y-294101523D02*
X236223390Y-293672952D01*
X235794819Y-294101523D02*
X236366247Y-293530095D01*
X110534819Y-308747714D02*
X109534819Y-308747714D01*
X109534819Y-308747714D02*
X109534819Y-308985809D01*
X109534819Y-308985809D02*
X109582438Y-309128666D01*
X109582438Y-309128666D02*
X109677676Y-309223904D01*
X109677676Y-309223904D02*
X109772914Y-309271523D01*
X109772914Y-309271523D02*
X109963390Y-309319142D01*
X109963390Y-309319142D02*
X110106247Y-309319142D01*
X110106247Y-309319142D02*
X110296723Y-309271523D01*
X110296723Y-309271523D02*
X110391961Y-309223904D01*
X110391961Y-309223904D02*
X110487200Y-309128666D01*
X110487200Y-309128666D02*
X110534819Y-308985809D01*
X110534819Y-308985809D02*
X110534819Y-308747714D01*
X109534819Y-310223904D02*
X109534819Y-309747714D01*
X109534819Y-309747714D02*
X110011009Y-309700095D01*
X110011009Y-309700095D02*
X109963390Y-309747714D01*
X109963390Y-309747714D02*
X109915771Y-309842952D01*
X109915771Y-309842952D02*
X109915771Y-310081047D01*
X109915771Y-310081047D02*
X109963390Y-310176285D01*
X109963390Y-310176285D02*
X110011009Y-310223904D01*
X110011009Y-310223904D02*
X110106247Y-310271523D01*
X110106247Y-310271523D02*
X110344342Y-310271523D01*
X110344342Y-310271523D02*
X110439580Y-310223904D01*
X110439580Y-310223904D02*
X110487200Y-310176285D01*
X110487200Y-310176285D02*
X110534819Y-310081047D01*
X110534819Y-310081047D02*
X110534819Y-309842952D01*
X110534819Y-309842952D02*
X110487200Y-309747714D01*
X110487200Y-309747714D02*
X110439580Y-309700095D01*
X110534819Y-311223904D02*
X110534819Y-310652476D01*
X110534819Y-310938190D02*
X109534819Y-310938190D01*
X109534819Y-310938190D02*
X109677676Y-310842952D01*
X109677676Y-310842952D02*
X109772914Y-310747714D01*
X109772914Y-310747714D02*
X109820533Y-310652476D01*
X110854819Y-305890095D02*
X109854819Y-305890095D01*
X110854819Y-306461523D02*
X110283390Y-306032952D01*
X109854819Y-306461523D02*
X110426247Y-305890095D01*
X218284819Y-213061524D02*
X217284819Y-213061524D01*
X217284819Y-213061524D02*
X217284819Y-213299619D01*
X217284819Y-213299619D02*
X217332438Y-213442476D01*
X217332438Y-213442476D02*
X217427676Y-213537714D01*
X217427676Y-213537714D02*
X217522914Y-213585333D01*
X217522914Y-213585333D02*
X217713390Y-213632952D01*
X217713390Y-213632952D02*
X217856247Y-213632952D01*
X217856247Y-213632952D02*
X218046723Y-213585333D01*
X218046723Y-213585333D02*
X218141961Y-213537714D01*
X218141961Y-213537714D02*
X218237200Y-213442476D01*
X218237200Y-213442476D02*
X218284819Y-213299619D01*
X218284819Y-213299619D02*
X218284819Y-213061524D01*
X218284819Y-214585333D02*
X218284819Y-214013905D01*
X218284819Y-214299619D02*
X217284819Y-214299619D01*
X217284819Y-214299619D02*
X217427676Y-214204381D01*
X217427676Y-214204381D02*
X217522914Y-214109143D01*
X217522914Y-214109143D02*
X217570533Y-214013905D01*
X218284819Y-215537714D02*
X218284819Y-214966286D01*
X218284819Y-215252000D02*
X217284819Y-215252000D01*
X217284819Y-215252000D02*
X217427676Y-215156762D01*
X217427676Y-215156762D02*
X217522914Y-215061524D01*
X217522914Y-215061524D02*
X217570533Y-214966286D01*
X217284819Y-215871048D02*
X217284819Y-216490095D01*
X217284819Y-216490095D02*
X217665771Y-216156762D01*
X217665771Y-216156762D02*
X217665771Y-216299619D01*
X217665771Y-216299619D02*
X217713390Y-216394857D01*
X217713390Y-216394857D02*
X217761009Y-216442476D01*
X217761009Y-216442476D02*
X217856247Y-216490095D01*
X217856247Y-216490095D02*
X218094342Y-216490095D01*
X218094342Y-216490095D02*
X218189580Y-216442476D01*
X218189580Y-216442476D02*
X218237200Y-216394857D01*
X218237200Y-216394857D02*
X218284819Y-216299619D01*
X218284819Y-216299619D02*
X218284819Y-216013905D01*
X218284819Y-216013905D02*
X218237200Y-215918667D01*
X218237200Y-215918667D02*
X218189580Y-215871048D01*
X217964819Y-218300095D02*
X216964819Y-218300095D01*
X217964819Y-218871523D02*
X217393390Y-218442952D01*
X216964819Y-218871523D02*
X217536247Y-218300095D01*
X187724819Y-270857714D02*
X186724819Y-270857714D01*
X186724819Y-270857714D02*
X186724819Y-271095809D01*
X186724819Y-271095809D02*
X186772438Y-271238666D01*
X186772438Y-271238666D02*
X186867676Y-271333904D01*
X186867676Y-271333904D02*
X186962914Y-271381523D01*
X186962914Y-271381523D02*
X187153390Y-271429142D01*
X187153390Y-271429142D02*
X187296247Y-271429142D01*
X187296247Y-271429142D02*
X187486723Y-271381523D01*
X187486723Y-271381523D02*
X187581961Y-271333904D01*
X187581961Y-271333904D02*
X187677200Y-271238666D01*
X187677200Y-271238666D02*
X187724819Y-271095809D01*
X187724819Y-271095809D02*
X187724819Y-270857714D01*
X187058152Y-272286285D02*
X187724819Y-272286285D01*
X186677200Y-272048190D02*
X187391485Y-271810095D01*
X187391485Y-271810095D02*
X187391485Y-272429142D01*
X187153390Y-272952952D02*
X187105771Y-272857714D01*
X187105771Y-272857714D02*
X187058152Y-272810095D01*
X187058152Y-272810095D02*
X186962914Y-272762476D01*
X186962914Y-272762476D02*
X186915295Y-272762476D01*
X186915295Y-272762476D02*
X186820057Y-272810095D01*
X186820057Y-272810095D02*
X186772438Y-272857714D01*
X186772438Y-272857714D02*
X186724819Y-272952952D01*
X186724819Y-272952952D02*
X186724819Y-273143428D01*
X186724819Y-273143428D02*
X186772438Y-273238666D01*
X186772438Y-273238666D02*
X186820057Y-273286285D01*
X186820057Y-273286285D02*
X186915295Y-273333904D01*
X186915295Y-273333904D02*
X186962914Y-273333904D01*
X186962914Y-273333904D02*
X187058152Y-273286285D01*
X187058152Y-273286285D02*
X187105771Y-273238666D01*
X187105771Y-273238666D02*
X187153390Y-273143428D01*
X187153390Y-273143428D02*
X187153390Y-272952952D01*
X187153390Y-272952952D02*
X187201009Y-272857714D01*
X187201009Y-272857714D02*
X187248628Y-272810095D01*
X187248628Y-272810095D02*
X187343866Y-272762476D01*
X187343866Y-272762476D02*
X187534342Y-272762476D01*
X187534342Y-272762476D02*
X187629580Y-272810095D01*
X187629580Y-272810095D02*
X187677200Y-272857714D01*
X187677200Y-272857714D02*
X187724819Y-272952952D01*
X187724819Y-272952952D02*
X187724819Y-273143428D01*
X187724819Y-273143428D02*
X187677200Y-273238666D01*
X187677200Y-273238666D02*
X187629580Y-273286285D01*
X187629580Y-273286285D02*
X187534342Y-273333904D01*
X187534342Y-273333904D02*
X187343866Y-273333904D01*
X187343866Y-273333904D02*
X187248628Y-273286285D01*
X187248628Y-273286285D02*
X187201009Y-273238666D01*
X187201009Y-273238666D02*
X187153390Y-273143428D01*
X188044819Y-268000095D02*
X187044819Y-268000095D01*
X188044819Y-268571523D02*
X187473390Y-268142952D01*
X187044819Y-268571523D02*
X187616247Y-268000095D01*
X379114819Y-271317714D02*
X378114819Y-271317714D01*
X378114819Y-271317714D02*
X378114819Y-271555809D01*
X378114819Y-271555809D02*
X378162438Y-271698666D01*
X378162438Y-271698666D02*
X378257676Y-271793904D01*
X378257676Y-271793904D02*
X378352914Y-271841523D01*
X378352914Y-271841523D02*
X378543390Y-271889142D01*
X378543390Y-271889142D02*
X378686247Y-271889142D01*
X378686247Y-271889142D02*
X378876723Y-271841523D01*
X378876723Y-271841523D02*
X378971961Y-271793904D01*
X378971961Y-271793904D02*
X379067200Y-271698666D01*
X379067200Y-271698666D02*
X379114819Y-271555809D01*
X379114819Y-271555809D02*
X379114819Y-271317714D01*
X378114819Y-272222476D02*
X378114819Y-272841523D01*
X378114819Y-272841523D02*
X378495771Y-272508190D01*
X378495771Y-272508190D02*
X378495771Y-272651047D01*
X378495771Y-272651047D02*
X378543390Y-272746285D01*
X378543390Y-272746285D02*
X378591009Y-272793904D01*
X378591009Y-272793904D02*
X378686247Y-272841523D01*
X378686247Y-272841523D02*
X378924342Y-272841523D01*
X378924342Y-272841523D02*
X379019580Y-272793904D01*
X379019580Y-272793904D02*
X379067200Y-272746285D01*
X379067200Y-272746285D02*
X379114819Y-272651047D01*
X379114819Y-272651047D02*
X379114819Y-272365333D01*
X379114819Y-272365333D02*
X379067200Y-272270095D01*
X379067200Y-272270095D02*
X379019580Y-272222476D01*
X378448152Y-273698666D02*
X379114819Y-273698666D01*
X378067200Y-273460571D02*
X378781485Y-273222476D01*
X378781485Y-273222476D02*
X378781485Y-273841523D01*
X379434819Y-268460095D02*
X378434819Y-268460095D01*
X379434819Y-269031523D02*
X378863390Y-268602952D01*
X378434819Y-269031523D02*
X379006247Y-268460095D01*
X263714819Y-270447714D02*
X262714819Y-270447714D01*
X262714819Y-270447714D02*
X262714819Y-270685809D01*
X262714819Y-270685809D02*
X262762438Y-270828666D01*
X262762438Y-270828666D02*
X262857676Y-270923904D01*
X262857676Y-270923904D02*
X262952914Y-270971523D01*
X262952914Y-270971523D02*
X263143390Y-271019142D01*
X263143390Y-271019142D02*
X263286247Y-271019142D01*
X263286247Y-271019142D02*
X263476723Y-270971523D01*
X263476723Y-270971523D02*
X263571961Y-270923904D01*
X263571961Y-270923904D02*
X263667200Y-270828666D01*
X263667200Y-270828666D02*
X263714819Y-270685809D01*
X263714819Y-270685809D02*
X263714819Y-270447714D01*
X262714819Y-271876285D02*
X262714819Y-271685809D01*
X262714819Y-271685809D02*
X262762438Y-271590571D01*
X262762438Y-271590571D02*
X262810057Y-271542952D01*
X262810057Y-271542952D02*
X262952914Y-271447714D01*
X262952914Y-271447714D02*
X263143390Y-271400095D01*
X263143390Y-271400095D02*
X263524342Y-271400095D01*
X263524342Y-271400095D02*
X263619580Y-271447714D01*
X263619580Y-271447714D02*
X263667200Y-271495333D01*
X263667200Y-271495333D02*
X263714819Y-271590571D01*
X263714819Y-271590571D02*
X263714819Y-271781047D01*
X263714819Y-271781047D02*
X263667200Y-271876285D01*
X263667200Y-271876285D02*
X263619580Y-271923904D01*
X263619580Y-271923904D02*
X263524342Y-271971523D01*
X263524342Y-271971523D02*
X263286247Y-271971523D01*
X263286247Y-271971523D02*
X263191009Y-271923904D01*
X263191009Y-271923904D02*
X263143390Y-271876285D01*
X263143390Y-271876285D02*
X263095771Y-271781047D01*
X263095771Y-271781047D02*
X263095771Y-271590571D01*
X263095771Y-271590571D02*
X263143390Y-271495333D01*
X263143390Y-271495333D02*
X263191009Y-271447714D01*
X263191009Y-271447714D02*
X263286247Y-271400095D01*
X263048152Y-272828666D02*
X263714819Y-272828666D01*
X262667200Y-272590571D02*
X263381485Y-272352476D01*
X263381485Y-272352476D02*
X263381485Y-272971523D01*
X264034819Y-267590095D02*
X263034819Y-267590095D01*
X264034819Y-268161523D02*
X263463390Y-267732952D01*
X263034819Y-268161523D02*
X263606247Y-267590095D01*
X306744819Y-308417714D02*
X305744819Y-308417714D01*
X305744819Y-308417714D02*
X305744819Y-308655809D01*
X305744819Y-308655809D02*
X305792438Y-308798666D01*
X305792438Y-308798666D02*
X305887676Y-308893904D01*
X305887676Y-308893904D02*
X305982914Y-308941523D01*
X305982914Y-308941523D02*
X306173390Y-308989142D01*
X306173390Y-308989142D02*
X306316247Y-308989142D01*
X306316247Y-308989142D02*
X306506723Y-308941523D01*
X306506723Y-308941523D02*
X306601961Y-308893904D01*
X306601961Y-308893904D02*
X306697200Y-308798666D01*
X306697200Y-308798666D02*
X306744819Y-308655809D01*
X306744819Y-308655809D02*
X306744819Y-308417714D01*
X305840057Y-309370095D02*
X305792438Y-309417714D01*
X305792438Y-309417714D02*
X305744819Y-309512952D01*
X305744819Y-309512952D02*
X305744819Y-309751047D01*
X305744819Y-309751047D02*
X305792438Y-309846285D01*
X305792438Y-309846285D02*
X305840057Y-309893904D01*
X305840057Y-309893904D02*
X305935295Y-309941523D01*
X305935295Y-309941523D02*
X306030533Y-309941523D01*
X306030533Y-309941523D02*
X306173390Y-309893904D01*
X306173390Y-309893904D02*
X306744819Y-309322476D01*
X306744819Y-309322476D02*
X306744819Y-309941523D01*
X305744819Y-310798666D02*
X305744819Y-310608190D01*
X305744819Y-310608190D02*
X305792438Y-310512952D01*
X305792438Y-310512952D02*
X305840057Y-310465333D01*
X305840057Y-310465333D02*
X305982914Y-310370095D01*
X305982914Y-310370095D02*
X306173390Y-310322476D01*
X306173390Y-310322476D02*
X306554342Y-310322476D01*
X306554342Y-310322476D02*
X306649580Y-310370095D01*
X306649580Y-310370095D02*
X306697200Y-310417714D01*
X306697200Y-310417714D02*
X306744819Y-310512952D01*
X306744819Y-310512952D02*
X306744819Y-310703428D01*
X306744819Y-310703428D02*
X306697200Y-310798666D01*
X306697200Y-310798666D02*
X306649580Y-310846285D01*
X306649580Y-310846285D02*
X306554342Y-310893904D01*
X306554342Y-310893904D02*
X306316247Y-310893904D01*
X306316247Y-310893904D02*
X306221009Y-310846285D01*
X306221009Y-310846285D02*
X306173390Y-310798666D01*
X306173390Y-310798666D02*
X306125771Y-310703428D01*
X306125771Y-310703428D02*
X306125771Y-310512952D01*
X306125771Y-310512952D02*
X306173390Y-310417714D01*
X306173390Y-310417714D02*
X306221009Y-310370095D01*
X306221009Y-310370095D02*
X306316247Y-310322476D01*
X307064819Y-305560095D02*
X306064819Y-305560095D01*
X307064819Y-306131523D02*
X306493390Y-305702952D01*
X306064819Y-306131523D02*
X306636247Y-305560095D01*
X401854819Y-270101524D02*
X400854819Y-270101524D01*
X400854819Y-270101524D02*
X400854819Y-270339619D01*
X400854819Y-270339619D02*
X400902438Y-270482476D01*
X400902438Y-270482476D02*
X400997676Y-270577714D01*
X400997676Y-270577714D02*
X401092914Y-270625333D01*
X401092914Y-270625333D02*
X401283390Y-270672952D01*
X401283390Y-270672952D02*
X401426247Y-270672952D01*
X401426247Y-270672952D02*
X401616723Y-270625333D01*
X401616723Y-270625333D02*
X401711961Y-270577714D01*
X401711961Y-270577714D02*
X401807200Y-270482476D01*
X401807200Y-270482476D02*
X401854819Y-270339619D01*
X401854819Y-270339619D02*
X401854819Y-270101524D01*
X401854819Y-271625333D02*
X401854819Y-271053905D01*
X401854819Y-271339619D02*
X400854819Y-271339619D01*
X400854819Y-271339619D02*
X400997676Y-271244381D01*
X400997676Y-271244381D02*
X401092914Y-271149143D01*
X401092914Y-271149143D02*
X401140533Y-271053905D01*
X400854819Y-272244381D02*
X400854819Y-272339619D01*
X400854819Y-272339619D02*
X400902438Y-272434857D01*
X400902438Y-272434857D02*
X400950057Y-272482476D01*
X400950057Y-272482476D02*
X401045295Y-272530095D01*
X401045295Y-272530095D02*
X401235771Y-272577714D01*
X401235771Y-272577714D02*
X401473866Y-272577714D01*
X401473866Y-272577714D02*
X401664342Y-272530095D01*
X401664342Y-272530095D02*
X401759580Y-272482476D01*
X401759580Y-272482476D02*
X401807200Y-272434857D01*
X401807200Y-272434857D02*
X401854819Y-272339619D01*
X401854819Y-272339619D02*
X401854819Y-272244381D01*
X401854819Y-272244381D02*
X401807200Y-272149143D01*
X401807200Y-272149143D02*
X401759580Y-272101524D01*
X401759580Y-272101524D02*
X401664342Y-272053905D01*
X401664342Y-272053905D02*
X401473866Y-272006286D01*
X401473866Y-272006286D02*
X401235771Y-272006286D01*
X401235771Y-272006286D02*
X401045295Y-272053905D01*
X401045295Y-272053905D02*
X400950057Y-272101524D01*
X400950057Y-272101524D02*
X400902438Y-272149143D01*
X400902438Y-272149143D02*
X400854819Y-272244381D01*
X400854819Y-272911048D02*
X400854819Y-273577714D01*
X400854819Y-273577714D02*
X401854819Y-273149143D01*
X402174819Y-267720095D02*
X401174819Y-267720095D01*
X402174819Y-268291523D02*
X401603390Y-267862952D01*
X401174819Y-268291523D02*
X401746247Y-267720095D01*
X244744819Y-270907714D02*
X243744819Y-270907714D01*
X243744819Y-270907714D02*
X243744819Y-271145809D01*
X243744819Y-271145809D02*
X243792438Y-271288666D01*
X243792438Y-271288666D02*
X243887676Y-271383904D01*
X243887676Y-271383904D02*
X243982914Y-271431523D01*
X243982914Y-271431523D02*
X244173390Y-271479142D01*
X244173390Y-271479142D02*
X244316247Y-271479142D01*
X244316247Y-271479142D02*
X244506723Y-271431523D01*
X244506723Y-271431523D02*
X244601961Y-271383904D01*
X244601961Y-271383904D02*
X244697200Y-271288666D01*
X244697200Y-271288666D02*
X244744819Y-271145809D01*
X244744819Y-271145809D02*
X244744819Y-270907714D01*
X243744819Y-272336285D02*
X243744819Y-272145809D01*
X243744819Y-272145809D02*
X243792438Y-272050571D01*
X243792438Y-272050571D02*
X243840057Y-272002952D01*
X243840057Y-272002952D02*
X243982914Y-271907714D01*
X243982914Y-271907714D02*
X244173390Y-271860095D01*
X244173390Y-271860095D02*
X244554342Y-271860095D01*
X244554342Y-271860095D02*
X244649580Y-271907714D01*
X244649580Y-271907714D02*
X244697200Y-271955333D01*
X244697200Y-271955333D02*
X244744819Y-272050571D01*
X244744819Y-272050571D02*
X244744819Y-272241047D01*
X244744819Y-272241047D02*
X244697200Y-272336285D01*
X244697200Y-272336285D02*
X244649580Y-272383904D01*
X244649580Y-272383904D02*
X244554342Y-272431523D01*
X244554342Y-272431523D02*
X244316247Y-272431523D01*
X244316247Y-272431523D02*
X244221009Y-272383904D01*
X244221009Y-272383904D02*
X244173390Y-272336285D01*
X244173390Y-272336285D02*
X244125771Y-272241047D01*
X244125771Y-272241047D02*
X244125771Y-272050571D01*
X244125771Y-272050571D02*
X244173390Y-271955333D01*
X244173390Y-271955333D02*
X244221009Y-271907714D01*
X244221009Y-271907714D02*
X244316247Y-271860095D01*
X243744819Y-273288666D02*
X243744819Y-273098190D01*
X243744819Y-273098190D02*
X243792438Y-273002952D01*
X243792438Y-273002952D02*
X243840057Y-272955333D01*
X243840057Y-272955333D02*
X243982914Y-272860095D01*
X243982914Y-272860095D02*
X244173390Y-272812476D01*
X244173390Y-272812476D02*
X244554342Y-272812476D01*
X244554342Y-272812476D02*
X244649580Y-272860095D01*
X244649580Y-272860095D02*
X244697200Y-272907714D01*
X244697200Y-272907714D02*
X244744819Y-273002952D01*
X244744819Y-273002952D02*
X244744819Y-273193428D01*
X244744819Y-273193428D02*
X244697200Y-273288666D01*
X244697200Y-273288666D02*
X244649580Y-273336285D01*
X244649580Y-273336285D02*
X244554342Y-273383904D01*
X244554342Y-273383904D02*
X244316247Y-273383904D01*
X244316247Y-273383904D02*
X244221009Y-273336285D01*
X244221009Y-273336285D02*
X244173390Y-273288666D01*
X244173390Y-273288666D02*
X244125771Y-273193428D01*
X244125771Y-273193428D02*
X244125771Y-273002952D01*
X244125771Y-273002952D02*
X244173390Y-272907714D01*
X244173390Y-272907714D02*
X244221009Y-272860095D01*
X244221009Y-272860095D02*
X244316247Y-272812476D01*
X245064819Y-268050095D02*
X244064819Y-268050095D01*
X245064819Y-268621523D02*
X244493390Y-268192952D01*
X244064819Y-268621523D02*
X244636247Y-268050095D01*
X400764819Y-287207714D02*
X399764819Y-287207714D01*
X399764819Y-287207714D02*
X399764819Y-287445809D01*
X399764819Y-287445809D02*
X399812438Y-287588666D01*
X399812438Y-287588666D02*
X399907676Y-287683904D01*
X399907676Y-287683904D02*
X400002914Y-287731523D01*
X400002914Y-287731523D02*
X400193390Y-287779142D01*
X400193390Y-287779142D02*
X400336247Y-287779142D01*
X400336247Y-287779142D02*
X400526723Y-287731523D01*
X400526723Y-287731523D02*
X400621961Y-287683904D01*
X400621961Y-287683904D02*
X400717200Y-287588666D01*
X400717200Y-287588666D02*
X400764819Y-287445809D01*
X400764819Y-287445809D02*
X400764819Y-287207714D01*
X400098152Y-288636285D02*
X400764819Y-288636285D01*
X399717200Y-288398190D02*
X400431485Y-288160095D01*
X400431485Y-288160095D02*
X400431485Y-288779142D01*
X400764819Y-289207714D02*
X400764819Y-289398190D01*
X400764819Y-289398190D02*
X400717200Y-289493428D01*
X400717200Y-289493428D02*
X400669580Y-289541047D01*
X400669580Y-289541047D02*
X400526723Y-289636285D01*
X400526723Y-289636285D02*
X400336247Y-289683904D01*
X400336247Y-289683904D02*
X399955295Y-289683904D01*
X399955295Y-289683904D02*
X399860057Y-289636285D01*
X399860057Y-289636285D02*
X399812438Y-289588666D01*
X399812438Y-289588666D02*
X399764819Y-289493428D01*
X399764819Y-289493428D02*
X399764819Y-289302952D01*
X399764819Y-289302952D02*
X399812438Y-289207714D01*
X399812438Y-289207714D02*
X399860057Y-289160095D01*
X399860057Y-289160095D02*
X399955295Y-289112476D01*
X399955295Y-289112476D02*
X400193390Y-289112476D01*
X400193390Y-289112476D02*
X400288628Y-289160095D01*
X400288628Y-289160095D02*
X400336247Y-289207714D01*
X400336247Y-289207714D02*
X400383866Y-289302952D01*
X400383866Y-289302952D02*
X400383866Y-289493428D01*
X400383866Y-289493428D02*
X400336247Y-289588666D01*
X400336247Y-289588666D02*
X400288628Y-289636285D01*
X400288628Y-289636285D02*
X400193390Y-289683904D01*
X401084819Y-284350095D02*
X400084819Y-284350095D01*
X401084819Y-284921523D02*
X400513390Y-284492952D01*
X400084819Y-284921523D02*
X400656247Y-284350095D01*
X268364819Y-232727714D02*
X267364819Y-232727714D01*
X267364819Y-232727714D02*
X267364819Y-232965809D01*
X267364819Y-232965809D02*
X267412438Y-233108666D01*
X267412438Y-233108666D02*
X267507676Y-233203904D01*
X267507676Y-233203904D02*
X267602914Y-233251523D01*
X267602914Y-233251523D02*
X267793390Y-233299142D01*
X267793390Y-233299142D02*
X267936247Y-233299142D01*
X267936247Y-233299142D02*
X268126723Y-233251523D01*
X268126723Y-233251523D02*
X268221961Y-233203904D01*
X268221961Y-233203904D02*
X268317200Y-233108666D01*
X268317200Y-233108666D02*
X268364819Y-232965809D01*
X268364819Y-232965809D02*
X268364819Y-232727714D01*
X267364819Y-233632476D02*
X267364819Y-234251523D01*
X267364819Y-234251523D02*
X267745771Y-233918190D01*
X267745771Y-233918190D02*
X267745771Y-234061047D01*
X267745771Y-234061047D02*
X267793390Y-234156285D01*
X267793390Y-234156285D02*
X267841009Y-234203904D01*
X267841009Y-234203904D02*
X267936247Y-234251523D01*
X267936247Y-234251523D02*
X268174342Y-234251523D01*
X268174342Y-234251523D02*
X268269580Y-234203904D01*
X268269580Y-234203904D02*
X268317200Y-234156285D01*
X268317200Y-234156285D02*
X268364819Y-234061047D01*
X268364819Y-234061047D02*
X268364819Y-233775333D01*
X268364819Y-233775333D02*
X268317200Y-233680095D01*
X268317200Y-233680095D02*
X268269580Y-233632476D01*
X267364819Y-235156285D02*
X267364819Y-234680095D01*
X267364819Y-234680095D02*
X267841009Y-234632476D01*
X267841009Y-234632476D02*
X267793390Y-234680095D01*
X267793390Y-234680095D02*
X267745771Y-234775333D01*
X267745771Y-234775333D02*
X267745771Y-235013428D01*
X267745771Y-235013428D02*
X267793390Y-235108666D01*
X267793390Y-235108666D02*
X267841009Y-235156285D01*
X267841009Y-235156285D02*
X267936247Y-235203904D01*
X267936247Y-235203904D02*
X268174342Y-235203904D01*
X268174342Y-235203904D02*
X268269580Y-235156285D01*
X268269580Y-235156285D02*
X268317200Y-235108666D01*
X268317200Y-235108666D02*
X268364819Y-235013428D01*
X268364819Y-235013428D02*
X268364819Y-234775333D01*
X268364819Y-234775333D02*
X268317200Y-234680095D01*
X268317200Y-234680095D02*
X268269580Y-234632476D01*
X268684819Y-229870095D02*
X267684819Y-229870095D01*
X268684819Y-230441523D02*
X268113390Y-230012952D01*
X267684819Y-230441523D02*
X268256247Y-229870095D01*
X349034819Y-232085714D02*
X348034819Y-232085714D01*
X348034819Y-232085714D02*
X348034819Y-232323809D01*
X348034819Y-232323809D02*
X348082438Y-232466666D01*
X348082438Y-232466666D02*
X348177676Y-232561904D01*
X348177676Y-232561904D02*
X348272914Y-232609523D01*
X348272914Y-232609523D02*
X348463390Y-232657142D01*
X348463390Y-232657142D02*
X348606247Y-232657142D01*
X348606247Y-232657142D02*
X348796723Y-232609523D01*
X348796723Y-232609523D02*
X348891961Y-232561904D01*
X348891961Y-232561904D02*
X348987200Y-232466666D01*
X348987200Y-232466666D02*
X349034819Y-232323809D01*
X349034819Y-232323809D02*
X349034819Y-232085714D01*
X349034819Y-233133333D02*
X349034819Y-233323809D01*
X349034819Y-233323809D02*
X348987200Y-233419047D01*
X348987200Y-233419047D02*
X348939580Y-233466666D01*
X348939580Y-233466666D02*
X348796723Y-233561904D01*
X348796723Y-233561904D02*
X348606247Y-233609523D01*
X348606247Y-233609523D02*
X348225295Y-233609523D01*
X348225295Y-233609523D02*
X348130057Y-233561904D01*
X348130057Y-233561904D02*
X348082438Y-233514285D01*
X348082438Y-233514285D02*
X348034819Y-233419047D01*
X348034819Y-233419047D02*
X348034819Y-233228571D01*
X348034819Y-233228571D02*
X348082438Y-233133333D01*
X348082438Y-233133333D02*
X348130057Y-233085714D01*
X348130057Y-233085714D02*
X348225295Y-233038095D01*
X348225295Y-233038095D02*
X348463390Y-233038095D01*
X348463390Y-233038095D02*
X348558628Y-233085714D01*
X348558628Y-233085714D02*
X348606247Y-233133333D01*
X348606247Y-233133333D02*
X348653866Y-233228571D01*
X348653866Y-233228571D02*
X348653866Y-233419047D01*
X348653866Y-233419047D02*
X348606247Y-233514285D01*
X348606247Y-233514285D02*
X348558628Y-233561904D01*
X348558628Y-233561904D02*
X348463390Y-233609523D01*
X348463390Y-234180952D02*
X348415771Y-234085714D01*
X348415771Y-234085714D02*
X348368152Y-234038095D01*
X348368152Y-234038095D02*
X348272914Y-233990476D01*
X348272914Y-233990476D02*
X348225295Y-233990476D01*
X348225295Y-233990476D02*
X348130057Y-234038095D01*
X348130057Y-234038095D02*
X348082438Y-234085714D01*
X348082438Y-234085714D02*
X348034819Y-234180952D01*
X348034819Y-234180952D02*
X348034819Y-234371428D01*
X348034819Y-234371428D02*
X348082438Y-234466666D01*
X348082438Y-234466666D02*
X348130057Y-234514285D01*
X348130057Y-234514285D02*
X348225295Y-234561904D01*
X348225295Y-234561904D02*
X348272914Y-234561904D01*
X348272914Y-234561904D02*
X348368152Y-234514285D01*
X348368152Y-234514285D02*
X348415771Y-234466666D01*
X348415771Y-234466666D02*
X348463390Y-234371428D01*
X348463390Y-234371428D02*
X348463390Y-234180952D01*
X348463390Y-234180952D02*
X348511009Y-234085714D01*
X348511009Y-234085714D02*
X348558628Y-234038095D01*
X348558628Y-234038095D02*
X348653866Y-233990476D01*
X348653866Y-233990476D02*
X348844342Y-233990476D01*
X348844342Y-233990476D02*
X348939580Y-234038095D01*
X348939580Y-234038095D02*
X348987200Y-234085714D01*
X348987200Y-234085714D02*
X349034819Y-234180952D01*
X349034819Y-234180952D02*
X349034819Y-234371428D01*
X349034819Y-234371428D02*
X348987200Y-234466666D01*
X348987200Y-234466666D02*
X348939580Y-234514285D01*
X348939580Y-234514285D02*
X348844342Y-234561904D01*
X348844342Y-234561904D02*
X348653866Y-234561904D01*
X348653866Y-234561904D02*
X348558628Y-234514285D01*
X348558628Y-234514285D02*
X348511009Y-234466666D01*
X348511009Y-234466666D02*
X348463390Y-234371428D01*
X348714819Y-236848095D02*
X347714819Y-236848095D01*
X348714819Y-237419523D02*
X348143390Y-236990952D01*
X347714819Y-237419523D02*
X348286247Y-236848095D01*
X339914819Y-270727714D02*
X338914819Y-270727714D01*
X338914819Y-270727714D02*
X338914819Y-270965809D01*
X338914819Y-270965809D02*
X338962438Y-271108666D01*
X338962438Y-271108666D02*
X339057676Y-271203904D01*
X339057676Y-271203904D02*
X339152914Y-271251523D01*
X339152914Y-271251523D02*
X339343390Y-271299142D01*
X339343390Y-271299142D02*
X339486247Y-271299142D01*
X339486247Y-271299142D02*
X339676723Y-271251523D01*
X339676723Y-271251523D02*
X339771961Y-271203904D01*
X339771961Y-271203904D02*
X339867200Y-271108666D01*
X339867200Y-271108666D02*
X339914819Y-270965809D01*
X339914819Y-270965809D02*
X339914819Y-270727714D01*
X338914819Y-272203904D02*
X338914819Y-271727714D01*
X338914819Y-271727714D02*
X339391009Y-271680095D01*
X339391009Y-271680095D02*
X339343390Y-271727714D01*
X339343390Y-271727714D02*
X339295771Y-271822952D01*
X339295771Y-271822952D02*
X339295771Y-272061047D01*
X339295771Y-272061047D02*
X339343390Y-272156285D01*
X339343390Y-272156285D02*
X339391009Y-272203904D01*
X339391009Y-272203904D02*
X339486247Y-272251523D01*
X339486247Y-272251523D02*
X339724342Y-272251523D01*
X339724342Y-272251523D02*
X339819580Y-272203904D01*
X339819580Y-272203904D02*
X339867200Y-272156285D01*
X339867200Y-272156285D02*
X339914819Y-272061047D01*
X339914819Y-272061047D02*
X339914819Y-271822952D01*
X339914819Y-271822952D02*
X339867200Y-271727714D01*
X339867200Y-271727714D02*
X339819580Y-271680095D01*
X339343390Y-272822952D02*
X339295771Y-272727714D01*
X339295771Y-272727714D02*
X339248152Y-272680095D01*
X339248152Y-272680095D02*
X339152914Y-272632476D01*
X339152914Y-272632476D02*
X339105295Y-272632476D01*
X339105295Y-272632476D02*
X339010057Y-272680095D01*
X339010057Y-272680095D02*
X338962438Y-272727714D01*
X338962438Y-272727714D02*
X338914819Y-272822952D01*
X338914819Y-272822952D02*
X338914819Y-273013428D01*
X338914819Y-273013428D02*
X338962438Y-273108666D01*
X338962438Y-273108666D02*
X339010057Y-273156285D01*
X339010057Y-273156285D02*
X339105295Y-273203904D01*
X339105295Y-273203904D02*
X339152914Y-273203904D01*
X339152914Y-273203904D02*
X339248152Y-273156285D01*
X339248152Y-273156285D02*
X339295771Y-273108666D01*
X339295771Y-273108666D02*
X339343390Y-273013428D01*
X339343390Y-273013428D02*
X339343390Y-272822952D01*
X339343390Y-272822952D02*
X339391009Y-272727714D01*
X339391009Y-272727714D02*
X339438628Y-272680095D01*
X339438628Y-272680095D02*
X339533866Y-272632476D01*
X339533866Y-272632476D02*
X339724342Y-272632476D01*
X339724342Y-272632476D02*
X339819580Y-272680095D01*
X339819580Y-272680095D02*
X339867200Y-272727714D01*
X339867200Y-272727714D02*
X339914819Y-272822952D01*
X339914819Y-272822952D02*
X339914819Y-273013428D01*
X339914819Y-273013428D02*
X339867200Y-273108666D01*
X339867200Y-273108666D02*
X339819580Y-273156285D01*
X339819580Y-273156285D02*
X339724342Y-273203904D01*
X339724342Y-273203904D02*
X339533866Y-273203904D01*
X339533866Y-273203904D02*
X339438628Y-273156285D01*
X339438628Y-273156285D02*
X339391009Y-273108666D01*
X339391009Y-273108666D02*
X339343390Y-273013428D01*
X340234819Y-267870095D02*
X339234819Y-267870095D01*
X340234819Y-268441523D02*
X339663390Y-268012952D01*
X339234819Y-268441523D02*
X339806247Y-267870095D01*
X201884819Y-251497714D02*
X200884819Y-251497714D01*
X200884819Y-251497714D02*
X200884819Y-251735809D01*
X200884819Y-251735809D02*
X200932438Y-251878666D01*
X200932438Y-251878666D02*
X201027676Y-251973904D01*
X201027676Y-251973904D02*
X201122914Y-252021523D01*
X201122914Y-252021523D02*
X201313390Y-252069142D01*
X201313390Y-252069142D02*
X201456247Y-252069142D01*
X201456247Y-252069142D02*
X201646723Y-252021523D01*
X201646723Y-252021523D02*
X201741961Y-251973904D01*
X201741961Y-251973904D02*
X201837200Y-251878666D01*
X201837200Y-251878666D02*
X201884819Y-251735809D01*
X201884819Y-251735809D02*
X201884819Y-251497714D01*
X201218152Y-252926285D02*
X201884819Y-252926285D01*
X200837200Y-252688190D02*
X201551485Y-252450095D01*
X201551485Y-252450095D02*
X201551485Y-253069142D01*
X201884819Y-253973904D02*
X201884819Y-253402476D01*
X201884819Y-253688190D02*
X200884819Y-253688190D01*
X200884819Y-253688190D02*
X201027676Y-253592952D01*
X201027676Y-253592952D02*
X201122914Y-253497714D01*
X201122914Y-253497714D02*
X201170533Y-253402476D01*
X202204819Y-248640095D02*
X201204819Y-248640095D01*
X202204819Y-249211523D02*
X201633390Y-248782952D01*
X201204819Y-249211523D02*
X201776247Y-248640095D01*
X363954819Y-309713905D02*
X362954819Y-309713905D01*
X362954819Y-309713905D02*
X362954819Y-309952000D01*
X362954819Y-309952000D02*
X363002438Y-310094857D01*
X363002438Y-310094857D02*
X363097676Y-310190095D01*
X363097676Y-310190095D02*
X363192914Y-310237714D01*
X363192914Y-310237714D02*
X363383390Y-310285333D01*
X363383390Y-310285333D02*
X363526247Y-310285333D01*
X363526247Y-310285333D02*
X363716723Y-310237714D01*
X363716723Y-310237714D02*
X363811961Y-310190095D01*
X363811961Y-310190095D02*
X363907200Y-310094857D01*
X363907200Y-310094857D02*
X363954819Y-309952000D01*
X363954819Y-309952000D02*
X363954819Y-309713905D01*
X362954819Y-311190095D02*
X362954819Y-310713905D01*
X362954819Y-310713905D02*
X363431009Y-310666286D01*
X363431009Y-310666286D02*
X363383390Y-310713905D01*
X363383390Y-310713905D02*
X363335771Y-310809143D01*
X363335771Y-310809143D02*
X363335771Y-311047238D01*
X363335771Y-311047238D02*
X363383390Y-311142476D01*
X363383390Y-311142476D02*
X363431009Y-311190095D01*
X363431009Y-311190095D02*
X363526247Y-311237714D01*
X363526247Y-311237714D02*
X363764342Y-311237714D01*
X363764342Y-311237714D02*
X363859580Y-311190095D01*
X363859580Y-311190095D02*
X363907200Y-311142476D01*
X363907200Y-311142476D02*
X363954819Y-311047238D01*
X363954819Y-311047238D02*
X363954819Y-310809143D01*
X363954819Y-310809143D02*
X363907200Y-310713905D01*
X363907200Y-310713905D02*
X363859580Y-310666286D01*
X364274819Y-306380095D02*
X363274819Y-306380095D01*
X364274819Y-306951523D02*
X363703390Y-306522952D01*
X363274819Y-306951523D02*
X363846247Y-306380095D01*
X172994819Y-232357714D02*
X171994819Y-232357714D01*
X171994819Y-232357714D02*
X171994819Y-232595809D01*
X171994819Y-232595809D02*
X172042438Y-232738666D01*
X172042438Y-232738666D02*
X172137676Y-232833904D01*
X172137676Y-232833904D02*
X172232914Y-232881523D01*
X172232914Y-232881523D02*
X172423390Y-232929142D01*
X172423390Y-232929142D02*
X172566247Y-232929142D01*
X172566247Y-232929142D02*
X172756723Y-232881523D01*
X172756723Y-232881523D02*
X172851961Y-232833904D01*
X172851961Y-232833904D02*
X172947200Y-232738666D01*
X172947200Y-232738666D02*
X172994819Y-232595809D01*
X172994819Y-232595809D02*
X172994819Y-232357714D01*
X171994819Y-233833904D02*
X171994819Y-233357714D01*
X171994819Y-233357714D02*
X172471009Y-233310095D01*
X172471009Y-233310095D02*
X172423390Y-233357714D01*
X172423390Y-233357714D02*
X172375771Y-233452952D01*
X172375771Y-233452952D02*
X172375771Y-233691047D01*
X172375771Y-233691047D02*
X172423390Y-233786285D01*
X172423390Y-233786285D02*
X172471009Y-233833904D01*
X172471009Y-233833904D02*
X172566247Y-233881523D01*
X172566247Y-233881523D02*
X172804342Y-233881523D01*
X172804342Y-233881523D02*
X172899580Y-233833904D01*
X172899580Y-233833904D02*
X172947200Y-233786285D01*
X172947200Y-233786285D02*
X172994819Y-233691047D01*
X172994819Y-233691047D02*
X172994819Y-233452952D01*
X172994819Y-233452952D02*
X172947200Y-233357714D01*
X172947200Y-233357714D02*
X172899580Y-233310095D01*
X171994819Y-234738666D02*
X171994819Y-234548190D01*
X171994819Y-234548190D02*
X172042438Y-234452952D01*
X172042438Y-234452952D02*
X172090057Y-234405333D01*
X172090057Y-234405333D02*
X172232914Y-234310095D01*
X172232914Y-234310095D02*
X172423390Y-234262476D01*
X172423390Y-234262476D02*
X172804342Y-234262476D01*
X172804342Y-234262476D02*
X172899580Y-234310095D01*
X172899580Y-234310095D02*
X172947200Y-234357714D01*
X172947200Y-234357714D02*
X172994819Y-234452952D01*
X172994819Y-234452952D02*
X172994819Y-234643428D01*
X172994819Y-234643428D02*
X172947200Y-234738666D01*
X172947200Y-234738666D02*
X172899580Y-234786285D01*
X172899580Y-234786285D02*
X172804342Y-234833904D01*
X172804342Y-234833904D02*
X172566247Y-234833904D01*
X172566247Y-234833904D02*
X172471009Y-234786285D01*
X172471009Y-234786285D02*
X172423390Y-234738666D01*
X172423390Y-234738666D02*
X172375771Y-234643428D01*
X172375771Y-234643428D02*
X172375771Y-234452952D01*
X172375771Y-234452952D02*
X172423390Y-234357714D01*
X172423390Y-234357714D02*
X172471009Y-234310095D01*
X172471009Y-234310095D02*
X172566247Y-234262476D01*
X173314819Y-229500095D02*
X172314819Y-229500095D01*
X173314819Y-230071523D02*
X172743390Y-229642952D01*
X172314819Y-230071523D02*
X172886247Y-229500095D01*
X206834819Y-270247714D02*
X205834819Y-270247714D01*
X205834819Y-270247714D02*
X205834819Y-270485809D01*
X205834819Y-270485809D02*
X205882438Y-270628666D01*
X205882438Y-270628666D02*
X205977676Y-270723904D01*
X205977676Y-270723904D02*
X206072914Y-270771523D01*
X206072914Y-270771523D02*
X206263390Y-270819142D01*
X206263390Y-270819142D02*
X206406247Y-270819142D01*
X206406247Y-270819142D02*
X206596723Y-270771523D01*
X206596723Y-270771523D02*
X206691961Y-270723904D01*
X206691961Y-270723904D02*
X206787200Y-270628666D01*
X206787200Y-270628666D02*
X206834819Y-270485809D01*
X206834819Y-270485809D02*
X206834819Y-270247714D01*
X206834819Y-271771523D02*
X206834819Y-271200095D01*
X206834819Y-271485809D02*
X205834819Y-271485809D01*
X205834819Y-271485809D02*
X205977676Y-271390571D01*
X205977676Y-271390571D02*
X206072914Y-271295333D01*
X206072914Y-271295333D02*
X206120533Y-271200095D01*
X206168152Y-272628666D02*
X206834819Y-272628666D01*
X205787200Y-272390571D02*
X206501485Y-272152476D01*
X206501485Y-272152476D02*
X206501485Y-272771523D01*
X207154819Y-267390095D02*
X206154819Y-267390095D01*
X207154819Y-267961523D02*
X206583390Y-267532952D01*
X206154819Y-267961523D02*
X206726247Y-267390095D01*
X134124819Y-271307714D02*
X133124819Y-271307714D01*
X133124819Y-271307714D02*
X133124819Y-271545809D01*
X133124819Y-271545809D02*
X133172438Y-271688666D01*
X133172438Y-271688666D02*
X133267676Y-271783904D01*
X133267676Y-271783904D02*
X133362914Y-271831523D01*
X133362914Y-271831523D02*
X133553390Y-271879142D01*
X133553390Y-271879142D02*
X133696247Y-271879142D01*
X133696247Y-271879142D02*
X133886723Y-271831523D01*
X133886723Y-271831523D02*
X133981961Y-271783904D01*
X133981961Y-271783904D02*
X134077200Y-271688666D01*
X134077200Y-271688666D02*
X134124819Y-271545809D01*
X134124819Y-271545809D02*
X134124819Y-271307714D01*
X133124819Y-272212476D02*
X133124819Y-272831523D01*
X133124819Y-272831523D02*
X133505771Y-272498190D01*
X133505771Y-272498190D02*
X133505771Y-272641047D01*
X133505771Y-272641047D02*
X133553390Y-272736285D01*
X133553390Y-272736285D02*
X133601009Y-272783904D01*
X133601009Y-272783904D02*
X133696247Y-272831523D01*
X133696247Y-272831523D02*
X133934342Y-272831523D01*
X133934342Y-272831523D02*
X134029580Y-272783904D01*
X134029580Y-272783904D02*
X134077200Y-272736285D01*
X134077200Y-272736285D02*
X134124819Y-272641047D01*
X134124819Y-272641047D02*
X134124819Y-272355333D01*
X134124819Y-272355333D02*
X134077200Y-272260095D01*
X134077200Y-272260095D02*
X134029580Y-272212476D01*
X133124819Y-273164857D02*
X133124819Y-273783904D01*
X133124819Y-273783904D02*
X133505771Y-273450571D01*
X133505771Y-273450571D02*
X133505771Y-273593428D01*
X133505771Y-273593428D02*
X133553390Y-273688666D01*
X133553390Y-273688666D02*
X133601009Y-273736285D01*
X133601009Y-273736285D02*
X133696247Y-273783904D01*
X133696247Y-273783904D02*
X133934342Y-273783904D01*
X133934342Y-273783904D02*
X134029580Y-273736285D01*
X134029580Y-273736285D02*
X134077200Y-273688666D01*
X134077200Y-273688666D02*
X134124819Y-273593428D01*
X134124819Y-273593428D02*
X134124819Y-273307714D01*
X134124819Y-273307714D02*
X134077200Y-273212476D01*
X134077200Y-273212476D02*
X134029580Y-273164857D01*
X134444819Y-268450095D02*
X133444819Y-268450095D01*
X134444819Y-269021523D02*
X133873390Y-268592952D01*
X133444819Y-269021523D02*
X134016247Y-268450095D01*
X252054819Y-289747714D02*
X251054819Y-289747714D01*
X251054819Y-289747714D02*
X251054819Y-289985809D01*
X251054819Y-289985809D02*
X251102438Y-290128666D01*
X251102438Y-290128666D02*
X251197676Y-290223904D01*
X251197676Y-290223904D02*
X251292914Y-290271523D01*
X251292914Y-290271523D02*
X251483390Y-290319142D01*
X251483390Y-290319142D02*
X251626247Y-290319142D01*
X251626247Y-290319142D02*
X251816723Y-290271523D01*
X251816723Y-290271523D02*
X251911961Y-290223904D01*
X251911961Y-290223904D02*
X252007200Y-290128666D01*
X252007200Y-290128666D02*
X252054819Y-289985809D01*
X252054819Y-289985809D02*
X252054819Y-289747714D01*
X251054819Y-291176285D02*
X251054819Y-290985809D01*
X251054819Y-290985809D02*
X251102438Y-290890571D01*
X251102438Y-290890571D02*
X251150057Y-290842952D01*
X251150057Y-290842952D02*
X251292914Y-290747714D01*
X251292914Y-290747714D02*
X251483390Y-290700095D01*
X251483390Y-290700095D02*
X251864342Y-290700095D01*
X251864342Y-290700095D02*
X251959580Y-290747714D01*
X251959580Y-290747714D02*
X252007200Y-290795333D01*
X252007200Y-290795333D02*
X252054819Y-290890571D01*
X252054819Y-290890571D02*
X252054819Y-291081047D01*
X252054819Y-291081047D02*
X252007200Y-291176285D01*
X252007200Y-291176285D02*
X251959580Y-291223904D01*
X251959580Y-291223904D02*
X251864342Y-291271523D01*
X251864342Y-291271523D02*
X251626247Y-291271523D01*
X251626247Y-291271523D02*
X251531009Y-291223904D01*
X251531009Y-291223904D02*
X251483390Y-291176285D01*
X251483390Y-291176285D02*
X251435771Y-291081047D01*
X251435771Y-291081047D02*
X251435771Y-290890571D01*
X251435771Y-290890571D02*
X251483390Y-290795333D01*
X251483390Y-290795333D02*
X251531009Y-290747714D01*
X251531009Y-290747714D02*
X251626247Y-290700095D01*
X251054819Y-291604857D02*
X251054819Y-292271523D01*
X251054819Y-292271523D02*
X252054819Y-291842952D01*
X252374819Y-286890095D02*
X251374819Y-286890095D01*
X252374819Y-287461523D02*
X251803390Y-287032952D01*
X251374819Y-287461523D02*
X251946247Y-286890095D01*
X225694819Y-270147714D02*
X224694819Y-270147714D01*
X224694819Y-270147714D02*
X224694819Y-270385809D01*
X224694819Y-270385809D02*
X224742438Y-270528666D01*
X224742438Y-270528666D02*
X224837676Y-270623904D01*
X224837676Y-270623904D02*
X224932914Y-270671523D01*
X224932914Y-270671523D02*
X225123390Y-270719142D01*
X225123390Y-270719142D02*
X225266247Y-270719142D01*
X225266247Y-270719142D02*
X225456723Y-270671523D01*
X225456723Y-270671523D02*
X225551961Y-270623904D01*
X225551961Y-270623904D02*
X225647200Y-270528666D01*
X225647200Y-270528666D02*
X225694819Y-270385809D01*
X225694819Y-270385809D02*
X225694819Y-270147714D01*
X225123390Y-271290571D02*
X225075771Y-271195333D01*
X225075771Y-271195333D02*
X225028152Y-271147714D01*
X225028152Y-271147714D02*
X224932914Y-271100095D01*
X224932914Y-271100095D02*
X224885295Y-271100095D01*
X224885295Y-271100095D02*
X224790057Y-271147714D01*
X224790057Y-271147714D02*
X224742438Y-271195333D01*
X224742438Y-271195333D02*
X224694819Y-271290571D01*
X224694819Y-271290571D02*
X224694819Y-271481047D01*
X224694819Y-271481047D02*
X224742438Y-271576285D01*
X224742438Y-271576285D02*
X224790057Y-271623904D01*
X224790057Y-271623904D02*
X224885295Y-271671523D01*
X224885295Y-271671523D02*
X224932914Y-271671523D01*
X224932914Y-271671523D02*
X225028152Y-271623904D01*
X225028152Y-271623904D02*
X225075771Y-271576285D01*
X225075771Y-271576285D02*
X225123390Y-271481047D01*
X225123390Y-271481047D02*
X225123390Y-271290571D01*
X225123390Y-271290571D02*
X225171009Y-271195333D01*
X225171009Y-271195333D02*
X225218628Y-271147714D01*
X225218628Y-271147714D02*
X225313866Y-271100095D01*
X225313866Y-271100095D02*
X225504342Y-271100095D01*
X225504342Y-271100095D02*
X225599580Y-271147714D01*
X225599580Y-271147714D02*
X225647200Y-271195333D01*
X225647200Y-271195333D02*
X225694819Y-271290571D01*
X225694819Y-271290571D02*
X225694819Y-271481047D01*
X225694819Y-271481047D02*
X225647200Y-271576285D01*
X225647200Y-271576285D02*
X225599580Y-271623904D01*
X225599580Y-271623904D02*
X225504342Y-271671523D01*
X225504342Y-271671523D02*
X225313866Y-271671523D01*
X225313866Y-271671523D02*
X225218628Y-271623904D01*
X225218628Y-271623904D02*
X225171009Y-271576285D01*
X225171009Y-271576285D02*
X225123390Y-271481047D01*
X224694819Y-272290571D02*
X224694819Y-272385809D01*
X224694819Y-272385809D02*
X224742438Y-272481047D01*
X224742438Y-272481047D02*
X224790057Y-272528666D01*
X224790057Y-272528666D02*
X224885295Y-272576285D01*
X224885295Y-272576285D02*
X225075771Y-272623904D01*
X225075771Y-272623904D02*
X225313866Y-272623904D01*
X225313866Y-272623904D02*
X225504342Y-272576285D01*
X225504342Y-272576285D02*
X225599580Y-272528666D01*
X225599580Y-272528666D02*
X225647200Y-272481047D01*
X225647200Y-272481047D02*
X225694819Y-272385809D01*
X225694819Y-272385809D02*
X225694819Y-272290571D01*
X225694819Y-272290571D02*
X225647200Y-272195333D01*
X225647200Y-272195333D02*
X225599580Y-272147714D01*
X225599580Y-272147714D02*
X225504342Y-272100095D01*
X225504342Y-272100095D02*
X225313866Y-272052476D01*
X225313866Y-272052476D02*
X225075771Y-272052476D01*
X225075771Y-272052476D02*
X224885295Y-272100095D01*
X224885295Y-272100095D02*
X224790057Y-272147714D01*
X224790057Y-272147714D02*
X224742438Y-272195333D01*
X224742438Y-272195333D02*
X224694819Y-272290571D01*
X226014819Y-267290095D02*
X225014819Y-267290095D01*
X226014819Y-267861523D02*
X225443390Y-267432952D01*
X225014819Y-267861523D02*
X225586247Y-267290095D01*
X211504819Y-232031524D02*
X210504819Y-232031524D01*
X210504819Y-232031524D02*
X210504819Y-232269619D01*
X210504819Y-232269619D02*
X210552438Y-232412476D01*
X210552438Y-232412476D02*
X210647676Y-232507714D01*
X210647676Y-232507714D02*
X210742914Y-232555333D01*
X210742914Y-232555333D02*
X210933390Y-232602952D01*
X210933390Y-232602952D02*
X211076247Y-232602952D01*
X211076247Y-232602952D02*
X211266723Y-232555333D01*
X211266723Y-232555333D02*
X211361961Y-232507714D01*
X211361961Y-232507714D02*
X211457200Y-232412476D01*
X211457200Y-232412476D02*
X211504819Y-232269619D01*
X211504819Y-232269619D02*
X211504819Y-232031524D01*
X211504819Y-233555333D02*
X211504819Y-232983905D01*
X211504819Y-233269619D02*
X210504819Y-233269619D01*
X210504819Y-233269619D02*
X210647676Y-233174381D01*
X210647676Y-233174381D02*
X210742914Y-233079143D01*
X210742914Y-233079143D02*
X210790533Y-232983905D01*
X210504819Y-234174381D02*
X210504819Y-234269619D01*
X210504819Y-234269619D02*
X210552438Y-234364857D01*
X210552438Y-234364857D02*
X210600057Y-234412476D01*
X210600057Y-234412476D02*
X210695295Y-234460095D01*
X210695295Y-234460095D02*
X210885771Y-234507714D01*
X210885771Y-234507714D02*
X211123866Y-234507714D01*
X211123866Y-234507714D02*
X211314342Y-234460095D01*
X211314342Y-234460095D02*
X211409580Y-234412476D01*
X211409580Y-234412476D02*
X211457200Y-234364857D01*
X211457200Y-234364857D02*
X211504819Y-234269619D01*
X211504819Y-234269619D02*
X211504819Y-234174381D01*
X211504819Y-234174381D02*
X211457200Y-234079143D01*
X211457200Y-234079143D02*
X211409580Y-234031524D01*
X211409580Y-234031524D02*
X211314342Y-233983905D01*
X211314342Y-233983905D02*
X211123866Y-233936286D01*
X211123866Y-233936286D02*
X210885771Y-233936286D01*
X210885771Y-233936286D02*
X210695295Y-233983905D01*
X210695295Y-233983905D02*
X210600057Y-234031524D01*
X210600057Y-234031524D02*
X210552438Y-234079143D01*
X210552438Y-234079143D02*
X210504819Y-234174381D01*
X210838152Y-235364857D02*
X211504819Y-235364857D01*
X210457200Y-235126762D02*
X211171485Y-234888667D01*
X211171485Y-234888667D02*
X211171485Y-235507714D01*
X211824819Y-229650095D02*
X210824819Y-229650095D01*
X211824819Y-230221523D02*
X211253390Y-229792952D01*
X210824819Y-230221523D02*
X211396247Y-229650095D01*
X116184819Y-231287714D02*
X115184819Y-231287714D01*
X115184819Y-231287714D02*
X115184819Y-231525809D01*
X115184819Y-231525809D02*
X115232438Y-231668666D01*
X115232438Y-231668666D02*
X115327676Y-231763904D01*
X115327676Y-231763904D02*
X115422914Y-231811523D01*
X115422914Y-231811523D02*
X115613390Y-231859142D01*
X115613390Y-231859142D02*
X115756247Y-231859142D01*
X115756247Y-231859142D02*
X115946723Y-231811523D01*
X115946723Y-231811523D02*
X116041961Y-231763904D01*
X116041961Y-231763904D02*
X116137200Y-231668666D01*
X116137200Y-231668666D02*
X116184819Y-231525809D01*
X116184819Y-231525809D02*
X116184819Y-231287714D01*
X115280057Y-232240095D02*
X115232438Y-232287714D01*
X115232438Y-232287714D02*
X115184819Y-232382952D01*
X115184819Y-232382952D02*
X115184819Y-232621047D01*
X115184819Y-232621047D02*
X115232438Y-232716285D01*
X115232438Y-232716285D02*
X115280057Y-232763904D01*
X115280057Y-232763904D02*
X115375295Y-232811523D01*
X115375295Y-232811523D02*
X115470533Y-232811523D01*
X115470533Y-232811523D02*
X115613390Y-232763904D01*
X115613390Y-232763904D02*
X116184819Y-232192476D01*
X116184819Y-232192476D02*
X116184819Y-232811523D01*
X115184819Y-233144857D02*
X115184819Y-233763904D01*
X115184819Y-233763904D02*
X115565771Y-233430571D01*
X115565771Y-233430571D02*
X115565771Y-233573428D01*
X115565771Y-233573428D02*
X115613390Y-233668666D01*
X115613390Y-233668666D02*
X115661009Y-233716285D01*
X115661009Y-233716285D02*
X115756247Y-233763904D01*
X115756247Y-233763904D02*
X115994342Y-233763904D01*
X115994342Y-233763904D02*
X116089580Y-233716285D01*
X116089580Y-233716285D02*
X116137200Y-233668666D01*
X116137200Y-233668666D02*
X116184819Y-233573428D01*
X116184819Y-233573428D02*
X116184819Y-233287714D01*
X116184819Y-233287714D02*
X116137200Y-233192476D01*
X116137200Y-233192476D02*
X116089580Y-233144857D01*
X116504819Y-228430095D02*
X115504819Y-228430095D01*
X116504819Y-229001523D02*
X115933390Y-228572952D01*
X115504819Y-229001523D02*
X116076247Y-228430095D01*
X394574819Y-233947714D02*
X393574819Y-233947714D01*
X393574819Y-233947714D02*
X393574819Y-234185809D01*
X393574819Y-234185809D02*
X393622438Y-234328666D01*
X393622438Y-234328666D02*
X393717676Y-234423904D01*
X393717676Y-234423904D02*
X393812914Y-234471523D01*
X393812914Y-234471523D02*
X394003390Y-234519142D01*
X394003390Y-234519142D02*
X394146247Y-234519142D01*
X394146247Y-234519142D02*
X394336723Y-234471523D01*
X394336723Y-234471523D02*
X394431961Y-234423904D01*
X394431961Y-234423904D02*
X394527200Y-234328666D01*
X394527200Y-234328666D02*
X394574819Y-234185809D01*
X394574819Y-234185809D02*
X394574819Y-233947714D01*
X393574819Y-234852476D02*
X393574819Y-235471523D01*
X393574819Y-235471523D02*
X393955771Y-235138190D01*
X393955771Y-235138190D02*
X393955771Y-235281047D01*
X393955771Y-235281047D02*
X394003390Y-235376285D01*
X394003390Y-235376285D02*
X394051009Y-235423904D01*
X394051009Y-235423904D02*
X394146247Y-235471523D01*
X394146247Y-235471523D02*
X394384342Y-235471523D01*
X394384342Y-235471523D02*
X394479580Y-235423904D01*
X394479580Y-235423904D02*
X394527200Y-235376285D01*
X394527200Y-235376285D02*
X394574819Y-235281047D01*
X394574819Y-235281047D02*
X394574819Y-234995333D01*
X394574819Y-234995333D02*
X394527200Y-234900095D01*
X394527200Y-234900095D02*
X394479580Y-234852476D01*
X394574819Y-236423904D02*
X394574819Y-235852476D01*
X394574819Y-236138190D02*
X393574819Y-236138190D01*
X393574819Y-236138190D02*
X393717676Y-236042952D01*
X393717676Y-236042952D02*
X393812914Y-235947714D01*
X393812914Y-235947714D02*
X393860533Y-235852476D01*
X394894819Y-231090095D02*
X393894819Y-231090095D01*
X394894819Y-231661523D02*
X394323390Y-231232952D01*
X393894819Y-231661523D02*
X394466247Y-231090095D01*
X278084819Y-251067714D02*
X277084819Y-251067714D01*
X277084819Y-251067714D02*
X277084819Y-251305809D01*
X277084819Y-251305809D02*
X277132438Y-251448666D01*
X277132438Y-251448666D02*
X277227676Y-251543904D01*
X277227676Y-251543904D02*
X277322914Y-251591523D01*
X277322914Y-251591523D02*
X277513390Y-251639142D01*
X277513390Y-251639142D02*
X277656247Y-251639142D01*
X277656247Y-251639142D02*
X277846723Y-251591523D01*
X277846723Y-251591523D02*
X277941961Y-251543904D01*
X277941961Y-251543904D02*
X278037200Y-251448666D01*
X278037200Y-251448666D02*
X278084819Y-251305809D01*
X278084819Y-251305809D02*
X278084819Y-251067714D01*
X278084819Y-252115333D02*
X278084819Y-252305809D01*
X278084819Y-252305809D02*
X278037200Y-252401047D01*
X278037200Y-252401047D02*
X277989580Y-252448666D01*
X277989580Y-252448666D02*
X277846723Y-252543904D01*
X277846723Y-252543904D02*
X277656247Y-252591523D01*
X277656247Y-252591523D02*
X277275295Y-252591523D01*
X277275295Y-252591523D02*
X277180057Y-252543904D01*
X277180057Y-252543904D02*
X277132438Y-252496285D01*
X277132438Y-252496285D02*
X277084819Y-252401047D01*
X277084819Y-252401047D02*
X277084819Y-252210571D01*
X277084819Y-252210571D02*
X277132438Y-252115333D01*
X277132438Y-252115333D02*
X277180057Y-252067714D01*
X277180057Y-252067714D02*
X277275295Y-252020095D01*
X277275295Y-252020095D02*
X277513390Y-252020095D01*
X277513390Y-252020095D02*
X277608628Y-252067714D01*
X277608628Y-252067714D02*
X277656247Y-252115333D01*
X277656247Y-252115333D02*
X277703866Y-252210571D01*
X277703866Y-252210571D02*
X277703866Y-252401047D01*
X277703866Y-252401047D02*
X277656247Y-252496285D01*
X277656247Y-252496285D02*
X277608628Y-252543904D01*
X277608628Y-252543904D02*
X277513390Y-252591523D01*
X278084819Y-253543904D02*
X278084819Y-252972476D01*
X278084819Y-253258190D02*
X277084819Y-253258190D01*
X277084819Y-253258190D02*
X277227676Y-253162952D01*
X277227676Y-253162952D02*
X277322914Y-253067714D01*
X277322914Y-253067714D02*
X277370533Y-252972476D01*
X278404819Y-248210095D02*
X277404819Y-248210095D01*
X278404819Y-248781523D02*
X277833390Y-248352952D01*
X277404819Y-248781523D02*
X277976247Y-248210095D01*
X156974819Y-290113905D02*
X155974819Y-290113905D01*
X155974819Y-290113905D02*
X155974819Y-290352000D01*
X155974819Y-290352000D02*
X156022438Y-290494857D01*
X156022438Y-290494857D02*
X156117676Y-290590095D01*
X156117676Y-290590095D02*
X156212914Y-290637714D01*
X156212914Y-290637714D02*
X156403390Y-290685333D01*
X156403390Y-290685333D02*
X156546247Y-290685333D01*
X156546247Y-290685333D02*
X156736723Y-290637714D01*
X156736723Y-290637714D02*
X156831961Y-290590095D01*
X156831961Y-290590095D02*
X156927200Y-290494857D01*
X156927200Y-290494857D02*
X156974819Y-290352000D01*
X156974819Y-290352000D02*
X156974819Y-290113905D01*
X156974819Y-291161524D02*
X156974819Y-291352000D01*
X156974819Y-291352000D02*
X156927200Y-291447238D01*
X156927200Y-291447238D02*
X156879580Y-291494857D01*
X156879580Y-291494857D02*
X156736723Y-291590095D01*
X156736723Y-291590095D02*
X156546247Y-291637714D01*
X156546247Y-291637714D02*
X156165295Y-291637714D01*
X156165295Y-291637714D02*
X156070057Y-291590095D01*
X156070057Y-291590095D02*
X156022438Y-291542476D01*
X156022438Y-291542476D02*
X155974819Y-291447238D01*
X155974819Y-291447238D02*
X155974819Y-291256762D01*
X155974819Y-291256762D02*
X156022438Y-291161524D01*
X156022438Y-291161524D02*
X156070057Y-291113905D01*
X156070057Y-291113905D02*
X156165295Y-291066286D01*
X156165295Y-291066286D02*
X156403390Y-291066286D01*
X156403390Y-291066286D02*
X156498628Y-291113905D01*
X156498628Y-291113905D02*
X156546247Y-291161524D01*
X156546247Y-291161524D02*
X156593866Y-291256762D01*
X156593866Y-291256762D02*
X156593866Y-291447238D01*
X156593866Y-291447238D02*
X156546247Y-291542476D01*
X156546247Y-291542476D02*
X156498628Y-291590095D01*
X156498628Y-291590095D02*
X156403390Y-291637714D01*
X157294819Y-286780095D02*
X156294819Y-286780095D01*
X157294819Y-287351523D02*
X156723390Y-286922952D01*
X156294819Y-287351523D02*
X156866247Y-286780095D01*
X144384819Y-251597714D02*
X143384819Y-251597714D01*
X143384819Y-251597714D02*
X143384819Y-251835809D01*
X143384819Y-251835809D02*
X143432438Y-251978666D01*
X143432438Y-251978666D02*
X143527676Y-252073904D01*
X143527676Y-252073904D02*
X143622914Y-252121523D01*
X143622914Y-252121523D02*
X143813390Y-252169142D01*
X143813390Y-252169142D02*
X143956247Y-252169142D01*
X143956247Y-252169142D02*
X144146723Y-252121523D01*
X144146723Y-252121523D02*
X144241961Y-252073904D01*
X144241961Y-252073904D02*
X144337200Y-251978666D01*
X144337200Y-251978666D02*
X144384819Y-251835809D01*
X144384819Y-251835809D02*
X144384819Y-251597714D01*
X143480057Y-252550095D02*
X143432438Y-252597714D01*
X143432438Y-252597714D02*
X143384819Y-252692952D01*
X143384819Y-252692952D02*
X143384819Y-252931047D01*
X143384819Y-252931047D02*
X143432438Y-253026285D01*
X143432438Y-253026285D02*
X143480057Y-253073904D01*
X143480057Y-253073904D02*
X143575295Y-253121523D01*
X143575295Y-253121523D02*
X143670533Y-253121523D01*
X143670533Y-253121523D02*
X143813390Y-253073904D01*
X143813390Y-253073904D02*
X144384819Y-252502476D01*
X144384819Y-252502476D02*
X144384819Y-253121523D01*
X143384819Y-254026285D02*
X143384819Y-253550095D01*
X143384819Y-253550095D02*
X143861009Y-253502476D01*
X143861009Y-253502476D02*
X143813390Y-253550095D01*
X143813390Y-253550095D02*
X143765771Y-253645333D01*
X143765771Y-253645333D02*
X143765771Y-253883428D01*
X143765771Y-253883428D02*
X143813390Y-253978666D01*
X143813390Y-253978666D02*
X143861009Y-254026285D01*
X143861009Y-254026285D02*
X143956247Y-254073904D01*
X143956247Y-254073904D02*
X144194342Y-254073904D01*
X144194342Y-254073904D02*
X144289580Y-254026285D01*
X144289580Y-254026285D02*
X144337200Y-253978666D01*
X144337200Y-253978666D02*
X144384819Y-253883428D01*
X144384819Y-253883428D02*
X144384819Y-253645333D01*
X144384819Y-253645333D02*
X144337200Y-253550095D01*
X144337200Y-253550095D02*
X144289580Y-253502476D01*
X144704819Y-248740095D02*
X143704819Y-248740095D01*
X144704819Y-249311523D02*
X144133390Y-248882952D01*
X143704819Y-249311523D02*
X144276247Y-248740095D01*
X249324819Y-232627714D02*
X248324819Y-232627714D01*
X248324819Y-232627714D02*
X248324819Y-232865809D01*
X248324819Y-232865809D02*
X248372438Y-233008666D01*
X248372438Y-233008666D02*
X248467676Y-233103904D01*
X248467676Y-233103904D02*
X248562914Y-233151523D01*
X248562914Y-233151523D02*
X248753390Y-233199142D01*
X248753390Y-233199142D02*
X248896247Y-233199142D01*
X248896247Y-233199142D02*
X249086723Y-233151523D01*
X249086723Y-233151523D02*
X249181961Y-233103904D01*
X249181961Y-233103904D02*
X249277200Y-233008666D01*
X249277200Y-233008666D02*
X249324819Y-232865809D01*
X249324819Y-232865809D02*
X249324819Y-232627714D01*
X249324819Y-233675333D02*
X249324819Y-233865809D01*
X249324819Y-233865809D02*
X249277200Y-233961047D01*
X249277200Y-233961047D02*
X249229580Y-234008666D01*
X249229580Y-234008666D02*
X249086723Y-234103904D01*
X249086723Y-234103904D02*
X248896247Y-234151523D01*
X248896247Y-234151523D02*
X248515295Y-234151523D01*
X248515295Y-234151523D02*
X248420057Y-234103904D01*
X248420057Y-234103904D02*
X248372438Y-234056285D01*
X248372438Y-234056285D02*
X248324819Y-233961047D01*
X248324819Y-233961047D02*
X248324819Y-233770571D01*
X248324819Y-233770571D02*
X248372438Y-233675333D01*
X248372438Y-233675333D02*
X248420057Y-233627714D01*
X248420057Y-233627714D02*
X248515295Y-233580095D01*
X248515295Y-233580095D02*
X248753390Y-233580095D01*
X248753390Y-233580095D02*
X248848628Y-233627714D01*
X248848628Y-233627714D02*
X248896247Y-233675333D01*
X248896247Y-233675333D02*
X248943866Y-233770571D01*
X248943866Y-233770571D02*
X248943866Y-233961047D01*
X248943866Y-233961047D02*
X248896247Y-234056285D01*
X248896247Y-234056285D02*
X248848628Y-234103904D01*
X248848628Y-234103904D02*
X248753390Y-234151523D01*
X248324819Y-234484857D02*
X248324819Y-235151523D01*
X248324819Y-235151523D02*
X249324819Y-234722952D01*
X249644819Y-229770095D02*
X248644819Y-229770095D01*
X249644819Y-230341523D02*
X249073390Y-229912952D01*
X248644819Y-230341523D02*
X249216247Y-229770095D01*
X192644819Y-232477714D02*
X191644819Y-232477714D01*
X191644819Y-232477714D02*
X191644819Y-232715809D01*
X191644819Y-232715809D02*
X191692438Y-232858666D01*
X191692438Y-232858666D02*
X191787676Y-232953904D01*
X191787676Y-232953904D02*
X191882914Y-233001523D01*
X191882914Y-233001523D02*
X192073390Y-233049142D01*
X192073390Y-233049142D02*
X192216247Y-233049142D01*
X192216247Y-233049142D02*
X192406723Y-233001523D01*
X192406723Y-233001523D02*
X192501961Y-232953904D01*
X192501961Y-232953904D02*
X192597200Y-232858666D01*
X192597200Y-232858666D02*
X192644819Y-232715809D01*
X192644819Y-232715809D02*
X192644819Y-232477714D01*
X192073390Y-233620571D02*
X192025771Y-233525333D01*
X192025771Y-233525333D02*
X191978152Y-233477714D01*
X191978152Y-233477714D02*
X191882914Y-233430095D01*
X191882914Y-233430095D02*
X191835295Y-233430095D01*
X191835295Y-233430095D02*
X191740057Y-233477714D01*
X191740057Y-233477714D02*
X191692438Y-233525333D01*
X191692438Y-233525333D02*
X191644819Y-233620571D01*
X191644819Y-233620571D02*
X191644819Y-233811047D01*
X191644819Y-233811047D02*
X191692438Y-233906285D01*
X191692438Y-233906285D02*
X191740057Y-233953904D01*
X191740057Y-233953904D02*
X191835295Y-234001523D01*
X191835295Y-234001523D02*
X191882914Y-234001523D01*
X191882914Y-234001523D02*
X191978152Y-233953904D01*
X191978152Y-233953904D02*
X192025771Y-233906285D01*
X192025771Y-233906285D02*
X192073390Y-233811047D01*
X192073390Y-233811047D02*
X192073390Y-233620571D01*
X192073390Y-233620571D02*
X192121009Y-233525333D01*
X192121009Y-233525333D02*
X192168628Y-233477714D01*
X192168628Y-233477714D02*
X192263866Y-233430095D01*
X192263866Y-233430095D02*
X192454342Y-233430095D01*
X192454342Y-233430095D02*
X192549580Y-233477714D01*
X192549580Y-233477714D02*
X192597200Y-233525333D01*
X192597200Y-233525333D02*
X192644819Y-233620571D01*
X192644819Y-233620571D02*
X192644819Y-233811047D01*
X192644819Y-233811047D02*
X192597200Y-233906285D01*
X192597200Y-233906285D02*
X192549580Y-233953904D01*
X192549580Y-233953904D02*
X192454342Y-234001523D01*
X192454342Y-234001523D02*
X192263866Y-234001523D01*
X192263866Y-234001523D02*
X192168628Y-233953904D01*
X192168628Y-233953904D02*
X192121009Y-233906285D01*
X192121009Y-233906285D02*
X192073390Y-233811047D01*
X192073390Y-234572952D02*
X192025771Y-234477714D01*
X192025771Y-234477714D02*
X191978152Y-234430095D01*
X191978152Y-234430095D02*
X191882914Y-234382476D01*
X191882914Y-234382476D02*
X191835295Y-234382476D01*
X191835295Y-234382476D02*
X191740057Y-234430095D01*
X191740057Y-234430095D02*
X191692438Y-234477714D01*
X191692438Y-234477714D02*
X191644819Y-234572952D01*
X191644819Y-234572952D02*
X191644819Y-234763428D01*
X191644819Y-234763428D02*
X191692438Y-234858666D01*
X191692438Y-234858666D02*
X191740057Y-234906285D01*
X191740057Y-234906285D02*
X191835295Y-234953904D01*
X191835295Y-234953904D02*
X191882914Y-234953904D01*
X191882914Y-234953904D02*
X191978152Y-234906285D01*
X191978152Y-234906285D02*
X192025771Y-234858666D01*
X192025771Y-234858666D02*
X192073390Y-234763428D01*
X192073390Y-234763428D02*
X192073390Y-234572952D01*
X192073390Y-234572952D02*
X192121009Y-234477714D01*
X192121009Y-234477714D02*
X192168628Y-234430095D01*
X192168628Y-234430095D02*
X192263866Y-234382476D01*
X192263866Y-234382476D02*
X192454342Y-234382476D01*
X192454342Y-234382476D02*
X192549580Y-234430095D01*
X192549580Y-234430095D02*
X192597200Y-234477714D01*
X192597200Y-234477714D02*
X192644819Y-234572952D01*
X192644819Y-234572952D02*
X192644819Y-234763428D01*
X192644819Y-234763428D02*
X192597200Y-234858666D01*
X192597200Y-234858666D02*
X192549580Y-234906285D01*
X192549580Y-234906285D02*
X192454342Y-234953904D01*
X192454342Y-234953904D02*
X192263866Y-234953904D01*
X192263866Y-234953904D02*
X192168628Y-234906285D01*
X192168628Y-234906285D02*
X192121009Y-234858666D01*
X192121009Y-234858666D02*
X192073390Y-234763428D01*
X192964819Y-229620095D02*
X191964819Y-229620095D01*
X192964819Y-230191523D02*
X192393390Y-229762952D01*
X191964819Y-230191523D02*
X192536247Y-229620095D01*
X401964819Y-250641524D02*
X400964819Y-250641524D01*
X400964819Y-250641524D02*
X400964819Y-250879619D01*
X400964819Y-250879619D02*
X401012438Y-251022476D01*
X401012438Y-251022476D02*
X401107676Y-251117714D01*
X401107676Y-251117714D02*
X401202914Y-251165333D01*
X401202914Y-251165333D02*
X401393390Y-251212952D01*
X401393390Y-251212952D02*
X401536247Y-251212952D01*
X401536247Y-251212952D02*
X401726723Y-251165333D01*
X401726723Y-251165333D02*
X401821961Y-251117714D01*
X401821961Y-251117714D02*
X401917200Y-251022476D01*
X401917200Y-251022476D02*
X401964819Y-250879619D01*
X401964819Y-250879619D02*
X401964819Y-250641524D01*
X401964819Y-252165333D02*
X401964819Y-251593905D01*
X401964819Y-251879619D02*
X400964819Y-251879619D01*
X400964819Y-251879619D02*
X401107676Y-251784381D01*
X401107676Y-251784381D02*
X401202914Y-251689143D01*
X401202914Y-251689143D02*
X401250533Y-251593905D01*
X400964819Y-252784381D02*
X400964819Y-252879619D01*
X400964819Y-252879619D02*
X401012438Y-252974857D01*
X401012438Y-252974857D02*
X401060057Y-253022476D01*
X401060057Y-253022476D02*
X401155295Y-253070095D01*
X401155295Y-253070095D02*
X401345771Y-253117714D01*
X401345771Y-253117714D02*
X401583866Y-253117714D01*
X401583866Y-253117714D02*
X401774342Y-253070095D01*
X401774342Y-253070095D02*
X401869580Y-253022476D01*
X401869580Y-253022476D02*
X401917200Y-252974857D01*
X401917200Y-252974857D02*
X401964819Y-252879619D01*
X401964819Y-252879619D02*
X401964819Y-252784381D01*
X401964819Y-252784381D02*
X401917200Y-252689143D01*
X401917200Y-252689143D02*
X401869580Y-252641524D01*
X401869580Y-252641524D02*
X401774342Y-252593905D01*
X401774342Y-252593905D02*
X401583866Y-252546286D01*
X401583866Y-252546286D02*
X401345771Y-252546286D01*
X401345771Y-252546286D02*
X401155295Y-252593905D01*
X401155295Y-252593905D02*
X401060057Y-252641524D01*
X401060057Y-252641524D02*
X401012438Y-252689143D01*
X401012438Y-252689143D02*
X400964819Y-252784381D01*
X400964819Y-253974857D02*
X400964819Y-253784381D01*
X400964819Y-253784381D02*
X401012438Y-253689143D01*
X401012438Y-253689143D02*
X401060057Y-253641524D01*
X401060057Y-253641524D02*
X401202914Y-253546286D01*
X401202914Y-253546286D02*
X401393390Y-253498667D01*
X401393390Y-253498667D02*
X401774342Y-253498667D01*
X401774342Y-253498667D02*
X401869580Y-253546286D01*
X401869580Y-253546286D02*
X401917200Y-253593905D01*
X401917200Y-253593905D02*
X401964819Y-253689143D01*
X401964819Y-253689143D02*
X401964819Y-253879619D01*
X401964819Y-253879619D02*
X401917200Y-253974857D01*
X401917200Y-253974857D02*
X401869580Y-254022476D01*
X401869580Y-254022476D02*
X401774342Y-254070095D01*
X401774342Y-254070095D02*
X401536247Y-254070095D01*
X401536247Y-254070095D02*
X401441009Y-254022476D01*
X401441009Y-254022476D02*
X401393390Y-253974857D01*
X401393390Y-253974857D02*
X401345771Y-253879619D01*
X401345771Y-253879619D02*
X401345771Y-253689143D01*
X401345771Y-253689143D02*
X401393390Y-253593905D01*
X401393390Y-253593905D02*
X401441009Y-253546286D01*
X401441009Y-253546286D02*
X401536247Y-253498667D01*
X402284819Y-248260095D02*
X401284819Y-248260095D01*
X402284819Y-248831523D02*
X401713390Y-248402952D01*
X401284819Y-248831523D02*
X401856247Y-248260095D01*
X297074819Y-251787714D02*
X296074819Y-251787714D01*
X296074819Y-251787714D02*
X296074819Y-252025809D01*
X296074819Y-252025809D02*
X296122438Y-252168666D01*
X296122438Y-252168666D02*
X296217676Y-252263904D01*
X296217676Y-252263904D02*
X296312914Y-252311523D01*
X296312914Y-252311523D02*
X296503390Y-252359142D01*
X296503390Y-252359142D02*
X296646247Y-252359142D01*
X296646247Y-252359142D02*
X296836723Y-252311523D01*
X296836723Y-252311523D02*
X296931961Y-252263904D01*
X296931961Y-252263904D02*
X297027200Y-252168666D01*
X297027200Y-252168666D02*
X297074819Y-252025809D01*
X297074819Y-252025809D02*
X297074819Y-251787714D01*
X296074819Y-252692476D02*
X296074819Y-253359142D01*
X296074819Y-253359142D02*
X297074819Y-252930571D01*
X296074819Y-254216285D02*
X296074819Y-253740095D01*
X296074819Y-253740095D02*
X296551009Y-253692476D01*
X296551009Y-253692476D02*
X296503390Y-253740095D01*
X296503390Y-253740095D02*
X296455771Y-253835333D01*
X296455771Y-253835333D02*
X296455771Y-254073428D01*
X296455771Y-254073428D02*
X296503390Y-254168666D01*
X296503390Y-254168666D02*
X296551009Y-254216285D01*
X296551009Y-254216285D02*
X296646247Y-254263904D01*
X296646247Y-254263904D02*
X296884342Y-254263904D01*
X296884342Y-254263904D02*
X296979580Y-254216285D01*
X296979580Y-254216285D02*
X297027200Y-254168666D01*
X297027200Y-254168666D02*
X297074819Y-254073428D01*
X297074819Y-254073428D02*
X297074819Y-253835333D01*
X297074819Y-253835333D02*
X297027200Y-253740095D01*
X297027200Y-253740095D02*
X296979580Y-253692476D01*
X297394819Y-248930095D02*
X296394819Y-248930095D01*
X297394819Y-249501523D02*
X296823390Y-249072952D01*
X296394819Y-249501523D02*
X296966247Y-248930095D01*
X358374819Y-249117714D02*
X357374819Y-249117714D01*
X357374819Y-249117714D02*
X357374819Y-249355809D01*
X357374819Y-249355809D02*
X357422438Y-249498666D01*
X357422438Y-249498666D02*
X357517676Y-249593904D01*
X357517676Y-249593904D02*
X357612914Y-249641523D01*
X357612914Y-249641523D02*
X357803390Y-249689142D01*
X357803390Y-249689142D02*
X357946247Y-249689142D01*
X357946247Y-249689142D02*
X358136723Y-249641523D01*
X358136723Y-249641523D02*
X358231961Y-249593904D01*
X358231961Y-249593904D02*
X358327200Y-249498666D01*
X358327200Y-249498666D02*
X358374819Y-249355809D01*
X358374819Y-249355809D02*
X358374819Y-249117714D01*
X357374819Y-250593904D02*
X357374819Y-250117714D01*
X357374819Y-250117714D02*
X357851009Y-250070095D01*
X357851009Y-250070095D02*
X357803390Y-250117714D01*
X357803390Y-250117714D02*
X357755771Y-250212952D01*
X357755771Y-250212952D02*
X357755771Y-250451047D01*
X357755771Y-250451047D02*
X357803390Y-250546285D01*
X357803390Y-250546285D02*
X357851009Y-250593904D01*
X357851009Y-250593904D02*
X357946247Y-250641523D01*
X357946247Y-250641523D02*
X358184342Y-250641523D01*
X358184342Y-250641523D02*
X358279580Y-250593904D01*
X358279580Y-250593904D02*
X358327200Y-250546285D01*
X358327200Y-250546285D02*
X358374819Y-250451047D01*
X358374819Y-250451047D02*
X358374819Y-250212952D01*
X358374819Y-250212952D02*
X358327200Y-250117714D01*
X358327200Y-250117714D02*
X358279580Y-250070095D01*
X357374819Y-250974857D02*
X357374819Y-251641523D01*
X357374819Y-251641523D02*
X358374819Y-251212952D01*
X358694819Y-246260095D02*
X357694819Y-246260095D01*
X358694819Y-246831523D02*
X358123390Y-246402952D01*
X357694819Y-246831523D02*
X358266247Y-246260095D01*
X316184819Y-251437714D02*
X315184819Y-251437714D01*
X315184819Y-251437714D02*
X315184819Y-251675809D01*
X315184819Y-251675809D02*
X315232438Y-251818666D01*
X315232438Y-251818666D02*
X315327676Y-251913904D01*
X315327676Y-251913904D02*
X315422914Y-251961523D01*
X315422914Y-251961523D02*
X315613390Y-252009142D01*
X315613390Y-252009142D02*
X315756247Y-252009142D01*
X315756247Y-252009142D02*
X315946723Y-251961523D01*
X315946723Y-251961523D02*
X316041961Y-251913904D01*
X316041961Y-251913904D02*
X316137200Y-251818666D01*
X316137200Y-251818666D02*
X316184819Y-251675809D01*
X316184819Y-251675809D02*
X316184819Y-251437714D01*
X315613390Y-252580571D02*
X315565771Y-252485333D01*
X315565771Y-252485333D02*
X315518152Y-252437714D01*
X315518152Y-252437714D02*
X315422914Y-252390095D01*
X315422914Y-252390095D02*
X315375295Y-252390095D01*
X315375295Y-252390095D02*
X315280057Y-252437714D01*
X315280057Y-252437714D02*
X315232438Y-252485333D01*
X315232438Y-252485333D02*
X315184819Y-252580571D01*
X315184819Y-252580571D02*
X315184819Y-252771047D01*
X315184819Y-252771047D02*
X315232438Y-252866285D01*
X315232438Y-252866285D02*
X315280057Y-252913904D01*
X315280057Y-252913904D02*
X315375295Y-252961523D01*
X315375295Y-252961523D02*
X315422914Y-252961523D01*
X315422914Y-252961523D02*
X315518152Y-252913904D01*
X315518152Y-252913904D02*
X315565771Y-252866285D01*
X315565771Y-252866285D02*
X315613390Y-252771047D01*
X315613390Y-252771047D02*
X315613390Y-252580571D01*
X315613390Y-252580571D02*
X315661009Y-252485333D01*
X315661009Y-252485333D02*
X315708628Y-252437714D01*
X315708628Y-252437714D02*
X315803866Y-252390095D01*
X315803866Y-252390095D02*
X315994342Y-252390095D01*
X315994342Y-252390095D02*
X316089580Y-252437714D01*
X316089580Y-252437714D02*
X316137200Y-252485333D01*
X316137200Y-252485333D02*
X316184819Y-252580571D01*
X316184819Y-252580571D02*
X316184819Y-252771047D01*
X316184819Y-252771047D02*
X316137200Y-252866285D01*
X316137200Y-252866285D02*
X316089580Y-252913904D01*
X316089580Y-252913904D02*
X315994342Y-252961523D01*
X315994342Y-252961523D02*
X315803866Y-252961523D01*
X315803866Y-252961523D02*
X315708628Y-252913904D01*
X315708628Y-252913904D02*
X315661009Y-252866285D01*
X315661009Y-252866285D02*
X315613390Y-252771047D01*
X316184819Y-253437714D02*
X316184819Y-253628190D01*
X316184819Y-253628190D02*
X316137200Y-253723428D01*
X316137200Y-253723428D02*
X316089580Y-253771047D01*
X316089580Y-253771047D02*
X315946723Y-253866285D01*
X315946723Y-253866285D02*
X315756247Y-253913904D01*
X315756247Y-253913904D02*
X315375295Y-253913904D01*
X315375295Y-253913904D02*
X315280057Y-253866285D01*
X315280057Y-253866285D02*
X315232438Y-253818666D01*
X315232438Y-253818666D02*
X315184819Y-253723428D01*
X315184819Y-253723428D02*
X315184819Y-253532952D01*
X315184819Y-253532952D02*
X315232438Y-253437714D01*
X315232438Y-253437714D02*
X315280057Y-253390095D01*
X315280057Y-253390095D02*
X315375295Y-253342476D01*
X315375295Y-253342476D02*
X315613390Y-253342476D01*
X315613390Y-253342476D02*
X315708628Y-253390095D01*
X315708628Y-253390095D02*
X315756247Y-253437714D01*
X315756247Y-253437714D02*
X315803866Y-253532952D01*
X315803866Y-253532952D02*
X315803866Y-253723428D01*
X315803866Y-253723428D02*
X315756247Y-253818666D01*
X315756247Y-253818666D02*
X315708628Y-253866285D01*
X315708628Y-253866285D02*
X315613390Y-253913904D01*
X316504819Y-248580095D02*
X315504819Y-248580095D01*
X316504819Y-249151523D02*
X315933390Y-248722952D01*
X315504819Y-249151523D02*
X316076247Y-248580095D01*
X415213339Y-248506104D02*
X414737149Y-248506104D01*
X415308577Y-248791819D02*
X414975244Y-247791819D01*
X414975244Y-247791819D02*
X414641911Y-248791819D01*
X413784768Y-248791819D02*
X414356196Y-248791819D01*
X414070482Y-248791819D02*
X414070482Y-247791819D01*
X414070482Y-247791819D02*
X414165720Y-247934676D01*
X414165720Y-247934676D02*
X414260958Y-248029914D01*
X414260958Y-248029914D02*
X414356196Y-248077533D01*
X328144819Y-289527714D02*
X327144819Y-289527714D01*
X327144819Y-289527714D02*
X327144819Y-289765809D01*
X327144819Y-289765809D02*
X327192438Y-289908666D01*
X327192438Y-289908666D02*
X327287676Y-290003904D01*
X327287676Y-290003904D02*
X327382914Y-290051523D01*
X327382914Y-290051523D02*
X327573390Y-290099142D01*
X327573390Y-290099142D02*
X327716247Y-290099142D01*
X327716247Y-290099142D02*
X327906723Y-290051523D01*
X327906723Y-290051523D02*
X328001961Y-290003904D01*
X328001961Y-290003904D02*
X328097200Y-289908666D01*
X328097200Y-289908666D02*
X328144819Y-289765809D01*
X328144819Y-289765809D02*
X328144819Y-289527714D01*
X328144819Y-291051523D02*
X328144819Y-290480095D01*
X328144819Y-290765809D02*
X327144819Y-290765809D01*
X327144819Y-290765809D02*
X327287676Y-290670571D01*
X327287676Y-290670571D02*
X327382914Y-290575333D01*
X327382914Y-290575333D02*
X327430533Y-290480095D01*
X327573390Y-291622952D02*
X327525771Y-291527714D01*
X327525771Y-291527714D02*
X327478152Y-291480095D01*
X327478152Y-291480095D02*
X327382914Y-291432476D01*
X327382914Y-291432476D02*
X327335295Y-291432476D01*
X327335295Y-291432476D02*
X327240057Y-291480095D01*
X327240057Y-291480095D02*
X327192438Y-291527714D01*
X327192438Y-291527714D02*
X327144819Y-291622952D01*
X327144819Y-291622952D02*
X327144819Y-291813428D01*
X327144819Y-291813428D02*
X327192438Y-291908666D01*
X327192438Y-291908666D02*
X327240057Y-291956285D01*
X327240057Y-291956285D02*
X327335295Y-292003904D01*
X327335295Y-292003904D02*
X327382914Y-292003904D01*
X327382914Y-292003904D02*
X327478152Y-291956285D01*
X327478152Y-291956285D02*
X327525771Y-291908666D01*
X327525771Y-291908666D02*
X327573390Y-291813428D01*
X327573390Y-291813428D02*
X327573390Y-291622952D01*
X327573390Y-291622952D02*
X327621009Y-291527714D01*
X327621009Y-291527714D02*
X327668628Y-291480095D01*
X327668628Y-291480095D02*
X327763866Y-291432476D01*
X327763866Y-291432476D02*
X327954342Y-291432476D01*
X327954342Y-291432476D02*
X328049580Y-291480095D01*
X328049580Y-291480095D02*
X328097200Y-291527714D01*
X328097200Y-291527714D02*
X328144819Y-291622952D01*
X328144819Y-291622952D02*
X328144819Y-291813428D01*
X328144819Y-291813428D02*
X328097200Y-291908666D01*
X328097200Y-291908666D02*
X328049580Y-291956285D01*
X328049580Y-291956285D02*
X327954342Y-292003904D01*
X327954342Y-292003904D02*
X327763866Y-292003904D01*
X327763866Y-292003904D02*
X327668628Y-291956285D01*
X327668628Y-291956285D02*
X327621009Y-291908666D01*
X327621009Y-291908666D02*
X327573390Y-291813428D01*
X328464819Y-286670095D02*
X327464819Y-286670095D01*
X328464819Y-287241523D02*
X327893390Y-286812952D01*
X327464819Y-287241523D02*
X328036247Y-286670095D01*
X230424819Y-232037714D02*
X229424819Y-232037714D01*
X229424819Y-232037714D02*
X229424819Y-232275809D01*
X229424819Y-232275809D02*
X229472438Y-232418666D01*
X229472438Y-232418666D02*
X229567676Y-232513904D01*
X229567676Y-232513904D02*
X229662914Y-232561523D01*
X229662914Y-232561523D02*
X229853390Y-232609142D01*
X229853390Y-232609142D02*
X229996247Y-232609142D01*
X229996247Y-232609142D02*
X230186723Y-232561523D01*
X230186723Y-232561523D02*
X230281961Y-232513904D01*
X230281961Y-232513904D02*
X230377200Y-232418666D01*
X230377200Y-232418666D02*
X230424819Y-232275809D01*
X230424819Y-232275809D02*
X230424819Y-232037714D01*
X229853390Y-233180571D02*
X229805771Y-233085333D01*
X229805771Y-233085333D02*
X229758152Y-233037714D01*
X229758152Y-233037714D02*
X229662914Y-232990095D01*
X229662914Y-232990095D02*
X229615295Y-232990095D01*
X229615295Y-232990095D02*
X229520057Y-233037714D01*
X229520057Y-233037714D02*
X229472438Y-233085333D01*
X229472438Y-233085333D02*
X229424819Y-233180571D01*
X229424819Y-233180571D02*
X229424819Y-233371047D01*
X229424819Y-233371047D02*
X229472438Y-233466285D01*
X229472438Y-233466285D02*
X229520057Y-233513904D01*
X229520057Y-233513904D02*
X229615295Y-233561523D01*
X229615295Y-233561523D02*
X229662914Y-233561523D01*
X229662914Y-233561523D02*
X229758152Y-233513904D01*
X229758152Y-233513904D02*
X229805771Y-233466285D01*
X229805771Y-233466285D02*
X229853390Y-233371047D01*
X229853390Y-233371047D02*
X229853390Y-233180571D01*
X229853390Y-233180571D02*
X229901009Y-233085333D01*
X229901009Y-233085333D02*
X229948628Y-233037714D01*
X229948628Y-233037714D02*
X230043866Y-232990095D01*
X230043866Y-232990095D02*
X230234342Y-232990095D01*
X230234342Y-232990095D02*
X230329580Y-233037714D01*
X230329580Y-233037714D02*
X230377200Y-233085333D01*
X230377200Y-233085333D02*
X230424819Y-233180571D01*
X230424819Y-233180571D02*
X230424819Y-233371047D01*
X230424819Y-233371047D02*
X230377200Y-233466285D01*
X230377200Y-233466285D02*
X230329580Y-233513904D01*
X230329580Y-233513904D02*
X230234342Y-233561523D01*
X230234342Y-233561523D02*
X230043866Y-233561523D01*
X230043866Y-233561523D02*
X229948628Y-233513904D01*
X229948628Y-233513904D02*
X229901009Y-233466285D01*
X229901009Y-233466285D02*
X229853390Y-233371047D01*
X229520057Y-233942476D02*
X229472438Y-233990095D01*
X229472438Y-233990095D02*
X229424819Y-234085333D01*
X229424819Y-234085333D02*
X229424819Y-234323428D01*
X229424819Y-234323428D02*
X229472438Y-234418666D01*
X229472438Y-234418666D02*
X229520057Y-234466285D01*
X229520057Y-234466285D02*
X229615295Y-234513904D01*
X229615295Y-234513904D02*
X229710533Y-234513904D01*
X229710533Y-234513904D02*
X229853390Y-234466285D01*
X229853390Y-234466285D02*
X230424819Y-233894857D01*
X230424819Y-233894857D02*
X230424819Y-234513904D01*
X230744819Y-229180095D02*
X229744819Y-229180095D01*
X230744819Y-229751523D02*
X230173390Y-229322952D01*
X229744819Y-229751523D02*
X230316247Y-229180095D01*
X270814819Y-281797714D02*
X269814819Y-281797714D01*
X269814819Y-281797714D02*
X269814819Y-282035809D01*
X269814819Y-282035809D02*
X269862438Y-282178666D01*
X269862438Y-282178666D02*
X269957676Y-282273904D01*
X269957676Y-282273904D02*
X270052914Y-282321523D01*
X270052914Y-282321523D02*
X270243390Y-282369142D01*
X270243390Y-282369142D02*
X270386247Y-282369142D01*
X270386247Y-282369142D02*
X270576723Y-282321523D01*
X270576723Y-282321523D02*
X270671961Y-282273904D01*
X270671961Y-282273904D02*
X270767200Y-282178666D01*
X270767200Y-282178666D02*
X270814819Y-282035809D01*
X270814819Y-282035809D02*
X270814819Y-281797714D01*
X270243390Y-282940571D02*
X270195771Y-282845333D01*
X270195771Y-282845333D02*
X270148152Y-282797714D01*
X270148152Y-282797714D02*
X270052914Y-282750095D01*
X270052914Y-282750095D02*
X270005295Y-282750095D01*
X270005295Y-282750095D02*
X269910057Y-282797714D01*
X269910057Y-282797714D02*
X269862438Y-282845333D01*
X269862438Y-282845333D02*
X269814819Y-282940571D01*
X269814819Y-282940571D02*
X269814819Y-283131047D01*
X269814819Y-283131047D02*
X269862438Y-283226285D01*
X269862438Y-283226285D02*
X269910057Y-283273904D01*
X269910057Y-283273904D02*
X270005295Y-283321523D01*
X270005295Y-283321523D02*
X270052914Y-283321523D01*
X270052914Y-283321523D02*
X270148152Y-283273904D01*
X270148152Y-283273904D02*
X270195771Y-283226285D01*
X270195771Y-283226285D02*
X270243390Y-283131047D01*
X270243390Y-283131047D02*
X270243390Y-282940571D01*
X270243390Y-282940571D02*
X270291009Y-282845333D01*
X270291009Y-282845333D02*
X270338628Y-282797714D01*
X270338628Y-282797714D02*
X270433866Y-282750095D01*
X270433866Y-282750095D02*
X270624342Y-282750095D01*
X270624342Y-282750095D02*
X270719580Y-282797714D01*
X270719580Y-282797714D02*
X270767200Y-282845333D01*
X270767200Y-282845333D02*
X270814819Y-282940571D01*
X270814819Y-282940571D02*
X270814819Y-283131047D01*
X270814819Y-283131047D02*
X270767200Y-283226285D01*
X270767200Y-283226285D02*
X270719580Y-283273904D01*
X270719580Y-283273904D02*
X270624342Y-283321523D01*
X270624342Y-283321523D02*
X270433866Y-283321523D01*
X270433866Y-283321523D02*
X270338628Y-283273904D01*
X270338628Y-283273904D02*
X270291009Y-283226285D01*
X270291009Y-283226285D02*
X270243390Y-283131047D01*
X269814819Y-283654857D02*
X269814819Y-284273904D01*
X269814819Y-284273904D02*
X270195771Y-283940571D01*
X270195771Y-283940571D02*
X270195771Y-284083428D01*
X270195771Y-284083428D02*
X270243390Y-284178666D01*
X270243390Y-284178666D02*
X270291009Y-284226285D01*
X270291009Y-284226285D02*
X270386247Y-284273904D01*
X270386247Y-284273904D02*
X270624342Y-284273904D01*
X270624342Y-284273904D02*
X270719580Y-284226285D01*
X270719580Y-284226285D02*
X270767200Y-284178666D01*
X270767200Y-284178666D02*
X270814819Y-284083428D01*
X270814819Y-284083428D02*
X270814819Y-283797714D01*
X270814819Y-283797714D02*
X270767200Y-283702476D01*
X270767200Y-283702476D02*
X270719580Y-283654857D01*
X271134819Y-278940095D02*
X270134819Y-278940095D01*
X271134819Y-279511523D02*
X270563390Y-279082952D01*
X270134819Y-279511523D02*
X270706247Y-278940095D01*
X135104819Y-232317714D02*
X134104819Y-232317714D01*
X134104819Y-232317714D02*
X134104819Y-232555809D01*
X134104819Y-232555809D02*
X134152438Y-232698666D01*
X134152438Y-232698666D02*
X134247676Y-232793904D01*
X134247676Y-232793904D02*
X134342914Y-232841523D01*
X134342914Y-232841523D02*
X134533390Y-232889142D01*
X134533390Y-232889142D02*
X134676247Y-232889142D01*
X134676247Y-232889142D02*
X134866723Y-232841523D01*
X134866723Y-232841523D02*
X134961961Y-232793904D01*
X134961961Y-232793904D02*
X135057200Y-232698666D01*
X135057200Y-232698666D02*
X135104819Y-232555809D01*
X135104819Y-232555809D02*
X135104819Y-232317714D01*
X134104819Y-233222476D02*
X134104819Y-233841523D01*
X134104819Y-233841523D02*
X134485771Y-233508190D01*
X134485771Y-233508190D02*
X134485771Y-233651047D01*
X134485771Y-233651047D02*
X134533390Y-233746285D01*
X134533390Y-233746285D02*
X134581009Y-233793904D01*
X134581009Y-233793904D02*
X134676247Y-233841523D01*
X134676247Y-233841523D02*
X134914342Y-233841523D01*
X134914342Y-233841523D02*
X135009580Y-233793904D01*
X135009580Y-233793904D02*
X135057200Y-233746285D01*
X135057200Y-233746285D02*
X135104819Y-233651047D01*
X135104819Y-233651047D02*
X135104819Y-233365333D01*
X135104819Y-233365333D02*
X135057200Y-233270095D01*
X135057200Y-233270095D02*
X135009580Y-233222476D01*
X135104819Y-234317714D02*
X135104819Y-234508190D01*
X135104819Y-234508190D02*
X135057200Y-234603428D01*
X135057200Y-234603428D02*
X135009580Y-234651047D01*
X135009580Y-234651047D02*
X134866723Y-234746285D01*
X134866723Y-234746285D02*
X134676247Y-234793904D01*
X134676247Y-234793904D02*
X134295295Y-234793904D01*
X134295295Y-234793904D02*
X134200057Y-234746285D01*
X134200057Y-234746285D02*
X134152438Y-234698666D01*
X134152438Y-234698666D02*
X134104819Y-234603428D01*
X134104819Y-234603428D02*
X134104819Y-234412952D01*
X134104819Y-234412952D02*
X134152438Y-234317714D01*
X134152438Y-234317714D02*
X134200057Y-234270095D01*
X134200057Y-234270095D02*
X134295295Y-234222476D01*
X134295295Y-234222476D02*
X134533390Y-234222476D01*
X134533390Y-234222476D02*
X134628628Y-234270095D01*
X134628628Y-234270095D02*
X134676247Y-234317714D01*
X134676247Y-234317714D02*
X134723866Y-234412952D01*
X134723866Y-234412952D02*
X134723866Y-234603428D01*
X134723866Y-234603428D02*
X134676247Y-234698666D01*
X134676247Y-234698666D02*
X134628628Y-234746285D01*
X134628628Y-234746285D02*
X134533390Y-234793904D01*
X135424819Y-229460095D02*
X134424819Y-229460095D01*
X135424819Y-230031523D02*
X134853390Y-229602952D01*
X134424819Y-230031523D02*
X134996247Y-229460095D01*
X401824819Y-308573905D02*
X400824819Y-308573905D01*
X400824819Y-308573905D02*
X400824819Y-308812000D01*
X400824819Y-308812000D02*
X400872438Y-308954857D01*
X400872438Y-308954857D02*
X400967676Y-309050095D01*
X400967676Y-309050095D02*
X401062914Y-309097714D01*
X401062914Y-309097714D02*
X401253390Y-309145333D01*
X401253390Y-309145333D02*
X401396247Y-309145333D01*
X401396247Y-309145333D02*
X401586723Y-309097714D01*
X401586723Y-309097714D02*
X401681961Y-309050095D01*
X401681961Y-309050095D02*
X401777200Y-308954857D01*
X401777200Y-308954857D02*
X401824819Y-308812000D01*
X401824819Y-308812000D02*
X401824819Y-308573905D01*
X401253390Y-309716762D02*
X401205771Y-309621524D01*
X401205771Y-309621524D02*
X401158152Y-309573905D01*
X401158152Y-309573905D02*
X401062914Y-309526286D01*
X401062914Y-309526286D02*
X401015295Y-309526286D01*
X401015295Y-309526286D02*
X400920057Y-309573905D01*
X400920057Y-309573905D02*
X400872438Y-309621524D01*
X400872438Y-309621524D02*
X400824819Y-309716762D01*
X400824819Y-309716762D02*
X400824819Y-309907238D01*
X400824819Y-309907238D02*
X400872438Y-310002476D01*
X400872438Y-310002476D02*
X400920057Y-310050095D01*
X400920057Y-310050095D02*
X401015295Y-310097714D01*
X401015295Y-310097714D02*
X401062914Y-310097714D01*
X401062914Y-310097714D02*
X401158152Y-310050095D01*
X401158152Y-310050095D02*
X401205771Y-310002476D01*
X401205771Y-310002476D02*
X401253390Y-309907238D01*
X401253390Y-309907238D02*
X401253390Y-309716762D01*
X401253390Y-309716762D02*
X401301009Y-309621524D01*
X401301009Y-309621524D02*
X401348628Y-309573905D01*
X401348628Y-309573905D02*
X401443866Y-309526286D01*
X401443866Y-309526286D02*
X401634342Y-309526286D01*
X401634342Y-309526286D02*
X401729580Y-309573905D01*
X401729580Y-309573905D02*
X401777200Y-309621524D01*
X401777200Y-309621524D02*
X401824819Y-309716762D01*
X401824819Y-309716762D02*
X401824819Y-309907238D01*
X401824819Y-309907238D02*
X401777200Y-310002476D01*
X401777200Y-310002476D02*
X401729580Y-310050095D01*
X401729580Y-310050095D02*
X401634342Y-310097714D01*
X401634342Y-310097714D02*
X401443866Y-310097714D01*
X401443866Y-310097714D02*
X401348628Y-310050095D01*
X401348628Y-310050095D02*
X401301009Y-310002476D01*
X401301009Y-310002476D02*
X401253390Y-309907238D01*
X402144819Y-305240095D02*
X401144819Y-305240095D01*
X402144819Y-305811523D02*
X401573390Y-305382952D01*
X401144819Y-305811523D02*
X401716247Y-305240095D01*
X382604819Y-308847714D02*
X381604819Y-308847714D01*
X381604819Y-308847714D02*
X381604819Y-309085809D01*
X381604819Y-309085809D02*
X381652438Y-309228666D01*
X381652438Y-309228666D02*
X381747676Y-309323904D01*
X381747676Y-309323904D02*
X381842914Y-309371523D01*
X381842914Y-309371523D02*
X382033390Y-309419142D01*
X382033390Y-309419142D02*
X382176247Y-309419142D01*
X382176247Y-309419142D02*
X382366723Y-309371523D01*
X382366723Y-309371523D02*
X382461961Y-309323904D01*
X382461961Y-309323904D02*
X382557200Y-309228666D01*
X382557200Y-309228666D02*
X382604819Y-309085809D01*
X382604819Y-309085809D02*
X382604819Y-308847714D01*
X381604819Y-309752476D02*
X381604819Y-310371523D01*
X381604819Y-310371523D02*
X381985771Y-310038190D01*
X381985771Y-310038190D02*
X381985771Y-310181047D01*
X381985771Y-310181047D02*
X382033390Y-310276285D01*
X382033390Y-310276285D02*
X382081009Y-310323904D01*
X382081009Y-310323904D02*
X382176247Y-310371523D01*
X382176247Y-310371523D02*
X382414342Y-310371523D01*
X382414342Y-310371523D02*
X382509580Y-310323904D01*
X382509580Y-310323904D02*
X382557200Y-310276285D01*
X382557200Y-310276285D02*
X382604819Y-310181047D01*
X382604819Y-310181047D02*
X382604819Y-309895333D01*
X382604819Y-309895333D02*
X382557200Y-309800095D01*
X382557200Y-309800095D02*
X382509580Y-309752476D01*
X381700057Y-310752476D02*
X381652438Y-310800095D01*
X381652438Y-310800095D02*
X381604819Y-310895333D01*
X381604819Y-310895333D02*
X381604819Y-311133428D01*
X381604819Y-311133428D02*
X381652438Y-311228666D01*
X381652438Y-311228666D02*
X381700057Y-311276285D01*
X381700057Y-311276285D02*
X381795295Y-311323904D01*
X381795295Y-311323904D02*
X381890533Y-311323904D01*
X381890533Y-311323904D02*
X382033390Y-311276285D01*
X382033390Y-311276285D02*
X382604819Y-310704857D01*
X382604819Y-310704857D02*
X382604819Y-311323904D01*
X382924819Y-305990095D02*
X381924819Y-305990095D01*
X382924819Y-306561523D02*
X382353390Y-306132952D01*
X381924819Y-306561523D02*
X382496247Y-305990095D01*
X220854819Y-254407714D02*
X219854819Y-254407714D01*
X219854819Y-254407714D02*
X219854819Y-254645809D01*
X219854819Y-254645809D02*
X219902438Y-254788666D01*
X219902438Y-254788666D02*
X219997676Y-254883904D01*
X219997676Y-254883904D02*
X220092914Y-254931523D01*
X220092914Y-254931523D02*
X220283390Y-254979142D01*
X220283390Y-254979142D02*
X220426247Y-254979142D01*
X220426247Y-254979142D02*
X220616723Y-254931523D01*
X220616723Y-254931523D02*
X220711961Y-254883904D01*
X220711961Y-254883904D02*
X220807200Y-254788666D01*
X220807200Y-254788666D02*
X220854819Y-254645809D01*
X220854819Y-254645809D02*
X220854819Y-254407714D01*
X220188152Y-255836285D02*
X220854819Y-255836285D01*
X219807200Y-255598190D02*
X220521485Y-255360095D01*
X220521485Y-255360095D02*
X220521485Y-255979142D01*
X219950057Y-256312476D02*
X219902438Y-256360095D01*
X219902438Y-256360095D02*
X219854819Y-256455333D01*
X219854819Y-256455333D02*
X219854819Y-256693428D01*
X219854819Y-256693428D02*
X219902438Y-256788666D01*
X219902438Y-256788666D02*
X219950057Y-256836285D01*
X219950057Y-256836285D02*
X220045295Y-256883904D01*
X220045295Y-256883904D02*
X220140533Y-256883904D01*
X220140533Y-256883904D02*
X220283390Y-256836285D01*
X220283390Y-256836285D02*
X220854819Y-256264857D01*
X220854819Y-256264857D02*
X220854819Y-256883904D01*
X221174819Y-251550095D02*
X220174819Y-251550095D01*
X221174819Y-252121523D02*
X220603390Y-251692952D01*
X220174819Y-252121523D02*
X220746247Y-251550095D01*
X148494819Y-308287714D02*
X147494819Y-308287714D01*
X147494819Y-308287714D02*
X147494819Y-308525809D01*
X147494819Y-308525809D02*
X147542438Y-308668666D01*
X147542438Y-308668666D02*
X147637676Y-308763904D01*
X147637676Y-308763904D02*
X147732914Y-308811523D01*
X147732914Y-308811523D02*
X147923390Y-308859142D01*
X147923390Y-308859142D02*
X148066247Y-308859142D01*
X148066247Y-308859142D02*
X148256723Y-308811523D01*
X148256723Y-308811523D02*
X148351961Y-308763904D01*
X148351961Y-308763904D02*
X148447200Y-308668666D01*
X148447200Y-308668666D02*
X148494819Y-308525809D01*
X148494819Y-308525809D02*
X148494819Y-308287714D01*
X148494819Y-309335333D02*
X148494819Y-309525809D01*
X148494819Y-309525809D02*
X148447200Y-309621047D01*
X148447200Y-309621047D02*
X148399580Y-309668666D01*
X148399580Y-309668666D02*
X148256723Y-309763904D01*
X148256723Y-309763904D02*
X148066247Y-309811523D01*
X148066247Y-309811523D02*
X147685295Y-309811523D01*
X147685295Y-309811523D02*
X147590057Y-309763904D01*
X147590057Y-309763904D02*
X147542438Y-309716285D01*
X147542438Y-309716285D02*
X147494819Y-309621047D01*
X147494819Y-309621047D02*
X147494819Y-309430571D01*
X147494819Y-309430571D02*
X147542438Y-309335333D01*
X147542438Y-309335333D02*
X147590057Y-309287714D01*
X147590057Y-309287714D02*
X147685295Y-309240095D01*
X147685295Y-309240095D02*
X147923390Y-309240095D01*
X147923390Y-309240095D02*
X148018628Y-309287714D01*
X148018628Y-309287714D02*
X148066247Y-309335333D01*
X148066247Y-309335333D02*
X148113866Y-309430571D01*
X148113866Y-309430571D02*
X148113866Y-309621047D01*
X148113866Y-309621047D02*
X148066247Y-309716285D01*
X148066247Y-309716285D02*
X148018628Y-309763904D01*
X148018628Y-309763904D02*
X147923390Y-309811523D01*
X147494819Y-310668666D02*
X147494819Y-310478190D01*
X147494819Y-310478190D02*
X147542438Y-310382952D01*
X147542438Y-310382952D02*
X147590057Y-310335333D01*
X147590057Y-310335333D02*
X147732914Y-310240095D01*
X147732914Y-310240095D02*
X147923390Y-310192476D01*
X147923390Y-310192476D02*
X148304342Y-310192476D01*
X148304342Y-310192476D02*
X148399580Y-310240095D01*
X148399580Y-310240095D02*
X148447200Y-310287714D01*
X148447200Y-310287714D02*
X148494819Y-310382952D01*
X148494819Y-310382952D02*
X148494819Y-310573428D01*
X148494819Y-310573428D02*
X148447200Y-310668666D01*
X148447200Y-310668666D02*
X148399580Y-310716285D01*
X148399580Y-310716285D02*
X148304342Y-310763904D01*
X148304342Y-310763904D02*
X148066247Y-310763904D01*
X148066247Y-310763904D02*
X147971009Y-310716285D01*
X147971009Y-310716285D02*
X147923390Y-310668666D01*
X147923390Y-310668666D02*
X147875771Y-310573428D01*
X147875771Y-310573428D02*
X147875771Y-310382952D01*
X147875771Y-310382952D02*
X147923390Y-310287714D01*
X147923390Y-310287714D02*
X147971009Y-310240095D01*
X147971009Y-310240095D02*
X148066247Y-310192476D01*
X148814819Y-305430095D02*
X147814819Y-305430095D01*
X148814819Y-306001523D02*
X148243390Y-305572952D01*
X147814819Y-306001523D02*
X148386247Y-305430095D01*
X239974819Y-251707714D02*
X238974819Y-251707714D01*
X238974819Y-251707714D02*
X238974819Y-251945809D01*
X238974819Y-251945809D02*
X239022438Y-252088666D01*
X239022438Y-252088666D02*
X239117676Y-252183904D01*
X239117676Y-252183904D02*
X239212914Y-252231523D01*
X239212914Y-252231523D02*
X239403390Y-252279142D01*
X239403390Y-252279142D02*
X239546247Y-252279142D01*
X239546247Y-252279142D02*
X239736723Y-252231523D01*
X239736723Y-252231523D02*
X239831961Y-252183904D01*
X239831961Y-252183904D02*
X239927200Y-252088666D01*
X239927200Y-252088666D02*
X239974819Y-251945809D01*
X239974819Y-251945809D02*
X239974819Y-251707714D01*
X239070057Y-252660095D02*
X239022438Y-252707714D01*
X239022438Y-252707714D02*
X238974819Y-252802952D01*
X238974819Y-252802952D02*
X238974819Y-253041047D01*
X238974819Y-253041047D02*
X239022438Y-253136285D01*
X239022438Y-253136285D02*
X239070057Y-253183904D01*
X239070057Y-253183904D02*
X239165295Y-253231523D01*
X239165295Y-253231523D02*
X239260533Y-253231523D01*
X239260533Y-253231523D02*
X239403390Y-253183904D01*
X239403390Y-253183904D02*
X239974819Y-252612476D01*
X239974819Y-252612476D02*
X239974819Y-253231523D01*
X239308152Y-254088666D02*
X239974819Y-254088666D01*
X238927200Y-253850571D02*
X239641485Y-253612476D01*
X239641485Y-253612476D02*
X239641485Y-254231523D01*
X240294819Y-248850095D02*
X239294819Y-248850095D01*
X240294819Y-249421523D02*
X239723390Y-248992952D01*
X239294819Y-249421523D02*
X239866247Y-248850095D01*
X270754819Y-291637714D02*
X269754819Y-291637714D01*
X269754819Y-291637714D02*
X269754819Y-291875809D01*
X269754819Y-291875809D02*
X269802438Y-292018666D01*
X269802438Y-292018666D02*
X269897676Y-292113904D01*
X269897676Y-292113904D02*
X269992914Y-292161523D01*
X269992914Y-292161523D02*
X270183390Y-292209142D01*
X270183390Y-292209142D02*
X270326247Y-292209142D01*
X270326247Y-292209142D02*
X270516723Y-292161523D01*
X270516723Y-292161523D02*
X270611961Y-292113904D01*
X270611961Y-292113904D02*
X270707200Y-292018666D01*
X270707200Y-292018666D02*
X270754819Y-291875809D01*
X270754819Y-291875809D02*
X270754819Y-291637714D01*
X270183390Y-292780571D02*
X270135771Y-292685333D01*
X270135771Y-292685333D02*
X270088152Y-292637714D01*
X270088152Y-292637714D02*
X269992914Y-292590095D01*
X269992914Y-292590095D02*
X269945295Y-292590095D01*
X269945295Y-292590095D02*
X269850057Y-292637714D01*
X269850057Y-292637714D02*
X269802438Y-292685333D01*
X269802438Y-292685333D02*
X269754819Y-292780571D01*
X269754819Y-292780571D02*
X269754819Y-292971047D01*
X269754819Y-292971047D02*
X269802438Y-293066285D01*
X269802438Y-293066285D02*
X269850057Y-293113904D01*
X269850057Y-293113904D02*
X269945295Y-293161523D01*
X269945295Y-293161523D02*
X269992914Y-293161523D01*
X269992914Y-293161523D02*
X270088152Y-293113904D01*
X270088152Y-293113904D02*
X270135771Y-293066285D01*
X270135771Y-293066285D02*
X270183390Y-292971047D01*
X270183390Y-292971047D02*
X270183390Y-292780571D01*
X270183390Y-292780571D02*
X270231009Y-292685333D01*
X270231009Y-292685333D02*
X270278628Y-292637714D01*
X270278628Y-292637714D02*
X270373866Y-292590095D01*
X270373866Y-292590095D02*
X270564342Y-292590095D01*
X270564342Y-292590095D02*
X270659580Y-292637714D01*
X270659580Y-292637714D02*
X270707200Y-292685333D01*
X270707200Y-292685333D02*
X270754819Y-292780571D01*
X270754819Y-292780571D02*
X270754819Y-292971047D01*
X270754819Y-292971047D02*
X270707200Y-293066285D01*
X270707200Y-293066285D02*
X270659580Y-293113904D01*
X270659580Y-293113904D02*
X270564342Y-293161523D01*
X270564342Y-293161523D02*
X270373866Y-293161523D01*
X270373866Y-293161523D02*
X270278628Y-293113904D01*
X270278628Y-293113904D02*
X270231009Y-293066285D01*
X270231009Y-293066285D02*
X270183390Y-292971047D01*
X270754819Y-294113904D02*
X270754819Y-293542476D01*
X270754819Y-293828190D02*
X269754819Y-293828190D01*
X269754819Y-293828190D02*
X269897676Y-293732952D01*
X269897676Y-293732952D02*
X269992914Y-293637714D01*
X269992914Y-293637714D02*
X270040533Y-293542476D01*
X271074819Y-288780095D02*
X270074819Y-288780095D01*
X271074819Y-289351523D02*
X270503390Y-288922952D01*
X270074819Y-289351523D02*
X270646247Y-288780095D01*
X282664819Y-270647714D02*
X281664819Y-270647714D01*
X281664819Y-270647714D02*
X281664819Y-270885809D01*
X281664819Y-270885809D02*
X281712438Y-271028666D01*
X281712438Y-271028666D02*
X281807676Y-271123904D01*
X281807676Y-271123904D02*
X281902914Y-271171523D01*
X281902914Y-271171523D02*
X282093390Y-271219142D01*
X282093390Y-271219142D02*
X282236247Y-271219142D01*
X282236247Y-271219142D02*
X282426723Y-271171523D01*
X282426723Y-271171523D02*
X282521961Y-271123904D01*
X282521961Y-271123904D02*
X282617200Y-271028666D01*
X282617200Y-271028666D02*
X282664819Y-270885809D01*
X282664819Y-270885809D02*
X282664819Y-270647714D01*
X281664819Y-272076285D02*
X281664819Y-271885809D01*
X281664819Y-271885809D02*
X281712438Y-271790571D01*
X281712438Y-271790571D02*
X281760057Y-271742952D01*
X281760057Y-271742952D02*
X281902914Y-271647714D01*
X281902914Y-271647714D02*
X282093390Y-271600095D01*
X282093390Y-271600095D02*
X282474342Y-271600095D01*
X282474342Y-271600095D02*
X282569580Y-271647714D01*
X282569580Y-271647714D02*
X282617200Y-271695333D01*
X282617200Y-271695333D02*
X282664819Y-271790571D01*
X282664819Y-271790571D02*
X282664819Y-271981047D01*
X282664819Y-271981047D02*
X282617200Y-272076285D01*
X282617200Y-272076285D02*
X282569580Y-272123904D01*
X282569580Y-272123904D02*
X282474342Y-272171523D01*
X282474342Y-272171523D02*
X282236247Y-272171523D01*
X282236247Y-272171523D02*
X282141009Y-272123904D01*
X282141009Y-272123904D02*
X282093390Y-272076285D01*
X282093390Y-272076285D02*
X282045771Y-271981047D01*
X282045771Y-271981047D02*
X282045771Y-271790571D01*
X282045771Y-271790571D02*
X282093390Y-271695333D01*
X282093390Y-271695333D02*
X282141009Y-271647714D01*
X282141009Y-271647714D02*
X282236247Y-271600095D01*
X281664819Y-273076285D02*
X281664819Y-272600095D01*
X281664819Y-272600095D02*
X282141009Y-272552476D01*
X282141009Y-272552476D02*
X282093390Y-272600095D01*
X282093390Y-272600095D02*
X282045771Y-272695333D01*
X282045771Y-272695333D02*
X282045771Y-272933428D01*
X282045771Y-272933428D02*
X282093390Y-273028666D01*
X282093390Y-273028666D02*
X282141009Y-273076285D01*
X282141009Y-273076285D02*
X282236247Y-273123904D01*
X282236247Y-273123904D02*
X282474342Y-273123904D01*
X282474342Y-273123904D02*
X282569580Y-273076285D01*
X282569580Y-273076285D02*
X282617200Y-273028666D01*
X282617200Y-273028666D02*
X282664819Y-272933428D01*
X282664819Y-272933428D02*
X282664819Y-272695333D01*
X282664819Y-272695333D02*
X282617200Y-272600095D01*
X282617200Y-272600095D02*
X282569580Y-272552476D01*
X282984819Y-267790095D02*
X281984819Y-267790095D01*
X282984819Y-268361523D02*
X282413390Y-267932952D01*
X281984819Y-268361523D02*
X282556247Y-267790095D01*
X168634819Y-270117714D02*
X167634819Y-270117714D01*
X167634819Y-270117714D02*
X167634819Y-270355809D01*
X167634819Y-270355809D02*
X167682438Y-270498666D01*
X167682438Y-270498666D02*
X167777676Y-270593904D01*
X167777676Y-270593904D02*
X167872914Y-270641523D01*
X167872914Y-270641523D02*
X168063390Y-270689142D01*
X168063390Y-270689142D02*
X168206247Y-270689142D01*
X168206247Y-270689142D02*
X168396723Y-270641523D01*
X168396723Y-270641523D02*
X168491961Y-270593904D01*
X168491961Y-270593904D02*
X168587200Y-270498666D01*
X168587200Y-270498666D02*
X168634819Y-270355809D01*
X168634819Y-270355809D02*
X168634819Y-270117714D01*
X167634819Y-271546285D02*
X167634819Y-271355809D01*
X167634819Y-271355809D02*
X167682438Y-271260571D01*
X167682438Y-271260571D02*
X167730057Y-271212952D01*
X167730057Y-271212952D02*
X167872914Y-271117714D01*
X167872914Y-271117714D02*
X168063390Y-271070095D01*
X168063390Y-271070095D02*
X168444342Y-271070095D01*
X168444342Y-271070095D02*
X168539580Y-271117714D01*
X168539580Y-271117714D02*
X168587200Y-271165333D01*
X168587200Y-271165333D02*
X168634819Y-271260571D01*
X168634819Y-271260571D02*
X168634819Y-271451047D01*
X168634819Y-271451047D02*
X168587200Y-271546285D01*
X168587200Y-271546285D02*
X168539580Y-271593904D01*
X168539580Y-271593904D02*
X168444342Y-271641523D01*
X168444342Y-271641523D02*
X168206247Y-271641523D01*
X168206247Y-271641523D02*
X168111009Y-271593904D01*
X168111009Y-271593904D02*
X168063390Y-271546285D01*
X168063390Y-271546285D02*
X168015771Y-271451047D01*
X168015771Y-271451047D02*
X168015771Y-271260571D01*
X168015771Y-271260571D02*
X168063390Y-271165333D01*
X168063390Y-271165333D02*
X168111009Y-271117714D01*
X168111009Y-271117714D02*
X168206247Y-271070095D01*
X167634819Y-271974857D02*
X167634819Y-272593904D01*
X167634819Y-272593904D02*
X168015771Y-272260571D01*
X168015771Y-272260571D02*
X168015771Y-272403428D01*
X168015771Y-272403428D02*
X168063390Y-272498666D01*
X168063390Y-272498666D02*
X168111009Y-272546285D01*
X168111009Y-272546285D02*
X168206247Y-272593904D01*
X168206247Y-272593904D02*
X168444342Y-272593904D01*
X168444342Y-272593904D02*
X168539580Y-272546285D01*
X168539580Y-272546285D02*
X168587200Y-272498666D01*
X168587200Y-272498666D02*
X168634819Y-272403428D01*
X168634819Y-272403428D02*
X168634819Y-272117714D01*
X168634819Y-272117714D02*
X168587200Y-272022476D01*
X168587200Y-272022476D02*
X168539580Y-271974857D01*
X168954819Y-267260095D02*
X167954819Y-267260095D01*
X168954819Y-267831523D02*
X168383390Y-267402952D01*
X167954819Y-267831523D02*
X168526247Y-267260095D01*
X154254819Y-232297714D02*
X153254819Y-232297714D01*
X153254819Y-232297714D02*
X153254819Y-232535809D01*
X153254819Y-232535809D02*
X153302438Y-232678666D01*
X153302438Y-232678666D02*
X153397676Y-232773904D01*
X153397676Y-232773904D02*
X153492914Y-232821523D01*
X153492914Y-232821523D02*
X153683390Y-232869142D01*
X153683390Y-232869142D02*
X153826247Y-232869142D01*
X153826247Y-232869142D02*
X154016723Y-232821523D01*
X154016723Y-232821523D02*
X154111961Y-232773904D01*
X154111961Y-232773904D02*
X154207200Y-232678666D01*
X154207200Y-232678666D02*
X154254819Y-232535809D01*
X154254819Y-232535809D02*
X154254819Y-232297714D01*
X153254819Y-233202476D02*
X153254819Y-233869142D01*
X153254819Y-233869142D02*
X154254819Y-233440571D01*
X153350057Y-234202476D02*
X153302438Y-234250095D01*
X153302438Y-234250095D02*
X153254819Y-234345333D01*
X153254819Y-234345333D02*
X153254819Y-234583428D01*
X153254819Y-234583428D02*
X153302438Y-234678666D01*
X153302438Y-234678666D02*
X153350057Y-234726285D01*
X153350057Y-234726285D02*
X153445295Y-234773904D01*
X153445295Y-234773904D02*
X153540533Y-234773904D01*
X153540533Y-234773904D02*
X153683390Y-234726285D01*
X153683390Y-234726285D02*
X154254819Y-234154857D01*
X154254819Y-234154857D02*
X154254819Y-234773904D01*
X154574819Y-229440095D02*
X153574819Y-229440095D01*
X154574819Y-230011523D02*
X154003390Y-229582952D01*
X153574819Y-230011523D02*
X154146247Y-229440095D01*
X382674819Y-289383905D02*
X381674819Y-289383905D01*
X381674819Y-289383905D02*
X381674819Y-289622000D01*
X381674819Y-289622000D02*
X381722438Y-289764857D01*
X381722438Y-289764857D02*
X381817676Y-289860095D01*
X381817676Y-289860095D02*
X381912914Y-289907714D01*
X381912914Y-289907714D02*
X382103390Y-289955333D01*
X382103390Y-289955333D02*
X382246247Y-289955333D01*
X382246247Y-289955333D02*
X382436723Y-289907714D01*
X382436723Y-289907714D02*
X382531961Y-289860095D01*
X382531961Y-289860095D02*
X382627200Y-289764857D01*
X382627200Y-289764857D02*
X382674819Y-289622000D01*
X382674819Y-289622000D02*
X382674819Y-289383905D01*
X381674819Y-290812476D02*
X381674819Y-290622000D01*
X381674819Y-290622000D02*
X381722438Y-290526762D01*
X381722438Y-290526762D02*
X381770057Y-290479143D01*
X381770057Y-290479143D02*
X381912914Y-290383905D01*
X381912914Y-290383905D02*
X382103390Y-290336286D01*
X382103390Y-290336286D02*
X382484342Y-290336286D01*
X382484342Y-290336286D02*
X382579580Y-290383905D01*
X382579580Y-290383905D02*
X382627200Y-290431524D01*
X382627200Y-290431524D02*
X382674819Y-290526762D01*
X382674819Y-290526762D02*
X382674819Y-290717238D01*
X382674819Y-290717238D02*
X382627200Y-290812476D01*
X382627200Y-290812476D02*
X382579580Y-290860095D01*
X382579580Y-290860095D02*
X382484342Y-290907714D01*
X382484342Y-290907714D02*
X382246247Y-290907714D01*
X382246247Y-290907714D02*
X382151009Y-290860095D01*
X382151009Y-290860095D02*
X382103390Y-290812476D01*
X382103390Y-290812476D02*
X382055771Y-290717238D01*
X382055771Y-290717238D02*
X382055771Y-290526762D01*
X382055771Y-290526762D02*
X382103390Y-290431524D01*
X382103390Y-290431524D02*
X382151009Y-290383905D01*
X382151009Y-290383905D02*
X382246247Y-290336286D01*
X382994819Y-286050095D02*
X381994819Y-286050095D01*
X382994819Y-286621523D02*
X382423390Y-286192952D01*
X381994819Y-286621523D02*
X382566247Y-286050095D01*
X238714819Y-308637714D02*
X237714819Y-308637714D01*
X237714819Y-308637714D02*
X237714819Y-308875809D01*
X237714819Y-308875809D02*
X237762438Y-309018666D01*
X237762438Y-309018666D02*
X237857676Y-309113904D01*
X237857676Y-309113904D02*
X237952914Y-309161523D01*
X237952914Y-309161523D02*
X238143390Y-309209142D01*
X238143390Y-309209142D02*
X238286247Y-309209142D01*
X238286247Y-309209142D02*
X238476723Y-309161523D01*
X238476723Y-309161523D02*
X238571961Y-309113904D01*
X238571961Y-309113904D02*
X238667200Y-309018666D01*
X238667200Y-309018666D02*
X238714819Y-308875809D01*
X238714819Y-308875809D02*
X238714819Y-308637714D01*
X238714819Y-309685333D02*
X238714819Y-309875809D01*
X238714819Y-309875809D02*
X238667200Y-309971047D01*
X238667200Y-309971047D02*
X238619580Y-310018666D01*
X238619580Y-310018666D02*
X238476723Y-310113904D01*
X238476723Y-310113904D02*
X238286247Y-310161523D01*
X238286247Y-310161523D02*
X237905295Y-310161523D01*
X237905295Y-310161523D02*
X237810057Y-310113904D01*
X237810057Y-310113904D02*
X237762438Y-310066285D01*
X237762438Y-310066285D02*
X237714819Y-309971047D01*
X237714819Y-309971047D02*
X237714819Y-309780571D01*
X237714819Y-309780571D02*
X237762438Y-309685333D01*
X237762438Y-309685333D02*
X237810057Y-309637714D01*
X237810057Y-309637714D02*
X237905295Y-309590095D01*
X237905295Y-309590095D02*
X238143390Y-309590095D01*
X238143390Y-309590095D02*
X238238628Y-309637714D01*
X238238628Y-309637714D02*
X238286247Y-309685333D01*
X238286247Y-309685333D02*
X238333866Y-309780571D01*
X238333866Y-309780571D02*
X238333866Y-309971047D01*
X238333866Y-309971047D02*
X238286247Y-310066285D01*
X238286247Y-310066285D02*
X238238628Y-310113904D01*
X238238628Y-310113904D02*
X238143390Y-310161523D01*
X237714819Y-311066285D02*
X237714819Y-310590095D01*
X237714819Y-310590095D02*
X238191009Y-310542476D01*
X238191009Y-310542476D02*
X238143390Y-310590095D01*
X238143390Y-310590095D02*
X238095771Y-310685333D01*
X238095771Y-310685333D02*
X238095771Y-310923428D01*
X238095771Y-310923428D02*
X238143390Y-311018666D01*
X238143390Y-311018666D02*
X238191009Y-311066285D01*
X238191009Y-311066285D02*
X238286247Y-311113904D01*
X238286247Y-311113904D02*
X238524342Y-311113904D01*
X238524342Y-311113904D02*
X238619580Y-311066285D01*
X238619580Y-311066285D02*
X238667200Y-311018666D01*
X238667200Y-311018666D02*
X238714819Y-310923428D01*
X238714819Y-310923428D02*
X238714819Y-310685333D01*
X238714819Y-310685333D02*
X238667200Y-310590095D01*
X238667200Y-310590095D02*
X238619580Y-310542476D01*
X239034819Y-305780095D02*
X238034819Y-305780095D01*
X239034819Y-306351523D02*
X238463390Y-305922952D01*
X238034819Y-306351523D02*
X238606247Y-305780095D01*
X306504819Y-232427714D02*
X305504819Y-232427714D01*
X305504819Y-232427714D02*
X305504819Y-232665809D01*
X305504819Y-232665809D02*
X305552438Y-232808666D01*
X305552438Y-232808666D02*
X305647676Y-232903904D01*
X305647676Y-232903904D02*
X305742914Y-232951523D01*
X305742914Y-232951523D02*
X305933390Y-232999142D01*
X305933390Y-232999142D02*
X306076247Y-232999142D01*
X306076247Y-232999142D02*
X306266723Y-232951523D01*
X306266723Y-232951523D02*
X306361961Y-232903904D01*
X306361961Y-232903904D02*
X306457200Y-232808666D01*
X306457200Y-232808666D02*
X306504819Y-232665809D01*
X306504819Y-232665809D02*
X306504819Y-232427714D01*
X305933390Y-233570571D02*
X305885771Y-233475333D01*
X305885771Y-233475333D02*
X305838152Y-233427714D01*
X305838152Y-233427714D02*
X305742914Y-233380095D01*
X305742914Y-233380095D02*
X305695295Y-233380095D01*
X305695295Y-233380095D02*
X305600057Y-233427714D01*
X305600057Y-233427714D02*
X305552438Y-233475333D01*
X305552438Y-233475333D02*
X305504819Y-233570571D01*
X305504819Y-233570571D02*
X305504819Y-233761047D01*
X305504819Y-233761047D02*
X305552438Y-233856285D01*
X305552438Y-233856285D02*
X305600057Y-233903904D01*
X305600057Y-233903904D02*
X305695295Y-233951523D01*
X305695295Y-233951523D02*
X305742914Y-233951523D01*
X305742914Y-233951523D02*
X305838152Y-233903904D01*
X305838152Y-233903904D02*
X305885771Y-233856285D01*
X305885771Y-233856285D02*
X305933390Y-233761047D01*
X305933390Y-233761047D02*
X305933390Y-233570571D01*
X305933390Y-233570571D02*
X305981009Y-233475333D01*
X305981009Y-233475333D02*
X306028628Y-233427714D01*
X306028628Y-233427714D02*
X306123866Y-233380095D01*
X306123866Y-233380095D02*
X306314342Y-233380095D01*
X306314342Y-233380095D02*
X306409580Y-233427714D01*
X306409580Y-233427714D02*
X306457200Y-233475333D01*
X306457200Y-233475333D02*
X306504819Y-233570571D01*
X306504819Y-233570571D02*
X306504819Y-233761047D01*
X306504819Y-233761047D02*
X306457200Y-233856285D01*
X306457200Y-233856285D02*
X306409580Y-233903904D01*
X306409580Y-233903904D02*
X306314342Y-233951523D01*
X306314342Y-233951523D02*
X306123866Y-233951523D01*
X306123866Y-233951523D02*
X306028628Y-233903904D01*
X306028628Y-233903904D02*
X305981009Y-233856285D01*
X305981009Y-233856285D02*
X305933390Y-233761047D01*
X305504819Y-234284857D02*
X305504819Y-234951523D01*
X305504819Y-234951523D02*
X306504819Y-234522952D01*
X306824819Y-229570095D02*
X305824819Y-229570095D01*
X306824819Y-230141523D02*
X306253390Y-229712952D01*
X305824819Y-230141523D02*
X306396247Y-229570095D01*
X213904819Y-289357714D02*
X212904819Y-289357714D01*
X212904819Y-289357714D02*
X212904819Y-289595809D01*
X212904819Y-289595809D02*
X212952438Y-289738666D01*
X212952438Y-289738666D02*
X213047676Y-289833904D01*
X213047676Y-289833904D02*
X213142914Y-289881523D01*
X213142914Y-289881523D02*
X213333390Y-289929142D01*
X213333390Y-289929142D02*
X213476247Y-289929142D01*
X213476247Y-289929142D02*
X213666723Y-289881523D01*
X213666723Y-289881523D02*
X213761961Y-289833904D01*
X213761961Y-289833904D02*
X213857200Y-289738666D01*
X213857200Y-289738666D02*
X213904819Y-289595809D01*
X213904819Y-289595809D02*
X213904819Y-289357714D01*
X213904819Y-290881523D02*
X213904819Y-290310095D01*
X213904819Y-290595809D02*
X212904819Y-290595809D01*
X212904819Y-290595809D02*
X213047676Y-290500571D01*
X213047676Y-290500571D02*
X213142914Y-290405333D01*
X213142914Y-290405333D02*
X213190533Y-290310095D01*
X212904819Y-291738666D02*
X212904819Y-291548190D01*
X212904819Y-291548190D02*
X212952438Y-291452952D01*
X212952438Y-291452952D02*
X213000057Y-291405333D01*
X213000057Y-291405333D02*
X213142914Y-291310095D01*
X213142914Y-291310095D02*
X213333390Y-291262476D01*
X213333390Y-291262476D02*
X213714342Y-291262476D01*
X213714342Y-291262476D02*
X213809580Y-291310095D01*
X213809580Y-291310095D02*
X213857200Y-291357714D01*
X213857200Y-291357714D02*
X213904819Y-291452952D01*
X213904819Y-291452952D02*
X213904819Y-291643428D01*
X213904819Y-291643428D02*
X213857200Y-291738666D01*
X213857200Y-291738666D02*
X213809580Y-291786285D01*
X213809580Y-291786285D02*
X213714342Y-291833904D01*
X213714342Y-291833904D02*
X213476247Y-291833904D01*
X213476247Y-291833904D02*
X213381009Y-291786285D01*
X213381009Y-291786285D02*
X213333390Y-291738666D01*
X213333390Y-291738666D02*
X213285771Y-291643428D01*
X213285771Y-291643428D02*
X213285771Y-291452952D01*
X213285771Y-291452952D02*
X213333390Y-291357714D01*
X213333390Y-291357714D02*
X213381009Y-291310095D01*
X213381009Y-291310095D02*
X213476247Y-291262476D01*
X214224819Y-286500095D02*
X213224819Y-286500095D01*
X214224819Y-287071523D02*
X213653390Y-286642952D01*
X213224819Y-287071523D02*
X213796247Y-286500095D01*
X302014819Y-270417714D02*
X301014819Y-270417714D01*
X301014819Y-270417714D02*
X301014819Y-270655809D01*
X301014819Y-270655809D02*
X301062438Y-270798666D01*
X301062438Y-270798666D02*
X301157676Y-270893904D01*
X301157676Y-270893904D02*
X301252914Y-270941523D01*
X301252914Y-270941523D02*
X301443390Y-270989142D01*
X301443390Y-270989142D02*
X301586247Y-270989142D01*
X301586247Y-270989142D02*
X301776723Y-270941523D01*
X301776723Y-270941523D02*
X301871961Y-270893904D01*
X301871961Y-270893904D02*
X301967200Y-270798666D01*
X301967200Y-270798666D02*
X302014819Y-270655809D01*
X302014819Y-270655809D02*
X302014819Y-270417714D01*
X301348152Y-271846285D02*
X302014819Y-271846285D01*
X300967200Y-271608190D02*
X301681485Y-271370095D01*
X301681485Y-271370095D02*
X301681485Y-271989142D01*
X301014819Y-272274857D02*
X301014819Y-272893904D01*
X301014819Y-272893904D02*
X301395771Y-272560571D01*
X301395771Y-272560571D02*
X301395771Y-272703428D01*
X301395771Y-272703428D02*
X301443390Y-272798666D01*
X301443390Y-272798666D02*
X301491009Y-272846285D01*
X301491009Y-272846285D02*
X301586247Y-272893904D01*
X301586247Y-272893904D02*
X301824342Y-272893904D01*
X301824342Y-272893904D02*
X301919580Y-272846285D01*
X301919580Y-272846285D02*
X301967200Y-272798666D01*
X301967200Y-272798666D02*
X302014819Y-272703428D01*
X302014819Y-272703428D02*
X302014819Y-272417714D01*
X302014819Y-272417714D02*
X301967200Y-272322476D01*
X301967200Y-272322476D02*
X301919580Y-272274857D01*
X302334819Y-267560095D02*
X301334819Y-267560095D01*
X302334819Y-268131523D02*
X301763390Y-267702952D01*
X301334819Y-268131523D02*
X301906247Y-267560095D01*
X258944819Y-251147714D02*
X257944819Y-251147714D01*
X257944819Y-251147714D02*
X257944819Y-251385809D01*
X257944819Y-251385809D02*
X257992438Y-251528666D01*
X257992438Y-251528666D02*
X258087676Y-251623904D01*
X258087676Y-251623904D02*
X258182914Y-251671523D01*
X258182914Y-251671523D02*
X258373390Y-251719142D01*
X258373390Y-251719142D02*
X258516247Y-251719142D01*
X258516247Y-251719142D02*
X258706723Y-251671523D01*
X258706723Y-251671523D02*
X258801961Y-251623904D01*
X258801961Y-251623904D02*
X258897200Y-251528666D01*
X258897200Y-251528666D02*
X258944819Y-251385809D01*
X258944819Y-251385809D02*
X258944819Y-251147714D01*
X257944819Y-252623904D02*
X257944819Y-252147714D01*
X257944819Y-252147714D02*
X258421009Y-252100095D01*
X258421009Y-252100095D02*
X258373390Y-252147714D01*
X258373390Y-252147714D02*
X258325771Y-252242952D01*
X258325771Y-252242952D02*
X258325771Y-252481047D01*
X258325771Y-252481047D02*
X258373390Y-252576285D01*
X258373390Y-252576285D02*
X258421009Y-252623904D01*
X258421009Y-252623904D02*
X258516247Y-252671523D01*
X258516247Y-252671523D02*
X258754342Y-252671523D01*
X258754342Y-252671523D02*
X258849580Y-252623904D01*
X258849580Y-252623904D02*
X258897200Y-252576285D01*
X258897200Y-252576285D02*
X258944819Y-252481047D01*
X258944819Y-252481047D02*
X258944819Y-252242952D01*
X258944819Y-252242952D02*
X258897200Y-252147714D01*
X258897200Y-252147714D02*
X258849580Y-252100095D01*
X258944819Y-253147714D02*
X258944819Y-253338190D01*
X258944819Y-253338190D02*
X258897200Y-253433428D01*
X258897200Y-253433428D02*
X258849580Y-253481047D01*
X258849580Y-253481047D02*
X258706723Y-253576285D01*
X258706723Y-253576285D02*
X258516247Y-253623904D01*
X258516247Y-253623904D02*
X258135295Y-253623904D01*
X258135295Y-253623904D02*
X258040057Y-253576285D01*
X258040057Y-253576285D02*
X257992438Y-253528666D01*
X257992438Y-253528666D02*
X257944819Y-253433428D01*
X257944819Y-253433428D02*
X257944819Y-253242952D01*
X257944819Y-253242952D02*
X257992438Y-253147714D01*
X257992438Y-253147714D02*
X258040057Y-253100095D01*
X258040057Y-253100095D02*
X258135295Y-253052476D01*
X258135295Y-253052476D02*
X258373390Y-253052476D01*
X258373390Y-253052476D02*
X258468628Y-253100095D01*
X258468628Y-253100095D02*
X258516247Y-253147714D01*
X258516247Y-253147714D02*
X258563866Y-253242952D01*
X258563866Y-253242952D02*
X258563866Y-253433428D01*
X258563866Y-253433428D02*
X258516247Y-253528666D01*
X258516247Y-253528666D02*
X258468628Y-253576285D01*
X258468628Y-253576285D02*
X258373390Y-253623904D01*
X259264819Y-248290095D02*
X258264819Y-248290095D01*
X259264819Y-248861523D02*
X258693390Y-248432952D01*
X258264819Y-248861523D02*
X258836247Y-248290095D01*
X335294819Y-251307714D02*
X334294819Y-251307714D01*
X334294819Y-251307714D02*
X334294819Y-251545809D01*
X334294819Y-251545809D02*
X334342438Y-251688666D01*
X334342438Y-251688666D02*
X334437676Y-251783904D01*
X334437676Y-251783904D02*
X334532914Y-251831523D01*
X334532914Y-251831523D02*
X334723390Y-251879142D01*
X334723390Y-251879142D02*
X334866247Y-251879142D01*
X334866247Y-251879142D02*
X335056723Y-251831523D01*
X335056723Y-251831523D02*
X335151961Y-251783904D01*
X335151961Y-251783904D02*
X335247200Y-251688666D01*
X335247200Y-251688666D02*
X335294819Y-251545809D01*
X335294819Y-251545809D02*
X335294819Y-251307714D01*
X334294819Y-252212476D02*
X334294819Y-252879142D01*
X334294819Y-252879142D02*
X335294819Y-252450571D01*
X334628152Y-253688666D02*
X335294819Y-253688666D01*
X334247200Y-253450571D02*
X334961485Y-253212476D01*
X334961485Y-253212476D02*
X334961485Y-253831523D01*
X335614819Y-248450095D02*
X334614819Y-248450095D01*
X335614819Y-249021523D02*
X335043390Y-248592952D01*
X334614819Y-249021523D02*
X335186247Y-248450095D01*
X175614819Y-289187714D02*
X174614819Y-289187714D01*
X174614819Y-289187714D02*
X174614819Y-289425809D01*
X174614819Y-289425809D02*
X174662438Y-289568666D01*
X174662438Y-289568666D02*
X174757676Y-289663904D01*
X174757676Y-289663904D02*
X174852914Y-289711523D01*
X174852914Y-289711523D02*
X175043390Y-289759142D01*
X175043390Y-289759142D02*
X175186247Y-289759142D01*
X175186247Y-289759142D02*
X175376723Y-289711523D01*
X175376723Y-289711523D02*
X175471961Y-289663904D01*
X175471961Y-289663904D02*
X175567200Y-289568666D01*
X175567200Y-289568666D02*
X175614819Y-289425809D01*
X175614819Y-289425809D02*
X175614819Y-289187714D01*
X174614819Y-290663904D02*
X174614819Y-290187714D01*
X174614819Y-290187714D02*
X175091009Y-290140095D01*
X175091009Y-290140095D02*
X175043390Y-290187714D01*
X175043390Y-290187714D02*
X174995771Y-290282952D01*
X174995771Y-290282952D02*
X174995771Y-290521047D01*
X174995771Y-290521047D02*
X175043390Y-290616285D01*
X175043390Y-290616285D02*
X175091009Y-290663904D01*
X175091009Y-290663904D02*
X175186247Y-290711523D01*
X175186247Y-290711523D02*
X175424342Y-290711523D01*
X175424342Y-290711523D02*
X175519580Y-290663904D01*
X175519580Y-290663904D02*
X175567200Y-290616285D01*
X175567200Y-290616285D02*
X175614819Y-290521047D01*
X175614819Y-290521047D02*
X175614819Y-290282952D01*
X175614819Y-290282952D02*
X175567200Y-290187714D01*
X175567200Y-290187714D02*
X175519580Y-290140095D01*
X174614819Y-291330571D02*
X174614819Y-291425809D01*
X174614819Y-291425809D02*
X174662438Y-291521047D01*
X174662438Y-291521047D02*
X174710057Y-291568666D01*
X174710057Y-291568666D02*
X174805295Y-291616285D01*
X174805295Y-291616285D02*
X174995771Y-291663904D01*
X174995771Y-291663904D02*
X175233866Y-291663904D01*
X175233866Y-291663904D02*
X175424342Y-291616285D01*
X175424342Y-291616285D02*
X175519580Y-291568666D01*
X175519580Y-291568666D02*
X175567200Y-291521047D01*
X175567200Y-291521047D02*
X175614819Y-291425809D01*
X175614819Y-291425809D02*
X175614819Y-291330571D01*
X175614819Y-291330571D02*
X175567200Y-291235333D01*
X175567200Y-291235333D02*
X175519580Y-291187714D01*
X175519580Y-291187714D02*
X175424342Y-291140095D01*
X175424342Y-291140095D02*
X175233866Y-291092476D01*
X175233866Y-291092476D02*
X174995771Y-291092476D01*
X174995771Y-291092476D02*
X174805295Y-291140095D01*
X174805295Y-291140095D02*
X174710057Y-291187714D01*
X174710057Y-291187714D02*
X174662438Y-291235333D01*
X174662438Y-291235333D02*
X174614819Y-291330571D01*
X175934819Y-286330095D02*
X174934819Y-286330095D01*
X175934819Y-286901523D02*
X175363390Y-286472952D01*
X174934819Y-286901523D02*
X175506247Y-286330095D01*
X194814819Y-289487714D02*
X193814819Y-289487714D01*
X193814819Y-289487714D02*
X193814819Y-289725809D01*
X193814819Y-289725809D02*
X193862438Y-289868666D01*
X193862438Y-289868666D02*
X193957676Y-289963904D01*
X193957676Y-289963904D02*
X194052914Y-290011523D01*
X194052914Y-290011523D02*
X194243390Y-290059142D01*
X194243390Y-290059142D02*
X194386247Y-290059142D01*
X194386247Y-290059142D02*
X194576723Y-290011523D01*
X194576723Y-290011523D02*
X194671961Y-289963904D01*
X194671961Y-289963904D02*
X194767200Y-289868666D01*
X194767200Y-289868666D02*
X194814819Y-289725809D01*
X194814819Y-289725809D02*
X194814819Y-289487714D01*
X194814819Y-291011523D02*
X194814819Y-290440095D01*
X194814819Y-290725809D02*
X193814819Y-290725809D01*
X193814819Y-290725809D02*
X193957676Y-290630571D01*
X193957676Y-290630571D02*
X194052914Y-290535333D01*
X194052914Y-290535333D02*
X194100533Y-290440095D01*
X193814819Y-291916285D02*
X193814819Y-291440095D01*
X193814819Y-291440095D02*
X194291009Y-291392476D01*
X194291009Y-291392476D02*
X194243390Y-291440095D01*
X194243390Y-291440095D02*
X194195771Y-291535333D01*
X194195771Y-291535333D02*
X194195771Y-291773428D01*
X194195771Y-291773428D02*
X194243390Y-291868666D01*
X194243390Y-291868666D02*
X194291009Y-291916285D01*
X194291009Y-291916285D02*
X194386247Y-291963904D01*
X194386247Y-291963904D02*
X194624342Y-291963904D01*
X194624342Y-291963904D02*
X194719580Y-291916285D01*
X194719580Y-291916285D02*
X194767200Y-291868666D01*
X194767200Y-291868666D02*
X194814819Y-291773428D01*
X194814819Y-291773428D02*
X194814819Y-291535333D01*
X194814819Y-291535333D02*
X194767200Y-291440095D01*
X194767200Y-291440095D02*
X194719580Y-291392476D01*
X195134819Y-286630095D02*
X194134819Y-286630095D01*
X195134819Y-287201523D02*
X194563390Y-286772952D01*
X194134819Y-287201523D02*
X194706247Y-286630095D01*
X378254819Y-251557714D02*
X377254819Y-251557714D01*
X377254819Y-251557714D02*
X377254819Y-251795809D01*
X377254819Y-251795809D02*
X377302438Y-251938666D01*
X377302438Y-251938666D02*
X377397676Y-252033904D01*
X377397676Y-252033904D02*
X377492914Y-252081523D01*
X377492914Y-252081523D02*
X377683390Y-252129142D01*
X377683390Y-252129142D02*
X377826247Y-252129142D01*
X377826247Y-252129142D02*
X378016723Y-252081523D01*
X378016723Y-252081523D02*
X378111961Y-252033904D01*
X378111961Y-252033904D02*
X378207200Y-251938666D01*
X378207200Y-251938666D02*
X378254819Y-251795809D01*
X378254819Y-251795809D02*
X378254819Y-251557714D01*
X377588152Y-252986285D02*
X378254819Y-252986285D01*
X377207200Y-252748190D02*
X377921485Y-252510095D01*
X377921485Y-252510095D02*
X377921485Y-253129142D01*
X377254819Y-253700571D02*
X377254819Y-253795809D01*
X377254819Y-253795809D02*
X377302438Y-253891047D01*
X377302438Y-253891047D02*
X377350057Y-253938666D01*
X377350057Y-253938666D02*
X377445295Y-253986285D01*
X377445295Y-253986285D02*
X377635771Y-254033904D01*
X377635771Y-254033904D02*
X377873866Y-254033904D01*
X377873866Y-254033904D02*
X378064342Y-253986285D01*
X378064342Y-253986285D02*
X378159580Y-253938666D01*
X378159580Y-253938666D02*
X378207200Y-253891047D01*
X378207200Y-253891047D02*
X378254819Y-253795809D01*
X378254819Y-253795809D02*
X378254819Y-253700571D01*
X378254819Y-253700571D02*
X378207200Y-253605333D01*
X378207200Y-253605333D02*
X378159580Y-253557714D01*
X378159580Y-253557714D02*
X378064342Y-253510095D01*
X378064342Y-253510095D02*
X377873866Y-253462476D01*
X377873866Y-253462476D02*
X377635771Y-253462476D01*
X377635771Y-253462476D02*
X377445295Y-253510095D01*
X377445295Y-253510095D02*
X377350057Y-253557714D01*
X377350057Y-253557714D02*
X377302438Y-253605333D01*
X377302438Y-253605333D02*
X377254819Y-253700571D01*
X378574819Y-248700095D02*
X377574819Y-248700095D01*
X378574819Y-249271523D02*
X378003390Y-248842952D01*
X377574819Y-249271523D02*
X378146247Y-248700095D01*
X287224819Y-309197714D02*
X286224819Y-309197714D01*
X286224819Y-309197714D02*
X286224819Y-309435809D01*
X286224819Y-309435809D02*
X286272438Y-309578666D01*
X286272438Y-309578666D02*
X286367676Y-309673904D01*
X286367676Y-309673904D02*
X286462914Y-309721523D01*
X286462914Y-309721523D02*
X286653390Y-309769142D01*
X286653390Y-309769142D02*
X286796247Y-309769142D01*
X286796247Y-309769142D02*
X286986723Y-309721523D01*
X286986723Y-309721523D02*
X287081961Y-309673904D01*
X287081961Y-309673904D02*
X287177200Y-309578666D01*
X287177200Y-309578666D02*
X287224819Y-309435809D01*
X287224819Y-309435809D02*
X287224819Y-309197714D01*
X286558152Y-310626285D02*
X287224819Y-310626285D01*
X286177200Y-310388190D02*
X286891485Y-310150095D01*
X286891485Y-310150095D02*
X286891485Y-310769142D01*
X286224819Y-311054857D02*
X286224819Y-311721523D01*
X286224819Y-311721523D02*
X287224819Y-311292952D01*
X287544819Y-306340095D02*
X286544819Y-306340095D01*
X287544819Y-306911523D02*
X286973390Y-306482952D01*
X286544819Y-306911523D02*
X287116247Y-306340095D01*
X220884819Y-244487714D02*
X219884819Y-244487714D01*
X219884819Y-244487714D02*
X219884819Y-244725809D01*
X219884819Y-244725809D02*
X219932438Y-244868666D01*
X219932438Y-244868666D02*
X220027676Y-244963904D01*
X220027676Y-244963904D02*
X220122914Y-245011523D01*
X220122914Y-245011523D02*
X220313390Y-245059142D01*
X220313390Y-245059142D02*
X220456247Y-245059142D01*
X220456247Y-245059142D02*
X220646723Y-245011523D01*
X220646723Y-245011523D02*
X220741961Y-244963904D01*
X220741961Y-244963904D02*
X220837200Y-244868666D01*
X220837200Y-244868666D02*
X220884819Y-244725809D01*
X220884819Y-244725809D02*
X220884819Y-244487714D01*
X219884819Y-245392476D02*
X219884819Y-246059142D01*
X219884819Y-246059142D02*
X220884819Y-245630571D01*
X219884819Y-246344857D02*
X219884819Y-246963904D01*
X219884819Y-246963904D02*
X220265771Y-246630571D01*
X220265771Y-246630571D02*
X220265771Y-246773428D01*
X220265771Y-246773428D02*
X220313390Y-246868666D01*
X220313390Y-246868666D02*
X220361009Y-246916285D01*
X220361009Y-246916285D02*
X220456247Y-246963904D01*
X220456247Y-246963904D02*
X220694342Y-246963904D01*
X220694342Y-246963904D02*
X220789580Y-246916285D01*
X220789580Y-246916285D02*
X220837200Y-246868666D01*
X220837200Y-246868666D02*
X220884819Y-246773428D01*
X220884819Y-246773428D02*
X220884819Y-246487714D01*
X220884819Y-246487714D02*
X220837200Y-246392476D01*
X220837200Y-246392476D02*
X220789580Y-246344857D01*
X221204819Y-241630095D02*
X220204819Y-241630095D01*
X221204819Y-242201523D02*
X220633390Y-241772952D01*
X220204819Y-242201523D02*
X220776247Y-241630095D01*
X167584819Y-308547714D02*
X166584819Y-308547714D01*
X166584819Y-308547714D02*
X166584819Y-308785809D01*
X166584819Y-308785809D02*
X166632438Y-308928666D01*
X166632438Y-308928666D02*
X166727676Y-309023904D01*
X166727676Y-309023904D02*
X166822914Y-309071523D01*
X166822914Y-309071523D02*
X167013390Y-309119142D01*
X167013390Y-309119142D02*
X167156247Y-309119142D01*
X167156247Y-309119142D02*
X167346723Y-309071523D01*
X167346723Y-309071523D02*
X167441961Y-309023904D01*
X167441961Y-309023904D02*
X167537200Y-308928666D01*
X167537200Y-308928666D02*
X167584819Y-308785809D01*
X167584819Y-308785809D02*
X167584819Y-308547714D01*
X166584819Y-310023904D02*
X166584819Y-309547714D01*
X166584819Y-309547714D02*
X167061009Y-309500095D01*
X167061009Y-309500095D02*
X167013390Y-309547714D01*
X167013390Y-309547714D02*
X166965771Y-309642952D01*
X166965771Y-309642952D02*
X166965771Y-309881047D01*
X166965771Y-309881047D02*
X167013390Y-309976285D01*
X167013390Y-309976285D02*
X167061009Y-310023904D01*
X167061009Y-310023904D02*
X167156247Y-310071523D01*
X167156247Y-310071523D02*
X167394342Y-310071523D01*
X167394342Y-310071523D02*
X167489580Y-310023904D01*
X167489580Y-310023904D02*
X167537200Y-309976285D01*
X167537200Y-309976285D02*
X167584819Y-309881047D01*
X167584819Y-309881047D02*
X167584819Y-309642952D01*
X167584819Y-309642952D02*
X167537200Y-309547714D01*
X167537200Y-309547714D02*
X167489580Y-309500095D01*
X166584819Y-310976285D02*
X166584819Y-310500095D01*
X166584819Y-310500095D02*
X167061009Y-310452476D01*
X167061009Y-310452476D02*
X167013390Y-310500095D01*
X167013390Y-310500095D02*
X166965771Y-310595333D01*
X166965771Y-310595333D02*
X166965771Y-310833428D01*
X166965771Y-310833428D02*
X167013390Y-310928666D01*
X167013390Y-310928666D02*
X167061009Y-310976285D01*
X167061009Y-310976285D02*
X167156247Y-311023904D01*
X167156247Y-311023904D02*
X167394342Y-311023904D01*
X167394342Y-311023904D02*
X167489580Y-310976285D01*
X167489580Y-310976285D02*
X167537200Y-310928666D01*
X167537200Y-310928666D02*
X167584819Y-310833428D01*
X167584819Y-310833428D02*
X167584819Y-310595333D01*
X167584819Y-310595333D02*
X167537200Y-310500095D01*
X167537200Y-310500095D02*
X167489580Y-310452476D01*
X167904819Y-305690095D02*
X166904819Y-305690095D01*
X167904819Y-306261523D02*
X167333390Y-305832952D01*
X166904819Y-306261523D02*
X167476247Y-305690095D01*
D11*
%TO.C,D99*%
X136920000Y-291052000D02*
X139160000Y-291052000D01*
X136920000Y-291172000D02*
X139160000Y-291172000D01*
X136920000Y-291292000D02*
X139160000Y-291292000D01*
X138040000Y-289802000D02*
X138040000Y-290452000D01*
X138040000Y-295342000D02*
X138040000Y-294692000D01*
X136920000Y-290452000D02*
X139160000Y-290452000D01*
X139160000Y-294692000D01*
X136920000Y-294692000D01*
X136920000Y-290452000D01*
%TO.C,D114*%
X364940000Y-231512000D02*
X367180000Y-231512000D01*
X364940000Y-231632000D02*
X367180000Y-231632000D01*
X364940000Y-231752000D02*
X367180000Y-231752000D01*
X366060000Y-230262000D02*
X366060000Y-230912000D01*
X366060000Y-235802000D02*
X366060000Y-235152000D01*
X364940000Y-230912000D02*
X367180000Y-230912000D01*
X367180000Y-235152000D01*
X364940000Y-235152000D01*
X364940000Y-230912000D01*
%TO.C,D79*%
X321410000Y-270032000D02*
X323650000Y-270032000D01*
X321410000Y-270152000D02*
X323650000Y-270152000D01*
X321410000Y-270272000D02*
X323650000Y-270272000D01*
X322530000Y-268782000D02*
X322530000Y-269432000D01*
X322530000Y-274322000D02*
X322530000Y-273672000D01*
X321410000Y-269432000D02*
X323650000Y-269432000D01*
X323650000Y-273672000D01*
X321410000Y-273672000D01*
X321410000Y-269432000D01*
%TO.C,D112*%
X288120000Y-232022000D02*
X290360000Y-232022000D01*
X288120000Y-232142000D02*
X290360000Y-232142000D01*
X288120000Y-232262000D02*
X290360000Y-232262000D01*
X289240000Y-230772000D02*
X289240000Y-231422000D01*
X289240000Y-236312000D02*
X289240000Y-235662000D01*
X288120000Y-231422000D02*
X290360000Y-231422000D01*
X290360000Y-235662000D01*
X288120000Y-235662000D01*
X288120000Y-231422000D01*
%TO.C,D71*%
X129970000Y-308532000D02*
X132210000Y-308532000D01*
X129970000Y-308652000D02*
X132210000Y-308652000D01*
X129970000Y-308772000D02*
X132210000Y-308772000D01*
X131090000Y-307282000D02*
X131090000Y-307932000D01*
X131090000Y-312822000D02*
X131090000Y-312172000D01*
X129970000Y-307932000D02*
X132210000Y-307932000D01*
X132210000Y-312172000D01*
X129970000Y-312172000D01*
X129970000Y-307932000D01*
%TO.C,D105*%
X357990000Y-288832000D02*
X360230000Y-288832000D01*
X357990000Y-288952000D02*
X360230000Y-288952000D01*
X357990000Y-289072000D02*
X360230000Y-289072000D01*
X359110000Y-287582000D02*
X359110000Y-288232000D01*
X359110000Y-293122000D02*
X359110000Y-292472000D01*
X357990000Y-288232000D02*
X360230000Y-288232000D01*
X360230000Y-292472000D01*
X357990000Y-292472000D01*
X357990000Y-288232000D01*
%TO.C,D7*%
X309810000Y-308062000D02*
X312050000Y-308062000D01*
X309810000Y-308182000D02*
X312050000Y-308182000D01*
X309810000Y-308302000D02*
X312050000Y-308302000D01*
X310930000Y-306812000D02*
X310930000Y-307462000D01*
X310930000Y-312352000D02*
X310930000Y-311702000D01*
X309810000Y-307462000D02*
X312050000Y-307462000D01*
X312050000Y-311702000D01*
X309810000Y-311702000D01*
X309810000Y-307462000D01*
%TO.C,D27*%
X121660000Y-251282000D02*
X123900000Y-251282000D01*
X121660000Y-251402000D02*
X123900000Y-251402000D01*
X121660000Y-251522000D02*
X123900000Y-251522000D01*
X122780000Y-250032000D02*
X122780000Y-250682000D01*
X122780000Y-255572000D02*
X122780000Y-254922000D01*
X121660000Y-250682000D02*
X123900000Y-250682000D01*
X123900000Y-254922000D01*
X121660000Y-254922000D01*
X121660000Y-250682000D01*
%TO.C,D103*%
X327200000Y-231122000D02*
X327200000Y-231772000D01*
X327200000Y-236662000D02*
X327200000Y-236012000D01*
X328320000Y-235172000D02*
X326080000Y-235172000D01*
X328320000Y-235292000D02*
X326080000Y-235292000D01*
X328320000Y-235412000D02*
X326080000Y-235412000D01*
X328320000Y-236012000D02*
X326080000Y-236012000D01*
X326080000Y-231772000D01*
X328320000Y-231772000D01*
X328320000Y-236012000D01*
%TO.C,D90*%
X183440000Y-250842000D02*
X185680000Y-250842000D01*
X183440000Y-250962000D02*
X185680000Y-250962000D01*
X183440000Y-251082000D02*
X185680000Y-251082000D01*
X184560000Y-249592000D02*
X184560000Y-250242000D01*
X184560000Y-255132000D02*
X184560000Y-254482000D01*
X183440000Y-250242000D02*
X185680000Y-250242000D01*
X185680000Y-254482000D01*
X183440000Y-254482000D01*
X183440000Y-250242000D01*
%TO.C,D17*%
X234540000Y-287212000D02*
X234540000Y-287862000D01*
X234540000Y-292752000D02*
X234540000Y-292102000D01*
X235660000Y-291262000D02*
X233420000Y-291262000D01*
X235660000Y-291382000D02*
X233420000Y-291382000D01*
X235660000Y-291502000D02*
X233420000Y-291502000D01*
X235660000Y-292102000D02*
X233420000Y-292102000D01*
X233420000Y-287862000D01*
X235660000Y-287862000D01*
X235660000Y-292102000D01*
%TO.C,D51*%
X111080000Y-308442000D02*
X113320000Y-308442000D01*
X111080000Y-308562000D02*
X113320000Y-308562000D01*
X111080000Y-308682000D02*
X113320000Y-308682000D01*
X112200000Y-307192000D02*
X112200000Y-307842000D01*
X112200000Y-312732000D02*
X112200000Y-312082000D01*
X111080000Y-307842000D02*
X113320000Y-307842000D01*
X113320000Y-312082000D01*
X111080000Y-312082000D01*
X111080000Y-307842000D01*
%TO.C,D113*%
X215710000Y-211982000D02*
X215710000Y-212632000D01*
X215710000Y-217522000D02*
X215710000Y-216872000D01*
X216830000Y-216032000D02*
X214590000Y-216032000D01*
X216830000Y-216152000D02*
X214590000Y-216152000D01*
X216830000Y-216272000D02*
X214590000Y-216272000D01*
X216830000Y-216872000D02*
X214590000Y-216872000D01*
X214590000Y-212632000D01*
X216830000Y-212632000D01*
X216830000Y-216872000D01*
%TO.C,D48*%
X188270000Y-270552000D02*
X190510000Y-270552000D01*
X188270000Y-270672000D02*
X190510000Y-270672000D01*
X188270000Y-270792000D02*
X190510000Y-270792000D01*
X189390000Y-269302000D02*
X189390000Y-269952000D01*
X189390000Y-274842000D02*
X189390000Y-274192000D01*
X188270000Y-269952000D02*
X190510000Y-269952000D01*
X190510000Y-274192000D01*
X188270000Y-274192000D01*
X188270000Y-269952000D01*
%TO.C,D34*%
X379660000Y-271012000D02*
X381900000Y-271012000D01*
X379660000Y-271132000D02*
X381900000Y-271132000D01*
X379660000Y-271252000D02*
X381900000Y-271252000D01*
X380780000Y-269762000D02*
X380780000Y-270412000D01*
X380780000Y-275302000D02*
X380780000Y-274652000D01*
X379660000Y-270412000D02*
X381900000Y-270412000D01*
X381900000Y-274652000D01*
X379660000Y-274652000D01*
X379660000Y-270412000D01*
%TO.C,D64*%
X264260000Y-270142000D02*
X266500000Y-270142000D01*
X264260000Y-270262000D02*
X266500000Y-270262000D01*
X264260000Y-270382000D02*
X266500000Y-270382000D01*
X265380000Y-268892000D02*
X265380000Y-269542000D01*
X265380000Y-274432000D02*
X265380000Y-273782000D01*
X264260000Y-269542000D02*
X266500000Y-269542000D01*
X266500000Y-273782000D01*
X264260000Y-273782000D01*
X264260000Y-269542000D01*
%TO.C,D26*%
X307290000Y-308112000D02*
X309530000Y-308112000D01*
X307290000Y-308232000D02*
X309530000Y-308232000D01*
X307290000Y-308352000D02*
X309530000Y-308352000D01*
X308410000Y-306862000D02*
X308410000Y-307512000D01*
X308410000Y-312402000D02*
X308410000Y-311752000D01*
X307290000Y-307512000D02*
X309530000Y-307512000D01*
X309530000Y-311752000D01*
X307290000Y-311752000D01*
X307290000Y-307512000D01*
%TO.C,D107*%
X402400000Y-270272000D02*
X404640000Y-270272000D01*
X402400000Y-270392000D02*
X404640000Y-270392000D01*
X402400000Y-270512000D02*
X404640000Y-270512000D01*
X403520000Y-269022000D02*
X403520000Y-269672000D01*
X403520000Y-274562000D02*
X403520000Y-273912000D01*
X402400000Y-269672000D02*
X404640000Y-269672000D01*
X404640000Y-273912000D01*
X402400000Y-273912000D01*
X402400000Y-269672000D01*
%TO.C,D66*%
X245290000Y-270602000D02*
X247530000Y-270602000D01*
X245290000Y-270722000D02*
X247530000Y-270722000D01*
X245290000Y-270842000D02*
X247530000Y-270842000D01*
X246410000Y-269352000D02*
X246410000Y-270002000D01*
X246410000Y-274892000D02*
X246410000Y-274242000D01*
X245290000Y-270002000D02*
X247530000Y-270002000D01*
X247530000Y-274242000D01*
X245290000Y-274242000D01*
X245290000Y-270002000D01*
%TO.C,D49*%
X401310000Y-286902000D02*
X403550000Y-286902000D01*
X401310000Y-287022000D02*
X403550000Y-287022000D01*
X401310000Y-287142000D02*
X403550000Y-287142000D01*
X402430000Y-285652000D02*
X402430000Y-286302000D01*
X402430000Y-291192000D02*
X402430000Y-290542000D01*
X401310000Y-286302000D02*
X403550000Y-286302000D01*
X403550000Y-290542000D01*
X401310000Y-290542000D01*
X401310000Y-286302000D01*
%TO.C,D35*%
X268910000Y-232422000D02*
X271150000Y-232422000D01*
X268910000Y-232542000D02*
X271150000Y-232542000D01*
X268910000Y-232662000D02*
X271150000Y-232662000D01*
X270030000Y-231172000D02*
X270030000Y-231822000D01*
X270030000Y-236712000D02*
X270030000Y-236062000D01*
X268910000Y-231822000D02*
X271150000Y-231822000D01*
X271150000Y-236062000D01*
X268910000Y-236062000D01*
X268910000Y-231822000D01*
%TO.C,D98*%
X346460000Y-230530000D02*
X346460000Y-231180000D01*
X346460000Y-236070000D02*
X346460000Y-235420000D01*
X347580000Y-234580000D02*
X345340000Y-234580000D01*
X347580000Y-234700000D02*
X345340000Y-234700000D01*
X347580000Y-234820000D02*
X345340000Y-234820000D01*
X347580000Y-235420000D02*
X345340000Y-235420000D01*
X345340000Y-231180000D01*
X347580000Y-231180000D01*
X347580000Y-235420000D01*
%TO.C,D58*%
X340460000Y-270422000D02*
X342700000Y-270422000D01*
X340460000Y-270542000D02*
X342700000Y-270542000D01*
X340460000Y-270662000D02*
X342700000Y-270662000D01*
X341580000Y-269172000D02*
X341580000Y-269822000D01*
X341580000Y-274712000D02*
X341580000Y-274062000D01*
X340460000Y-269822000D02*
X342700000Y-269822000D01*
X342700000Y-274062000D01*
X340460000Y-274062000D01*
X340460000Y-269822000D01*
%TO.C,D41*%
X202430000Y-251192000D02*
X204670000Y-251192000D01*
X202430000Y-251312000D02*
X204670000Y-251312000D01*
X202430000Y-251432000D02*
X204670000Y-251432000D01*
X203550000Y-249942000D02*
X203550000Y-250592000D01*
X203550000Y-255482000D02*
X203550000Y-254832000D01*
X202430000Y-250592000D02*
X204670000Y-250592000D01*
X204670000Y-254832000D01*
X202430000Y-254832000D01*
X202430000Y-250592000D01*
%TO.C,D5*%
X364500000Y-308932000D02*
X366740000Y-308932000D01*
X364500000Y-309052000D02*
X366740000Y-309052000D01*
X364500000Y-309172000D02*
X366740000Y-309172000D01*
X365620000Y-307682000D02*
X365620000Y-308332000D01*
X365620000Y-313222000D02*
X365620000Y-312572000D01*
X364500000Y-308332000D02*
X366740000Y-308332000D01*
X366740000Y-312572000D01*
X364500000Y-312572000D01*
X364500000Y-308332000D01*
%TO.C,D56*%
X173540000Y-232052000D02*
X175780000Y-232052000D01*
X173540000Y-232172000D02*
X175780000Y-232172000D01*
X173540000Y-232292000D02*
X175780000Y-232292000D01*
X174660000Y-230802000D02*
X174660000Y-231452000D01*
X174660000Y-236342000D02*
X174660000Y-235692000D01*
X173540000Y-231452000D02*
X175780000Y-231452000D01*
X175780000Y-235692000D01*
X173540000Y-235692000D01*
X173540000Y-231452000D01*
%TO.C,D14*%
X207380000Y-269942000D02*
X209620000Y-269942000D01*
X207380000Y-270062000D02*
X209620000Y-270062000D01*
X207380000Y-270182000D02*
X209620000Y-270182000D01*
X208500000Y-268692000D02*
X208500000Y-269342000D01*
X208500000Y-274232000D02*
X208500000Y-273582000D01*
X207380000Y-269342000D02*
X209620000Y-269342000D01*
X209620000Y-273582000D01*
X207380000Y-273582000D01*
X207380000Y-269342000D01*
%TO.C,D33*%
X134670000Y-271002000D02*
X136910000Y-271002000D01*
X134670000Y-271122000D02*
X136910000Y-271122000D01*
X134670000Y-271242000D02*
X136910000Y-271242000D01*
X135790000Y-269752000D02*
X135790000Y-270402000D01*
X135790000Y-275292000D02*
X135790000Y-274642000D01*
X134670000Y-270402000D02*
X136910000Y-270402000D01*
X136910000Y-274642000D01*
X134670000Y-274642000D01*
X134670000Y-270402000D01*
%TO.C,D67*%
X252600000Y-289442000D02*
X254840000Y-289442000D01*
X252600000Y-289562000D02*
X254840000Y-289562000D01*
X252600000Y-289682000D02*
X254840000Y-289682000D01*
X253720000Y-288192000D02*
X253720000Y-288842000D01*
X253720000Y-293732000D02*
X253720000Y-293082000D01*
X252600000Y-288842000D02*
X254840000Y-288842000D01*
X254840000Y-293082000D01*
X252600000Y-293082000D01*
X252600000Y-288842000D01*
%TO.C,D80*%
X226240000Y-269842000D02*
X228480000Y-269842000D01*
X226240000Y-269962000D02*
X228480000Y-269962000D01*
X226240000Y-270082000D02*
X228480000Y-270082000D01*
X227360000Y-268592000D02*
X227360000Y-269242000D01*
X227360000Y-274132000D02*
X227360000Y-273482000D01*
X226240000Y-269242000D02*
X228480000Y-269242000D01*
X228480000Y-273482000D01*
X226240000Y-273482000D01*
X226240000Y-269242000D01*
%TO.C,D104*%
X212050000Y-232202000D02*
X214290000Y-232202000D01*
X212050000Y-232322000D02*
X214290000Y-232322000D01*
X212050000Y-232442000D02*
X214290000Y-232442000D01*
X213170000Y-230952000D02*
X213170000Y-231602000D01*
X213170000Y-236492000D02*
X213170000Y-235842000D01*
X212050000Y-231602000D02*
X214290000Y-231602000D01*
X214290000Y-235842000D01*
X212050000Y-235842000D01*
X212050000Y-231602000D01*
%TO.C,D23*%
X116730000Y-230982000D02*
X118970000Y-230982000D01*
X116730000Y-231102000D02*
X118970000Y-231102000D01*
X116730000Y-231222000D02*
X118970000Y-231222000D01*
X117850000Y-229732000D02*
X117850000Y-230382000D01*
X117850000Y-235272000D02*
X117850000Y-234622000D01*
X116730000Y-230382000D02*
X118970000Y-230382000D01*
X118970000Y-234622000D01*
X116730000Y-234622000D01*
X116730000Y-230382000D01*
%TO.C,D31*%
X395120000Y-233642000D02*
X397360000Y-233642000D01*
X395120000Y-233762000D02*
X397360000Y-233762000D01*
X395120000Y-233882000D02*
X397360000Y-233882000D01*
X396240000Y-232392000D02*
X396240000Y-233042000D01*
X396240000Y-237932000D02*
X396240000Y-237282000D01*
X395120000Y-233042000D02*
X397360000Y-233042000D01*
X397360000Y-237282000D01*
X395120000Y-237282000D01*
X395120000Y-233042000D01*
%TO.C,D91*%
X278630000Y-250762000D02*
X280870000Y-250762000D01*
X278630000Y-250882000D02*
X280870000Y-250882000D01*
X278630000Y-251002000D02*
X280870000Y-251002000D01*
X279750000Y-249512000D02*
X279750000Y-250162000D01*
X279750000Y-255052000D02*
X279750000Y-254402000D01*
X278630000Y-250162000D02*
X280870000Y-250162000D01*
X280870000Y-254402000D01*
X278630000Y-254402000D01*
X278630000Y-250162000D01*
%TO.C,D9*%
X157520000Y-289332000D02*
X159760000Y-289332000D01*
X157520000Y-289452000D02*
X159760000Y-289452000D01*
X157520000Y-289572000D02*
X159760000Y-289572000D01*
X158640000Y-288082000D02*
X158640000Y-288732000D01*
X158640000Y-293622000D02*
X158640000Y-292972000D01*
X157520000Y-288732000D02*
X159760000Y-288732000D01*
X159760000Y-292972000D01*
X157520000Y-292972000D01*
X157520000Y-288732000D01*
%TO.C,D25*%
X144930000Y-251292000D02*
X147170000Y-251292000D01*
X144930000Y-251412000D02*
X147170000Y-251412000D01*
X144930000Y-251532000D02*
X147170000Y-251532000D01*
X146050000Y-250042000D02*
X146050000Y-250692000D01*
X146050000Y-255582000D02*
X146050000Y-254932000D01*
X144930000Y-250692000D02*
X147170000Y-250692000D01*
X147170000Y-254932000D01*
X144930000Y-254932000D01*
X144930000Y-250692000D01*
%TO.C,D97*%
X249870000Y-232322000D02*
X252110000Y-232322000D01*
X249870000Y-232442000D02*
X252110000Y-232442000D01*
X249870000Y-232562000D02*
X252110000Y-232562000D01*
X250990000Y-231072000D02*
X250990000Y-231722000D01*
X250990000Y-236612000D02*
X250990000Y-235962000D01*
X249870000Y-231722000D02*
X252110000Y-231722000D01*
X252110000Y-235962000D01*
X249870000Y-235962000D01*
X249870000Y-231722000D01*
%TO.C,D88*%
X193190000Y-232172000D02*
X195430000Y-232172000D01*
X193190000Y-232292000D02*
X195430000Y-232292000D01*
X193190000Y-232412000D02*
X195430000Y-232412000D01*
X194310000Y-230922000D02*
X194310000Y-231572000D01*
X194310000Y-236462000D02*
X194310000Y-235812000D01*
X193190000Y-231572000D02*
X195430000Y-231572000D01*
X195430000Y-235812000D01*
X193190000Y-235812000D01*
X193190000Y-231572000D01*
%TO.C,D106*%
X402510000Y-250812000D02*
X404750000Y-250812000D01*
X402510000Y-250932000D02*
X404750000Y-250932000D01*
X402510000Y-251052000D02*
X404750000Y-251052000D01*
X403630000Y-249562000D02*
X403630000Y-250212000D01*
X403630000Y-255102000D02*
X403630000Y-254452000D01*
X402510000Y-250212000D02*
X404750000Y-250212000D01*
X404750000Y-254452000D01*
X402510000Y-254452000D01*
X402510000Y-250212000D01*
%TO.C,D75*%
X297620000Y-251482000D02*
X299860000Y-251482000D01*
X297620000Y-251602000D02*
X299860000Y-251602000D01*
X297620000Y-251722000D02*
X299860000Y-251722000D01*
X298740000Y-250232000D02*
X298740000Y-250882000D01*
X298740000Y-255772000D02*
X298740000Y-255122000D01*
X297620000Y-250882000D02*
X299860000Y-250882000D01*
X299860000Y-255122000D01*
X297620000Y-255122000D01*
X297620000Y-250882000D01*
%TO.C,D57*%
X354510000Y-251302000D02*
X356750000Y-251302000D01*
X354510000Y-251422000D02*
X356750000Y-251422000D01*
X354510000Y-251542000D02*
X356750000Y-251542000D01*
X355630000Y-250052000D02*
X355630000Y-250702000D01*
X355630000Y-255592000D02*
X355630000Y-254942000D01*
X354510000Y-250702000D02*
X356750000Y-250702000D01*
X356750000Y-254942000D01*
X354510000Y-254942000D01*
X354510000Y-250702000D01*
%TO.C,D89*%
X316730000Y-251132000D02*
X318970000Y-251132000D01*
X316730000Y-251252000D02*
X318970000Y-251252000D01*
X316730000Y-251372000D02*
X318970000Y-251372000D01*
X317850000Y-249882000D02*
X317850000Y-250532000D01*
X317850000Y-255422000D02*
X317850000Y-254772000D01*
X316730000Y-250532000D02*
X318970000Y-250532000D01*
X318970000Y-254772000D01*
X316730000Y-254772000D01*
X316730000Y-250532000D01*
%TO.C,A1*%
X416640000Y-200502000D02*
X416640000Y-200922000D01*
X416640000Y-203042000D02*
X416640000Y-203462000D01*
X416640000Y-205582000D02*
X416640000Y-206002000D01*
X416640000Y-208122000D02*
X416640000Y-208542000D01*
X416640000Y-210662000D02*
X416640000Y-211082000D01*
X416640000Y-213202000D02*
X416640000Y-213622000D01*
X416640000Y-215742000D02*
X416640000Y-216162000D01*
X416640000Y-218282000D02*
X416640000Y-218702000D01*
X416640000Y-220822000D02*
X416640000Y-221242000D01*
X416640000Y-223362000D02*
X416640000Y-223782000D01*
X416640000Y-225902000D02*
X416640000Y-226322000D01*
X416640000Y-228442000D02*
X416640000Y-228862000D01*
X416640000Y-230982000D02*
X416640000Y-231402000D01*
X416640000Y-233522000D02*
X416640000Y-233942000D01*
X416640000Y-236062000D02*
X416640000Y-236482000D01*
X416640000Y-238602000D02*
X416640000Y-239022000D01*
X416640000Y-241142000D02*
X416640000Y-241562000D01*
X416640000Y-243682000D02*
X416640000Y-244102000D01*
X416640000Y-246222000D02*
X416640000Y-246642000D01*
X417250000Y-197962000D02*
X419740000Y-197962000D01*
X421087939Y-197962000D02*
X419740000Y-197962000D01*
X423015000Y-197962000D02*
X422012061Y-197962000D01*
X423350000Y-197962000D02*
X423350000Y-198878000D01*
X423350000Y-201266000D02*
X423350000Y-202482000D01*
X423646090Y-202482000D02*
X423350000Y-202482000D01*
X428496090Y-202482000D02*
X426003910Y-202482000D01*
X431150000Y-197962000D02*
X431150000Y-198878000D01*
X431150000Y-201266000D02*
X431150000Y-202482000D01*
X431150000Y-202482000D02*
X430853910Y-202482000D01*
X431485000Y-197962000D02*
X423015000Y-197962000D01*
X432487939Y-197962000D02*
X431485000Y-197962000D01*
X434760000Y-197962000D02*
X433412060Y-197962000D01*
X437250000Y-197962000D02*
X434760000Y-197962000D01*
X437829676Y-198382000D02*
X438340000Y-198382000D01*
X437860000Y-200502000D02*
X437860000Y-200922000D01*
X437860000Y-200502000D02*
X438340000Y-200502000D01*
X437860000Y-203042000D02*
X437860000Y-203462000D01*
X437860000Y-205582000D02*
X437860000Y-206002000D01*
X437860000Y-208122000D02*
X437860000Y-208542000D01*
X437860000Y-210662000D02*
X437860000Y-211082000D01*
X437860000Y-213202000D02*
X437860000Y-213622000D01*
X437860000Y-215742000D02*
X437860000Y-216162000D01*
X437860000Y-218282000D02*
X437860000Y-218702000D01*
X437860000Y-220822000D02*
X437860000Y-221242000D01*
X437860000Y-223362000D02*
X437860000Y-223782000D01*
X437860000Y-225902000D02*
X437860000Y-226322000D01*
X437860000Y-228442000D02*
X437860000Y-228862000D01*
X437860000Y-230982000D02*
X437860000Y-231402000D01*
X437860000Y-233522000D02*
X437860000Y-233942000D01*
X437860000Y-236062000D02*
X437860000Y-236482000D01*
X437860000Y-238602000D02*
X437860000Y-239022000D01*
X437860000Y-241142000D02*
X437860000Y-241562000D01*
X437860000Y-243682000D02*
X437860000Y-244102000D01*
X437860000Y-246222000D02*
X437860000Y-246642000D01*
X416670324Y-198382063D02*
G75*
G02*
X417250000Y-197962000I579676J-189937D01*
G01*
X416886682Y-250332000D02*
G75*
G02*
X416670324Y-250031937I363318J490000D01*
G01*
X437250000Y-197962000D02*
G75*
G02*
X437829676Y-198382000I-16J-610051D01*
G01*
X437829676Y-250031937D02*
G75*
G02*
X437613318Y-250332000I-579686J189945D01*
G01*
%TO.C,D18*%
X328690000Y-289222000D02*
X330930000Y-289222000D01*
X328690000Y-289342000D02*
X330930000Y-289342000D01*
X328690000Y-289462000D02*
X330930000Y-289462000D01*
X329810000Y-287972000D02*
X329810000Y-288622000D01*
X329810000Y-293512000D02*
X329810000Y-292862000D01*
X328690000Y-288622000D02*
X330930000Y-288622000D01*
X330930000Y-292862000D01*
X328690000Y-292862000D01*
X328690000Y-288622000D01*
%TO.C,D82*%
X230970000Y-231732000D02*
X233210000Y-231732000D01*
X230970000Y-231852000D02*
X233210000Y-231852000D01*
X230970000Y-231972000D02*
X233210000Y-231972000D01*
X232090000Y-230482000D02*
X232090000Y-231132000D01*
X232090000Y-236022000D02*
X232090000Y-235372000D01*
X230970000Y-231132000D02*
X233210000Y-231132000D01*
X233210000Y-235372000D01*
X230970000Y-235372000D01*
X230970000Y-231132000D01*
%TO.C,D83*%
X271360000Y-281492000D02*
X273600000Y-281492000D01*
X271360000Y-281612000D02*
X273600000Y-281612000D01*
X271360000Y-281732000D02*
X273600000Y-281732000D01*
X272480000Y-280242000D02*
X272480000Y-280892000D01*
X272480000Y-285782000D02*
X272480000Y-285132000D01*
X271360000Y-280892000D02*
X273600000Y-280892000D01*
X273600000Y-285132000D01*
X271360000Y-285132000D01*
X271360000Y-280892000D01*
%TO.C,D39*%
X135650000Y-232012000D02*
X137890000Y-232012000D01*
X135650000Y-232132000D02*
X137890000Y-232132000D01*
X135650000Y-232252000D02*
X137890000Y-232252000D01*
X136770000Y-230762000D02*
X136770000Y-231412000D01*
X136770000Y-236302000D02*
X136770000Y-235652000D01*
X135650000Y-231412000D02*
X137890000Y-231412000D01*
X137890000Y-235652000D01*
X135650000Y-235652000D01*
X135650000Y-231412000D01*
%TO.C,D8*%
X402370000Y-307792000D02*
X404610000Y-307792000D01*
X402370000Y-307912000D02*
X404610000Y-307912000D01*
X402370000Y-308032000D02*
X404610000Y-308032000D01*
X403490000Y-306542000D02*
X403490000Y-307192000D01*
X403490000Y-312082000D02*
X403490000Y-311432000D01*
X402370000Y-307192000D02*
X404610000Y-307192000D01*
X404610000Y-311432000D01*
X402370000Y-311432000D01*
X402370000Y-307192000D01*
%TO.C,D32*%
X383150000Y-308542000D02*
X385390000Y-308542000D01*
X383150000Y-308662000D02*
X385390000Y-308662000D01*
X383150000Y-308782000D02*
X385390000Y-308782000D01*
X384270000Y-307292000D02*
X384270000Y-307942000D01*
X384270000Y-312832000D02*
X384270000Y-312182000D01*
X383150000Y-307942000D02*
X385390000Y-307942000D01*
X385390000Y-312182000D01*
X383150000Y-312182000D01*
X383150000Y-307942000D01*
%TO.C,D42*%
X221400000Y-254102000D02*
X223640000Y-254102000D01*
X221400000Y-254222000D02*
X223640000Y-254222000D01*
X221400000Y-254342000D02*
X223640000Y-254342000D01*
X222520000Y-252852000D02*
X222520000Y-253502000D01*
X222520000Y-258392000D02*
X222520000Y-257742000D01*
X221400000Y-253502000D02*
X223640000Y-253502000D01*
X223640000Y-257742000D01*
X221400000Y-257742000D01*
X221400000Y-253502000D01*
%TO.C,D96*%
X149040000Y-307982000D02*
X151280000Y-307982000D01*
X149040000Y-308102000D02*
X151280000Y-308102000D01*
X149040000Y-308222000D02*
X151280000Y-308222000D01*
X150160000Y-306732000D02*
X150160000Y-307382000D01*
X150160000Y-312272000D02*
X150160000Y-311622000D01*
X149040000Y-307382000D02*
X151280000Y-307382000D01*
X151280000Y-311622000D01*
X149040000Y-311622000D01*
X149040000Y-307382000D01*
%TO.C,D24*%
X240520000Y-251402000D02*
X242760000Y-251402000D01*
X240520000Y-251522000D02*
X242760000Y-251522000D01*
X240520000Y-251642000D02*
X242760000Y-251642000D01*
X241640000Y-250152000D02*
X241640000Y-250802000D01*
X241640000Y-255692000D02*
X241640000Y-255042000D01*
X240520000Y-250802000D02*
X242760000Y-250802000D01*
X242760000Y-255042000D01*
X240520000Y-255042000D01*
X240520000Y-250802000D01*
%TO.C,D81*%
X271300000Y-291332000D02*
X273540000Y-291332000D01*
X271300000Y-291452000D02*
X273540000Y-291452000D01*
X271300000Y-291572000D02*
X273540000Y-291572000D01*
X272420000Y-290082000D02*
X272420000Y-290732000D01*
X272420000Y-295622000D02*
X272420000Y-294972000D01*
X271300000Y-290732000D02*
X273540000Y-290732000D01*
X273540000Y-294972000D01*
X271300000Y-294972000D01*
X271300000Y-290732000D01*
%TO.C,D65*%
X283210000Y-270342000D02*
X285450000Y-270342000D01*
X283210000Y-270462000D02*
X285450000Y-270462000D01*
X283210000Y-270582000D02*
X285450000Y-270582000D01*
X284330000Y-269092000D02*
X284330000Y-269742000D01*
X284330000Y-274632000D02*
X284330000Y-273982000D01*
X283210000Y-269742000D02*
X285450000Y-269742000D01*
X285450000Y-273982000D01*
X283210000Y-273982000D01*
X283210000Y-269742000D01*
%TO.C,D63*%
X169180000Y-269812000D02*
X171420000Y-269812000D01*
X169180000Y-269932000D02*
X171420000Y-269932000D01*
X169180000Y-270052000D02*
X171420000Y-270052000D01*
X170300000Y-268562000D02*
X170300000Y-269212000D01*
X170300000Y-274102000D02*
X170300000Y-273452000D01*
X169180000Y-269212000D02*
X171420000Y-269212000D01*
X171420000Y-273452000D01*
X169180000Y-273452000D01*
X169180000Y-269212000D01*
%TO.C,D72*%
X154800000Y-231992000D02*
X157040000Y-231992000D01*
X154800000Y-232112000D02*
X157040000Y-232112000D01*
X154800000Y-232232000D02*
X157040000Y-232232000D01*
X155920000Y-230742000D02*
X155920000Y-231392000D01*
X155920000Y-236282000D02*
X155920000Y-235632000D01*
X154800000Y-231392000D02*
X157040000Y-231392000D01*
X157040000Y-235632000D01*
X154800000Y-235632000D01*
X154800000Y-231392000D01*
%TO.C,D6*%
X383220000Y-288602000D02*
X385460000Y-288602000D01*
X383220000Y-288722000D02*
X385460000Y-288722000D01*
X383220000Y-288842000D02*
X385460000Y-288842000D01*
X384340000Y-287352000D02*
X384340000Y-288002000D01*
X384340000Y-292892000D02*
X384340000Y-292242000D01*
X383220000Y-288002000D02*
X385460000Y-288002000D01*
X385460000Y-292242000D01*
X383220000Y-292242000D01*
X383220000Y-288002000D01*
%TO.C,D95*%
X239260000Y-308332000D02*
X241500000Y-308332000D01*
X239260000Y-308452000D02*
X241500000Y-308452000D01*
X239260000Y-308572000D02*
X241500000Y-308572000D01*
X240380000Y-307082000D02*
X240380000Y-307732000D01*
X240380000Y-312622000D02*
X240380000Y-311972000D01*
X239260000Y-307732000D02*
X241500000Y-307732000D01*
X241500000Y-311972000D01*
X239260000Y-311972000D01*
X239260000Y-307732000D01*
%TO.C,D87*%
X307050000Y-232122000D02*
X309290000Y-232122000D01*
X307050000Y-232242000D02*
X309290000Y-232242000D01*
X307050000Y-232362000D02*
X309290000Y-232362000D01*
X308170000Y-230872000D02*
X308170000Y-231522000D01*
X308170000Y-236412000D02*
X308170000Y-235762000D01*
X307050000Y-231522000D02*
X309290000Y-231522000D01*
X309290000Y-235762000D01*
X307050000Y-235762000D01*
X307050000Y-231522000D01*
%TO.C,D16*%
X214450000Y-289052000D02*
X216690000Y-289052000D01*
X214450000Y-289172000D02*
X216690000Y-289172000D01*
X214450000Y-289292000D02*
X216690000Y-289292000D01*
X215570000Y-287802000D02*
X215570000Y-288452000D01*
X215570000Y-293342000D02*
X215570000Y-292692000D01*
X214450000Y-288452000D02*
X216690000Y-288452000D01*
X216690000Y-292692000D01*
X214450000Y-292692000D01*
X214450000Y-288452000D01*
%TO.C,D43*%
X302560000Y-270112000D02*
X304800000Y-270112000D01*
X302560000Y-270232000D02*
X304800000Y-270232000D01*
X302560000Y-270352000D02*
X304800000Y-270352000D01*
X303680000Y-268862000D02*
X303680000Y-269512000D01*
X303680000Y-274402000D02*
X303680000Y-273752000D01*
X302560000Y-269512000D02*
X304800000Y-269512000D01*
X304800000Y-273752000D01*
X302560000Y-273752000D01*
X302560000Y-269512000D01*
%TO.C,D59*%
X259490000Y-250842000D02*
X261730000Y-250842000D01*
X259490000Y-250962000D02*
X261730000Y-250962000D01*
X259490000Y-251082000D02*
X261730000Y-251082000D01*
X260610000Y-249592000D02*
X260610000Y-250242000D01*
X260610000Y-255132000D02*
X260610000Y-254482000D01*
X259490000Y-250242000D02*
X261730000Y-250242000D01*
X261730000Y-254482000D01*
X259490000Y-254482000D01*
X259490000Y-250242000D01*
%TO.C,D74*%
X335840000Y-251002000D02*
X338080000Y-251002000D01*
X335840000Y-251122000D02*
X338080000Y-251122000D01*
X335840000Y-251242000D02*
X338080000Y-251242000D01*
X336960000Y-249752000D02*
X336960000Y-250402000D01*
X336960000Y-255292000D02*
X336960000Y-254642000D01*
X335840000Y-250402000D02*
X338080000Y-250402000D01*
X338080000Y-254642000D01*
X335840000Y-254642000D01*
X335840000Y-250402000D01*
%TO.C,D50*%
X176160000Y-288882000D02*
X178400000Y-288882000D01*
X176160000Y-289002000D02*
X178400000Y-289002000D01*
X176160000Y-289122000D02*
X178400000Y-289122000D01*
X177280000Y-287632000D02*
X177280000Y-288282000D01*
X177280000Y-293172000D02*
X177280000Y-292522000D01*
X176160000Y-288282000D02*
X178400000Y-288282000D01*
X178400000Y-292522000D01*
X176160000Y-292522000D01*
X176160000Y-288282000D01*
%TO.C,D15*%
X195360000Y-289182000D02*
X197600000Y-289182000D01*
X195360000Y-289302000D02*
X197600000Y-289302000D01*
X195360000Y-289422000D02*
X197600000Y-289422000D01*
X196480000Y-287932000D02*
X196480000Y-288582000D01*
X196480000Y-293472000D02*
X196480000Y-292822000D01*
X195360000Y-288582000D02*
X197600000Y-288582000D01*
X197600000Y-292822000D01*
X195360000Y-292822000D01*
X195360000Y-288582000D01*
%TO.C,D40*%
X378800000Y-251252000D02*
X381040000Y-251252000D01*
X378800000Y-251372000D02*
X381040000Y-251372000D01*
X378800000Y-251492000D02*
X381040000Y-251492000D01*
X379920000Y-250002000D02*
X379920000Y-250652000D01*
X379920000Y-255542000D02*
X379920000Y-254892000D01*
X378800000Y-250652000D02*
X381040000Y-250652000D01*
X381040000Y-254892000D01*
X378800000Y-254892000D01*
X378800000Y-250652000D01*
%TO.C,D47*%
X287770000Y-308892000D02*
X290010000Y-308892000D01*
X287770000Y-309012000D02*
X290010000Y-309012000D01*
X287770000Y-309132000D02*
X290010000Y-309132000D01*
X288890000Y-307642000D02*
X288890000Y-308292000D01*
X288890000Y-313182000D02*
X288890000Y-312532000D01*
X287770000Y-308292000D02*
X290010000Y-308292000D01*
X290010000Y-312532000D01*
X287770000Y-312532000D01*
X287770000Y-308292000D01*
%TO.C,D73*%
X221430000Y-244182000D02*
X223670000Y-244182000D01*
X221430000Y-244302000D02*
X223670000Y-244302000D01*
X221430000Y-244422000D02*
X223670000Y-244422000D01*
X222550000Y-242932000D02*
X222550000Y-243582000D01*
X222550000Y-248472000D02*
X222550000Y-247822000D01*
X221430000Y-243582000D02*
X223670000Y-243582000D01*
X223670000Y-247822000D01*
X221430000Y-247822000D01*
X221430000Y-243582000D01*
%TO.C,D55*%
X168130000Y-308242000D02*
X170370000Y-308242000D01*
X168130000Y-308362000D02*
X170370000Y-308362000D01*
X168130000Y-308482000D02*
X170370000Y-308482000D01*
X169250000Y-306992000D02*
X169250000Y-307642000D01*
X169250000Y-312532000D02*
X169250000Y-311882000D01*
X168130000Y-307642000D02*
X170370000Y-307642000D01*
X170370000Y-311882000D01*
X168130000Y-311882000D01*
X168130000Y-307642000D01*
%TD*%
M02*
