%TF.GenerationSoftware,KiCad,Pcbnew,9.0.2*%
%TF.CreationDate,2025-06-27T23:50:22-07:00*%
%TF.ProjectId,Proj3,50726f6a-332e-46b6-9963-61645f706362,rev?*%
%TF.SameCoordinates,Original*%
%TF.FileFunction,Other,ECO2*%
%FSLAX46Y46*%
G04 Gerber Fmt 4.6, Leading zero omitted, Abs format (unit mm)*
G04 Created by KiCad (PCBNEW 9.0.2) date 2025-06-27 23:50:22*
%MOMM*%
%LPD*%
G01*
G04 APERTURE LIST*
%ADD10C,0.152400*%
G04 APERTURE END LIST*
D10*
%TO.C,SW63*%
X355160000Y-295702000D02*
X340160000Y-295702000D01*
X340160000Y-295702000D02*
X340160000Y-280702000D01*
X340160000Y-280702000D02*
X355160000Y-280702000D01*
X355160000Y-280702000D02*
X355160000Y-295702000D01*
%TO.C,SW60*%
X126550000Y-296712000D02*
X111550000Y-296712000D01*
X111550000Y-296712000D02*
X111550000Y-281712000D01*
X111550000Y-281712000D02*
X126550000Y-281712000D01*
X126550000Y-281712000D02*
X126550000Y-296712000D01*
%TO.C,SW19*%
X370620000Y-276642000D02*
X355620000Y-276642000D01*
X355620000Y-276642000D02*
X355620000Y-261642000D01*
X355620000Y-261642000D02*
X370620000Y-261642000D01*
X370620000Y-261642000D02*
X370620000Y-276642000D01*
%TO.C,SW16*%
X392730000Y-239605700D02*
X377730000Y-239605700D01*
X377730000Y-239605700D02*
X377730000Y-224605700D01*
X377730000Y-224605700D02*
X392730000Y-224605700D01*
X392730000Y-224605700D02*
X392730000Y-239605700D01*
%TO.C,SW15*%
X120570000Y-257592000D02*
X105570000Y-257592000D01*
X105570000Y-257592000D02*
X105570000Y-242592000D01*
X105570000Y-242592000D02*
X120570000Y-242592000D01*
X120570000Y-242592000D02*
X120570000Y-257592000D01*
%TO.C,SW8*%
X213520000Y-280702000D02*
X213520000Y-295702000D01*
X198520000Y-280702000D02*
X213520000Y-280702000D01*
X213520000Y-295702000D02*
X198520000Y-295702000D01*
X198520000Y-295702000D02*
X198520000Y-280702000D01*
%TO.C,SW3*%
X334870000Y-314752000D02*
X319870000Y-314752000D01*
X319870000Y-314752000D02*
X319870000Y-299752000D01*
X319870000Y-299752000D02*
X334870000Y-299752000D01*
X334870000Y-299752000D02*
X334870000Y-314752000D01*
%TO.C,SW33*%
X338940000Y-242592000D02*
X353940000Y-242592000D01*
X338940000Y-257592000D02*
X338940000Y-242592000D01*
X353940000Y-242592000D02*
X353940000Y-257592000D01*
X353940000Y-257592000D02*
X338940000Y-257592000D01*
%TO.C,SW45*%
X281790000Y-242600000D02*
X296790000Y-242600000D01*
X281790000Y-257600000D02*
X281790000Y-242600000D01*
X296790000Y-242600000D02*
X296790000Y-257600000D01*
X296790000Y-257600000D02*
X281790000Y-257600000D01*
%TO.C,SW9*%
X293760000Y-280712000D02*
X308760000Y-280712000D01*
X293760000Y-295712000D02*
X293760000Y-280712000D01*
X308760000Y-280712000D02*
X308760000Y-295712000D01*
X308760000Y-295712000D02*
X293760000Y-295712000D01*
%TO.C,SW38*%
X267560000Y-261642000D02*
X282560000Y-261642000D01*
X267560000Y-276642000D02*
X267560000Y-261642000D01*
X282560000Y-261642000D02*
X282560000Y-276642000D01*
X282560000Y-276642000D02*
X267560000Y-276642000D01*
%TO.C,SW70*%
X171390000Y-299785700D02*
X186390000Y-299785700D01*
X171390000Y-314785700D02*
X171390000Y-299785700D01*
X186390000Y-299785700D02*
X186390000Y-314785700D01*
X186390000Y-314785700D02*
X171390000Y-314785700D01*
%TO.C,SW30*%
X95090000Y-299722000D02*
X110090000Y-299722000D01*
X95090000Y-314722000D02*
X95090000Y-299722000D01*
X110090000Y-299722000D02*
X110090000Y-314722000D01*
X110090000Y-314722000D02*
X95090000Y-314722000D01*
%TO.C,SW62*%
X196070000Y-223542000D02*
X211070000Y-223542000D01*
X196070000Y-238542000D02*
X196070000Y-223542000D01*
X211070000Y-223542000D02*
X211070000Y-238542000D01*
X211070000Y-238542000D02*
X196070000Y-238542000D01*
%TO.C,SW57*%
X133230000Y-299772000D02*
X148230000Y-299772000D01*
X133230000Y-314772000D02*
X133230000Y-299772000D01*
X148230000Y-299772000D02*
X148230000Y-314772000D01*
X148230000Y-314772000D02*
X133230000Y-314772000D01*
%TO.C,SW54*%
X167490000Y-242600000D02*
X182490000Y-242600000D01*
X167490000Y-257600000D02*
X167490000Y-242600000D01*
X182490000Y-242600000D02*
X182490000Y-257600000D01*
X182490000Y-257600000D02*
X167490000Y-257600000D01*
%TO.C,SW65*%
X386570000Y-261642000D02*
X401570000Y-261642000D01*
X386570000Y-276642000D02*
X386570000Y-261642000D01*
X401570000Y-261642000D02*
X401570000Y-276642000D01*
X401570000Y-276642000D02*
X386570000Y-276642000D01*
%TO.C,SW2*%
X367520000Y-280692000D02*
X382520000Y-280692000D01*
X367520000Y-295692000D02*
X367520000Y-280692000D01*
X382520000Y-280692000D02*
X382520000Y-295692000D01*
X382520000Y-295692000D02*
X367520000Y-295692000D01*
%TO.C,SW41*%
X114150000Y-299742000D02*
X129150000Y-299742000D01*
X114150000Y-314742000D02*
X114150000Y-299742000D01*
X129150000Y-299742000D02*
X129150000Y-314742000D01*
X129150000Y-314742000D02*
X114150000Y-314742000D01*
%TO.C,SW1*%
X348470000Y-299742000D02*
X363470000Y-299742000D01*
X348470000Y-314742000D02*
X348470000Y-299742000D01*
X363470000Y-299742000D02*
X363470000Y-314742000D01*
X363470000Y-314742000D02*
X348470000Y-314742000D01*
%TO.C,SW4*%
X386570000Y-299742000D02*
X401570000Y-299742000D01*
X386570000Y-314742000D02*
X386570000Y-299742000D01*
X401570000Y-299742000D02*
X401570000Y-314742000D01*
X401570000Y-314742000D02*
X386570000Y-314742000D01*
%TO.C,SW48*%
X274690000Y-280702000D02*
X289690000Y-280702000D01*
X274690000Y-295702000D02*
X274690000Y-280702000D01*
X289690000Y-280702000D02*
X289690000Y-295702000D01*
X289690000Y-295702000D02*
X274690000Y-295702000D01*
%TO.C,SW51*%
X291310000Y-223475700D02*
X306310000Y-223475700D01*
X291310000Y-238475700D02*
X291310000Y-223475700D01*
X306310000Y-223475700D02*
X306310000Y-238475700D01*
X306310000Y-238475700D02*
X291310000Y-238475700D01*
%TO.C,SW5*%
X141320000Y-280712000D02*
X156320000Y-280712000D01*
X141320000Y-295712000D02*
X141320000Y-280712000D01*
X156320000Y-280712000D02*
X156320000Y-295712000D01*
X156320000Y-295712000D02*
X141320000Y-295712000D01*
%TO.C,SW26*%
X291320000Y-299792000D02*
X306320000Y-299792000D01*
X291320000Y-314792000D02*
X291320000Y-299792000D01*
X306320000Y-299792000D02*
X306320000Y-314792000D01*
X306320000Y-314792000D02*
X291320000Y-314792000D01*
%TO.C,SW34*%
X324670000Y-261642000D02*
X339670000Y-261642000D01*
X324670000Y-276642000D02*
X324670000Y-261642000D01*
X339670000Y-261642000D02*
X339670000Y-276642000D01*
X339670000Y-276642000D02*
X324670000Y-276642000D01*
%TO.C,SW69*%
X348560000Y-223522000D02*
X363560000Y-223522000D01*
X348560000Y-238522000D02*
X348560000Y-223522000D01*
X363560000Y-223522000D02*
X363560000Y-238522000D01*
X363560000Y-238522000D02*
X348560000Y-238522000D01*
%TO.C,SW17*%
X367530000Y-299772000D02*
X382530000Y-299772000D01*
X367530000Y-314772000D02*
X367530000Y-299772000D01*
X382530000Y-299772000D02*
X382530000Y-314772000D01*
X382530000Y-314772000D02*
X367530000Y-314772000D01*
%TO.C,SW7*%
X179460000Y-280702000D02*
X194460000Y-280702000D01*
X179460000Y-295702000D02*
X179460000Y-280702000D01*
X194460000Y-280702000D02*
X194460000Y-295702000D01*
X194460000Y-295702000D02*
X179460000Y-295702000D01*
%TO.C,SW13*%
X129390000Y-242600000D02*
X144390000Y-242600000D01*
X129390000Y-257600000D02*
X129390000Y-242600000D01*
X144390000Y-242600000D02*
X144390000Y-257600000D01*
X144390000Y-257600000D02*
X129390000Y-257600000D01*
%TO.C,SW35*%
X243690000Y-242600000D02*
X258690000Y-242600000D01*
X243690000Y-257600000D02*
X243690000Y-242600000D01*
X258690000Y-242600000D02*
X258690000Y-257600000D01*
X258690000Y-257600000D02*
X243690000Y-257600000D01*
%TO.C,SW71*%
X271410000Y-299762000D02*
X286410000Y-299762000D01*
X271410000Y-314762000D02*
X271410000Y-299762000D01*
X286410000Y-299762000D02*
X286410000Y-314762000D01*
X286410000Y-314762000D02*
X271410000Y-314762000D01*
%TO.C,SW40*%
X236600000Y-280682000D02*
X251600000Y-280682000D01*
X236600000Y-295682000D02*
X236600000Y-280682000D01*
X251600000Y-280682000D02*
X251600000Y-295682000D01*
X251600000Y-295682000D02*
X236600000Y-295682000D01*
%TO.C,SW22*%
X363030000Y-242612000D02*
X378030000Y-242612000D01*
X363030000Y-257612000D02*
X363030000Y-242612000D01*
X378030000Y-242612000D02*
X378030000Y-257612000D01*
X378030000Y-257612000D02*
X363030000Y-257612000D01*
%TO.C,SW58*%
X234220000Y-223522000D02*
X249220000Y-223522000D01*
X234220000Y-238522000D02*
X234220000Y-223522000D01*
X249220000Y-223522000D02*
X249220000Y-238522000D01*
X249220000Y-238522000D02*
X234220000Y-238522000D01*
%TO.C,SW36*%
X153290000Y-261622000D02*
X168290000Y-261622000D01*
X153290000Y-276622000D02*
X153290000Y-261622000D01*
X168290000Y-261622000D02*
X168290000Y-276622000D01*
X168290000Y-276622000D02*
X153290000Y-276622000D01*
%TO.C,SW25*%
X286610000Y-261642000D02*
X301610000Y-261642000D01*
X286610000Y-276642000D02*
X286610000Y-261642000D01*
X301610000Y-261642000D02*
X301610000Y-276642000D01*
X301610000Y-276642000D02*
X286610000Y-276642000D01*
%TO.C,SW28*%
X386560000Y-280672000D02*
X401560000Y-280672000D01*
X386560000Y-295672000D02*
X386560000Y-280672000D01*
X401560000Y-280672000D02*
X401560000Y-295672000D01*
X401560000Y-295672000D02*
X386560000Y-295672000D01*
%TO.C,SW31*%
X152340000Y-299775700D02*
X167340000Y-299775700D01*
X152340000Y-314775700D02*
X152340000Y-299775700D01*
X167340000Y-299775700D02*
X167340000Y-314775700D01*
X167340000Y-314775700D02*
X152340000Y-314775700D01*
%TO.C,SW43*%
X205590000Y-242600000D02*
X220590000Y-242600000D01*
X205590000Y-257600000D02*
X205590000Y-242600000D01*
X220590000Y-242600000D02*
X220590000Y-257600000D01*
X220590000Y-257600000D02*
X205590000Y-257600000D01*
%TO.C,SW6*%
X191370000Y-261662000D02*
X206370000Y-261662000D01*
X191370000Y-276662000D02*
X191370000Y-261662000D01*
X206370000Y-261662000D02*
X206370000Y-276662000D01*
X206370000Y-276662000D02*
X191370000Y-276662000D01*
%TO.C,SW23*%
X186540000Y-242600000D02*
X201540000Y-242600000D01*
X186540000Y-257600000D02*
X186540000Y-242600000D01*
X201540000Y-242600000D02*
X201540000Y-257600000D01*
X201540000Y-257600000D02*
X186540000Y-257600000D01*
%TO.C,SW18*%
X117520000Y-262732000D02*
X132520000Y-262732000D01*
X117520000Y-277732000D02*
X117520000Y-262732000D01*
X132520000Y-262732000D02*
X132520000Y-277732000D01*
X132520000Y-277732000D02*
X117520000Y-277732000D01*
%TO.C,SW61*%
X310290000Y-223472000D02*
X325290000Y-223472000D01*
X310290000Y-238472000D02*
X310290000Y-223472000D01*
X325290000Y-223472000D02*
X325290000Y-238472000D01*
X325290000Y-238472000D02*
X310290000Y-238472000D01*
%TO.C,SW21*%
X119870000Y-223542000D02*
X134870000Y-223542000D01*
X119870000Y-238542000D02*
X119870000Y-223542000D01*
X134870000Y-223542000D02*
X134870000Y-238542000D01*
X134870000Y-238542000D02*
X119870000Y-238542000D01*
%TO.C,SW68*%
X190500000Y-202592000D02*
X205500000Y-202592000D01*
X190500000Y-217592000D02*
X190500000Y-202592000D01*
X205500000Y-202592000D02*
X205500000Y-217592000D01*
X205500000Y-217592000D02*
X190500000Y-217592000D01*
%TO.C,SW39*%
X229480000Y-261682000D02*
X244480000Y-261682000D01*
X229480000Y-276682000D02*
X229480000Y-261682000D01*
X244480000Y-261682000D02*
X244480000Y-276682000D01*
X244480000Y-276682000D02*
X229480000Y-276682000D01*
%TO.C,SW50*%
X255680000Y-280702000D02*
X270680000Y-280702000D01*
X255680000Y-295702000D02*
X255680000Y-280702000D01*
X270680000Y-280702000D02*
X270680000Y-295702000D01*
X270680000Y-295702000D02*
X255680000Y-295702000D01*
%TO.C,SW67*%
X272340000Y-223522000D02*
X287340000Y-223522000D01*
X272340000Y-238522000D02*
X272340000Y-223522000D01*
X287340000Y-223522000D02*
X287340000Y-238522000D01*
X287340000Y-238522000D02*
X272340000Y-238522000D01*
%TO.C,SW27*%
X172300000Y-261642000D02*
X187300000Y-261642000D01*
X172300000Y-276642000D02*
X172300000Y-261642000D01*
X187300000Y-261642000D02*
X187300000Y-276642000D01*
X187300000Y-276642000D02*
X172300000Y-276642000D01*
%TO.C,SW44*%
X319890000Y-242592000D02*
X334890000Y-242592000D01*
X319890000Y-257592000D02*
X319890000Y-242592000D01*
X334890000Y-242592000D02*
X334890000Y-257592000D01*
X334890000Y-257592000D02*
X319890000Y-257592000D01*
%TO.C,SW52*%
X177020000Y-223542000D02*
X192020000Y-223542000D01*
X177020000Y-238542000D02*
X177020000Y-223542000D01*
X192020000Y-223542000D02*
X192020000Y-238542000D01*
X192020000Y-238542000D02*
X177020000Y-238542000D01*
%TO.C,SW24*%
X224640000Y-242600000D02*
X239640000Y-242600000D01*
X224640000Y-257600000D02*
X224640000Y-242600000D01*
X239640000Y-242600000D02*
X239640000Y-257600000D01*
X239640000Y-257600000D02*
X224640000Y-257600000D01*
%TO.C,SW14*%
X217580000Y-280682000D02*
X232580000Y-280682000D01*
X217580000Y-295682000D02*
X217580000Y-280682000D01*
X232580000Y-280682000D02*
X232580000Y-295682000D01*
X232580000Y-295682000D02*
X217580000Y-295682000D01*
%TO.C,SW12*%
X148440000Y-242600000D02*
X163440000Y-242600000D01*
X148440000Y-257600000D02*
X148440000Y-242600000D01*
X163440000Y-242600000D02*
X163440000Y-257600000D01*
X163440000Y-257600000D02*
X148440000Y-257600000D01*
%TO.C,SW32*%
X157970000Y-223542000D02*
X172970000Y-223542000D01*
X157970000Y-238542000D02*
X157970000Y-223542000D01*
X172970000Y-223542000D02*
X172970000Y-238542000D01*
X172970000Y-238542000D02*
X157970000Y-238542000D01*
%TO.C,SW56*%
X221370000Y-300015700D02*
X236370000Y-300015700D01*
X221370000Y-315015700D02*
X221370000Y-300015700D01*
X236370000Y-300015700D02*
X236370000Y-315015700D01*
X236370000Y-315015700D02*
X221370000Y-315015700D01*
%TO.C,SW10*%
X312840000Y-280692000D02*
X327840000Y-280692000D01*
X312840000Y-295692000D02*
X312840000Y-280692000D01*
X327840000Y-280692000D02*
X327840000Y-295692000D01*
X327840000Y-295692000D02*
X312840000Y-295692000D01*
%TO.C,SW37*%
X248510000Y-261632000D02*
X263510000Y-261632000D01*
X248510000Y-276632000D02*
X248510000Y-261632000D01*
X263510000Y-261632000D02*
X263510000Y-276632000D01*
X263510000Y-276632000D02*
X248510000Y-276632000D01*
%TO.C,SW42*%
X138920000Y-223542000D02*
X153920000Y-223542000D01*
X138920000Y-238542000D02*
X138920000Y-223542000D01*
X153920000Y-223542000D02*
X153920000Y-238542000D01*
X153920000Y-238542000D02*
X138920000Y-238542000D01*
%TO.C,SW49*%
X215110000Y-223532000D02*
X230110000Y-223532000D01*
X215110000Y-238532000D02*
X215110000Y-223532000D01*
X230110000Y-223532000D02*
X230110000Y-238532000D01*
X230110000Y-238532000D02*
X215110000Y-238532000D01*
%TO.C,SW53*%
X300840000Y-242592000D02*
X315840000Y-242592000D01*
X300840000Y-257592000D02*
X300840000Y-242592000D01*
X315840000Y-242592000D02*
X315840000Y-257592000D01*
X315840000Y-257592000D02*
X300840000Y-257592000D01*
%TO.C,SW55*%
X262740000Y-242600000D02*
X277740000Y-242600000D01*
X262740000Y-257600000D02*
X262740000Y-242600000D01*
X277740000Y-242600000D02*
X277740000Y-257600000D01*
X277740000Y-257600000D02*
X262740000Y-257600000D01*
%TO.C,SW11*%
X100820000Y-223542000D02*
X115820000Y-223542000D01*
X100820000Y-238542000D02*
X100820000Y-223542000D01*
X115820000Y-223542000D02*
X115820000Y-238542000D01*
X115820000Y-238542000D02*
X100820000Y-238542000D01*
%TO.C,SW47*%
X210400000Y-261652000D02*
X225400000Y-261652000D01*
X210400000Y-276652000D02*
X210400000Y-261652000D01*
X225400000Y-261652000D02*
X225400000Y-276652000D01*
X225400000Y-276652000D02*
X210400000Y-276652000D01*
%TO.C,SW29*%
X160400000Y-280702000D02*
X175400000Y-280702000D01*
X160400000Y-295702000D02*
X160400000Y-280702000D01*
X175400000Y-280702000D02*
X175400000Y-295702000D01*
X175400000Y-295702000D02*
X160400000Y-295702000D01*
%TO.C,SW20*%
X253280000Y-223542000D02*
X268280000Y-223542000D01*
X253280000Y-238542000D02*
X253280000Y-223542000D01*
X268280000Y-223542000D02*
X268280000Y-238542000D01*
X268280000Y-238542000D02*
X253280000Y-238542000D01*
%TO.C,SW59*%
X329440000Y-223512000D02*
X344440000Y-223512000D01*
X329440000Y-238512000D02*
X329440000Y-223512000D01*
X344440000Y-223512000D02*
X344440000Y-238512000D01*
X344440000Y-238512000D02*
X329440000Y-238512000D01*
%TO.C,SW46*%
X305650000Y-261642000D02*
X320650000Y-261642000D01*
X305650000Y-276642000D02*
X305650000Y-261642000D01*
X320650000Y-261642000D02*
X320650000Y-276642000D01*
X320650000Y-276642000D02*
X305650000Y-276642000D01*
%TO.C,SW64*%
X386570000Y-242592000D02*
X401570000Y-242592000D01*
X386570000Y-257592000D02*
X386570000Y-242592000D01*
X401570000Y-242592000D02*
X401570000Y-257592000D01*
X401570000Y-257592000D02*
X386570000Y-257592000D01*
%TD*%
M02*
