M48
; DRILL file {KiCad 9.0.2} date 2025-06-27T23:50:27-0700
; FORMAT={-:-/ absolute / metric / decimal}
; #@! TF.CreationDate,2025-06-27T23:50:27-07:00
; #@! TF.GenerationSoftware,Kicad,Pcbnew,9.0.2
; #@! TF.FileFunction,Plated,1,2,PTH
FMAT,2
METRIC
; #@! TA.AperFunction,Plated,PTH,ViaDrill
T1C0.300
; #@! TA.AperFunction,Plated,PTH,ComponentDrill
T2C0.800
; #@! TA.AperFunction,Plated,PTH,ComponentDrill
T3C0.991
; #@! TA.AperFunction,Plated,PTH,ComponentDrill
T4C1.000
; #@! TA.AperFunction,Plated,PTH,ComponentDrill
T5C1.470
; #@! TA.AperFunction,Plated,PTH,ComponentDrill
T6C1.500
%
G90
G05
T1
X95.118Y-204.153
X99.025Y-299.836
X101.097Y-208.835
X101.955Y-205.5
X102.004Y-219.764
X108.751Y-216.799
X114.445Y-207.902
X115.483Y-283.492
X122.293Y-209.99
X122.856Y-205.361
X123.612Y-217.098
X125.168Y-203.878
X131.445Y-207.87
X131.793Y-220.935
X131.793Y-278.901
X131.793Y-293.904
X134.317Y-261.283
X136.446Y-198.232
X137.532Y-207.389
X138.045Y-204.936
X143.116Y-207.957
X146.069Y-203.713
X146.688Y-300.627
X148.057Y-214.806
X153.058Y-216.113
X153.078Y-207.602
X153.325Y-290.939
X155.009Y-210.414
X155.159Y-203.561
X156.391Y-209.522
X157.289Y-259.702
X158.077Y-212.059
X158.603Y-221.141
X161.387Y-207.46
X161.404Y-215.839
X161.582Y-227.934
X167.413Y-217.475
X169.1Y-217.778
X171.2Y-207.98
X171.342Y-216.172
X171.779Y-291.539
X172.703Y-218.088
X177.16Y-202.02
X185.413Y-240.524
X191.371Y-266.245
X200.308Y-213.069
X206.78Y-201.33
X207.022Y-261.926
X214.476Y-253.283
X215.202Y-282.634
X220.604Y-228.531
X221.873Y-285.798
X223.395Y-215.607
X223.612Y-214.805
X224.139Y-219.519
X227.62Y-201.13
X227.71Y-212.34
X228.312Y-266.245
X229.853Y-207.762
X230.324Y-204.894
X232.713Y-207.283
X234.34Y-213.6
X235.088Y-291.508
X235.417Y-214.524
X235.71Y-285.468
X236.163Y-201.762
X236.757Y-220.728
X238.091Y-207.466
X238.106Y-204.936
X238.557Y-214.178
X239.054Y-206.202
X244.156Y-207.151
X244.991Y-240.522
X245.05Y-212.34
X245.746Y-266.928
X245.99Y-211.03
X246.163Y-259.222
X250.949Y-264.248
X250.949Y-296.87
X251.11Y-212.341
X253.44Y-203.07
X253.63Y-214.45
X255.44Y-211.11
X258.18Y-214.48
X260.593Y-207.039
X266.581Y-276.757
X268.733Y-210.536
X268.822Y-246.967
X272.94Y-204.01
X274.32Y-207.902
X274.78Y-282.634
X277.267Y-202.545
X277.869Y-214.382
X278.362Y-218.029
X278.433Y-224.741
X280.079Y-202.781
X280.738Y-210.235
X280.738Y-273.145
X283.573Y-212.544
X284.173Y-218.041
X284.188Y-211.172
X284.773Y-214.01
X286.29Y-212.34
X286.955Y-210.541
X289.675Y-216.423
X289.675Y-302.801
X297.807Y-224.718
X298.611Y-281.042
X298.651Y-222.69
X298.69Y-203.37
X299.426Y-216.211
X300.516Y-241.481
X305.912Y-282.478
X305.931Y-303.701
X307.548Y-299.836
X307.78Y-297.21
X309.38Y-297.15
X310.33Y-296.495
X310.843Y-282.634
X312.072Y-293.904
X313.18Y-297.164
X313.506Y-241.481
X314.208Y-233.24
X315.83Y-235.907
X319.464Y-266.917
X320.75Y-303.19
X324.653Y-199.067
X324.964Y-208.773
X325.109Y-210.531
X325.513Y-202.253
X325.93Y-198.766
X326.154Y-201.693
X328.4Y-220.928
X328.63Y-203.132
X328.764Y-208.494
X328.807Y-234.082
X330.464Y-206.172
X330.503Y-212.871
X331.379Y-240.856
X333.553Y-303.725
X334.13Y-205.267
X336.402Y-212.134
X336.442Y-205.593
X337.218Y-220.125
X337.235Y-205.487
X337.686Y-211.238
X338.232Y-206.47
X338.379Y-208.673
X338.889Y-219.724
X338.964Y-213.886
X339.979Y-210.755
X339.979Y-216.617
X341.232Y-202.912
X343.25Y-303.76
X343.295Y-222.73
X343.572Y-270.198
X343.582Y-276.111
X345.597Y-239.898
X345.791Y-206.107
X346.276Y-212.78
X346.57Y-225.72
X347.187Y-240.248
X347.66Y-227.382
X348.376Y-210.69
X349.089Y-202.918
X349.502Y-206.711
X349.886Y-201.246
X352.23Y-212.138
X352.23Y-218.141
X352.619Y-202.704
X353.22Y-209.792
X354.319Y-206.107
X354.403Y-212.806
X354.988Y-235.493
X355.957Y-304.243
X357.419Y-202.595
X358.189Y-198.815
X358.189Y-217.96
X359.87Y-203.88
X360.422Y-205.979
X361.097Y-273.037
X364.147Y-243.489
X365.048Y-212.78
X365.087Y-206.107
X367.786Y-209.602
X367.942Y-202.929
X370.105Y-228.367
X370.105Y-309.159
X373.587Y-201.42
X375.569Y-210.353
X376.47Y-201.971
X381.269Y-202.929
X381.297Y-213.339
X381.698Y-210.224
X381.98Y-228.369
X382.021Y-203.922
X384.34Y-277.981
X385.464Y-269.996
X385.47Y-228.384
X385.75Y-225.95
X387.342Y-278.469
X387.978Y-203.833
X388.773Y-217.96
X389.753Y-236.272
X389.951Y-308.689
X390.505Y-229.655
X390.868Y-209.49
X390.956Y-218.974
X393.627Y-213.887
X394.268Y-204.936
X394.914Y-233.621
X401.974Y-258.842
X402.369Y-207.111
X403.459Y-206.786
X404.599Y-221.892
X404.69Y-272.013
X405.56Y-252.386
X406.066Y-269.996
X406.171Y-208.693
X406.189Y-224.415
X409.437Y-231.627
X409.58Y-207.902
X409.58Y-215.678
X409.58Y-223.36
X410.514Y-225.416
X411.811Y-241.079
X412.667Y-210.262
X412.677Y-201.971
X412.72Y-218.77
X414.413Y-233.801
X415.448Y-237.602
X417.56Y-204.522
X419.983Y-293.904
X420.123Y-305.767
X420.205Y-229.893
X423.797Y-267.214
X423.852Y-282.042
X423.852Y-296.997
X423.852Y-308.732
X427.39Y-217.23
X427.55Y-241.47
X427.574Y-285.226
X430.81Y-231.01
X431.943Y-240.227
X433.213Y-223.38
X433.239Y-221.909
X433.265Y-225.65
X433.432Y-239.282
X433.694Y-234.592
X434.004Y-229.188
X434.384Y-235.801
X434.469Y-218.873
X434.601Y-239.881
X434.744Y-219.764
X434.744Y-221.937
X435.041Y-236.767
X435.053Y-240.84
X436.94Y-204.522
X436.94Y-217.22
X436.94Y-229.922
X436.94Y-242.62
X438.587Y-228.373
X438.62Y-238.89
X439.266Y-224.69
T2
X112.2Y-306.152
X112.2Y-313.772
X117.85Y-228.692
X117.85Y-236.312
X122.78Y-248.992
X122.78Y-256.612
X131.09Y-306.242
X131.09Y-313.862
X135.79Y-268.712
X135.79Y-276.332
X136.77Y-229.722
X136.77Y-237.342
X138.04Y-288.762
X138.04Y-296.382
X146.05Y-249.002
X146.05Y-256.622
X150.16Y-305.692
X150.16Y-313.312
X155.92Y-229.702
X155.92Y-237.322
X158.64Y-287.042
X158.64Y-294.662
X169.25Y-305.952
X169.25Y-313.572
X170.3Y-267.522
X170.3Y-275.142
X174.66Y-229.762
X174.66Y-237.382
X177.28Y-286.592
X177.28Y-294.212
X184.56Y-248.552
X184.56Y-256.172
X189.39Y-268.262
X189.39Y-275.882
X194.31Y-229.882
X194.31Y-237.502
X196.48Y-286.892
X196.48Y-294.512
X203.55Y-248.902
X203.55Y-256.522
X208.5Y-267.652
X208.5Y-275.272
X213.17Y-229.912
X213.17Y-237.532
X215.57Y-286.762
X215.57Y-294.382
X215.71Y-210.942
X215.71Y-218.562
X222.52Y-251.812
X222.52Y-259.432
X222.55Y-241.892
X222.55Y-249.512
X227.36Y-267.552
X227.36Y-275.172
X232.09Y-229.442
X232.09Y-237.062
X234.54Y-286.172
X234.54Y-293.792
X240.38Y-306.042
X240.38Y-313.662
X241.64Y-249.112
X241.64Y-256.732
X246.41Y-268.312
X246.41Y-275.932
X250.99Y-230.032
X250.99Y-237.652
X253.31Y-204.622
X253.31Y-212.242
X253.72Y-287.152
X253.72Y-294.772
X260.61Y-248.552
X260.61Y-256.172
X265.38Y-267.852
X265.38Y-275.472
X270.03Y-230.132
X270.03Y-237.752
X272.42Y-289.042
X272.42Y-296.662
X272.48Y-279.202
X272.48Y-286.822
X279.75Y-248.472
X279.75Y-256.092
X284.33Y-268.052
X284.33Y-275.672
X288.89Y-306.602
X288.89Y-314.222
X289.24Y-229.732
X289.24Y-237.352
X298.74Y-249.192
X298.74Y-256.812
X303.68Y-267.822
X303.68Y-275.442
X308.17Y-229.832
X308.17Y-237.452
X308.41Y-305.822
X308.41Y-313.442
X310.93Y-305.772
X310.93Y-313.392
X317.85Y-248.842
X317.85Y-256.462
X322.53Y-267.742
X322.53Y-275.362
X327.2Y-230.082
X327.2Y-237.702
X329.81Y-286.932
X329.81Y-294.552
X336.96Y-248.712
X336.96Y-256.332
X341.58Y-268.132
X341.58Y-275.752
X346.46Y-229.49
X346.46Y-237.11
X355.63Y-249.012
X355.63Y-256.632
X359.11Y-286.542
X359.11Y-294.162
X365.62Y-306.642
X365.62Y-314.262
X366.06Y-229.222
X366.06Y-236.842
X379.92Y-248.962
X379.92Y-256.582
X380.78Y-268.722
X380.78Y-276.342
X384.27Y-306.252
X384.27Y-313.872
X384.34Y-286.312
X384.34Y-293.932
X396.24Y-231.352
X396.24Y-238.972
X402.43Y-284.612
X402.43Y-292.232
X403.49Y-305.502
X403.49Y-313.122
X403.52Y-267.982
X403.52Y-275.602
X403.63Y-248.522
X403.63Y-256.142
T3
X101.32Y-302.422
X103.86Y-302.422
X107.05Y-226.242
X109.59Y-226.242
X111.8Y-245.292
X114.34Y-245.292
X117.78Y-284.412
X120.32Y-284.412
X120.38Y-302.442
X122.92Y-302.442
X123.75Y-265.432
X126.1Y-226.242
X126.29Y-265.432
X128.64Y-226.242
X135.62Y-245.3
X138.16Y-245.3
X139.46Y-302.472
X142.0Y-302.472
X145.15Y-226.242
X147.55Y-283.412
X147.69Y-226.242
X150.09Y-283.412
X154.67Y-245.3
X157.21Y-245.3
X158.57Y-302.476
X159.52Y-264.322
X161.11Y-302.476
X162.06Y-264.322
X164.2Y-226.242
X166.63Y-283.402
X166.74Y-226.242
X169.17Y-283.402
X173.72Y-245.3
X176.26Y-245.3
X177.62Y-302.486
X178.53Y-264.342
X180.16Y-302.486
X181.07Y-264.342
X183.25Y-226.242
X185.69Y-283.402
X185.79Y-226.242
X188.23Y-283.402
X192.77Y-245.3
X195.31Y-245.3
X196.73Y-205.292
X197.6Y-264.362
X199.27Y-205.292
X200.14Y-264.362
X202.3Y-226.242
X204.84Y-226.242
X211.82Y-245.3
X214.36Y-245.3
X216.63Y-264.352
X219.17Y-264.352
X221.34Y-226.232
X223.81Y-283.382
X223.88Y-226.232
X226.35Y-283.382
X227.6Y-302.716
X230.14Y-302.716
X230.87Y-245.3
X233.41Y-245.3
X235.71Y-264.382
X238.25Y-264.382
X240.45Y-226.222
X242.83Y-283.382
X242.99Y-226.222
X245.37Y-283.382
X249.92Y-245.3
X252.46Y-245.3
X254.74Y-264.332
X257.28Y-264.332
X259.51Y-226.242
X261.91Y-283.402
X262.05Y-226.242
X264.45Y-283.402
X268.97Y-245.3
X271.51Y-245.3
X273.79Y-264.342
X276.33Y-264.342
X277.64Y-302.462
X278.57Y-226.222
X280.18Y-302.462
X280.92Y-283.402
X281.11Y-226.222
X283.46Y-283.402
X288.02Y-245.3
X290.56Y-245.3
X292.84Y-264.342
X295.38Y-264.342
X297.54Y-226.176
X297.55Y-302.492
X299.99Y-283.412
X300.08Y-226.176
X300.09Y-302.492
X302.53Y-283.412
X307.07Y-245.292
X309.61Y-245.292
X311.88Y-264.342
X314.42Y-264.342
X316.52Y-226.172
X319.06Y-226.172
X319.07Y-283.392
X321.61Y-283.392
X326.1Y-302.452
X326.12Y-245.292
X328.64Y-302.452
X328.66Y-245.292
X330.9Y-264.342
X333.44Y-264.342
X335.67Y-226.212
X338.21Y-226.212
X345.17Y-245.292
X346.39Y-283.402
X347.71Y-245.292
X348.93Y-283.402
X354.7Y-302.442
X354.79Y-226.222
X357.24Y-302.442
X357.33Y-226.222
X361.85Y-264.342
X364.39Y-264.342
X369.26Y-245.312
X371.8Y-245.312
X373.75Y-283.392
X373.76Y-302.472
X376.29Y-283.392
X376.3Y-302.472
X383.96Y-227.306
X386.5Y-227.306
X392.79Y-283.372
X392.8Y-245.292
X392.8Y-264.342
X392.8Y-302.442
X395.33Y-283.372
X395.34Y-245.292
X395.34Y-264.342
X395.34Y-302.442
T4
X295.65Y-205.462
X295.65Y-207.962
X295.65Y-210.462
X310.15Y-205.462
X310.15Y-210.462
X421.586Y-230.542
X424.126Y-230.542
X426.666Y-230.542
T5
X97.59Y-311.022
X102.59Y-313.122
X103.32Y-234.842
X108.07Y-253.892
X108.32Y-236.942
X113.07Y-255.992
X114.05Y-293.012
X116.65Y-311.042
X119.05Y-295.112
X120.02Y-274.032
X121.65Y-313.142
X122.37Y-234.842
X125.02Y-276.132
X127.37Y-236.942
X131.89Y-253.9
X135.73Y-311.072
X136.89Y-256.0
X140.73Y-313.172
X141.42Y-234.842
X143.82Y-292.012
X146.42Y-236.942
X148.82Y-294.112
X150.94Y-253.9
X154.84Y-311.076
X155.79Y-272.922
X155.94Y-256.0
X159.84Y-313.176
X160.47Y-234.842
X160.79Y-275.022
X162.9Y-292.002
X165.47Y-236.942
X167.9Y-294.102
X169.99Y-253.9
X173.89Y-311.086
X174.8Y-272.942
X174.99Y-256.0
X178.89Y-313.186
X179.52Y-234.842
X179.8Y-275.042
X181.96Y-292.002
X184.52Y-236.942
X186.96Y-294.102
X189.04Y-253.9
X193.0Y-213.892
X193.87Y-272.962
X194.04Y-256.0
X198.0Y-215.992
X198.57Y-234.842
X198.87Y-275.062
X201.02Y-292.002
X203.57Y-236.942
X206.02Y-294.102
X208.09Y-253.9
X212.9Y-272.952
X213.09Y-256.0
X217.61Y-234.832
X217.9Y-275.052
X220.08Y-291.982
X222.61Y-236.932
X223.87Y-311.316
X225.08Y-294.082
X227.14Y-253.9
X228.87Y-313.416
X231.98Y-272.982
X232.14Y-256.0
X236.72Y-234.822
X236.98Y-275.082
X239.1Y-291.982
X241.72Y-236.922
X244.1Y-294.082
X246.19Y-253.9
X251.01Y-272.932
X251.19Y-256.0
X255.78Y-234.842
X256.01Y-275.032
X258.18Y-292.002
X260.78Y-236.942
X263.18Y-294.102
X265.24Y-253.9
X270.06Y-272.942
X270.24Y-256.0
X273.91Y-311.062
X274.84Y-234.822
X275.06Y-275.042
X277.19Y-292.002
X278.91Y-313.162
X279.84Y-236.922
X282.19Y-294.102
X284.29Y-253.9
X289.11Y-272.942
X289.29Y-256.0
X293.81Y-234.776
X293.82Y-311.092
X294.11Y-275.042
X296.26Y-292.012
X298.81Y-236.876
X298.82Y-313.192
X301.26Y-294.112
X303.34Y-253.892
X308.15Y-272.942
X308.34Y-255.992
X312.79Y-234.772
X313.15Y-275.042
X315.34Y-291.992
X317.79Y-236.872
X320.34Y-294.092
X322.37Y-311.052
X322.39Y-253.892
X327.17Y-272.942
X327.37Y-313.152
X327.39Y-255.992
X331.94Y-234.812
X332.17Y-275.042
X336.94Y-236.912
X341.44Y-253.892
X342.66Y-292.002
X346.44Y-255.992
X347.66Y-294.102
X350.97Y-311.042
X351.06Y-234.822
X355.97Y-313.142
X356.06Y-236.922
X358.12Y-272.942
X363.12Y-275.042
X365.53Y-253.912
X370.02Y-291.992
X370.03Y-311.072
X370.53Y-256.012
X375.02Y-294.092
X375.03Y-313.172
X380.23Y-235.906
X385.23Y-238.006
X389.06Y-291.972
X389.07Y-253.892
X389.07Y-272.942
X389.07Y-311.042
X394.06Y-294.072
X394.07Y-255.992
X394.07Y-275.042
X394.07Y-313.142
T6
G00X302.5Y-202.362
M15
G01X303.8Y-202.362
M16
G05
G00X302.5Y-213.562
M15
G01X303.8Y-213.562
M16
G05
M30
