%TF.GenerationSoftware,KiCad,Pcbnew,9.0.2*%
%TF.CreationDate,2025-06-27T22:30:48-07:00*%
%TF.ProjectId,Proj3,50726f6a-332e-46b6-9963-61645f706362,rev?*%
%TF.SameCoordinates,Original*%
%TF.FileFunction,OtherDrawing,Comment*%
%FSLAX46Y46*%
G04 Gerber Fmt 4.6, Leading zero omitted, Abs format (unit mm)*
G04 Created by KiCad (PCBNEW 9.0.2) date 2025-06-27 22:30:48*
%MOMM*%
%LPD*%
G01*
G04 APERTURE LIST*
%ADD10C,0.200000*%
%ADD11C,0.152400*%
%ADD12C,0.120000*%
G04 APERTURE END LIST*
D10*
X117240476Y-282472850D02*
X117383333Y-282520469D01*
X117383333Y-282520469D02*
X117621428Y-282520469D01*
X117621428Y-282520469D02*
X117716666Y-282472850D01*
X117716666Y-282472850D02*
X117764285Y-282425230D01*
X117764285Y-282425230D02*
X117811904Y-282329992D01*
X117811904Y-282329992D02*
X117811904Y-282234754D01*
X117811904Y-282234754D02*
X117764285Y-282139516D01*
X117764285Y-282139516D02*
X117716666Y-282091897D01*
X117716666Y-282091897D02*
X117621428Y-282044278D01*
X117621428Y-282044278D02*
X117430952Y-281996659D01*
X117430952Y-281996659D02*
X117335714Y-281949040D01*
X117335714Y-281949040D02*
X117288095Y-281901421D01*
X117288095Y-281901421D02*
X117240476Y-281806183D01*
X117240476Y-281806183D02*
X117240476Y-281710945D01*
X117240476Y-281710945D02*
X117288095Y-281615707D01*
X117288095Y-281615707D02*
X117335714Y-281568088D01*
X117335714Y-281568088D02*
X117430952Y-281520469D01*
X117430952Y-281520469D02*
X117669047Y-281520469D01*
X117669047Y-281520469D02*
X117811904Y-281568088D01*
X118145238Y-281520469D02*
X118383333Y-282520469D01*
X118383333Y-282520469D02*
X118573809Y-281806183D01*
X118573809Y-281806183D02*
X118764285Y-282520469D01*
X118764285Y-282520469D02*
X119002381Y-281520469D01*
X119811904Y-281520469D02*
X119621428Y-281520469D01*
X119621428Y-281520469D02*
X119526190Y-281568088D01*
X119526190Y-281568088D02*
X119478571Y-281615707D01*
X119478571Y-281615707D02*
X119383333Y-281758564D01*
X119383333Y-281758564D02*
X119335714Y-281949040D01*
X119335714Y-281949040D02*
X119335714Y-282329992D01*
X119335714Y-282329992D02*
X119383333Y-282425230D01*
X119383333Y-282425230D02*
X119430952Y-282472850D01*
X119430952Y-282472850D02*
X119526190Y-282520469D01*
X119526190Y-282520469D02*
X119716666Y-282520469D01*
X119716666Y-282520469D02*
X119811904Y-282472850D01*
X119811904Y-282472850D02*
X119859523Y-282425230D01*
X119859523Y-282425230D02*
X119907142Y-282329992D01*
X119907142Y-282329992D02*
X119907142Y-282091897D01*
X119907142Y-282091897D02*
X119859523Y-281996659D01*
X119859523Y-281996659D02*
X119811904Y-281949040D01*
X119811904Y-281949040D02*
X119716666Y-281901421D01*
X119716666Y-281901421D02*
X119526190Y-281901421D01*
X119526190Y-281901421D02*
X119430952Y-281949040D01*
X119430952Y-281949040D02*
X119383333Y-281996659D01*
X119383333Y-281996659D02*
X119335714Y-282091897D01*
X120526190Y-281520469D02*
X120621428Y-281520469D01*
X120621428Y-281520469D02*
X120716666Y-281568088D01*
X120716666Y-281568088D02*
X120764285Y-281615707D01*
X120764285Y-281615707D02*
X120811904Y-281710945D01*
X120811904Y-281710945D02*
X120859523Y-281901421D01*
X120859523Y-281901421D02*
X120859523Y-282139516D01*
X120859523Y-282139516D02*
X120811904Y-282329992D01*
X120811904Y-282329992D02*
X120764285Y-282425230D01*
X120764285Y-282425230D02*
X120716666Y-282472850D01*
X120716666Y-282472850D02*
X120621428Y-282520469D01*
X120621428Y-282520469D02*
X120526190Y-282520469D01*
X120526190Y-282520469D02*
X120430952Y-282472850D01*
X120430952Y-282472850D02*
X120383333Y-282425230D01*
X120383333Y-282425230D02*
X120335714Y-282329992D01*
X120335714Y-282329992D02*
X120288095Y-282139516D01*
X120288095Y-282139516D02*
X120288095Y-281901421D01*
X120288095Y-281901421D02*
X120335714Y-281710945D01*
X120335714Y-281710945D02*
X120383333Y-281615707D01*
X120383333Y-281615707D02*
X120430952Y-281568088D01*
X120430952Y-281568088D02*
X120526190Y-281520469D01*
X227060476Y-300776550D02*
X227203333Y-300824169D01*
X227203333Y-300824169D02*
X227441428Y-300824169D01*
X227441428Y-300824169D02*
X227536666Y-300776550D01*
X227536666Y-300776550D02*
X227584285Y-300728930D01*
X227584285Y-300728930D02*
X227631904Y-300633692D01*
X227631904Y-300633692D02*
X227631904Y-300538454D01*
X227631904Y-300538454D02*
X227584285Y-300443216D01*
X227584285Y-300443216D02*
X227536666Y-300395597D01*
X227536666Y-300395597D02*
X227441428Y-300347978D01*
X227441428Y-300347978D02*
X227250952Y-300300359D01*
X227250952Y-300300359D02*
X227155714Y-300252740D01*
X227155714Y-300252740D02*
X227108095Y-300205121D01*
X227108095Y-300205121D02*
X227060476Y-300109883D01*
X227060476Y-300109883D02*
X227060476Y-300014645D01*
X227060476Y-300014645D02*
X227108095Y-299919407D01*
X227108095Y-299919407D02*
X227155714Y-299871788D01*
X227155714Y-299871788D02*
X227250952Y-299824169D01*
X227250952Y-299824169D02*
X227489047Y-299824169D01*
X227489047Y-299824169D02*
X227631904Y-299871788D01*
X227965238Y-299824169D02*
X228203333Y-300824169D01*
X228203333Y-300824169D02*
X228393809Y-300109883D01*
X228393809Y-300109883D02*
X228584285Y-300824169D01*
X228584285Y-300824169D02*
X228822381Y-299824169D01*
X229679523Y-299824169D02*
X229203333Y-299824169D01*
X229203333Y-299824169D02*
X229155714Y-300300359D01*
X229155714Y-300300359D02*
X229203333Y-300252740D01*
X229203333Y-300252740D02*
X229298571Y-300205121D01*
X229298571Y-300205121D02*
X229536666Y-300205121D01*
X229536666Y-300205121D02*
X229631904Y-300252740D01*
X229631904Y-300252740D02*
X229679523Y-300300359D01*
X229679523Y-300300359D02*
X229727142Y-300395597D01*
X229727142Y-300395597D02*
X229727142Y-300633692D01*
X229727142Y-300633692D02*
X229679523Y-300728930D01*
X229679523Y-300728930D02*
X229631904Y-300776550D01*
X229631904Y-300776550D02*
X229536666Y-300824169D01*
X229536666Y-300824169D02*
X229298571Y-300824169D01*
X229298571Y-300824169D02*
X229203333Y-300776550D01*
X229203333Y-300776550D02*
X229155714Y-300728930D01*
X230584285Y-299824169D02*
X230393809Y-299824169D01*
X230393809Y-299824169D02*
X230298571Y-299871788D01*
X230298571Y-299871788D02*
X230250952Y-299919407D01*
X230250952Y-299919407D02*
X230155714Y-300062264D01*
X230155714Y-300062264D02*
X230108095Y-300252740D01*
X230108095Y-300252740D02*
X230108095Y-300633692D01*
X230108095Y-300633692D02*
X230155714Y-300728930D01*
X230155714Y-300728930D02*
X230203333Y-300776550D01*
X230203333Y-300776550D02*
X230298571Y-300824169D01*
X230298571Y-300824169D02*
X230489047Y-300824169D01*
X230489047Y-300824169D02*
X230584285Y-300776550D01*
X230584285Y-300776550D02*
X230631904Y-300728930D01*
X230631904Y-300728930D02*
X230679523Y-300633692D01*
X230679523Y-300633692D02*
X230679523Y-300395597D01*
X230679523Y-300395597D02*
X230631904Y-300300359D01*
X230631904Y-300300359D02*
X230584285Y-300252740D01*
X230584285Y-300252740D02*
X230489047Y-300205121D01*
X230489047Y-300205121D02*
X230298571Y-300205121D01*
X230298571Y-300205121D02*
X230203333Y-300252740D01*
X230203333Y-300252740D02*
X230155714Y-300300359D01*
X230155714Y-300300359D02*
X230108095Y-300395597D01*
X177080476Y-300546550D02*
X177223333Y-300594169D01*
X177223333Y-300594169D02*
X177461428Y-300594169D01*
X177461428Y-300594169D02*
X177556666Y-300546550D01*
X177556666Y-300546550D02*
X177604285Y-300498930D01*
X177604285Y-300498930D02*
X177651904Y-300403692D01*
X177651904Y-300403692D02*
X177651904Y-300308454D01*
X177651904Y-300308454D02*
X177604285Y-300213216D01*
X177604285Y-300213216D02*
X177556666Y-300165597D01*
X177556666Y-300165597D02*
X177461428Y-300117978D01*
X177461428Y-300117978D02*
X177270952Y-300070359D01*
X177270952Y-300070359D02*
X177175714Y-300022740D01*
X177175714Y-300022740D02*
X177128095Y-299975121D01*
X177128095Y-299975121D02*
X177080476Y-299879883D01*
X177080476Y-299879883D02*
X177080476Y-299784645D01*
X177080476Y-299784645D02*
X177128095Y-299689407D01*
X177128095Y-299689407D02*
X177175714Y-299641788D01*
X177175714Y-299641788D02*
X177270952Y-299594169D01*
X177270952Y-299594169D02*
X177509047Y-299594169D01*
X177509047Y-299594169D02*
X177651904Y-299641788D01*
X177985238Y-299594169D02*
X178223333Y-300594169D01*
X178223333Y-300594169D02*
X178413809Y-299879883D01*
X178413809Y-299879883D02*
X178604285Y-300594169D01*
X178604285Y-300594169D02*
X178842381Y-299594169D01*
X179128095Y-299594169D02*
X179794761Y-299594169D01*
X179794761Y-299594169D02*
X179366190Y-300594169D01*
X180366190Y-299594169D02*
X180461428Y-299594169D01*
X180461428Y-299594169D02*
X180556666Y-299641788D01*
X180556666Y-299641788D02*
X180604285Y-299689407D01*
X180604285Y-299689407D02*
X180651904Y-299784645D01*
X180651904Y-299784645D02*
X180699523Y-299975121D01*
X180699523Y-299975121D02*
X180699523Y-300213216D01*
X180699523Y-300213216D02*
X180651904Y-300403692D01*
X180651904Y-300403692D02*
X180604285Y-300498930D01*
X180604285Y-300498930D02*
X180556666Y-300546550D01*
X180556666Y-300546550D02*
X180461428Y-300594169D01*
X180461428Y-300594169D02*
X180366190Y-300594169D01*
X180366190Y-300594169D02*
X180270952Y-300546550D01*
X180270952Y-300546550D02*
X180223333Y-300498930D01*
X180223333Y-300498930D02*
X180175714Y-300403692D01*
X180175714Y-300403692D02*
X180128095Y-300213216D01*
X180128095Y-300213216D02*
X180128095Y-299975121D01*
X180128095Y-299975121D02*
X180175714Y-299784645D01*
X180175714Y-299784645D02*
X180223333Y-299689407D01*
X180223333Y-299689407D02*
X180270952Y-299641788D01*
X180270952Y-299641788D02*
X180366190Y-299594169D01*
X344630476Y-243352850D02*
X344773333Y-243400469D01*
X344773333Y-243400469D02*
X345011428Y-243400469D01*
X345011428Y-243400469D02*
X345106666Y-243352850D01*
X345106666Y-243352850D02*
X345154285Y-243305230D01*
X345154285Y-243305230D02*
X345201904Y-243209992D01*
X345201904Y-243209992D02*
X345201904Y-243114754D01*
X345201904Y-243114754D02*
X345154285Y-243019516D01*
X345154285Y-243019516D02*
X345106666Y-242971897D01*
X345106666Y-242971897D02*
X345011428Y-242924278D01*
X345011428Y-242924278D02*
X344820952Y-242876659D01*
X344820952Y-242876659D02*
X344725714Y-242829040D01*
X344725714Y-242829040D02*
X344678095Y-242781421D01*
X344678095Y-242781421D02*
X344630476Y-242686183D01*
X344630476Y-242686183D02*
X344630476Y-242590945D01*
X344630476Y-242590945D02*
X344678095Y-242495707D01*
X344678095Y-242495707D02*
X344725714Y-242448088D01*
X344725714Y-242448088D02*
X344820952Y-242400469D01*
X344820952Y-242400469D02*
X345059047Y-242400469D01*
X345059047Y-242400469D02*
X345201904Y-242448088D01*
X345535238Y-242400469D02*
X345773333Y-243400469D01*
X345773333Y-243400469D02*
X345963809Y-242686183D01*
X345963809Y-242686183D02*
X346154285Y-243400469D01*
X346154285Y-243400469D02*
X346392381Y-242400469D01*
X346678095Y-242400469D02*
X347297142Y-242400469D01*
X347297142Y-242400469D02*
X346963809Y-242781421D01*
X346963809Y-242781421D02*
X347106666Y-242781421D01*
X347106666Y-242781421D02*
X347201904Y-242829040D01*
X347201904Y-242829040D02*
X347249523Y-242876659D01*
X347249523Y-242876659D02*
X347297142Y-242971897D01*
X347297142Y-242971897D02*
X347297142Y-243209992D01*
X347297142Y-243209992D02*
X347249523Y-243305230D01*
X347249523Y-243305230D02*
X347201904Y-243352850D01*
X347201904Y-243352850D02*
X347106666Y-243400469D01*
X347106666Y-243400469D02*
X346820952Y-243400469D01*
X346820952Y-243400469D02*
X346725714Y-243352850D01*
X346725714Y-243352850D02*
X346678095Y-243305230D01*
X347630476Y-242400469D02*
X348249523Y-242400469D01*
X348249523Y-242400469D02*
X347916190Y-242781421D01*
X347916190Y-242781421D02*
X348059047Y-242781421D01*
X348059047Y-242781421D02*
X348154285Y-242829040D01*
X348154285Y-242829040D02*
X348201904Y-242876659D01*
X348201904Y-242876659D02*
X348249523Y-242971897D01*
X348249523Y-242971897D02*
X348249523Y-243209992D01*
X348249523Y-243209992D02*
X348201904Y-243305230D01*
X348201904Y-243305230D02*
X348154285Y-243352850D01*
X348154285Y-243352850D02*
X348059047Y-243400469D01*
X348059047Y-243400469D02*
X347773333Y-243400469D01*
X347773333Y-243400469D02*
X347678095Y-243352850D01*
X347678095Y-243352850D02*
X347630476Y-243305230D01*
X287480476Y-243360850D02*
X287623333Y-243408469D01*
X287623333Y-243408469D02*
X287861428Y-243408469D01*
X287861428Y-243408469D02*
X287956666Y-243360850D01*
X287956666Y-243360850D02*
X288004285Y-243313230D01*
X288004285Y-243313230D02*
X288051904Y-243217992D01*
X288051904Y-243217992D02*
X288051904Y-243122754D01*
X288051904Y-243122754D02*
X288004285Y-243027516D01*
X288004285Y-243027516D02*
X287956666Y-242979897D01*
X287956666Y-242979897D02*
X287861428Y-242932278D01*
X287861428Y-242932278D02*
X287670952Y-242884659D01*
X287670952Y-242884659D02*
X287575714Y-242837040D01*
X287575714Y-242837040D02*
X287528095Y-242789421D01*
X287528095Y-242789421D02*
X287480476Y-242694183D01*
X287480476Y-242694183D02*
X287480476Y-242598945D01*
X287480476Y-242598945D02*
X287528095Y-242503707D01*
X287528095Y-242503707D02*
X287575714Y-242456088D01*
X287575714Y-242456088D02*
X287670952Y-242408469D01*
X287670952Y-242408469D02*
X287909047Y-242408469D01*
X287909047Y-242408469D02*
X288051904Y-242456088D01*
X288385238Y-242408469D02*
X288623333Y-243408469D01*
X288623333Y-243408469D02*
X288813809Y-242694183D01*
X288813809Y-242694183D02*
X289004285Y-243408469D01*
X289004285Y-243408469D02*
X289242381Y-242408469D01*
X290051904Y-242741802D02*
X290051904Y-243408469D01*
X289813809Y-242360850D02*
X289575714Y-243075135D01*
X289575714Y-243075135D02*
X290194761Y-243075135D01*
X291051904Y-242408469D02*
X290575714Y-242408469D01*
X290575714Y-242408469D02*
X290528095Y-242884659D01*
X290528095Y-242884659D02*
X290575714Y-242837040D01*
X290575714Y-242837040D02*
X290670952Y-242789421D01*
X290670952Y-242789421D02*
X290909047Y-242789421D01*
X290909047Y-242789421D02*
X291004285Y-242837040D01*
X291004285Y-242837040D02*
X291051904Y-242884659D01*
X291051904Y-242884659D02*
X291099523Y-242979897D01*
X291099523Y-242979897D02*
X291099523Y-243217992D01*
X291099523Y-243217992D02*
X291051904Y-243313230D01*
X291051904Y-243313230D02*
X291004285Y-243360850D01*
X291004285Y-243360850D02*
X290909047Y-243408469D01*
X290909047Y-243408469D02*
X290670952Y-243408469D01*
X290670952Y-243408469D02*
X290575714Y-243360850D01*
X290575714Y-243360850D02*
X290528095Y-243313230D01*
X299926667Y-281472850D02*
X300069524Y-281520469D01*
X300069524Y-281520469D02*
X300307619Y-281520469D01*
X300307619Y-281520469D02*
X300402857Y-281472850D01*
X300402857Y-281472850D02*
X300450476Y-281425230D01*
X300450476Y-281425230D02*
X300498095Y-281329992D01*
X300498095Y-281329992D02*
X300498095Y-281234754D01*
X300498095Y-281234754D02*
X300450476Y-281139516D01*
X300450476Y-281139516D02*
X300402857Y-281091897D01*
X300402857Y-281091897D02*
X300307619Y-281044278D01*
X300307619Y-281044278D02*
X300117143Y-280996659D01*
X300117143Y-280996659D02*
X300021905Y-280949040D01*
X300021905Y-280949040D02*
X299974286Y-280901421D01*
X299974286Y-280901421D02*
X299926667Y-280806183D01*
X299926667Y-280806183D02*
X299926667Y-280710945D01*
X299926667Y-280710945D02*
X299974286Y-280615707D01*
X299974286Y-280615707D02*
X300021905Y-280568088D01*
X300021905Y-280568088D02*
X300117143Y-280520469D01*
X300117143Y-280520469D02*
X300355238Y-280520469D01*
X300355238Y-280520469D02*
X300498095Y-280568088D01*
X300831429Y-280520469D02*
X301069524Y-281520469D01*
X301069524Y-281520469D02*
X301260000Y-280806183D01*
X301260000Y-280806183D02*
X301450476Y-281520469D01*
X301450476Y-281520469D02*
X301688572Y-280520469D01*
X302117143Y-281520469D02*
X302307619Y-281520469D01*
X302307619Y-281520469D02*
X302402857Y-281472850D01*
X302402857Y-281472850D02*
X302450476Y-281425230D01*
X302450476Y-281425230D02*
X302545714Y-281282373D01*
X302545714Y-281282373D02*
X302593333Y-281091897D01*
X302593333Y-281091897D02*
X302593333Y-280710945D01*
X302593333Y-280710945D02*
X302545714Y-280615707D01*
X302545714Y-280615707D02*
X302498095Y-280568088D01*
X302498095Y-280568088D02*
X302402857Y-280520469D01*
X302402857Y-280520469D02*
X302212381Y-280520469D01*
X302212381Y-280520469D02*
X302117143Y-280568088D01*
X302117143Y-280568088D02*
X302069524Y-280615707D01*
X302069524Y-280615707D02*
X302021905Y-280710945D01*
X302021905Y-280710945D02*
X302021905Y-280949040D01*
X302021905Y-280949040D02*
X302069524Y-281044278D01*
X302069524Y-281044278D02*
X302117143Y-281091897D01*
X302117143Y-281091897D02*
X302212381Y-281139516D01*
X302212381Y-281139516D02*
X302402857Y-281139516D01*
X302402857Y-281139516D02*
X302498095Y-281091897D01*
X302498095Y-281091897D02*
X302545714Y-281044278D01*
X302545714Y-281044278D02*
X302593333Y-280949040D01*
X273250476Y-262402850D02*
X273393333Y-262450469D01*
X273393333Y-262450469D02*
X273631428Y-262450469D01*
X273631428Y-262450469D02*
X273726666Y-262402850D01*
X273726666Y-262402850D02*
X273774285Y-262355230D01*
X273774285Y-262355230D02*
X273821904Y-262259992D01*
X273821904Y-262259992D02*
X273821904Y-262164754D01*
X273821904Y-262164754D02*
X273774285Y-262069516D01*
X273774285Y-262069516D02*
X273726666Y-262021897D01*
X273726666Y-262021897D02*
X273631428Y-261974278D01*
X273631428Y-261974278D02*
X273440952Y-261926659D01*
X273440952Y-261926659D02*
X273345714Y-261879040D01*
X273345714Y-261879040D02*
X273298095Y-261831421D01*
X273298095Y-261831421D02*
X273250476Y-261736183D01*
X273250476Y-261736183D02*
X273250476Y-261640945D01*
X273250476Y-261640945D02*
X273298095Y-261545707D01*
X273298095Y-261545707D02*
X273345714Y-261498088D01*
X273345714Y-261498088D02*
X273440952Y-261450469D01*
X273440952Y-261450469D02*
X273679047Y-261450469D01*
X273679047Y-261450469D02*
X273821904Y-261498088D01*
X274155238Y-261450469D02*
X274393333Y-262450469D01*
X274393333Y-262450469D02*
X274583809Y-261736183D01*
X274583809Y-261736183D02*
X274774285Y-262450469D01*
X274774285Y-262450469D02*
X275012381Y-261450469D01*
X275298095Y-261450469D02*
X275917142Y-261450469D01*
X275917142Y-261450469D02*
X275583809Y-261831421D01*
X275583809Y-261831421D02*
X275726666Y-261831421D01*
X275726666Y-261831421D02*
X275821904Y-261879040D01*
X275821904Y-261879040D02*
X275869523Y-261926659D01*
X275869523Y-261926659D02*
X275917142Y-262021897D01*
X275917142Y-262021897D02*
X275917142Y-262259992D01*
X275917142Y-262259992D02*
X275869523Y-262355230D01*
X275869523Y-262355230D02*
X275821904Y-262402850D01*
X275821904Y-262402850D02*
X275726666Y-262450469D01*
X275726666Y-262450469D02*
X275440952Y-262450469D01*
X275440952Y-262450469D02*
X275345714Y-262402850D01*
X275345714Y-262402850D02*
X275298095Y-262355230D01*
X276488571Y-261879040D02*
X276393333Y-261831421D01*
X276393333Y-261831421D02*
X276345714Y-261783802D01*
X276345714Y-261783802D02*
X276298095Y-261688564D01*
X276298095Y-261688564D02*
X276298095Y-261640945D01*
X276298095Y-261640945D02*
X276345714Y-261545707D01*
X276345714Y-261545707D02*
X276393333Y-261498088D01*
X276393333Y-261498088D02*
X276488571Y-261450469D01*
X276488571Y-261450469D02*
X276679047Y-261450469D01*
X276679047Y-261450469D02*
X276774285Y-261498088D01*
X276774285Y-261498088D02*
X276821904Y-261545707D01*
X276821904Y-261545707D02*
X276869523Y-261640945D01*
X276869523Y-261640945D02*
X276869523Y-261688564D01*
X276869523Y-261688564D02*
X276821904Y-261783802D01*
X276821904Y-261783802D02*
X276774285Y-261831421D01*
X276774285Y-261831421D02*
X276679047Y-261879040D01*
X276679047Y-261879040D02*
X276488571Y-261879040D01*
X276488571Y-261879040D02*
X276393333Y-261926659D01*
X276393333Y-261926659D02*
X276345714Y-261974278D01*
X276345714Y-261974278D02*
X276298095Y-262069516D01*
X276298095Y-262069516D02*
X276298095Y-262259992D01*
X276298095Y-262259992D02*
X276345714Y-262355230D01*
X276345714Y-262355230D02*
X276393333Y-262402850D01*
X276393333Y-262402850D02*
X276488571Y-262450469D01*
X276488571Y-262450469D02*
X276679047Y-262450469D01*
X276679047Y-262450469D02*
X276774285Y-262402850D01*
X276774285Y-262402850D02*
X276821904Y-262355230D01*
X276821904Y-262355230D02*
X276869523Y-262259992D01*
X276869523Y-262259992D02*
X276869523Y-262069516D01*
X276869523Y-262069516D02*
X276821904Y-261974278D01*
X276821904Y-261974278D02*
X276774285Y-261926659D01*
X276774285Y-261926659D02*
X276679047Y-261879040D01*
X111260476Y-243352850D02*
X111403333Y-243400469D01*
X111403333Y-243400469D02*
X111641428Y-243400469D01*
X111641428Y-243400469D02*
X111736666Y-243352850D01*
X111736666Y-243352850D02*
X111784285Y-243305230D01*
X111784285Y-243305230D02*
X111831904Y-243209992D01*
X111831904Y-243209992D02*
X111831904Y-243114754D01*
X111831904Y-243114754D02*
X111784285Y-243019516D01*
X111784285Y-243019516D02*
X111736666Y-242971897D01*
X111736666Y-242971897D02*
X111641428Y-242924278D01*
X111641428Y-242924278D02*
X111450952Y-242876659D01*
X111450952Y-242876659D02*
X111355714Y-242829040D01*
X111355714Y-242829040D02*
X111308095Y-242781421D01*
X111308095Y-242781421D02*
X111260476Y-242686183D01*
X111260476Y-242686183D02*
X111260476Y-242590945D01*
X111260476Y-242590945D02*
X111308095Y-242495707D01*
X111308095Y-242495707D02*
X111355714Y-242448088D01*
X111355714Y-242448088D02*
X111450952Y-242400469D01*
X111450952Y-242400469D02*
X111689047Y-242400469D01*
X111689047Y-242400469D02*
X111831904Y-242448088D01*
X112165238Y-242400469D02*
X112403333Y-243400469D01*
X112403333Y-243400469D02*
X112593809Y-242686183D01*
X112593809Y-242686183D02*
X112784285Y-243400469D01*
X112784285Y-243400469D02*
X113022381Y-242400469D01*
X113927142Y-243400469D02*
X113355714Y-243400469D01*
X113641428Y-243400469D02*
X113641428Y-242400469D01*
X113641428Y-242400469D02*
X113546190Y-242543326D01*
X113546190Y-242543326D02*
X113450952Y-242638564D01*
X113450952Y-242638564D02*
X113355714Y-242686183D01*
X114831904Y-242400469D02*
X114355714Y-242400469D01*
X114355714Y-242400469D02*
X114308095Y-242876659D01*
X114308095Y-242876659D02*
X114355714Y-242829040D01*
X114355714Y-242829040D02*
X114450952Y-242781421D01*
X114450952Y-242781421D02*
X114689047Y-242781421D01*
X114689047Y-242781421D02*
X114784285Y-242829040D01*
X114784285Y-242829040D02*
X114831904Y-242876659D01*
X114831904Y-242876659D02*
X114879523Y-242971897D01*
X114879523Y-242971897D02*
X114879523Y-243209992D01*
X114879523Y-243209992D02*
X114831904Y-243305230D01*
X114831904Y-243305230D02*
X114784285Y-243352850D01*
X114784285Y-243352850D02*
X114689047Y-243400469D01*
X114689047Y-243400469D02*
X114450952Y-243400469D01*
X114450952Y-243400469D02*
X114355714Y-243352850D01*
X114355714Y-243352850D02*
X114308095Y-243305230D01*
X361310476Y-262402850D02*
X361453333Y-262450469D01*
X361453333Y-262450469D02*
X361691428Y-262450469D01*
X361691428Y-262450469D02*
X361786666Y-262402850D01*
X361786666Y-262402850D02*
X361834285Y-262355230D01*
X361834285Y-262355230D02*
X361881904Y-262259992D01*
X361881904Y-262259992D02*
X361881904Y-262164754D01*
X361881904Y-262164754D02*
X361834285Y-262069516D01*
X361834285Y-262069516D02*
X361786666Y-262021897D01*
X361786666Y-262021897D02*
X361691428Y-261974278D01*
X361691428Y-261974278D02*
X361500952Y-261926659D01*
X361500952Y-261926659D02*
X361405714Y-261879040D01*
X361405714Y-261879040D02*
X361358095Y-261831421D01*
X361358095Y-261831421D02*
X361310476Y-261736183D01*
X361310476Y-261736183D02*
X361310476Y-261640945D01*
X361310476Y-261640945D02*
X361358095Y-261545707D01*
X361358095Y-261545707D02*
X361405714Y-261498088D01*
X361405714Y-261498088D02*
X361500952Y-261450469D01*
X361500952Y-261450469D02*
X361739047Y-261450469D01*
X361739047Y-261450469D02*
X361881904Y-261498088D01*
X362215238Y-261450469D02*
X362453333Y-262450469D01*
X362453333Y-262450469D02*
X362643809Y-261736183D01*
X362643809Y-261736183D02*
X362834285Y-262450469D01*
X362834285Y-262450469D02*
X363072381Y-261450469D01*
X363977142Y-262450469D02*
X363405714Y-262450469D01*
X363691428Y-262450469D02*
X363691428Y-261450469D01*
X363691428Y-261450469D02*
X363596190Y-261593326D01*
X363596190Y-261593326D02*
X363500952Y-261688564D01*
X363500952Y-261688564D02*
X363405714Y-261736183D01*
X364453333Y-262450469D02*
X364643809Y-262450469D01*
X364643809Y-262450469D02*
X364739047Y-262402850D01*
X364739047Y-262402850D02*
X364786666Y-262355230D01*
X364786666Y-262355230D02*
X364881904Y-262212373D01*
X364881904Y-262212373D02*
X364929523Y-262021897D01*
X364929523Y-262021897D02*
X364929523Y-261640945D01*
X364929523Y-261640945D02*
X364881904Y-261545707D01*
X364881904Y-261545707D02*
X364834285Y-261498088D01*
X364834285Y-261498088D02*
X364739047Y-261450469D01*
X364739047Y-261450469D02*
X364548571Y-261450469D01*
X364548571Y-261450469D02*
X364453333Y-261498088D01*
X364453333Y-261498088D02*
X364405714Y-261545707D01*
X364405714Y-261545707D02*
X364358095Y-261640945D01*
X364358095Y-261640945D02*
X364358095Y-261879040D01*
X364358095Y-261879040D02*
X364405714Y-261974278D01*
X364405714Y-261974278D02*
X364453333Y-262021897D01*
X364453333Y-262021897D02*
X364548571Y-262069516D01*
X364548571Y-262069516D02*
X364739047Y-262069516D01*
X364739047Y-262069516D02*
X364834285Y-262021897D01*
X364834285Y-262021897D02*
X364881904Y-261974278D01*
X364881904Y-261974278D02*
X364929523Y-261879040D01*
X100780476Y-300482850D02*
X100923333Y-300530469D01*
X100923333Y-300530469D02*
X101161428Y-300530469D01*
X101161428Y-300530469D02*
X101256666Y-300482850D01*
X101256666Y-300482850D02*
X101304285Y-300435230D01*
X101304285Y-300435230D02*
X101351904Y-300339992D01*
X101351904Y-300339992D02*
X101351904Y-300244754D01*
X101351904Y-300244754D02*
X101304285Y-300149516D01*
X101304285Y-300149516D02*
X101256666Y-300101897D01*
X101256666Y-300101897D02*
X101161428Y-300054278D01*
X101161428Y-300054278D02*
X100970952Y-300006659D01*
X100970952Y-300006659D02*
X100875714Y-299959040D01*
X100875714Y-299959040D02*
X100828095Y-299911421D01*
X100828095Y-299911421D02*
X100780476Y-299816183D01*
X100780476Y-299816183D02*
X100780476Y-299720945D01*
X100780476Y-299720945D02*
X100828095Y-299625707D01*
X100828095Y-299625707D02*
X100875714Y-299578088D01*
X100875714Y-299578088D02*
X100970952Y-299530469D01*
X100970952Y-299530469D02*
X101209047Y-299530469D01*
X101209047Y-299530469D02*
X101351904Y-299578088D01*
X101685238Y-299530469D02*
X101923333Y-300530469D01*
X101923333Y-300530469D02*
X102113809Y-299816183D01*
X102113809Y-299816183D02*
X102304285Y-300530469D01*
X102304285Y-300530469D02*
X102542381Y-299530469D01*
X102828095Y-299530469D02*
X103447142Y-299530469D01*
X103447142Y-299530469D02*
X103113809Y-299911421D01*
X103113809Y-299911421D02*
X103256666Y-299911421D01*
X103256666Y-299911421D02*
X103351904Y-299959040D01*
X103351904Y-299959040D02*
X103399523Y-300006659D01*
X103399523Y-300006659D02*
X103447142Y-300101897D01*
X103447142Y-300101897D02*
X103447142Y-300339992D01*
X103447142Y-300339992D02*
X103399523Y-300435230D01*
X103399523Y-300435230D02*
X103351904Y-300482850D01*
X103351904Y-300482850D02*
X103256666Y-300530469D01*
X103256666Y-300530469D02*
X102970952Y-300530469D01*
X102970952Y-300530469D02*
X102875714Y-300482850D01*
X102875714Y-300482850D02*
X102828095Y-300435230D01*
X104066190Y-299530469D02*
X104161428Y-299530469D01*
X104161428Y-299530469D02*
X104256666Y-299578088D01*
X104256666Y-299578088D02*
X104304285Y-299625707D01*
X104304285Y-299625707D02*
X104351904Y-299720945D01*
X104351904Y-299720945D02*
X104399523Y-299911421D01*
X104399523Y-299911421D02*
X104399523Y-300149516D01*
X104399523Y-300149516D02*
X104351904Y-300339992D01*
X104351904Y-300339992D02*
X104304285Y-300435230D01*
X104304285Y-300435230D02*
X104256666Y-300482850D01*
X104256666Y-300482850D02*
X104161428Y-300530469D01*
X104161428Y-300530469D02*
X104066190Y-300530469D01*
X104066190Y-300530469D02*
X103970952Y-300482850D01*
X103970952Y-300482850D02*
X103923333Y-300435230D01*
X103923333Y-300435230D02*
X103875714Y-300339992D01*
X103875714Y-300339992D02*
X103828095Y-300149516D01*
X103828095Y-300149516D02*
X103828095Y-299911421D01*
X103828095Y-299911421D02*
X103875714Y-299720945D01*
X103875714Y-299720945D02*
X103923333Y-299625707D01*
X103923333Y-299625707D02*
X103970952Y-299578088D01*
X103970952Y-299578088D02*
X104066190Y-299530469D01*
X201760476Y-224302850D02*
X201903333Y-224350469D01*
X201903333Y-224350469D02*
X202141428Y-224350469D01*
X202141428Y-224350469D02*
X202236666Y-224302850D01*
X202236666Y-224302850D02*
X202284285Y-224255230D01*
X202284285Y-224255230D02*
X202331904Y-224159992D01*
X202331904Y-224159992D02*
X202331904Y-224064754D01*
X202331904Y-224064754D02*
X202284285Y-223969516D01*
X202284285Y-223969516D02*
X202236666Y-223921897D01*
X202236666Y-223921897D02*
X202141428Y-223874278D01*
X202141428Y-223874278D02*
X201950952Y-223826659D01*
X201950952Y-223826659D02*
X201855714Y-223779040D01*
X201855714Y-223779040D02*
X201808095Y-223731421D01*
X201808095Y-223731421D02*
X201760476Y-223636183D01*
X201760476Y-223636183D02*
X201760476Y-223540945D01*
X201760476Y-223540945D02*
X201808095Y-223445707D01*
X201808095Y-223445707D02*
X201855714Y-223398088D01*
X201855714Y-223398088D02*
X201950952Y-223350469D01*
X201950952Y-223350469D02*
X202189047Y-223350469D01*
X202189047Y-223350469D02*
X202331904Y-223398088D01*
X202665238Y-223350469D02*
X202903333Y-224350469D01*
X202903333Y-224350469D02*
X203093809Y-223636183D01*
X203093809Y-223636183D02*
X203284285Y-224350469D01*
X203284285Y-224350469D02*
X203522381Y-223350469D01*
X204331904Y-223350469D02*
X204141428Y-223350469D01*
X204141428Y-223350469D02*
X204046190Y-223398088D01*
X204046190Y-223398088D02*
X203998571Y-223445707D01*
X203998571Y-223445707D02*
X203903333Y-223588564D01*
X203903333Y-223588564D02*
X203855714Y-223779040D01*
X203855714Y-223779040D02*
X203855714Y-224159992D01*
X203855714Y-224159992D02*
X203903333Y-224255230D01*
X203903333Y-224255230D02*
X203950952Y-224302850D01*
X203950952Y-224302850D02*
X204046190Y-224350469D01*
X204046190Y-224350469D02*
X204236666Y-224350469D01*
X204236666Y-224350469D02*
X204331904Y-224302850D01*
X204331904Y-224302850D02*
X204379523Y-224255230D01*
X204379523Y-224255230D02*
X204427142Y-224159992D01*
X204427142Y-224159992D02*
X204427142Y-223921897D01*
X204427142Y-223921897D02*
X204379523Y-223826659D01*
X204379523Y-223826659D02*
X204331904Y-223779040D01*
X204331904Y-223779040D02*
X204236666Y-223731421D01*
X204236666Y-223731421D02*
X204046190Y-223731421D01*
X204046190Y-223731421D02*
X203950952Y-223779040D01*
X203950952Y-223779040D02*
X203903333Y-223826659D01*
X203903333Y-223826659D02*
X203855714Y-223921897D01*
X204808095Y-223445707D02*
X204855714Y-223398088D01*
X204855714Y-223398088D02*
X204950952Y-223350469D01*
X204950952Y-223350469D02*
X205189047Y-223350469D01*
X205189047Y-223350469D02*
X205284285Y-223398088D01*
X205284285Y-223398088D02*
X205331904Y-223445707D01*
X205331904Y-223445707D02*
X205379523Y-223540945D01*
X205379523Y-223540945D02*
X205379523Y-223636183D01*
X205379523Y-223636183D02*
X205331904Y-223779040D01*
X205331904Y-223779040D02*
X204760476Y-224350469D01*
X204760476Y-224350469D02*
X205379523Y-224350469D01*
X138920476Y-300532850D02*
X139063333Y-300580469D01*
X139063333Y-300580469D02*
X139301428Y-300580469D01*
X139301428Y-300580469D02*
X139396666Y-300532850D01*
X139396666Y-300532850D02*
X139444285Y-300485230D01*
X139444285Y-300485230D02*
X139491904Y-300389992D01*
X139491904Y-300389992D02*
X139491904Y-300294754D01*
X139491904Y-300294754D02*
X139444285Y-300199516D01*
X139444285Y-300199516D02*
X139396666Y-300151897D01*
X139396666Y-300151897D02*
X139301428Y-300104278D01*
X139301428Y-300104278D02*
X139110952Y-300056659D01*
X139110952Y-300056659D02*
X139015714Y-300009040D01*
X139015714Y-300009040D02*
X138968095Y-299961421D01*
X138968095Y-299961421D02*
X138920476Y-299866183D01*
X138920476Y-299866183D02*
X138920476Y-299770945D01*
X138920476Y-299770945D02*
X138968095Y-299675707D01*
X138968095Y-299675707D02*
X139015714Y-299628088D01*
X139015714Y-299628088D02*
X139110952Y-299580469D01*
X139110952Y-299580469D02*
X139349047Y-299580469D01*
X139349047Y-299580469D02*
X139491904Y-299628088D01*
X139825238Y-299580469D02*
X140063333Y-300580469D01*
X140063333Y-300580469D02*
X140253809Y-299866183D01*
X140253809Y-299866183D02*
X140444285Y-300580469D01*
X140444285Y-300580469D02*
X140682381Y-299580469D01*
X141539523Y-299580469D02*
X141063333Y-299580469D01*
X141063333Y-299580469D02*
X141015714Y-300056659D01*
X141015714Y-300056659D02*
X141063333Y-300009040D01*
X141063333Y-300009040D02*
X141158571Y-299961421D01*
X141158571Y-299961421D02*
X141396666Y-299961421D01*
X141396666Y-299961421D02*
X141491904Y-300009040D01*
X141491904Y-300009040D02*
X141539523Y-300056659D01*
X141539523Y-300056659D02*
X141587142Y-300151897D01*
X141587142Y-300151897D02*
X141587142Y-300389992D01*
X141587142Y-300389992D02*
X141539523Y-300485230D01*
X141539523Y-300485230D02*
X141491904Y-300532850D01*
X141491904Y-300532850D02*
X141396666Y-300580469D01*
X141396666Y-300580469D02*
X141158571Y-300580469D01*
X141158571Y-300580469D02*
X141063333Y-300532850D01*
X141063333Y-300532850D02*
X141015714Y-300485230D01*
X141920476Y-299580469D02*
X142587142Y-299580469D01*
X142587142Y-299580469D02*
X142158571Y-300580469D01*
X345850476Y-281462850D02*
X345993333Y-281510469D01*
X345993333Y-281510469D02*
X346231428Y-281510469D01*
X346231428Y-281510469D02*
X346326666Y-281462850D01*
X346326666Y-281462850D02*
X346374285Y-281415230D01*
X346374285Y-281415230D02*
X346421904Y-281319992D01*
X346421904Y-281319992D02*
X346421904Y-281224754D01*
X346421904Y-281224754D02*
X346374285Y-281129516D01*
X346374285Y-281129516D02*
X346326666Y-281081897D01*
X346326666Y-281081897D02*
X346231428Y-281034278D01*
X346231428Y-281034278D02*
X346040952Y-280986659D01*
X346040952Y-280986659D02*
X345945714Y-280939040D01*
X345945714Y-280939040D02*
X345898095Y-280891421D01*
X345898095Y-280891421D02*
X345850476Y-280796183D01*
X345850476Y-280796183D02*
X345850476Y-280700945D01*
X345850476Y-280700945D02*
X345898095Y-280605707D01*
X345898095Y-280605707D02*
X345945714Y-280558088D01*
X345945714Y-280558088D02*
X346040952Y-280510469D01*
X346040952Y-280510469D02*
X346279047Y-280510469D01*
X346279047Y-280510469D02*
X346421904Y-280558088D01*
X346755238Y-280510469D02*
X346993333Y-281510469D01*
X346993333Y-281510469D02*
X347183809Y-280796183D01*
X347183809Y-280796183D02*
X347374285Y-281510469D01*
X347374285Y-281510469D02*
X347612381Y-280510469D01*
X348421904Y-280510469D02*
X348231428Y-280510469D01*
X348231428Y-280510469D02*
X348136190Y-280558088D01*
X348136190Y-280558088D02*
X348088571Y-280605707D01*
X348088571Y-280605707D02*
X347993333Y-280748564D01*
X347993333Y-280748564D02*
X347945714Y-280939040D01*
X347945714Y-280939040D02*
X347945714Y-281319992D01*
X347945714Y-281319992D02*
X347993333Y-281415230D01*
X347993333Y-281415230D02*
X348040952Y-281462850D01*
X348040952Y-281462850D02*
X348136190Y-281510469D01*
X348136190Y-281510469D02*
X348326666Y-281510469D01*
X348326666Y-281510469D02*
X348421904Y-281462850D01*
X348421904Y-281462850D02*
X348469523Y-281415230D01*
X348469523Y-281415230D02*
X348517142Y-281319992D01*
X348517142Y-281319992D02*
X348517142Y-281081897D01*
X348517142Y-281081897D02*
X348469523Y-280986659D01*
X348469523Y-280986659D02*
X348421904Y-280939040D01*
X348421904Y-280939040D02*
X348326666Y-280891421D01*
X348326666Y-280891421D02*
X348136190Y-280891421D01*
X348136190Y-280891421D02*
X348040952Y-280939040D01*
X348040952Y-280939040D02*
X347993333Y-280986659D01*
X347993333Y-280986659D02*
X347945714Y-281081897D01*
X348850476Y-280510469D02*
X349469523Y-280510469D01*
X349469523Y-280510469D02*
X349136190Y-280891421D01*
X349136190Y-280891421D02*
X349279047Y-280891421D01*
X349279047Y-280891421D02*
X349374285Y-280939040D01*
X349374285Y-280939040D02*
X349421904Y-280986659D01*
X349421904Y-280986659D02*
X349469523Y-281081897D01*
X349469523Y-281081897D02*
X349469523Y-281319992D01*
X349469523Y-281319992D02*
X349421904Y-281415230D01*
X349421904Y-281415230D02*
X349374285Y-281462850D01*
X349374285Y-281462850D02*
X349279047Y-281510469D01*
X349279047Y-281510469D02*
X348993333Y-281510469D01*
X348993333Y-281510469D02*
X348898095Y-281462850D01*
X348898095Y-281462850D02*
X348850476Y-281415230D01*
X173180476Y-243360850D02*
X173323333Y-243408469D01*
X173323333Y-243408469D02*
X173561428Y-243408469D01*
X173561428Y-243408469D02*
X173656666Y-243360850D01*
X173656666Y-243360850D02*
X173704285Y-243313230D01*
X173704285Y-243313230D02*
X173751904Y-243217992D01*
X173751904Y-243217992D02*
X173751904Y-243122754D01*
X173751904Y-243122754D02*
X173704285Y-243027516D01*
X173704285Y-243027516D02*
X173656666Y-242979897D01*
X173656666Y-242979897D02*
X173561428Y-242932278D01*
X173561428Y-242932278D02*
X173370952Y-242884659D01*
X173370952Y-242884659D02*
X173275714Y-242837040D01*
X173275714Y-242837040D02*
X173228095Y-242789421D01*
X173228095Y-242789421D02*
X173180476Y-242694183D01*
X173180476Y-242694183D02*
X173180476Y-242598945D01*
X173180476Y-242598945D02*
X173228095Y-242503707D01*
X173228095Y-242503707D02*
X173275714Y-242456088D01*
X173275714Y-242456088D02*
X173370952Y-242408469D01*
X173370952Y-242408469D02*
X173609047Y-242408469D01*
X173609047Y-242408469D02*
X173751904Y-242456088D01*
X174085238Y-242408469D02*
X174323333Y-243408469D01*
X174323333Y-243408469D02*
X174513809Y-242694183D01*
X174513809Y-242694183D02*
X174704285Y-243408469D01*
X174704285Y-243408469D02*
X174942381Y-242408469D01*
X175799523Y-242408469D02*
X175323333Y-242408469D01*
X175323333Y-242408469D02*
X175275714Y-242884659D01*
X175275714Y-242884659D02*
X175323333Y-242837040D01*
X175323333Y-242837040D02*
X175418571Y-242789421D01*
X175418571Y-242789421D02*
X175656666Y-242789421D01*
X175656666Y-242789421D02*
X175751904Y-242837040D01*
X175751904Y-242837040D02*
X175799523Y-242884659D01*
X175799523Y-242884659D02*
X175847142Y-242979897D01*
X175847142Y-242979897D02*
X175847142Y-243217992D01*
X175847142Y-243217992D02*
X175799523Y-243313230D01*
X175799523Y-243313230D02*
X175751904Y-243360850D01*
X175751904Y-243360850D02*
X175656666Y-243408469D01*
X175656666Y-243408469D02*
X175418571Y-243408469D01*
X175418571Y-243408469D02*
X175323333Y-243360850D01*
X175323333Y-243360850D02*
X175275714Y-243313230D01*
X176704285Y-242741802D02*
X176704285Y-243408469D01*
X176466190Y-242360850D02*
X176228095Y-243075135D01*
X176228095Y-243075135D02*
X176847142Y-243075135D01*
X392260476Y-262402850D02*
X392403333Y-262450469D01*
X392403333Y-262450469D02*
X392641428Y-262450469D01*
X392641428Y-262450469D02*
X392736666Y-262402850D01*
X392736666Y-262402850D02*
X392784285Y-262355230D01*
X392784285Y-262355230D02*
X392831904Y-262259992D01*
X392831904Y-262259992D02*
X392831904Y-262164754D01*
X392831904Y-262164754D02*
X392784285Y-262069516D01*
X392784285Y-262069516D02*
X392736666Y-262021897D01*
X392736666Y-262021897D02*
X392641428Y-261974278D01*
X392641428Y-261974278D02*
X392450952Y-261926659D01*
X392450952Y-261926659D02*
X392355714Y-261879040D01*
X392355714Y-261879040D02*
X392308095Y-261831421D01*
X392308095Y-261831421D02*
X392260476Y-261736183D01*
X392260476Y-261736183D02*
X392260476Y-261640945D01*
X392260476Y-261640945D02*
X392308095Y-261545707D01*
X392308095Y-261545707D02*
X392355714Y-261498088D01*
X392355714Y-261498088D02*
X392450952Y-261450469D01*
X392450952Y-261450469D02*
X392689047Y-261450469D01*
X392689047Y-261450469D02*
X392831904Y-261498088D01*
X393165238Y-261450469D02*
X393403333Y-262450469D01*
X393403333Y-262450469D02*
X393593809Y-261736183D01*
X393593809Y-261736183D02*
X393784285Y-262450469D01*
X393784285Y-262450469D02*
X394022381Y-261450469D01*
X394831904Y-261450469D02*
X394641428Y-261450469D01*
X394641428Y-261450469D02*
X394546190Y-261498088D01*
X394546190Y-261498088D02*
X394498571Y-261545707D01*
X394498571Y-261545707D02*
X394403333Y-261688564D01*
X394403333Y-261688564D02*
X394355714Y-261879040D01*
X394355714Y-261879040D02*
X394355714Y-262259992D01*
X394355714Y-262259992D02*
X394403333Y-262355230D01*
X394403333Y-262355230D02*
X394450952Y-262402850D01*
X394450952Y-262402850D02*
X394546190Y-262450469D01*
X394546190Y-262450469D02*
X394736666Y-262450469D01*
X394736666Y-262450469D02*
X394831904Y-262402850D01*
X394831904Y-262402850D02*
X394879523Y-262355230D01*
X394879523Y-262355230D02*
X394927142Y-262259992D01*
X394927142Y-262259992D02*
X394927142Y-262021897D01*
X394927142Y-262021897D02*
X394879523Y-261926659D01*
X394879523Y-261926659D02*
X394831904Y-261879040D01*
X394831904Y-261879040D02*
X394736666Y-261831421D01*
X394736666Y-261831421D02*
X394546190Y-261831421D01*
X394546190Y-261831421D02*
X394450952Y-261879040D01*
X394450952Y-261879040D02*
X394403333Y-261926659D01*
X394403333Y-261926659D02*
X394355714Y-262021897D01*
X395831904Y-261450469D02*
X395355714Y-261450469D01*
X395355714Y-261450469D02*
X395308095Y-261926659D01*
X395308095Y-261926659D02*
X395355714Y-261879040D01*
X395355714Y-261879040D02*
X395450952Y-261831421D01*
X395450952Y-261831421D02*
X395689047Y-261831421D01*
X395689047Y-261831421D02*
X395784285Y-261879040D01*
X395784285Y-261879040D02*
X395831904Y-261926659D01*
X395831904Y-261926659D02*
X395879523Y-262021897D01*
X395879523Y-262021897D02*
X395879523Y-262259992D01*
X395879523Y-262259992D02*
X395831904Y-262355230D01*
X395831904Y-262355230D02*
X395784285Y-262402850D01*
X395784285Y-262402850D02*
X395689047Y-262450469D01*
X395689047Y-262450469D02*
X395450952Y-262450469D01*
X395450952Y-262450469D02*
X395355714Y-262402850D01*
X395355714Y-262402850D02*
X395308095Y-262355230D01*
X373686667Y-281452850D02*
X373829524Y-281500469D01*
X373829524Y-281500469D02*
X374067619Y-281500469D01*
X374067619Y-281500469D02*
X374162857Y-281452850D01*
X374162857Y-281452850D02*
X374210476Y-281405230D01*
X374210476Y-281405230D02*
X374258095Y-281309992D01*
X374258095Y-281309992D02*
X374258095Y-281214754D01*
X374258095Y-281214754D02*
X374210476Y-281119516D01*
X374210476Y-281119516D02*
X374162857Y-281071897D01*
X374162857Y-281071897D02*
X374067619Y-281024278D01*
X374067619Y-281024278D02*
X373877143Y-280976659D01*
X373877143Y-280976659D02*
X373781905Y-280929040D01*
X373781905Y-280929040D02*
X373734286Y-280881421D01*
X373734286Y-280881421D02*
X373686667Y-280786183D01*
X373686667Y-280786183D02*
X373686667Y-280690945D01*
X373686667Y-280690945D02*
X373734286Y-280595707D01*
X373734286Y-280595707D02*
X373781905Y-280548088D01*
X373781905Y-280548088D02*
X373877143Y-280500469D01*
X373877143Y-280500469D02*
X374115238Y-280500469D01*
X374115238Y-280500469D02*
X374258095Y-280548088D01*
X374591429Y-280500469D02*
X374829524Y-281500469D01*
X374829524Y-281500469D02*
X375020000Y-280786183D01*
X375020000Y-280786183D02*
X375210476Y-281500469D01*
X375210476Y-281500469D02*
X375448572Y-280500469D01*
X375781905Y-280595707D02*
X375829524Y-280548088D01*
X375829524Y-280548088D02*
X375924762Y-280500469D01*
X375924762Y-280500469D02*
X376162857Y-280500469D01*
X376162857Y-280500469D02*
X376258095Y-280548088D01*
X376258095Y-280548088D02*
X376305714Y-280595707D01*
X376305714Y-280595707D02*
X376353333Y-280690945D01*
X376353333Y-280690945D02*
X376353333Y-280786183D01*
X376353333Y-280786183D02*
X376305714Y-280929040D01*
X376305714Y-280929040D02*
X375734286Y-281500469D01*
X375734286Y-281500469D02*
X376353333Y-281500469D01*
X119840476Y-300502850D02*
X119983333Y-300550469D01*
X119983333Y-300550469D02*
X120221428Y-300550469D01*
X120221428Y-300550469D02*
X120316666Y-300502850D01*
X120316666Y-300502850D02*
X120364285Y-300455230D01*
X120364285Y-300455230D02*
X120411904Y-300359992D01*
X120411904Y-300359992D02*
X120411904Y-300264754D01*
X120411904Y-300264754D02*
X120364285Y-300169516D01*
X120364285Y-300169516D02*
X120316666Y-300121897D01*
X120316666Y-300121897D02*
X120221428Y-300074278D01*
X120221428Y-300074278D02*
X120030952Y-300026659D01*
X120030952Y-300026659D02*
X119935714Y-299979040D01*
X119935714Y-299979040D02*
X119888095Y-299931421D01*
X119888095Y-299931421D02*
X119840476Y-299836183D01*
X119840476Y-299836183D02*
X119840476Y-299740945D01*
X119840476Y-299740945D02*
X119888095Y-299645707D01*
X119888095Y-299645707D02*
X119935714Y-299598088D01*
X119935714Y-299598088D02*
X120030952Y-299550469D01*
X120030952Y-299550469D02*
X120269047Y-299550469D01*
X120269047Y-299550469D02*
X120411904Y-299598088D01*
X120745238Y-299550469D02*
X120983333Y-300550469D01*
X120983333Y-300550469D02*
X121173809Y-299836183D01*
X121173809Y-299836183D02*
X121364285Y-300550469D01*
X121364285Y-300550469D02*
X121602381Y-299550469D01*
X122411904Y-299883802D02*
X122411904Y-300550469D01*
X122173809Y-299502850D02*
X121935714Y-300217135D01*
X121935714Y-300217135D02*
X122554761Y-300217135D01*
X123459523Y-300550469D02*
X122888095Y-300550469D01*
X123173809Y-300550469D02*
X123173809Y-299550469D01*
X123173809Y-299550469D02*
X123078571Y-299693326D01*
X123078571Y-299693326D02*
X122983333Y-299788564D01*
X122983333Y-299788564D02*
X122888095Y-299836183D01*
X354636667Y-300502850D02*
X354779524Y-300550469D01*
X354779524Y-300550469D02*
X355017619Y-300550469D01*
X355017619Y-300550469D02*
X355112857Y-300502850D01*
X355112857Y-300502850D02*
X355160476Y-300455230D01*
X355160476Y-300455230D02*
X355208095Y-300359992D01*
X355208095Y-300359992D02*
X355208095Y-300264754D01*
X355208095Y-300264754D02*
X355160476Y-300169516D01*
X355160476Y-300169516D02*
X355112857Y-300121897D01*
X355112857Y-300121897D02*
X355017619Y-300074278D01*
X355017619Y-300074278D02*
X354827143Y-300026659D01*
X354827143Y-300026659D02*
X354731905Y-299979040D01*
X354731905Y-299979040D02*
X354684286Y-299931421D01*
X354684286Y-299931421D02*
X354636667Y-299836183D01*
X354636667Y-299836183D02*
X354636667Y-299740945D01*
X354636667Y-299740945D02*
X354684286Y-299645707D01*
X354684286Y-299645707D02*
X354731905Y-299598088D01*
X354731905Y-299598088D02*
X354827143Y-299550469D01*
X354827143Y-299550469D02*
X355065238Y-299550469D01*
X355065238Y-299550469D02*
X355208095Y-299598088D01*
X355541429Y-299550469D02*
X355779524Y-300550469D01*
X355779524Y-300550469D02*
X355970000Y-299836183D01*
X355970000Y-299836183D02*
X356160476Y-300550469D01*
X356160476Y-300550469D02*
X356398572Y-299550469D01*
X357303333Y-300550469D02*
X356731905Y-300550469D01*
X357017619Y-300550469D02*
X357017619Y-299550469D01*
X357017619Y-299550469D02*
X356922381Y-299693326D01*
X356922381Y-299693326D02*
X356827143Y-299788564D01*
X356827143Y-299788564D02*
X356731905Y-299836183D01*
X392736667Y-300502850D02*
X392879524Y-300550469D01*
X392879524Y-300550469D02*
X393117619Y-300550469D01*
X393117619Y-300550469D02*
X393212857Y-300502850D01*
X393212857Y-300502850D02*
X393260476Y-300455230D01*
X393260476Y-300455230D02*
X393308095Y-300359992D01*
X393308095Y-300359992D02*
X393308095Y-300264754D01*
X393308095Y-300264754D02*
X393260476Y-300169516D01*
X393260476Y-300169516D02*
X393212857Y-300121897D01*
X393212857Y-300121897D02*
X393117619Y-300074278D01*
X393117619Y-300074278D02*
X392927143Y-300026659D01*
X392927143Y-300026659D02*
X392831905Y-299979040D01*
X392831905Y-299979040D02*
X392784286Y-299931421D01*
X392784286Y-299931421D02*
X392736667Y-299836183D01*
X392736667Y-299836183D02*
X392736667Y-299740945D01*
X392736667Y-299740945D02*
X392784286Y-299645707D01*
X392784286Y-299645707D02*
X392831905Y-299598088D01*
X392831905Y-299598088D02*
X392927143Y-299550469D01*
X392927143Y-299550469D02*
X393165238Y-299550469D01*
X393165238Y-299550469D02*
X393308095Y-299598088D01*
X393641429Y-299550469D02*
X393879524Y-300550469D01*
X393879524Y-300550469D02*
X394070000Y-299836183D01*
X394070000Y-299836183D02*
X394260476Y-300550469D01*
X394260476Y-300550469D02*
X394498572Y-299550469D01*
X395308095Y-299883802D02*
X395308095Y-300550469D01*
X395070000Y-299502850D02*
X394831905Y-300217135D01*
X394831905Y-300217135D02*
X395450952Y-300217135D01*
X280380476Y-281462850D02*
X280523333Y-281510469D01*
X280523333Y-281510469D02*
X280761428Y-281510469D01*
X280761428Y-281510469D02*
X280856666Y-281462850D01*
X280856666Y-281462850D02*
X280904285Y-281415230D01*
X280904285Y-281415230D02*
X280951904Y-281319992D01*
X280951904Y-281319992D02*
X280951904Y-281224754D01*
X280951904Y-281224754D02*
X280904285Y-281129516D01*
X280904285Y-281129516D02*
X280856666Y-281081897D01*
X280856666Y-281081897D02*
X280761428Y-281034278D01*
X280761428Y-281034278D02*
X280570952Y-280986659D01*
X280570952Y-280986659D02*
X280475714Y-280939040D01*
X280475714Y-280939040D02*
X280428095Y-280891421D01*
X280428095Y-280891421D02*
X280380476Y-280796183D01*
X280380476Y-280796183D02*
X280380476Y-280700945D01*
X280380476Y-280700945D02*
X280428095Y-280605707D01*
X280428095Y-280605707D02*
X280475714Y-280558088D01*
X280475714Y-280558088D02*
X280570952Y-280510469D01*
X280570952Y-280510469D02*
X280809047Y-280510469D01*
X280809047Y-280510469D02*
X280951904Y-280558088D01*
X281285238Y-280510469D02*
X281523333Y-281510469D01*
X281523333Y-281510469D02*
X281713809Y-280796183D01*
X281713809Y-280796183D02*
X281904285Y-281510469D01*
X281904285Y-281510469D02*
X282142381Y-280510469D01*
X282951904Y-280843802D02*
X282951904Y-281510469D01*
X282713809Y-280462850D02*
X282475714Y-281177135D01*
X282475714Y-281177135D02*
X283094761Y-281177135D01*
X283618571Y-280939040D02*
X283523333Y-280891421D01*
X283523333Y-280891421D02*
X283475714Y-280843802D01*
X283475714Y-280843802D02*
X283428095Y-280748564D01*
X283428095Y-280748564D02*
X283428095Y-280700945D01*
X283428095Y-280700945D02*
X283475714Y-280605707D01*
X283475714Y-280605707D02*
X283523333Y-280558088D01*
X283523333Y-280558088D02*
X283618571Y-280510469D01*
X283618571Y-280510469D02*
X283809047Y-280510469D01*
X283809047Y-280510469D02*
X283904285Y-280558088D01*
X283904285Y-280558088D02*
X283951904Y-280605707D01*
X283951904Y-280605707D02*
X283999523Y-280700945D01*
X283999523Y-280700945D02*
X283999523Y-280748564D01*
X283999523Y-280748564D02*
X283951904Y-280843802D01*
X283951904Y-280843802D02*
X283904285Y-280891421D01*
X283904285Y-280891421D02*
X283809047Y-280939040D01*
X283809047Y-280939040D02*
X283618571Y-280939040D01*
X283618571Y-280939040D02*
X283523333Y-280986659D01*
X283523333Y-280986659D02*
X283475714Y-281034278D01*
X283475714Y-281034278D02*
X283428095Y-281129516D01*
X283428095Y-281129516D02*
X283428095Y-281319992D01*
X283428095Y-281319992D02*
X283475714Y-281415230D01*
X283475714Y-281415230D02*
X283523333Y-281462850D01*
X283523333Y-281462850D02*
X283618571Y-281510469D01*
X283618571Y-281510469D02*
X283809047Y-281510469D01*
X283809047Y-281510469D02*
X283904285Y-281462850D01*
X283904285Y-281462850D02*
X283951904Y-281415230D01*
X283951904Y-281415230D02*
X283999523Y-281319992D01*
X283999523Y-281319992D02*
X283999523Y-281129516D01*
X283999523Y-281129516D02*
X283951904Y-281034278D01*
X283951904Y-281034278D02*
X283904285Y-280986659D01*
X283904285Y-280986659D02*
X283809047Y-280939040D01*
X297000476Y-224236550D02*
X297143333Y-224284169D01*
X297143333Y-224284169D02*
X297381428Y-224284169D01*
X297381428Y-224284169D02*
X297476666Y-224236550D01*
X297476666Y-224236550D02*
X297524285Y-224188930D01*
X297524285Y-224188930D02*
X297571904Y-224093692D01*
X297571904Y-224093692D02*
X297571904Y-223998454D01*
X297571904Y-223998454D02*
X297524285Y-223903216D01*
X297524285Y-223903216D02*
X297476666Y-223855597D01*
X297476666Y-223855597D02*
X297381428Y-223807978D01*
X297381428Y-223807978D02*
X297190952Y-223760359D01*
X297190952Y-223760359D02*
X297095714Y-223712740D01*
X297095714Y-223712740D02*
X297048095Y-223665121D01*
X297048095Y-223665121D02*
X297000476Y-223569883D01*
X297000476Y-223569883D02*
X297000476Y-223474645D01*
X297000476Y-223474645D02*
X297048095Y-223379407D01*
X297048095Y-223379407D02*
X297095714Y-223331788D01*
X297095714Y-223331788D02*
X297190952Y-223284169D01*
X297190952Y-223284169D02*
X297429047Y-223284169D01*
X297429047Y-223284169D02*
X297571904Y-223331788D01*
X297905238Y-223284169D02*
X298143333Y-224284169D01*
X298143333Y-224284169D02*
X298333809Y-223569883D01*
X298333809Y-223569883D02*
X298524285Y-224284169D01*
X298524285Y-224284169D02*
X298762381Y-223284169D01*
X299619523Y-223284169D02*
X299143333Y-223284169D01*
X299143333Y-223284169D02*
X299095714Y-223760359D01*
X299095714Y-223760359D02*
X299143333Y-223712740D01*
X299143333Y-223712740D02*
X299238571Y-223665121D01*
X299238571Y-223665121D02*
X299476666Y-223665121D01*
X299476666Y-223665121D02*
X299571904Y-223712740D01*
X299571904Y-223712740D02*
X299619523Y-223760359D01*
X299619523Y-223760359D02*
X299667142Y-223855597D01*
X299667142Y-223855597D02*
X299667142Y-224093692D01*
X299667142Y-224093692D02*
X299619523Y-224188930D01*
X299619523Y-224188930D02*
X299571904Y-224236550D01*
X299571904Y-224236550D02*
X299476666Y-224284169D01*
X299476666Y-224284169D02*
X299238571Y-224284169D01*
X299238571Y-224284169D02*
X299143333Y-224236550D01*
X299143333Y-224236550D02*
X299095714Y-224188930D01*
X300619523Y-224284169D02*
X300048095Y-224284169D01*
X300333809Y-224284169D02*
X300333809Y-223284169D01*
X300333809Y-223284169D02*
X300238571Y-223427026D01*
X300238571Y-223427026D02*
X300143333Y-223522264D01*
X300143333Y-223522264D02*
X300048095Y-223569883D01*
X147486667Y-281472850D02*
X147629524Y-281520469D01*
X147629524Y-281520469D02*
X147867619Y-281520469D01*
X147867619Y-281520469D02*
X147962857Y-281472850D01*
X147962857Y-281472850D02*
X148010476Y-281425230D01*
X148010476Y-281425230D02*
X148058095Y-281329992D01*
X148058095Y-281329992D02*
X148058095Y-281234754D01*
X148058095Y-281234754D02*
X148010476Y-281139516D01*
X148010476Y-281139516D02*
X147962857Y-281091897D01*
X147962857Y-281091897D02*
X147867619Y-281044278D01*
X147867619Y-281044278D02*
X147677143Y-280996659D01*
X147677143Y-280996659D02*
X147581905Y-280949040D01*
X147581905Y-280949040D02*
X147534286Y-280901421D01*
X147534286Y-280901421D02*
X147486667Y-280806183D01*
X147486667Y-280806183D02*
X147486667Y-280710945D01*
X147486667Y-280710945D02*
X147534286Y-280615707D01*
X147534286Y-280615707D02*
X147581905Y-280568088D01*
X147581905Y-280568088D02*
X147677143Y-280520469D01*
X147677143Y-280520469D02*
X147915238Y-280520469D01*
X147915238Y-280520469D02*
X148058095Y-280568088D01*
X148391429Y-280520469D02*
X148629524Y-281520469D01*
X148629524Y-281520469D02*
X148820000Y-280806183D01*
X148820000Y-280806183D02*
X149010476Y-281520469D01*
X149010476Y-281520469D02*
X149248572Y-280520469D01*
X150105714Y-280520469D02*
X149629524Y-280520469D01*
X149629524Y-280520469D02*
X149581905Y-280996659D01*
X149581905Y-280996659D02*
X149629524Y-280949040D01*
X149629524Y-280949040D02*
X149724762Y-280901421D01*
X149724762Y-280901421D02*
X149962857Y-280901421D01*
X149962857Y-280901421D02*
X150058095Y-280949040D01*
X150058095Y-280949040D02*
X150105714Y-280996659D01*
X150105714Y-280996659D02*
X150153333Y-281091897D01*
X150153333Y-281091897D02*
X150153333Y-281329992D01*
X150153333Y-281329992D02*
X150105714Y-281425230D01*
X150105714Y-281425230D02*
X150058095Y-281472850D01*
X150058095Y-281472850D02*
X149962857Y-281520469D01*
X149962857Y-281520469D02*
X149724762Y-281520469D01*
X149724762Y-281520469D02*
X149629524Y-281472850D01*
X149629524Y-281472850D02*
X149581905Y-281425230D01*
X313670476Y-304976850D02*
X313813333Y-305024469D01*
X313813333Y-305024469D02*
X314051428Y-305024469D01*
X314051428Y-305024469D02*
X314146666Y-304976850D01*
X314146666Y-304976850D02*
X314194285Y-304929230D01*
X314194285Y-304929230D02*
X314241904Y-304833992D01*
X314241904Y-304833992D02*
X314241904Y-304738754D01*
X314241904Y-304738754D02*
X314194285Y-304643516D01*
X314194285Y-304643516D02*
X314146666Y-304595897D01*
X314146666Y-304595897D02*
X314051428Y-304548278D01*
X314051428Y-304548278D02*
X313860952Y-304500659D01*
X313860952Y-304500659D02*
X313765714Y-304453040D01*
X313765714Y-304453040D02*
X313718095Y-304405421D01*
X313718095Y-304405421D02*
X313670476Y-304310183D01*
X313670476Y-304310183D02*
X313670476Y-304214945D01*
X313670476Y-304214945D02*
X313718095Y-304119707D01*
X313718095Y-304119707D02*
X313765714Y-304072088D01*
X313765714Y-304072088D02*
X313860952Y-304024469D01*
X313860952Y-304024469D02*
X314099047Y-304024469D01*
X314099047Y-304024469D02*
X314241904Y-304072088D01*
X314575238Y-304024469D02*
X314813333Y-305024469D01*
X314813333Y-305024469D02*
X315003809Y-304310183D01*
X315003809Y-304310183D02*
X315194285Y-305024469D01*
X315194285Y-305024469D02*
X315432381Y-304024469D01*
X315765714Y-304119707D02*
X315813333Y-304072088D01*
X315813333Y-304072088D02*
X315908571Y-304024469D01*
X315908571Y-304024469D02*
X316146666Y-304024469D01*
X316146666Y-304024469D02*
X316241904Y-304072088D01*
X316241904Y-304072088D02*
X316289523Y-304119707D01*
X316289523Y-304119707D02*
X316337142Y-304214945D01*
X316337142Y-304214945D02*
X316337142Y-304310183D01*
X316337142Y-304310183D02*
X316289523Y-304453040D01*
X316289523Y-304453040D02*
X315718095Y-305024469D01*
X315718095Y-305024469D02*
X316337142Y-305024469D01*
X317194285Y-304024469D02*
X317003809Y-304024469D01*
X317003809Y-304024469D02*
X316908571Y-304072088D01*
X316908571Y-304072088D02*
X316860952Y-304119707D01*
X316860952Y-304119707D02*
X316765714Y-304262564D01*
X316765714Y-304262564D02*
X316718095Y-304453040D01*
X316718095Y-304453040D02*
X316718095Y-304833992D01*
X316718095Y-304833992D02*
X316765714Y-304929230D01*
X316765714Y-304929230D02*
X316813333Y-304976850D01*
X316813333Y-304976850D02*
X316908571Y-305024469D01*
X316908571Y-305024469D02*
X317099047Y-305024469D01*
X317099047Y-305024469D02*
X317194285Y-304976850D01*
X317194285Y-304976850D02*
X317241904Y-304929230D01*
X317241904Y-304929230D02*
X317289523Y-304833992D01*
X317289523Y-304833992D02*
X317289523Y-304595897D01*
X317289523Y-304595897D02*
X317241904Y-304500659D01*
X317241904Y-304500659D02*
X317194285Y-304453040D01*
X317194285Y-304453040D02*
X317099047Y-304405421D01*
X317099047Y-304405421D02*
X316908571Y-304405421D01*
X316908571Y-304405421D02*
X316813333Y-304453040D01*
X316813333Y-304453040D02*
X316765714Y-304500659D01*
X316765714Y-304500659D02*
X316718095Y-304595897D01*
X330360476Y-262402850D02*
X330503333Y-262450469D01*
X330503333Y-262450469D02*
X330741428Y-262450469D01*
X330741428Y-262450469D02*
X330836666Y-262402850D01*
X330836666Y-262402850D02*
X330884285Y-262355230D01*
X330884285Y-262355230D02*
X330931904Y-262259992D01*
X330931904Y-262259992D02*
X330931904Y-262164754D01*
X330931904Y-262164754D02*
X330884285Y-262069516D01*
X330884285Y-262069516D02*
X330836666Y-262021897D01*
X330836666Y-262021897D02*
X330741428Y-261974278D01*
X330741428Y-261974278D02*
X330550952Y-261926659D01*
X330550952Y-261926659D02*
X330455714Y-261879040D01*
X330455714Y-261879040D02*
X330408095Y-261831421D01*
X330408095Y-261831421D02*
X330360476Y-261736183D01*
X330360476Y-261736183D02*
X330360476Y-261640945D01*
X330360476Y-261640945D02*
X330408095Y-261545707D01*
X330408095Y-261545707D02*
X330455714Y-261498088D01*
X330455714Y-261498088D02*
X330550952Y-261450469D01*
X330550952Y-261450469D02*
X330789047Y-261450469D01*
X330789047Y-261450469D02*
X330931904Y-261498088D01*
X331265238Y-261450469D02*
X331503333Y-262450469D01*
X331503333Y-262450469D02*
X331693809Y-261736183D01*
X331693809Y-261736183D02*
X331884285Y-262450469D01*
X331884285Y-262450469D02*
X332122381Y-261450469D01*
X332408095Y-261450469D02*
X333027142Y-261450469D01*
X333027142Y-261450469D02*
X332693809Y-261831421D01*
X332693809Y-261831421D02*
X332836666Y-261831421D01*
X332836666Y-261831421D02*
X332931904Y-261879040D01*
X332931904Y-261879040D02*
X332979523Y-261926659D01*
X332979523Y-261926659D02*
X333027142Y-262021897D01*
X333027142Y-262021897D02*
X333027142Y-262259992D01*
X333027142Y-262259992D02*
X332979523Y-262355230D01*
X332979523Y-262355230D02*
X332931904Y-262402850D01*
X332931904Y-262402850D02*
X332836666Y-262450469D01*
X332836666Y-262450469D02*
X332550952Y-262450469D01*
X332550952Y-262450469D02*
X332455714Y-262402850D01*
X332455714Y-262402850D02*
X332408095Y-262355230D01*
X333884285Y-261783802D02*
X333884285Y-262450469D01*
X333646190Y-261402850D02*
X333408095Y-262117135D01*
X333408095Y-262117135D02*
X334027142Y-262117135D01*
X354250476Y-224282850D02*
X354393333Y-224330469D01*
X354393333Y-224330469D02*
X354631428Y-224330469D01*
X354631428Y-224330469D02*
X354726666Y-224282850D01*
X354726666Y-224282850D02*
X354774285Y-224235230D01*
X354774285Y-224235230D02*
X354821904Y-224139992D01*
X354821904Y-224139992D02*
X354821904Y-224044754D01*
X354821904Y-224044754D02*
X354774285Y-223949516D01*
X354774285Y-223949516D02*
X354726666Y-223901897D01*
X354726666Y-223901897D02*
X354631428Y-223854278D01*
X354631428Y-223854278D02*
X354440952Y-223806659D01*
X354440952Y-223806659D02*
X354345714Y-223759040D01*
X354345714Y-223759040D02*
X354298095Y-223711421D01*
X354298095Y-223711421D02*
X354250476Y-223616183D01*
X354250476Y-223616183D02*
X354250476Y-223520945D01*
X354250476Y-223520945D02*
X354298095Y-223425707D01*
X354298095Y-223425707D02*
X354345714Y-223378088D01*
X354345714Y-223378088D02*
X354440952Y-223330469D01*
X354440952Y-223330469D02*
X354679047Y-223330469D01*
X354679047Y-223330469D02*
X354821904Y-223378088D01*
X355155238Y-223330469D02*
X355393333Y-224330469D01*
X355393333Y-224330469D02*
X355583809Y-223616183D01*
X355583809Y-223616183D02*
X355774285Y-224330469D01*
X355774285Y-224330469D02*
X356012381Y-223330469D01*
X356821904Y-223330469D02*
X356631428Y-223330469D01*
X356631428Y-223330469D02*
X356536190Y-223378088D01*
X356536190Y-223378088D02*
X356488571Y-223425707D01*
X356488571Y-223425707D02*
X356393333Y-223568564D01*
X356393333Y-223568564D02*
X356345714Y-223759040D01*
X356345714Y-223759040D02*
X356345714Y-224139992D01*
X356345714Y-224139992D02*
X356393333Y-224235230D01*
X356393333Y-224235230D02*
X356440952Y-224282850D01*
X356440952Y-224282850D02*
X356536190Y-224330469D01*
X356536190Y-224330469D02*
X356726666Y-224330469D01*
X356726666Y-224330469D02*
X356821904Y-224282850D01*
X356821904Y-224282850D02*
X356869523Y-224235230D01*
X356869523Y-224235230D02*
X356917142Y-224139992D01*
X356917142Y-224139992D02*
X356917142Y-223901897D01*
X356917142Y-223901897D02*
X356869523Y-223806659D01*
X356869523Y-223806659D02*
X356821904Y-223759040D01*
X356821904Y-223759040D02*
X356726666Y-223711421D01*
X356726666Y-223711421D02*
X356536190Y-223711421D01*
X356536190Y-223711421D02*
X356440952Y-223759040D01*
X356440952Y-223759040D02*
X356393333Y-223806659D01*
X356393333Y-223806659D02*
X356345714Y-223901897D01*
X357393333Y-224330469D02*
X357583809Y-224330469D01*
X357583809Y-224330469D02*
X357679047Y-224282850D01*
X357679047Y-224282850D02*
X357726666Y-224235230D01*
X357726666Y-224235230D02*
X357821904Y-224092373D01*
X357821904Y-224092373D02*
X357869523Y-223901897D01*
X357869523Y-223901897D02*
X357869523Y-223520945D01*
X357869523Y-223520945D02*
X357821904Y-223425707D01*
X357821904Y-223425707D02*
X357774285Y-223378088D01*
X357774285Y-223378088D02*
X357679047Y-223330469D01*
X357679047Y-223330469D02*
X357488571Y-223330469D01*
X357488571Y-223330469D02*
X357393333Y-223378088D01*
X357393333Y-223378088D02*
X357345714Y-223425707D01*
X357345714Y-223425707D02*
X357298095Y-223520945D01*
X357298095Y-223520945D02*
X357298095Y-223759040D01*
X357298095Y-223759040D02*
X357345714Y-223854278D01*
X357345714Y-223854278D02*
X357393333Y-223901897D01*
X357393333Y-223901897D02*
X357488571Y-223949516D01*
X357488571Y-223949516D02*
X357679047Y-223949516D01*
X357679047Y-223949516D02*
X357774285Y-223901897D01*
X357774285Y-223901897D02*
X357821904Y-223854278D01*
X357821904Y-223854278D02*
X357869523Y-223759040D01*
X373220476Y-300532850D02*
X373363333Y-300580469D01*
X373363333Y-300580469D02*
X373601428Y-300580469D01*
X373601428Y-300580469D02*
X373696666Y-300532850D01*
X373696666Y-300532850D02*
X373744285Y-300485230D01*
X373744285Y-300485230D02*
X373791904Y-300389992D01*
X373791904Y-300389992D02*
X373791904Y-300294754D01*
X373791904Y-300294754D02*
X373744285Y-300199516D01*
X373744285Y-300199516D02*
X373696666Y-300151897D01*
X373696666Y-300151897D02*
X373601428Y-300104278D01*
X373601428Y-300104278D02*
X373410952Y-300056659D01*
X373410952Y-300056659D02*
X373315714Y-300009040D01*
X373315714Y-300009040D02*
X373268095Y-299961421D01*
X373268095Y-299961421D02*
X373220476Y-299866183D01*
X373220476Y-299866183D02*
X373220476Y-299770945D01*
X373220476Y-299770945D02*
X373268095Y-299675707D01*
X373268095Y-299675707D02*
X373315714Y-299628088D01*
X373315714Y-299628088D02*
X373410952Y-299580469D01*
X373410952Y-299580469D02*
X373649047Y-299580469D01*
X373649047Y-299580469D02*
X373791904Y-299628088D01*
X374125238Y-299580469D02*
X374363333Y-300580469D01*
X374363333Y-300580469D02*
X374553809Y-299866183D01*
X374553809Y-299866183D02*
X374744285Y-300580469D01*
X374744285Y-300580469D02*
X374982381Y-299580469D01*
X375887142Y-300580469D02*
X375315714Y-300580469D01*
X375601428Y-300580469D02*
X375601428Y-299580469D01*
X375601428Y-299580469D02*
X375506190Y-299723326D01*
X375506190Y-299723326D02*
X375410952Y-299818564D01*
X375410952Y-299818564D02*
X375315714Y-299866183D01*
X376220476Y-299580469D02*
X376887142Y-299580469D01*
X376887142Y-299580469D02*
X376458571Y-300580469D01*
X185626667Y-281462850D02*
X185769524Y-281510469D01*
X185769524Y-281510469D02*
X186007619Y-281510469D01*
X186007619Y-281510469D02*
X186102857Y-281462850D01*
X186102857Y-281462850D02*
X186150476Y-281415230D01*
X186150476Y-281415230D02*
X186198095Y-281319992D01*
X186198095Y-281319992D02*
X186198095Y-281224754D01*
X186198095Y-281224754D02*
X186150476Y-281129516D01*
X186150476Y-281129516D02*
X186102857Y-281081897D01*
X186102857Y-281081897D02*
X186007619Y-281034278D01*
X186007619Y-281034278D02*
X185817143Y-280986659D01*
X185817143Y-280986659D02*
X185721905Y-280939040D01*
X185721905Y-280939040D02*
X185674286Y-280891421D01*
X185674286Y-280891421D02*
X185626667Y-280796183D01*
X185626667Y-280796183D02*
X185626667Y-280700945D01*
X185626667Y-280700945D02*
X185674286Y-280605707D01*
X185674286Y-280605707D02*
X185721905Y-280558088D01*
X185721905Y-280558088D02*
X185817143Y-280510469D01*
X185817143Y-280510469D02*
X186055238Y-280510469D01*
X186055238Y-280510469D02*
X186198095Y-280558088D01*
X186531429Y-280510469D02*
X186769524Y-281510469D01*
X186769524Y-281510469D02*
X186960000Y-280796183D01*
X186960000Y-280796183D02*
X187150476Y-281510469D01*
X187150476Y-281510469D02*
X187388572Y-280510469D01*
X187674286Y-280510469D02*
X188340952Y-280510469D01*
X188340952Y-280510469D02*
X187912381Y-281510469D01*
X135080476Y-243360850D02*
X135223333Y-243408469D01*
X135223333Y-243408469D02*
X135461428Y-243408469D01*
X135461428Y-243408469D02*
X135556666Y-243360850D01*
X135556666Y-243360850D02*
X135604285Y-243313230D01*
X135604285Y-243313230D02*
X135651904Y-243217992D01*
X135651904Y-243217992D02*
X135651904Y-243122754D01*
X135651904Y-243122754D02*
X135604285Y-243027516D01*
X135604285Y-243027516D02*
X135556666Y-242979897D01*
X135556666Y-242979897D02*
X135461428Y-242932278D01*
X135461428Y-242932278D02*
X135270952Y-242884659D01*
X135270952Y-242884659D02*
X135175714Y-242837040D01*
X135175714Y-242837040D02*
X135128095Y-242789421D01*
X135128095Y-242789421D02*
X135080476Y-242694183D01*
X135080476Y-242694183D02*
X135080476Y-242598945D01*
X135080476Y-242598945D02*
X135128095Y-242503707D01*
X135128095Y-242503707D02*
X135175714Y-242456088D01*
X135175714Y-242456088D02*
X135270952Y-242408469D01*
X135270952Y-242408469D02*
X135509047Y-242408469D01*
X135509047Y-242408469D02*
X135651904Y-242456088D01*
X135985238Y-242408469D02*
X136223333Y-243408469D01*
X136223333Y-243408469D02*
X136413809Y-242694183D01*
X136413809Y-242694183D02*
X136604285Y-243408469D01*
X136604285Y-243408469D02*
X136842381Y-242408469D01*
X137747142Y-243408469D02*
X137175714Y-243408469D01*
X137461428Y-243408469D02*
X137461428Y-242408469D01*
X137461428Y-242408469D02*
X137366190Y-242551326D01*
X137366190Y-242551326D02*
X137270952Y-242646564D01*
X137270952Y-242646564D02*
X137175714Y-242694183D01*
X138080476Y-242408469D02*
X138699523Y-242408469D01*
X138699523Y-242408469D02*
X138366190Y-242789421D01*
X138366190Y-242789421D02*
X138509047Y-242789421D01*
X138509047Y-242789421D02*
X138604285Y-242837040D01*
X138604285Y-242837040D02*
X138651904Y-242884659D01*
X138651904Y-242884659D02*
X138699523Y-242979897D01*
X138699523Y-242979897D02*
X138699523Y-243217992D01*
X138699523Y-243217992D02*
X138651904Y-243313230D01*
X138651904Y-243313230D02*
X138604285Y-243360850D01*
X138604285Y-243360850D02*
X138509047Y-243408469D01*
X138509047Y-243408469D02*
X138223333Y-243408469D01*
X138223333Y-243408469D02*
X138128095Y-243360850D01*
X138128095Y-243360850D02*
X138080476Y-243313230D01*
X249380476Y-243360850D02*
X249523333Y-243408469D01*
X249523333Y-243408469D02*
X249761428Y-243408469D01*
X249761428Y-243408469D02*
X249856666Y-243360850D01*
X249856666Y-243360850D02*
X249904285Y-243313230D01*
X249904285Y-243313230D02*
X249951904Y-243217992D01*
X249951904Y-243217992D02*
X249951904Y-243122754D01*
X249951904Y-243122754D02*
X249904285Y-243027516D01*
X249904285Y-243027516D02*
X249856666Y-242979897D01*
X249856666Y-242979897D02*
X249761428Y-242932278D01*
X249761428Y-242932278D02*
X249570952Y-242884659D01*
X249570952Y-242884659D02*
X249475714Y-242837040D01*
X249475714Y-242837040D02*
X249428095Y-242789421D01*
X249428095Y-242789421D02*
X249380476Y-242694183D01*
X249380476Y-242694183D02*
X249380476Y-242598945D01*
X249380476Y-242598945D02*
X249428095Y-242503707D01*
X249428095Y-242503707D02*
X249475714Y-242456088D01*
X249475714Y-242456088D02*
X249570952Y-242408469D01*
X249570952Y-242408469D02*
X249809047Y-242408469D01*
X249809047Y-242408469D02*
X249951904Y-242456088D01*
X250285238Y-242408469D02*
X250523333Y-243408469D01*
X250523333Y-243408469D02*
X250713809Y-242694183D01*
X250713809Y-242694183D02*
X250904285Y-243408469D01*
X250904285Y-243408469D02*
X251142381Y-242408469D01*
X251428095Y-242408469D02*
X252047142Y-242408469D01*
X252047142Y-242408469D02*
X251713809Y-242789421D01*
X251713809Y-242789421D02*
X251856666Y-242789421D01*
X251856666Y-242789421D02*
X251951904Y-242837040D01*
X251951904Y-242837040D02*
X251999523Y-242884659D01*
X251999523Y-242884659D02*
X252047142Y-242979897D01*
X252047142Y-242979897D02*
X252047142Y-243217992D01*
X252047142Y-243217992D02*
X251999523Y-243313230D01*
X251999523Y-243313230D02*
X251951904Y-243360850D01*
X251951904Y-243360850D02*
X251856666Y-243408469D01*
X251856666Y-243408469D02*
X251570952Y-243408469D01*
X251570952Y-243408469D02*
X251475714Y-243360850D01*
X251475714Y-243360850D02*
X251428095Y-243313230D01*
X252951904Y-242408469D02*
X252475714Y-242408469D01*
X252475714Y-242408469D02*
X252428095Y-242884659D01*
X252428095Y-242884659D02*
X252475714Y-242837040D01*
X252475714Y-242837040D02*
X252570952Y-242789421D01*
X252570952Y-242789421D02*
X252809047Y-242789421D01*
X252809047Y-242789421D02*
X252904285Y-242837040D01*
X252904285Y-242837040D02*
X252951904Y-242884659D01*
X252951904Y-242884659D02*
X252999523Y-242979897D01*
X252999523Y-242979897D02*
X252999523Y-243217992D01*
X252999523Y-243217992D02*
X252951904Y-243313230D01*
X252951904Y-243313230D02*
X252904285Y-243360850D01*
X252904285Y-243360850D02*
X252809047Y-243408469D01*
X252809047Y-243408469D02*
X252570952Y-243408469D01*
X252570952Y-243408469D02*
X252475714Y-243360850D01*
X252475714Y-243360850D02*
X252428095Y-243313230D01*
X277100476Y-300522850D02*
X277243333Y-300570469D01*
X277243333Y-300570469D02*
X277481428Y-300570469D01*
X277481428Y-300570469D02*
X277576666Y-300522850D01*
X277576666Y-300522850D02*
X277624285Y-300475230D01*
X277624285Y-300475230D02*
X277671904Y-300379992D01*
X277671904Y-300379992D02*
X277671904Y-300284754D01*
X277671904Y-300284754D02*
X277624285Y-300189516D01*
X277624285Y-300189516D02*
X277576666Y-300141897D01*
X277576666Y-300141897D02*
X277481428Y-300094278D01*
X277481428Y-300094278D02*
X277290952Y-300046659D01*
X277290952Y-300046659D02*
X277195714Y-299999040D01*
X277195714Y-299999040D02*
X277148095Y-299951421D01*
X277148095Y-299951421D02*
X277100476Y-299856183D01*
X277100476Y-299856183D02*
X277100476Y-299760945D01*
X277100476Y-299760945D02*
X277148095Y-299665707D01*
X277148095Y-299665707D02*
X277195714Y-299618088D01*
X277195714Y-299618088D02*
X277290952Y-299570469D01*
X277290952Y-299570469D02*
X277529047Y-299570469D01*
X277529047Y-299570469D02*
X277671904Y-299618088D01*
X278005238Y-299570469D02*
X278243333Y-300570469D01*
X278243333Y-300570469D02*
X278433809Y-299856183D01*
X278433809Y-299856183D02*
X278624285Y-300570469D01*
X278624285Y-300570469D02*
X278862381Y-299570469D01*
X279148095Y-299570469D02*
X279814761Y-299570469D01*
X279814761Y-299570469D02*
X279386190Y-300570469D01*
X280719523Y-300570469D02*
X280148095Y-300570469D01*
X280433809Y-300570469D02*
X280433809Y-299570469D01*
X280433809Y-299570469D02*
X280338571Y-299713326D01*
X280338571Y-299713326D02*
X280243333Y-299808564D01*
X280243333Y-299808564D02*
X280148095Y-299856183D01*
X242290476Y-281442850D02*
X242433333Y-281490469D01*
X242433333Y-281490469D02*
X242671428Y-281490469D01*
X242671428Y-281490469D02*
X242766666Y-281442850D01*
X242766666Y-281442850D02*
X242814285Y-281395230D01*
X242814285Y-281395230D02*
X242861904Y-281299992D01*
X242861904Y-281299992D02*
X242861904Y-281204754D01*
X242861904Y-281204754D02*
X242814285Y-281109516D01*
X242814285Y-281109516D02*
X242766666Y-281061897D01*
X242766666Y-281061897D02*
X242671428Y-281014278D01*
X242671428Y-281014278D02*
X242480952Y-280966659D01*
X242480952Y-280966659D02*
X242385714Y-280919040D01*
X242385714Y-280919040D02*
X242338095Y-280871421D01*
X242338095Y-280871421D02*
X242290476Y-280776183D01*
X242290476Y-280776183D02*
X242290476Y-280680945D01*
X242290476Y-280680945D02*
X242338095Y-280585707D01*
X242338095Y-280585707D02*
X242385714Y-280538088D01*
X242385714Y-280538088D02*
X242480952Y-280490469D01*
X242480952Y-280490469D02*
X242719047Y-280490469D01*
X242719047Y-280490469D02*
X242861904Y-280538088D01*
X243195238Y-280490469D02*
X243433333Y-281490469D01*
X243433333Y-281490469D02*
X243623809Y-280776183D01*
X243623809Y-280776183D02*
X243814285Y-281490469D01*
X243814285Y-281490469D02*
X244052381Y-280490469D01*
X244861904Y-280823802D02*
X244861904Y-281490469D01*
X244623809Y-280442850D02*
X244385714Y-281157135D01*
X244385714Y-281157135D02*
X245004761Y-281157135D01*
X245576190Y-280490469D02*
X245671428Y-280490469D01*
X245671428Y-280490469D02*
X245766666Y-280538088D01*
X245766666Y-280538088D02*
X245814285Y-280585707D01*
X245814285Y-280585707D02*
X245861904Y-280680945D01*
X245861904Y-280680945D02*
X245909523Y-280871421D01*
X245909523Y-280871421D02*
X245909523Y-281109516D01*
X245909523Y-281109516D02*
X245861904Y-281299992D01*
X245861904Y-281299992D02*
X245814285Y-281395230D01*
X245814285Y-281395230D02*
X245766666Y-281442850D01*
X245766666Y-281442850D02*
X245671428Y-281490469D01*
X245671428Y-281490469D02*
X245576190Y-281490469D01*
X245576190Y-281490469D02*
X245480952Y-281442850D01*
X245480952Y-281442850D02*
X245433333Y-281395230D01*
X245433333Y-281395230D02*
X245385714Y-281299992D01*
X245385714Y-281299992D02*
X245338095Y-281109516D01*
X245338095Y-281109516D02*
X245338095Y-280871421D01*
X245338095Y-280871421D02*
X245385714Y-280680945D01*
X245385714Y-280680945D02*
X245433333Y-280585707D01*
X245433333Y-280585707D02*
X245480952Y-280538088D01*
X245480952Y-280538088D02*
X245576190Y-280490469D01*
X368720476Y-243372850D02*
X368863333Y-243420469D01*
X368863333Y-243420469D02*
X369101428Y-243420469D01*
X369101428Y-243420469D02*
X369196666Y-243372850D01*
X369196666Y-243372850D02*
X369244285Y-243325230D01*
X369244285Y-243325230D02*
X369291904Y-243229992D01*
X369291904Y-243229992D02*
X369291904Y-243134754D01*
X369291904Y-243134754D02*
X369244285Y-243039516D01*
X369244285Y-243039516D02*
X369196666Y-242991897D01*
X369196666Y-242991897D02*
X369101428Y-242944278D01*
X369101428Y-242944278D02*
X368910952Y-242896659D01*
X368910952Y-242896659D02*
X368815714Y-242849040D01*
X368815714Y-242849040D02*
X368768095Y-242801421D01*
X368768095Y-242801421D02*
X368720476Y-242706183D01*
X368720476Y-242706183D02*
X368720476Y-242610945D01*
X368720476Y-242610945D02*
X368768095Y-242515707D01*
X368768095Y-242515707D02*
X368815714Y-242468088D01*
X368815714Y-242468088D02*
X368910952Y-242420469D01*
X368910952Y-242420469D02*
X369149047Y-242420469D01*
X369149047Y-242420469D02*
X369291904Y-242468088D01*
X369625238Y-242420469D02*
X369863333Y-243420469D01*
X369863333Y-243420469D02*
X370053809Y-242706183D01*
X370053809Y-242706183D02*
X370244285Y-243420469D01*
X370244285Y-243420469D02*
X370482381Y-242420469D01*
X370815714Y-242515707D02*
X370863333Y-242468088D01*
X370863333Y-242468088D02*
X370958571Y-242420469D01*
X370958571Y-242420469D02*
X371196666Y-242420469D01*
X371196666Y-242420469D02*
X371291904Y-242468088D01*
X371291904Y-242468088D02*
X371339523Y-242515707D01*
X371339523Y-242515707D02*
X371387142Y-242610945D01*
X371387142Y-242610945D02*
X371387142Y-242706183D01*
X371387142Y-242706183D02*
X371339523Y-242849040D01*
X371339523Y-242849040D02*
X370768095Y-243420469D01*
X370768095Y-243420469D02*
X371387142Y-243420469D01*
X371768095Y-242515707D02*
X371815714Y-242468088D01*
X371815714Y-242468088D02*
X371910952Y-242420469D01*
X371910952Y-242420469D02*
X372149047Y-242420469D01*
X372149047Y-242420469D02*
X372244285Y-242468088D01*
X372244285Y-242468088D02*
X372291904Y-242515707D01*
X372291904Y-242515707D02*
X372339523Y-242610945D01*
X372339523Y-242610945D02*
X372339523Y-242706183D01*
X372339523Y-242706183D02*
X372291904Y-242849040D01*
X372291904Y-242849040D02*
X371720476Y-243420469D01*
X371720476Y-243420469D02*
X372339523Y-243420469D01*
X239910476Y-224282850D02*
X240053333Y-224330469D01*
X240053333Y-224330469D02*
X240291428Y-224330469D01*
X240291428Y-224330469D02*
X240386666Y-224282850D01*
X240386666Y-224282850D02*
X240434285Y-224235230D01*
X240434285Y-224235230D02*
X240481904Y-224139992D01*
X240481904Y-224139992D02*
X240481904Y-224044754D01*
X240481904Y-224044754D02*
X240434285Y-223949516D01*
X240434285Y-223949516D02*
X240386666Y-223901897D01*
X240386666Y-223901897D02*
X240291428Y-223854278D01*
X240291428Y-223854278D02*
X240100952Y-223806659D01*
X240100952Y-223806659D02*
X240005714Y-223759040D01*
X240005714Y-223759040D02*
X239958095Y-223711421D01*
X239958095Y-223711421D02*
X239910476Y-223616183D01*
X239910476Y-223616183D02*
X239910476Y-223520945D01*
X239910476Y-223520945D02*
X239958095Y-223425707D01*
X239958095Y-223425707D02*
X240005714Y-223378088D01*
X240005714Y-223378088D02*
X240100952Y-223330469D01*
X240100952Y-223330469D02*
X240339047Y-223330469D01*
X240339047Y-223330469D02*
X240481904Y-223378088D01*
X240815238Y-223330469D02*
X241053333Y-224330469D01*
X241053333Y-224330469D02*
X241243809Y-223616183D01*
X241243809Y-223616183D02*
X241434285Y-224330469D01*
X241434285Y-224330469D02*
X241672381Y-223330469D01*
X242529523Y-223330469D02*
X242053333Y-223330469D01*
X242053333Y-223330469D02*
X242005714Y-223806659D01*
X242005714Y-223806659D02*
X242053333Y-223759040D01*
X242053333Y-223759040D02*
X242148571Y-223711421D01*
X242148571Y-223711421D02*
X242386666Y-223711421D01*
X242386666Y-223711421D02*
X242481904Y-223759040D01*
X242481904Y-223759040D02*
X242529523Y-223806659D01*
X242529523Y-223806659D02*
X242577142Y-223901897D01*
X242577142Y-223901897D02*
X242577142Y-224139992D01*
X242577142Y-224139992D02*
X242529523Y-224235230D01*
X242529523Y-224235230D02*
X242481904Y-224282850D01*
X242481904Y-224282850D02*
X242386666Y-224330469D01*
X242386666Y-224330469D02*
X242148571Y-224330469D01*
X242148571Y-224330469D02*
X242053333Y-224282850D01*
X242053333Y-224282850D02*
X242005714Y-224235230D01*
X243148571Y-223759040D02*
X243053333Y-223711421D01*
X243053333Y-223711421D02*
X243005714Y-223663802D01*
X243005714Y-223663802D02*
X242958095Y-223568564D01*
X242958095Y-223568564D02*
X242958095Y-223520945D01*
X242958095Y-223520945D02*
X243005714Y-223425707D01*
X243005714Y-223425707D02*
X243053333Y-223378088D01*
X243053333Y-223378088D02*
X243148571Y-223330469D01*
X243148571Y-223330469D02*
X243339047Y-223330469D01*
X243339047Y-223330469D02*
X243434285Y-223378088D01*
X243434285Y-223378088D02*
X243481904Y-223425707D01*
X243481904Y-223425707D02*
X243529523Y-223520945D01*
X243529523Y-223520945D02*
X243529523Y-223568564D01*
X243529523Y-223568564D02*
X243481904Y-223663802D01*
X243481904Y-223663802D02*
X243434285Y-223711421D01*
X243434285Y-223711421D02*
X243339047Y-223759040D01*
X243339047Y-223759040D02*
X243148571Y-223759040D01*
X243148571Y-223759040D02*
X243053333Y-223806659D01*
X243053333Y-223806659D02*
X243005714Y-223854278D01*
X243005714Y-223854278D02*
X242958095Y-223949516D01*
X242958095Y-223949516D02*
X242958095Y-224139992D01*
X242958095Y-224139992D02*
X243005714Y-224235230D01*
X243005714Y-224235230D02*
X243053333Y-224282850D01*
X243053333Y-224282850D02*
X243148571Y-224330469D01*
X243148571Y-224330469D02*
X243339047Y-224330469D01*
X243339047Y-224330469D02*
X243434285Y-224282850D01*
X243434285Y-224282850D02*
X243481904Y-224235230D01*
X243481904Y-224235230D02*
X243529523Y-224139992D01*
X243529523Y-224139992D02*
X243529523Y-223949516D01*
X243529523Y-223949516D02*
X243481904Y-223854278D01*
X243481904Y-223854278D02*
X243434285Y-223806659D01*
X243434285Y-223806659D02*
X243339047Y-223759040D01*
X158980476Y-262382850D02*
X159123333Y-262430469D01*
X159123333Y-262430469D02*
X159361428Y-262430469D01*
X159361428Y-262430469D02*
X159456666Y-262382850D01*
X159456666Y-262382850D02*
X159504285Y-262335230D01*
X159504285Y-262335230D02*
X159551904Y-262239992D01*
X159551904Y-262239992D02*
X159551904Y-262144754D01*
X159551904Y-262144754D02*
X159504285Y-262049516D01*
X159504285Y-262049516D02*
X159456666Y-262001897D01*
X159456666Y-262001897D02*
X159361428Y-261954278D01*
X159361428Y-261954278D02*
X159170952Y-261906659D01*
X159170952Y-261906659D02*
X159075714Y-261859040D01*
X159075714Y-261859040D02*
X159028095Y-261811421D01*
X159028095Y-261811421D02*
X158980476Y-261716183D01*
X158980476Y-261716183D02*
X158980476Y-261620945D01*
X158980476Y-261620945D02*
X159028095Y-261525707D01*
X159028095Y-261525707D02*
X159075714Y-261478088D01*
X159075714Y-261478088D02*
X159170952Y-261430469D01*
X159170952Y-261430469D02*
X159409047Y-261430469D01*
X159409047Y-261430469D02*
X159551904Y-261478088D01*
X159885238Y-261430469D02*
X160123333Y-262430469D01*
X160123333Y-262430469D02*
X160313809Y-261716183D01*
X160313809Y-261716183D02*
X160504285Y-262430469D01*
X160504285Y-262430469D02*
X160742381Y-261430469D01*
X161028095Y-261430469D02*
X161647142Y-261430469D01*
X161647142Y-261430469D02*
X161313809Y-261811421D01*
X161313809Y-261811421D02*
X161456666Y-261811421D01*
X161456666Y-261811421D02*
X161551904Y-261859040D01*
X161551904Y-261859040D02*
X161599523Y-261906659D01*
X161599523Y-261906659D02*
X161647142Y-262001897D01*
X161647142Y-262001897D02*
X161647142Y-262239992D01*
X161647142Y-262239992D02*
X161599523Y-262335230D01*
X161599523Y-262335230D02*
X161551904Y-262382850D01*
X161551904Y-262382850D02*
X161456666Y-262430469D01*
X161456666Y-262430469D02*
X161170952Y-262430469D01*
X161170952Y-262430469D02*
X161075714Y-262382850D01*
X161075714Y-262382850D02*
X161028095Y-262335230D01*
X162504285Y-261430469D02*
X162313809Y-261430469D01*
X162313809Y-261430469D02*
X162218571Y-261478088D01*
X162218571Y-261478088D02*
X162170952Y-261525707D01*
X162170952Y-261525707D02*
X162075714Y-261668564D01*
X162075714Y-261668564D02*
X162028095Y-261859040D01*
X162028095Y-261859040D02*
X162028095Y-262239992D01*
X162028095Y-262239992D02*
X162075714Y-262335230D01*
X162075714Y-262335230D02*
X162123333Y-262382850D01*
X162123333Y-262382850D02*
X162218571Y-262430469D01*
X162218571Y-262430469D02*
X162409047Y-262430469D01*
X162409047Y-262430469D02*
X162504285Y-262382850D01*
X162504285Y-262382850D02*
X162551904Y-262335230D01*
X162551904Y-262335230D02*
X162599523Y-262239992D01*
X162599523Y-262239992D02*
X162599523Y-262001897D01*
X162599523Y-262001897D02*
X162551904Y-261906659D01*
X162551904Y-261906659D02*
X162504285Y-261859040D01*
X162504285Y-261859040D02*
X162409047Y-261811421D01*
X162409047Y-261811421D02*
X162218571Y-261811421D01*
X162218571Y-261811421D02*
X162123333Y-261859040D01*
X162123333Y-261859040D02*
X162075714Y-261906659D01*
X162075714Y-261906659D02*
X162028095Y-262001897D01*
X292300476Y-262402850D02*
X292443333Y-262450469D01*
X292443333Y-262450469D02*
X292681428Y-262450469D01*
X292681428Y-262450469D02*
X292776666Y-262402850D01*
X292776666Y-262402850D02*
X292824285Y-262355230D01*
X292824285Y-262355230D02*
X292871904Y-262259992D01*
X292871904Y-262259992D02*
X292871904Y-262164754D01*
X292871904Y-262164754D02*
X292824285Y-262069516D01*
X292824285Y-262069516D02*
X292776666Y-262021897D01*
X292776666Y-262021897D02*
X292681428Y-261974278D01*
X292681428Y-261974278D02*
X292490952Y-261926659D01*
X292490952Y-261926659D02*
X292395714Y-261879040D01*
X292395714Y-261879040D02*
X292348095Y-261831421D01*
X292348095Y-261831421D02*
X292300476Y-261736183D01*
X292300476Y-261736183D02*
X292300476Y-261640945D01*
X292300476Y-261640945D02*
X292348095Y-261545707D01*
X292348095Y-261545707D02*
X292395714Y-261498088D01*
X292395714Y-261498088D02*
X292490952Y-261450469D01*
X292490952Y-261450469D02*
X292729047Y-261450469D01*
X292729047Y-261450469D02*
X292871904Y-261498088D01*
X293205238Y-261450469D02*
X293443333Y-262450469D01*
X293443333Y-262450469D02*
X293633809Y-261736183D01*
X293633809Y-261736183D02*
X293824285Y-262450469D01*
X293824285Y-262450469D02*
X294062381Y-261450469D01*
X294395714Y-261545707D02*
X294443333Y-261498088D01*
X294443333Y-261498088D02*
X294538571Y-261450469D01*
X294538571Y-261450469D02*
X294776666Y-261450469D01*
X294776666Y-261450469D02*
X294871904Y-261498088D01*
X294871904Y-261498088D02*
X294919523Y-261545707D01*
X294919523Y-261545707D02*
X294967142Y-261640945D01*
X294967142Y-261640945D02*
X294967142Y-261736183D01*
X294967142Y-261736183D02*
X294919523Y-261879040D01*
X294919523Y-261879040D02*
X294348095Y-262450469D01*
X294348095Y-262450469D02*
X294967142Y-262450469D01*
X295871904Y-261450469D02*
X295395714Y-261450469D01*
X295395714Y-261450469D02*
X295348095Y-261926659D01*
X295348095Y-261926659D02*
X295395714Y-261879040D01*
X295395714Y-261879040D02*
X295490952Y-261831421D01*
X295490952Y-261831421D02*
X295729047Y-261831421D01*
X295729047Y-261831421D02*
X295824285Y-261879040D01*
X295824285Y-261879040D02*
X295871904Y-261926659D01*
X295871904Y-261926659D02*
X295919523Y-262021897D01*
X295919523Y-262021897D02*
X295919523Y-262259992D01*
X295919523Y-262259992D02*
X295871904Y-262355230D01*
X295871904Y-262355230D02*
X295824285Y-262402850D01*
X295824285Y-262402850D02*
X295729047Y-262450469D01*
X295729047Y-262450469D02*
X295490952Y-262450469D01*
X295490952Y-262450469D02*
X295395714Y-262402850D01*
X295395714Y-262402850D02*
X295348095Y-262355230D01*
X392250476Y-281432850D02*
X392393333Y-281480469D01*
X392393333Y-281480469D02*
X392631428Y-281480469D01*
X392631428Y-281480469D02*
X392726666Y-281432850D01*
X392726666Y-281432850D02*
X392774285Y-281385230D01*
X392774285Y-281385230D02*
X392821904Y-281289992D01*
X392821904Y-281289992D02*
X392821904Y-281194754D01*
X392821904Y-281194754D02*
X392774285Y-281099516D01*
X392774285Y-281099516D02*
X392726666Y-281051897D01*
X392726666Y-281051897D02*
X392631428Y-281004278D01*
X392631428Y-281004278D02*
X392440952Y-280956659D01*
X392440952Y-280956659D02*
X392345714Y-280909040D01*
X392345714Y-280909040D02*
X392298095Y-280861421D01*
X392298095Y-280861421D02*
X392250476Y-280766183D01*
X392250476Y-280766183D02*
X392250476Y-280670945D01*
X392250476Y-280670945D02*
X392298095Y-280575707D01*
X392298095Y-280575707D02*
X392345714Y-280528088D01*
X392345714Y-280528088D02*
X392440952Y-280480469D01*
X392440952Y-280480469D02*
X392679047Y-280480469D01*
X392679047Y-280480469D02*
X392821904Y-280528088D01*
X393155238Y-280480469D02*
X393393333Y-281480469D01*
X393393333Y-281480469D02*
X393583809Y-280766183D01*
X393583809Y-280766183D02*
X393774285Y-281480469D01*
X393774285Y-281480469D02*
X394012381Y-280480469D01*
X394345714Y-280575707D02*
X394393333Y-280528088D01*
X394393333Y-280528088D02*
X394488571Y-280480469D01*
X394488571Y-280480469D02*
X394726666Y-280480469D01*
X394726666Y-280480469D02*
X394821904Y-280528088D01*
X394821904Y-280528088D02*
X394869523Y-280575707D01*
X394869523Y-280575707D02*
X394917142Y-280670945D01*
X394917142Y-280670945D02*
X394917142Y-280766183D01*
X394917142Y-280766183D02*
X394869523Y-280909040D01*
X394869523Y-280909040D02*
X394298095Y-281480469D01*
X394298095Y-281480469D02*
X394917142Y-281480469D01*
X395488571Y-280909040D02*
X395393333Y-280861421D01*
X395393333Y-280861421D02*
X395345714Y-280813802D01*
X395345714Y-280813802D02*
X395298095Y-280718564D01*
X395298095Y-280718564D02*
X395298095Y-280670945D01*
X395298095Y-280670945D02*
X395345714Y-280575707D01*
X395345714Y-280575707D02*
X395393333Y-280528088D01*
X395393333Y-280528088D02*
X395488571Y-280480469D01*
X395488571Y-280480469D02*
X395679047Y-280480469D01*
X395679047Y-280480469D02*
X395774285Y-280528088D01*
X395774285Y-280528088D02*
X395821904Y-280575707D01*
X395821904Y-280575707D02*
X395869523Y-280670945D01*
X395869523Y-280670945D02*
X395869523Y-280718564D01*
X395869523Y-280718564D02*
X395821904Y-280813802D01*
X395821904Y-280813802D02*
X395774285Y-280861421D01*
X395774285Y-280861421D02*
X395679047Y-280909040D01*
X395679047Y-280909040D02*
X395488571Y-280909040D01*
X395488571Y-280909040D02*
X395393333Y-280956659D01*
X395393333Y-280956659D02*
X395345714Y-281004278D01*
X395345714Y-281004278D02*
X395298095Y-281099516D01*
X395298095Y-281099516D02*
X395298095Y-281289992D01*
X395298095Y-281289992D02*
X395345714Y-281385230D01*
X395345714Y-281385230D02*
X395393333Y-281432850D01*
X395393333Y-281432850D02*
X395488571Y-281480469D01*
X395488571Y-281480469D02*
X395679047Y-281480469D01*
X395679047Y-281480469D02*
X395774285Y-281432850D01*
X395774285Y-281432850D02*
X395821904Y-281385230D01*
X395821904Y-281385230D02*
X395869523Y-281289992D01*
X395869523Y-281289992D02*
X395869523Y-281099516D01*
X395869523Y-281099516D02*
X395821904Y-281004278D01*
X395821904Y-281004278D02*
X395774285Y-280956659D01*
X395774285Y-280956659D02*
X395679047Y-280909040D01*
X158030476Y-300536550D02*
X158173333Y-300584169D01*
X158173333Y-300584169D02*
X158411428Y-300584169D01*
X158411428Y-300584169D02*
X158506666Y-300536550D01*
X158506666Y-300536550D02*
X158554285Y-300488930D01*
X158554285Y-300488930D02*
X158601904Y-300393692D01*
X158601904Y-300393692D02*
X158601904Y-300298454D01*
X158601904Y-300298454D02*
X158554285Y-300203216D01*
X158554285Y-300203216D02*
X158506666Y-300155597D01*
X158506666Y-300155597D02*
X158411428Y-300107978D01*
X158411428Y-300107978D02*
X158220952Y-300060359D01*
X158220952Y-300060359D02*
X158125714Y-300012740D01*
X158125714Y-300012740D02*
X158078095Y-299965121D01*
X158078095Y-299965121D02*
X158030476Y-299869883D01*
X158030476Y-299869883D02*
X158030476Y-299774645D01*
X158030476Y-299774645D02*
X158078095Y-299679407D01*
X158078095Y-299679407D02*
X158125714Y-299631788D01*
X158125714Y-299631788D02*
X158220952Y-299584169D01*
X158220952Y-299584169D02*
X158459047Y-299584169D01*
X158459047Y-299584169D02*
X158601904Y-299631788D01*
X158935238Y-299584169D02*
X159173333Y-300584169D01*
X159173333Y-300584169D02*
X159363809Y-299869883D01*
X159363809Y-299869883D02*
X159554285Y-300584169D01*
X159554285Y-300584169D02*
X159792381Y-299584169D01*
X160078095Y-299584169D02*
X160697142Y-299584169D01*
X160697142Y-299584169D02*
X160363809Y-299965121D01*
X160363809Y-299965121D02*
X160506666Y-299965121D01*
X160506666Y-299965121D02*
X160601904Y-300012740D01*
X160601904Y-300012740D02*
X160649523Y-300060359D01*
X160649523Y-300060359D02*
X160697142Y-300155597D01*
X160697142Y-300155597D02*
X160697142Y-300393692D01*
X160697142Y-300393692D02*
X160649523Y-300488930D01*
X160649523Y-300488930D02*
X160601904Y-300536550D01*
X160601904Y-300536550D02*
X160506666Y-300584169D01*
X160506666Y-300584169D02*
X160220952Y-300584169D01*
X160220952Y-300584169D02*
X160125714Y-300536550D01*
X160125714Y-300536550D02*
X160078095Y-300488930D01*
X161649523Y-300584169D02*
X161078095Y-300584169D01*
X161363809Y-300584169D02*
X161363809Y-299584169D01*
X161363809Y-299584169D02*
X161268571Y-299727026D01*
X161268571Y-299727026D02*
X161173333Y-299822264D01*
X161173333Y-299822264D02*
X161078095Y-299869883D01*
X211280476Y-243360850D02*
X211423333Y-243408469D01*
X211423333Y-243408469D02*
X211661428Y-243408469D01*
X211661428Y-243408469D02*
X211756666Y-243360850D01*
X211756666Y-243360850D02*
X211804285Y-243313230D01*
X211804285Y-243313230D02*
X211851904Y-243217992D01*
X211851904Y-243217992D02*
X211851904Y-243122754D01*
X211851904Y-243122754D02*
X211804285Y-243027516D01*
X211804285Y-243027516D02*
X211756666Y-242979897D01*
X211756666Y-242979897D02*
X211661428Y-242932278D01*
X211661428Y-242932278D02*
X211470952Y-242884659D01*
X211470952Y-242884659D02*
X211375714Y-242837040D01*
X211375714Y-242837040D02*
X211328095Y-242789421D01*
X211328095Y-242789421D02*
X211280476Y-242694183D01*
X211280476Y-242694183D02*
X211280476Y-242598945D01*
X211280476Y-242598945D02*
X211328095Y-242503707D01*
X211328095Y-242503707D02*
X211375714Y-242456088D01*
X211375714Y-242456088D02*
X211470952Y-242408469D01*
X211470952Y-242408469D02*
X211709047Y-242408469D01*
X211709047Y-242408469D02*
X211851904Y-242456088D01*
X212185238Y-242408469D02*
X212423333Y-243408469D01*
X212423333Y-243408469D02*
X212613809Y-242694183D01*
X212613809Y-242694183D02*
X212804285Y-243408469D01*
X212804285Y-243408469D02*
X213042381Y-242408469D01*
X213851904Y-242741802D02*
X213851904Y-243408469D01*
X213613809Y-242360850D02*
X213375714Y-243075135D01*
X213375714Y-243075135D02*
X213994761Y-243075135D01*
X214280476Y-242408469D02*
X214899523Y-242408469D01*
X214899523Y-242408469D02*
X214566190Y-242789421D01*
X214566190Y-242789421D02*
X214709047Y-242789421D01*
X214709047Y-242789421D02*
X214804285Y-242837040D01*
X214804285Y-242837040D02*
X214851904Y-242884659D01*
X214851904Y-242884659D02*
X214899523Y-242979897D01*
X214899523Y-242979897D02*
X214899523Y-243217992D01*
X214899523Y-243217992D02*
X214851904Y-243313230D01*
X214851904Y-243313230D02*
X214804285Y-243360850D01*
X214804285Y-243360850D02*
X214709047Y-243408469D01*
X214709047Y-243408469D02*
X214423333Y-243408469D01*
X214423333Y-243408469D02*
X214328095Y-243360850D01*
X214328095Y-243360850D02*
X214280476Y-243313230D01*
X197536667Y-262422850D02*
X197679524Y-262470469D01*
X197679524Y-262470469D02*
X197917619Y-262470469D01*
X197917619Y-262470469D02*
X198012857Y-262422850D01*
X198012857Y-262422850D02*
X198060476Y-262375230D01*
X198060476Y-262375230D02*
X198108095Y-262279992D01*
X198108095Y-262279992D02*
X198108095Y-262184754D01*
X198108095Y-262184754D02*
X198060476Y-262089516D01*
X198060476Y-262089516D02*
X198012857Y-262041897D01*
X198012857Y-262041897D02*
X197917619Y-261994278D01*
X197917619Y-261994278D02*
X197727143Y-261946659D01*
X197727143Y-261946659D02*
X197631905Y-261899040D01*
X197631905Y-261899040D02*
X197584286Y-261851421D01*
X197584286Y-261851421D02*
X197536667Y-261756183D01*
X197536667Y-261756183D02*
X197536667Y-261660945D01*
X197536667Y-261660945D02*
X197584286Y-261565707D01*
X197584286Y-261565707D02*
X197631905Y-261518088D01*
X197631905Y-261518088D02*
X197727143Y-261470469D01*
X197727143Y-261470469D02*
X197965238Y-261470469D01*
X197965238Y-261470469D02*
X198108095Y-261518088D01*
X198441429Y-261470469D02*
X198679524Y-262470469D01*
X198679524Y-262470469D02*
X198870000Y-261756183D01*
X198870000Y-261756183D02*
X199060476Y-262470469D01*
X199060476Y-262470469D02*
X199298572Y-261470469D01*
X200108095Y-261470469D02*
X199917619Y-261470469D01*
X199917619Y-261470469D02*
X199822381Y-261518088D01*
X199822381Y-261518088D02*
X199774762Y-261565707D01*
X199774762Y-261565707D02*
X199679524Y-261708564D01*
X199679524Y-261708564D02*
X199631905Y-261899040D01*
X199631905Y-261899040D02*
X199631905Y-262279992D01*
X199631905Y-262279992D02*
X199679524Y-262375230D01*
X199679524Y-262375230D02*
X199727143Y-262422850D01*
X199727143Y-262422850D02*
X199822381Y-262470469D01*
X199822381Y-262470469D02*
X200012857Y-262470469D01*
X200012857Y-262470469D02*
X200108095Y-262422850D01*
X200108095Y-262422850D02*
X200155714Y-262375230D01*
X200155714Y-262375230D02*
X200203333Y-262279992D01*
X200203333Y-262279992D02*
X200203333Y-262041897D01*
X200203333Y-262041897D02*
X200155714Y-261946659D01*
X200155714Y-261946659D02*
X200108095Y-261899040D01*
X200108095Y-261899040D02*
X200012857Y-261851421D01*
X200012857Y-261851421D02*
X199822381Y-261851421D01*
X199822381Y-261851421D02*
X199727143Y-261899040D01*
X199727143Y-261899040D02*
X199679524Y-261946659D01*
X199679524Y-261946659D02*
X199631905Y-262041897D01*
X192230476Y-243360850D02*
X192373333Y-243408469D01*
X192373333Y-243408469D02*
X192611428Y-243408469D01*
X192611428Y-243408469D02*
X192706666Y-243360850D01*
X192706666Y-243360850D02*
X192754285Y-243313230D01*
X192754285Y-243313230D02*
X192801904Y-243217992D01*
X192801904Y-243217992D02*
X192801904Y-243122754D01*
X192801904Y-243122754D02*
X192754285Y-243027516D01*
X192754285Y-243027516D02*
X192706666Y-242979897D01*
X192706666Y-242979897D02*
X192611428Y-242932278D01*
X192611428Y-242932278D02*
X192420952Y-242884659D01*
X192420952Y-242884659D02*
X192325714Y-242837040D01*
X192325714Y-242837040D02*
X192278095Y-242789421D01*
X192278095Y-242789421D02*
X192230476Y-242694183D01*
X192230476Y-242694183D02*
X192230476Y-242598945D01*
X192230476Y-242598945D02*
X192278095Y-242503707D01*
X192278095Y-242503707D02*
X192325714Y-242456088D01*
X192325714Y-242456088D02*
X192420952Y-242408469D01*
X192420952Y-242408469D02*
X192659047Y-242408469D01*
X192659047Y-242408469D02*
X192801904Y-242456088D01*
X193135238Y-242408469D02*
X193373333Y-243408469D01*
X193373333Y-243408469D02*
X193563809Y-242694183D01*
X193563809Y-242694183D02*
X193754285Y-243408469D01*
X193754285Y-243408469D02*
X193992381Y-242408469D01*
X194325714Y-242503707D02*
X194373333Y-242456088D01*
X194373333Y-242456088D02*
X194468571Y-242408469D01*
X194468571Y-242408469D02*
X194706666Y-242408469D01*
X194706666Y-242408469D02*
X194801904Y-242456088D01*
X194801904Y-242456088D02*
X194849523Y-242503707D01*
X194849523Y-242503707D02*
X194897142Y-242598945D01*
X194897142Y-242598945D02*
X194897142Y-242694183D01*
X194897142Y-242694183D02*
X194849523Y-242837040D01*
X194849523Y-242837040D02*
X194278095Y-243408469D01*
X194278095Y-243408469D02*
X194897142Y-243408469D01*
X195230476Y-242408469D02*
X195849523Y-242408469D01*
X195849523Y-242408469D02*
X195516190Y-242789421D01*
X195516190Y-242789421D02*
X195659047Y-242789421D01*
X195659047Y-242789421D02*
X195754285Y-242837040D01*
X195754285Y-242837040D02*
X195801904Y-242884659D01*
X195801904Y-242884659D02*
X195849523Y-242979897D01*
X195849523Y-242979897D02*
X195849523Y-243217992D01*
X195849523Y-243217992D02*
X195801904Y-243313230D01*
X195801904Y-243313230D02*
X195754285Y-243360850D01*
X195754285Y-243360850D02*
X195659047Y-243408469D01*
X195659047Y-243408469D02*
X195373333Y-243408469D01*
X195373333Y-243408469D02*
X195278095Y-243360850D01*
X195278095Y-243360850D02*
X195230476Y-243313230D01*
X326036667Y-300512850D02*
X326179524Y-300560469D01*
X326179524Y-300560469D02*
X326417619Y-300560469D01*
X326417619Y-300560469D02*
X326512857Y-300512850D01*
X326512857Y-300512850D02*
X326560476Y-300465230D01*
X326560476Y-300465230D02*
X326608095Y-300369992D01*
X326608095Y-300369992D02*
X326608095Y-300274754D01*
X326608095Y-300274754D02*
X326560476Y-300179516D01*
X326560476Y-300179516D02*
X326512857Y-300131897D01*
X326512857Y-300131897D02*
X326417619Y-300084278D01*
X326417619Y-300084278D02*
X326227143Y-300036659D01*
X326227143Y-300036659D02*
X326131905Y-299989040D01*
X326131905Y-299989040D02*
X326084286Y-299941421D01*
X326084286Y-299941421D02*
X326036667Y-299846183D01*
X326036667Y-299846183D02*
X326036667Y-299750945D01*
X326036667Y-299750945D02*
X326084286Y-299655707D01*
X326084286Y-299655707D02*
X326131905Y-299608088D01*
X326131905Y-299608088D02*
X326227143Y-299560469D01*
X326227143Y-299560469D02*
X326465238Y-299560469D01*
X326465238Y-299560469D02*
X326608095Y-299608088D01*
X326941429Y-299560469D02*
X327179524Y-300560469D01*
X327179524Y-300560469D02*
X327370000Y-299846183D01*
X327370000Y-299846183D02*
X327560476Y-300560469D01*
X327560476Y-300560469D02*
X327798572Y-299560469D01*
X328084286Y-299560469D02*
X328703333Y-299560469D01*
X328703333Y-299560469D02*
X328370000Y-299941421D01*
X328370000Y-299941421D02*
X328512857Y-299941421D01*
X328512857Y-299941421D02*
X328608095Y-299989040D01*
X328608095Y-299989040D02*
X328655714Y-300036659D01*
X328655714Y-300036659D02*
X328703333Y-300131897D01*
X328703333Y-300131897D02*
X328703333Y-300369992D01*
X328703333Y-300369992D02*
X328655714Y-300465230D01*
X328655714Y-300465230D02*
X328608095Y-300512850D01*
X328608095Y-300512850D02*
X328512857Y-300560469D01*
X328512857Y-300560469D02*
X328227143Y-300560469D01*
X328227143Y-300560469D02*
X328131905Y-300512850D01*
X328131905Y-300512850D02*
X328084286Y-300465230D01*
X123210476Y-263492850D02*
X123353333Y-263540469D01*
X123353333Y-263540469D02*
X123591428Y-263540469D01*
X123591428Y-263540469D02*
X123686666Y-263492850D01*
X123686666Y-263492850D02*
X123734285Y-263445230D01*
X123734285Y-263445230D02*
X123781904Y-263349992D01*
X123781904Y-263349992D02*
X123781904Y-263254754D01*
X123781904Y-263254754D02*
X123734285Y-263159516D01*
X123734285Y-263159516D02*
X123686666Y-263111897D01*
X123686666Y-263111897D02*
X123591428Y-263064278D01*
X123591428Y-263064278D02*
X123400952Y-263016659D01*
X123400952Y-263016659D02*
X123305714Y-262969040D01*
X123305714Y-262969040D02*
X123258095Y-262921421D01*
X123258095Y-262921421D02*
X123210476Y-262826183D01*
X123210476Y-262826183D02*
X123210476Y-262730945D01*
X123210476Y-262730945D02*
X123258095Y-262635707D01*
X123258095Y-262635707D02*
X123305714Y-262588088D01*
X123305714Y-262588088D02*
X123400952Y-262540469D01*
X123400952Y-262540469D02*
X123639047Y-262540469D01*
X123639047Y-262540469D02*
X123781904Y-262588088D01*
X124115238Y-262540469D02*
X124353333Y-263540469D01*
X124353333Y-263540469D02*
X124543809Y-262826183D01*
X124543809Y-262826183D02*
X124734285Y-263540469D01*
X124734285Y-263540469D02*
X124972381Y-262540469D01*
X125877142Y-263540469D02*
X125305714Y-263540469D01*
X125591428Y-263540469D02*
X125591428Y-262540469D01*
X125591428Y-262540469D02*
X125496190Y-262683326D01*
X125496190Y-262683326D02*
X125400952Y-262778564D01*
X125400952Y-262778564D02*
X125305714Y-262826183D01*
X126448571Y-262969040D02*
X126353333Y-262921421D01*
X126353333Y-262921421D02*
X126305714Y-262873802D01*
X126305714Y-262873802D02*
X126258095Y-262778564D01*
X126258095Y-262778564D02*
X126258095Y-262730945D01*
X126258095Y-262730945D02*
X126305714Y-262635707D01*
X126305714Y-262635707D02*
X126353333Y-262588088D01*
X126353333Y-262588088D02*
X126448571Y-262540469D01*
X126448571Y-262540469D02*
X126639047Y-262540469D01*
X126639047Y-262540469D02*
X126734285Y-262588088D01*
X126734285Y-262588088D02*
X126781904Y-262635707D01*
X126781904Y-262635707D02*
X126829523Y-262730945D01*
X126829523Y-262730945D02*
X126829523Y-262778564D01*
X126829523Y-262778564D02*
X126781904Y-262873802D01*
X126781904Y-262873802D02*
X126734285Y-262921421D01*
X126734285Y-262921421D02*
X126639047Y-262969040D01*
X126639047Y-262969040D02*
X126448571Y-262969040D01*
X126448571Y-262969040D02*
X126353333Y-263016659D01*
X126353333Y-263016659D02*
X126305714Y-263064278D01*
X126305714Y-263064278D02*
X126258095Y-263159516D01*
X126258095Y-263159516D02*
X126258095Y-263349992D01*
X126258095Y-263349992D02*
X126305714Y-263445230D01*
X126305714Y-263445230D02*
X126353333Y-263492850D01*
X126353333Y-263492850D02*
X126448571Y-263540469D01*
X126448571Y-263540469D02*
X126639047Y-263540469D01*
X126639047Y-263540469D02*
X126734285Y-263492850D01*
X126734285Y-263492850D02*
X126781904Y-263445230D01*
X126781904Y-263445230D02*
X126829523Y-263349992D01*
X126829523Y-263349992D02*
X126829523Y-263159516D01*
X126829523Y-263159516D02*
X126781904Y-263064278D01*
X126781904Y-263064278D02*
X126734285Y-263016659D01*
X126734285Y-263016659D02*
X126639047Y-262969040D01*
X315980476Y-224232850D02*
X316123333Y-224280469D01*
X316123333Y-224280469D02*
X316361428Y-224280469D01*
X316361428Y-224280469D02*
X316456666Y-224232850D01*
X316456666Y-224232850D02*
X316504285Y-224185230D01*
X316504285Y-224185230D02*
X316551904Y-224089992D01*
X316551904Y-224089992D02*
X316551904Y-223994754D01*
X316551904Y-223994754D02*
X316504285Y-223899516D01*
X316504285Y-223899516D02*
X316456666Y-223851897D01*
X316456666Y-223851897D02*
X316361428Y-223804278D01*
X316361428Y-223804278D02*
X316170952Y-223756659D01*
X316170952Y-223756659D02*
X316075714Y-223709040D01*
X316075714Y-223709040D02*
X316028095Y-223661421D01*
X316028095Y-223661421D02*
X315980476Y-223566183D01*
X315980476Y-223566183D02*
X315980476Y-223470945D01*
X315980476Y-223470945D02*
X316028095Y-223375707D01*
X316028095Y-223375707D02*
X316075714Y-223328088D01*
X316075714Y-223328088D02*
X316170952Y-223280469D01*
X316170952Y-223280469D02*
X316409047Y-223280469D01*
X316409047Y-223280469D02*
X316551904Y-223328088D01*
X316885238Y-223280469D02*
X317123333Y-224280469D01*
X317123333Y-224280469D02*
X317313809Y-223566183D01*
X317313809Y-223566183D02*
X317504285Y-224280469D01*
X317504285Y-224280469D02*
X317742381Y-223280469D01*
X318551904Y-223280469D02*
X318361428Y-223280469D01*
X318361428Y-223280469D02*
X318266190Y-223328088D01*
X318266190Y-223328088D02*
X318218571Y-223375707D01*
X318218571Y-223375707D02*
X318123333Y-223518564D01*
X318123333Y-223518564D02*
X318075714Y-223709040D01*
X318075714Y-223709040D02*
X318075714Y-224089992D01*
X318075714Y-224089992D02*
X318123333Y-224185230D01*
X318123333Y-224185230D02*
X318170952Y-224232850D01*
X318170952Y-224232850D02*
X318266190Y-224280469D01*
X318266190Y-224280469D02*
X318456666Y-224280469D01*
X318456666Y-224280469D02*
X318551904Y-224232850D01*
X318551904Y-224232850D02*
X318599523Y-224185230D01*
X318599523Y-224185230D02*
X318647142Y-224089992D01*
X318647142Y-224089992D02*
X318647142Y-223851897D01*
X318647142Y-223851897D02*
X318599523Y-223756659D01*
X318599523Y-223756659D02*
X318551904Y-223709040D01*
X318551904Y-223709040D02*
X318456666Y-223661421D01*
X318456666Y-223661421D02*
X318266190Y-223661421D01*
X318266190Y-223661421D02*
X318170952Y-223709040D01*
X318170952Y-223709040D02*
X318123333Y-223756659D01*
X318123333Y-223756659D02*
X318075714Y-223851897D01*
X319599523Y-224280469D02*
X319028095Y-224280469D01*
X319313809Y-224280469D02*
X319313809Y-223280469D01*
X319313809Y-223280469D02*
X319218571Y-223423326D01*
X319218571Y-223423326D02*
X319123333Y-223518564D01*
X319123333Y-223518564D02*
X319028095Y-223566183D01*
X125560476Y-224302850D02*
X125703333Y-224350469D01*
X125703333Y-224350469D02*
X125941428Y-224350469D01*
X125941428Y-224350469D02*
X126036666Y-224302850D01*
X126036666Y-224302850D02*
X126084285Y-224255230D01*
X126084285Y-224255230D02*
X126131904Y-224159992D01*
X126131904Y-224159992D02*
X126131904Y-224064754D01*
X126131904Y-224064754D02*
X126084285Y-223969516D01*
X126084285Y-223969516D02*
X126036666Y-223921897D01*
X126036666Y-223921897D02*
X125941428Y-223874278D01*
X125941428Y-223874278D02*
X125750952Y-223826659D01*
X125750952Y-223826659D02*
X125655714Y-223779040D01*
X125655714Y-223779040D02*
X125608095Y-223731421D01*
X125608095Y-223731421D02*
X125560476Y-223636183D01*
X125560476Y-223636183D02*
X125560476Y-223540945D01*
X125560476Y-223540945D02*
X125608095Y-223445707D01*
X125608095Y-223445707D02*
X125655714Y-223398088D01*
X125655714Y-223398088D02*
X125750952Y-223350469D01*
X125750952Y-223350469D02*
X125989047Y-223350469D01*
X125989047Y-223350469D02*
X126131904Y-223398088D01*
X126465238Y-223350469D02*
X126703333Y-224350469D01*
X126703333Y-224350469D02*
X126893809Y-223636183D01*
X126893809Y-223636183D02*
X127084285Y-224350469D01*
X127084285Y-224350469D02*
X127322381Y-223350469D01*
X127655714Y-223445707D02*
X127703333Y-223398088D01*
X127703333Y-223398088D02*
X127798571Y-223350469D01*
X127798571Y-223350469D02*
X128036666Y-223350469D01*
X128036666Y-223350469D02*
X128131904Y-223398088D01*
X128131904Y-223398088D02*
X128179523Y-223445707D01*
X128179523Y-223445707D02*
X128227142Y-223540945D01*
X128227142Y-223540945D02*
X128227142Y-223636183D01*
X128227142Y-223636183D02*
X128179523Y-223779040D01*
X128179523Y-223779040D02*
X127608095Y-224350469D01*
X127608095Y-224350469D02*
X128227142Y-224350469D01*
X129179523Y-224350469D02*
X128608095Y-224350469D01*
X128893809Y-224350469D02*
X128893809Y-223350469D01*
X128893809Y-223350469D02*
X128798571Y-223493326D01*
X128798571Y-223493326D02*
X128703333Y-223588564D01*
X128703333Y-223588564D02*
X128608095Y-223636183D01*
X196190476Y-203352850D02*
X196333333Y-203400469D01*
X196333333Y-203400469D02*
X196571428Y-203400469D01*
X196571428Y-203400469D02*
X196666666Y-203352850D01*
X196666666Y-203352850D02*
X196714285Y-203305230D01*
X196714285Y-203305230D02*
X196761904Y-203209992D01*
X196761904Y-203209992D02*
X196761904Y-203114754D01*
X196761904Y-203114754D02*
X196714285Y-203019516D01*
X196714285Y-203019516D02*
X196666666Y-202971897D01*
X196666666Y-202971897D02*
X196571428Y-202924278D01*
X196571428Y-202924278D02*
X196380952Y-202876659D01*
X196380952Y-202876659D02*
X196285714Y-202829040D01*
X196285714Y-202829040D02*
X196238095Y-202781421D01*
X196238095Y-202781421D02*
X196190476Y-202686183D01*
X196190476Y-202686183D02*
X196190476Y-202590945D01*
X196190476Y-202590945D02*
X196238095Y-202495707D01*
X196238095Y-202495707D02*
X196285714Y-202448088D01*
X196285714Y-202448088D02*
X196380952Y-202400469D01*
X196380952Y-202400469D02*
X196619047Y-202400469D01*
X196619047Y-202400469D02*
X196761904Y-202448088D01*
X197095238Y-202400469D02*
X197333333Y-203400469D01*
X197333333Y-203400469D02*
X197523809Y-202686183D01*
X197523809Y-202686183D02*
X197714285Y-203400469D01*
X197714285Y-203400469D02*
X197952381Y-202400469D01*
X198761904Y-202400469D02*
X198571428Y-202400469D01*
X198571428Y-202400469D02*
X198476190Y-202448088D01*
X198476190Y-202448088D02*
X198428571Y-202495707D01*
X198428571Y-202495707D02*
X198333333Y-202638564D01*
X198333333Y-202638564D02*
X198285714Y-202829040D01*
X198285714Y-202829040D02*
X198285714Y-203209992D01*
X198285714Y-203209992D02*
X198333333Y-203305230D01*
X198333333Y-203305230D02*
X198380952Y-203352850D01*
X198380952Y-203352850D02*
X198476190Y-203400469D01*
X198476190Y-203400469D02*
X198666666Y-203400469D01*
X198666666Y-203400469D02*
X198761904Y-203352850D01*
X198761904Y-203352850D02*
X198809523Y-203305230D01*
X198809523Y-203305230D02*
X198857142Y-203209992D01*
X198857142Y-203209992D02*
X198857142Y-202971897D01*
X198857142Y-202971897D02*
X198809523Y-202876659D01*
X198809523Y-202876659D02*
X198761904Y-202829040D01*
X198761904Y-202829040D02*
X198666666Y-202781421D01*
X198666666Y-202781421D02*
X198476190Y-202781421D01*
X198476190Y-202781421D02*
X198380952Y-202829040D01*
X198380952Y-202829040D02*
X198333333Y-202876659D01*
X198333333Y-202876659D02*
X198285714Y-202971897D01*
X199428571Y-202829040D02*
X199333333Y-202781421D01*
X199333333Y-202781421D02*
X199285714Y-202733802D01*
X199285714Y-202733802D02*
X199238095Y-202638564D01*
X199238095Y-202638564D02*
X199238095Y-202590945D01*
X199238095Y-202590945D02*
X199285714Y-202495707D01*
X199285714Y-202495707D02*
X199333333Y-202448088D01*
X199333333Y-202448088D02*
X199428571Y-202400469D01*
X199428571Y-202400469D02*
X199619047Y-202400469D01*
X199619047Y-202400469D02*
X199714285Y-202448088D01*
X199714285Y-202448088D02*
X199761904Y-202495707D01*
X199761904Y-202495707D02*
X199809523Y-202590945D01*
X199809523Y-202590945D02*
X199809523Y-202638564D01*
X199809523Y-202638564D02*
X199761904Y-202733802D01*
X199761904Y-202733802D02*
X199714285Y-202781421D01*
X199714285Y-202781421D02*
X199619047Y-202829040D01*
X199619047Y-202829040D02*
X199428571Y-202829040D01*
X199428571Y-202829040D02*
X199333333Y-202876659D01*
X199333333Y-202876659D02*
X199285714Y-202924278D01*
X199285714Y-202924278D02*
X199238095Y-203019516D01*
X199238095Y-203019516D02*
X199238095Y-203209992D01*
X199238095Y-203209992D02*
X199285714Y-203305230D01*
X199285714Y-203305230D02*
X199333333Y-203352850D01*
X199333333Y-203352850D02*
X199428571Y-203400469D01*
X199428571Y-203400469D02*
X199619047Y-203400469D01*
X199619047Y-203400469D02*
X199714285Y-203352850D01*
X199714285Y-203352850D02*
X199761904Y-203305230D01*
X199761904Y-203305230D02*
X199809523Y-203209992D01*
X199809523Y-203209992D02*
X199809523Y-203019516D01*
X199809523Y-203019516D02*
X199761904Y-202924278D01*
X199761904Y-202924278D02*
X199714285Y-202876659D01*
X199714285Y-202876659D02*
X199619047Y-202829040D01*
X235170476Y-262442850D02*
X235313333Y-262490469D01*
X235313333Y-262490469D02*
X235551428Y-262490469D01*
X235551428Y-262490469D02*
X235646666Y-262442850D01*
X235646666Y-262442850D02*
X235694285Y-262395230D01*
X235694285Y-262395230D02*
X235741904Y-262299992D01*
X235741904Y-262299992D02*
X235741904Y-262204754D01*
X235741904Y-262204754D02*
X235694285Y-262109516D01*
X235694285Y-262109516D02*
X235646666Y-262061897D01*
X235646666Y-262061897D02*
X235551428Y-262014278D01*
X235551428Y-262014278D02*
X235360952Y-261966659D01*
X235360952Y-261966659D02*
X235265714Y-261919040D01*
X235265714Y-261919040D02*
X235218095Y-261871421D01*
X235218095Y-261871421D02*
X235170476Y-261776183D01*
X235170476Y-261776183D02*
X235170476Y-261680945D01*
X235170476Y-261680945D02*
X235218095Y-261585707D01*
X235218095Y-261585707D02*
X235265714Y-261538088D01*
X235265714Y-261538088D02*
X235360952Y-261490469D01*
X235360952Y-261490469D02*
X235599047Y-261490469D01*
X235599047Y-261490469D02*
X235741904Y-261538088D01*
X236075238Y-261490469D02*
X236313333Y-262490469D01*
X236313333Y-262490469D02*
X236503809Y-261776183D01*
X236503809Y-261776183D02*
X236694285Y-262490469D01*
X236694285Y-262490469D02*
X236932381Y-261490469D01*
X237218095Y-261490469D02*
X237837142Y-261490469D01*
X237837142Y-261490469D02*
X237503809Y-261871421D01*
X237503809Y-261871421D02*
X237646666Y-261871421D01*
X237646666Y-261871421D02*
X237741904Y-261919040D01*
X237741904Y-261919040D02*
X237789523Y-261966659D01*
X237789523Y-261966659D02*
X237837142Y-262061897D01*
X237837142Y-262061897D02*
X237837142Y-262299992D01*
X237837142Y-262299992D02*
X237789523Y-262395230D01*
X237789523Y-262395230D02*
X237741904Y-262442850D01*
X237741904Y-262442850D02*
X237646666Y-262490469D01*
X237646666Y-262490469D02*
X237360952Y-262490469D01*
X237360952Y-262490469D02*
X237265714Y-262442850D01*
X237265714Y-262442850D02*
X237218095Y-262395230D01*
X238313333Y-262490469D02*
X238503809Y-262490469D01*
X238503809Y-262490469D02*
X238599047Y-262442850D01*
X238599047Y-262442850D02*
X238646666Y-262395230D01*
X238646666Y-262395230D02*
X238741904Y-262252373D01*
X238741904Y-262252373D02*
X238789523Y-262061897D01*
X238789523Y-262061897D02*
X238789523Y-261680945D01*
X238789523Y-261680945D02*
X238741904Y-261585707D01*
X238741904Y-261585707D02*
X238694285Y-261538088D01*
X238694285Y-261538088D02*
X238599047Y-261490469D01*
X238599047Y-261490469D02*
X238408571Y-261490469D01*
X238408571Y-261490469D02*
X238313333Y-261538088D01*
X238313333Y-261538088D02*
X238265714Y-261585707D01*
X238265714Y-261585707D02*
X238218095Y-261680945D01*
X238218095Y-261680945D02*
X238218095Y-261919040D01*
X238218095Y-261919040D02*
X238265714Y-262014278D01*
X238265714Y-262014278D02*
X238313333Y-262061897D01*
X238313333Y-262061897D02*
X238408571Y-262109516D01*
X238408571Y-262109516D02*
X238599047Y-262109516D01*
X238599047Y-262109516D02*
X238694285Y-262061897D01*
X238694285Y-262061897D02*
X238741904Y-262014278D01*
X238741904Y-262014278D02*
X238789523Y-261919040D01*
X261370476Y-281462850D02*
X261513333Y-281510469D01*
X261513333Y-281510469D02*
X261751428Y-281510469D01*
X261751428Y-281510469D02*
X261846666Y-281462850D01*
X261846666Y-281462850D02*
X261894285Y-281415230D01*
X261894285Y-281415230D02*
X261941904Y-281319992D01*
X261941904Y-281319992D02*
X261941904Y-281224754D01*
X261941904Y-281224754D02*
X261894285Y-281129516D01*
X261894285Y-281129516D02*
X261846666Y-281081897D01*
X261846666Y-281081897D02*
X261751428Y-281034278D01*
X261751428Y-281034278D02*
X261560952Y-280986659D01*
X261560952Y-280986659D02*
X261465714Y-280939040D01*
X261465714Y-280939040D02*
X261418095Y-280891421D01*
X261418095Y-280891421D02*
X261370476Y-280796183D01*
X261370476Y-280796183D02*
X261370476Y-280700945D01*
X261370476Y-280700945D02*
X261418095Y-280605707D01*
X261418095Y-280605707D02*
X261465714Y-280558088D01*
X261465714Y-280558088D02*
X261560952Y-280510469D01*
X261560952Y-280510469D02*
X261799047Y-280510469D01*
X261799047Y-280510469D02*
X261941904Y-280558088D01*
X262275238Y-280510469D02*
X262513333Y-281510469D01*
X262513333Y-281510469D02*
X262703809Y-280796183D01*
X262703809Y-280796183D02*
X262894285Y-281510469D01*
X262894285Y-281510469D02*
X263132381Y-280510469D01*
X263989523Y-280510469D02*
X263513333Y-280510469D01*
X263513333Y-280510469D02*
X263465714Y-280986659D01*
X263465714Y-280986659D02*
X263513333Y-280939040D01*
X263513333Y-280939040D02*
X263608571Y-280891421D01*
X263608571Y-280891421D02*
X263846666Y-280891421D01*
X263846666Y-280891421D02*
X263941904Y-280939040D01*
X263941904Y-280939040D02*
X263989523Y-280986659D01*
X263989523Y-280986659D02*
X264037142Y-281081897D01*
X264037142Y-281081897D02*
X264037142Y-281319992D01*
X264037142Y-281319992D02*
X263989523Y-281415230D01*
X263989523Y-281415230D02*
X263941904Y-281462850D01*
X263941904Y-281462850D02*
X263846666Y-281510469D01*
X263846666Y-281510469D02*
X263608571Y-281510469D01*
X263608571Y-281510469D02*
X263513333Y-281462850D01*
X263513333Y-281462850D02*
X263465714Y-281415230D01*
X264656190Y-280510469D02*
X264751428Y-280510469D01*
X264751428Y-280510469D02*
X264846666Y-280558088D01*
X264846666Y-280558088D02*
X264894285Y-280605707D01*
X264894285Y-280605707D02*
X264941904Y-280700945D01*
X264941904Y-280700945D02*
X264989523Y-280891421D01*
X264989523Y-280891421D02*
X264989523Y-281129516D01*
X264989523Y-281129516D02*
X264941904Y-281319992D01*
X264941904Y-281319992D02*
X264894285Y-281415230D01*
X264894285Y-281415230D02*
X264846666Y-281462850D01*
X264846666Y-281462850D02*
X264751428Y-281510469D01*
X264751428Y-281510469D02*
X264656190Y-281510469D01*
X264656190Y-281510469D02*
X264560952Y-281462850D01*
X264560952Y-281462850D02*
X264513333Y-281415230D01*
X264513333Y-281415230D02*
X264465714Y-281319992D01*
X264465714Y-281319992D02*
X264418095Y-281129516D01*
X264418095Y-281129516D02*
X264418095Y-280891421D01*
X264418095Y-280891421D02*
X264465714Y-280700945D01*
X264465714Y-280700945D02*
X264513333Y-280605707D01*
X264513333Y-280605707D02*
X264560952Y-280558088D01*
X264560952Y-280558088D02*
X264656190Y-280510469D01*
X278030476Y-224282850D02*
X278173333Y-224330469D01*
X278173333Y-224330469D02*
X278411428Y-224330469D01*
X278411428Y-224330469D02*
X278506666Y-224282850D01*
X278506666Y-224282850D02*
X278554285Y-224235230D01*
X278554285Y-224235230D02*
X278601904Y-224139992D01*
X278601904Y-224139992D02*
X278601904Y-224044754D01*
X278601904Y-224044754D02*
X278554285Y-223949516D01*
X278554285Y-223949516D02*
X278506666Y-223901897D01*
X278506666Y-223901897D02*
X278411428Y-223854278D01*
X278411428Y-223854278D02*
X278220952Y-223806659D01*
X278220952Y-223806659D02*
X278125714Y-223759040D01*
X278125714Y-223759040D02*
X278078095Y-223711421D01*
X278078095Y-223711421D02*
X278030476Y-223616183D01*
X278030476Y-223616183D02*
X278030476Y-223520945D01*
X278030476Y-223520945D02*
X278078095Y-223425707D01*
X278078095Y-223425707D02*
X278125714Y-223378088D01*
X278125714Y-223378088D02*
X278220952Y-223330469D01*
X278220952Y-223330469D02*
X278459047Y-223330469D01*
X278459047Y-223330469D02*
X278601904Y-223378088D01*
X278935238Y-223330469D02*
X279173333Y-224330469D01*
X279173333Y-224330469D02*
X279363809Y-223616183D01*
X279363809Y-223616183D02*
X279554285Y-224330469D01*
X279554285Y-224330469D02*
X279792381Y-223330469D01*
X280601904Y-223330469D02*
X280411428Y-223330469D01*
X280411428Y-223330469D02*
X280316190Y-223378088D01*
X280316190Y-223378088D02*
X280268571Y-223425707D01*
X280268571Y-223425707D02*
X280173333Y-223568564D01*
X280173333Y-223568564D02*
X280125714Y-223759040D01*
X280125714Y-223759040D02*
X280125714Y-224139992D01*
X280125714Y-224139992D02*
X280173333Y-224235230D01*
X280173333Y-224235230D02*
X280220952Y-224282850D01*
X280220952Y-224282850D02*
X280316190Y-224330469D01*
X280316190Y-224330469D02*
X280506666Y-224330469D01*
X280506666Y-224330469D02*
X280601904Y-224282850D01*
X280601904Y-224282850D02*
X280649523Y-224235230D01*
X280649523Y-224235230D02*
X280697142Y-224139992D01*
X280697142Y-224139992D02*
X280697142Y-223901897D01*
X280697142Y-223901897D02*
X280649523Y-223806659D01*
X280649523Y-223806659D02*
X280601904Y-223759040D01*
X280601904Y-223759040D02*
X280506666Y-223711421D01*
X280506666Y-223711421D02*
X280316190Y-223711421D01*
X280316190Y-223711421D02*
X280220952Y-223759040D01*
X280220952Y-223759040D02*
X280173333Y-223806659D01*
X280173333Y-223806659D02*
X280125714Y-223901897D01*
X281030476Y-223330469D02*
X281697142Y-223330469D01*
X281697142Y-223330469D02*
X281268571Y-224330469D01*
X177990476Y-262402850D02*
X178133333Y-262450469D01*
X178133333Y-262450469D02*
X178371428Y-262450469D01*
X178371428Y-262450469D02*
X178466666Y-262402850D01*
X178466666Y-262402850D02*
X178514285Y-262355230D01*
X178514285Y-262355230D02*
X178561904Y-262259992D01*
X178561904Y-262259992D02*
X178561904Y-262164754D01*
X178561904Y-262164754D02*
X178514285Y-262069516D01*
X178514285Y-262069516D02*
X178466666Y-262021897D01*
X178466666Y-262021897D02*
X178371428Y-261974278D01*
X178371428Y-261974278D02*
X178180952Y-261926659D01*
X178180952Y-261926659D02*
X178085714Y-261879040D01*
X178085714Y-261879040D02*
X178038095Y-261831421D01*
X178038095Y-261831421D02*
X177990476Y-261736183D01*
X177990476Y-261736183D02*
X177990476Y-261640945D01*
X177990476Y-261640945D02*
X178038095Y-261545707D01*
X178038095Y-261545707D02*
X178085714Y-261498088D01*
X178085714Y-261498088D02*
X178180952Y-261450469D01*
X178180952Y-261450469D02*
X178419047Y-261450469D01*
X178419047Y-261450469D02*
X178561904Y-261498088D01*
X178895238Y-261450469D02*
X179133333Y-262450469D01*
X179133333Y-262450469D02*
X179323809Y-261736183D01*
X179323809Y-261736183D02*
X179514285Y-262450469D01*
X179514285Y-262450469D02*
X179752381Y-261450469D01*
X180085714Y-261545707D02*
X180133333Y-261498088D01*
X180133333Y-261498088D02*
X180228571Y-261450469D01*
X180228571Y-261450469D02*
X180466666Y-261450469D01*
X180466666Y-261450469D02*
X180561904Y-261498088D01*
X180561904Y-261498088D02*
X180609523Y-261545707D01*
X180609523Y-261545707D02*
X180657142Y-261640945D01*
X180657142Y-261640945D02*
X180657142Y-261736183D01*
X180657142Y-261736183D02*
X180609523Y-261879040D01*
X180609523Y-261879040D02*
X180038095Y-262450469D01*
X180038095Y-262450469D02*
X180657142Y-262450469D01*
X180990476Y-261450469D02*
X181657142Y-261450469D01*
X181657142Y-261450469D02*
X181228571Y-262450469D01*
X325580476Y-243352850D02*
X325723333Y-243400469D01*
X325723333Y-243400469D02*
X325961428Y-243400469D01*
X325961428Y-243400469D02*
X326056666Y-243352850D01*
X326056666Y-243352850D02*
X326104285Y-243305230D01*
X326104285Y-243305230D02*
X326151904Y-243209992D01*
X326151904Y-243209992D02*
X326151904Y-243114754D01*
X326151904Y-243114754D02*
X326104285Y-243019516D01*
X326104285Y-243019516D02*
X326056666Y-242971897D01*
X326056666Y-242971897D02*
X325961428Y-242924278D01*
X325961428Y-242924278D02*
X325770952Y-242876659D01*
X325770952Y-242876659D02*
X325675714Y-242829040D01*
X325675714Y-242829040D02*
X325628095Y-242781421D01*
X325628095Y-242781421D02*
X325580476Y-242686183D01*
X325580476Y-242686183D02*
X325580476Y-242590945D01*
X325580476Y-242590945D02*
X325628095Y-242495707D01*
X325628095Y-242495707D02*
X325675714Y-242448088D01*
X325675714Y-242448088D02*
X325770952Y-242400469D01*
X325770952Y-242400469D02*
X326009047Y-242400469D01*
X326009047Y-242400469D02*
X326151904Y-242448088D01*
X326485238Y-242400469D02*
X326723333Y-243400469D01*
X326723333Y-243400469D02*
X326913809Y-242686183D01*
X326913809Y-242686183D02*
X327104285Y-243400469D01*
X327104285Y-243400469D02*
X327342381Y-242400469D01*
X328151904Y-242733802D02*
X328151904Y-243400469D01*
X327913809Y-242352850D02*
X327675714Y-243067135D01*
X327675714Y-243067135D02*
X328294761Y-243067135D01*
X329104285Y-242733802D02*
X329104285Y-243400469D01*
X328866190Y-242352850D02*
X328628095Y-243067135D01*
X328628095Y-243067135D02*
X329247142Y-243067135D01*
X383420476Y-225366550D02*
X383563333Y-225414169D01*
X383563333Y-225414169D02*
X383801428Y-225414169D01*
X383801428Y-225414169D02*
X383896666Y-225366550D01*
X383896666Y-225366550D02*
X383944285Y-225318930D01*
X383944285Y-225318930D02*
X383991904Y-225223692D01*
X383991904Y-225223692D02*
X383991904Y-225128454D01*
X383991904Y-225128454D02*
X383944285Y-225033216D01*
X383944285Y-225033216D02*
X383896666Y-224985597D01*
X383896666Y-224985597D02*
X383801428Y-224937978D01*
X383801428Y-224937978D02*
X383610952Y-224890359D01*
X383610952Y-224890359D02*
X383515714Y-224842740D01*
X383515714Y-224842740D02*
X383468095Y-224795121D01*
X383468095Y-224795121D02*
X383420476Y-224699883D01*
X383420476Y-224699883D02*
X383420476Y-224604645D01*
X383420476Y-224604645D02*
X383468095Y-224509407D01*
X383468095Y-224509407D02*
X383515714Y-224461788D01*
X383515714Y-224461788D02*
X383610952Y-224414169D01*
X383610952Y-224414169D02*
X383849047Y-224414169D01*
X383849047Y-224414169D02*
X383991904Y-224461788D01*
X384325238Y-224414169D02*
X384563333Y-225414169D01*
X384563333Y-225414169D02*
X384753809Y-224699883D01*
X384753809Y-224699883D02*
X384944285Y-225414169D01*
X384944285Y-225414169D02*
X385182381Y-224414169D01*
X386087142Y-225414169D02*
X385515714Y-225414169D01*
X385801428Y-225414169D02*
X385801428Y-224414169D01*
X385801428Y-224414169D02*
X385706190Y-224557026D01*
X385706190Y-224557026D02*
X385610952Y-224652264D01*
X385610952Y-224652264D02*
X385515714Y-224699883D01*
X386944285Y-224414169D02*
X386753809Y-224414169D01*
X386753809Y-224414169D02*
X386658571Y-224461788D01*
X386658571Y-224461788D02*
X386610952Y-224509407D01*
X386610952Y-224509407D02*
X386515714Y-224652264D01*
X386515714Y-224652264D02*
X386468095Y-224842740D01*
X386468095Y-224842740D02*
X386468095Y-225223692D01*
X386468095Y-225223692D02*
X386515714Y-225318930D01*
X386515714Y-225318930D02*
X386563333Y-225366550D01*
X386563333Y-225366550D02*
X386658571Y-225414169D01*
X386658571Y-225414169D02*
X386849047Y-225414169D01*
X386849047Y-225414169D02*
X386944285Y-225366550D01*
X386944285Y-225366550D02*
X386991904Y-225318930D01*
X386991904Y-225318930D02*
X387039523Y-225223692D01*
X387039523Y-225223692D02*
X387039523Y-224985597D01*
X387039523Y-224985597D02*
X386991904Y-224890359D01*
X386991904Y-224890359D02*
X386944285Y-224842740D01*
X386944285Y-224842740D02*
X386849047Y-224795121D01*
X386849047Y-224795121D02*
X386658571Y-224795121D01*
X386658571Y-224795121D02*
X386563333Y-224842740D01*
X386563333Y-224842740D02*
X386515714Y-224890359D01*
X386515714Y-224890359D02*
X386468095Y-224985597D01*
X182710476Y-224302850D02*
X182853333Y-224350469D01*
X182853333Y-224350469D02*
X183091428Y-224350469D01*
X183091428Y-224350469D02*
X183186666Y-224302850D01*
X183186666Y-224302850D02*
X183234285Y-224255230D01*
X183234285Y-224255230D02*
X183281904Y-224159992D01*
X183281904Y-224159992D02*
X183281904Y-224064754D01*
X183281904Y-224064754D02*
X183234285Y-223969516D01*
X183234285Y-223969516D02*
X183186666Y-223921897D01*
X183186666Y-223921897D02*
X183091428Y-223874278D01*
X183091428Y-223874278D02*
X182900952Y-223826659D01*
X182900952Y-223826659D02*
X182805714Y-223779040D01*
X182805714Y-223779040D02*
X182758095Y-223731421D01*
X182758095Y-223731421D02*
X182710476Y-223636183D01*
X182710476Y-223636183D02*
X182710476Y-223540945D01*
X182710476Y-223540945D02*
X182758095Y-223445707D01*
X182758095Y-223445707D02*
X182805714Y-223398088D01*
X182805714Y-223398088D02*
X182900952Y-223350469D01*
X182900952Y-223350469D02*
X183139047Y-223350469D01*
X183139047Y-223350469D02*
X183281904Y-223398088D01*
X183615238Y-223350469D02*
X183853333Y-224350469D01*
X183853333Y-224350469D02*
X184043809Y-223636183D01*
X184043809Y-223636183D02*
X184234285Y-224350469D01*
X184234285Y-224350469D02*
X184472381Y-223350469D01*
X185329523Y-223350469D02*
X184853333Y-223350469D01*
X184853333Y-223350469D02*
X184805714Y-223826659D01*
X184805714Y-223826659D02*
X184853333Y-223779040D01*
X184853333Y-223779040D02*
X184948571Y-223731421D01*
X184948571Y-223731421D02*
X185186666Y-223731421D01*
X185186666Y-223731421D02*
X185281904Y-223779040D01*
X185281904Y-223779040D02*
X185329523Y-223826659D01*
X185329523Y-223826659D02*
X185377142Y-223921897D01*
X185377142Y-223921897D02*
X185377142Y-224159992D01*
X185377142Y-224159992D02*
X185329523Y-224255230D01*
X185329523Y-224255230D02*
X185281904Y-224302850D01*
X185281904Y-224302850D02*
X185186666Y-224350469D01*
X185186666Y-224350469D02*
X184948571Y-224350469D01*
X184948571Y-224350469D02*
X184853333Y-224302850D01*
X184853333Y-224302850D02*
X184805714Y-224255230D01*
X185758095Y-223445707D02*
X185805714Y-223398088D01*
X185805714Y-223398088D02*
X185900952Y-223350469D01*
X185900952Y-223350469D02*
X186139047Y-223350469D01*
X186139047Y-223350469D02*
X186234285Y-223398088D01*
X186234285Y-223398088D02*
X186281904Y-223445707D01*
X186281904Y-223445707D02*
X186329523Y-223540945D01*
X186329523Y-223540945D02*
X186329523Y-223636183D01*
X186329523Y-223636183D02*
X186281904Y-223779040D01*
X186281904Y-223779040D02*
X185710476Y-224350469D01*
X185710476Y-224350469D02*
X186329523Y-224350469D01*
X230330476Y-243360850D02*
X230473333Y-243408469D01*
X230473333Y-243408469D02*
X230711428Y-243408469D01*
X230711428Y-243408469D02*
X230806666Y-243360850D01*
X230806666Y-243360850D02*
X230854285Y-243313230D01*
X230854285Y-243313230D02*
X230901904Y-243217992D01*
X230901904Y-243217992D02*
X230901904Y-243122754D01*
X230901904Y-243122754D02*
X230854285Y-243027516D01*
X230854285Y-243027516D02*
X230806666Y-242979897D01*
X230806666Y-242979897D02*
X230711428Y-242932278D01*
X230711428Y-242932278D02*
X230520952Y-242884659D01*
X230520952Y-242884659D02*
X230425714Y-242837040D01*
X230425714Y-242837040D02*
X230378095Y-242789421D01*
X230378095Y-242789421D02*
X230330476Y-242694183D01*
X230330476Y-242694183D02*
X230330476Y-242598945D01*
X230330476Y-242598945D02*
X230378095Y-242503707D01*
X230378095Y-242503707D02*
X230425714Y-242456088D01*
X230425714Y-242456088D02*
X230520952Y-242408469D01*
X230520952Y-242408469D02*
X230759047Y-242408469D01*
X230759047Y-242408469D02*
X230901904Y-242456088D01*
X231235238Y-242408469D02*
X231473333Y-243408469D01*
X231473333Y-243408469D02*
X231663809Y-242694183D01*
X231663809Y-242694183D02*
X231854285Y-243408469D01*
X231854285Y-243408469D02*
X232092381Y-242408469D01*
X232425714Y-242503707D02*
X232473333Y-242456088D01*
X232473333Y-242456088D02*
X232568571Y-242408469D01*
X232568571Y-242408469D02*
X232806666Y-242408469D01*
X232806666Y-242408469D02*
X232901904Y-242456088D01*
X232901904Y-242456088D02*
X232949523Y-242503707D01*
X232949523Y-242503707D02*
X232997142Y-242598945D01*
X232997142Y-242598945D02*
X232997142Y-242694183D01*
X232997142Y-242694183D02*
X232949523Y-242837040D01*
X232949523Y-242837040D02*
X232378095Y-243408469D01*
X232378095Y-243408469D02*
X232997142Y-243408469D01*
X233854285Y-242741802D02*
X233854285Y-243408469D01*
X233616190Y-242360850D02*
X233378095Y-243075135D01*
X233378095Y-243075135D02*
X233997142Y-243075135D01*
X223270476Y-281442850D02*
X223413333Y-281490469D01*
X223413333Y-281490469D02*
X223651428Y-281490469D01*
X223651428Y-281490469D02*
X223746666Y-281442850D01*
X223746666Y-281442850D02*
X223794285Y-281395230D01*
X223794285Y-281395230D02*
X223841904Y-281299992D01*
X223841904Y-281299992D02*
X223841904Y-281204754D01*
X223841904Y-281204754D02*
X223794285Y-281109516D01*
X223794285Y-281109516D02*
X223746666Y-281061897D01*
X223746666Y-281061897D02*
X223651428Y-281014278D01*
X223651428Y-281014278D02*
X223460952Y-280966659D01*
X223460952Y-280966659D02*
X223365714Y-280919040D01*
X223365714Y-280919040D02*
X223318095Y-280871421D01*
X223318095Y-280871421D02*
X223270476Y-280776183D01*
X223270476Y-280776183D02*
X223270476Y-280680945D01*
X223270476Y-280680945D02*
X223318095Y-280585707D01*
X223318095Y-280585707D02*
X223365714Y-280538088D01*
X223365714Y-280538088D02*
X223460952Y-280490469D01*
X223460952Y-280490469D02*
X223699047Y-280490469D01*
X223699047Y-280490469D02*
X223841904Y-280538088D01*
X224175238Y-280490469D02*
X224413333Y-281490469D01*
X224413333Y-281490469D02*
X224603809Y-280776183D01*
X224603809Y-280776183D02*
X224794285Y-281490469D01*
X224794285Y-281490469D02*
X225032381Y-280490469D01*
X225937142Y-281490469D02*
X225365714Y-281490469D01*
X225651428Y-281490469D02*
X225651428Y-280490469D01*
X225651428Y-280490469D02*
X225556190Y-280633326D01*
X225556190Y-280633326D02*
X225460952Y-280728564D01*
X225460952Y-280728564D02*
X225365714Y-280776183D01*
X226794285Y-280823802D02*
X226794285Y-281490469D01*
X226556190Y-280442850D02*
X226318095Y-281157135D01*
X226318095Y-281157135D02*
X226937142Y-281157135D01*
X154130476Y-243360850D02*
X154273333Y-243408469D01*
X154273333Y-243408469D02*
X154511428Y-243408469D01*
X154511428Y-243408469D02*
X154606666Y-243360850D01*
X154606666Y-243360850D02*
X154654285Y-243313230D01*
X154654285Y-243313230D02*
X154701904Y-243217992D01*
X154701904Y-243217992D02*
X154701904Y-243122754D01*
X154701904Y-243122754D02*
X154654285Y-243027516D01*
X154654285Y-243027516D02*
X154606666Y-242979897D01*
X154606666Y-242979897D02*
X154511428Y-242932278D01*
X154511428Y-242932278D02*
X154320952Y-242884659D01*
X154320952Y-242884659D02*
X154225714Y-242837040D01*
X154225714Y-242837040D02*
X154178095Y-242789421D01*
X154178095Y-242789421D02*
X154130476Y-242694183D01*
X154130476Y-242694183D02*
X154130476Y-242598945D01*
X154130476Y-242598945D02*
X154178095Y-242503707D01*
X154178095Y-242503707D02*
X154225714Y-242456088D01*
X154225714Y-242456088D02*
X154320952Y-242408469D01*
X154320952Y-242408469D02*
X154559047Y-242408469D01*
X154559047Y-242408469D02*
X154701904Y-242456088D01*
X155035238Y-242408469D02*
X155273333Y-243408469D01*
X155273333Y-243408469D02*
X155463809Y-242694183D01*
X155463809Y-242694183D02*
X155654285Y-243408469D01*
X155654285Y-243408469D02*
X155892381Y-242408469D01*
X156797142Y-243408469D02*
X156225714Y-243408469D01*
X156511428Y-243408469D02*
X156511428Y-242408469D01*
X156511428Y-242408469D02*
X156416190Y-242551326D01*
X156416190Y-242551326D02*
X156320952Y-242646564D01*
X156320952Y-242646564D02*
X156225714Y-242694183D01*
X157178095Y-242503707D02*
X157225714Y-242456088D01*
X157225714Y-242456088D02*
X157320952Y-242408469D01*
X157320952Y-242408469D02*
X157559047Y-242408469D01*
X157559047Y-242408469D02*
X157654285Y-242456088D01*
X157654285Y-242456088D02*
X157701904Y-242503707D01*
X157701904Y-242503707D02*
X157749523Y-242598945D01*
X157749523Y-242598945D02*
X157749523Y-242694183D01*
X157749523Y-242694183D02*
X157701904Y-242837040D01*
X157701904Y-242837040D02*
X157130476Y-243408469D01*
X157130476Y-243408469D02*
X157749523Y-243408469D01*
X163660476Y-224302850D02*
X163803333Y-224350469D01*
X163803333Y-224350469D02*
X164041428Y-224350469D01*
X164041428Y-224350469D02*
X164136666Y-224302850D01*
X164136666Y-224302850D02*
X164184285Y-224255230D01*
X164184285Y-224255230D02*
X164231904Y-224159992D01*
X164231904Y-224159992D02*
X164231904Y-224064754D01*
X164231904Y-224064754D02*
X164184285Y-223969516D01*
X164184285Y-223969516D02*
X164136666Y-223921897D01*
X164136666Y-223921897D02*
X164041428Y-223874278D01*
X164041428Y-223874278D02*
X163850952Y-223826659D01*
X163850952Y-223826659D02*
X163755714Y-223779040D01*
X163755714Y-223779040D02*
X163708095Y-223731421D01*
X163708095Y-223731421D02*
X163660476Y-223636183D01*
X163660476Y-223636183D02*
X163660476Y-223540945D01*
X163660476Y-223540945D02*
X163708095Y-223445707D01*
X163708095Y-223445707D02*
X163755714Y-223398088D01*
X163755714Y-223398088D02*
X163850952Y-223350469D01*
X163850952Y-223350469D02*
X164089047Y-223350469D01*
X164089047Y-223350469D02*
X164231904Y-223398088D01*
X164565238Y-223350469D02*
X164803333Y-224350469D01*
X164803333Y-224350469D02*
X164993809Y-223636183D01*
X164993809Y-223636183D02*
X165184285Y-224350469D01*
X165184285Y-224350469D02*
X165422381Y-223350469D01*
X165708095Y-223350469D02*
X166327142Y-223350469D01*
X166327142Y-223350469D02*
X165993809Y-223731421D01*
X165993809Y-223731421D02*
X166136666Y-223731421D01*
X166136666Y-223731421D02*
X166231904Y-223779040D01*
X166231904Y-223779040D02*
X166279523Y-223826659D01*
X166279523Y-223826659D02*
X166327142Y-223921897D01*
X166327142Y-223921897D02*
X166327142Y-224159992D01*
X166327142Y-224159992D02*
X166279523Y-224255230D01*
X166279523Y-224255230D02*
X166231904Y-224302850D01*
X166231904Y-224302850D02*
X166136666Y-224350469D01*
X166136666Y-224350469D02*
X165850952Y-224350469D01*
X165850952Y-224350469D02*
X165755714Y-224302850D01*
X165755714Y-224302850D02*
X165708095Y-224255230D01*
X166708095Y-223445707D02*
X166755714Y-223398088D01*
X166755714Y-223398088D02*
X166850952Y-223350469D01*
X166850952Y-223350469D02*
X167089047Y-223350469D01*
X167089047Y-223350469D02*
X167184285Y-223398088D01*
X167184285Y-223398088D02*
X167231904Y-223445707D01*
X167231904Y-223445707D02*
X167279523Y-223540945D01*
X167279523Y-223540945D02*
X167279523Y-223636183D01*
X167279523Y-223636183D02*
X167231904Y-223779040D01*
X167231904Y-223779040D02*
X166660476Y-224350469D01*
X166660476Y-224350469D02*
X167279523Y-224350469D01*
X318530476Y-281452850D02*
X318673333Y-281500469D01*
X318673333Y-281500469D02*
X318911428Y-281500469D01*
X318911428Y-281500469D02*
X319006666Y-281452850D01*
X319006666Y-281452850D02*
X319054285Y-281405230D01*
X319054285Y-281405230D02*
X319101904Y-281309992D01*
X319101904Y-281309992D02*
X319101904Y-281214754D01*
X319101904Y-281214754D02*
X319054285Y-281119516D01*
X319054285Y-281119516D02*
X319006666Y-281071897D01*
X319006666Y-281071897D02*
X318911428Y-281024278D01*
X318911428Y-281024278D02*
X318720952Y-280976659D01*
X318720952Y-280976659D02*
X318625714Y-280929040D01*
X318625714Y-280929040D02*
X318578095Y-280881421D01*
X318578095Y-280881421D02*
X318530476Y-280786183D01*
X318530476Y-280786183D02*
X318530476Y-280690945D01*
X318530476Y-280690945D02*
X318578095Y-280595707D01*
X318578095Y-280595707D02*
X318625714Y-280548088D01*
X318625714Y-280548088D02*
X318720952Y-280500469D01*
X318720952Y-280500469D02*
X318959047Y-280500469D01*
X318959047Y-280500469D02*
X319101904Y-280548088D01*
X319435238Y-280500469D02*
X319673333Y-281500469D01*
X319673333Y-281500469D02*
X319863809Y-280786183D01*
X319863809Y-280786183D02*
X320054285Y-281500469D01*
X320054285Y-281500469D02*
X320292381Y-280500469D01*
X321197142Y-281500469D02*
X320625714Y-281500469D01*
X320911428Y-281500469D02*
X320911428Y-280500469D01*
X320911428Y-280500469D02*
X320816190Y-280643326D01*
X320816190Y-280643326D02*
X320720952Y-280738564D01*
X320720952Y-280738564D02*
X320625714Y-280786183D01*
X321816190Y-280500469D02*
X321911428Y-280500469D01*
X321911428Y-280500469D02*
X322006666Y-280548088D01*
X322006666Y-280548088D02*
X322054285Y-280595707D01*
X322054285Y-280595707D02*
X322101904Y-280690945D01*
X322101904Y-280690945D02*
X322149523Y-280881421D01*
X322149523Y-280881421D02*
X322149523Y-281119516D01*
X322149523Y-281119516D02*
X322101904Y-281309992D01*
X322101904Y-281309992D02*
X322054285Y-281405230D01*
X322054285Y-281405230D02*
X322006666Y-281452850D01*
X322006666Y-281452850D02*
X321911428Y-281500469D01*
X321911428Y-281500469D02*
X321816190Y-281500469D01*
X321816190Y-281500469D02*
X321720952Y-281452850D01*
X321720952Y-281452850D02*
X321673333Y-281405230D01*
X321673333Y-281405230D02*
X321625714Y-281309992D01*
X321625714Y-281309992D02*
X321578095Y-281119516D01*
X321578095Y-281119516D02*
X321578095Y-280881421D01*
X321578095Y-280881421D02*
X321625714Y-280690945D01*
X321625714Y-280690945D02*
X321673333Y-280595707D01*
X321673333Y-280595707D02*
X321720952Y-280548088D01*
X321720952Y-280548088D02*
X321816190Y-280500469D01*
X254200476Y-262392850D02*
X254343333Y-262440469D01*
X254343333Y-262440469D02*
X254581428Y-262440469D01*
X254581428Y-262440469D02*
X254676666Y-262392850D01*
X254676666Y-262392850D02*
X254724285Y-262345230D01*
X254724285Y-262345230D02*
X254771904Y-262249992D01*
X254771904Y-262249992D02*
X254771904Y-262154754D01*
X254771904Y-262154754D02*
X254724285Y-262059516D01*
X254724285Y-262059516D02*
X254676666Y-262011897D01*
X254676666Y-262011897D02*
X254581428Y-261964278D01*
X254581428Y-261964278D02*
X254390952Y-261916659D01*
X254390952Y-261916659D02*
X254295714Y-261869040D01*
X254295714Y-261869040D02*
X254248095Y-261821421D01*
X254248095Y-261821421D02*
X254200476Y-261726183D01*
X254200476Y-261726183D02*
X254200476Y-261630945D01*
X254200476Y-261630945D02*
X254248095Y-261535707D01*
X254248095Y-261535707D02*
X254295714Y-261488088D01*
X254295714Y-261488088D02*
X254390952Y-261440469D01*
X254390952Y-261440469D02*
X254629047Y-261440469D01*
X254629047Y-261440469D02*
X254771904Y-261488088D01*
X255105238Y-261440469D02*
X255343333Y-262440469D01*
X255343333Y-262440469D02*
X255533809Y-261726183D01*
X255533809Y-261726183D02*
X255724285Y-262440469D01*
X255724285Y-262440469D02*
X255962381Y-261440469D01*
X256248095Y-261440469D02*
X256867142Y-261440469D01*
X256867142Y-261440469D02*
X256533809Y-261821421D01*
X256533809Y-261821421D02*
X256676666Y-261821421D01*
X256676666Y-261821421D02*
X256771904Y-261869040D01*
X256771904Y-261869040D02*
X256819523Y-261916659D01*
X256819523Y-261916659D02*
X256867142Y-262011897D01*
X256867142Y-262011897D02*
X256867142Y-262249992D01*
X256867142Y-262249992D02*
X256819523Y-262345230D01*
X256819523Y-262345230D02*
X256771904Y-262392850D01*
X256771904Y-262392850D02*
X256676666Y-262440469D01*
X256676666Y-262440469D02*
X256390952Y-262440469D01*
X256390952Y-262440469D02*
X256295714Y-262392850D01*
X256295714Y-262392850D02*
X256248095Y-262345230D01*
X257200476Y-261440469D02*
X257867142Y-261440469D01*
X257867142Y-261440469D02*
X257438571Y-262440469D01*
X204686667Y-281462850D02*
X204829524Y-281510469D01*
X204829524Y-281510469D02*
X205067619Y-281510469D01*
X205067619Y-281510469D02*
X205162857Y-281462850D01*
X205162857Y-281462850D02*
X205210476Y-281415230D01*
X205210476Y-281415230D02*
X205258095Y-281319992D01*
X205258095Y-281319992D02*
X205258095Y-281224754D01*
X205258095Y-281224754D02*
X205210476Y-281129516D01*
X205210476Y-281129516D02*
X205162857Y-281081897D01*
X205162857Y-281081897D02*
X205067619Y-281034278D01*
X205067619Y-281034278D02*
X204877143Y-280986659D01*
X204877143Y-280986659D02*
X204781905Y-280939040D01*
X204781905Y-280939040D02*
X204734286Y-280891421D01*
X204734286Y-280891421D02*
X204686667Y-280796183D01*
X204686667Y-280796183D02*
X204686667Y-280700945D01*
X204686667Y-280700945D02*
X204734286Y-280605707D01*
X204734286Y-280605707D02*
X204781905Y-280558088D01*
X204781905Y-280558088D02*
X204877143Y-280510469D01*
X204877143Y-280510469D02*
X205115238Y-280510469D01*
X205115238Y-280510469D02*
X205258095Y-280558088D01*
X205591429Y-280510469D02*
X205829524Y-281510469D01*
X205829524Y-281510469D02*
X206020000Y-280796183D01*
X206020000Y-280796183D02*
X206210476Y-281510469D01*
X206210476Y-281510469D02*
X206448572Y-280510469D01*
X206972381Y-280939040D02*
X206877143Y-280891421D01*
X206877143Y-280891421D02*
X206829524Y-280843802D01*
X206829524Y-280843802D02*
X206781905Y-280748564D01*
X206781905Y-280748564D02*
X206781905Y-280700945D01*
X206781905Y-280700945D02*
X206829524Y-280605707D01*
X206829524Y-280605707D02*
X206877143Y-280558088D01*
X206877143Y-280558088D02*
X206972381Y-280510469D01*
X206972381Y-280510469D02*
X207162857Y-280510469D01*
X207162857Y-280510469D02*
X207258095Y-280558088D01*
X207258095Y-280558088D02*
X207305714Y-280605707D01*
X207305714Y-280605707D02*
X207353333Y-280700945D01*
X207353333Y-280700945D02*
X207353333Y-280748564D01*
X207353333Y-280748564D02*
X207305714Y-280843802D01*
X207305714Y-280843802D02*
X207258095Y-280891421D01*
X207258095Y-280891421D02*
X207162857Y-280939040D01*
X207162857Y-280939040D02*
X206972381Y-280939040D01*
X206972381Y-280939040D02*
X206877143Y-280986659D01*
X206877143Y-280986659D02*
X206829524Y-281034278D01*
X206829524Y-281034278D02*
X206781905Y-281129516D01*
X206781905Y-281129516D02*
X206781905Y-281319992D01*
X206781905Y-281319992D02*
X206829524Y-281415230D01*
X206829524Y-281415230D02*
X206877143Y-281462850D01*
X206877143Y-281462850D02*
X206972381Y-281510469D01*
X206972381Y-281510469D02*
X207162857Y-281510469D01*
X207162857Y-281510469D02*
X207258095Y-281462850D01*
X207258095Y-281462850D02*
X207305714Y-281415230D01*
X207305714Y-281415230D02*
X207353333Y-281319992D01*
X207353333Y-281319992D02*
X207353333Y-281129516D01*
X207353333Y-281129516D02*
X207305714Y-281034278D01*
X207305714Y-281034278D02*
X207258095Y-280986659D01*
X207258095Y-280986659D02*
X207162857Y-280939040D01*
X144610476Y-224302850D02*
X144753333Y-224350469D01*
X144753333Y-224350469D02*
X144991428Y-224350469D01*
X144991428Y-224350469D02*
X145086666Y-224302850D01*
X145086666Y-224302850D02*
X145134285Y-224255230D01*
X145134285Y-224255230D02*
X145181904Y-224159992D01*
X145181904Y-224159992D02*
X145181904Y-224064754D01*
X145181904Y-224064754D02*
X145134285Y-223969516D01*
X145134285Y-223969516D02*
X145086666Y-223921897D01*
X145086666Y-223921897D02*
X144991428Y-223874278D01*
X144991428Y-223874278D02*
X144800952Y-223826659D01*
X144800952Y-223826659D02*
X144705714Y-223779040D01*
X144705714Y-223779040D02*
X144658095Y-223731421D01*
X144658095Y-223731421D02*
X144610476Y-223636183D01*
X144610476Y-223636183D02*
X144610476Y-223540945D01*
X144610476Y-223540945D02*
X144658095Y-223445707D01*
X144658095Y-223445707D02*
X144705714Y-223398088D01*
X144705714Y-223398088D02*
X144800952Y-223350469D01*
X144800952Y-223350469D02*
X145039047Y-223350469D01*
X145039047Y-223350469D02*
X145181904Y-223398088D01*
X145515238Y-223350469D02*
X145753333Y-224350469D01*
X145753333Y-224350469D02*
X145943809Y-223636183D01*
X145943809Y-223636183D02*
X146134285Y-224350469D01*
X146134285Y-224350469D02*
X146372381Y-223350469D01*
X147181904Y-223683802D02*
X147181904Y-224350469D01*
X146943809Y-223302850D02*
X146705714Y-224017135D01*
X146705714Y-224017135D02*
X147324761Y-224017135D01*
X147658095Y-223445707D02*
X147705714Y-223398088D01*
X147705714Y-223398088D02*
X147800952Y-223350469D01*
X147800952Y-223350469D02*
X148039047Y-223350469D01*
X148039047Y-223350469D02*
X148134285Y-223398088D01*
X148134285Y-223398088D02*
X148181904Y-223445707D01*
X148181904Y-223445707D02*
X148229523Y-223540945D01*
X148229523Y-223540945D02*
X148229523Y-223636183D01*
X148229523Y-223636183D02*
X148181904Y-223779040D01*
X148181904Y-223779040D02*
X147610476Y-224350469D01*
X147610476Y-224350469D02*
X148229523Y-224350469D01*
X220800476Y-224292850D02*
X220943333Y-224340469D01*
X220943333Y-224340469D02*
X221181428Y-224340469D01*
X221181428Y-224340469D02*
X221276666Y-224292850D01*
X221276666Y-224292850D02*
X221324285Y-224245230D01*
X221324285Y-224245230D02*
X221371904Y-224149992D01*
X221371904Y-224149992D02*
X221371904Y-224054754D01*
X221371904Y-224054754D02*
X221324285Y-223959516D01*
X221324285Y-223959516D02*
X221276666Y-223911897D01*
X221276666Y-223911897D02*
X221181428Y-223864278D01*
X221181428Y-223864278D02*
X220990952Y-223816659D01*
X220990952Y-223816659D02*
X220895714Y-223769040D01*
X220895714Y-223769040D02*
X220848095Y-223721421D01*
X220848095Y-223721421D02*
X220800476Y-223626183D01*
X220800476Y-223626183D02*
X220800476Y-223530945D01*
X220800476Y-223530945D02*
X220848095Y-223435707D01*
X220848095Y-223435707D02*
X220895714Y-223388088D01*
X220895714Y-223388088D02*
X220990952Y-223340469D01*
X220990952Y-223340469D02*
X221229047Y-223340469D01*
X221229047Y-223340469D02*
X221371904Y-223388088D01*
X221705238Y-223340469D02*
X221943333Y-224340469D01*
X221943333Y-224340469D02*
X222133809Y-223626183D01*
X222133809Y-223626183D02*
X222324285Y-224340469D01*
X222324285Y-224340469D02*
X222562381Y-223340469D01*
X223371904Y-223673802D02*
X223371904Y-224340469D01*
X223133809Y-223292850D02*
X222895714Y-224007135D01*
X222895714Y-224007135D02*
X223514761Y-224007135D01*
X223943333Y-224340469D02*
X224133809Y-224340469D01*
X224133809Y-224340469D02*
X224229047Y-224292850D01*
X224229047Y-224292850D02*
X224276666Y-224245230D01*
X224276666Y-224245230D02*
X224371904Y-224102373D01*
X224371904Y-224102373D02*
X224419523Y-223911897D01*
X224419523Y-223911897D02*
X224419523Y-223530945D01*
X224419523Y-223530945D02*
X224371904Y-223435707D01*
X224371904Y-223435707D02*
X224324285Y-223388088D01*
X224324285Y-223388088D02*
X224229047Y-223340469D01*
X224229047Y-223340469D02*
X224038571Y-223340469D01*
X224038571Y-223340469D02*
X223943333Y-223388088D01*
X223943333Y-223388088D02*
X223895714Y-223435707D01*
X223895714Y-223435707D02*
X223848095Y-223530945D01*
X223848095Y-223530945D02*
X223848095Y-223769040D01*
X223848095Y-223769040D02*
X223895714Y-223864278D01*
X223895714Y-223864278D02*
X223943333Y-223911897D01*
X223943333Y-223911897D02*
X224038571Y-223959516D01*
X224038571Y-223959516D02*
X224229047Y-223959516D01*
X224229047Y-223959516D02*
X224324285Y-223911897D01*
X224324285Y-223911897D02*
X224371904Y-223864278D01*
X224371904Y-223864278D02*
X224419523Y-223769040D01*
X306530476Y-243352850D02*
X306673333Y-243400469D01*
X306673333Y-243400469D02*
X306911428Y-243400469D01*
X306911428Y-243400469D02*
X307006666Y-243352850D01*
X307006666Y-243352850D02*
X307054285Y-243305230D01*
X307054285Y-243305230D02*
X307101904Y-243209992D01*
X307101904Y-243209992D02*
X307101904Y-243114754D01*
X307101904Y-243114754D02*
X307054285Y-243019516D01*
X307054285Y-243019516D02*
X307006666Y-242971897D01*
X307006666Y-242971897D02*
X306911428Y-242924278D01*
X306911428Y-242924278D02*
X306720952Y-242876659D01*
X306720952Y-242876659D02*
X306625714Y-242829040D01*
X306625714Y-242829040D02*
X306578095Y-242781421D01*
X306578095Y-242781421D02*
X306530476Y-242686183D01*
X306530476Y-242686183D02*
X306530476Y-242590945D01*
X306530476Y-242590945D02*
X306578095Y-242495707D01*
X306578095Y-242495707D02*
X306625714Y-242448088D01*
X306625714Y-242448088D02*
X306720952Y-242400469D01*
X306720952Y-242400469D02*
X306959047Y-242400469D01*
X306959047Y-242400469D02*
X307101904Y-242448088D01*
X307435238Y-242400469D02*
X307673333Y-243400469D01*
X307673333Y-243400469D02*
X307863809Y-242686183D01*
X307863809Y-242686183D02*
X308054285Y-243400469D01*
X308054285Y-243400469D02*
X308292381Y-242400469D01*
X309149523Y-242400469D02*
X308673333Y-242400469D01*
X308673333Y-242400469D02*
X308625714Y-242876659D01*
X308625714Y-242876659D02*
X308673333Y-242829040D01*
X308673333Y-242829040D02*
X308768571Y-242781421D01*
X308768571Y-242781421D02*
X309006666Y-242781421D01*
X309006666Y-242781421D02*
X309101904Y-242829040D01*
X309101904Y-242829040D02*
X309149523Y-242876659D01*
X309149523Y-242876659D02*
X309197142Y-242971897D01*
X309197142Y-242971897D02*
X309197142Y-243209992D01*
X309197142Y-243209992D02*
X309149523Y-243305230D01*
X309149523Y-243305230D02*
X309101904Y-243352850D01*
X309101904Y-243352850D02*
X309006666Y-243400469D01*
X309006666Y-243400469D02*
X308768571Y-243400469D01*
X308768571Y-243400469D02*
X308673333Y-243352850D01*
X308673333Y-243352850D02*
X308625714Y-243305230D01*
X309530476Y-242400469D02*
X310149523Y-242400469D01*
X310149523Y-242400469D02*
X309816190Y-242781421D01*
X309816190Y-242781421D02*
X309959047Y-242781421D01*
X309959047Y-242781421D02*
X310054285Y-242829040D01*
X310054285Y-242829040D02*
X310101904Y-242876659D01*
X310101904Y-242876659D02*
X310149523Y-242971897D01*
X310149523Y-242971897D02*
X310149523Y-243209992D01*
X310149523Y-243209992D02*
X310101904Y-243305230D01*
X310101904Y-243305230D02*
X310054285Y-243352850D01*
X310054285Y-243352850D02*
X309959047Y-243400469D01*
X309959047Y-243400469D02*
X309673333Y-243400469D01*
X309673333Y-243400469D02*
X309578095Y-243352850D01*
X309578095Y-243352850D02*
X309530476Y-243305230D01*
X268430476Y-243360850D02*
X268573333Y-243408469D01*
X268573333Y-243408469D02*
X268811428Y-243408469D01*
X268811428Y-243408469D02*
X268906666Y-243360850D01*
X268906666Y-243360850D02*
X268954285Y-243313230D01*
X268954285Y-243313230D02*
X269001904Y-243217992D01*
X269001904Y-243217992D02*
X269001904Y-243122754D01*
X269001904Y-243122754D02*
X268954285Y-243027516D01*
X268954285Y-243027516D02*
X268906666Y-242979897D01*
X268906666Y-242979897D02*
X268811428Y-242932278D01*
X268811428Y-242932278D02*
X268620952Y-242884659D01*
X268620952Y-242884659D02*
X268525714Y-242837040D01*
X268525714Y-242837040D02*
X268478095Y-242789421D01*
X268478095Y-242789421D02*
X268430476Y-242694183D01*
X268430476Y-242694183D02*
X268430476Y-242598945D01*
X268430476Y-242598945D02*
X268478095Y-242503707D01*
X268478095Y-242503707D02*
X268525714Y-242456088D01*
X268525714Y-242456088D02*
X268620952Y-242408469D01*
X268620952Y-242408469D02*
X268859047Y-242408469D01*
X268859047Y-242408469D02*
X269001904Y-242456088D01*
X269335238Y-242408469D02*
X269573333Y-243408469D01*
X269573333Y-243408469D02*
X269763809Y-242694183D01*
X269763809Y-242694183D02*
X269954285Y-243408469D01*
X269954285Y-243408469D02*
X270192381Y-242408469D01*
X271049523Y-242408469D02*
X270573333Y-242408469D01*
X270573333Y-242408469D02*
X270525714Y-242884659D01*
X270525714Y-242884659D02*
X270573333Y-242837040D01*
X270573333Y-242837040D02*
X270668571Y-242789421D01*
X270668571Y-242789421D02*
X270906666Y-242789421D01*
X270906666Y-242789421D02*
X271001904Y-242837040D01*
X271001904Y-242837040D02*
X271049523Y-242884659D01*
X271049523Y-242884659D02*
X271097142Y-242979897D01*
X271097142Y-242979897D02*
X271097142Y-243217992D01*
X271097142Y-243217992D02*
X271049523Y-243313230D01*
X271049523Y-243313230D02*
X271001904Y-243360850D01*
X271001904Y-243360850D02*
X270906666Y-243408469D01*
X270906666Y-243408469D02*
X270668571Y-243408469D01*
X270668571Y-243408469D02*
X270573333Y-243360850D01*
X270573333Y-243360850D02*
X270525714Y-243313230D01*
X272001904Y-242408469D02*
X271525714Y-242408469D01*
X271525714Y-242408469D02*
X271478095Y-242884659D01*
X271478095Y-242884659D02*
X271525714Y-242837040D01*
X271525714Y-242837040D02*
X271620952Y-242789421D01*
X271620952Y-242789421D02*
X271859047Y-242789421D01*
X271859047Y-242789421D02*
X271954285Y-242837040D01*
X271954285Y-242837040D02*
X272001904Y-242884659D01*
X272001904Y-242884659D02*
X272049523Y-242979897D01*
X272049523Y-242979897D02*
X272049523Y-243217992D01*
X272049523Y-243217992D02*
X272001904Y-243313230D01*
X272001904Y-243313230D02*
X271954285Y-243360850D01*
X271954285Y-243360850D02*
X271859047Y-243408469D01*
X271859047Y-243408469D02*
X271620952Y-243408469D01*
X271620952Y-243408469D02*
X271525714Y-243360850D01*
X271525714Y-243360850D02*
X271478095Y-243313230D01*
X106510476Y-224302850D02*
X106653333Y-224350469D01*
X106653333Y-224350469D02*
X106891428Y-224350469D01*
X106891428Y-224350469D02*
X106986666Y-224302850D01*
X106986666Y-224302850D02*
X107034285Y-224255230D01*
X107034285Y-224255230D02*
X107081904Y-224159992D01*
X107081904Y-224159992D02*
X107081904Y-224064754D01*
X107081904Y-224064754D02*
X107034285Y-223969516D01*
X107034285Y-223969516D02*
X106986666Y-223921897D01*
X106986666Y-223921897D02*
X106891428Y-223874278D01*
X106891428Y-223874278D02*
X106700952Y-223826659D01*
X106700952Y-223826659D02*
X106605714Y-223779040D01*
X106605714Y-223779040D02*
X106558095Y-223731421D01*
X106558095Y-223731421D02*
X106510476Y-223636183D01*
X106510476Y-223636183D02*
X106510476Y-223540945D01*
X106510476Y-223540945D02*
X106558095Y-223445707D01*
X106558095Y-223445707D02*
X106605714Y-223398088D01*
X106605714Y-223398088D02*
X106700952Y-223350469D01*
X106700952Y-223350469D02*
X106939047Y-223350469D01*
X106939047Y-223350469D02*
X107081904Y-223398088D01*
X107415238Y-223350469D02*
X107653333Y-224350469D01*
X107653333Y-224350469D02*
X107843809Y-223636183D01*
X107843809Y-223636183D02*
X108034285Y-224350469D01*
X108034285Y-224350469D02*
X108272381Y-223350469D01*
X109177142Y-224350469D02*
X108605714Y-224350469D01*
X108891428Y-224350469D02*
X108891428Y-223350469D01*
X108891428Y-223350469D02*
X108796190Y-223493326D01*
X108796190Y-223493326D02*
X108700952Y-223588564D01*
X108700952Y-223588564D02*
X108605714Y-223636183D01*
X110129523Y-224350469D02*
X109558095Y-224350469D01*
X109843809Y-224350469D02*
X109843809Y-223350469D01*
X109843809Y-223350469D02*
X109748571Y-223493326D01*
X109748571Y-223493326D02*
X109653333Y-223588564D01*
X109653333Y-223588564D02*
X109558095Y-223636183D01*
X216090476Y-262412850D02*
X216233333Y-262460469D01*
X216233333Y-262460469D02*
X216471428Y-262460469D01*
X216471428Y-262460469D02*
X216566666Y-262412850D01*
X216566666Y-262412850D02*
X216614285Y-262365230D01*
X216614285Y-262365230D02*
X216661904Y-262269992D01*
X216661904Y-262269992D02*
X216661904Y-262174754D01*
X216661904Y-262174754D02*
X216614285Y-262079516D01*
X216614285Y-262079516D02*
X216566666Y-262031897D01*
X216566666Y-262031897D02*
X216471428Y-261984278D01*
X216471428Y-261984278D02*
X216280952Y-261936659D01*
X216280952Y-261936659D02*
X216185714Y-261889040D01*
X216185714Y-261889040D02*
X216138095Y-261841421D01*
X216138095Y-261841421D02*
X216090476Y-261746183D01*
X216090476Y-261746183D02*
X216090476Y-261650945D01*
X216090476Y-261650945D02*
X216138095Y-261555707D01*
X216138095Y-261555707D02*
X216185714Y-261508088D01*
X216185714Y-261508088D02*
X216280952Y-261460469D01*
X216280952Y-261460469D02*
X216519047Y-261460469D01*
X216519047Y-261460469D02*
X216661904Y-261508088D01*
X216995238Y-261460469D02*
X217233333Y-262460469D01*
X217233333Y-262460469D02*
X217423809Y-261746183D01*
X217423809Y-261746183D02*
X217614285Y-262460469D01*
X217614285Y-262460469D02*
X217852381Y-261460469D01*
X218661904Y-261793802D02*
X218661904Y-262460469D01*
X218423809Y-261412850D02*
X218185714Y-262127135D01*
X218185714Y-262127135D02*
X218804761Y-262127135D01*
X219090476Y-261460469D02*
X219757142Y-261460469D01*
X219757142Y-261460469D02*
X219328571Y-262460469D01*
X166090476Y-281462850D02*
X166233333Y-281510469D01*
X166233333Y-281510469D02*
X166471428Y-281510469D01*
X166471428Y-281510469D02*
X166566666Y-281462850D01*
X166566666Y-281462850D02*
X166614285Y-281415230D01*
X166614285Y-281415230D02*
X166661904Y-281319992D01*
X166661904Y-281319992D02*
X166661904Y-281224754D01*
X166661904Y-281224754D02*
X166614285Y-281129516D01*
X166614285Y-281129516D02*
X166566666Y-281081897D01*
X166566666Y-281081897D02*
X166471428Y-281034278D01*
X166471428Y-281034278D02*
X166280952Y-280986659D01*
X166280952Y-280986659D02*
X166185714Y-280939040D01*
X166185714Y-280939040D02*
X166138095Y-280891421D01*
X166138095Y-280891421D02*
X166090476Y-280796183D01*
X166090476Y-280796183D02*
X166090476Y-280700945D01*
X166090476Y-280700945D02*
X166138095Y-280605707D01*
X166138095Y-280605707D02*
X166185714Y-280558088D01*
X166185714Y-280558088D02*
X166280952Y-280510469D01*
X166280952Y-280510469D02*
X166519047Y-280510469D01*
X166519047Y-280510469D02*
X166661904Y-280558088D01*
X166995238Y-280510469D02*
X167233333Y-281510469D01*
X167233333Y-281510469D02*
X167423809Y-280796183D01*
X167423809Y-280796183D02*
X167614285Y-281510469D01*
X167614285Y-281510469D02*
X167852381Y-280510469D01*
X168185714Y-280605707D02*
X168233333Y-280558088D01*
X168233333Y-280558088D02*
X168328571Y-280510469D01*
X168328571Y-280510469D02*
X168566666Y-280510469D01*
X168566666Y-280510469D02*
X168661904Y-280558088D01*
X168661904Y-280558088D02*
X168709523Y-280605707D01*
X168709523Y-280605707D02*
X168757142Y-280700945D01*
X168757142Y-280700945D02*
X168757142Y-280796183D01*
X168757142Y-280796183D02*
X168709523Y-280939040D01*
X168709523Y-280939040D02*
X168138095Y-281510469D01*
X168138095Y-281510469D02*
X168757142Y-281510469D01*
X169233333Y-281510469D02*
X169423809Y-281510469D01*
X169423809Y-281510469D02*
X169519047Y-281462850D01*
X169519047Y-281462850D02*
X169566666Y-281415230D01*
X169566666Y-281415230D02*
X169661904Y-281272373D01*
X169661904Y-281272373D02*
X169709523Y-281081897D01*
X169709523Y-281081897D02*
X169709523Y-280700945D01*
X169709523Y-280700945D02*
X169661904Y-280605707D01*
X169661904Y-280605707D02*
X169614285Y-280558088D01*
X169614285Y-280558088D02*
X169519047Y-280510469D01*
X169519047Y-280510469D02*
X169328571Y-280510469D01*
X169328571Y-280510469D02*
X169233333Y-280558088D01*
X169233333Y-280558088D02*
X169185714Y-280605707D01*
X169185714Y-280605707D02*
X169138095Y-280700945D01*
X169138095Y-280700945D02*
X169138095Y-280939040D01*
X169138095Y-280939040D02*
X169185714Y-281034278D01*
X169185714Y-281034278D02*
X169233333Y-281081897D01*
X169233333Y-281081897D02*
X169328571Y-281129516D01*
X169328571Y-281129516D02*
X169519047Y-281129516D01*
X169519047Y-281129516D02*
X169614285Y-281081897D01*
X169614285Y-281081897D02*
X169661904Y-281034278D01*
X169661904Y-281034278D02*
X169709523Y-280939040D01*
X258970476Y-224302850D02*
X259113333Y-224350469D01*
X259113333Y-224350469D02*
X259351428Y-224350469D01*
X259351428Y-224350469D02*
X259446666Y-224302850D01*
X259446666Y-224302850D02*
X259494285Y-224255230D01*
X259494285Y-224255230D02*
X259541904Y-224159992D01*
X259541904Y-224159992D02*
X259541904Y-224064754D01*
X259541904Y-224064754D02*
X259494285Y-223969516D01*
X259494285Y-223969516D02*
X259446666Y-223921897D01*
X259446666Y-223921897D02*
X259351428Y-223874278D01*
X259351428Y-223874278D02*
X259160952Y-223826659D01*
X259160952Y-223826659D02*
X259065714Y-223779040D01*
X259065714Y-223779040D02*
X259018095Y-223731421D01*
X259018095Y-223731421D02*
X258970476Y-223636183D01*
X258970476Y-223636183D02*
X258970476Y-223540945D01*
X258970476Y-223540945D02*
X259018095Y-223445707D01*
X259018095Y-223445707D02*
X259065714Y-223398088D01*
X259065714Y-223398088D02*
X259160952Y-223350469D01*
X259160952Y-223350469D02*
X259399047Y-223350469D01*
X259399047Y-223350469D02*
X259541904Y-223398088D01*
X259875238Y-223350469D02*
X260113333Y-224350469D01*
X260113333Y-224350469D02*
X260303809Y-223636183D01*
X260303809Y-223636183D02*
X260494285Y-224350469D01*
X260494285Y-224350469D02*
X260732381Y-223350469D01*
X261065714Y-223445707D02*
X261113333Y-223398088D01*
X261113333Y-223398088D02*
X261208571Y-223350469D01*
X261208571Y-223350469D02*
X261446666Y-223350469D01*
X261446666Y-223350469D02*
X261541904Y-223398088D01*
X261541904Y-223398088D02*
X261589523Y-223445707D01*
X261589523Y-223445707D02*
X261637142Y-223540945D01*
X261637142Y-223540945D02*
X261637142Y-223636183D01*
X261637142Y-223636183D02*
X261589523Y-223779040D01*
X261589523Y-223779040D02*
X261018095Y-224350469D01*
X261018095Y-224350469D02*
X261637142Y-224350469D01*
X262256190Y-223350469D02*
X262351428Y-223350469D01*
X262351428Y-223350469D02*
X262446666Y-223398088D01*
X262446666Y-223398088D02*
X262494285Y-223445707D01*
X262494285Y-223445707D02*
X262541904Y-223540945D01*
X262541904Y-223540945D02*
X262589523Y-223731421D01*
X262589523Y-223731421D02*
X262589523Y-223969516D01*
X262589523Y-223969516D02*
X262541904Y-224159992D01*
X262541904Y-224159992D02*
X262494285Y-224255230D01*
X262494285Y-224255230D02*
X262446666Y-224302850D01*
X262446666Y-224302850D02*
X262351428Y-224350469D01*
X262351428Y-224350469D02*
X262256190Y-224350469D01*
X262256190Y-224350469D02*
X262160952Y-224302850D01*
X262160952Y-224302850D02*
X262113333Y-224255230D01*
X262113333Y-224255230D02*
X262065714Y-224159992D01*
X262065714Y-224159992D02*
X262018095Y-223969516D01*
X262018095Y-223969516D02*
X262018095Y-223731421D01*
X262018095Y-223731421D02*
X262065714Y-223540945D01*
X262065714Y-223540945D02*
X262113333Y-223445707D01*
X262113333Y-223445707D02*
X262160952Y-223398088D01*
X262160952Y-223398088D02*
X262256190Y-223350469D01*
X335130476Y-224272850D02*
X335273333Y-224320469D01*
X335273333Y-224320469D02*
X335511428Y-224320469D01*
X335511428Y-224320469D02*
X335606666Y-224272850D01*
X335606666Y-224272850D02*
X335654285Y-224225230D01*
X335654285Y-224225230D02*
X335701904Y-224129992D01*
X335701904Y-224129992D02*
X335701904Y-224034754D01*
X335701904Y-224034754D02*
X335654285Y-223939516D01*
X335654285Y-223939516D02*
X335606666Y-223891897D01*
X335606666Y-223891897D02*
X335511428Y-223844278D01*
X335511428Y-223844278D02*
X335320952Y-223796659D01*
X335320952Y-223796659D02*
X335225714Y-223749040D01*
X335225714Y-223749040D02*
X335178095Y-223701421D01*
X335178095Y-223701421D02*
X335130476Y-223606183D01*
X335130476Y-223606183D02*
X335130476Y-223510945D01*
X335130476Y-223510945D02*
X335178095Y-223415707D01*
X335178095Y-223415707D02*
X335225714Y-223368088D01*
X335225714Y-223368088D02*
X335320952Y-223320469D01*
X335320952Y-223320469D02*
X335559047Y-223320469D01*
X335559047Y-223320469D02*
X335701904Y-223368088D01*
X336035238Y-223320469D02*
X336273333Y-224320469D01*
X336273333Y-224320469D02*
X336463809Y-223606183D01*
X336463809Y-223606183D02*
X336654285Y-224320469D01*
X336654285Y-224320469D02*
X336892381Y-223320469D01*
X337749523Y-223320469D02*
X337273333Y-223320469D01*
X337273333Y-223320469D02*
X337225714Y-223796659D01*
X337225714Y-223796659D02*
X337273333Y-223749040D01*
X337273333Y-223749040D02*
X337368571Y-223701421D01*
X337368571Y-223701421D02*
X337606666Y-223701421D01*
X337606666Y-223701421D02*
X337701904Y-223749040D01*
X337701904Y-223749040D02*
X337749523Y-223796659D01*
X337749523Y-223796659D02*
X337797142Y-223891897D01*
X337797142Y-223891897D02*
X337797142Y-224129992D01*
X337797142Y-224129992D02*
X337749523Y-224225230D01*
X337749523Y-224225230D02*
X337701904Y-224272850D01*
X337701904Y-224272850D02*
X337606666Y-224320469D01*
X337606666Y-224320469D02*
X337368571Y-224320469D01*
X337368571Y-224320469D02*
X337273333Y-224272850D01*
X337273333Y-224272850D02*
X337225714Y-224225230D01*
X338273333Y-224320469D02*
X338463809Y-224320469D01*
X338463809Y-224320469D02*
X338559047Y-224272850D01*
X338559047Y-224272850D02*
X338606666Y-224225230D01*
X338606666Y-224225230D02*
X338701904Y-224082373D01*
X338701904Y-224082373D02*
X338749523Y-223891897D01*
X338749523Y-223891897D02*
X338749523Y-223510945D01*
X338749523Y-223510945D02*
X338701904Y-223415707D01*
X338701904Y-223415707D02*
X338654285Y-223368088D01*
X338654285Y-223368088D02*
X338559047Y-223320469D01*
X338559047Y-223320469D02*
X338368571Y-223320469D01*
X338368571Y-223320469D02*
X338273333Y-223368088D01*
X338273333Y-223368088D02*
X338225714Y-223415707D01*
X338225714Y-223415707D02*
X338178095Y-223510945D01*
X338178095Y-223510945D02*
X338178095Y-223749040D01*
X338178095Y-223749040D02*
X338225714Y-223844278D01*
X338225714Y-223844278D02*
X338273333Y-223891897D01*
X338273333Y-223891897D02*
X338368571Y-223939516D01*
X338368571Y-223939516D02*
X338559047Y-223939516D01*
X338559047Y-223939516D02*
X338654285Y-223891897D01*
X338654285Y-223891897D02*
X338701904Y-223844278D01*
X338701904Y-223844278D02*
X338749523Y-223749040D01*
X311340476Y-262402850D02*
X311483333Y-262450469D01*
X311483333Y-262450469D02*
X311721428Y-262450469D01*
X311721428Y-262450469D02*
X311816666Y-262402850D01*
X311816666Y-262402850D02*
X311864285Y-262355230D01*
X311864285Y-262355230D02*
X311911904Y-262259992D01*
X311911904Y-262259992D02*
X311911904Y-262164754D01*
X311911904Y-262164754D02*
X311864285Y-262069516D01*
X311864285Y-262069516D02*
X311816666Y-262021897D01*
X311816666Y-262021897D02*
X311721428Y-261974278D01*
X311721428Y-261974278D02*
X311530952Y-261926659D01*
X311530952Y-261926659D02*
X311435714Y-261879040D01*
X311435714Y-261879040D02*
X311388095Y-261831421D01*
X311388095Y-261831421D02*
X311340476Y-261736183D01*
X311340476Y-261736183D02*
X311340476Y-261640945D01*
X311340476Y-261640945D02*
X311388095Y-261545707D01*
X311388095Y-261545707D02*
X311435714Y-261498088D01*
X311435714Y-261498088D02*
X311530952Y-261450469D01*
X311530952Y-261450469D02*
X311769047Y-261450469D01*
X311769047Y-261450469D02*
X311911904Y-261498088D01*
X312245238Y-261450469D02*
X312483333Y-262450469D01*
X312483333Y-262450469D02*
X312673809Y-261736183D01*
X312673809Y-261736183D02*
X312864285Y-262450469D01*
X312864285Y-262450469D02*
X313102381Y-261450469D01*
X313911904Y-261783802D02*
X313911904Y-262450469D01*
X313673809Y-261402850D02*
X313435714Y-262117135D01*
X313435714Y-262117135D02*
X314054761Y-262117135D01*
X314864285Y-261450469D02*
X314673809Y-261450469D01*
X314673809Y-261450469D02*
X314578571Y-261498088D01*
X314578571Y-261498088D02*
X314530952Y-261545707D01*
X314530952Y-261545707D02*
X314435714Y-261688564D01*
X314435714Y-261688564D02*
X314388095Y-261879040D01*
X314388095Y-261879040D02*
X314388095Y-262259992D01*
X314388095Y-262259992D02*
X314435714Y-262355230D01*
X314435714Y-262355230D02*
X314483333Y-262402850D01*
X314483333Y-262402850D02*
X314578571Y-262450469D01*
X314578571Y-262450469D02*
X314769047Y-262450469D01*
X314769047Y-262450469D02*
X314864285Y-262402850D01*
X314864285Y-262402850D02*
X314911904Y-262355230D01*
X314911904Y-262355230D02*
X314959523Y-262259992D01*
X314959523Y-262259992D02*
X314959523Y-262021897D01*
X314959523Y-262021897D02*
X314911904Y-261926659D01*
X314911904Y-261926659D02*
X314864285Y-261879040D01*
X314864285Y-261879040D02*
X314769047Y-261831421D01*
X314769047Y-261831421D02*
X314578571Y-261831421D01*
X314578571Y-261831421D02*
X314483333Y-261879040D01*
X314483333Y-261879040D02*
X314435714Y-261926659D01*
X314435714Y-261926659D02*
X314388095Y-262021897D01*
X392260476Y-243352850D02*
X392403333Y-243400469D01*
X392403333Y-243400469D02*
X392641428Y-243400469D01*
X392641428Y-243400469D02*
X392736666Y-243352850D01*
X392736666Y-243352850D02*
X392784285Y-243305230D01*
X392784285Y-243305230D02*
X392831904Y-243209992D01*
X392831904Y-243209992D02*
X392831904Y-243114754D01*
X392831904Y-243114754D02*
X392784285Y-243019516D01*
X392784285Y-243019516D02*
X392736666Y-242971897D01*
X392736666Y-242971897D02*
X392641428Y-242924278D01*
X392641428Y-242924278D02*
X392450952Y-242876659D01*
X392450952Y-242876659D02*
X392355714Y-242829040D01*
X392355714Y-242829040D02*
X392308095Y-242781421D01*
X392308095Y-242781421D02*
X392260476Y-242686183D01*
X392260476Y-242686183D02*
X392260476Y-242590945D01*
X392260476Y-242590945D02*
X392308095Y-242495707D01*
X392308095Y-242495707D02*
X392355714Y-242448088D01*
X392355714Y-242448088D02*
X392450952Y-242400469D01*
X392450952Y-242400469D02*
X392689047Y-242400469D01*
X392689047Y-242400469D02*
X392831904Y-242448088D01*
X393165238Y-242400469D02*
X393403333Y-243400469D01*
X393403333Y-243400469D02*
X393593809Y-242686183D01*
X393593809Y-242686183D02*
X393784285Y-243400469D01*
X393784285Y-243400469D02*
X394022381Y-242400469D01*
X394831904Y-242400469D02*
X394641428Y-242400469D01*
X394641428Y-242400469D02*
X394546190Y-242448088D01*
X394546190Y-242448088D02*
X394498571Y-242495707D01*
X394498571Y-242495707D02*
X394403333Y-242638564D01*
X394403333Y-242638564D02*
X394355714Y-242829040D01*
X394355714Y-242829040D02*
X394355714Y-243209992D01*
X394355714Y-243209992D02*
X394403333Y-243305230D01*
X394403333Y-243305230D02*
X394450952Y-243352850D01*
X394450952Y-243352850D02*
X394546190Y-243400469D01*
X394546190Y-243400469D02*
X394736666Y-243400469D01*
X394736666Y-243400469D02*
X394831904Y-243352850D01*
X394831904Y-243352850D02*
X394879523Y-243305230D01*
X394879523Y-243305230D02*
X394927142Y-243209992D01*
X394927142Y-243209992D02*
X394927142Y-242971897D01*
X394927142Y-242971897D02*
X394879523Y-242876659D01*
X394879523Y-242876659D02*
X394831904Y-242829040D01*
X394831904Y-242829040D02*
X394736666Y-242781421D01*
X394736666Y-242781421D02*
X394546190Y-242781421D01*
X394546190Y-242781421D02*
X394450952Y-242829040D01*
X394450952Y-242829040D02*
X394403333Y-242876659D01*
X394403333Y-242876659D02*
X394355714Y-242971897D01*
X395784285Y-242733802D02*
X395784285Y-243400469D01*
X395546190Y-242352850D02*
X395308095Y-243067135D01*
X395308095Y-243067135D02*
X395927142Y-243067135D01*
D11*
%TO.C,SW60*%
X98800000Y-280712000D02*
X139300000Y-280712000D01*
X98800000Y-297712000D02*
X98800000Y-280712000D01*
X139300000Y-280712000D02*
X139300000Y-297712000D01*
X139300000Y-297712000D02*
X98800000Y-297712000D01*
%TO.C,SW56*%
X219870000Y-299015700D02*
X237870000Y-299015700D01*
X219870000Y-316015700D02*
X219870000Y-299015700D01*
X237870000Y-299015700D02*
X237870000Y-316015700D01*
X237870000Y-316015700D02*
X219870000Y-316015700D01*
%TO.C,SW70*%
X187890000Y-315785700D02*
X169890000Y-315785700D01*
X169890000Y-315785700D02*
X169890000Y-298785700D01*
X169890000Y-298785700D02*
X187890000Y-298785700D01*
X187890000Y-298785700D02*
X187890000Y-315785700D01*
%TO.C,SW33*%
X337440000Y-241592000D02*
X355440000Y-241592000D01*
X337440000Y-258592000D02*
X337440000Y-241592000D01*
X355440000Y-241592000D02*
X355440000Y-258592000D01*
X355440000Y-258592000D02*
X337440000Y-258592000D01*
%TO.C,SW45*%
X280290000Y-241600000D02*
X298290000Y-241600000D01*
X280290000Y-258600000D02*
X280290000Y-241600000D01*
X298290000Y-241600000D02*
X298290000Y-258600000D01*
X298290000Y-258600000D02*
X280290000Y-258600000D01*
%TO.C,SW9*%
X292260000Y-279712000D02*
X310260000Y-279712000D01*
X292260000Y-296712000D02*
X292260000Y-279712000D01*
X310260000Y-279712000D02*
X310260000Y-296712000D01*
X310260000Y-296712000D02*
X292260000Y-296712000D01*
%TO.C,SW38*%
X266060000Y-260642000D02*
X284060000Y-260642000D01*
X266060000Y-277642000D02*
X266060000Y-260642000D01*
X284060000Y-260642000D02*
X284060000Y-277642000D01*
X284060000Y-277642000D02*
X266060000Y-277642000D01*
%TO.C,SW15*%
X104070000Y-241592000D02*
X122070000Y-241592000D01*
X104070000Y-258592000D02*
X104070000Y-241592000D01*
X122070000Y-241592000D02*
X122070000Y-258592000D01*
X122070000Y-258592000D02*
X104070000Y-258592000D01*
%TO.C,SW19*%
X342870000Y-260642000D02*
X383370000Y-260642000D01*
X342870000Y-277642000D02*
X342870000Y-260642000D01*
X383370000Y-260642000D02*
X383370000Y-277642000D01*
X383370000Y-277642000D02*
X342870000Y-277642000D01*
%TO.C,SW30*%
X93590000Y-298722000D02*
X111590000Y-298722000D01*
X93590000Y-315722000D02*
X93590000Y-298722000D01*
X111590000Y-298722000D02*
X111590000Y-315722000D01*
X111590000Y-315722000D02*
X93590000Y-315722000D01*
%TO.C,SW62*%
X194570000Y-222542000D02*
X212570000Y-222542000D01*
X194570000Y-239542000D02*
X194570000Y-222542000D01*
X212570000Y-222542000D02*
X212570000Y-239542000D01*
X212570000Y-239542000D02*
X194570000Y-239542000D01*
%TO.C,SW57*%
X131730000Y-298772000D02*
X149730000Y-298772000D01*
X131730000Y-315772000D02*
X131730000Y-298772000D01*
X149730000Y-298772000D02*
X149730000Y-315772000D01*
X149730000Y-315772000D02*
X131730000Y-315772000D01*
%TO.C,SW63*%
X338660000Y-279702000D02*
X356660000Y-279702000D01*
X338660000Y-296702000D02*
X338660000Y-279702000D01*
X356660000Y-279702000D02*
X356660000Y-296702000D01*
X356660000Y-296702000D02*
X338660000Y-296702000D01*
%TO.C,SW54*%
X165990000Y-241600000D02*
X183990000Y-241600000D01*
X165990000Y-258600000D02*
X165990000Y-241600000D01*
X183990000Y-241600000D02*
X183990000Y-258600000D01*
X183990000Y-258600000D02*
X165990000Y-258600000D01*
%TO.C,SW65*%
X385070000Y-260642000D02*
X403070000Y-260642000D01*
X385070000Y-277642000D02*
X385070000Y-260642000D01*
X403070000Y-260642000D02*
X403070000Y-277642000D01*
X403070000Y-277642000D02*
X385070000Y-277642000D01*
%TO.C,SW2*%
X366020000Y-279692000D02*
X384020000Y-279692000D01*
X366020000Y-296692000D02*
X366020000Y-279692000D01*
X384020000Y-279692000D02*
X384020000Y-296692000D01*
X384020000Y-296692000D02*
X366020000Y-296692000D01*
%TO.C,SW41*%
X112650000Y-298742000D02*
X130650000Y-298742000D01*
X112650000Y-315742000D02*
X112650000Y-298742000D01*
X130650000Y-298742000D02*
X130650000Y-315742000D01*
X130650000Y-315742000D02*
X112650000Y-315742000D01*
%TO.C,SW1*%
X346970000Y-298742000D02*
X364970000Y-298742000D01*
X346970000Y-315742000D02*
X346970000Y-298742000D01*
X364970000Y-298742000D02*
X364970000Y-315742000D01*
X364970000Y-315742000D02*
X346970000Y-315742000D01*
%TO.C,SW4*%
X385070000Y-298742000D02*
X403070000Y-298742000D01*
X385070000Y-315742000D02*
X385070000Y-298742000D01*
X403070000Y-298742000D02*
X403070000Y-315742000D01*
X403070000Y-315742000D02*
X385070000Y-315742000D01*
%TO.C,SW48*%
X273190000Y-279702000D02*
X291190000Y-279702000D01*
X273190000Y-296702000D02*
X273190000Y-279702000D01*
X291190000Y-279702000D02*
X291190000Y-296702000D01*
X291190000Y-296702000D02*
X273190000Y-296702000D01*
%TO.C,SW51*%
X289810000Y-222475700D02*
X307810000Y-222475700D01*
X289810000Y-239475700D02*
X289810000Y-222475700D01*
X307810000Y-222475700D02*
X307810000Y-239475700D01*
X307810000Y-239475700D02*
X289810000Y-239475700D01*
%TO.C,SW5*%
X139820000Y-279712000D02*
X157820000Y-279712000D01*
X139820000Y-296712000D02*
X139820000Y-279712000D01*
X157820000Y-279712000D02*
X157820000Y-296712000D01*
X157820000Y-296712000D02*
X139820000Y-296712000D01*
%TO.C,SW26*%
X289820000Y-298792000D02*
X307820000Y-298792000D01*
X289820000Y-315792000D02*
X289820000Y-298792000D01*
X307820000Y-298792000D02*
X307820000Y-315792000D01*
X307820000Y-315792000D02*
X289820000Y-315792000D01*
%TO.C,SW34*%
X323170000Y-260642000D02*
X341170000Y-260642000D01*
X323170000Y-277642000D02*
X323170000Y-260642000D01*
X341170000Y-260642000D02*
X341170000Y-277642000D01*
X341170000Y-277642000D02*
X323170000Y-277642000D01*
%TO.C,SW69*%
X347060000Y-222522000D02*
X365060000Y-222522000D01*
X347060000Y-239522000D02*
X347060000Y-222522000D01*
X365060000Y-222522000D02*
X365060000Y-239522000D01*
X365060000Y-239522000D02*
X347060000Y-239522000D01*
%TO.C,SW17*%
X366030000Y-298772000D02*
X384030000Y-298772000D01*
X366030000Y-315772000D02*
X366030000Y-298772000D01*
X384030000Y-298772000D02*
X384030000Y-315772000D01*
X384030000Y-315772000D02*
X366030000Y-315772000D01*
%TO.C,SW7*%
X177960000Y-279702000D02*
X195960000Y-279702000D01*
X177960000Y-296702000D02*
X177960000Y-279702000D01*
X195960000Y-279702000D02*
X195960000Y-296702000D01*
X195960000Y-296702000D02*
X177960000Y-296702000D01*
%TO.C,SW13*%
X127890000Y-241600000D02*
X145890000Y-241600000D01*
X127890000Y-258600000D02*
X127890000Y-241600000D01*
X145890000Y-241600000D02*
X145890000Y-258600000D01*
X145890000Y-258600000D02*
X127890000Y-258600000D01*
%TO.C,SW35*%
X242190000Y-241600000D02*
X260190000Y-241600000D01*
X242190000Y-258600000D02*
X242190000Y-241600000D01*
X260190000Y-241600000D02*
X260190000Y-258600000D01*
X260190000Y-258600000D02*
X242190000Y-258600000D01*
%TO.C,SW71*%
X269910000Y-298762000D02*
X287910000Y-298762000D01*
X269910000Y-315762000D02*
X269910000Y-298762000D01*
X287910000Y-298762000D02*
X287910000Y-315762000D01*
X287910000Y-315762000D02*
X269910000Y-315762000D01*
%TO.C,SW40*%
X235100000Y-279682000D02*
X253100000Y-279682000D01*
X235100000Y-296682000D02*
X235100000Y-279682000D01*
X253100000Y-279682000D02*
X253100000Y-296682000D01*
X253100000Y-296682000D02*
X235100000Y-296682000D01*
%TO.C,SW22*%
X361530000Y-241612000D02*
X379530000Y-241612000D01*
X361530000Y-258612000D02*
X361530000Y-241612000D01*
X379530000Y-241612000D02*
X379530000Y-258612000D01*
X379530000Y-258612000D02*
X361530000Y-258612000D01*
%TO.C,SW58*%
X232720000Y-222522000D02*
X250720000Y-222522000D01*
X232720000Y-239522000D02*
X232720000Y-222522000D01*
X250720000Y-222522000D02*
X250720000Y-239522000D01*
X250720000Y-239522000D02*
X232720000Y-239522000D01*
%TO.C,SW36*%
X151790000Y-260622000D02*
X169790000Y-260622000D01*
X151790000Y-277622000D02*
X151790000Y-260622000D01*
X169790000Y-260622000D02*
X169790000Y-277622000D01*
X169790000Y-277622000D02*
X151790000Y-277622000D01*
%TO.C,SW25*%
X285110000Y-260642000D02*
X303110000Y-260642000D01*
X285110000Y-277642000D02*
X285110000Y-260642000D01*
X303110000Y-260642000D02*
X303110000Y-277642000D01*
X303110000Y-277642000D02*
X285110000Y-277642000D01*
%TO.C,SW28*%
X385060000Y-279672000D02*
X403060000Y-279672000D01*
X385060000Y-296672000D02*
X385060000Y-279672000D01*
X403060000Y-279672000D02*
X403060000Y-296672000D01*
X403060000Y-296672000D02*
X385060000Y-296672000D01*
%TO.C,SW31*%
X150840000Y-298775700D02*
X168840000Y-298775700D01*
X150840000Y-315775700D02*
X150840000Y-298775700D01*
X168840000Y-298775700D02*
X168840000Y-315775700D01*
X168840000Y-315775700D02*
X150840000Y-315775700D01*
%TO.C,SW43*%
X204090000Y-241600000D02*
X222090000Y-241600000D01*
X204090000Y-258600000D02*
X204090000Y-241600000D01*
X222090000Y-241600000D02*
X222090000Y-258600000D01*
X222090000Y-258600000D02*
X204090000Y-258600000D01*
%TO.C,SW6*%
X189870000Y-260662000D02*
X207870000Y-260662000D01*
X189870000Y-277662000D02*
X189870000Y-260662000D01*
X207870000Y-260662000D02*
X207870000Y-277662000D01*
X207870000Y-277662000D02*
X189870000Y-277662000D01*
%TO.C,SW23*%
X185040000Y-241600000D02*
X203040000Y-241600000D01*
X185040000Y-258600000D02*
X185040000Y-241600000D01*
X203040000Y-241600000D02*
X203040000Y-258600000D01*
X203040000Y-258600000D02*
X185040000Y-258600000D01*
%TO.C,SW3*%
X318370000Y-298752000D02*
X336370000Y-298752000D01*
X318370000Y-315752000D02*
X318370000Y-298752000D01*
X336370000Y-298752000D02*
X336370000Y-315752000D01*
X336370000Y-315752000D02*
X318370000Y-315752000D01*
%TO.C,SW18*%
X116020000Y-261732000D02*
X134020000Y-261732000D01*
X116020000Y-278732000D02*
X116020000Y-261732000D01*
X134020000Y-261732000D02*
X134020000Y-278732000D01*
X134020000Y-278732000D02*
X116020000Y-278732000D01*
%TO.C,SW61*%
X308790000Y-222472000D02*
X326790000Y-222472000D01*
X308790000Y-239472000D02*
X308790000Y-222472000D01*
X326790000Y-222472000D02*
X326790000Y-239472000D01*
X326790000Y-239472000D02*
X308790000Y-239472000D01*
%TO.C,SW21*%
X118370000Y-222542000D02*
X136370000Y-222542000D01*
X118370000Y-239542000D02*
X118370000Y-222542000D01*
X136370000Y-222542000D02*
X136370000Y-239542000D01*
X136370000Y-239542000D02*
X118370000Y-239542000D01*
%TO.C,SW68*%
X189000000Y-201592000D02*
X207000000Y-201592000D01*
X189000000Y-218592000D02*
X189000000Y-201592000D01*
X207000000Y-201592000D02*
X207000000Y-218592000D01*
X207000000Y-218592000D02*
X189000000Y-218592000D01*
%TO.C,SW39*%
X227980000Y-260682000D02*
X245980000Y-260682000D01*
X227980000Y-277682000D02*
X227980000Y-260682000D01*
X245980000Y-260682000D02*
X245980000Y-277682000D01*
X245980000Y-277682000D02*
X227980000Y-277682000D01*
%TO.C,SW50*%
X254180000Y-279702000D02*
X272180000Y-279702000D01*
X254180000Y-296702000D02*
X254180000Y-279702000D01*
X272180000Y-279702000D02*
X272180000Y-296702000D01*
X272180000Y-296702000D02*
X254180000Y-296702000D01*
%TO.C,SW67*%
X270840000Y-222522000D02*
X288840000Y-222522000D01*
X270840000Y-239522000D02*
X270840000Y-222522000D01*
X288840000Y-222522000D02*
X288840000Y-239522000D01*
X288840000Y-239522000D02*
X270840000Y-239522000D01*
%TO.C,SW27*%
X170800000Y-260642000D02*
X188800000Y-260642000D01*
X170800000Y-277642000D02*
X170800000Y-260642000D01*
X188800000Y-260642000D02*
X188800000Y-277642000D01*
X188800000Y-277642000D02*
X170800000Y-277642000D01*
%TO.C,SW44*%
X318390000Y-241592000D02*
X336390000Y-241592000D01*
X318390000Y-258592000D02*
X318390000Y-241592000D01*
X336390000Y-241592000D02*
X336390000Y-258592000D01*
X336390000Y-258592000D02*
X318390000Y-258592000D01*
%TO.C,SW16*%
X369480000Y-223605700D02*
X400980000Y-223605700D01*
X369480000Y-240605700D02*
X369480000Y-223605700D01*
X400980000Y-223605700D02*
X400980000Y-240605700D01*
X400980000Y-240605700D02*
X369480000Y-240605700D01*
%TO.C,SW52*%
X175520000Y-222542000D02*
X193520000Y-222542000D01*
X175520000Y-239542000D02*
X175520000Y-222542000D01*
X193520000Y-222542000D02*
X193520000Y-239542000D01*
X193520000Y-239542000D02*
X175520000Y-239542000D01*
%TO.C,SW24*%
X223140000Y-241600000D02*
X241140000Y-241600000D01*
X223140000Y-258600000D02*
X223140000Y-241600000D01*
X241140000Y-241600000D02*
X241140000Y-258600000D01*
X241140000Y-258600000D02*
X223140000Y-258600000D01*
%TO.C,SW14*%
X216080000Y-279682000D02*
X234080000Y-279682000D01*
X216080000Y-296682000D02*
X216080000Y-279682000D01*
X234080000Y-279682000D02*
X234080000Y-296682000D01*
X234080000Y-296682000D02*
X216080000Y-296682000D01*
%TO.C,SW12*%
X146940000Y-241600000D02*
X164940000Y-241600000D01*
X146940000Y-258600000D02*
X146940000Y-241600000D01*
X164940000Y-241600000D02*
X164940000Y-258600000D01*
X164940000Y-258600000D02*
X146940000Y-258600000D01*
%TO.C,SW32*%
X156470000Y-222542000D02*
X174470000Y-222542000D01*
X156470000Y-239542000D02*
X156470000Y-222542000D01*
X174470000Y-222542000D02*
X174470000Y-239542000D01*
X174470000Y-239542000D02*
X156470000Y-239542000D01*
%TO.C,SW10*%
X311340000Y-279692000D02*
X329340000Y-279692000D01*
X311340000Y-296692000D02*
X311340000Y-279692000D01*
X329340000Y-279692000D02*
X329340000Y-296692000D01*
X329340000Y-296692000D02*
X311340000Y-296692000D01*
%TO.C,SW37*%
X247010000Y-260632000D02*
X265010000Y-260632000D01*
X247010000Y-277632000D02*
X247010000Y-260632000D01*
X265010000Y-260632000D02*
X265010000Y-277632000D01*
X265010000Y-277632000D02*
X247010000Y-277632000D01*
%TO.C,SW8*%
X197020000Y-279702000D02*
X215020000Y-279702000D01*
X197020000Y-296702000D02*
X197020000Y-279702000D01*
X215020000Y-279702000D02*
X215020000Y-296702000D01*
X215020000Y-296702000D02*
X197020000Y-296702000D01*
%TO.C,SW42*%
X137420000Y-222542000D02*
X155420000Y-222542000D01*
X137420000Y-239542000D02*
X137420000Y-222542000D01*
X155420000Y-222542000D02*
X155420000Y-239542000D01*
X155420000Y-239542000D02*
X137420000Y-239542000D01*
%TO.C,SW49*%
X213610000Y-222532000D02*
X231610000Y-222532000D01*
X213610000Y-239532000D02*
X213610000Y-222532000D01*
X231610000Y-222532000D02*
X231610000Y-239532000D01*
X231610000Y-239532000D02*
X213610000Y-239532000D01*
%TO.C,SW53*%
X299340000Y-241592000D02*
X317340000Y-241592000D01*
X299340000Y-258592000D02*
X299340000Y-241592000D01*
X317340000Y-241592000D02*
X317340000Y-258592000D01*
X317340000Y-258592000D02*
X299340000Y-258592000D01*
%TO.C,SW55*%
X261240000Y-241600000D02*
X279240000Y-241600000D01*
X261240000Y-258600000D02*
X261240000Y-241600000D01*
X279240000Y-241600000D02*
X279240000Y-258600000D01*
X279240000Y-258600000D02*
X261240000Y-258600000D01*
%TO.C,SW11*%
X99320000Y-222542000D02*
X117320000Y-222542000D01*
X99320000Y-239542000D02*
X99320000Y-222542000D01*
X117320000Y-222542000D02*
X117320000Y-239542000D01*
X117320000Y-239542000D02*
X99320000Y-239542000D01*
%TO.C,SW47*%
X208900000Y-260652000D02*
X226900000Y-260652000D01*
X208900000Y-277652000D02*
X208900000Y-260652000D01*
X226900000Y-260652000D02*
X226900000Y-277652000D01*
X226900000Y-277652000D02*
X208900000Y-277652000D01*
%TO.C,SW29*%
X158900000Y-279702000D02*
X176900000Y-279702000D01*
X158900000Y-296702000D02*
X158900000Y-279702000D01*
X176900000Y-279702000D02*
X176900000Y-296702000D01*
X176900000Y-296702000D02*
X158900000Y-296702000D01*
%TO.C,SW20*%
X251780000Y-222542000D02*
X269780000Y-222542000D01*
X251780000Y-239542000D02*
X251780000Y-222542000D01*
X269780000Y-222542000D02*
X269780000Y-239542000D01*
X269780000Y-239542000D02*
X251780000Y-239542000D01*
%TO.C,SW59*%
X327940000Y-222512000D02*
X345940000Y-222512000D01*
X327940000Y-239512000D02*
X327940000Y-222512000D01*
X345940000Y-222512000D02*
X345940000Y-239512000D01*
X345940000Y-239512000D02*
X327940000Y-239512000D01*
%TO.C,SW46*%
X304150000Y-260642000D02*
X322150000Y-260642000D01*
X304150000Y-277642000D02*
X304150000Y-260642000D01*
X322150000Y-260642000D02*
X322150000Y-277642000D01*
X322150000Y-277642000D02*
X304150000Y-277642000D01*
%TO.C,SW64*%
X385070000Y-241592000D02*
X403070000Y-241592000D01*
X385070000Y-258592000D02*
X385070000Y-241592000D01*
X403070000Y-241592000D02*
X403070000Y-258592000D01*
X403070000Y-258592000D02*
X385070000Y-258592000D01*
D12*
%TO.C,A1*%
X434000000Y-248342000D02*
G75*
G02*
X431900000Y-248342000I-1050000J0D01*
G01*
X431900000Y-248342000D02*
G75*
G02*
X434000000Y-248342000I1050000J0D01*
G01*
X434000000Y-200072000D02*
G75*
G02*
X431900000Y-200072000I-1050000J0D01*
G01*
X431900000Y-200072000D02*
G75*
G02*
X434000000Y-200072000I1050000J0D01*
G01*
X422600000Y-248342000D02*
G75*
G02*
X420500000Y-248342000I-1050000J0D01*
G01*
X420500000Y-248342000D02*
G75*
G02*
X422600000Y-248342000I1050000J0D01*
G01*
X422600000Y-200072000D02*
G75*
G02*
X420500000Y-200072000I-1050000J0D01*
G01*
X420500000Y-200072000D02*
G75*
G02*
X422600000Y-200072000I1050000J0D01*
G01*
%TD*%
M02*
