%TF.GenerationSoftware,KiCad,Pcbnew,9.0.2*%
%TF.CreationDate,2025-06-27T22:30:48-07:00*%
%TF.ProjectId,Proj3,50726f6a-332e-46b6-9963-61645f706362,rev?*%
%TF.SameCoordinates,Original*%
%TF.FileFunction,Legend,Top*%
%TF.FilePolarity,Positive*%
%FSLAX46Y46*%
G04 Gerber Fmt 4.6, Leading zero omitted, Abs format (unit mm)*
G04 Created by KiCad (PCBNEW 9.0.2) date 2025-06-27 22:30:48*
%MOMM*%
%LPD*%
G01*
G04 APERTURE LIST*
%ADD10C,0.150000*%
%ADD11C,0.120000*%
G04 APERTURE END LIST*
D10*
X113204819Y-215076285D02*
X112204819Y-215076285D01*
X112204819Y-215076285D02*
X112204819Y-214838190D01*
X112204819Y-214838190D02*
X112252438Y-214695333D01*
X112252438Y-214695333D02*
X112347676Y-214600095D01*
X112347676Y-214600095D02*
X112442914Y-214552476D01*
X112442914Y-214552476D02*
X112633390Y-214504857D01*
X112633390Y-214504857D02*
X112776247Y-214504857D01*
X112776247Y-214504857D02*
X112966723Y-214552476D01*
X112966723Y-214552476D02*
X113061961Y-214600095D01*
X113061961Y-214600095D02*
X113157200Y-214695333D01*
X113157200Y-214695333D02*
X113204819Y-214838190D01*
X113204819Y-214838190D02*
X113204819Y-215076285D01*
X112204819Y-214171523D02*
X112204819Y-213552476D01*
X112204819Y-213552476D02*
X112585771Y-213885809D01*
X112585771Y-213885809D02*
X112585771Y-213742952D01*
X112585771Y-213742952D02*
X112633390Y-213647714D01*
X112633390Y-213647714D02*
X112681009Y-213600095D01*
X112681009Y-213600095D02*
X112776247Y-213552476D01*
X112776247Y-213552476D02*
X113014342Y-213552476D01*
X113014342Y-213552476D02*
X113109580Y-213600095D01*
X113109580Y-213600095D02*
X113157200Y-213647714D01*
X113157200Y-213647714D02*
X113204819Y-213742952D01*
X113204819Y-213742952D02*
X113204819Y-214028666D01*
X113204819Y-214028666D02*
X113157200Y-214123904D01*
X113157200Y-214123904D02*
X113109580Y-214171523D01*
X112204819Y-213219142D02*
X112204819Y-212552476D01*
X112204819Y-212552476D02*
X113204819Y-212981047D01*
X110487704Y-210090571D02*
X110487704Y-209633428D01*
X110487704Y-209862000D02*
X111287704Y-209862000D01*
X111287704Y-209862000D02*
X111173419Y-209785809D01*
X111173419Y-209785809D02*
X111097228Y-209709619D01*
X111097228Y-209709619D02*
X111059133Y-209633428D01*
X111504819Y-214123904D02*
X110504819Y-214123904D01*
X111504819Y-213552476D02*
X110933390Y-213981047D01*
X110504819Y-213552476D02*
X111076247Y-214123904D01*
X119939048Y-286285866D02*
X120700953Y-286285866D01*
X120320000Y-286666819D02*
X120320000Y-285904914D01*
X117409048Y-286285866D02*
X118170953Y-286285866D01*
X227229048Y-304589566D02*
X227990953Y-304589566D01*
X229759048Y-304589566D02*
X230520953Y-304589566D01*
X230140000Y-304970519D02*
X230140000Y-304208614D01*
X124134819Y-215226285D02*
X123134819Y-215226285D01*
X123134819Y-215226285D02*
X123134819Y-214988190D01*
X123134819Y-214988190D02*
X123182438Y-214845333D01*
X123182438Y-214845333D02*
X123277676Y-214750095D01*
X123277676Y-214750095D02*
X123372914Y-214702476D01*
X123372914Y-214702476D02*
X123563390Y-214654857D01*
X123563390Y-214654857D02*
X123706247Y-214654857D01*
X123706247Y-214654857D02*
X123896723Y-214702476D01*
X123896723Y-214702476D02*
X123991961Y-214750095D01*
X123991961Y-214750095D02*
X124087200Y-214845333D01*
X124087200Y-214845333D02*
X124134819Y-214988190D01*
X124134819Y-214988190D02*
X124134819Y-215226285D01*
X124134819Y-213702476D02*
X124134819Y-214273904D01*
X124134819Y-213988190D02*
X123134819Y-213988190D01*
X123134819Y-213988190D02*
X123277676Y-214083428D01*
X123277676Y-214083428D02*
X123372914Y-214178666D01*
X123372914Y-214178666D02*
X123420533Y-214273904D01*
X123230057Y-213321523D02*
X123182438Y-213273904D01*
X123182438Y-213273904D02*
X123134819Y-213178666D01*
X123134819Y-213178666D02*
X123134819Y-212940571D01*
X123134819Y-212940571D02*
X123182438Y-212845333D01*
X123182438Y-212845333D02*
X123230057Y-212797714D01*
X123230057Y-212797714D02*
X123325295Y-212750095D01*
X123325295Y-212750095D02*
X123420533Y-212750095D01*
X123420533Y-212750095D02*
X123563390Y-212797714D01*
X123563390Y-212797714D02*
X124134819Y-213369142D01*
X124134819Y-213369142D02*
X124134819Y-212750095D01*
X122434819Y-214273904D02*
X121434819Y-214273904D01*
X122434819Y-213702476D02*
X121863390Y-214131047D01*
X121434819Y-213702476D02*
X122006247Y-214273904D01*
X121417704Y-210240571D02*
X121417704Y-209783428D01*
X121417704Y-210012000D02*
X122217704Y-210012000D01*
X122217704Y-210012000D02*
X122103419Y-209935809D01*
X122103419Y-209935809D02*
X122027228Y-209859619D01*
X122027228Y-209859619D02*
X121989133Y-209783428D01*
X177249048Y-304359566D02*
X178010953Y-304359566D01*
X179779048Y-304359566D02*
X180540953Y-304359566D01*
X180160000Y-304740519D02*
X180160000Y-303978614D01*
X296640476Y-201169200D02*
X296783333Y-201216819D01*
X296783333Y-201216819D02*
X297021428Y-201216819D01*
X297021428Y-201216819D02*
X297116666Y-201169200D01*
X297116666Y-201169200D02*
X297164285Y-201121580D01*
X297164285Y-201121580D02*
X297211904Y-201026342D01*
X297211904Y-201026342D02*
X297211904Y-200931104D01*
X297211904Y-200931104D02*
X297164285Y-200835866D01*
X297164285Y-200835866D02*
X297116666Y-200788247D01*
X297116666Y-200788247D02*
X297021428Y-200740628D01*
X297021428Y-200740628D02*
X296830952Y-200693009D01*
X296830952Y-200693009D02*
X296735714Y-200645390D01*
X296735714Y-200645390D02*
X296688095Y-200597771D01*
X296688095Y-200597771D02*
X296640476Y-200502533D01*
X296640476Y-200502533D02*
X296640476Y-200407295D01*
X296640476Y-200407295D02*
X296688095Y-200312057D01*
X296688095Y-200312057D02*
X296735714Y-200264438D01*
X296735714Y-200264438D02*
X296830952Y-200216819D01*
X296830952Y-200216819D02*
X297069047Y-200216819D01*
X297069047Y-200216819D02*
X297211904Y-200264438D01*
X297545238Y-200216819D02*
X297783333Y-201216819D01*
X297783333Y-201216819D02*
X297973809Y-200502533D01*
X297973809Y-200502533D02*
X298164285Y-201216819D01*
X298164285Y-201216819D02*
X298402381Y-200216819D01*
X299211904Y-200216819D02*
X299021428Y-200216819D01*
X299021428Y-200216819D02*
X298926190Y-200264438D01*
X298926190Y-200264438D02*
X298878571Y-200312057D01*
X298878571Y-200312057D02*
X298783333Y-200454914D01*
X298783333Y-200454914D02*
X298735714Y-200645390D01*
X298735714Y-200645390D02*
X298735714Y-201026342D01*
X298735714Y-201026342D02*
X298783333Y-201121580D01*
X298783333Y-201121580D02*
X298830952Y-201169200D01*
X298830952Y-201169200D02*
X298926190Y-201216819D01*
X298926190Y-201216819D02*
X299116666Y-201216819D01*
X299116666Y-201216819D02*
X299211904Y-201169200D01*
X299211904Y-201169200D02*
X299259523Y-201121580D01*
X299259523Y-201121580D02*
X299307142Y-201026342D01*
X299307142Y-201026342D02*
X299307142Y-200788247D01*
X299307142Y-200788247D02*
X299259523Y-200693009D01*
X299259523Y-200693009D02*
X299211904Y-200645390D01*
X299211904Y-200645390D02*
X299116666Y-200597771D01*
X299116666Y-200597771D02*
X298926190Y-200597771D01*
X298926190Y-200597771D02*
X298830952Y-200645390D01*
X298830952Y-200645390D02*
X298783333Y-200693009D01*
X298783333Y-200693009D02*
X298735714Y-200788247D01*
X300164285Y-200216819D02*
X299973809Y-200216819D01*
X299973809Y-200216819D02*
X299878571Y-200264438D01*
X299878571Y-200264438D02*
X299830952Y-200312057D01*
X299830952Y-200312057D02*
X299735714Y-200454914D01*
X299735714Y-200454914D02*
X299688095Y-200645390D01*
X299688095Y-200645390D02*
X299688095Y-201026342D01*
X299688095Y-201026342D02*
X299735714Y-201121580D01*
X299735714Y-201121580D02*
X299783333Y-201169200D01*
X299783333Y-201169200D02*
X299878571Y-201216819D01*
X299878571Y-201216819D02*
X300069047Y-201216819D01*
X300069047Y-201216819D02*
X300164285Y-201169200D01*
X300164285Y-201169200D02*
X300211904Y-201121580D01*
X300211904Y-201121580D02*
X300259523Y-201026342D01*
X300259523Y-201026342D02*
X300259523Y-200788247D01*
X300259523Y-200788247D02*
X300211904Y-200693009D01*
X300211904Y-200693009D02*
X300164285Y-200645390D01*
X300164285Y-200645390D02*
X300069047Y-200597771D01*
X300069047Y-200597771D02*
X299878571Y-200597771D01*
X299878571Y-200597771D02*
X299783333Y-200645390D01*
X299783333Y-200645390D02*
X299735714Y-200693009D01*
X299735714Y-200693009D02*
X299688095Y-200788247D01*
X301509048Y-205035866D02*
X302270953Y-205035866D01*
X304039048Y-205035866D02*
X304800953Y-205035866D01*
X304420000Y-205416819D02*
X304420000Y-204654914D01*
X407004819Y-204960094D02*
X406004819Y-204960094D01*
X406004819Y-204960094D02*
X406004819Y-204721999D01*
X406004819Y-204721999D02*
X406052438Y-204579142D01*
X406052438Y-204579142D02*
X406147676Y-204483904D01*
X406147676Y-204483904D02*
X406242914Y-204436285D01*
X406242914Y-204436285D02*
X406433390Y-204388666D01*
X406433390Y-204388666D02*
X406576247Y-204388666D01*
X406576247Y-204388666D02*
X406766723Y-204436285D01*
X406766723Y-204436285D02*
X406861961Y-204483904D01*
X406861961Y-204483904D02*
X406957200Y-204579142D01*
X406957200Y-204579142D02*
X407004819Y-204721999D01*
X407004819Y-204721999D02*
X407004819Y-204960094D01*
X406100057Y-204007713D02*
X406052438Y-203960094D01*
X406052438Y-203960094D02*
X406004819Y-203864856D01*
X406004819Y-203864856D02*
X406004819Y-203626761D01*
X406004819Y-203626761D02*
X406052438Y-203531523D01*
X406052438Y-203531523D02*
X406100057Y-203483904D01*
X406100057Y-203483904D02*
X406195295Y-203436285D01*
X406195295Y-203436285D02*
X406290533Y-203436285D01*
X406290533Y-203436285D02*
X406433390Y-203483904D01*
X406433390Y-203483904D02*
X407004819Y-204055332D01*
X407004819Y-204055332D02*
X407004819Y-203436285D01*
X405304819Y-204483904D02*
X404304819Y-204483904D01*
X405304819Y-203912476D02*
X404733390Y-204341047D01*
X404304819Y-203912476D02*
X404876247Y-204483904D01*
X404287704Y-200450571D02*
X404287704Y-199993428D01*
X404287704Y-200222000D02*
X405087704Y-200222000D01*
X405087704Y-200222000D02*
X404973419Y-200145809D01*
X404973419Y-200145809D02*
X404897228Y-200069619D01*
X404897228Y-200069619D02*
X404859133Y-199993428D01*
X399854819Y-213026285D02*
X398854819Y-213026285D01*
X398854819Y-213026285D02*
X398854819Y-212788190D01*
X398854819Y-212788190D02*
X398902438Y-212645333D01*
X398902438Y-212645333D02*
X398997676Y-212550095D01*
X398997676Y-212550095D02*
X399092914Y-212502476D01*
X399092914Y-212502476D02*
X399283390Y-212454857D01*
X399283390Y-212454857D02*
X399426247Y-212454857D01*
X399426247Y-212454857D02*
X399616723Y-212502476D01*
X399616723Y-212502476D02*
X399711961Y-212550095D01*
X399711961Y-212550095D02*
X399807200Y-212645333D01*
X399807200Y-212645333D02*
X399854819Y-212788190D01*
X399854819Y-212788190D02*
X399854819Y-213026285D01*
X398854819Y-212121523D02*
X398854819Y-211502476D01*
X398854819Y-211502476D02*
X399235771Y-211835809D01*
X399235771Y-211835809D02*
X399235771Y-211692952D01*
X399235771Y-211692952D02*
X399283390Y-211597714D01*
X399283390Y-211597714D02*
X399331009Y-211550095D01*
X399331009Y-211550095D02*
X399426247Y-211502476D01*
X399426247Y-211502476D02*
X399664342Y-211502476D01*
X399664342Y-211502476D02*
X399759580Y-211550095D01*
X399759580Y-211550095D02*
X399807200Y-211597714D01*
X399807200Y-211597714D02*
X399854819Y-211692952D01*
X399854819Y-211692952D02*
X399854819Y-211978666D01*
X399854819Y-211978666D02*
X399807200Y-212073904D01*
X399807200Y-212073904D02*
X399759580Y-212121523D01*
X399283390Y-210931047D02*
X399235771Y-211026285D01*
X399235771Y-211026285D02*
X399188152Y-211073904D01*
X399188152Y-211073904D02*
X399092914Y-211121523D01*
X399092914Y-211121523D02*
X399045295Y-211121523D01*
X399045295Y-211121523D02*
X398950057Y-211073904D01*
X398950057Y-211073904D02*
X398902438Y-211026285D01*
X398902438Y-211026285D02*
X398854819Y-210931047D01*
X398854819Y-210931047D02*
X398854819Y-210740571D01*
X398854819Y-210740571D02*
X398902438Y-210645333D01*
X398902438Y-210645333D02*
X398950057Y-210597714D01*
X398950057Y-210597714D02*
X399045295Y-210550095D01*
X399045295Y-210550095D02*
X399092914Y-210550095D01*
X399092914Y-210550095D02*
X399188152Y-210597714D01*
X399188152Y-210597714D02*
X399235771Y-210645333D01*
X399235771Y-210645333D02*
X399283390Y-210740571D01*
X399283390Y-210740571D02*
X399283390Y-210931047D01*
X399283390Y-210931047D02*
X399331009Y-211026285D01*
X399331009Y-211026285D02*
X399378628Y-211073904D01*
X399378628Y-211073904D02*
X399473866Y-211121523D01*
X399473866Y-211121523D02*
X399664342Y-211121523D01*
X399664342Y-211121523D02*
X399759580Y-211073904D01*
X399759580Y-211073904D02*
X399807200Y-211026285D01*
X399807200Y-211026285D02*
X399854819Y-210931047D01*
X399854819Y-210931047D02*
X399854819Y-210740571D01*
X399854819Y-210740571D02*
X399807200Y-210645333D01*
X399807200Y-210645333D02*
X399759580Y-210597714D01*
X399759580Y-210597714D02*
X399664342Y-210550095D01*
X399664342Y-210550095D02*
X399473866Y-210550095D01*
X399473866Y-210550095D02*
X399378628Y-210597714D01*
X399378628Y-210597714D02*
X399331009Y-210645333D01*
X399331009Y-210645333D02*
X399283390Y-210740571D01*
X401554819Y-212073904D02*
X400554819Y-212073904D01*
X401554819Y-211502476D02*
X400983390Y-211931047D01*
X400554819Y-211502476D02*
X401126247Y-212073904D01*
X401662295Y-215583428D02*
X401662295Y-216040571D01*
X401662295Y-215811999D02*
X400862295Y-215811999D01*
X400862295Y-215811999D02*
X400976580Y-215888190D01*
X400976580Y-215888190D02*
X401052771Y-215964380D01*
X401052771Y-215964380D02*
X401090866Y-216040571D01*
X344799048Y-247165866D02*
X345560953Y-247165866D01*
X347329048Y-247165866D02*
X348090953Y-247165866D01*
X347710000Y-247546819D02*
X347710000Y-246784914D01*
X290179048Y-247173866D02*
X290940953Y-247173866D01*
X290560000Y-247554819D02*
X290560000Y-246792914D01*
X287649048Y-247173866D02*
X288410953Y-247173866D01*
X299619048Y-285285866D02*
X300380953Y-285285866D01*
X302149048Y-285285866D02*
X302910953Y-285285866D01*
X302530000Y-285666819D02*
X302530000Y-284904914D01*
X273419048Y-266215866D02*
X274180953Y-266215866D01*
X275949048Y-266215866D02*
X276710953Y-266215866D01*
X276330000Y-266596819D02*
X276330000Y-265834914D01*
X111429048Y-247165866D02*
X112190953Y-247165866D01*
X113959048Y-247165866D02*
X114720953Y-247165866D01*
X114340000Y-247546819D02*
X114340000Y-246784914D01*
X361479048Y-266215866D02*
X362240953Y-266215866D01*
X364009048Y-266215866D02*
X364770953Y-266215866D01*
X364390000Y-266596819D02*
X364390000Y-265834914D01*
X103479048Y-304295866D02*
X104240953Y-304295866D01*
X103860000Y-304676819D02*
X103860000Y-303914914D01*
X100949048Y-304295866D02*
X101710953Y-304295866D01*
X91434819Y-207766285D02*
X90434819Y-207766285D01*
X90434819Y-207766285D02*
X90434819Y-207528190D01*
X90434819Y-207528190D02*
X90482438Y-207385333D01*
X90482438Y-207385333D02*
X90577676Y-207290095D01*
X90577676Y-207290095D02*
X90672914Y-207242476D01*
X90672914Y-207242476D02*
X90863390Y-207194857D01*
X90863390Y-207194857D02*
X91006247Y-207194857D01*
X91006247Y-207194857D02*
X91196723Y-207242476D01*
X91196723Y-207242476D02*
X91291961Y-207290095D01*
X91291961Y-207290095D02*
X91387200Y-207385333D01*
X91387200Y-207385333D02*
X91434819Y-207528190D01*
X91434819Y-207528190D02*
X91434819Y-207766285D01*
X91434819Y-206242476D02*
X91434819Y-206813904D01*
X91434819Y-206528190D02*
X90434819Y-206528190D01*
X90434819Y-206528190D02*
X90577676Y-206623428D01*
X90577676Y-206623428D02*
X90672914Y-206718666D01*
X90672914Y-206718666D02*
X90720533Y-206813904D01*
X90434819Y-205623428D02*
X90434819Y-205528190D01*
X90434819Y-205528190D02*
X90482438Y-205432952D01*
X90482438Y-205432952D02*
X90530057Y-205385333D01*
X90530057Y-205385333D02*
X90625295Y-205337714D01*
X90625295Y-205337714D02*
X90815771Y-205290095D01*
X90815771Y-205290095D02*
X91053866Y-205290095D01*
X91053866Y-205290095D02*
X91244342Y-205337714D01*
X91244342Y-205337714D02*
X91339580Y-205385333D01*
X91339580Y-205385333D02*
X91387200Y-205432952D01*
X91387200Y-205432952D02*
X91434819Y-205528190D01*
X91434819Y-205528190D02*
X91434819Y-205623428D01*
X91434819Y-205623428D02*
X91387200Y-205718666D01*
X91387200Y-205718666D02*
X91339580Y-205766285D01*
X91339580Y-205766285D02*
X91244342Y-205813904D01*
X91244342Y-205813904D02*
X91053866Y-205861523D01*
X91053866Y-205861523D02*
X90815771Y-205861523D01*
X90815771Y-205861523D02*
X90625295Y-205813904D01*
X90625295Y-205813904D02*
X90530057Y-205766285D01*
X90530057Y-205766285D02*
X90482438Y-205718666D01*
X90482438Y-205718666D02*
X90434819Y-205623428D01*
X93134819Y-206813904D02*
X92134819Y-206813904D01*
X93134819Y-206242476D02*
X92563390Y-206671047D01*
X92134819Y-206242476D02*
X92706247Y-206813904D01*
X93242295Y-210323428D02*
X93242295Y-210780571D01*
X93242295Y-210551999D02*
X92442295Y-210551999D01*
X92442295Y-210551999D02*
X92556580Y-210628190D01*
X92556580Y-210628190D02*
X92632771Y-210704380D01*
X92632771Y-210704380D02*
X92670866Y-210780571D01*
X367753414Y-208406819D02*
X367753414Y-207406819D01*
X367753414Y-207406819D02*
X367991509Y-207406819D01*
X367991509Y-207406819D02*
X368134366Y-207454438D01*
X368134366Y-207454438D02*
X368229604Y-207549676D01*
X368229604Y-207549676D02*
X368277223Y-207644914D01*
X368277223Y-207644914D02*
X368324842Y-207835390D01*
X368324842Y-207835390D02*
X368324842Y-207978247D01*
X368324842Y-207978247D02*
X368277223Y-208168723D01*
X368277223Y-208168723D02*
X368229604Y-208263961D01*
X368229604Y-208263961D02*
X368134366Y-208359200D01*
X368134366Y-208359200D02*
X367991509Y-208406819D01*
X367991509Y-208406819D02*
X367753414Y-208406819D01*
X368801033Y-208406819D02*
X368991509Y-208406819D01*
X368991509Y-208406819D02*
X369086747Y-208359200D01*
X369086747Y-208359200D02*
X369134366Y-208311580D01*
X369134366Y-208311580D02*
X369229604Y-208168723D01*
X369229604Y-208168723D02*
X369277223Y-207978247D01*
X369277223Y-207978247D02*
X369277223Y-207597295D01*
X369277223Y-207597295D02*
X369229604Y-207502057D01*
X369229604Y-207502057D02*
X369181985Y-207454438D01*
X369181985Y-207454438D02*
X369086747Y-207406819D01*
X369086747Y-207406819D02*
X368896271Y-207406819D01*
X368896271Y-207406819D02*
X368801033Y-207454438D01*
X368801033Y-207454438D02*
X368753414Y-207502057D01*
X368753414Y-207502057D02*
X368705795Y-207597295D01*
X368705795Y-207597295D02*
X368705795Y-207835390D01*
X368705795Y-207835390D02*
X368753414Y-207930628D01*
X368753414Y-207930628D02*
X368801033Y-207978247D01*
X368801033Y-207978247D02*
X368896271Y-208025866D01*
X368896271Y-208025866D02*
X369086747Y-208025866D01*
X369086747Y-208025866D02*
X369181985Y-207978247D01*
X369181985Y-207978247D02*
X369229604Y-207930628D01*
X369229604Y-207930628D02*
X369277223Y-207835390D01*
X369610557Y-207406819D02*
X370229604Y-207406819D01*
X370229604Y-207406819D02*
X369896271Y-207787771D01*
X369896271Y-207787771D02*
X370039128Y-207787771D01*
X370039128Y-207787771D02*
X370134366Y-207835390D01*
X370134366Y-207835390D02*
X370181985Y-207883009D01*
X370181985Y-207883009D02*
X370229604Y-207978247D01*
X370229604Y-207978247D02*
X370229604Y-208216342D01*
X370229604Y-208216342D02*
X370181985Y-208311580D01*
X370181985Y-208311580D02*
X370134366Y-208359200D01*
X370134366Y-208359200D02*
X370039128Y-208406819D01*
X370039128Y-208406819D02*
X369753414Y-208406819D01*
X369753414Y-208406819D02*
X369658176Y-208359200D01*
X369658176Y-208359200D02*
X369610557Y-208311580D01*
X372739128Y-205689704D02*
X373196271Y-205689704D01*
X372967699Y-205689704D02*
X372967699Y-206489704D01*
X372967699Y-206489704D02*
X373043890Y-206375419D01*
X373043890Y-206375419D02*
X373120080Y-206299228D01*
X373120080Y-206299228D02*
X373196271Y-206261133D01*
X204459048Y-228115866D02*
X205220953Y-228115866D01*
X204840000Y-228496819D02*
X204840000Y-227734914D01*
X201929048Y-228115866D02*
X202690953Y-228115866D01*
X360123414Y-201496819D02*
X360123414Y-200496819D01*
X360123414Y-200496819D02*
X360361509Y-200496819D01*
X360361509Y-200496819D02*
X360504366Y-200544438D01*
X360504366Y-200544438D02*
X360599604Y-200639676D01*
X360599604Y-200639676D02*
X360647223Y-200734914D01*
X360647223Y-200734914D02*
X360694842Y-200925390D01*
X360694842Y-200925390D02*
X360694842Y-201068247D01*
X360694842Y-201068247D02*
X360647223Y-201258723D01*
X360647223Y-201258723D02*
X360599604Y-201353961D01*
X360599604Y-201353961D02*
X360504366Y-201449200D01*
X360504366Y-201449200D02*
X360361509Y-201496819D01*
X360361509Y-201496819D02*
X360123414Y-201496819D01*
X361028176Y-200496819D02*
X361694842Y-200496819D01*
X361694842Y-200496819D02*
X361266271Y-201496819D01*
X361980557Y-200496819D02*
X362647223Y-200496819D01*
X362647223Y-200496819D02*
X362218652Y-201496819D01*
X357566271Y-203304295D02*
X357109128Y-203304295D01*
X357337700Y-203304295D02*
X357337700Y-202504295D01*
X357337700Y-202504295D02*
X357261509Y-202618580D01*
X357261509Y-202618580D02*
X357185319Y-202694771D01*
X357185319Y-202694771D02*
X357109128Y-202732866D01*
X139089048Y-304345866D02*
X139850953Y-304345866D01*
X141619048Y-304345866D02*
X142380953Y-304345866D01*
X142000000Y-304726819D02*
X142000000Y-303964914D01*
X398264819Y-205622475D02*
X397264819Y-205622475D01*
X397264819Y-205622475D02*
X397264819Y-205384380D01*
X397264819Y-205384380D02*
X397312438Y-205241523D01*
X397312438Y-205241523D02*
X397407676Y-205146285D01*
X397407676Y-205146285D02*
X397502914Y-205098666D01*
X397502914Y-205098666D02*
X397693390Y-205051047D01*
X397693390Y-205051047D02*
X397836247Y-205051047D01*
X397836247Y-205051047D02*
X398026723Y-205098666D01*
X398026723Y-205098666D02*
X398121961Y-205146285D01*
X398121961Y-205146285D02*
X398217200Y-205241523D01*
X398217200Y-205241523D02*
X398264819Y-205384380D01*
X398264819Y-205384380D02*
X398264819Y-205622475D01*
X398264819Y-204098666D02*
X398264819Y-204670094D01*
X398264819Y-204384380D02*
X397264819Y-204384380D01*
X397264819Y-204384380D02*
X397407676Y-204479618D01*
X397407676Y-204479618D02*
X397502914Y-204574856D01*
X397502914Y-204574856D02*
X397550533Y-204670094D01*
X398264819Y-203146285D02*
X398264819Y-203717713D01*
X398264819Y-203431999D02*
X397264819Y-203431999D01*
X397264819Y-203431999D02*
X397407676Y-203527237D01*
X397407676Y-203527237D02*
X397502914Y-203622475D01*
X397502914Y-203622475D02*
X397550533Y-203717713D01*
X397264819Y-202812951D02*
X397264819Y-202146285D01*
X397264819Y-202146285D02*
X398264819Y-202574856D01*
X395547704Y-200160571D02*
X395547704Y-199703428D01*
X395547704Y-199932000D02*
X396347704Y-199932000D01*
X396347704Y-199932000D02*
X396233419Y-199855809D01*
X396233419Y-199855809D02*
X396157228Y-199779619D01*
X396157228Y-199779619D02*
X396119133Y-199703428D01*
X346019048Y-285275866D02*
X346780953Y-285275866D01*
X348549048Y-285275866D02*
X349310953Y-285275866D01*
X348930000Y-285656819D02*
X348930000Y-284894914D01*
X281404819Y-205896285D02*
X280404819Y-205896285D01*
X280404819Y-205896285D02*
X280404819Y-205658190D01*
X280404819Y-205658190D02*
X280452438Y-205515333D01*
X280452438Y-205515333D02*
X280547676Y-205420095D01*
X280547676Y-205420095D02*
X280642914Y-205372476D01*
X280642914Y-205372476D02*
X280833390Y-205324857D01*
X280833390Y-205324857D02*
X280976247Y-205324857D01*
X280976247Y-205324857D02*
X281166723Y-205372476D01*
X281166723Y-205372476D02*
X281261961Y-205420095D01*
X281261961Y-205420095D02*
X281357200Y-205515333D01*
X281357200Y-205515333D02*
X281404819Y-205658190D01*
X281404819Y-205658190D02*
X281404819Y-205896285D01*
X281404819Y-204372476D02*
X281404819Y-204943904D01*
X281404819Y-204658190D02*
X280404819Y-204658190D01*
X280404819Y-204658190D02*
X280547676Y-204753428D01*
X280547676Y-204753428D02*
X280642914Y-204848666D01*
X280642914Y-204848666D02*
X280690533Y-204943904D01*
X280404819Y-204039142D02*
X280404819Y-203420095D01*
X280404819Y-203420095D02*
X280785771Y-203753428D01*
X280785771Y-203753428D02*
X280785771Y-203610571D01*
X280785771Y-203610571D02*
X280833390Y-203515333D01*
X280833390Y-203515333D02*
X280881009Y-203467714D01*
X280881009Y-203467714D02*
X280976247Y-203420095D01*
X280976247Y-203420095D02*
X281214342Y-203420095D01*
X281214342Y-203420095D02*
X281309580Y-203467714D01*
X281309580Y-203467714D02*
X281357200Y-203515333D01*
X281357200Y-203515333D02*
X281404819Y-203610571D01*
X281404819Y-203610571D02*
X281404819Y-203896285D01*
X281404819Y-203896285D02*
X281357200Y-203991523D01*
X281357200Y-203991523D02*
X281309580Y-204039142D01*
X279704819Y-204943904D02*
X278704819Y-204943904D01*
X279704819Y-204372476D02*
X279133390Y-204801047D01*
X278704819Y-204372476D02*
X279276247Y-204943904D01*
X278687704Y-200910571D02*
X278687704Y-200453428D01*
X278687704Y-200682000D02*
X279487704Y-200682000D01*
X279487704Y-200682000D02*
X279373419Y-200605809D01*
X279373419Y-200605809D02*
X279297228Y-200529619D01*
X279297228Y-200529619D02*
X279259133Y-200453428D01*
X173349048Y-247173866D02*
X174110953Y-247173866D01*
X175879048Y-247173866D02*
X176640953Y-247173866D01*
X176260000Y-247554819D02*
X176260000Y-246792914D01*
X394959048Y-266215866D02*
X395720953Y-266215866D01*
X395340000Y-266596819D02*
X395340000Y-265834914D01*
X392429048Y-266215866D02*
X393190953Y-266215866D01*
X121744819Y-207216285D02*
X120744819Y-207216285D01*
X120744819Y-207216285D02*
X120744819Y-206978190D01*
X120744819Y-206978190D02*
X120792438Y-206835333D01*
X120792438Y-206835333D02*
X120887676Y-206740095D01*
X120887676Y-206740095D02*
X120982914Y-206692476D01*
X120982914Y-206692476D02*
X121173390Y-206644857D01*
X121173390Y-206644857D02*
X121316247Y-206644857D01*
X121316247Y-206644857D02*
X121506723Y-206692476D01*
X121506723Y-206692476D02*
X121601961Y-206740095D01*
X121601961Y-206740095D02*
X121697200Y-206835333D01*
X121697200Y-206835333D02*
X121744819Y-206978190D01*
X121744819Y-206978190D02*
X121744819Y-207216285D01*
X120840057Y-206263904D02*
X120792438Y-206216285D01*
X120792438Y-206216285D02*
X120744819Y-206121047D01*
X120744819Y-206121047D02*
X120744819Y-205882952D01*
X120744819Y-205882952D02*
X120792438Y-205787714D01*
X120792438Y-205787714D02*
X120840057Y-205740095D01*
X120840057Y-205740095D02*
X120935295Y-205692476D01*
X120935295Y-205692476D02*
X121030533Y-205692476D01*
X121030533Y-205692476D02*
X121173390Y-205740095D01*
X121173390Y-205740095D02*
X121744819Y-206311523D01*
X121744819Y-206311523D02*
X121744819Y-205692476D01*
X121744819Y-204740095D02*
X121744819Y-205311523D01*
X121744819Y-205025809D02*
X120744819Y-205025809D01*
X120744819Y-205025809D02*
X120887676Y-205121047D01*
X120887676Y-205121047D02*
X120982914Y-205216285D01*
X120982914Y-205216285D02*
X121030533Y-205311523D01*
X123444819Y-206263904D02*
X122444819Y-206263904D01*
X123444819Y-205692476D02*
X122873390Y-206121047D01*
X122444819Y-205692476D02*
X123016247Y-206263904D01*
X123552295Y-209773428D02*
X123552295Y-210230571D01*
X123552295Y-210001999D02*
X122752295Y-210001999D01*
X122752295Y-210001999D02*
X122866580Y-210078190D01*
X122866580Y-210078190D02*
X122942771Y-210154380D01*
X122942771Y-210154380D02*
X122980866Y-210230571D01*
X375909048Y-285265866D02*
X376670953Y-285265866D01*
X376290000Y-285646819D02*
X376290000Y-284884914D01*
X373379048Y-285265866D02*
X374140953Y-285265866D01*
X149694819Y-206886285D02*
X148694819Y-206886285D01*
X148694819Y-206886285D02*
X148694819Y-206648190D01*
X148694819Y-206648190D02*
X148742438Y-206505333D01*
X148742438Y-206505333D02*
X148837676Y-206410095D01*
X148837676Y-206410095D02*
X148932914Y-206362476D01*
X148932914Y-206362476D02*
X149123390Y-206314857D01*
X149123390Y-206314857D02*
X149266247Y-206314857D01*
X149266247Y-206314857D02*
X149456723Y-206362476D01*
X149456723Y-206362476D02*
X149551961Y-206410095D01*
X149551961Y-206410095D02*
X149647200Y-206505333D01*
X149647200Y-206505333D02*
X149694819Y-206648190D01*
X149694819Y-206648190D02*
X149694819Y-206886285D01*
X148694819Y-205457714D02*
X148694819Y-205648190D01*
X148694819Y-205648190D02*
X148742438Y-205743428D01*
X148742438Y-205743428D02*
X148790057Y-205791047D01*
X148790057Y-205791047D02*
X148932914Y-205886285D01*
X148932914Y-205886285D02*
X149123390Y-205933904D01*
X149123390Y-205933904D02*
X149504342Y-205933904D01*
X149504342Y-205933904D02*
X149599580Y-205886285D01*
X149599580Y-205886285D02*
X149647200Y-205838666D01*
X149647200Y-205838666D02*
X149694819Y-205743428D01*
X149694819Y-205743428D02*
X149694819Y-205552952D01*
X149694819Y-205552952D02*
X149647200Y-205457714D01*
X149647200Y-205457714D02*
X149599580Y-205410095D01*
X149599580Y-205410095D02*
X149504342Y-205362476D01*
X149504342Y-205362476D02*
X149266247Y-205362476D01*
X149266247Y-205362476D02*
X149171009Y-205410095D01*
X149171009Y-205410095D02*
X149123390Y-205457714D01*
X149123390Y-205457714D02*
X149075771Y-205552952D01*
X149075771Y-205552952D02*
X149075771Y-205743428D01*
X149075771Y-205743428D02*
X149123390Y-205838666D01*
X149123390Y-205838666D02*
X149171009Y-205886285D01*
X149171009Y-205886285D02*
X149266247Y-205933904D01*
X148694819Y-204743428D02*
X148694819Y-204648190D01*
X148694819Y-204648190D02*
X148742438Y-204552952D01*
X148742438Y-204552952D02*
X148790057Y-204505333D01*
X148790057Y-204505333D02*
X148885295Y-204457714D01*
X148885295Y-204457714D02*
X149075771Y-204410095D01*
X149075771Y-204410095D02*
X149313866Y-204410095D01*
X149313866Y-204410095D02*
X149504342Y-204457714D01*
X149504342Y-204457714D02*
X149599580Y-204505333D01*
X149599580Y-204505333D02*
X149647200Y-204552952D01*
X149647200Y-204552952D02*
X149694819Y-204648190D01*
X149694819Y-204648190D02*
X149694819Y-204743428D01*
X149694819Y-204743428D02*
X149647200Y-204838666D01*
X149647200Y-204838666D02*
X149599580Y-204886285D01*
X149599580Y-204886285D02*
X149504342Y-204933904D01*
X149504342Y-204933904D02*
X149313866Y-204981523D01*
X149313866Y-204981523D02*
X149075771Y-204981523D01*
X149075771Y-204981523D02*
X148885295Y-204933904D01*
X148885295Y-204933904D02*
X148790057Y-204886285D01*
X148790057Y-204886285D02*
X148742438Y-204838666D01*
X148742438Y-204838666D02*
X148694819Y-204743428D01*
X146977704Y-201900571D02*
X146977704Y-201443428D01*
X146977704Y-201672000D02*
X147777704Y-201672000D01*
X147777704Y-201672000D02*
X147663419Y-201595809D01*
X147663419Y-201595809D02*
X147587228Y-201519619D01*
X147587228Y-201519619D02*
X147549133Y-201443428D01*
X147994819Y-205933904D02*
X146994819Y-205933904D01*
X147994819Y-205362476D02*
X147423390Y-205791047D01*
X146994819Y-205362476D02*
X147566247Y-205933904D01*
X122539048Y-304315866D02*
X123300953Y-304315866D01*
X122920000Y-304696819D02*
X122920000Y-303934914D01*
X120009048Y-304315866D02*
X120770953Y-304315866D01*
X354329048Y-304315866D02*
X355090953Y-304315866D01*
X356859048Y-304315866D02*
X357620953Y-304315866D01*
X357240000Y-304696819D02*
X357240000Y-303934914D01*
X383993414Y-215026819D02*
X383993414Y-214026819D01*
X383993414Y-214026819D02*
X384231509Y-214026819D01*
X384231509Y-214026819D02*
X384374366Y-214074438D01*
X384374366Y-214074438D02*
X384469604Y-214169676D01*
X384469604Y-214169676D02*
X384517223Y-214264914D01*
X384517223Y-214264914D02*
X384564842Y-214455390D01*
X384564842Y-214455390D02*
X384564842Y-214598247D01*
X384564842Y-214598247D02*
X384517223Y-214788723D01*
X384517223Y-214788723D02*
X384469604Y-214883961D01*
X384469604Y-214883961D02*
X384374366Y-214979200D01*
X384374366Y-214979200D02*
X384231509Y-215026819D01*
X384231509Y-215026819D02*
X383993414Y-215026819D01*
X384898176Y-214026819D02*
X385517223Y-214026819D01*
X385517223Y-214026819D02*
X385183890Y-214407771D01*
X385183890Y-214407771D02*
X385326747Y-214407771D01*
X385326747Y-214407771D02*
X385421985Y-214455390D01*
X385421985Y-214455390D02*
X385469604Y-214503009D01*
X385469604Y-214503009D02*
X385517223Y-214598247D01*
X385517223Y-214598247D02*
X385517223Y-214836342D01*
X385517223Y-214836342D02*
X385469604Y-214931580D01*
X385469604Y-214931580D02*
X385421985Y-214979200D01*
X385421985Y-214979200D02*
X385326747Y-215026819D01*
X385326747Y-215026819D02*
X385041033Y-215026819D01*
X385041033Y-215026819D02*
X384945795Y-214979200D01*
X384945795Y-214979200D02*
X384898176Y-214931580D01*
X386136271Y-214026819D02*
X386231509Y-214026819D01*
X386231509Y-214026819D02*
X386326747Y-214074438D01*
X386326747Y-214074438D02*
X386374366Y-214122057D01*
X386374366Y-214122057D02*
X386421985Y-214217295D01*
X386421985Y-214217295D02*
X386469604Y-214407771D01*
X386469604Y-214407771D02*
X386469604Y-214645866D01*
X386469604Y-214645866D02*
X386421985Y-214836342D01*
X386421985Y-214836342D02*
X386374366Y-214931580D01*
X386374366Y-214931580D02*
X386326747Y-214979200D01*
X386326747Y-214979200D02*
X386231509Y-215026819D01*
X386231509Y-215026819D02*
X386136271Y-215026819D01*
X386136271Y-215026819D02*
X386041033Y-214979200D01*
X386041033Y-214979200D02*
X385993414Y-214931580D01*
X385993414Y-214931580D02*
X385945795Y-214836342D01*
X385945795Y-214836342D02*
X385898176Y-214645866D01*
X385898176Y-214645866D02*
X385898176Y-214407771D01*
X385898176Y-214407771D02*
X385945795Y-214217295D01*
X385945795Y-214217295D02*
X385993414Y-214122057D01*
X385993414Y-214122057D02*
X386041033Y-214074438D01*
X386041033Y-214074438D02*
X386136271Y-214026819D01*
X388979128Y-212309704D02*
X389436271Y-212309704D01*
X389207699Y-212309704D02*
X389207699Y-213109704D01*
X389207699Y-213109704D02*
X389283890Y-212995419D01*
X389283890Y-212995419D02*
X389360080Y-212919228D01*
X389360080Y-212919228D02*
X389436271Y-212881133D01*
X118634819Y-207706285D02*
X117634819Y-207706285D01*
X117634819Y-207706285D02*
X117634819Y-207468190D01*
X117634819Y-207468190D02*
X117682438Y-207325333D01*
X117682438Y-207325333D02*
X117777676Y-207230095D01*
X117777676Y-207230095D02*
X117872914Y-207182476D01*
X117872914Y-207182476D02*
X118063390Y-207134857D01*
X118063390Y-207134857D02*
X118206247Y-207134857D01*
X118206247Y-207134857D02*
X118396723Y-207182476D01*
X118396723Y-207182476D02*
X118491961Y-207230095D01*
X118491961Y-207230095D02*
X118587200Y-207325333D01*
X118587200Y-207325333D02*
X118634819Y-207468190D01*
X118634819Y-207468190D02*
X118634819Y-207706285D01*
X117968152Y-206277714D02*
X118634819Y-206277714D01*
X117587200Y-206515809D02*
X118301485Y-206753904D01*
X118301485Y-206753904D02*
X118301485Y-206134857D01*
X117634819Y-205277714D02*
X117634819Y-205753904D01*
X117634819Y-205753904D02*
X118111009Y-205801523D01*
X118111009Y-205801523D02*
X118063390Y-205753904D01*
X118063390Y-205753904D02*
X118015771Y-205658666D01*
X118015771Y-205658666D02*
X118015771Y-205420571D01*
X118015771Y-205420571D02*
X118063390Y-205325333D01*
X118063390Y-205325333D02*
X118111009Y-205277714D01*
X118111009Y-205277714D02*
X118206247Y-205230095D01*
X118206247Y-205230095D02*
X118444342Y-205230095D01*
X118444342Y-205230095D02*
X118539580Y-205277714D01*
X118539580Y-205277714D02*
X118587200Y-205325333D01*
X118587200Y-205325333D02*
X118634819Y-205420571D01*
X118634819Y-205420571D02*
X118634819Y-205658666D01*
X118634819Y-205658666D02*
X118587200Y-205753904D01*
X118587200Y-205753904D02*
X118539580Y-205801523D01*
X115917704Y-202720571D02*
X115917704Y-202263428D01*
X115917704Y-202492000D02*
X116717704Y-202492000D01*
X116717704Y-202492000D02*
X116603419Y-202415809D01*
X116603419Y-202415809D02*
X116527228Y-202339619D01*
X116527228Y-202339619D02*
X116489133Y-202263428D01*
X116934819Y-206753904D02*
X115934819Y-206753904D01*
X116934819Y-206182476D02*
X116363390Y-206611047D01*
X115934819Y-206182476D02*
X116506247Y-206753904D01*
X392429048Y-304315866D02*
X393190953Y-304315866D01*
X394959048Y-304315866D02*
X395720953Y-304315866D01*
X395340000Y-304696819D02*
X395340000Y-303934914D01*
X352003414Y-201496819D02*
X352003414Y-200496819D01*
X352003414Y-200496819D02*
X352241509Y-200496819D01*
X352241509Y-200496819D02*
X352384366Y-200544438D01*
X352384366Y-200544438D02*
X352479604Y-200639676D01*
X352479604Y-200639676D02*
X352527223Y-200734914D01*
X352527223Y-200734914D02*
X352574842Y-200925390D01*
X352574842Y-200925390D02*
X352574842Y-201068247D01*
X352574842Y-201068247D02*
X352527223Y-201258723D01*
X352527223Y-201258723D02*
X352479604Y-201353961D01*
X352479604Y-201353961D02*
X352384366Y-201449200D01*
X352384366Y-201449200D02*
X352241509Y-201496819D01*
X352241509Y-201496819D02*
X352003414Y-201496819D01*
X353431985Y-200830152D02*
X353431985Y-201496819D01*
X353193890Y-200449200D02*
X352955795Y-201163485D01*
X352955795Y-201163485D02*
X353574842Y-201163485D01*
X354384366Y-200830152D02*
X354384366Y-201496819D01*
X354146271Y-200449200D02*
X353908176Y-201163485D01*
X353908176Y-201163485D02*
X354527223Y-201163485D01*
X349446271Y-203304295D02*
X348989128Y-203304295D01*
X349217700Y-203304295D02*
X349217700Y-202504295D01*
X349217700Y-202504295D02*
X349141509Y-202618580D01*
X349141509Y-202618580D02*
X349065319Y-202694771D01*
X349065319Y-202694771D02*
X348989128Y-202732866D01*
X283079048Y-285275866D02*
X283840953Y-285275866D01*
X283460000Y-285656819D02*
X283460000Y-284894914D01*
X280549048Y-285275866D02*
X281310953Y-285275866D01*
X297169048Y-228049566D02*
X297930953Y-228049566D01*
X299699048Y-228049566D02*
X300460953Y-228049566D01*
X300080000Y-228430519D02*
X300080000Y-227668614D01*
X149709048Y-285285866D02*
X150470953Y-285285866D01*
X150090000Y-285666819D02*
X150090000Y-284904914D01*
X147179048Y-285285866D02*
X147940953Y-285285866D01*
X230194819Y-213786285D02*
X229194819Y-213786285D01*
X229194819Y-213786285D02*
X229194819Y-213548190D01*
X229194819Y-213548190D02*
X229242438Y-213405333D01*
X229242438Y-213405333D02*
X229337676Y-213310095D01*
X229337676Y-213310095D02*
X229432914Y-213262476D01*
X229432914Y-213262476D02*
X229623390Y-213214857D01*
X229623390Y-213214857D02*
X229766247Y-213214857D01*
X229766247Y-213214857D02*
X229956723Y-213262476D01*
X229956723Y-213262476D02*
X230051961Y-213310095D01*
X230051961Y-213310095D02*
X230147200Y-213405333D01*
X230147200Y-213405333D02*
X230194819Y-213548190D01*
X230194819Y-213548190D02*
X230194819Y-213786285D01*
X230194819Y-212738666D02*
X230194819Y-212548190D01*
X230194819Y-212548190D02*
X230147200Y-212452952D01*
X230147200Y-212452952D02*
X230099580Y-212405333D01*
X230099580Y-212405333D02*
X229956723Y-212310095D01*
X229956723Y-212310095D02*
X229766247Y-212262476D01*
X229766247Y-212262476D02*
X229385295Y-212262476D01*
X229385295Y-212262476D02*
X229290057Y-212310095D01*
X229290057Y-212310095D02*
X229242438Y-212357714D01*
X229242438Y-212357714D02*
X229194819Y-212452952D01*
X229194819Y-212452952D02*
X229194819Y-212643428D01*
X229194819Y-212643428D02*
X229242438Y-212738666D01*
X229242438Y-212738666D02*
X229290057Y-212786285D01*
X229290057Y-212786285D02*
X229385295Y-212833904D01*
X229385295Y-212833904D02*
X229623390Y-212833904D01*
X229623390Y-212833904D02*
X229718628Y-212786285D01*
X229718628Y-212786285D02*
X229766247Y-212738666D01*
X229766247Y-212738666D02*
X229813866Y-212643428D01*
X229813866Y-212643428D02*
X229813866Y-212452952D01*
X229813866Y-212452952D02*
X229766247Y-212357714D01*
X229766247Y-212357714D02*
X229718628Y-212310095D01*
X229718628Y-212310095D02*
X229623390Y-212262476D01*
X229290057Y-211881523D02*
X229242438Y-211833904D01*
X229242438Y-211833904D02*
X229194819Y-211738666D01*
X229194819Y-211738666D02*
X229194819Y-211500571D01*
X229194819Y-211500571D02*
X229242438Y-211405333D01*
X229242438Y-211405333D02*
X229290057Y-211357714D01*
X229290057Y-211357714D02*
X229385295Y-211310095D01*
X229385295Y-211310095D02*
X229480533Y-211310095D01*
X229480533Y-211310095D02*
X229623390Y-211357714D01*
X229623390Y-211357714D02*
X230194819Y-211929142D01*
X230194819Y-211929142D02*
X230194819Y-211310095D01*
X227477704Y-208800571D02*
X227477704Y-208343428D01*
X227477704Y-208572000D02*
X228277704Y-208572000D01*
X228277704Y-208572000D02*
X228163419Y-208495809D01*
X228163419Y-208495809D02*
X228087228Y-208419619D01*
X228087228Y-208419619D02*
X228049133Y-208343428D01*
X336243414Y-201626819D02*
X336243414Y-200626819D01*
X336243414Y-200626819D02*
X336481509Y-200626819D01*
X336481509Y-200626819D02*
X336624366Y-200674438D01*
X336624366Y-200674438D02*
X336719604Y-200769676D01*
X336719604Y-200769676D02*
X336767223Y-200864914D01*
X336767223Y-200864914D02*
X336814842Y-201055390D01*
X336814842Y-201055390D02*
X336814842Y-201198247D01*
X336814842Y-201198247D02*
X336767223Y-201388723D01*
X336767223Y-201388723D02*
X336719604Y-201483961D01*
X336719604Y-201483961D02*
X336624366Y-201579200D01*
X336624366Y-201579200D02*
X336481509Y-201626819D01*
X336481509Y-201626819D02*
X336243414Y-201626819D01*
X337386271Y-201055390D02*
X337291033Y-201007771D01*
X337291033Y-201007771D02*
X337243414Y-200960152D01*
X337243414Y-200960152D02*
X337195795Y-200864914D01*
X337195795Y-200864914D02*
X337195795Y-200817295D01*
X337195795Y-200817295D02*
X337243414Y-200722057D01*
X337243414Y-200722057D02*
X337291033Y-200674438D01*
X337291033Y-200674438D02*
X337386271Y-200626819D01*
X337386271Y-200626819D02*
X337576747Y-200626819D01*
X337576747Y-200626819D02*
X337671985Y-200674438D01*
X337671985Y-200674438D02*
X337719604Y-200722057D01*
X337719604Y-200722057D02*
X337767223Y-200817295D01*
X337767223Y-200817295D02*
X337767223Y-200864914D01*
X337767223Y-200864914D02*
X337719604Y-200960152D01*
X337719604Y-200960152D02*
X337671985Y-201007771D01*
X337671985Y-201007771D02*
X337576747Y-201055390D01*
X337576747Y-201055390D02*
X337386271Y-201055390D01*
X337386271Y-201055390D02*
X337291033Y-201103009D01*
X337291033Y-201103009D02*
X337243414Y-201150628D01*
X337243414Y-201150628D02*
X337195795Y-201245866D01*
X337195795Y-201245866D02*
X337195795Y-201436342D01*
X337195795Y-201436342D02*
X337243414Y-201531580D01*
X337243414Y-201531580D02*
X337291033Y-201579200D01*
X337291033Y-201579200D02*
X337386271Y-201626819D01*
X337386271Y-201626819D02*
X337576747Y-201626819D01*
X337576747Y-201626819D02*
X337671985Y-201579200D01*
X337671985Y-201579200D02*
X337719604Y-201531580D01*
X337719604Y-201531580D02*
X337767223Y-201436342D01*
X337767223Y-201436342D02*
X337767223Y-201245866D01*
X337767223Y-201245866D02*
X337719604Y-201150628D01*
X337719604Y-201150628D02*
X337671985Y-201103009D01*
X337671985Y-201103009D02*
X337576747Y-201055390D01*
X338624366Y-200626819D02*
X338433890Y-200626819D01*
X338433890Y-200626819D02*
X338338652Y-200674438D01*
X338338652Y-200674438D02*
X338291033Y-200722057D01*
X338291033Y-200722057D02*
X338195795Y-200864914D01*
X338195795Y-200864914D02*
X338148176Y-201055390D01*
X338148176Y-201055390D02*
X338148176Y-201436342D01*
X338148176Y-201436342D02*
X338195795Y-201531580D01*
X338195795Y-201531580D02*
X338243414Y-201579200D01*
X338243414Y-201579200D02*
X338338652Y-201626819D01*
X338338652Y-201626819D02*
X338529128Y-201626819D01*
X338529128Y-201626819D02*
X338624366Y-201579200D01*
X338624366Y-201579200D02*
X338671985Y-201531580D01*
X338671985Y-201531580D02*
X338719604Y-201436342D01*
X338719604Y-201436342D02*
X338719604Y-201198247D01*
X338719604Y-201198247D02*
X338671985Y-201103009D01*
X338671985Y-201103009D02*
X338624366Y-201055390D01*
X338624366Y-201055390D02*
X338529128Y-201007771D01*
X338529128Y-201007771D02*
X338338652Y-201007771D01*
X338338652Y-201007771D02*
X338243414Y-201055390D01*
X338243414Y-201055390D02*
X338195795Y-201103009D01*
X338195795Y-201103009D02*
X338148176Y-201198247D01*
X333686271Y-203434295D02*
X333229128Y-203434295D01*
X333457700Y-203434295D02*
X333457700Y-202634295D01*
X333457700Y-202634295D02*
X333381509Y-202748580D01*
X333381509Y-202748580D02*
X333305319Y-202824771D01*
X333305319Y-202824771D02*
X333229128Y-202862866D01*
X344359605Y-201496819D02*
X344359605Y-200496819D01*
X344359605Y-200496819D02*
X344597700Y-200496819D01*
X344597700Y-200496819D02*
X344740557Y-200544438D01*
X344740557Y-200544438D02*
X344835795Y-200639676D01*
X344835795Y-200639676D02*
X344883414Y-200734914D01*
X344883414Y-200734914D02*
X344931033Y-200925390D01*
X344931033Y-200925390D02*
X344931033Y-201068247D01*
X344931033Y-201068247D02*
X344883414Y-201258723D01*
X344883414Y-201258723D02*
X344835795Y-201353961D01*
X344835795Y-201353961D02*
X344740557Y-201449200D01*
X344740557Y-201449200D02*
X344597700Y-201496819D01*
X344597700Y-201496819D02*
X344359605Y-201496819D01*
X345788176Y-200830152D02*
X345788176Y-201496819D01*
X345550081Y-200449200D02*
X345311986Y-201163485D01*
X345311986Y-201163485D02*
X345931033Y-201163485D01*
X341326271Y-203304295D02*
X340869128Y-203304295D01*
X341097700Y-203304295D02*
X341097700Y-202504295D01*
X341097700Y-202504295D02*
X341021509Y-202618580D01*
X341021509Y-202618580D02*
X340945319Y-202694771D01*
X340945319Y-202694771D02*
X340869128Y-202732866D01*
X344359605Y-208116819D02*
X344359605Y-207116819D01*
X344359605Y-207116819D02*
X344597700Y-207116819D01*
X344597700Y-207116819D02*
X344740557Y-207164438D01*
X344740557Y-207164438D02*
X344835795Y-207259676D01*
X344835795Y-207259676D02*
X344883414Y-207354914D01*
X344883414Y-207354914D02*
X344931033Y-207545390D01*
X344931033Y-207545390D02*
X344931033Y-207688247D01*
X344931033Y-207688247D02*
X344883414Y-207878723D01*
X344883414Y-207878723D02*
X344835795Y-207973961D01*
X344835795Y-207973961D02*
X344740557Y-208069200D01*
X344740557Y-208069200D02*
X344597700Y-208116819D01*
X344597700Y-208116819D02*
X344359605Y-208116819D01*
X345883414Y-208116819D02*
X345311986Y-208116819D01*
X345597700Y-208116819D02*
X345597700Y-207116819D01*
X345597700Y-207116819D02*
X345502462Y-207259676D01*
X345502462Y-207259676D02*
X345407224Y-207354914D01*
X345407224Y-207354914D02*
X345311986Y-207402533D01*
X341326271Y-209924295D02*
X340869128Y-209924295D01*
X341097700Y-209924295D02*
X341097700Y-209124295D01*
X341097700Y-209124295D02*
X341021509Y-209238580D01*
X341021509Y-209238580D02*
X340945319Y-209314771D01*
X340945319Y-209314771D02*
X340869128Y-209352866D01*
X313839048Y-308789866D02*
X314600953Y-308789866D01*
X316369048Y-308789866D02*
X317130953Y-308789866D01*
X316750000Y-309170819D02*
X316750000Y-308408914D01*
X330529048Y-266215866D02*
X331290953Y-266215866D01*
X333059048Y-266215866D02*
X333820953Y-266215866D01*
X333440000Y-266596819D02*
X333440000Y-265834914D01*
X354419048Y-228095866D02*
X355180953Y-228095866D01*
X356949048Y-228095866D02*
X357710953Y-228095866D01*
X357330000Y-228476819D02*
X357330000Y-227714914D01*
X373389048Y-304345866D02*
X374150953Y-304345866D01*
X375919048Y-304345866D02*
X376680953Y-304345866D01*
X376300000Y-304726819D02*
X376300000Y-303964914D01*
X175954819Y-214596285D02*
X174954819Y-214596285D01*
X174954819Y-214596285D02*
X174954819Y-214358190D01*
X174954819Y-214358190D02*
X175002438Y-214215333D01*
X175002438Y-214215333D02*
X175097676Y-214120095D01*
X175097676Y-214120095D02*
X175192914Y-214072476D01*
X175192914Y-214072476D02*
X175383390Y-214024857D01*
X175383390Y-214024857D02*
X175526247Y-214024857D01*
X175526247Y-214024857D02*
X175716723Y-214072476D01*
X175716723Y-214072476D02*
X175811961Y-214120095D01*
X175811961Y-214120095D02*
X175907200Y-214215333D01*
X175907200Y-214215333D02*
X175954819Y-214358190D01*
X175954819Y-214358190D02*
X175954819Y-214596285D01*
X174954819Y-213167714D02*
X174954819Y-213358190D01*
X174954819Y-213358190D02*
X175002438Y-213453428D01*
X175002438Y-213453428D02*
X175050057Y-213501047D01*
X175050057Y-213501047D02*
X175192914Y-213596285D01*
X175192914Y-213596285D02*
X175383390Y-213643904D01*
X175383390Y-213643904D02*
X175764342Y-213643904D01*
X175764342Y-213643904D02*
X175859580Y-213596285D01*
X175859580Y-213596285D02*
X175907200Y-213548666D01*
X175907200Y-213548666D02*
X175954819Y-213453428D01*
X175954819Y-213453428D02*
X175954819Y-213262952D01*
X175954819Y-213262952D02*
X175907200Y-213167714D01*
X175907200Y-213167714D02*
X175859580Y-213120095D01*
X175859580Y-213120095D02*
X175764342Y-213072476D01*
X175764342Y-213072476D02*
X175526247Y-213072476D01*
X175526247Y-213072476D02*
X175431009Y-213120095D01*
X175431009Y-213120095D02*
X175383390Y-213167714D01*
X175383390Y-213167714D02*
X175335771Y-213262952D01*
X175335771Y-213262952D02*
X175335771Y-213453428D01*
X175335771Y-213453428D02*
X175383390Y-213548666D01*
X175383390Y-213548666D02*
X175431009Y-213596285D01*
X175431009Y-213596285D02*
X175526247Y-213643904D01*
X175383390Y-212501047D02*
X175335771Y-212596285D01*
X175335771Y-212596285D02*
X175288152Y-212643904D01*
X175288152Y-212643904D02*
X175192914Y-212691523D01*
X175192914Y-212691523D02*
X175145295Y-212691523D01*
X175145295Y-212691523D02*
X175050057Y-212643904D01*
X175050057Y-212643904D02*
X175002438Y-212596285D01*
X175002438Y-212596285D02*
X174954819Y-212501047D01*
X174954819Y-212501047D02*
X174954819Y-212310571D01*
X174954819Y-212310571D02*
X175002438Y-212215333D01*
X175002438Y-212215333D02*
X175050057Y-212167714D01*
X175050057Y-212167714D02*
X175145295Y-212120095D01*
X175145295Y-212120095D02*
X175192914Y-212120095D01*
X175192914Y-212120095D02*
X175288152Y-212167714D01*
X175288152Y-212167714D02*
X175335771Y-212215333D01*
X175335771Y-212215333D02*
X175383390Y-212310571D01*
X175383390Y-212310571D02*
X175383390Y-212501047D01*
X175383390Y-212501047D02*
X175431009Y-212596285D01*
X175431009Y-212596285D02*
X175478628Y-212643904D01*
X175478628Y-212643904D02*
X175573866Y-212691523D01*
X175573866Y-212691523D02*
X175764342Y-212691523D01*
X175764342Y-212691523D02*
X175859580Y-212643904D01*
X175859580Y-212643904D02*
X175907200Y-212596285D01*
X175907200Y-212596285D02*
X175954819Y-212501047D01*
X175954819Y-212501047D02*
X175954819Y-212310571D01*
X175954819Y-212310571D02*
X175907200Y-212215333D01*
X175907200Y-212215333D02*
X175859580Y-212167714D01*
X175859580Y-212167714D02*
X175764342Y-212120095D01*
X175764342Y-212120095D02*
X175573866Y-212120095D01*
X175573866Y-212120095D02*
X175478628Y-212167714D01*
X175478628Y-212167714D02*
X175431009Y-212215333D01*
X175431009Y-212215333D02*
X175383390Y-212310571D01*
X173237704Y-209610571D02*
X173237704Y-209153428D01*
X173237704Y-209382000D02*
X174037704Y-209382000D01*
X174037704Y-209382000D02*
X173923419Y-209305809D01*
X173923419Y-209305809D02*
X173847228Y-209229619D01*
X173847228Y-209229619D02*
X173809133Y-209153428D01*
X167984819Y-214376285D02*
X166984819Y-214376285D01*
X166984819Y-214376285D02*
X166984819Y-214138190D01*
X166984819Y-214138190D02*
X167032438Y-213995333D01*
X167032438Y-213995333D02*
X167127676Y-213900095D01*
X167127676Y-213900095D02*
X167222914Y-213852476D01*
X167222914Y-213852476D02*
X167413390Y-213804857D01*
X167413390Y-213804857D02*
X167556247Y-213804857D01*
X167556247Y-213804857D02*
X167746723Y-213852476D01*
X167746723Y-213852476D02*
X167841961Y-213900095D01*
X167841961Y-213900095D02*
X167937200Y-213995333D01*
X167937200Y-213995333D02*
X167984819Y-214138190D01*
X167984819Y-214138190D02*
X167984819Y-214376285D01*
X166984819Y-213471523D02*
X166984819Y-212804857D01*
X166984819Y-212804857D02*
X167984819Y-213233428D01*
X166984819Y-211995333D02*
X166984819Y-212185809D01*
X166984819Y-212185809D02*
X167032438Y-212281047D01*
X167032438Y-212281047D02*
X167080057Y-212328666D01*
X167080057Y-212328666D02*
X167222914Y-212423904D01*
X167222914Y-212423904D02*
X167413390Y-212471523D01*
X167413390Y-212471523D02*
X167794342Y-212471523D01*
X167794342Y-212471523D02*
X167889580Y-212423904D01*
X167889580Y-212423904D02*
X167937200Y-212376285D01*
X167937200Y-212376285D02*
X167984819Y-212281047D01*
X167984819Y-212281047D02*
X167984819Y-212090571D01*
X167984819Y-212090571D02*
X167937200Y-211995333D01*
X167937200Y-211995333D02*
X167889580Y-211947714D01*
X167889580Y-211947714D02*
X167794342Y-211900095D01*
X167794342Y-211900095D02*
X167556247Y-211900095D01*
X167556247Y-211900095D02*
X167461009Y-211947714D01*
X167461009Y-211947714D02*
X167413390Y-211995333D01*
X167413390Y-211995333D02*
X167365771Y-212090571D01*
X167365771Y-212090571D02*
X167365771Y-212281047D01*
X167365771Y-212281047D02*
X167413390Y-212376285D01*
X167413390Y-212376285D02*
X167461009Y-212423904D01*
X167461009Y-212423904D02*
X167556247Y-212471523D01*
X165267704Y-209390571D02*
X165267704Y-208933428D01*
X165267704Y-209162000D02*
X166067704Y-209162000D01*
X166067704Y-209162000D02*
X165953419Y-209085809D01*
X165953419Y-209085809D02*
X165877228Y-209009619D01*
X165877228Y-209009619D02*
X165839133Y-208933428D01*
X185319048Y-285275866D02*
X186080953Y-285275866D01*
X187849048Y-285275866D02*
X188610953Y-285275866D01*
X188230000Y-285656819D02*
X188230000Y-284894914D01*
X242324819Y-214422475D02*
X241324819Y-214422475D01*
X241324819Y-214422475D02*
X241324819Y-214184380D01*
X241324819Y-214184380D02*
X241372438Y-214041523D01*
X241372438Y-214041523D02*
X241467676Y-213946285D01*
X241467676Y-213946285D02*
X241562914Y-213898666D01*
X241562914Y-213898666D02*
X241753390Y-213851047D01*
X241753390Y-213851047D02*
X241896247Y-213851047D01*
X241896247Y-213851047D02*
X242086723Y-213898666D01*
X242086723Y-213898666D02*
X242181961Y-213946285D01*
X242181961Y-213946285D02*
X242277200Y-214041523D01*
X242277200Y-214041523D02*
X242324819Y-214184380D01*
X242324819Y-214184380D02*
X242324819Y-214422475D01*
X242324819Y-212898666D02*
X242324819Y-213470094D01*
X242324819Y-213184380D02*
X241324819Y-213184380D01*
X241324819Y-213184380D02*
X241467676Y-213279618D01*
X241467676Y-213279618D02*
X241562914Y-213374856D01*
X241562914Y-213374856D02*
X241610533Y-213470094D01*
X242324819Y-211946285D02*
X242324819Y-212517713D01*
X242324819Y-212231999D02*
X241324819Y-212231999D01*
X241324819Y-212231999D02*
X241467676Y-212327237D01*
X241467676Y-212327237D02*
X241562914Y-212422475D01*
X241562914Y-212422475D02*
X241610533Y-212517713D01*
X241324819Y-211327237D02*
X241324819Y-211231999D01*
X241324819Y-211231999D02*
X241372438Y-211136761D01*
X241372438Y-211136761D02*
X241420057Y-211089142D01*
X241420057Y-211089142D02*
X241515295Y-211041523D01*
X241515295Y-211041523D02*
X241705771Y-210993904D01*
X241705771Y-210993904D02*
X241943866Y-210993904D01*
X241943866Y-210993904D02*
X242134342Y-211041523D01*
X242134342Y-211041523D02*
X242229580Y-211089142D01*
X242229580Y-211089142D02*
X242277200Y-211136761D01*
X242277200Y-211136761D02*
X242324819Y-211231999D01*
X242324819Y-211231999D02*
X242324819Y-211327237D01*
X242324819Y-211327237D02*
X242277200Y-211422475D01*
X242277200Y-211422475D02*
X242229580Y-211470094D01*
X242229580Y-211470094D02*
X242134342Y-211517713D01*
X242134342Y-211517713D02*
X241943866Y-211565332D01*
X241943866Y-211565332D02*
X241705771Y-211565332D01*
X241705771Y-211565332D02*
X241515295Y-211517713D01*
X241515295Y-211517713D02*
X241420057Y-211470094D01*
X241420057Y-211470094D02*
X241372438Y-211422475D01*
X241372438Y-211422475D02*
X241324819Y-211327237D01*
X239607704Y-208960571D02*
X239607704Y-208503428D01*
X239607704Y-208732000D02*
X240407704Y-208732000D01*
X240407704Y-208732000D02*
X240293419Y-208655809D01*
X240293419Y-208655809D02*
X240217228Y-208579619D01*
X240217228Y-208579619D02*
X240179133Y-208503428D01*
X135249048Y-247173866D02*
X136010953Y-247173866D01*
X137779048Y-247173866D02*
X138540953Y-247173866D01*
X138160000Y-247554819D02*
X138160000Y-246792914D01*
X249549048Y-247173866D02*
X250310953Y-247173866D01*
X252079048Y-247173866D02*
X252840953Y-247173866D01*
X252460000Y-247554819D02*
X252460000Y-246792914D01*
X309429048Y-307335866D02*
X310190953Y-307335866D01*
X279799048Y-304335866D02*
X280560953Y-304335866D01*
X280180000Y-304716819D02*
X280180000Y-303954914D01*
X264964819Y-206202475D02*
X263964819Y-206202475D01*
X263964819Y-206202475D02*
X263964819Y-205964380D01*
X263964819Y-205964380D02*
X264012438Y-205821523D01*
X264012438Y-205821523D02*
X264107676Y-205726285D01*
X264107676Y-205726285D02*
X264202914Y-205678666D01*
X264202914Y-205678666D02*
X264393390Y-205631047D01*
X264393390Y-205631047D02*
X264536247Y-205631047D01*
X264536247Y-205631047D02*
X264726723Y-205678666D01*
X264726723Y-205678666D02*
X264821961Y-205726285D01*
X264821961Y-205726285D02*
X264917200Y-205821523D01*
X264917200Y-205821523D02*
X264964819Y-205964380D01*
X264964819Y-205964380D02*
X264964819Y-206202475D01*
X264964819Y-204678666D02*
X264964819Y-205250094D01*
X264964819Y-204964380D02*
X263964819Y-204964380D01*
X263964819Y-204964380D02*
X264107676Y-205059618D01*
X264107676Y-205059618D02*
X264202914Y-205154856D01*
X264202914Y-205154856D02*
X264250533Y-205250094D01*
X263964819Y-204059618D02*
X263964819Y-203964380D01*
X263964819Y-203964380D02*
X264012438Y-203869142D01*
X264012438Y-203869142D02*
X264060057Y-203821523D01*
X264060057Y-203821523D02*
X264155295Y-203773904D01*
X264155295Y-203773904D02*
X264345771Y-203726285D01*
X264345771Y-203726285D02*
X264583866Y-203726285D01*
X264583866Y-203726285D02*
X264774342Y-203773904D01*
X264774342Y-203773904D02*
X264869580Y-203821523D01*
X264869580Y-203821523D02*
X264917200Y-203869142D01*
X264917200Y-203869142D02*
X264964819Y-203964380D01*
X264964819Y-203964380D02*
X264964819Y-204059618D01*
X264964819Y-204059618D02*
X264917200Y-204154856D01*
X264917200Y-204154856D02*
X264869580Y-204202475D01*
X264869580Y-204202475D02*
X264774342Y-204250094D01*
X264774342Y-204250094D02*
X264583866Y-204297713D01*
X264583866Y-204297713D02*
X264345771Y-204297713D01*
X264345771Y-204297713D02*
X264155295Y-204250094D01*
X264155295Y-204250094D02*
X264060057Y-204202475D01*
X264060057Y-204202475D02*
X264012438Y-204154856D01*
X264012438Y-204154856D02*
X263964819Y-204059618D01*
X263964819Y-203107237D02*
X263964819Y-203011999D01*
X263964819Y-203011999D02*
X264012438Y-202916761D01*
X264012438Y-202916761D02*
X264060057Y-202869142D01*
X264060057Y-202869142D02*
X264155295Y-202821523D01*
X264155295Y-202821523D02*
X264345771Y-202773904D01*
X264345771Y-202773904D02*
X264583866Y-202773904D01*
X264583866Y-202773904D02*
X264774342Y-202821523D01*
X264774342Y-202821523D02*
X264869580Y-202869142D01*
X264869580Y-202869142D02*
X264917200Y-202916761D01*
X264917200Y-202916761D02*
X264964819Y-203011999D01*
X264964819Y-203011999D02*
X264964819Y-203107237D01*
X264964819Y-203107237D02*
X264917200Y-203202475D01*
X264917200Y-203202475D02*
X264869580Y-203250094D01*
X264869580Y-203250094D02*
X264774342Y-203297713D01*
X264774342Y-203297713D02*
X264583866Y-203345332D01*
X264583866Y-203345332D02*
X264345771Y-203345332D01*
X264345771Y-203345332D02*
X264155295Y-203297713D01*
X264155295Y-203297713D02*
X264060057Y-203250094D01*
X264060057Y-203250094D02*
X264012438Y-203202475D01*
X264012438Y-203202475D02*
X263964819Y-203107237D01*
X262247704Y-200740571D02*
X262247704Y-200283428D01*
X262247704Y-200512000D02*
X263047704Y-200512000D01*
X263047704Y-200512000D02*
X262933419Y-200435809D01*
X262933419Y-200435809D02*
X262857228Y-200359619D01*
X262857228Y-200359619D02*
X262819133Y-200283428D01*
X242459048Y-285255866D02*
X243220953Y-285255866D01*
X244989048Y-285255866D02*
X245750953Y-285255866D01*
X245370000Y-285636819D02*
X245370000Y-284874914D01*
X368889048Y-247185866D02*
X369650953Y-247185866D01*
X371419048Y-247185866D02*
X372180953Y-247185866D01*
X371800000Y-247566819D02*
X371800000Y-246804914D01*
X236444819Y-206292475D02*
X235444819Y-206292475D01*
X235444819Y-206292475D02*
X235444819Y-206054380D01*
X235444819Y-206054380D02*
X235492438Y-205911523D01*
X235492438Y-205911523D02*
X235587676Y-205816285D01*
X235587676Y-205816285D02*
X235682914Y-205768666D01*
X235682914Y-205768666D02*
X235873390Y-205721047D01*
X235873390Y-205721047D02*
X236016247Y-205721047D01*
X236016247Y-205721047D02*
X236206723Y-205768666D01*
X236206723Y-205768666D02*
X236301961Y-205816285D01*
X236301961Y-205816285D02*
X236397200Y-205911523D01*
X236397200Y-205911523D02*
X236444819Y-206054380D01*
X236444819Y-206054380D02*
X236444819Y-206292475D01*
X236444819Y-204768666D02*
X236444819Y-205340094D01*
X236444819Y-205054380D02*
X235444819Y-205054380D01*
X235444819Y-205054380D02*
X235587676Y-205149618D01*
X235587676Y-205149618D02*
X235682914Y-205244856D01*
X235682914Y-205244856D02*
X235730533Y-205340094D01*
X236444819Y-203816285D02*
X236444819Y-204387713D01*
X236444819Y-204101999D02*
X235444819Y-204101999D01*
X235444819Y-204101999D02*
X235587676Y-204197237D01*
X235587676Y-204197237D02*
X235682914Y-204292475D01*
X235682914Y-204292475D02*
X235730533Y-204387713D01*
X235444819Y-202959142D02*
X235444819Y-203149618D01*
X235444819Y-203149618D02*
X235492438Y-203244856D01*
X235492438Y-203244856D02*
X235540057Y-203292475D01*
X235540057Y-203292475D02*
X235682914Y-203387713D01*
X235682914Y-203387713D02*
X235873390Y-203435332D01*
X235873390Y-203435332D02*
X236254342Y-203435332D01*
X236254342Y-203435332D02*
X236349580Y-203387713D01*
X236349580Y-203387713D02*
X236397200Y-203340094D01*
X236397200Y-203340094D02*
X236444819Y-203244856D01*
X236444819Y-203244856D02*
X236444819Y-203054380D01*
X236444819Y-203054380D02*
X236397200Y-202959142D01*
X236397200Y-202959142D02*
X236349580Y-202911523D01*
X236349580Y-202911523D02*
X236254342Y-202863904D01*
X236254342Y-202863904D02*
X236016247Y-202863904D01*
X236016247Y-202863904D02*
X235921009Y-202911523D01*
X235921009Y-202911523D02*
X235873390Y-202959142D01*
X235873390Y-202959142D02*
X235825771Y-203054380D01*
X235825771Y-203054380D02*
X235825771Y-203244856D01*
X235825771Y-203244856D02*
X235873390Y-203340094D01*
X235873390Y-203340094D02*
X235921009Y-203387713D01*
X235921009Y-203387713D02*
X236016247Y-203435332D01*
X233727704Y-200830571D02*
X233727704Y-200373428D01*
X233727704Y-200602000D02*
X234527704Y-200602000D01*
X234527704Y-200602000D02*
X234413419Y-200525809D01*
X234413419Y-200525809D02*
X234337228Y-200449619D01*
X234337228Y-200449619D02*
X234299133Y-200373428D01*
X242609048Y-228095866D02*
X243370953Y-228095866D01*
X242990000Y-228476819D02*
X242990000Y-227714914D01*
X240079048Y-228095866D02*
X240840953Y-228095866D01*
X375873414Y-215026819D02*
X375873414Y-214026819D01*
X375873414Y-214026819D02*
X376111509Y-214026819D01*
X376111509Y-214026819D02*
X376254366Y-214074438D01*
X376254366Y-214074438D02*
X376349604Y-214169676D01*
X376349604Y-214169676D02*
X376397223Y-214264914D01*
X376397223Y-214264914D02*
X376444842Y-214455390D01*
X376444842Y-214455390D02*
X376444842Y-214598247D01*
X376444842Y-214598247D02*
X376397223Y-214788723D01*
X376397223Y-214788723D02*
X376349604Y-214883961D01*
X376349604Y-214883961D02*
X376254366Y-214979200D01*
X376254366Y-214979200D02*
X376111509Y-215026819D01*
X376111509Y-215026819D02*
X375873414Y-215026819D01*
X377301985Y-214026819D02*
X377111509Y-214026819D01*
X377111509Y-214026819D02*
X377016271Y-214074438D01*
X377016271Y-214074438D02*
X376968652Y-214122057D01*
X376968652Y-214122057D02*
X376873414Y-214264914D01*
X376873414Y-214264914D02*
X376825795Y-214455390D01*
X376825795Y-214455390D02*
X376825795Y-214836342D01*
X376825795Y-214836342D02*
X376873414Y-214931580D01*
X376873414Y-214931580D02*
X376921033Y-214979200D01*
X376921033Y-214979200D02*
X377016271Y-215026819D01*
X377016271Y-215026819D02*
X377206747Y-215026819D01*
X377206747Y-215026819D02*
X377301985Y-214979200D01*
X377301985Y-214979200D02*
X377349604Y-214931580D01*
X377349604Y-214931580D02*
X377397223Y-214836342D01*
X377397223Y-214836342D02*
X377397223Y-214598247D01*
X377397223Y-214598247D02*
X377349604Y-214503009D01*
X377349604Y-214503009D02*
X377301985Y-214455390D01*
X377301985Y-214455390D02*
X377206747Y-214407771D01*
X377206747Y-214407771D02*
X377016271Y-214407771D01*
X377016271Y-214407771D02*
X376921033Y-214455390D01*
X376921033Y-214455390D02*
X376873414Y-214503009D01*
X376873414Y-214503009D02*
X376825795Y-214598247D01*
X377778176Y-214122057D02*
X377825795Y-214074438D01*
X377825795Y-214074438D02*
X377921033Y-214026819D01*
X377921033Y-214026819D02*
X378159128Y-214026819D01*
X378159128Y-214026819D02*
X378254366Y-214074438D01*
X378254366Y-214074438D02*
X378301985Y-214122057D01*
X378301985Y-214122057D02*
X378349604Y-214217295D01*
X378349604Y-214217295D02*
X378349604Y-214312533D01*
X378349604Y-214312533D02*
X378301985Y-214455390D01*
X378301985Y-214455390D02*
X377730557Y-215026819D01*
X377730557Y-215026819D02*
X378349604Y-215026819D01*
X380859128Y-212309704D02*
X381316271Y-212309704D01*
X381087699Y-212309704D02*
X381087699Y-213109704D01*
X381087699Y-213109704D02*
X381163890Y-212995419D01*
X381163890Y-212995419D02*
X381240080Y-212919228D01*
X381240080Y-212919228D02*
X381316271Y-212881133D01*
X161679048Y-266195866D02*
X162440953Y-266195866D01*
X162060000Y-266576819D02*
X162060000Y-265814914D01*
X159149048Y-266195866D02*
X159910953Y-266195866D01*
X367753414Y-215026819D02*
X367753414Y-214026819D01*
X367753414Y-214026819D02*
X367991509Y-214026819D01*
X367991509Y-214026819D02*
X368134366Y-214074438D01*
X368134366Y-214074438D02*
X368229604Y-214169676D01*
X368229604Y-214169676D02*
X368277223Y-214264914D01*
X368277223Y-214264914D02*
X368324842Y-214455390D01*
X368324842Y-214455390D02*
X368324842Y-214598247D01*
X368324842Y-214598247D02*
X368277223Y-214788723D01*
X368277223Y-214788723D02*
X368229604Y-214883961D01*
X368229604Y-214883961D02*
X368134366Y-214979200D01*
X368134366Y-214979200D02*
X367991509Y-215026819D01*
X367991509Y-215026819D02*
X367753414Y-215026819D01*
X368801033Y-215026819D02*
X368991509Y-215026819D01*
X368991509Y-215026819D02*
X369086747Y-214979200D01*
X369086747Y-214979200D02*
X369134366Y-214931580D01*
X369134366Y-214931580D02*
X369229604Y-214788723D01*
X369229604Y-214788723D02*
X369277223Y-214598247D01*
X369277223Y-214598247D02*
X369277223Y-214217295D01*
X369277223Y-214217295D02*
X369229604Y-214122057D01*
X369229604Y-214122057D02*
X369181985Y-214074438D01*
X369181985Y-214074438D02*
X369086747Y-214026819D01*
X369086747Y-214026819D02*
X368896271Y-214026819D01*
X368896271Y-214026819D02*
X368801033Y-214074438D01*
X368801033Y-214074438D02*
X368753414Y-214122057D01*
X368753414Y-214122057D02*
X368705795Y-214217295D01*
X368705795Y-214217295D02*
X368705795Y-214455390D01*
X368705795Y-214455390D02*
X368753414Y-214550628D01*
X368753414Y-214550628D02*
X368801033Y-214598247D01*
X368801033Y-214598247D02*
X368896271Y-214645866D01*
X368896271Y-214645866D02*
X369086747Y-214645866D01*
X369086747Y-214645866D02*
X369181985Y-214598247D01*
X369181985Y-214598247D02*
X369229604Y-214550628D01*
X369229604Y-214550628D02*
X369277223Y-214455390D01*
X370134366Y-214360152D02*
X370134366Y-215026819D01*
X369896271Y-213979200D02*
X369658176Y-214693485D01*
X369658176Y-214693485D02*
X370277223Y-214693485D01*
X372739128Y-212309704D02*
X373196271Y-212309704D01*
X372967699Y-212309704D02*
X372967699Y-213109704D01*
X372967699Y-213109704D02*
X373043890Y-212995419D01*
X373043890Y-212995419D02*
X373120080Y-212919228D01*
X373120080Y-212919228D02*
X373196271Y-212881133D01*
X292469048Y-266215866D02*
X293230953Y-266215866D01*
X294999048Y-266215866D02*
X295760953Y-266215866D01*
X295380000Y-266596819D02*
X295380000Y-265834914D01*
X394949048Y-285245866D02*
X395710953Y-285245866D01*
X395330000Y-285626819D02*
X395330000Y-284864914D01*
X392419048Y-285245866D02*
X393180953Y-285245866D01*
X160729048Y-304349566D02*
X161490953Y-304349566D01*
X161110000Y-304730519D02*
X161110000Y-303968614D01*
X158199048Y-304349566D02*
X158960953Y-304349566D01*
X211449048Y-247173866D02*
X212210953Y-247173866D01*
X213979048Y-247173866D02*
X214740953Y-247173866D01*
X214360000Y-247554819D02*
X214360000Y-246792914D01*
X167984819Y-206732475D02*
X166984819Y-206732475D01*
X166984819Y-206732475D02*
X166984819Y-206494380D01*
X166984819Y-206494380D02*
X167032438Y-206351523D01*
X167032438Y-206351523D02*
X167127676Y-206256285D01*
X167127676Y-206256285D02*
X167222914Y-206208666D01*
X167222914Y-206208666D02*
X167413390Y-206161047D01*
X167413390Y-206161047D02*
X167556247Y-206161047D01*
X167556247Y-206161047D02*
X167746723Y-206208666D01*
X167746723Y-206208666D02*
X167841961Y-206256285D01*
X167841961Y-206256285D02*
X167937200Y-206351523D01*
X167937200Y-206351523D02*
X167984819Y-206494380D01*
X167984819Y-206494380D02*
X167984819Y-206732475D01*
X167984819Y-205208666D02*
X167984819Y-205780094D01*
X167984819Y-205494380D02*
X166984819Y-205494380D01*
X166984819Y-205494380D02*
X167127676Y-205589618D01*
X167127676Y-205589618D02*
X167222914Y-205684856D01*
X167222914Y-205684856D02*
X167270533Y-205780094D01*
X166984819Y-204589618D02*
X166984819Y-204494380D01*
X166984819Y-204494380D02*
X167032438Y-204399142D01*
X167032438Y-204399142D02*
X167080057Y-204351523D01*
X167080057Y-204351523D02*
X167175295Y-204303904D01*
X167175295Y-204303904D02*
X167365771Y-204256285D01*
X167365771Y-204256285D02*
X167603866Y-204256285D01*
X167603866Y-204256285D02*
X167794342Y-204303904D01*
X167794342Y-204303904D02*
X167889580Y-204351523D01*
X167889580Y-204351523D02*
X167937200Y-204399142D01*
X167937200Y-204399142D02*
X167984819Y-204494380D01*
X167984819Y-204494380D02*
X167984819Y-204589618D01*
X167984819Y-204589618D02*
X167937200Y-204684856D01*
X167937200Y-204684856D02*
X167889580Y-204732475D01*
X167889580Y-204732475D02*
X167794342Y-204780094D01*
X167794342Y-204780094D02*
X167603866Y-204827713D01*
X167603866Y-204827713D02*
X167365771Y-204827713D01*
X167365771Y-204827713D02*
X167175295Y-204780094D01*
X167175295Y-204780094D02*
X167080057Y-204732475D01*
X167080057Y-204732475D02*
X167032438Y-204684856D01*
X167032438Y-204684856D02*
X166984819Y-204589618D01*
X167984819Y-203780094D02*
X167984819Y-203589618D01*
X167984819Y-203589618D02*
X167937200Y-203494380D01*
X167937200Y-203494380D02*
X167889580Y-203446761D01*
X167889580Y-203446761D02*
X167746723Y-203351523D01*
X167746723Y-203351523D02*
X167556247Y-203303904D01*
X167556247Y-203303904D02*
X167175295Y-203303904D01*
X167175295Y-203303904D02*
X167080057Y-203351523D01*
X167080057Y-203351523D02*
X167032438Y-203399142D01*
X167032438Y-203399142D02*
X166984819Y-203494380D01*
X166984819Y-203494380D02*
X166984819Y-203684856D01*
X166984819Y-203684856D02*
X167032438Y-203780094D01*
X167032438Y-203780094D02*
X167080057Y-203827713D01*
X167080057Y-203827713D02*
X167175295Y-203875332D01*
X167175295Y-203875332D02*
X167413390Y-203875332D01*
X167413390Y-203875332D02*
X167508628Y-203827713D01*
X167508628Y-203827713D02*
X167556247Y-203780094D01*
X167556247Y-203780094D02*
X167603866Y-203684856D01*
X167603866Y-203684856D02*
X167603866Y-203494380D01*
X167603866Y-203494380D02*
X167556247Y-203399142D01*
X167556247Y-203399142D02*
X167508628Y-203351523D01*
X167508628Y-203351523D02*
X167413390Y-203303904D01*
X165267704Y-201270571D02*
X165267704Y-200813428D01*
X165267704Y-201042000D02*
X166067704Y-201042000D01*
X166067704Y-201042000D02*
X165953419Y-200965809D01*
X165953419Y-200965809D02*
X165877228Y-200889619D01*
X165877228Y-200889619D02*
X165839133Y-200813428D01*
X375873414Y-208406819D02*
X375873414Y-207406819D01*
X375873414Y-207406819D02*
X376111509Y-207406819D01*
X376111509Y-207406819D02*
X376254366Y-207454438D01*
X376254366Y-207454438D02*
X376349604Y-207549676D01*
X376349604Y-207549676D02*
X376397223Y-207644914D01*
X376397223Y-207644914D02*
X376444842Y-207835390D01*
X376444842Y-207835390D02*
X376444842Y-207978247D01*
X376444842Y-207978247D02*
X376397223Y-208168723D01*
X376397223Y-208168723D02*
X376349604Y-208263961D01*
X376349604Y-208263961D02*
X376254366Y-208359200D01*
X376254366Y-208359200D02*
X376111509Y-208406819D01*
X376111509Y-208406819D02*
X375873414Y-208406819D01*
X377301985Y-207406819D02*
X377111509Y-207406819D01*
X377111509Y-207406819D02*
X377016271Y-207454438D01*
X377016271Y-207454438D02*
X376968652Y-207502057D01*
X376968652Y-207502057D02*
X376873414Y-207644914D01*
X376873414Y-207644914D02*
X376825795Y-207835390D01*
X376825795Y-207835390D02*
X376825795Y-208216342D01*
X376825795Y-208216342D02*
X376873414Y-208311580D01*
X376873414Y-208311580D02*
X376921033Y-208359200D01*
X376921033Y-208359200D02*
X377016271Y-208406819D01*
X377016271Y-208406819D02*
X377206747Y-208406819D01*
X377206747Y-208406819D02*
X377301985Y-208359200D01*
X377301985Y-208359200D02*
X377349604Y-208311580D01*
X377349604Y-208311580D02*
X377397223Y-208216342D01*
X377397223Y-208216342D02*
X377397223Y-207978247D01*
X377397223Y-207978247D02*
X377349604Y-207883009D01*
X377349604Y-207883009D02*
X377301985Y-207835390D01*
X377301985Y-207835390D02*
X377206747Y-207787771D01*
X377206747Y-207787771D02*
X377016271Y-207787771D01*
X377016271Y-207787771D02*
X376921033Y-207835390D01*
X376921033Y-207835390D02*
X376873414Y-207883009D01*
X376873414Y-207883009D02*
X376825795Y-207978247D01*
X378349604Y-208406819D02*
X377778176Y-208406819D01*
X378063890Y-208406819D02*
X378063890Y-207406819D01*
X378063890Y-207406819D02*
X377968652Y-207549676D01*
X377968652Y-207549676D02*
X377873414Y-207644914D01*
X377873414Y-207644914D02*
X377778176Y-207692533D01*
X380859128Y-205689704D02*
X381316271Y-205689704D01*
X381087699Y-205689704D02*
X381087699Y-206489704D01*
X381087699Y-206489704D02*
X381163890Y-206375419D01*
X381163890Y-206375419D02*
X381240080Y-206299228D01*
X381240080Y-206299228D02*
X381316271Y-206261133D01*
X250264819Y-213932475D02*
X249264819Y-213932475D01*
X249264819Y-213932475D02*
X249264819Y-213694380D01*
X249264819Y-213694380D02*
X249312438Y-213551523D01*
X249312438Y-213551523D02*
X249407676Y-213456285D01*
X249407676Y-213456285D02*
X249502914Y-213408666D01*
X249502914Y-213408666D02*
X249693390Y-213361047D01*
X249693390Y-213361047D02*
X249836247Y-213361047D01*
X249836247Y-213361047D02*
X250026723Y-213408666D01*
X250026723Y-213408666D02*
X250121961Y-213456285D01*
X250121961Y-213456285D02*
X250217200Y-213551523D01*
X250217200Y-213551523D02*
X250264819Y-213694380D01*
X250264819Y-213694380D02*
X250264819Y-213932475D01*
X250264819Y-212408666D02*
X250264819Y-212980094D01*
X250264819Y-212694380D02*
X249264819Y-212694380D01*
X249264819Y-212694380D02*
X249407676Y-212789618D01*
X249407676Y-212789618D02*
X249502914Y-212884856D01*
X249502914Y-212884856D02*
X249550533Y-212980094D01*
X250264819Y-211456285D02*
X250264819Y-212027713D01*
X250264819Y-211741999D02*
X249264819Y-211741999D01*
X249264819Y-211741999D02*
X249407676Y-211837237D01*
X249407676Y-211837237D02*
X249502914Y-211932475D01*
X249502914Y-211932475D02*
X249550533Y-212027713D01*
X250264819Y-210503904D02*
X250264819Y-211075332D01*
X250264819Y-210789618D02*
X249264819Y-210789618D01*
X249264819Y-210789618D02*
X249407676Y-210884856D01*
X249407676Y-210884856D02*
X249502914Y-210980094D01*
X249502914Y-210980094D02*
X249550533Y-211075332D01*
X252072295Y-216013428D02*
X252072295Y-216470571D01*
X252072295Y-216241999D02*
X251272295Y-216241999D01*
X251272295Y-216241999D02*
X251386580Y-216318190D01*
X251386580Y-216318190D02*
X251462771Y-216394380D01*
X251462771Y-216394380D02*
X251500866Y-216470571D01*
X251964819Y-212503904D02*
X250964819Y-212503904D01*
X251964819Y-211932476D02*
X251393390Y-212361047D01*
X250964819Y-211932476D02*
X251536247Y-212503904D01*
X199759048Y-266235866D02*
X200520953Y-266235866D01*
X200140000Y-266616819D02*
X200140000Y-265854914D01*
X197229048Y-266235866D02*
X197990953Y-266235866D01*
X411754819Y-238506166D02*
X411278628Y-238839499D01*
X411754819Y-239077594D02*
X410754819Y-239077594D01*
X410754819Y-239077594D02*
X410754819Y-238696642D01*
X410754819Y-238696642D02*
X410802438Y-238601404D01*
X410802438Y-238601404D02*
X410850057Y-238553785D01*
X410850057Y-238553785D02*
X410945295Y-238506166D01*
X410945295Y-238506166D02*
X411088152Y-238506166D01*
X411088152Y-238506166D02*
X411183390Y-238553785D01*
X411183390Y-238553785D02*
X411231009Y-238601404D01*
X411231009Y-238601404D02*
X411278628Y-238696642D01*
X411278628Y-238696642D02*
X411278628Y-239077594D01*
X411754819Y-237553785D02*
X411754819Y-238125213D01*
X411754819Y-237839499D02*
X410754819Y-237839499D01*
X410754819Y-237839499D02*
X410897676Y-237934737D01*
X410897676Y-237934737D02*
X410992914Y-238029975D01*
X410992914Y-238029975D02*
X411040533Y-238125213D01*
X192399048Y-247173866D02*
X193160953Y-247173866D01*
X194929048Y-247173866D02*
X195690953Y-247173866D01*
X195310000Y-247554819D02*
X195310000Y-246792914D01*
X281294819Y-213456285D02*
X280294819Y-213456285D01*
X280294819Y-213456285D02*
X280294819Y-213218190D01*
X280294819Y-213218190D02*
X280342438Y-213075333D01*
X280342438Y-213075333D02*
X280437676Y-212980095D01*
X280437676Y-212980095D02*
X280532914Y-212932476D01*
X280532914Y-212932476D02*
X280723390Y-212884857D01*
X280723390Y-212884857D02*
X280866247Y-212884857D01*
X280866247Y-212884857D02*
X281056723Y-212932476D01*
X281056723Y-212932476D02*
X281151961Y-212980095D01*
X281151961Y-212980095D02*
X281247200Y-213075333D01*
X281247200Y-213075333D02*
X281294819Y-213218190D01*
X281294819Y-213218190D02*
X281294819Y-213456285D01*
X281294819Y-211932476D02*
X281294819Y-212503904D01*
X281294819Y-212218190D02*
X280294819Y-212218190D01*
X280294819Y-212218190D02*
X280437676Y-212313428D01*
X280437676Y-212313428D02*
X280532914Y-212408666D01*
X280532914Y-212408666D02*
X280580533Y-212503904D01*
X281294819Y-211456285D02*
X281294819Y-211265809D01*
X281294819Y-211265809D02*
X281247200Y-211170571D01*
X281247200Y-211170571D02*
X281199580Y-211122952D01*
X281199580Y-211122952D02*
X281056723Y-211027714D01*
X281056723Y-211027714D02*
X280866247Y-210980095D01*
X280866247Y-210980095D02*
X280485295Y-210980095D01*
X280485295Y-210980095D02*
X280390057Y-211027714D01*
X280390057Y-211027714D02*
X280342438Y-211075333D01*
X280342438Y-211075333D02*
X280294819Y-211170571D01*
X280294819Y-211170571D02*
X280294819Y-211361047D01*
X280294819Y-211361047D02*
X280342438Y-211456285D01*
X280342438Y-211456285D02*
X280390057Y-211503904D01*
X280390057Y-211503904D02*
X280485295Y-211551523D01*
X280485295Y-211551523D02*
X280723390Y-211551523D01*
X280723390Y-211551523D02*
X280818628Y-211503904D01*
X280818628Y-211503904D02*
X280866247Y-211456285D01*
X280866247Y-211456285D02*
X280913866Y-211361047D01*
X280913866Y-211361047D02*
X280913866Y-211170571D01*
X280913866Y-211170571D02*
X280866247Y-211075333D01*
X280866247Y-211075333D02*
X280818628Y-211027714D01*
X280818628Y-211027714D02*
X280723390Y-210980095D01*
X283102295Y-216013428D02*
X283102295Y-216470571D01*
X283102295Y-216241999D02*
X282302295Y-216241999D01*
X282302295Y-216241999D02*
X282416580Y-216318190D01*
X282416580Y-216318190D02*
X282492771Y-216394380D01*
X282492771Y-216394380D02*
X282530866Y-216470571D01*
X328259048Y-304325866D02*
X329020953Y-304325866D01*
X328640000Y-304706819D02*
X328640000Y-303944914D01*
X325729048Y-304325866D02*
X326490953Y-304325866D01*
X123379048Y-267305866D02*
X124140953Y-267305866D01*
X125909048Y-267305866D02*
X126670953Y-267305866D01*
X126290000Y-267686819D02*
X126290000Y-266924914D01*
X316149048Y-228045866D02*
X316910953Y-228045866D01*
X318679048Y-228045866D02*
X319440953Y-228045866D01*
X319060000Y-228426819D02*
X319060000Y-227664914D01*
X125729048Y-228115866D02*
X126490953Y-228115866D01*
X128259048Y-228115866D02*
X129020953Y-228115866D01*
X128640000Y-228496819D02*
X128640000Y-227734914D01*
X196359048Y-207165866D02*
X197120953Y-207165866D01*
X198889048Y-207165866D02*
X199650953Y-207165866D01*
X199270000Y-207546819D02*
X199270000Y-206784914D01*
X235339048Y-266255866D02*
X236100953Y-266255866D01*
X237869048Y-266255866D02*
X238630953Y-266255866D01*
X238250000Y-266636819D02*
X238250000Y-265874914D01*
X107734819Y-207746285D02*
X106734819Y-207746285D01*
X106734819Y-207746285D02*
X106734819Y-207508190D01*
X106734819Y-207508190D02*
X106782438Y-207365333D01*
X106782438Y-207365333D02*
X106877676Y-207270095D01*
X106877676Y-207270095D02*
X106972914Y-207222476D01*
X106972914Y-207222476D02*
X107163390Y-207174857D01*
X107163390Y-207174857D02*
X107306247Y-207174857D01*
X107306247Y-207174857D02*
X107496723Y-207222476D01*
X107496723Y-207222476D02*
X107591961Y-207270095D01*
X107591961Y-207270095D02*
X107687200Y-207365333D01*
X107687200Y-207365333D02*
X107734819Y-207508190D01*
X107734819Y-207508190D02*
X107734819Y-207746285D01*
X106830057Y-206793904D02*
X106782438Y-206746285D01*
X106782438Y-206746285D02*
X106734819Y-206651047D01*
X106734819Y-206651047D02*
X106734819Y-206412952D01*
X106734819Y-206412952D02*
X106782438Y-206317714D01*
X106782438Y-206317714D02*
X106830057Y-206270095D01*
X106830057Y-206270095D02*
X106925295Y-206222476D01*
X106925295Y-206222476D02*
X107020533Y-206222476D01*
X107020533Y-206222476D02*
X107163390Y-206270095D01*
X107163390Y-206270095D02*
X107734819Y-206841523D01*
X107734819Y-206841523D02*
X107734819Y-206222476D01*
X107163390Y-205651047D02*
X107115771Y-205746285D01*
X107115771Y-205746285D02*
X107068152Y-205793904D01*
X107068152Y-205793904D02*
X106972914Y-205841523D01*
X106972914Y-205841523D02*
X106925295Y-205841523D01*
X106925295Y-205841523D02*
X106830057Y-205793904D01*
X106830057Y-205793904D02*
X106782438Y-205746285D01*
X106782438Y-205746285D02*
X106734819Y-205651047D01*
X106734819Y-205651047D02*
X106734819Y-205460571D01*
X106734819Y-205460571D02*
X106782438Y-205365333D01*
X106782438Y-205365333D02*
X106830057Y-205317714D01*
X106830057Y-205317714D02*
X106925295Y-205270095D01*
X106925295Y-205270095D02*
X106972914Y-205270095D01*
X106972914Y-205270095D02*
X107068152Y-205317714D01*
X107068152Y-205317714D02*
X107115771Y-205365333D01*
X107115771Y-205365333D02*
X107163390Y-205460571D01*
X107163390Y-205460571D02*
X107163390Y-205651047D01*
X107163390Y-205651047D02*
X107211009Y-205746285D01*
X107211009Y-205746285D02*
X107258628Y-205793904D01*
X107258628Y-205793904D02*
X107353866Y-205841523D01*
X107353866Y-205841523D02*
X107544342Y-205841523D01*
X107544342Y-205841523D02*
X107639580Y-205793904D01*
X107639580Y-205793904D02*
X107687200Y-205746285D01*
X107687200Y-205746285D02*
X107734819Y-205651047D01*
X107734819Y-205651047D02*
X107734819Y-205460571D01*
X107734819Y-205460571D02*
X107687200Y-205365333D01*
X107687200Y-205365333D02*
X107639580Y-205317714D01*
X107639580Y-205317714D02*
X107544342Y-205270095D01*
X107544342Y-205270095D02*
X107353866Y-205270095D01*
X107353866Y-205270095D02*
X107258628Y-205317714D01*
X107258628Y-205317714D02*
X107211009Y-205365333D01*
X107211009Y-205365333D02*
X107163390Y-205460571D01*
X106034819Y-206793904D02*
X105034819Y-206793904D01*
X106034819Y-206222476D02*
X105463390Y-206651047D01*
X105034819Y-206222476D02*
X105606247Y-206793904D01*
X105017704Y-202760571D02*
X105017704Y-202303428D01*
X105017704Y-202532000D02*
X105817704Y-202532000D01*
X105817704Y-202532000D02*
X105703419Y-202455809D01*
X105703419Y-202455809D02*
X105627228Y-202379619D01*
X105627228Y-202379619D02*
X105589133Y-202303428D01*
X264069048Y-285275866D02*
X264830953Y-285275866D01*
X264450000Y-285656819D02*
X264450000Y-284894914D01*
X261539048Y-285275866D02*
X262300953Y-285275866D01*
X280729048Y-228095866D02*
X281490953Y-228095866D01*
X281110000Y-228476819D02*
X281110000Y-227714914D01*
X278199048Y-228095866D02*
X278960953Y-228095866D01*
X178159048Y-266215866D02*
X178920953Y-266215866D01*
X180689048Y-266215866D02*
X181450953Y-266215866D01*
X181070000Y-266596819D02*
X181070000Y-265834914D01*
X175814819Y-206812475D02*
X174814819Y-206812475D01*
X174814819Y-206812475D02*
X174814819Y-206574380D01*
X174814819Y-206574380D02*
X174862438Y-206431523D01*
X174862438Y-206431523D02*
X174957676Y-206336285D01*
X174957676Y-206336285D02*
X175052914Y-206288666D01*
X175052914Y-206288666D02*
X175243390Y-206241047D01*
X175243390Y-206241047D02*
X175386247Y-206241047D01*
X175386247Y-206241047D02*
X175576723Y-206288666D01*
X175576723Y-206288666D02*
X175671961Y-206336285D01*
X175671961Y-206336285D02*
X175767200Y-206431523D01*
X175767200Y-206431523D02*
X175814819Y-206574380D01*
X175814819Y-206574380D02*
X175814819Y-206812475D01*
X175814819Y-205288666D02*
X175814819Y-205860094D01*
X175814819Y-205574380D02*
X174814819Y-205574380D01*
X174814819Y-205574380D02*
X174957676Y-205669618D01*
X174957676Y-205669618D02*
X175052914Y-205764856D01*
X175052914Y-205764856D02*
X175100533Y-205860094D01*
X174814819Y-204669618D02*
X174814819Y-204574380D01*
X174814819Y-204574380D02*
X174862438Y-204479142D01*
X174862438Y-204479142D02*
X174910057Y-204431523D01*
X174910057Y-204431523D02*
X175005295Y-204383904D01*
X175005295Y-204383904D02*
X175195771Y-204336285D01*
X175195771Y-204336285D02*
X175433866Y-204336285D01*
X175433866Y-204336285D02*
X175624342Y-204383904D01*
X175624342Y-204383904D02*
X175719580Y-204431523D01*
X175719580Y-204431523D02*
X175767200Y-204479142D01*
X175767200Y-204479142D02*
X175814819Y-204574380D01*
X175814819Y-204574380D02*
X175814819Y-204669618D01*
X175814819Y-204669618D02*
X175767200Y-204764856D01*
X175767200Y-204764856D02*
X175719580Y-204812475D01*
X175719580Y-204812475D02*
X175624342Y-204860094D01*
X175624342Y-204860094D02*
X175433866Y-204907713D01*
X175433866Y-204907713D02*
X175195771Y-204907713D01*
X175195771Y-204907713D02*
X175005295Y-204860094D01*
X175005295Y-204860094D02*
X174910057Y-204812475D01*
X174910057Y-204812475D02*
X174862438Y-204764856D01*
X174862438Y-204764856D02*
X174814819Y-204669618D01*
X175243390Y-203764856D02*
X175195771Y-203860094D01*
X175195771Y-203860094D02*
X175148152Y-203907713D01*
X175148152Y-203907713D02*
X175052914Y-203955332D01*
X175052914Y-203955332D02*
X175005295Y-203955332D01*
X175005295Y-203955332D02*
X174910057Y-203907713D01*
X174910057Y-203907713D02*
X174862438Y-203860094D01*
X174862438Y-203860094D02*
X174814819Y-203764856D01*
X174814819Y-203764856D02*
X174814819Y-203574380D01*
X174814819Y-203574380D02*
X174862438Y-203479142D01*
X174862438Y-203479142D02*
X174910057Y-203431523D01*
X174910057Y-203431523D02*
X175005295Y-203383904D01*
X175005295Y-203383904D02*
X175052914Y-203383904D01*
X175052914Y-203383904D02*
X175148152Y-203431523D01*
X175148152Y-203431523D02*
X175195771Y-203479142D01*
X175195771Y-203479142D02*
X175243390Y-203574380D01*
X175243390Y-203574380D02*
X175243390Y-203764856D01*
X175243390Y-203764856D02*
X175291009Y-203860094D01*
X175291009Y-203860094D02*
X175338628Y-203907713D01*
X175338628Y-203907713D02*
X175433866Y-203955332D01*
X175433866Y-203955332D02*
X175624342Y-203955332D01*
X175624342Y-203955332D02*
X175719580Y-203907713D01*
X175719580Y-203907713D02*
X175767200Y-203860094D01*
X175767200Y-203860094D02*
X175814819Y-203764856D01*
X175814819Y-203764856D02*
X175814819Y-203574380D01*
X175814819Y-203574380D02*
X175767200Y-203479142D01*
X175767200Y-203479142D02*
X175719580Y-203431523D01*
X175719580Y-203431523D02*
X175624342Y-203383904D01*
X175624342Y-203383904D02*
X175433866Y-203383904D01*
X175433866Y-203383904D02*
X175338628Y-203431523D01*
X175338628Y-203431523D02*
X175291009Y-203479142D01*
X175291009Y-203479142D02*
X175243390Y-203574380D01*
X173097704Y-201350571D02*
X173097704Y-200893428D01*
X173097704Y-201122000D02*
X173897704Y-201122000D01*
X173897704Y-201122000D02*
X173783419Y-201045809D01*
X173783419Y-201045809D02*
X173707228Y-200969619D01*
X173707228Y-200969619D02*
X173669133Y-200893428D01*
X328279048Y-247165866D02*
X329040953Y-247165866D01*
X328660000Y-247546819D02*
X328660000Y-246784914D01*
X325749048Y-247165866D02*
X326510953Y-247165866D01*
X383589048Y-229179566D02*
X384350953Y-229179566D01*
X386119048Y-229179566D02*
X386880953Y-229179566D01*
X386500000Y-229560519D02*
X386500000Y-228798614D01*
X131914819Y-204056285D02*
X130914819Y-204056285D01*
X130914819Y-204056285D02*
X130914819Y-203818190D01*
X130914819Y-203818190D02*
X130962438Y-203675333D01*
X130962438Y-203675333D02*
X131057676Y-203580095D01*
X131057676Y-203580095D02*
X131152914Y-203532476D01*
X131152914Y-203532476D02*
X131343390Y-203484857D01*
X131343390Y-203484857D02*
X131486247Y-203484857D01*
X131486247Y-203484857D02*
X131676723Y-203532476D01*
X131676723Y-203532476D02*
X131771961Y-203580095D01*
X131771961Y-203580095D02*
X131867200Y-203675333D01*
X131867200Y-203675333D02*
X131914819Y-203818190D01*
X131914819Y-203818190D02*
X131914819Y-204056285D01*
X130914819Y-202627714D02*
X130914819Y-202818190D01*
X130914819Y-202818190D02*
X130962438Y-202913428D01*
X130962438Y-202913428D02*
X131010057Y-202961047D01*
X131010057Y-202961047D02*
X131152914Y-203056285D01*
X131152914Y-203056285D02*
X131343390Y-203103904D01*
X131343390Y-203103904D02*
X131724342Y-203103904D01*
X131724342Y-203103904D02*
X131819580Y-203056285D01*
X131819580Y-203056285D02*
X131867200Y-203008666D01*
X131867200Y-203008666D02*
X131914819Y-202913428D01*
X131914819Y-202913428D02*
X131914819Y-202722952D01*
X131914819Y-202722952D02*
X131867200Y-202627714D01*
X131867200Y-202627714D02*
X131819580Y-202580095D01*
X131819580Y-202580095D02*
X131724342Y-202532476D01*
X131724342Y-202532476D02*
X131486247Y-202532476D01*
X131486247Y-202532476D02*
X131391009Y-202580095D01*
X131391009Y-202580095D02*
X131343390Y-202627714D01*
X131343390Y-202627714D02*
X131295771Y-202722952D01*
X131295771Y-202722952D02*
X131295771Y-202913428D01*
X131295771Y-202913428D02*
X131343390Y-203008666D01*
X131343390Y-203008666D02*
X131391009Y-203056285D01*
X131391009Y-203056285D02*
X131486247Y-203103904D01*
X131914819Y-202056285D02*
X131914819Y-201865809D01*
X131914819Y-201865809D02*
X131867200Y-201770571D01*
X131867200Y-201770571D02*
X131819580Y-201722952D01*
X131819580Y-201722952D02*
X131676723Y-201627714D01*
X131676723Y-201627714D02*
X131486247Y-201580095D01*
X131486247Y-201580095D02*
X131105295Y-201580095D01*
X131105295Y-201580095D02*
X131010057Y-201627714D01*
X131010057Y-201627714D02*
X130962438Y-201675333D01*
X130962438Y-201675333D02*
X130914819Y-201770571D01*
X130914819Y-201770571D02*
X130914819Y-201961047D01*
X130914819Y-201961047D02*
X130962438Y-202056285D01*
X130962438Y-202056285D02*
X131010057Y-202103904D01*
X131010057Y-202103904D02*
X131105295Y-202151523D01*
X131105295Y-202151523D02*
X131343390Y-202151523D01*
X131343390Y-202151523D02*
X131438628Y-202103904D01*
X131438628Y-202103904D02*
X131486247Y-202056285D01*
X131486247Y-202056285D02*
X131533866Y-201961047D01*
X131533866Y-201961047D02*
X131533866Y-201770571D01*
X131533866Y-201770571D02*
X131486247Y-201675333D01*
X131486247Y-201675333D02*
X131438628Y-201627714D01*
X131438628Y-201627714D02*
X131343390Y-201580095D01*
X133614819Y-203103904D02*
X132614819Y-203103904D01*
X133614819Y-202532476D02*
X133043390Y-202961047D01*
X132614819Y-202532476D02*
X133186247Y-203103904D01*
X133722295Y-206613428D02*
X133722295Y-207070571D01*
X133722295Y-206841999D02*
X132922295Y-206841999D01*
X132922295Y-206841999D02*
X133036580Y-206918190D01*
X133036580Y-206918190D02*
X133112771Y-206994380D01*
X133112771Y-206994380D02*
X133150866Y-207070571D01*
X182879048Y-228115866D02*
X183640953Y-228115866D01*
X185409048Y-228115866D02*
X186170953Y-228115866D01*
X185790000Y-228496819D02*
X185790000Y-227734914D01*
X352003414Y-208116819D02*
X352003414Y-207116819D01*
X352003414Y-207116819D02*
X352241509Y-207116819D01*
X352241509Y-207116819D02*
X352384366Y-207164438D01*
X352384366Y-207164438D02*
X352479604Y-207259676D01*
X352479604Y-207259676D02*
X352527223Y-207354914D01*
X352527223Y-207354914D02*
X352574842Y-207545390D01*
X352574842Y-207545390D02*
X352574842Y-207688247D01*
X352574842Y-207688247D02*
X352527223Y-207878723D01*
X352527223Y-207878723D02*
X352479604Y-207973961D01*
X352479604Y-207973961D02*
X352384366Y-208069200D01*
X352384366Y-208069200D02*
X352241509Y-208116819D01*
X352241509Y-208116819D02*
X352003414Y-208116819D01*
X352908176Y-207116819D02*
X353527223Y-207116819D01*
X353527223Y-207116819D02*
X353193890Y-207497771D01*
X353193890Y-207497771D02*
X353336747Y-207497771D01*
X353336747Y-207497771D02*
X353431985Y-207545390D01*
X353431985Y-207545390D02*
X353479604Y-207593009D01*
X353479604Y-207593009D02*
X353527223Y-207688247D01*
X353527223Y-207688247D02*
X353527223Y-207926342D01*
X353527223Y-207926342D02*
X353479604Y-208021580D01*
X353479604Y-208021580D02*
X353431985Y-208069200D01*
X353431985Y-208069200D02*
X353336747Y-208116819D01*
X353336747Y-208116819D02*
X353051033Y-208116819D01*
X353051033Y-208116819D02*
X352955795Y-208069200D01*
X352955795Y-208069200D02*
X352908176Y-208021580D01*
X354384366Y-207116819D02*
X354193890Y-207116819D01*
X354193890Y-207116819D02*
X354098652Y-207164438D01*
X354098652Y-207164438D02*
X354051033Y-207212057D01*
X354051033Y-207212057D02*
X353955795Y-207354914D01*
X353955795Y-207354914D02*
X353908176Y-207545390D01*
X353908176Y-207545390D02*
X353908176Y-207926342D01*
X353908176Y-207926342D02*
X353955795Y-208021580D01*
X353955795Y-208021580D02*
X354003414Y-208069200D01*
X354003414Y-208069200D02*
X354098652Y-208116819D01*
X354098652Y-208116819D02*
X354289128Y-208116819D01*
X354289128Y-208116819D02*
X354384366Y-208069200D01*
X354384366Y-208069200D02*
X354431985Y-208021580D01*
X354431985Y-208021580D02*
X354479604Y-207926342D01*
X354479604Y-207926342D02*
X354479604Y-207688247D01*
X354479604Y-207688247D02*
X354431985Y-207593009D01*
X354431985Y-207593009D02*
X354384366Y-207545390D01*
X354384366Y-207545390D02*
X354289128Y-207497771D01*
X354289128Y-207497771D02*
X354098652Y-207497771D01*
X354098652Y-207497771D02*
X354003414Y-207545390D01*
X354003414Y-207545390D02*
X353955795Y-207593009D01*
X353955795Y-207593009D02*
X353908176Y-207688247D01*
X349446271Y-209924295D02*
X348989128Y-209924295D01*
X349217700Y-209924295D02*
X349217700Y-209124295D01*
X349217700Y-209124295D02*
X349141509Y-209238580D01*
X349141509Y-209238580D02*
X349065319Y-209314771D01*
X349065319Y-209314771D02*
X348989128Y-209352866D01*
X233029048Y-247173866D02*
X233790953Y-247173866D01*
X233410000Y-247554819D02*
X233410000Y-246792914D01*
X230499048Y-247173866D02*
X231260953Y-247173866D01*
X328123414Y-208246819D02*
X328123414Y-207246819D01*
X328123414Y-207246819D02*
X328361509Y-207246819D01*
X328361509Y-207246819D02*
X328504366Y-207294438D01*
X328504366Y-207294438D02*
X328599604Y-207389676D01*
X328599604Y-207389676D02*
X328647223Y-207484914D01*
X328647223Y-207484914D02*
X328694842Y-207675390D01*
X328694842Y-207675390D02*
X328694842Y-207818247D01*
X328694842Y-207818247D02*
X328647223Y-208008723D01*
X328647223Y-208008723D02*
X328599604Y-208103961D01*
X328599604Y-208103961D02*
X328504366Y-208199200D01*
X328504366Y-208199200D02*
X328361509Y-208246819D01*
X328361509Y-208246819D02*
X328123414Y-208246819D01*
X329599604Y-207246819D02*
X329123414Y-207246819D01*
X329123414Y-207246819D02*
X329075795Y-207723009D01*
X329075795Y-207723009D02*
X329123414Y-207675390D01*
X329123414Y-207675390D02*
X329218652Y-207627771D01*
X329218652Y-207627771D02*
X329456747Y-207627771D01*
X329456747Y-207627771D02*
X329551985Y-207675390D01*
X329551985Y-207675390D02*
X329599604Y-207723009D01*
X329599604Y-207723009D02*
X329647223Y-207818247D01*
X329647223Y-207818247D02*
X329647223Y-208056342D01*
X329647223Y-208056342D02*
X329599604Y-208151580D01*
X329599604Y-208151580D02*
X329551985Y-208199200D01*
X329551985Y-208199200D02*
X329456747Y-208246819D01*
X329456747Y-208246819D02*
X329218652Y-208246819D01*
X329218652Y-208246819D02*
X329123414Y-208199200D01*
X329123414Y-208199200D02*
X329075795Y-208151580D01*
X330028176Y-207342057D02*
X330075795Y-207294438D01*
X330075795Y-207294438D02*
X330171033Y-207246819D01*
X330171033Y-207246819D02*
X330409128Y-207246819D01*
X330409128Y-207246819D02*
X330504366Y-207294438D01*
X330504366Y-207294438D02*
X330551985Y-207342057D01*
X330551985Y-207342057D02*
X330599604Y-207437295D01*
X330599604Y-207437295D02*
X330599604Y-207532533D01*
X330599604Y-207532533D02*
X330551985Y-207675390D01*
X330551985Y-207675390D02*
X329980557Y-208246819D01*
X329980557Y-208246819D02*
X330599604Y-208246819D01*
X325566271Y-210054295D02*
X325109128Y-210054295D01*
X325337700Y-210054295D02*
X325337700Y-209254295D01*
X325337700Y-209254295D02*
X325261509Y-209368580D01*
X325261509Y-209368580D02*
X325185319Y-209444771D01*
X325185319Y-209444771D02*
X325109128Y-209482866D01*
X223439048Y-285255866D02*
X224200953Y-285255866D01*
X225969048Y-285255866D02*
X226730953Y-285255866D01*
X226350000Y-285636819D02*
X226350000Y-284874914D01*
X154299048Y-247173866D02*
X155060953Y-247173866D01*
X156829048Y-247173866D02*
X157590953Y-247173866D01*
X157210000Y-247554819D02*
X157210000Y-246792914D01*
X166359048Y-228115866D02*
X167120953Y-228115866D01*
X166740000Y-228496819D02*
X166740000Y-227734914D01*
X163829048Y-228115866D02*
X164590953Y-228115866D01*
X159654819Y-206842475D02*
X158654819Y-206842475D01*
X158654819Y-206842475D02*
X158654819Y-206604380D01*
X158654819Y-206604380D02*
X158702438Y-206461523D01*
X158702438Y-206461523D02*
X158797676Y-206366285D01*
X158797676Y-206366285D02*
X158892914Y-206318666D01*
X158892914Y-206318666D02*
X159083390Y-206271047D01*
X159083390Y-206271047D02*
X159226247Y-206271047D01*
X159226247Y-206271047D02*
X159416723Y-206318666D01*
X159416723Y-206318666D02*
X159511961Y-206366285D01*
X159511961Y-206366285D02*
X159607200Y-206461523D01*
X159607200Y-206461523D02*
X159654819Y-206604380D01*
X159654819Y-206604380D02*
X159654819Y-206842475D01*
X159654819Y-205318666D02*
X159654819Y-205890094D01*
X159654819Y-205604380D02*
X158654819Y-205604380D01*
X158654819Y-205604380D02*
X158797676Y-205699618D01*
X158797676Y-205699618D02*
X158892914Y-205794856D01*
X158892914Y-205794856D02*
X158940533Y-205890094D01*
X159654819Y-204366285D02*
X159654819Y-204937713D01*
X159654819Y-204651999D02*
X158654819Y-204651999D01*
X158654819Y-204651999D02*
X158797676Y-204747237D01*
X158797676Y-204747237D02*
X158892914Y-204842475D01*
X158892914Y-204842475D02*
X158940533Y-204937713D01*
X158654819Y-203461523D02*
X158654819Y-203937713D01*
X158654819Y-203937713D02*
X159131009Y-203985332D01*
X159131009Y-203985332D02*
X159083390Y-203937713D01*
X159083390Y-203937713D02*
X159035771Y-203842475D01*
X159035771Y-203842475D02*
X159035771Y-203604380D01*
X159035771Y-203604380D02*
X159083390Y-203509142D01*
X159083390Y-203509142D02*
X159131009Y-203461523D01*
X159131009Y-203461523D02*
X159226247Y-203413904D01*
X159226247Y-203413904D02*
X159464342Y-203413904D01*
X159464342Y-203413904D02*
X159559580Y-203461523D01*
X159559580Y-203461523D02*
X159607200Y-203509142D01*
X159607200Y-203509142D02*
X159654819Y-203604380D01*
X159654819Y-203604380D02*
X159654819Y-203842475D01*
X159654819Y-203842475D02*
X159607200Y-203937713D01*
X159607200Y-203937713D02*
X159559580Y-203985332D01*
X156937704Y-201380571D02*
X156937704Y-200923428D01*
X156937704Y-201152000D02*
X157737704Y-201152000D01*
X157737704Y-201152000D02*
X157623419Y-201075809D01*
X157623419Y-201075809D02*
X157547228Y-200999619D01*
X157547228Y-200999619D02*
X157509133Y-200923428D01*
X321229048Y-285265866D02*
X321990953Y-285265866D01*
X321610000Y-285646819D02*
X321610000Y-284884914D01*
X318699048Y-285265866D02*
X319460953Y-285265866D01*
X254369048Y-266205866D02*
X255130953Y-266205866D01*
X256899048Y-266205866D02*
X257660953Y-266205866D01*
X257280000Y-266586819D02*
X257280000Y-265824914D01*
X360123414Y-208116819D02*
X360123414Y-207116819D01*
X360123414Y-207116819D02*
X360361509Y-207116819D01*
X360361509Y-207116819D02*
X360504366Y-207164438D01*
X360504366Y-207164438D02*
X360599604Y-207259676D01*
X360599604Y-207259676D02*
X360647223Y-207354914D01*
X360647223Y-207354914D02*
X360694842Y-207545390D01*
X360694842Y-207545390D02*
X360694842Y-207688247D01*
X360694842Y-207688247D02*
X360647223Y-207878723D01*
X360647223Y-207878723D02*
X360599604Y-207973961D01*
X360599604Y-207973961D02*
X360504366Y-208069200D01*
X360504366Y-208069200D02*
X360361509Y-208116819D01*
X360361509Y-208116819D02*
X360123414Y-208116819D01*
X361028176Y-207116819D02*
X361694842Y-207116819D01*
X361694842Y-207116819D02*
X361266271Y-208116819D01*
X362266271Y-207116819D02*
X362361509Y-207116819D01*
X362361509Y-207116819D02*
X362456747Y-207164438D01*
X362456747Y-207164438D02*
X362504366Y-207212057D01*
X362504366Y-207212057D02*
X362551985Y-207307295D01*
X362551985Y-207307295D02*
X362599604Y-207497771D01*
X362599604Y-207497771D02*
X362599604Y-207735866D01*
X362599604Y-207735866D02*
X362551985Y-207926342D01*
X362551985Y-207926342D02*
X362504366Y-208021580D01*
X362504366Y-208021580D02*
X362456747Y-208069200D01*
X362456747Y-208069200D02*
X362361509Y-208116819D01*
X362361509Y-208116819D02*
X362266271Y-208116819D01*
X362266271Y-208116819D02*
X362171033Y-208069200D01*
X362171033Y-208069200D02*
X362123414Y-208021580D01*
X362123414Y-208021580D02*
X362075795Y-207926342D01*
X362075795Y-207926342D02*
X362028176Y-207735866D01*
X362028176Y-207735866D02*
X362028176Y-207497771D01*
X362028176Y-207497771D02*
X362075795Y-207307295D01*
X362075795Y-207307295D02*
X362123414Y-207212057D01*
X362123414Y-207212057D02*
X362171033Y-207164438D01*
X362171033Y-207164438D02*
X362266271Y-207116819D01*
X357566271Y-209924295D02*
X357109128Y-209924295D01*
X357337700Y-209924295D02*
X357337700Y-209124295D01*
X357337700Y-209124295D02*
X357261509Y-209238580D01*
X357261509Y-209238580D02*
X357185319Y-209314771D01*
X357185319Y-209314771D02*
X357109128Y-209352866D01*
X206909048Y-285275866D02*
X207670953Y-285275866D01*
X207290000Y-285656819D02*
X207290000Y-284894914D01*
X204379048Y-285275866D02*
X205140953Y-285275866D01*
X398264819Y-213742475D02*
X397264819Y-213742475D01*
X397264819Y-213742475D02*
X397264819Y-213504380D01*
X397264819Y-213504380D02*
X397312438Y-213361523D01*
X397312438Y-213361523D02*
X397407676Y-213266285D01*
X397407676Y-213266285D02*
X397502914Y-213218666D01*
X397502914Y-213218666D02*
X397693390Y-213171047D01*
X397693390Y-213171047D02*
X397836247Y-213171047D01*
X397836247Y-213171047D02*
X398026723Y-213218666D01*
X398026723Y-213218666D02*
X398121961Y-213266285D01*
X398121961Y-213266285D02*
X398217200Y-213361523D01*
X398217200Y-213361523D02*
X398264819Y-213504380D01*
X398264819Y-213504380D02*
X398264819Y-213742475D01*
X398264819Y-212218666D02*
X398264819Y-212790094D01*
X398264819Y-212504380D02*
X397264819Y-212504380D01*
X397264819Y-212504380D02*
X397407676Y-212599618D01*
X397407676Y-212599618D02*
X397502914Y-212694856D01*
X397502914Y-212694856D02*
X397550533Y-212790094D01*
X397264819Y-211599618D02*
X397264819Y-211504380D01*
X397264819Y-211504380D02*
X397312438Y-211409142D01*
X397312438Y-211409142D02*
X397360057Y-211361523D01*
X397360057Y-211361523D02*
X397455295Y-211313904D01*
X397455295Y-211313904D02*
X397645771Y-211266285D01*
X397645771Y-211266285D02*
X397883866Y-211266285D01*
X397883866Y-211266285D02*
X398074342Y-211313904D01*
X398074342Y-211313904D02*
X398169580Y-211361523D01*
X398169580Y-211361523D02*
X398217200Y-211409142D01*
X398217200Y-211409142D02*
X398264819Y-211504380D01*
X398264819Y-211504380D02*
X398264819Y-211599618D01*
X398264819Y-211599618D02*
X398217200Y-211694856D01*
X398217200Y-211694856D02*
X398169580Y-211742475D01*
X398169580Y-211742475D02*
X398074342Y-211790094D01*
X398074342Y-211790094D02*
X397883866Y-211837713D01*
X397883866Y-211837713D02*
X397645771Y-211837713D01*
X397645771Y-211837713D02*
X397455295Y-211790094D01*
X397455295Y-211790094D02*
X397360057Y-211742475D01*
X397360057Y-211742475D02*
X397312438Y-211694856D01*
X397312438Y-211694856D02*
X397264819Y-211599618D01*
X397360057Y-210885332D02*
X397312438Y-210837713D01*
X397312438Y-210837713D02*
X397264819Y-210742475D01*
X397264819Y-210742475D02*
X397264819Y-210504380D01*
X397264819Y-210504380D02*
X397312438Y-210409142D01*
X397312438Y-210409142D02*
X397360057Y-210361523D01*
X397360057Y-210361523D02*
X397455295Y-210313904D01*
X397455295Y-210313904D02*
X397550533Y-210313904D01*
X397550533Y-210313904D02*
X397693390Y-210361523D01*
X397693390Y-210361523D02*
X398264819Y-210932951D01*
X398264819Y-210932951D02*
X398264819Y-210313904D01*
X395547704Y-208280571D02*
X395547704Y-207823428D01*
X395547704Y-208052000D02*
X396347704Y-208052000D01*
X396347704Y-208052000D02*
X396233419Y-207975809D01*
X396233419Y-207975809D02*
X396157228Y-207899619D01*
X396157228Y-207899619D02*
X396119133Y-207823428D01*
X147309048Y-228115866D02*
X148070953Y-228115866D01*
X147690000Y-228496819D02*
X147690000Y-227734914D01*
X144779048Y-228115866D02*
X145540953Y-228115866D01*
X383915712Y-201346819D02*
X383915712Y-200346819D01*
X383915712Y-200346819D02*
X384153807Y-200346819D01*
X384153807Y-200346819D02*
X384296664Y-200394438D01*
X384296664Y-200394438D02*
X384391902Y-200489676D01*
X384391902Y-200489676D02*
X384439521Y-200584914D01*
X384439521Y-200584914D02*
X384487140Y-200775390D01*
X384487140Y-200775390D02*
X384487140Y-200918247D01*
X384487140Y-200918247D02*
X384439521Y-201108723D01*
X384439521Y-201108723D02*
X384391902Y-201203961D01*
X384391902Y-201203961D02*
X384296664Y-201299200D01*
X384296664Y-201299200D02*
X384153807Y-201346819D01*
X384153807Y-201346819D02*
X383915712Y-201346819D01*
X384868093Y-200442057D02*
X384915712Y-200394438D01*
X384915712Y-200394438D02*
X385010950Y-200346819D01*
X385010950Y-200346819D02*
X385249045Y-200346819D01*
X385249045Y-200346819D02*
X385344283Y-200394438D01*
X385344283Y-200394438D02*
X385391902Y-200442057D01*
X385391902Y-200442057D02*
X385439521Y-200537295D01*
X385439521Y-200537295D02*
X385439521Y-200632533D01*
X385439521Y-200632533D02*
X385391902Y-200775390D01*
X385391902Y-200775390D02*
X384820474Y-201346819D01*
X384820474Y-201346819D02*
X385439521Y-201346819D01*
X385915712Y-201346819D02*
X386106188Y-201346819D01*
X386106188Y-201346819D02*
X386201426Y-201299200D01*
X386201426Y-201299200D02*
X386249045Y-201251580D01*
X386249045Y-201251580D02*
X386344283Y-201108723D01*
X386344283Y-201108723D02*
X386391902Y-200918247D01*
X386391902Y-200918247D02*
X386391902Y-200537295D01*
X386391902Y-200537295D02*
X386344283Y-200442057D01*
X386344283Y-200442057D02*
X386296664Y-200394438D01*
X386296664Y-200394438D02*
X386201426Y-200346819D01*
X386201426Y-200346819D02*
X386010950Y-200346819D01*
X386010950Y-200346819D02*
X385915712Y-200394438D01*
X385915712Y-200394438D02*
X385868093Y-200442057D01*
X385868093Y-200442057D02*
X385820474Y-200537295D01*
X385820474Y-200537295D02*
X385820474Y-200775390D01*
X385820474Y-200775390D02*
X385868093Y-200870628D01*
X385868093Y-200870628D02*
X385915712Y-200918247D01*
X385915712Y-200918247D02*
X386010950Y-200965866D01*
X386010950Y-200965866D02*
X386201426Y-200965866D01*
X386201426Y-200965866D02*
X386296664Y-200918247D01*
X386296664Y-200918247D02*
X386344283Y-200870628D01*
X386344283Y-200870628D02*
X386391902Y-200775390D01*
X388979128Y-205689704D02*
X389436271Y-205689704D01*
X389207699Y-205689704D02*
X389207699Y-206489704D01*
X389207699Y-206489704D02*
X389283890Y-206375419D01*
X389283890Y-206375419D02*
X389360080Y-206299228D01*
X389360080Y-206299228D02*
X389436271Y-206261133D01*
X336243414Y-208246819D02*
X336243414Y-207246819D01*
X336243414Y-207246819D02*
X336481509Y-207246819D01*
X336481509Y-207246819D02*
X336624366Y-207294438D01*
X336624366Y-207294438D02*
X336719604Y-207389676D01*
X336719604Y-207389676D02*
X336767223Y-207484914D01*
X336767223Y-207484914D02*
X336814842Y-207675390D01*
X336814842Y-207675390D02*
X336814842Y-207818247D01*
X336814842Y-207818247D02*
X336767223Y-208008723D01*
X336767223Y-208008723D02*
X336719604Y-208103961D01*
X336719604Y-208103961D02*
X336624366Y-208199200D01*
X336624366Y-208199200D02*
X336481509Y-208246819D01*
X336481509Y-208246819D02*
X336243414Y-208246819D01*
X337386271Y-207675390D02*
X337291033Y-207627771D01*
X337291033Y-207627771D02*
X337243414Y-207580152D01*
X337243414Y-207580152D02*
X337195795Y-207484914D01*
X337195795Y-207484914D02*
X337195795Y-207437295D01*
X337195795Y-207437295D02*
X337243414Y-207342057D01*
X337243414Y-207342057D02*
X337291033Y-207294438D01*
X337291033Y-207294438D02*
X337386271Y-207246819D01*
X337386271Y-207246819D02*
X337576747Y-207246819D01*
X337576747Y-207246819D02*
X337671985Y-207294438D01*
X337671985Y-207294438D02*
X337719604Y-207342057D01*
X337719604Y-207342057D02*
X337767223Y-207437295D01*
X337767223Y-207437295D02*
X337767223Y-207484914D01*
X337767223Y-207484914D02*
X337719604Y-207580152D01*
X337719604Y-207580152D02*
X337671985Y-207627771D01*
X337671985Y-207627771D02*
X337576747Y-207675390D01*
X337576747Y-207675390D02*
X337386271Y-207675390D01*
X337386271Y-207675390D02*
X337291033Y-207723009D01*
X337291033Y-207723009D02*
X337243414Y-207770628D01*
X337243414Y-207770628D02*
X337195795Y-207865866D01*
X337195795Y-207865866D02*
X337195795Y-208056342D01*
X337195795Y-208056342D02*
X337243414Y-208151580D01*
X337243414Y-208151580D02*
X337291033Y-208199200D01*
X337291033Y-208199200D02*
X337386271Y-208246819D01*
X337386271Y-208246819D02*
X337576747Y-208246819D01*
X337576747Y-208246819D02*
X337671985Y-208199200D01*
X337671985Y-208199200D02*
X337719604Y-208151580D01*
X337719604Y-208151580D02*
X337767223Y-208056342D01*
X337767223Y-208056342D02*
X337767223Y-207865866D01*
X337767223Y-207865866D02*
X337719604Y-207770628D01*
X337719604Y-207770628D02*
X337671985Y-207723009D01*
X337671985Y-207723009D02*
X337576747Y-207675390D01*
X338624366Y-207580152D02*
X338624366Y-208246819D01*
X338386271Y-207199200D02*
X338148176Y-207913485D01*
X338148176Y-207913485D02*
X338767223Y-207913485D01*
X333686271Y-210054295D02*
X333229128Y-210054295D01*
X333457700Y-210054295D02*
X333457700Y-209254295D01*
X333457700Y-209254295D02*
X333381509Y-209368580D01*
X333381509Y-209368580D02*
X333305319Y-209444771D01*
X333305319Y-209444771D02*
X333229128Y-209482866D01*
X223499048Y-228105866D02*
X224260953Y-228105866D01*
X223880000Y-228486819D02*
X223880000Y-227724914D01*
X220969048Y-228105866D02*
X221730953Y-228105866D01*
X309229048Y-247165866D02*
X309990953Y-247165866D01*
X309610000Y-247546819D02*
X309610000Y-246784914D01*
X306699048Y-247165866D02*
X307460953Y-247165866D01*
X271129048Y-247173866D02*
X271890953Y-247173866D01*
X271510000Y-247554819D02*
X271510000Y-246792914D01*
X268599048Y-247173866D02*
X269360953Y-247173866D01*
X328123414Y-201626819D02*
X328123414Y-200626819D01*
X328123414Y-200626819D02*
X328361509Y-200626819D01*
X328361509Y-200626819D02*
X328504366Y-200674438D01*
X328504366Y-200674438D02*
X328599604Y-200769676D01*
X328599604Y-200769676D02*
X328647223Y-200864914D01*
X328647223Y-200864914D02*
X328694842Y-201055390D01*
X328694842Y-201055390D02*
X328694842Y-201198247D01*
X328694842Y-201198247D02*
X328647223Y-201388723D01*
X328647223Y-201388723D02*
X328599604Y-201483961D01*
X328599604Y-201483961D02*
X328504366Y-201579200D01*
X328504366Y-201579200D02*
X328361509Y-201626819D01*
X328361509Y-201626819D02*
X328123414Y-201626819D01*
X329599604Y-200626819D02*
X329123414Y-200626819D01*
X329123414Y-200626819D02*
X329075795Y-201103009D01*
X329075795Y-201103009D02*
X329123414Y-201055390D01*
X329123414Y-201055390D02*
X329218652Y-201007771D01*
X329218652Y-201007771D02*
X329456747Y-201007771D01*
X329456747Y-201007771D02*
X329551985Y-201055390D01*
X329551985Y-201055390D02*
X329599604Y-201103009D01*
X329599604Y-201103009D02*
X329647223Y-201198247D01*
X329647223Y-201198247D02*
X329647223Y-201436342D01*
X329647223Y-201436342D02*
X329599604Y-201531580D01*
X329599604Y-201531580D02*
X329551985Y-201579200D01*
X329551985Y-201579200D02*
X329456747Y-201626819D01*
X329456747Y-201626819D02*
X329218652Y-201626819D01*
X329218652Y-201626819D02*
X329123414Y-201579200D01*
X329123414Y-201579200D02*
X329075795Y-201531580D01*
X329980557Y-200626819D02*
X330599604Y-200626819D01*
X330599604Y-200626819D02*
X330266271Y-201007771D01*
X330266271Y-201007771D02*
X330409128Y-201007771D01*
X330409128Y-201007771D02*
X330504366Y-201055390D01*
X330504366Y-201055390D02*
X330551985Y-201103009D01*
X330551985Y-201103009D02*
X330599604Y-201198247D01*
X330599604Y-201198247D02*
X330599604Y-201436342D01*
X330599604Y-201436342D02*
X330551985Y-201531580D01*
X330551985Y-201531580D02*
X330504366Y-201579200D01*
X330504366Y-201579200D02*
X330409128Y-201626819D01*
X330409128Y-201626819D02*
X330123414Y-201626819D01*
X330123414Y-201626819D02*
X330028176Y-201579200D01*
X330028176Y-201579200D02*
X329980557Y-201531580D01*
X325566271Y-203434295D02*
X325109128Y-203434295D01*
X325337700Y-203434295D02*
X325337700Y-202634295D01*
X325337700Y-202634295D02*
X325261509Y-202748580D01*
X325261509Y-202748580D02*
X325185319Y-202824771D01*
X325185319Y-202824771D02*
X325109128Y-202862866D01*
X159654819Y-214486285D02*
X158654819Y-214486285D01*
X158654819Y-214486285D02*
X158654819Y-214248190D01*
X158654819Y-214248190D02*
X158702438Y-214105333D01*
X158702438Y-214105333D02*
X158797676Y-214010095D01*
X158797676Y-214010095D02*
X158892914Y-213962476D01*
X158892914Y-213962476D02*
X159083390Y-213914857D01*
X159083390Y-213914857D02*
X159226247Y-213914857D01*
X159226247Y-213914857D02*
X159416723Y-213962476D01*
X159416723Y-213962476D02*
X159511961Y-214010095D01*
X159511961Y-214010095D02*
X159607200Y-214105333D01*
X159607200Y-214105333D02*
X159654819Y-214248190D01*
X159654819Y-214248190D02*
X159654819Y-214486285D01*
X159083390Y-213343428D02*
X159035771Y-213438666D01*
X159035771Y-213438666D02*
X158988152Y-213486285D01*
X158988152Y-213486285D02*
X158892914Y-213533904D01*
X158892914Y-213533904D02*
X158845295Y-213533904D01*
X158845295Y-213533904D02*
X158750057Y-213486285D01*
X158750057Y-213486285D02*
X158702438Y-213438666D01*
X158702438Y-213438666D02*
X158654819Y-213343428D01*
X158654819Y-213343428D02*
X158654819Y-213152952D01*
X158654819Y-213152952D02*
X158702438Y-213057714D01*
X158702438Y-213057714D02*
X158750057Y-213010095D01*
X158750057Y-213010095D02*
X158845295Y-212962476D01*
X158845295Y-212962476D02*
X158892914Y-212962476D01*
X158892914Y-212962476D02*
X158988152Y-213010095D01*
X158988152Y-213010095D02*
X159035771Y-213057714D01*
X159035771Y-213057714D02*
X159083390Y-213152952D01*
X159083390Y-213152952D02*
X159083390Y-213343428D01*
X159083390Y-213343428D02*
X159131009Y-213438666D01*
X159131009Y-213438666D02*
X159178628Y-213486285D01*
X159178628Y-213486285D02*
X159273866Y-213533904D01*
X159273866Y-213533904D02*
X159464342Y-213533904D01*
X159464342Y-213533904D02*
X159559580Y-213486285D01*
X159559580Y-213486285D02*
X159607200Y-213438666D01*
X159607200Y-213438666D02*
X159654819Y-213343428D01*
X159654819Y-213343428D02*
X159654819Y-213152952D01*
X159654819Y-213152952D02*
X159607200Y-213057714D01*
X159607200Y-213057714D02*
X159559580Y-213010095D01*
X159559580Y-213010095D02*
X159464342Y-212962476D01*
X159464342Y-212962476D02*
X159273866Y-212962476D01*
X159273866Y-212962476D02*
X159178628Y-213010095D01*
X159178628Y-213010095D02*
X159131009Y-213057714D01*
X159131009Y-213057714D02*
X159083390Y-213152952D01*
X158654819Y-212057714D02*
X158654819Y-212533904D01*
X158654819Y-212533904D02*
X159131009Y-212581523D01*
X159131009Y-212581523D02*
X159083390Y-212533904D01*
X159083390Y-212533904D02*
X159035771Y-212438666D01*
X159035771Y-212438666D02*
X159035771Y-212200571D01*
X159035771Y-212200571D02*
X159083390Y-212105333D01*
X159083390Y-212105333D02*
X159131009Y-212057714D01*
X159131009Y-212057714D02*
X159226247Y-212010095D01*
X159226247Y-212010095D02*
X159464342Y-212010095D01*
X159464342Y-212010095D02*
X159559580Y-212057714D01*
X159559580Y-212057714D02*
X159607200Y-212105333D01*
X159607200Y-212105333D02*
X159654819Y-212200571D01*
X159654819Y-212200571D02*
X159654819Y-212438666D01*
X159654819Y-212438666D02*
X159607200Y-212533904D01*
X159607200Y-212533904D02*
X159559580Y-212581523D01*
X156937704Y-209500571D02*
X156937704Y-209043428D01*
X156937704Y-209272000D02*
X157737704Y-209272000D01*
X157737704Y-209272000D02*
X157623419Y-209195809D01*
X157623419Y-209195809D02*
X157547228Y-209119619D01*
X157547228Y-209119619D02*
X157509133Y-209043428D01*
X106679048Y-228115866D02*
X107440953Y-228115866D01*
X109209048Y-228115866D02*
X109970953Y-228115866D01*
X109590000Y-228496819D02*
X109590000Y-227734914D01*
X216259048Y-266225866D02*
X217020953Y-266225866D01*
X218789048Y-266225866D02*
X219550953Y-266225866D01*
X219170000Y-266606819D02*
X219170000Y-265844914D01*
X166259048Y-285275866D02*
X167020953Y-285275866D01*
X168789048Y-285275866D02*
X169550953Y-285275866D01*
X169170000Y-285656819D02*
X169170000Y-284894914D01*
X265034819Y-213626285D02*
X264034819Y-213626285D01*
X264034819Y-213626285D02*
X264034819Y-213388190D01*
X264034819Y-213388190D02*
X264082438Y-213245333D01*
X264082438Y-213245333D02*
X264177676Y-213150095D01*
X264177676Y-213150095D02*
X264272914Y-213102476D01*
X264272914Y-213102476D02*
X264463390Y-213054857D01*
X264463390Y-213054857D02*
X264606247Y-213054857D01*
X264606247Y-213054857D02*
X264796723Y-213102476D01*
X264796723Y-213102476D02*
X264891961Y-213150095D01*
X264891961Y-213150095D02*
X264987200Y-213245333D01*
X264987200Y-213245333D02*
X265034819Y-213388190D01*
X265034819Y-213388190D02*
X265034819Y-213626285D01*
X264034819Y-212150095D02*
X264034819Y-212626285D01*
X264034819Y-212626285D02*
X264511009Y-212673904D01*
X264511009Y-212673904D02*
X264463390Y-212626285D01*
X264463390Y-212626285D02*
X264415771Y-212531047D01*
X264415771Y-212531047D02*
X264415771Y-212292952D01*
X264415771Y-212292952D02*
X264463390Y-212197714D01*
X264463390Y-212197714D02*
X264511009Y-212150095D01*
X264511009Y-212150095D02*
X264606247Y-212102476D01*
X264606247Y-212102476D02*
X264844342Y-212102476D01*
X264844342Y-212102476D02*
X264939580Y-212150095D01*
X264939580Y-212150095D02*
X264987200Y-212197714D01*
X264987200Y-212197714D02*
X265034819Y-212292952D01*
X265034819Y-212292952D02*
X265034819Y-212531047D01*
X265034819Y-212531047D02*
X264987200Y-212626285D01*
X264987200Y-212626285D02*
X264939580Y-212673904D01*
X264368152Y-211245333D02*
X265034819Y-211245333D01*
X263987200Y-211483428D02*
X264701485Y-211721523D01*
X264701485Y-211721523D02*
X264701485Y-211102476D01*
X266734819Y-212673904D02*
X265734819Y-212673904D01*
X266734819Y-212102476D02*
X266163390Y-212531047D01*
X265734819Y-212102476D02*
X266306247Y-212673904D01*
X266842295Y-216183428D02*
X266842295Y-216640571D01*
X266842295Y-216411999D02*
X266042295Y-216411999D01*
X266042295Y-216411999D02*
X266156580Y-216488190D01*
X266156580Y-216488190D02*
X266232771Y-216564380D01*
X266232771Y-216564380D02*
X266270866Y-216640571D01*
X319665714Y-204726819D02*
X319665714Y-203726819D01*
X319665714Y-203726819D02*
X319903809Y-203726819D01*
X319903809Y-203726819D02*
X320046666Y-203774438D01*
X320046666Y-203774438D02*
X320141904Y-203869676D01*
X320141904Y-203869676D02*
X320189523Y-203964914D01*
X320189523Y-203964914D02*
X320237142Y-204155390D01*
X320237142Y-204155390D02*
X320237142Y-204298247D01*
X320237142Y-204298247D02*
X320189523Y-204488723D01*
X320189523Y-204488723D02*
X320141904Y-204583961D01*
X320141904Y-204583961D02*
X320046666Y-204679200D01*
X320046666Y-204679200D02*
X319903809Y-204726819D01*
X319903809Y-204726819D02*
X319665714Y-204726819D01*
X320618095Y-203822057D02*
X320665714Y-203774438D01*
X320665714Y-203774438D02*
X320760952Y-203726819D01*
X320760952Y-203726819D02*
X320999047Y-203726819D01*
X320999047Y-203726819D02*
X321094285Y-203774438D01*
X321094285Y-203774438D02*
X321141904Y-203822057D01*
X321141904Y-203822057D02*
X321189523Y-203917295D01*
X321189523Y-203917295D02*
X321189523Y-204012533D01*
X321189523Y-204012533D02*
X321141904Y-204155390D01*
X321141904Y-204155390D02*
X320570476Y-204726819D01*
X320570476Y-204726819D02*
X321189523Y-204726819D01*
X321808571Y-203726819D02*
X321903809Y-203726819D01*
X321903809Y-203726819D02*
X321999047Y-203774438D01*
X321999047Y-203774438D02*
X322046666Y-203822057D01*
X322046666Y-203822057D02*
X322094285Y-203917295D01*
X322094285Y-203917295D02*
X322141904Y-204107771D01*
X322141904Y-204107771D02*
X322141904Y-204345866D01*
X322141904Y-204345866D02*
X322094285Y-204536342D01*
X322094285Y-204536342D02*
X322046666Y-204631580D01*
X322046666Y-204631580D02*
X321999047Y-204679200D01*
X321999047Y-204679200D02*
X321903809Y-204726819D01*
X321903809Y-204726819D02*
X321808571Y-204726819D01*
X321808571Y-204726819D02*
X321713333Y-204679200D01*
X321713333Y-204679200D02*
X321665714Y-204631580D01*
X321665714Y-204631580D02*
X321618095Y-204536342D01*
X321618095Y-204536342D02*
X321570476Y-204345866D01*
X321570476Y-204345866D02*
X321570476Y-204107771D01*
X321570476Y-204107771D02*
X321618095Y-203917295D01*
X321618095Y-203917295D02*
X321665714Y-203822057D01*
X321665714Y-203822057D02*
X321713333Y-203774438D01*
X321713333Y-203774438D02*
X321808571Y-203726819D01*
X317108571Y-206534295D02*
X316651428Y-206534295D01*
X316880000Y-206534295D02*
X316880000Y-205734295D01*
X316880000Y-205734295D02*
X316803809Y-205848580D01*
X316803809Y-205848580D02*
X316727619Y-205924771D01*
X316727619Y-205924771D02*
X316651428Y-205962866D01*
X250864819Y-206372475D02*
X249864819Y-206372475D01*
X249864819Y-206372475D02*
X249864819Y-206134380D01*
X249864819Y-206134380D02*
X249912438Y-205991523D01*
X249912438Y-205991523D02*
X250007676Y-205896285D01*
X250007676Y-205896285D02*
X250102914Y-205848666D01*
X250102914Y-205848666D02*
X250293390Y-205801047D01*
X250293390Y-205801047D02*
X250436247Y-205801047D01*
X250436247Y-205801047D02*
X250626723Y-205848666D01*
X250626723Y-205848666D02*
X250721961Y-205896285D01*
X250721961Y-205896285D02*
X250817200Y-205991523D01*
X250817200Y-205991523D02*
X250864819Y-206134380D01*
X250864819Y-206134380D02*
X250864819Y-206372475D01*
X250864819Y-204848666D02*
X250864819Y-205420094D01*
X250864819Y-205134380D02*
X249864819Y-205134380D01*
X249864819Y-205134380D02*
X250007676Y-205229618D01*
X250007676Y-205229618D02*
X250102914Y-205324856D01*
X250102914Y-205324856D02*
X250150533Y-205420094D01*
X249864819Y-204229618D02*
X249864819Y-204134380D01*
X249864819Y-204134380D02*
X249912438Y-204039142D01*
X249912438Y-204039142D02*
X249960057Y-203991523D01*
X249960057Y-203991523D02*
X250055295Y-203943904D01*
X250055295Y-203943904D02*
X250245771Y-203896285D01*
X250245771Y-203896285D02*
X250483866Y-203896285D01*
X250483866Y-203896285D02*
X250674342Y-203943904D01*
X250674342Y-203943904D02*
X250769580Y-203991523D01*
X250769580Y-203991523D02*
X250817200Y-204039142D01*
X250817200Y-204039142D02*
X250864819Y-204134380D01*
X250864819Y-204134380D02*
X250864819Y-204229618D01*
X250864819Y-204229618D02*
X250817200Y-204324856D01*
X250817200Y-204324856D02*
X250769580Y-204372475D01*
X250769580Y-204372475D02*
X250674342Y-204420094D01*
X250674342Y-204420094D02*
X250483866Y-204467713D01*
X250483866Y-204467713D02*
X250245771Y-204467713D01*
X250245771Y-204467713D02*
X250055295Y-204420094D01*
X250055295Y-204420094D02*
X249960057Y-204372475D01*
X249960057Y-204372475D02*
X249912438Y-204324856D01*
X249912438Y-204324856D02*
X249864819Y-204229618D01*
X250864819Y-202943904D02*
X250864819Y-203515332D01*
X250864819Y-203229618D02*
X249864819Y-203229618D01*
X249864819Y-203229618D02*
X250007676Y-203324856D01*
X250007676Y-203324856D02*
X250102914Y-203420094D01*
X250102914Y-203420094D02*
X250150533Y-203515332D01*
X248147704Y-200910571D02*
X248147704Y-200453428D01*
X248147704Y-200682000D02*
X248947704Y-200682000D01*
X248947704Y-200682000D02*
X248833419Y-200605809D01*
X248833419Y-200605809D02*
X248757228Y-200529619D01*
X248757228Y-200529619D02*
X248719133Y-200453428D01*
X261669048Y-228115866D02*
X262430953Y-228115866D01*
X262050000Y-228496819D02*
X262050000Y-227734914D01*
X259139048Y-228115866D02*
X259900953Y-228115866D01*
X335299048Y-228085866D02*
X336060953Y-228085866D01*
X337829048Y-228085866D02*
X338590953Y-228085866D01*
X338210000Y-228466819D02*
X338210000Y-227704914D01*
X311509048Y-266215866D02*
X312270953Y-266215866D01*
X314039048Y-266215866D02*
X314800953Y-266215866D01*
X314420000Y-266596819D02*
X314420000Y-265834914D01*
X394959048Y-247165866D02*
X395720953Y-247165866D01*
X395340000Y-247546819D02*
X395340000Y-246784914D01*
X392429048Y-247165866D02*
X393190953Y-247165866D01*
X428414524Y-296971819D02*
X428414524Y-295971819D01*
X428414524Y-295971819D02*
X428652619Y-295971819D01*
X428652619Y-295971819D02*
X428795476Y-296019438D01*
X428795476Y-296019438D02*
X428890714Y-296114676D01*
X428890714Y-296114676D02*
X428938333Y-296209914D01*
X428938333Y-296209914D02*
X428985952Y-296400390D01*
X428985952Y-296400390D02*
X428985952Y-296543247D01*
X428985952Y-296543247D02*
X428938333Y-296733723D01*
X428938333Y-296733723D02*
X428890714Y-296828961D01*
X428890714Y-296828961D02*
X428795476Y-296924200D01*
X428795476Y-296924200D02*
X428652619Y-296971819D01*
X428652619Y-296971819D02*
X428414524Y-296971819D01*
X429938333Y-296971819D02*
X429366905Y-296971819D01*
X429652619Y-296971819D02*
X429652619Y-295971819D01*
X429652619Y-295971819D02*
X429557381Y-296114676D01*
X429557381Y-296114676D02*
X429462143Y-296209914D01*
X429462143Y-296209914D02*
X429366905Y-296257533D01*
X430890714Y-296971819D02*
X430319286Y-296971819D01*
X430605000Y-296971819D02*
X430605000Y-295971819D01*
X430605000Y-295971819D02*
X430509762Y-296114676D01*
X430509762Y-296114676D02*
X430414524Y-296209914D01*
X430414524Y-296209914D02*
X430319286Y-296257533D01*
X431366905Y-296971819D02*
X431557381Y-296971819D01*
X431557381Y-296971819D02*
X431652619Y-296924200D01*
X431652619Y-296924200D02*
X431700238Y-296876580D01*
X431700238Y-296876580D02*
X431795476Y-296733723D01*
X431795476Y-296733723D02*
X431843095Y-296543247D01*
X431843095Y-296543247D02*
X431843095Y-296162295D01*
X431843095Y-296162295D02*
X431795476Y-296067057D01*
X431795476Y-296067057D02*
X431747857Y-296019438D01*
X431747857Y-296019438D02*
X431652619Y-295971819D01*
X431652619Y-295971819D02*
X431462143Y-295971819D01*
X431462143Y-295971819D02*
X431366905Y-296019438D01*
X431366905Y-296019438D02*
X431319286Y-296067057D01*
X431319286Y-296067057D02*
X431271667Y-296162295D01*
X431271667Y-296162295D02*
X431271667Y-296400390D01*
X431271667Y-296400390D02*
X431319286Y-296495628D01*
X431319286Y-296495628D02*
X431366905Y-296543247D01*
X431366905Y-296543247D02*
X431462143Y-296590866D01*
X431462143Y-296590866D02*
X431652619Y-296590866D01*
X431652619Y-296590866D02*
X431747857Y-296543247D01*
X431747857Y-296543247D02*
X431795476Y-296495628D01*
X431795476Y-296495628D02*
X431843095Y-296400390D01*
X666482704Y-435065571D02*
X666482704Y-434608428D01*
X666482704Y-434837000D02*
X667282704Y-434837000D01*
X667282704Y-434837000D02*
X667168419Y-434760809D01*
X667168419Y-434760809D02*
X667092228Y-434684619D01*
X667092228Y-434684619D02*
X667054133Y-434608428D01*
X406994819Y-205986285D02*
X405994819Y-205986285D01*
X405994819Y-205986285D02*
X405994819Y-205748190D01*
X405994819Y-205748190D02*
X406042438Y-205605333D01*
X406042438Y-205605333D02*
X406137676Y-205510095D01*
X406137676Y-205510095D02*
X406232914Y-205462476D01*
X406232914Y-205462476D02*
X406423390Y-205414857D01*
X406423390Y-205414857D02*
X406566247Y-205414857D01*
X406566247Y-205414857D02*
X406756723Y-205462476D01*
X406756723Y-205462476D02*
X406851961Y-205510095D01*
X406851961Y-205510095D02*
X406947200Y-205605333D01*
X406947200Y-205605333D02*
X406994819Y-205748190D01*
X406994819Y-205748190D02*
X406994819Y-205986285D01*
X406994819Y-204462476D02*
X406994819Y-205033904D01*
X406994819Y-204748190D02*
X405994819Y-204748190D01*
X405994819Y-204748190D02*
X406137676Y-204843428D01*
X406137676Y-204843428D02*
X406232914Y-204938666D01*
X406232914Y-204938666D02*
X406280533Y-205033904D01*
X406994819Y-203510095D02*
X406994819Y-204081523D01*
X406994819Y-203795809D02*
X405994819Y-203795809D01*
X405994819Y-203795809D02*
X406137676Y-203891047D01*
X406137676Y-203891047D02*
X406232914Y-203986285D01*
X406232914Y-203986285D02*
X406280533Y-204081523D01*
X408802295Y-208543428D02*
X408802295Y-209000571D01*
X408802295Y-208771999D02*
X408002295Y-208771999D01*
X408002295Y-208771999D02*
X408116580Y-208848190D01*
X408116580Y-208848190D02*
X408192771Y-208924380D01*
X408192771Y-208924380D02*
X408230866Y-209000571D01*
X423451905Y-279596819D02*
X423451905Y-278596819D01*
X423451905Y-278596819D02*
X423690000Y-278596819D01*
X423690000Y-278596819D02*
X423832857Y-278644438D01*
X423832857Y-278644438D02*
X423928095Y-278739676D01*
X423928095Y-278739676D02*
X423975714Y-278834914D01*
X423975714Y-278834914D02*
X424023333Y-279025390D01*
X424023333Y-279025390D02*
X424023333Y-279168247D01*
X424023333Y-279168247D02*
X423975714Y-279358723D01*
X423975714Y-279358723D02*
X423928095Y-279453961D01*
X423928095Y-279453961D02*
X423832857Y-279549200D01*
X423832857Y-279549200D02*
X423690000Y-279596819D01*
X423690000Y-279596819D02*
X423451905Y-279596819D01*
X424356667Y-278596819D02*
X424975714Y-278596819D01*
X424975714Y-278596819D02*
X424642381Y-278977771D01*
X424642381Y-278977771D02*
X424785238Y-278977771D01*
X424785238Y-278977771D02*
X424880476Y-279025390D01*
X424880476Y-279025390D02*
X424928095Y-279073009D01*
X424928095Y-279073009D02*
X424975714Y-279168247D01*
X424975714Y-279168247D02*
X424975714Y-279406342D01*
X424975714Y-279406342D02*
X424928095Y-279501580D01*
X424928095Y-279501580D02*
X424880476Y-279549200D01*
X424880476Y-279549200D02*
X424785238Y-279596819D01*
X424785238Y-279596819D02*
X424499524Y-279596819D01*
X424499524Y-279596819D02*
X424404286Y-279549200D01*
X424404286Y-279549200D02*
X424356667Y-279501580D01*
X420418571Y-281404295D02*
X419961428Y-281404295D01*
X420190000Y-281404295D02*
X420190000Y-280604295D01*
X420190000Y-280604295D02*
X420113809Y-280718580D01*
X420113809Y-280718580D02*
X420037619Y-280794771D01*
X420037619Y-280794771D02*
X419961428Y-280832866D01*
X423928095Y-281296819D02*
X423928095Y-280296819D01*
X424499523Y-281296819D02*
X424070952Y-280725390D01*
X424499523Y-280296819D02*
X423928095Y-280868247D01*
X428694524Y-309521819D02*
X428694524Y-308521819D01*
X428694524Y-308521819D02*
X428932619Y-308521819D01*
X428932619Y-308521819D02*
X429075476Y-308569438D01*
X429075476Y-308569438D02*
X429170714Y-308664676D01*
X429170714Y-308664676D02*
X429218333Y-308759914D01*
X429218333Y-308759914D02*
X429265952Y-308950390D01*
X429265952Y-308950390D02*
X429265952Y-309093247D01*
X429265952Y-309093247D02*
X429218333Y-309283723D01*
X429218333Y-309283723D02*
X429170714Y-309378961D01*
X429170714Y-309378961D02*
X429075476Y-309474200D01*
X429075476Y-309474200D02*
X428932619Y-309521819D01*
X428932619Y-309521819D02*
X428694524Y-309521819D01*
X430218333Y-309521819D02*
X429646905Y-309521819D01*
X429932619Y-309521819D02*
X429932619Y-308521819D01*
X429932619Y-308521819D02*
X429837381Y-308664676D01*
X429837381Y-308664676D02*
X429742143Y-308759914D01*
X429742143Y-308759914D02*
X429646905Y-308807533D01*
X430599286Y-308617057D02*
X430646905Y-308569438D01*
X430646905Y-308569438D02*
X430742143Y-308521819D01*
X430742143Y-308521819D02*
X430980238Y-308521819D01*
X430980238Y-308521819D02*
X431075476Y-308569438D01*
X431075476Y-308569438D02*
X431123095Y-308617057D01*
X431123095Y-308617057D02*
X431170714Y-308712295D01*
X431170714Y-308712295D02*
X431170714Y-308807533D01*
X431170714Y-308807533D02*
X431123095Y-308950390D01*
X431123095Y-308950390D02*
X430551667Y-309521819D01*
X430551667Y-309521819D02*
X431170714Y-309521819D01*
X431789762Y-308521819D02*
X431885000Y-308521819D01*
X431885000Y-308521819D02*
X431980238Y-308569438D01*
X431980238Y-308569438D02*
X432027857Y-308617057D01*
X432027857Y-308617057D02*
X432075476Y-308712295D01*
X432075476Y-308712295D02*
X432123095Y-308902771D01*
X432123095Y-308902771D02*
X432123095Y-309140866D01*
X432123095Y-309140866D02*
X432075476Y-309331342D01*
X432075476Y-309331342D02*
X432027857Y-309426580D01*
X432027857Y-309426580D02*
X431980238Y-309474200D01*
X431980238Y-309474200D02*
X431885000Y-309521819D01*
X431885000Y-309521819D02*
X431789762Y-309521819D01*
X431789762Y-309521819D02*
X431694524Y-309474200D01*
X431694524Y-309474200D02*
X431646905Y-309426580D01*
X431646905Y-309426580D02*
X431599286Y-309331342D01*
X431599286Y-309331342D02*
X431551667Y-309140866D01*
X431551667Y-309140866D02*
X431551667Y-308902771D01*
X431551667Y-308902771D02*
X431599286Y-308712295D01*
X431599286Y-308712295D02*
X431646905Y-308617057D01*
X431646905Y-308617057D02*
X431694524Y-308569438D01*
X431694524Y-308569438D02*
X431789762Y-308521819D01*
X660142704Y-454235571D02*
X660142704Y-453778428D01*
X660142704Y-454007000D02*
X660942704Y-454007000D01*
X660942704Y-454007000D02*
X660828419Y-453930809D01*
X660828419Y-453930809D02*
X660752228Y-453854619D01*
X660752228Y-453854619D02*
X660714133Y-453778428D01*
X406994819Y-222226285D02*
X405994819Y-222226285D01*
X405994819Y-222226285D02*
X405994819Y-221988190D01*
X405994819Y-221988190D02*
X406042438Y-221845333D01*
X406042438Y-221845333D02*
X406137676Y-221750095D01*
X406137676Y-221750095D02*
X406232914Y-221702476D01*
X406232914Y-221702476D02*
X406423390Y-221654857D01*
X406423390Y-221654857D02*
X406566247Y-221654857D01*
X406566247Y-221654857D02*
X406756723Y-221702476D01*
X406756723Y-221702476D02*
X406851961Y-221750095D01*
X406851961Y-221750095D02*
X406947200Y-221845333D01*
X406947200Y-221845333D02*
X406994819Y-221988190D01*
X406994819Y-221988190D02*
X406994819Y-222226285D01*
X405994819Y-221321523D02*
X405994819Y-220654857D01*
X405994819Y-220654857D02*
X406994819Y-221083428D01*
X406423390Y-220131047D02*
X406375771Y-220226285D01*
X406375771Y-220226285D02*
X406328152Y-220273904D01*
X406328152Y-220273904D02*
X406232914Y-220321523D01*
X406232914Y-220321523D02*
X406185295Y-220321523D01*
X406185295Y-220321523D02*
X406090057Y-220273904D01*
X406090057Y-220273904D02*
X406042438Y-220226285D01*
X406042438Y-220226285D02*
X405994819Y-220131047D01*
X405994819Y-220131047D02*
X405994819Y-219940571D01*
X405994819Y-219940571D02*
X406042438Y-219845333D01*
X406042438Y-219845333D02*
X406090057Y-219797714D01*
X406090057Y-219797714D02*
X406185295Y-219750095D01*
X406185295Y-219750095D02*
X406232914Y-219750095D01*
X406232914Y-219750095D02*
X406328152Y-219797714D01*
X406328152Y-219797714D02*
X406375771Y-219845333D01*
X406375771Y-219845333D02*
X406423390Y-219940571D01*
X406423390Y-219940571D02*
X406423390Y-220131047D01*
X406423390Y-220131047D02*
X406471009Y-220226285D01*
X406471009Y-220226285D02*
X406518628Y-220273904D01*
X406518628Y-220273904D02*
X406613866Y-220321523D01*
X406613866Y-220321523D02*
X406804342Y-220321523D01*
X406804342Y-220321523D02*
X406899580Y-220273904D01*
X406899580Y-220273904D02*
X406947200Y-220226285D01*
X406947200Y-220226285D02*
X406994819Y-220131047D01*
X406994819Y-220131047D02*
X406994819Y-219940571D01*
X406994819Y-219940571D02*
X406947200Y-219845333D01*
X406947200Y-219845333D02*
X406899580Y-219797714D01*
X406899580Y-219797714D02*
X406804342Y-219750095D01*
X406804342Y-219750095D02*
X406613866Y-219750095D01*
X406613866Y-219750095D02*
X406518628Y-219797714D01*
X406518628Y-219797714D02*
X406471009Y-219845333D01*
X406471009Y-219845333D02*
X406423390Y-219940571D01*
X408802295Y-224783428D02*
X408802295Y-225240571D01*
X408802295Y-225011999D02*
X408002295Y-225011999D01*
X408002295Y-225011999D02*
X408116580Y-225088190D01*
X408116580Y-225088190D02*
X408192771Y-225164380D01*
X408192771Y-225164380D02*
X408230866Y-225240571D01*
X422389524Y-274196819D02*
X422389524Y-273196819D01*
X422389524Y-273196819D02*
X422627619Y-273196819D01*
X422627619Y-273196819D02*
X422770476Y-273244438D01*
X422770476Y-273244438D02*
X422865714Y-273339676D01*
X422865714Y-273339676D02*
X422913333Y-273434914D01*
X422913333Y-273434914D02*
X422960952Y-273625390D01*
X422960952Y-273625390D02*
X422960952Y-273768247D01*
X422960952Y-273768247D02*
X422913333Y-273958723D01*
X422913333Y-273958723D02*
X422865714Y-274053961D01*
X422865714Y-274053961D02*
X422770476Y-274149200D01*
X422770476Y-274149200D02*
X422627619Y-274196819D01*
X422627619Y-274196819D02*
X422389524Y-274196819D01*
X423913333Y-274196819D02*
X423341905Y-274196819D01*
X423627619Y-274196819D02*
X423627619Y-273196819D01*
X423627619Y-273196819D02*
X423532381Y-273339676D01*
X423532381Y-273339676D02*
X423437143Y-273434914D01*
X423437143Y-273434914D02*
X423341905Y-273482533D01*
X424865714Y-274196819D02*
X424294286Y-274196819D01*
X424580000Y-274196819D02*
X424580000Y-273196819D01*
X424580000Y-273196819D02*
X424484762Y-273339676D01*
X424484762Y-273339676D02*
X424389524Y-273434914D01*
X424389524Y-273434914D02*
X424294286Y-273482533D01*
X425437143Y-273625390D02*
X425341905Y-273577771D01*
X425341905Y-273577771D02*
X425294286Y-273530152D01*
X425294286Y-273530152D02*
X425246667Y-273434914D01*
X425246667Y-273434914D02*
X425246667Y-273387295D01*
X425246667Y-273387295D02*
X425294286Y-273292057D01*
X425294286Y-273292057D02*
X425341905Y-273244438D01*
X425341905Y-273244438D02*
X425437143Y-273196819D01*
X425437143Y-273196819D02*
X425627619Y-273196819D01*
X425627619Y-273196819D02*
X425722857Y-273244438D01*
X425722857Y-273244438D02*
X425770476Y-273292057D01*
X425770476Y-273292057D02*
X425818095Y-273387295D01*
X425818095Y-273387295D02*
X425818095Y-273434914D01*
X425818095Y-273434914D02*
X425770476Y-273530152D01*
X425770476Y-273530152D02*
X425722857Y-273577771D01*
X425722857Y-273577771D02*
X425627619Y-273625390D01*
X425627619Y-273625390D02*
X425437143Y-273625390D01*
X425437143Y-273625390D02*
X425341905Y-273673009D01*
X425341905Y-273673009D02*
X425294286Y-273720628D01*
X425294286Y-273720628D02*
X425246667Y-273815866D01*
X425246667Y-273815866D02*
X425246667Y-274006342D01*
X425246667Y-274006342D02*
X425294286Y-274101580D01*
X425294286Y-274101580D02*
X425341905Y-274149200D01*
X425341905Y-274149200D02*
X425437143Y-274196819D01*
X425437143Y-274196819D02*
X425627619Y-274196819D01*
X425627619Y-274196819D02*
X425722857Y-274149200D01*
X425722857Y-274149200D02*
X425770476Y-274101580D01*
X425770476Y-274101580D02*
X425818095Y-274006342D01*
X425818095Y-274006342D02*
X425818095Y-273815866D01*
X425818095Y-273815866D02*
X425770476Y-273720628D01*
X425770476Y-273720628D02*
X425722857Y-273673009D01*
X425722857Y-273673009D02*
X425627619Y-273625390D01*
X673272704Y-403495571D02*
X673272704Y-403038428D01*
X673272704Y-403267000D02*
X674072704Y-403267000D01*
X674072704Y-403267000D02*
X673958419Y-403190809D01*
X673958419Y-403190809D02*
X673882228Y-403114619D01*
X673882228Y-403114619D02*
X673844133Y-403038428D01*
X406994819Y-214106285D02*
X405994819Y-214106285D01*
X405994819Y-214106285D02*
X405994819Y-213868190D01*
X405994819Y-213868190D02*
X406042438Y-213725333D01*
X406042438Y-213725333D02*
X406137676Y-213630095D01*
X406137676Y-213630095D02*
X406232914Y-213582476D01*
X406232914Y-213582476D02*
X406423390Y-213534857D01*
X406423390Y-213534857D02*
X406566247Y-213534857D01*
X406566247Y-213534857D02*
X406756723Y-213582476D01*
X406756723Y-213582476D02*
X406851961Y-213630095D01*
X406851961Y-213630095D02*
X406947200Y-213725333D01*
X406947200Y-213725333D02*
X406994819Y-213868190D01*
X406994819Y-213868190D02*
X406994819Y-214106285D01*
X406328152Y-212677714D02*
X406994819Y-212677714D01*
X405947200Y-212915809D02*
X406661485Y-213153904D01*
X406661485Y-213153904D02*
X406661485Y-212534857D01*
X405994819Y-211725333D02*
X405994819Y-211915809D01*
X405994819Y-211915809D02*
X406042438Y-212011047D01*
X406042438Y-212011047D02*
X406090057Y-212058666D01*
X406090057Y-212058666D02*
X406232914Y-212153904D01*
X406232914Y-212153904D02*
X406423390Y-212201523D01*
X406423390Y-212201523D02*
X406804342Y-212201523D01*
X406804342Y-212201523D02*
X406899580Y-212153904D01*
X406899580Y-212153904D02*
X406947200Y-212106285D01*
X406947200Y-212106285D02*
X406994819Y-212011047D01*
X406994819Y-212011047D02*
X406994819Y-211820571D01*
X406994819Y-211820571D02*
X406947200Y-211725333D01*
X406947200Y-211725333D02*
X406899580Y-211677714D01*
X406899580Y-211677714D02*
X406804342Y-211630095D01*
X406804342Y-211630095D02*
X406566247Y-211630095D01*
X406566247Y-211630095D02*
X406471009Y-211677714D01*
X406471009Y-211677714D02*
X406423390Y-211725333D01*
X406423390Y-211725333D02*
X406375771Y-211820571D01*
X406375771Y-211820571D02*
X406375771Y-212011047D01*
X406375771Y-212011047D02*
X406423390Y-212106285D01*
X406423390Y-212106285D02*
X406471009Y-212153904D01*
X406471009Y-212153904D02*
X406566247Y-212201523D01*
X408802295Y-216663428D02*
X408802295Y-217120571D01*
X408802295Y-216891999D02*
X408002295Y-216891999D01*
X408002295Y-216891999D02*
X408116580Y-216968190D01*
X408116580Y-216968190D02*
X408192771Y-217044380D01*
X408192771Y-217044380D02*
X408230866Y-217120571D01*
X414064819Y-230976285D02*
X413064819Y-230976285D01*
X413064819Y-230976285D02*
X413064819Y-230738190D01*
X413064819Y-230738190D02*
X413112438Y-230595333D01*
X413112438Y-230595333D02*
X413207676Y-230500095D01*
X413207676Y-230500095D02*
X413302914Y-230452476D01*
X413302914Y-230452476D02*
X413493390Y-230404857D01*
X413493390Y-230404857D02*
X413636247Y-230404857D01*
X413636247Y-230404857D02*
X413826723Y-230452476D01*
X413826723Y-230452476D02*
X413921961Y-230500095D01*
X413921961Y-230500095D02*
X414017200Y-230595333D01*
X414017200Y-230595333D02*
X414064819Y-230738190D01*
X414064819Y-230738190D02*
X414064819Y-230976285D01*
X413160057Y-230023904D02*
X413112438Y-229976285D01*
X413112438Y-229976285D02*
X413064819Y-229881047D01*
X413064819Y-229881047D02*
X413064819Y-229642952D01*
X413064819Y-229642952D02*
X413112438Y-229547714D01*
X413112438Y-229547714D02*
X413160057Y-229500095D01*
X413160057Y-229500095D02*
X413255295Y-229452476D01*
X413255295Y-229452476D02*
X413350533Y-229452476D01*
X413350533Y-229452476D02*
X413493390Y-229500095D01*
X413493390Y-229500095D02*
X414064819Y-230071523D01*
X414064819Y-230071523D02*
X414064819Y-229452476D01*
X413160057Y-229071523D02*
X413112438Y-229023904D01*
X413112438Y-229023904D02*
X413064819Y-228928666D01*
X413064819Y-228928666D02*
X413064819Y-228690571D01*
X413064819Y-228690571D02*
X413112438Y-228595333D01*
X413112438Y-228595333D02*
X413160057Y-228547714D01*
X413160057Y-228547714D02*
X413255295Y-228500095D01*
X413255295Y-228500095D02*
X413350533Y-228500095D01*
X413350533Y-228500095D02*
X413493390Y-228547714D01*
X413493390Y-228547714D02*
X414064819Y-229119142D01*
X414064819Y-229119142D02*
X414064819Y-228500095D01*
X411347704Y-225990571D02*
X411347704Y-225533428D01*
X411347704Y-225762000D02*
X412147704Y-225762000D01*
X412147704Y-225762000D02*
X412033419Y-225685809D01*
X412033419Y-225685809D02*
X411957228Y-225609619D01*
X411957228Y-225609619D02*
X411919133Y-225533428D01*
X412364819Y-230023904D02*
X411364819Y-230023904D01*
X412364819Y-229452476D02*
X411793390Y-229881047D01*
X411364819Y-229452476D02*
X411936247Y-230023904D01*
D11*
%TO.C,D37*%
X106950000Y-217362000D02*
X112000000Y-217362000D01*
X106500000Y-216912000D02*
X106950000Y-217362000D01*
X108350000Y-216562000D02*
X110150000Y-216562000D01*
X108350000Y-211162000D02*
X110150000Y-211162000D01*
X106500000Y-210362000D02*
X106500000Y-216912000D01*
X112000000Y-210362000D02*
X112000000Y-217362000D01*
X112000000Y-210362000D02*
X106500000Y-210362000D01*
%TO.C,D12*%
X122930000Y-210512000D02*
X117430000Y-210512000D01*
X122930000Y-210512000D02*
X122930000Y-217512000D01*
X117430000Y-210512000D02*
X117430000Y-217062000D01*
X119280000Y-211312000D02*
X121080000Y-211312000D01*
X119280000Y-216712000D02*
X121080000Y-216712000D01*
X117430000Y-217062000D02*
X117880000Y-217512000D01*
X117880000Y-217512000D02*
X122930000Y-217512000D01*
%TO.C,SW66*%
X306150000Y-207962000D02*
G75*
G02*
X300150000Y-207962000I-3000000J0D01*
G01*
X300150000Y-207962000D02*
G75*
G02*
X306150000Y-207962000I3000000J0D01*
G01*
X305150000Y-202062000D02*
X309250000Y-202062000D01*
X309250000Y-213862000D02*
X305150000Y-213862000D01*
X301150000Y-213862000D02*
X297050000Y-213862000D01*
X301150000Y-202062000D02*
X297050000Y-202062000D01*
X297050000Y-202062000D02*
X297050000Y-213862000D01*
X295650000Y-204162000D02*
X295350000Y-203862000D01*
X295350000Y-203862000D02*
X295950000Y-203862000D01*
X295950000Y-203862000D02*
X295650000Y-204162000D01*
X309250000Y-202062000D02*
X309250000Y-204462000D01*
X309250000Y-206662000D02*
X309250000Y-209262000D01*
X309250000Y-211462000D02*
X309250000Y-213862000D01*
X303150000Y-207462000D02*
X303150000Y-208462000D01*
X302650000Y-207962000D02*
X303650000Y-207962000D01*
%TO.C,D2*%
X405800000Y-200722000D02*
X400300000Y-200722000D01*
X405800000Y-200722000D02*
X405800000Y-207722000D01*
X400300000Y-200722000D02*
X400300000Y-207272000D01*
X402150000Y-201522000D02*
X403950000Y-201522000D01*
X402150000Y-206922000D02*
X403950000Y-206922000D01*
X400300000Y-207272000D02*
X400750000Y-207722000D01*
X400750000Y-207722000D02*
X405800000Y-207722000D01*
%TO.C,D38*%
X400150000Y-215312000D02*
X405650000Y-215312000D01*
X400150000Y-215312000D02*
X400150000Y-208312000D01*
X405650000Y-215312000D02*
X405650000Y-208762000D01*
X403800000Y-214512000D02*
X402000000Y-214512000D01*
X403800000Y-209112000D02*
X402000000Y-209112000D01*
X405650000Y-208762000D02*
X405200000Y-208312000D01*
X405200000Y-208312000D02*
X400150000Y-208312000D01*
%TO.C,D10*%
X91730000Y-210052000D02*
X91730000Y-203052000D01*
X91730000Y-210052000D02*
X97230000Y-210052000D01*
X95380000Y-203852000D02*
X93580000Y-203852000D01*
X95380000Y-209252000D02*
X93580000Y-209252000D01*
X96780000Y-203052000D02*
X91730000Y-203052000D01*
X97230000Y-203502000D02*
X96780000Y-203052000D01*
X97230000Y-210052000D02*
X97230000Y-203502000D01*
%TO.C,D93*%
X365467700Y-202152000D02*
X365467700Y-207202000D01*
X365917700Y-201702000D02*
X365467700Y-202152000D01*
X366267700Y-203552000D02*
X366267700Y-205352000D01*
X371667700Y-203552000D02*
X371667700Y-205352000D01*
X372467700Y-201702000D02*
X365917700Y-201702000D01*
X372467700Y-207202000D02*
X365467700Y-207202000D01*
X372467700Y-207202000D02*
X372467700Y-201702000D01*
%TO.C,D77*%
X357837700Y-201792000D02*
X357837700Y-207292000D01*
X357837700Y-201792000D02*
X364837700Y-201792000D01*
X357837700Y-207292000D02*
X364387700Y-207292000D01*
X358637700Y-205442000D02*
X358637700Y-203642000D01*
X364037700Y-205442000D02*
X364037700Y-203642000D01*
X364387700Y-207292000D02*
X364837700Y-206842000D01*
X364837700Y-206842000D02*
X364837700Y-201792000D01*
%TO.C,D117*%
X391560000Y-200432000D02*
X391560000Y-206982000D01*
X391560000Y-206982000D02*
X392010000Y-207432000D01*
X392010000Y-207432000D02*
X397060000Y-207432000D01*
X393410000Y-201232000D02*
X395210000Y-201232000D01*
X393410000Y-206632000D02*
X395210000Y-206632000D01*
X397060000Y-200432000D02*
X391560000Y-200432000D01*
X397060000Y-200432000D02*
X397060000Y-207432000D01*
%TO.C,D13*%
X274700000Y-201182000D02*
X274700000Y-207732000D01*
X274700000Y-207732000D02*
X275150000Y-208182000D01*
X275150000Y-208182000D02*
X280200000Y-208182000D01*
X276550000Y-201982000D02*
X278350000Y-201982000D01*
X276550000Y-207382000D02*
X278350000Y-207382000D01*
X280200000Y-201182000D02*
X274700000Y-201182000D01*
X280200000Y-201182000D02*
X280200000Y-208182000D01*
%TO.C,D21*%
X122040000Y-209502000D02*
X122040000Y-202502000D01*
X122040000Y-209502000D02*
X127540000Y-209502000D01*
X125690000Y-203302000D02*
X123890000Y-203302000D01*
X125690000Y-208702000D02*
X123890000Y-208702000D01*
X127090000Y-202502000D02*
X122040000Y-202502000D01*
X127540000Y-202952000D02*
X127090000Y-202502000D01*
X127540000Y-209502000D02*
X127540000Y-202952000D01*
%TO.C,D60*%
X142990000Y-202172000D02*
X142990000Y-208722000D01*
X142990000Y-208722000D02*
X143440000Y-209172000D01*
X143440000Y-209172000D02*
X148490000Y-209172000D01*
X144840000Y-202972000D02*
X146640000Y-202972000D01*
X144840000Y-208372000D02*
X146640000Y-208372000D01*
X148490000Y-202172000D02*
X142990000Y-202172000D01*
X148490000Y-202172000D02*
X148490000Y-209172000D01*
%TO.C,D30*%
X381707700Y-208772000D02*
X381707700Y-213822000D01*
X382157700Y-208322000D02*
X381707700Y-208772000D01*
X382507700Y-210172000D02*
X382507700Y-211972000D01*
X387907700Y-210172000D02*
X387907700Y-211972000D01*
X388707700Y-208322000D02*
X382157700Y-208322000D01*
X388707700Y-213822000D02*
X381707700Y-213822000D01*
X388707700Y-213822000D02*
X388707700Y-208322000D01*
%TO.C,D45*%
X111930000Y-202992000D02*
X111930000Y-209542000D01*
X111930000Y-209542000D02*
X112380000Y-209992000D01*
X112380000Y-209992000D02*
X117430000Y-209992000D01*
X113780000Y-203792000D02*
X115580000Y-203792000D01*
X113780000Y-209192000D02*
X115580000Y-209192000D01*
X117430000Y-202992000D02*
X111930000Y-202992000D01*
X117430000Y-202992000D02*
X117430000Y-209992000D01*
%TO.C,D44*%
X349717700Y-201792000D02*
X349717700Y-207292000D01*
X349717700Y-201792000D02*
X356717700Y-201792000D01*
X349717700Y-207292000D02*
X356267700Y-207292000D01*
X350517700Y-205442000D02*
X350517700Y-203642000D01*
X355917700Y-205442000D02*
X355917700Y-203642000D01*
X356267700Y-207292000D02*
X356717700Y-206842000D01*
X356717700Y-206842000D02*
X356717700Y-201792000D01*
%TO.C,D92*%
X223490000Y-209072000D02*
X223490000Y-215622000D01*
X223490000Y-215622000D02*
X223940000Y-216072000D01*
X223940000Y-216072000D02*
X228990000Y-216072000D01*
X225340000Y-209872000D02*
X227140000Y-209872000D01*
X225340000Y-215272000D02*
X227140000Y-215272000D01*
X228990000Y-209072000D02*
X223490000Y-209072000D01*
X228990000Y-209072000D02*
X228990000Y-216072000D01*
%TO.C,D86*%
X333957700Y-201922000D02*
X333957700Y-207422000D01*
X333957700Y-201922000D02*
X340957700Y-201922000D01*
X333957700Y-207422000D02*
X340507700Y-207422000D01*
X334757700Y-205572000D02*
X334757700Y-203772000D01*
X340157700Y-205572000D02*
X340157700Y-203772000D01*
X340507700Y-207422000D02*
X340957700Y-206972000D01*
X340957700Y-206972000D02*
X340957700Y-201922000D01*
%TO.C,D4*%
X341597700Y-201792000D02*
X341597700Y-207292000D01*
X341597700Y-201792000D02*
X348597700Y-201792000D01*
X341597700Y-207292000D02*
X348147700Y-207292000D01*
X342397700Y-205442000D02*
X342397700Y-203642000D01*
X347797700Y-205442000D02*
X347797700Y-203642000D01*
X348147700Y-207292000D02*
X348597700Y-206842000D01*
X348597700Y-206842000D02*
X348597700Y-201792000D01*
%TO.C,D1*%
X341597700Y-208412000D02*
X341597700Y-213912000D01*
X341597700Y-208412000D02*
X348597700Y-208412000D01*
X341597700Y-213912000D02*
X348147700Y-213912000D01*
X342397700Y-212062000D02*
X342397700Y-210262000D01*
X347797700Y-212062000D02*
X347797700Y-210262000D01*
X348147700Y-213912000D02*
X348597700Y-213462000D01*
X348597700Y-213462000D02*
X348597700Y-208412000D01*
%TO.C,D68*%
X169250000Y-209882000D02*
X169250000Y-216432000D01*
X169250000Y-216432000D02*
X169700000Y-216882000D01*
X169700000Y-216882000D02*
X174750000Y-216882000D01*
X171100000Y-210682000D02*
X172900000Y-210682000D01*
X171100000Y-216082000D02*
X172900000Y-216082000D01*
X174750000Y-209882000D02*
X169250000Y-209882000D01*
X174750000Y-209882000D02*
X174750000Y-216882000D01*
%TO.C,D76*%
X161280000Y-209662000D02*
X161280000Y-216212000D01*
X161280000Y-216212000D02*
X161730000Y-216662000D01*
X161730000Y-216662000D02*
X166780000Y-216662000D01*
X163130000Y-210462000D02*
X164930000Y-210462000D01*
X163130000Y-215862000D02*
X164930000Y-215862000D01*
X166780000Y-209662000D02*
X161280000Y-209662000D01*
X166780000Y-209662000D02*
X166780000Y-216662000D01*
%TO.C,D110*%
X235620000Y-209232000D02*
X235620000Y-215782000D01*
X235620000Y-215782000D02*
X236070000Y-216232000D01*
X236070000Y-216232000D02*
X241120000Y-216232000D01*
X237470000Y-210032000D02*
X239270000Y-210032000D01*
X237470000Y-215432000D02*
X239270000Y-215432000D01*
X241120000Y-209232000D02*
X235620000Y-209232000D01*
X241120000Y-209232000D02*
X241120000Y-216232000D01*
%TO.C,D100*%
X258260000Y-201012000D02*
X258260000Y-207562000D01*
X258260000Y-207562000D02*
X258710000Y-208012000D01*
X258710000Y-208012000D02*
X263760000Y-208012000D01*
X260110000Y-201812000D02*
X261910000Y-201812000D01*
X260110000Y-207212000D02*
X261910000Y-207212000D01*
X263760000Y-201012000D02*
X258260000Y-201012000D01*
X263760000Y-201012000D02*
X263760000Y-208012000D01*
%TO.C,D116*%
X229740000Y-201102000D02*
X229740000Y-207652000D01*
X229740000Y-207652000D02*
X230190000Y-208102000D01*
X230190000Y-208102000D02*
X235240000Y-208102000D01*
X231590000Y-201902000D02*
X233390000Y-201902000D01*
X231590000Y-207302000D02*
X233390000Y-207302000D01*
X235240000Y-201102000D02*
X229740000Y-201102000D01*
X235240000Y-201102000D02*
X235240000Y-208102000D01*
%TO.C,D62*%
X373587700Y-208772000D02*
X373587700Y-213822000D01*
X374037700Y-208322000D02*
X373587700Y-208772000D01*
X374387700Y-210172000D02*
X374387700Y-211972000D01*
X379787700Y-210172000D02*
X379787700Y-211972000D01*
X380587700Y-208322000D02*
X374037700Y-208322000D01*
X380587700Y-213822000D02*
X373587700Y-213822000D01*
X380587700Y-213822000D02*
X380587700Y-208322000D01*
%TO.C,D94*%
X365467700Y-208772000D02*
X365467700Y-213822000D01*
X365917700Y-208322000D02*
X365467700Y-208772000D01*
X366267700Y-210172000D02*
X366267700Y-211972000D01*
X371667700Y-210172000D02*
X371667700Y-211972000D01*
X372467700Y-208322000D02*
X365917700Y-208322000D01*
X372467700Y-213822000D02*
X365467700Y-213822000D01*
X372467700Y-213822000D02*
X372467700Y-208322000D01*
%TO.C,D109*%
X161280000Y-201542000D02*
X161280000Y-208092000D01*
X161280000Y-208092000D02*
X161730000Y-208542000D01*
X161730000Y-208542000D02*
X166780000Y-208542000D01*
X163130000Y-202342000D02*
X164930000Y-202342000D01*
X163130000Y-207742000D02*
X164930000Y-207742000D01*
X166780000Y-201542000D02*
X161280000Y-201542000D01*
X166780000Y-201542000D02*
X166780000Y-208542000D01*
%TO.C,D61*%
X373587700Y-202152000D02*
X373587700Y-207202000D01*
X374037700Y-201702000D02*
X373587700Y-202152000D01*
X374387700Y-203552000D02*
X374387700Y-205352000D01*
X379787700Y-203552000D02*
X379787700Y-205352000D01*
X380587700Y-201702000D02*
X374037700Y-201702000D01*
X380587700Y-207202000D02*
X373587700Y-207202000D01*
X380587700Y-207202000D02*
X380587700Y-201702000D01*
%TO.C,D111*%
X250560000Y-215742000D02*
X250560000Y-208742000D01*
X250560000Y-215742000D02*
X256060000Y-215742000D01*
X254210000Y-209542000D02*
X252410000Y-209542000D01*
X254210000Y-214942000D02*
X252410000Y-214942000D01*
X255610000Y-208742000D02*
X250560000Y-208742000D01*
X256060000Y-209192000D02*
X255610000Y-208742000D01*
X256060000Y-215742000D02*
X256060000Y-209192000D01*
%TO.C,R1*%
X412215000Y-238566564D02*
X412215000Y-238112436D01*
X413685000Y-238566564D02*
X413685000Y-238112436D01*
%TO.C,D19*%
X281590000Y-215742000D02*
X287090000Y-215742000D01*
X281590000Y-215742000D02*
X281590000Y-208742000D01*
X287090000Y-215742000D02*
X287090000Y-209192000D01*
X285240000Y-214942000D02*
X283440000Y-214942000D01*
X285240000Y-209542000D02*
X283440000Y-209542000D01*
X287090000Y-209192000D02*
X286640000Y-208742000D01*
X286640000Y-208742000D02*
X281590000Y-208742000D01*
%TO.C,D28*%
X101030000Y-203032000D02*
X101030000Y-209582000D01*
X101030000Y-209582000D02*
X101480000Y-210032000D01*
X101480000Y-210032000D02*
X106530000Y-210032000D01*
X102880000Y-203832000D02*
X104680000Y-203832000D01*
X102880000Y-209232000D02*
X104680000Y-209232000D01*
X106530000Y-203032000D02*
X101030000Y-203032000D01*
X106530000Y-203032000D02*
X106530000Y-210032000D01*
%TO.C,D108*%
X169110000Y-201622000D02*
X169110000Y-208172000D01*
X169110000Y-208172000D02*
X169560000Y-208622000D01*
X169560000Y-208622000D02*
X174610000Y-208622000D01*
X170960000Y-202422000D02*
X172760000Y-202422000D01*
X170960000Y-207822000D02*
X172760000Y-207822000D01*
X174610000Y-201622000D02*
X169110000Y-201622000D01*
X174610000Y-201622000D02*
X174610000Y-208622000D01*
%TO.C,D69*%
X132000000Y-209872000D02*
X132000000Y-202872000D01*
X132000000Y-209872000D02*
X137500000Y-209872000D01*
X135650000Y-203672000D02*
X133850000Y-203672000D01*
X135650000Y-209072000D02*
X133850000Y-209072000D01*
X137050000Y-202872000D02*
X132000000Y-202872000D01*
X137500000Y-203322000D02*
X137050000Y-202872000D01*
X137500000Y-209872000D02*
X137500000Y-203322000D01*
%TO.C,D36*%
X349717700Y-208412000D02*
X349717700Y-213912000D01*
X349717700Y-208412000D02*
X356717700Y-208412000D01*
X349717700Y-213912000D02*
X356267700Y-213912000D01*
X350517700Y-212062000D02*
X350517700Y-210262000D01*
X355917700Y-212062000D02*
X355917700Y-210262000D01*
X356267700Y-213912000D02*
X356717700Y-213462000D01*
X356717700Y-213462000D02*
X356717700Y-208412000D01*
%TO.C,D52*%
X325837700Y-208542000D02*
X325837700Y-214042000D01*
X325837700Y-208542000D02*
X332837700Y-208542000D01*
X325837700Y-214042000D02*
X332387700Y-214042000D01*
X326637700Y-212192000D02*
X326637700Y-210392000D01*
X332037700Y-212192000D02*
X332037700Y-210392000D01*
X332387700Y-214042000D02*
X332837700Y-213592000D01*
X332837700Y-213592000D02*
X332837700Y-208542000D01*
%TO.C,D115*%
X152950000Y-201652000D02*
X152950000Y-208202000D01*
X152950000Y-208202000D02*
X153400000Y-208652000D01*
X153400000Y-208652000D02*
X158450000Y-208652000D01*
X154800000Y-202452000D02*
X156600000Y-202452000D01*
X154800000Y-207852000D02*
X156600000Y-207852000D01*
X158450000Y-201652000D02*
X152950000Y-201652000D01*
X158450000Y-201652000D02*
X158450000Y-208652000D01*
%TO.C,D70*%
X357837700Y-208412000D02*
X357837700Y-213912000D01*
X357837700Y-208412000D02*
X364837700Y-208412000D01*
X357837700Y-213912000D02*
X364387700Y-213912000D01*
X358637700Y-212062000D02*
X358637700Y-210262000D01*
X364037700Y-212062000D02*
X364037700Y-210262000D01*
X364387700Y-213912000D02*
X364837700Y-213462000D01*
X364837700Y-213462000D02*
X364837700Y-208412000D01*
%TO.C,D102*%
X391560000Y-208552000D02*
X391560000Y-215102000D01*
X391560000Y-215102000D02*
X392010000Y-215552000D01*
X392010000Y-215552000D02*
X397060000Y-215552000D01*
X393410000Y-209352000D02*
X395210000Y-209352000D01*
X393410000Y-214752000D02*
X395210000Y-214752000D01*
X397060000Y-208552000D02*
X391560000Y-208552000D01*
X397060000Y-208552000D02*
X397060000Y-215552000D01*
%TO.C,D29*%
X381707700Y-202152000D02*
X381707700Y-207202000D01*
X382157700Y-201702000D02*
X381707700Y-202152000D01*
X382507700Y-203552000D02*
X382507700Y-205352000D01*
X387907700Y-203552000D02*
X387907700Y-205352000D01*
X388707700Y-201702000D02*
X382157700Y-201702000D01*
X388707700Y-207202000D02*
X381707700Y-207202000D01*
X388707700Y-207202000D02*
X388707700Y-201702000D01*
%TO.C,D84*%
X333957700Y-208542000D02*
X333957700Y-214042000D01*
X333957700Y-208542000D02*
X340957700Y-208542000D01*
X333957700Y-214042000D02*
X340507700Y-214042000D01*
X334757700Y-212192000D02*
X334757700Y-210392000D01*
X340157700Y-212192000D02*
X340157700Y-210392000D01*
X340507700Y-214042000D02*
X340957700Y-213592000D01*
X340957700Y-213592000D02*
X340957700Y-208542000D01*
%TO.C,D53*%
X325837700Y-201922000D02*
X325837700Y-207422000D01*
X325837700Y-201922000D02*
X332837700Y-201922000D01*
X325837700Y-207422000D02*
X332387700Y-207422000D01*
X326637700Y-205572000D02*
X326637700Y-203772000D01*
X332037700Y-205572000D02*
X332037700Y-203772000D01*
X332387700Y-207422000D02*
X332837700Y-206972000D01*
X332837700Y-206972000D02*
X332837700Y-201922000D01*
%TO.C,D85*%
X152950000Y-209772000D02*
X152950000Y-216322000D01*
X152950000Y-216322000D02*
X153400000Y-216772000D01*
X153400000Y-216772000D02*
X158450000Y-216772000D01*
X154800000Y-210572000D02*
X156600000Y-210572000D01*
X154800000Y-215972000D02*
X156600000Y-215972000D01*
X158450000Y-209772000D02*
X152950000Y-209772000D01*
X158450000Y-209772000D02*
X158450000Y-216772000D01*
%TO.C,D54*%
X265330000Y-215912000D02*
X265330000Y-208912000D01*
X265330000Y-215912000D02*
X270830000Y-215912000D01*
X268980000Y-209712000D02*
X267180000Y-209712000D01*
X268980000Y-215112000D02*
X267180000Y-215112000D01*
X270380000Y-208912000D02*
X265330000Y-208912000D01*
X270830000Y-209362000D02*
X270380000Y-208912000D01*
X270830000Y-215912000D02*
X270830000Y-209362000D01*
%TO.C,D20*%
X317380000Y-205022000D02*
X317380000Y-210522000D01*
X317380000Y-205022000D02*
X324380000Y-205022000D01*
X317380000Y-210522000D02*
X323930000Y-210522000D01*
X318180000Y-208672000D02*
X318180000Y-206872000D01*
X323580000Y-208672000D02*
X323580000Y-206872000D01*
X323930000Y-210522000D02*
X324380000Y-210072000D01*
X324380000Y-210072000D02*
X324380000Y-205022000D01*
%TO.C,D101*%
X244160000Y-201182000D02*
X244160000Y-207732000D01*
X244160000Y-207732000D02*
X244610000Y-208182000D01*
X244610000Y-208182000D02*
X249660000Y-208182000D01*
X246010000Y-201982000D02*
X247810000Y-201982000D01*
X246010000Y-207382000D02*
X247810000Y-207382000D01*
X249660000Y-201182000D02*
X244160000Y-201182000D01*
X249660000Y-201182000D02*
X249660000Y-208182000D01*
%TO.C,D119*%
X427410000Y-292442000D02*
X420860000Y-292442000D01*
X427410000Y-297942000D02*
X427410000Y-292442000D01*
X427410000Y-297942000D02*
X420410000Y-297942000D01*
X426610000Y-294292000D02*
X426610000Y-296092000D01*
X421210000Y-294292000D02*
X421210000Y-296092000D01*
X420860000Y-292442000D02*
X420410000Y-292892000D01*
X420410000Y-292892000D02*
X420410000Y-297942000D01*
%TO.C,D11*%
X412790000Y-201722000D02*
X412340000Y-201272000D01*
X412790000Y-208272000D02*
X412790000Y-201722000D01*
X412340000Y-201272000D02*
X407290000Y-201272000D01*
X410940000Y-202072000D02*
X409140000Y-202072000D01*
X410940000Y-207472000D02*
X409140000Y-207472000D01*
X407290000Y-208272000D02*
X412790000Y-208272000D01*
X407290000Y-208272000D02*
X407290000Y-201272000D01*
%TO.C,D3*%
X427690000Y-284942000D02*
X427690000Y-279892000D01*
X427240000Y-285392000D02*
X427690000Y-284942000D01*
X426890000Y-283542000D02*
X426890000Y-281742000D01*
X421490000Y-283542000D02*
X421490000Y-281742000D01*
X420690000Y-279892000D02*
X427690000Y-279892000D01*
X420690000Y-279892000D02*
X420690000Y-285392000D01*
X420690000Y-285392000D02*
X427240000Y-285392000D01*
%TO.C,D120*%
X427690000Y-304992000D02*
X421140000Y-304992000D01*
X427690000Y-310492000D02*
X427690000Y-304992000D01*
X427690000Y-310492000D02*
X420690000Y-310492000D01*
X426890000Y-306842000D02*
X426890000Y-308642000D01*
X421490000Y-306842000D02*
X421490000Y-308642000D01*
X421140000Y-304992000D02*
X420690000Y-305442000D01*
X420690000Y-305442000D02*
X420690000Y-310492000D01*
%TO.C,D78*%
X412790000Y-217962000D02*
X412340000Y-217512000D01*
X412790000Y-224512000D02*
X412790000Y-217962000D01*
X412340000Y-217512000D02*
X407290000Y-217512000D01*
X410940000Y-218312000D02*
X409140000Y-218312000D01*
X410940000Y-223712000D02*
X409140000Y-223712000D01*
X407290000Y-224512000D02*
X412790000Y-224512000D01*
X407290000Y-224512000D02*
X407290000Y-217512000D01*
%TO.C,D118*%
X427580000Y-267492000D02*
X421030000Y-267492000D01*
X427580000Y-272992000D02*
X427580000Y-267492000D01*
X427580000Y-272992000D02*
X420580000Y-272992000D01*
X426780000Y-269342000D02*
X426780000Y-271142000D01*
X421380000Y-269342000D02*
X421380000Y-271142000D01*
X421030000Y-267492000D02*
X420580000Y-267942000D01*
X420580000Y-267942000D02*
X420580000Y-272992000D01*
%TO.C,D46*%
X412790000Y-209842000D02*
X412340000Y-209392000D01*
X412790000Y-216392000D02*
X412790000Y-209842000D01*
X412340000Y-209392000D02*
X407290000Y-209392000D01*
X410940000Y-210192000D02*
X409140000Y-210192000D01*
X410940000Y-215592000D02*
X409140000Y-215592000D01*
X407290000Y-216392000D02*
X412790000Y-216392000D01*
X407290000Y-216392000D02*
X407290000Y-209392000D01*
%TO.C,D22*%
X412860000Y-226262000D02*
X412860000Y-233262000D01*
X412860000Y-226262000D02*
X407360000Y-226262000D01*
X409210000Y-227062000D02*
X411010000Y-227062000D01*
X409210000Y-232462000D02*
X411010000Y-232462000D01*
X407810000Y-233262000D02*
X412860000Y-233262000D01*
X407360000Y-226262000D02*
X407360000Y-232812000D01*
X407360000Y-232812000D02*
X407810000Y-233262000D01*
%TD*%
M02*
