M48
; DRILL file {KiCad 9.0.2} date 2025-06-27T22:30:44-0700
; FORMAT={-:-/ absolute / metric / decimal}
; #@! TF.CreationDate,2025-06-27T22:30:44-07:00
; #@! TF.GenerationSoftware,Kicad,Pcbnew,9.0.2
; #@! TF.FileFunction,NonPlated,1,2,NPTH
FMAT,2
METRIC
; #@! TA.AperFunction,NonPlated,NPTH,ComponentDrill
T1C1.200
; #@! TA.AperFunction,NonPlated,NPTH,ComponentDrill
T2C1.700
; #@! TA.AperFunction,NonPlated,NPTH,ComponentDrill
T3C1.850
; #@! TA.AperFunction,NonPlated,NPTH,ComponentDrill
T4C2.200
; #@! TA.AperFunction,NonPlated,NPTH,ComponentDrill
T5C3.400
%
G90
G05
T1
X107.81Y-303.022
X113.54Y-226.842
X118.29Y-245.892
X126.87Y-303.042
X130.24Y-266.032
X132.59Y-226.842
X142.11Y-245.9
X145.95Y-303.072
X151.64Y-226.842
X154.04Y-284.012
X161.16Y-245.9
X165.06Y-303.076
X166.01Y-264.922
X170.69Y-226.842
X173.12Y-284.002
X180.21Y-245.9
X184.11Y-303.086
X185.02Y-264.942
X189.74Y-226.842
X192.18Y-284.002
X199.26Y-245.9
X203.22Y-205.892
X204.09Y-264.962
X208.79Y-226.842
X211.24Y-284.002
X218.31Y-245.9
X223.12Y-264.952
X227.83Y-226.832
X230.3Y-283.982
X234.09Y-303.316
X237.36Y-245.9
X242.2Y-264.982
X246.94Y-226.822
X249.32Y-283.982
X256.41Y-245.9
X261.23Y-264.932
X266.0Y-226.842
X268.4Y-284.002
X275.46Y-245.9
X280.28Y-264.942
X284.13Y-303.062
X285.06Y-226.822
X287.41Y-284.002
X294.51Y-245.9
X299.33Y-264.942
X304.03Y-226.776
X304.04Y-303.092
X306.48Y-284.012
X313.56Y-245.892
X318.37Y-264.942
X323.01Y-226.772
X325.56Y-283.992
X332.59Y-303.052
X332.61Y-245.892
X337.39Y-264.942
X342.16Y-226.812
X351.66Y-245.892
X352.88Y-284.002
X361.19Y-303.042
X361.28Y-226.822
X375.75Y-245.912
X380.24Y-283.992
X380.25Y-303.072
X399.28Y-283.972
X399.29Y-245.892
X399.29Y-264.942
X399.29Y-303.042
T2
X97.09Y-307.222
X102.82Y-231.042
X107.57Y-250.092
X108.09Y-307.222
X113.55Y-289.212
X113.82Y-231.042
X116.15Y-307.242
X118.57Y-250.092
X119.52Y-270.232
X121.87Y-231.042
X124.55Y-289.212
X127.15Y-307.242
X130.52Y-270.232
X131.39Y-250.1
X132.87Y-231.042
X135.23Y-307.272
X140.92Y-231.042
X142.39Y-250.1
X143.32Y-288.212
X146.23Y-307.272
X150.44Y-250.1
X151.92Y-231.042
X154.32Y-288.212
X154.34Y-307.276
X155.29Y-269.122
X159.97Y-231.042
X161.44Y-250.1
X162.4Y-288.202
X165.34Y-307.276
X166.29Y-269.122
X169.49Y-250.1
X170.97Y-231.042
X173.39Y-307.286
X173.4Y-288.202
X174.3Y-269.142
X179.02Y-231.042
X180.49Y-250.1
X181.46Y-288.202
X184.39Y-307.286
X185.3Y-269.142
X188.54Y-250.1
X190.02Y-231.042
X192.46Y-288.202
X192.5Y-210.092
X193.37Y-269.162
X198.07Y-231.042
X199.54Y-250.1
X200.52Y-288.202
X203.5Y-210.092
X204.37Y-269.162
X207.59Y-250.1
X209.07Y-231.042
X211.52Y-288.202
X212.4Y-269.152
X217.11Y-231.032
X218.59Y-250.1
X219.58Y-288.182
X223.37Y-307.516
X223.4Y-269.152
X226.64Y-250.1
X228.11Y-231.032
X230.58Y-288.182
X231.48Y-269.182
X234.37Y-307.516
X236.22Y-231.022
X237.64Y-250.1
X238.6Y-288.182
X242.48Y-269.182
X245.69Y-250.1
X247.22Y-231.022
X249.6Y-288.182
X250.51Y-269.132
X255.28Y-231.042
X256.69Y-250.1
X257.68Y-288.202
X261.51Y-269.132
X264.74Y-250.1
X266.28Y-231.042
X268.68Y-288.202
X269.56Y-269.142
X273.41Y-307.262
X274.34Y-231.022
X275.74Y-250.1
X276.69Y-288.202
X280.56Y-269.142
X283.79Y-250.1
X284.41Y-307.262
X285.34Y-231.022
X287.69Y-288.202
X288.61Y-269.142
X293.31Y-230.976
X293.32Y-307.292
X294.79Y-250.1
X295.76Y-288.212
X299.61Y-269.142
X302.84Y-250.092
X304.31Y-230.976
X304.32Y-307.292
X306.76Y-288.212
X307.65Y-269.142
X312.29Y-230.972
X313.84Y-250.092
X314.84Y-288.192
X318.65Y-269.142
X321.87Y-307.252
X321.89Y-250.092
X323.29Y-230.972
X325.84Y-288.192
X326.67Y-269.142
X331.44Y-231.012
X332.87Y-307.252
X332.89Y-250.092
X337.67Y-269.142
X340.94Y-250.092
X342.16Y-288.202
X342.44Y-231.012
X350.47Y-307.242
X350.56Y-231.022
X351.94Y-250.092
X353.16Y-288.202
X357.62Y-269.142
X361.47Y-307.242
X361.56Y-231.022
X365.03Y-250.112
X368.62Y-269.142
X369.52Y-288.192
X369.53Y-307.272
X376.03Y-250.112
X379.73Y-232.106
X380.52Y-288.192
X380.53Y-307.272
X388.56Y-288.172
X388.57Y-250.092
X388.57Y-269.142
X388.57Y-307.242
X390.73Y-232.106
X399.56Y-288.172
X399.57Y-250.092
X399.57Y-269.142
X399.57Y-307.242
T3
X424.825Y-202.602
X429.675Y-202.602
T4
X424.525Y-199.572
X429.975Y-199.572
T5
X102.59Y-307.222
X108.32Y-231.042
X113.07Y-250.092
X119.05Y-289.212
X121.65Y-307.242
X125.02Y-270.232
X127.37Y-231.042
X136.89Y-250.1
X140.73Y-307.272
X146.42Y-231.042
X148.82Y-288.212
X155.94Y-250.1
X159.84Y-307.276
X160.79Y-269.122
X165.47Y-231.042
X167.9Y-288.202
X174.99Y-250.1
X178.89Y-307.286
X179.8Y-269.142
X184.52Y-231.042
X186.96Y-288.202
X194.04Y-250.1
X198.0Y-210.092
X198.87Y-269.162
X203.57Y-231.042
X206.02Y-288.202
X213.09Y-250.1
X217.9Y-269.152
X222.61Y-231.032
X225.08Y-288.182
X228.87Y-307.516
X232.14Y-250.1
X236.98Y-269.182
X241.72Y-231.022
X244.1Y-288.182
X251.19Y-250.1
X256.01Y-269.132
X260.78Y-231.042
X263.18Y-288.202
X270.24Y-250.1
X275.06Y-269.142
X278.91Y-307.262
X279.84Y-231.022
X282.19Y-288.202
X289.29Y-250.1
X294.11Y-269.142
X298.81Y-230.976
X298.82Y-307.292
X301.26Y-288.212
X308.34Y-250.092
X313.15Y-269.142
X317.79Y-230.972
X320.34Y-288.192
X327.37Y-307.252
X327.39Y-250.092
X332.17Y-269.142
X336.94Y-231.012
X346.44Y-250.092
X347.66Y-288.202
X355.97Y-307.242
X356.06Y-231.022
X363.12Y-269.142
X370.53Y-250.112
X375.02Y-288.192
X375.03Y-307.272
X385.23Y-232.106
X394.06Y-288.172
X394.07Y-250.092
X394.07Y-269.142
X394.07Y-307.242
M30
