%TF.GenerationSoftware,KiCad,Pcbnew,9.0.2*%
%TF.CreationDate,2025-06-27T23:50:22-07:00*%
%TF.ProjectId,Proj3,50726f6a-332e-46b6-9963-61645f706362,rev?*%
%TF.SameCoordinates,Original*%
%TF.FileFunction,Other,User*%
%FSLAX46Y46*%
G04 Gerber Fmt 4.6, Leading zero omitted, Abs format (unit mm)*
G04 Created by KiCad (PCBNEW 9.0.2) date 2025-06-27 23:50:22*
%MOMM*%
%LPD*%
G01*
G04 APERTURE LIST*
%ADD10C,0.050000*%
G04 APERTURE END LIST*
%TO.C,D99*%
D10*
X136790000Y-287712000D02*
X139290000Y-287712000D01*
X139290000Y-297432000D01*
X136790000Y-297432000D01*
X136790000Y-287712000D01*
%TO.C,D114*%
X364810000Y-228172000D02*
X367310000Y-228172000D01*
X367310000Y-237892000D01*
X364810000Y-237892000D01*
X364810000Y-228172000D01*
%TO.C,D79*%
X321280000Y-266692000D02*
X323780000Y-266692000D01*
X323780000Y-276412000D01*
X321280000Y-276412000D01*
X321280000Y-266692000D01*
%TO.C,D112*%
X287990000Y-228682000D02*
X290490000Y-228682000D01*
X290490000Y-238402000D01*
X287990000Y-238402000D01*
X287990000Y-228682000D01*
%TO.C,D71*%
X129840000Y-305192000D02*
X132340000Y-305192000D01*
X132340000Y-314912000D01*
X129840000Y-314912000D01*
X129840000Y-305192000D01*
%TO.C,D105*%
X357860000Y-285492000D02*
X360360000Y-285492000D01*
X360360000Y-295212000D01*
X357860000Y-295212000D01*
X357860000Y-285492000D01*
%TO.C,D7*%
X309680000Y-304722000D02*
X312180000Y-304722000D01*
X312180000Y-314442000D01*
X309680000Y-314442000D01*
X309680000Y-304722000D01*
%TO.C,D27*%
X121530000Y-247942000D02*
X124030000Y-247942000D01*
X124030000Y-257662000D01*
X121530000Y-257662000D01*
X121530000Y-247942000D01*
%TO.C,D103*%
X328450000Y-238752000D02*
X325950000Y-238752000D01*
X325950000Y-229032000D01*
X328450000Y-229032000D01*
X328450000Y-238752000D01*
%TO.C,D90*%
X183310000Y-247502000D02*
X185810000Y-247502000D01*
X185810000Y-257222000D01*
X183310000Y-257222000D01*
X183310000Y-247502000D01*
%TO.C,D17*%
X235790000Y-294842000D02*
X233290000Y-294842000D01*
X233290000Y-285122000D01*
X235790000Y-285122000D01*
X235790000Y-294842000D01*
%TO.C,D51*%
X110950000Y-305102000D02*
X113450000Y-305102000D01*
X113450000Y-314822000D01*
X110950000Y-314822000D01*
X110950000Y-305102000D01*
%TO.C,D113*%
X216960000Y-219612000D02*
X214460000Y-219612000D01*
X214460000Y-209892000D01*
X216960000Y-209892000D01*
X216960000Y-219612000D01*
%TO.C,D48*%
X188140000Y-267212000D02*
X190640000Y-267212000D01*
X190640000Y-276932000D01*
X188140000Y-276932000D01*
X188140000Y-267212000D01*
%TO.C,D34*%
X379530000Y-267672000D02*
X382030000Y-267672000D01*
X382030000Y-277392000D01*
X379530000Y-277392000D01*
X379530000Y-267672000D01*
%TO.C,D64*%
X264130000Y-266802000D02*
X266630000Y-266802000D01*
X266630000Y-276522000D01*
X264130000Y-276522000D01*
X264130000Y-266802000D01*
%TO.C,D26*%
X307160000Y-304772000D02*
X309660000Y-304772000D01*
X309660000Y-314492000D01*
X307160000Y-314492000D01*
X307160000Y-304772000D01*
%TO.C,D107*%
X402270000Y-266932000D02*
X404770000Y-266932000D01*
X404770000Y-276652000D01*
X402270000Y-276652000D01*
X402270000Y-266932000D01*
%TO.C,D66*%
X245160000Y-267262000D02*
X247660000Y-267262000D01*
X247660000Y-276982000D01*
X245160000Y-276982000D01*
X245160000Y-267262000D01*
%TO.C,D49*%
X401180000Y-283562000D02*
X403680000Y-283562000D01*
X403680000Y-293282000D01*
X401180000Y-293282000D01*
X401180000Y-283562000D01*
%TO.C,D35*%
X268780000Y-229082000D02*
X271280000Y-229082000D01*
X271280000Y-238802000D01*
X268780000Y-238802000D01*
X268780000Y-229082000D01*
%TO.C,D98*%
X347710000Y-238160000D02*
X345210000Y-238160000D01*
X345210000Y-228440000D01*
X347710000Y-228440000D01*
X347710000Y-238160000D01*
%TO.C,D58*%
X340330000Y-267082000D02*
X342830000Y-267082000D01*
X342830000Y-276802000D01*
X340330000Y-276802000D01*
X340330000Y-267082000D01*
%TO.C,D41*%
X202300000Y-247852000D02*
X204800000Y-247852000D01*
X204800000Y-257572000D01*
X202300000Y-257572000D01*
X202300000Y-247852000D01*
%TO.C,D5*%
X364370000Y-305592000D02*
X366870000Y-305592000D01*
X366870000Y-315312000D01*
X364370000Y-315312000D01*
X364370000Y-305592000D01*
%TO.C,D56*%
X173410000Y-228712000D02*
X175910000Y-228712000D01*
X175910000Y-238432000D01*
X173410000Y-238432000D01*
X173410000Y-228712000D01*
%TO.C,D14*%
X207250000Y-266602000D02*
X209750000Y-266602000D01*
X209750000Y-276322000D01*
X207250000Y-276322000D01*
X207250000Y-266602000D01*
%TO.C,D33*%
X134540000Y-267662000D02*
X137040000Y-267662000D01*
X137040000Y-277382000D01*
X134540000Y-277382000D01*
X134540000Y-267662000D01*
%TO.C,D67*%
X252470000Y-286102000D02*
X254970000Y-286102000D01*
X254970000Y-295822000D01*
X252470000Y-295822000D01*
X252470000Y-286102000D01*
%TO.C,D80*%
X226110000Y-266502000D02*
X228610000Y-266502000D01*
X228610000Y-276222000D01*
X226110000Y-276222000D01*
X226110000Y-266502000D01*
%TO.C,D104*%
X211920000Y-228862000D02*
X214420000Y-228862000D01*
X214420000Y-238582000D01*
X211920000Y-238582000D01*
X211920000Y-228862000D01*
%TO.C,D23*%
X116600000Y-227642000D02*
X119100000Y-227642000D01*
X119100000Y-237362000D01*
X116600000Y-237362000D01*
X116600000Y-227642000D01*
%TO.C,D31*%
X394990000Y-230302000D02*
X397490000Y-230302000D01*
X397490000Y-240022000D01*
X394990000Y-240022000D01*
X394990000Y-230302000D01*
%TO.C,D91*%
X278500000Y-247422000D02*
X281000000Y-247422000D01*
X281000000Y-257142000D01*
X278500000Y-257142000D01*
X278500000Y-247422000D01*
%TO.C,D9*%
X157390000Y-285992000D02*
X159890000Y-285992000D01*
X159890000Y-295712000D01*
X157390000Y-295712000D01*
X157390000Y-285992000D01*
%TO.C,D25*%
X144800000Y-247952000D02*
X147300000Y-247952000D01*
X147300000Y-257672000D01*
X144800000Y-257672000D01*
X144800000Y-247952000D01*
%TO.C,D97*%
X249740000Y-228982000D02*
X252240000Y-228982000D01*
X252240000Y-238702000D01*
X249740000Y-238702000D01*
X249740000Y-228982000D01*
%TO.C,D88*%
X193060000Y-228832000D02*
X195560000Y-228832000D01*
X195560000Y-238552000D01*
X193060000Y-238552000D01*
X193060000Y-228832000D01*
%TO.C,D106*%
X402380000Y-247472000D02*
X404880000Y-247472000D01*
X404880000Y-257192000D01*
X402380000Y-257192000D01*
X402380000Y-247472000D01*
%TO.C,D75*%
X297490000Y-248142000D02*
X299990000Y-248142000D01*
X299990000Y-257862000D01*
X297490000Y-257862000D01*
X297490000Y-248142000D01*
%TO.C,D57*%
X354380000Y-247962000D02*
X356880000Y-247962000D01*
X356880000Y-257682000D01*
X354380000Y-257682000D01*
X354380000Y-247962000D01*
%TO.C,D89*%
X316600000Y-247792000D02*
X319100000Y-247792000D01*
X319100000Y-257512000D01*
X316600000Y-257512000D01*
X316600000Y-247792000D01*
%TO.C,A1*%
X431750000Y-197822000D02*
X438790000Y-197822000D01*
X438790000Y-250122000D01*
X415710000Y-250122000D01*
X415710000Y-197822000D01*
X422750000Y-197822000D01*
X422750000Y-196272000D01*
X431750000Y-196272000D01*
X431750000Y-197822000D01*
%TO.C,D18*%
X328560000Y-285882000D02*
X331060000Y-285882000D01*
X331060000Y-295602000D01*
X328560000Y-295602000D01*
X328560000Y-285882000D01*
%TO.C,D82*%
X230840000Y-228392000D02*
X233340000Y-228392000D01*
X233340000Y-238112000D01*
X230840000Y-238112000D01*
X230840000Y-228392000D01*
%TO.C,D83*%
X271230000Y-278152000D02*
X273730000Y-278152000D01*
X273730000Y-287872000D01*
X271230000Y-287872000D01*
X271230000Y-278152000D01*
%TO.C,D39*%
X135520000Y-228672000D02*
X138020000Y-228672000D01*
X138020000Y-238392000D01*
X135520000Y-238392000D01*
X135520000Y-228672000D01*
%TO.C,D8*%
X402240000Y-304452000D02*
X404740000Y-304452000D01*
X404740000Y-314172000D01*
X402240000Y-314172000D01*
X402240000Y-304452000D01*
%TO.C,D32*%
X383020000Y-305202000D02*
X385520000Y-305202000D01*
X385520000Y-314922000D01*
X383020000Y-314922000D01*
X383020000Y-305202000D01*
%TO.C,D42*%
X221270000Y-250762000D02*
X223770000Y-250762000D01*
X223770000Y-260482000D01*
X221270000Y-260482000D01*
X221270000Y-250762000D01*
%TO.C,D96*%
X148910000Y-304642000D02*
X151410000Y-304642000D01*
X151410000Y-314362000D01*
X148910000Y-314362000D01*
X148910000Y-304642000D01*
%TO.C,D24*%
X240390000Y-248062000D02*
X242890000Y-248062000D01*
X242890000Y-257782000D01*
X240390000Y-257782000D01*
X240390000Y-248062000D01*
%TO.C,D81*%
X271170000Y-287992000D02*
X273670000Y-287992000D01*
X273670000Y-297712000D01*
X271170000Y-297712000D01*
X271170000Y-287992000D01*
%TO.C,D65*%
X283080000Y-267002000D02*
X285580000Y-267002000D01*
X285580000Y-276722000D01*
X283080000Y-276722000D01*
X283080000Y-267002000D01*
%TO.C,D63*%
X169050000Y-266472000D02*
X171550000Y-266472000D01*
X171550000Y-276192000D01*
X169050000Y-276192000D01*
X169050000Y-266472000D01*
%TO.C,D72*%
X154670000Y-228652000D02*
X157170000Y-228652000D01*
X157170000Y-238372000D01*
X154670000Y-238372000D01*
X154670000Y-228652000D01*
%TO.C,D6*%
X383090000Y-285262000D02*
X385590000Y-285262000D01*
X385590000Y-294982000D01*
X383090000Y-294982000D01*
X383090000Y-285262000D01*
%TO.C,D95*%
X239130000Y-304992000D02*
X241630000Y-304992000D01*
X241630000Y-314712000D01*
X239130000Y-314712000D01*
X239130000Y-304992000D01*
%TO.C,D87*%
X306920000Y-228782000D02*
X309420000Y-228782000D01*
X309420000Y-238502000D01*
X306920000Y-238502000D01*
X306920000Y-228782000D01*
%TO.C,D16*%
X214320000Y-285712000D02*
X216820000Y-285712000D01*
X216820000Y-295432000D01*
X214320000Y-295432000D01*
X214320000Y-285712000D01*
%TO.C,D43*%
X302430000Y-266772000D02*
X304930000Y-266772000D01*
X304930000Y-276492000D01*
X302430000Y-276492000D01*
X302430000Y-266772000D01*
%TO.C,D59*%
X259360000Y-247502000D02*
X261860000Y-247502000D01*
X261860000Y-257222000D01*
X259360000Y-257222000D01*
X259360000Y-247502000D01*
%TO.C,D74*%
X335710000Y-247662000D02*
X338210000Y-247662000D01*
X338210000Y-257382000D01*
X335710000Y-257382000D01*
X335710000Y-247662000D01*
%TO.C,D50*%
X176030000Y-285542000D02*
X178530000Y-285542000D01*
X178530000Y-295262000D01*
X176030000Y-295262000D01*
X176030000Y-285542000D01*
%TO.C,D15*%
X195230000Y-285842000D02*
X197730000Y-285842000D01*
X197730000Y-295562000D01*
X195230000Y-295562000D01*
X195230000Y-285842000D01*
%TO.C,D40*%
X378670000Y-247912000D02*
X381170000Y-247912000D01*
X381170000Y-257632000D01*
X378670000Y-257632000D01*
X378670000Y-247912000D01*
%TO.C,D47*%
X287640000Y-305552000D02*
X290140000Y-305552000D01*
X290140000Y-315272000D01*
X287640000Y-315272000D01*
X287640000Y-305552000D01*
%TO.C,D73*%
X221300000Y-240842000D02*
X223800000Y-240842000D01*
X223800000Y-250562000D01*
X221300000Y-250562000D01*
X221300000Y-240842000D01*
%TO.C,D55*%
X168000000Y-304902000D02*
X170500000Y-304902000D01*
X170500000Y-314622000D01*
X168000000Y-314622000D01*
X168000000Y-304902000D01*
%TD*%
M02*
