%TF.GenerationSoftware,KiCad,Pcbnew,9.0.2*%
%TF.CreationDate,2025-06-27T22:30:48-07:00*%
%TF.ProjectId,Proj3,50726f6a-332e-46b6-9963-61645f706362,rev?*%
%TF.SameCoordinates,Original*%
%TF.FileFunction,Other,ECO1*%
%FSLAX46Y46*%
G04 Gerber Fmt 4.6, Leading zero omitted, Abs format (unit mm)*
G04 Created by KiCad (PCBNEW 9.0.2) date 2025-06-27 22:30:48*
%MOMM*%
%LPD*%
G01*
G04 APERTURE LIST*
%ADD10C,0.120000*%
G04 APERTURE END LIST*
D10*
%TO.C,SW56*%
X219345000Y-297990700D02*
X219345000Y-317040700D01*
X219345000Y-297990700D02*
X238395000Y-297990700D01*
X219345000Y-317040700D02*
X238395000Y-317040700D01*
X238395000Y-297990700D02*
X238395000Y-317040700D01*
%TO.C,SW70*%
X188415000Y-297760700D02*
X188415000Y-316810700D01*
X169365000Y-297760700D02*
X169365000Y-316810700D01*
X169365000Y-297760700D02*
X188415000Y-297760700D01*
X169365000Y-316810700D02*
X188415000Y-316810700D01*
%TO.C,SW33*%
X336915000Y-240567000D02*
X336915000Y-259617000D01*
X336915000Y-240567000D02*
X355965000Y-240567000D01*
X336915000Y-259617000D02*
X355965000Y-259617000D01*
X355965000Y-240567000D02*
X355965000Y-259617000D01*
%TO.C,SW45*%
X279765000Y-240575000D02*
X279765000Y-259625000D01*
X279765000Y-240575000D02*
X298815000Y-240575000D01*
X279765000Y-259625000D02*
X298815000Y-259625000D01*
X298815000Y-240575000D02*
X298815000Y-259625000D01*
%TO.C,SW9*%
X291735000Y-278687000D02*
X291735000Y-297737000D01*
X291735000Y-278687000D02*
X310785000Y-278687000D01*
X291735000Y-297737000D02*
X310785000Y-297737000D01*
X310785000Y-278687000D02*
X310785000Y-297737000D01*
%TO.C,SW38*%
X265535000Y-259617000D02*
X265535000Y-278667000D01*
X265535000Y-259617000D02*
X284585000Y-259617000D01*
X265535000Y-278667000D02*
X284585000Y-278667000D01*
X284585000Y-259617000D02*
X284585000Y-278667000D01*
%TO.C,SW15*%
X98782500Y-240567000D02*
X98782500Y-259617000D01*
X98782500Y-240567000D02*
X127357500Y-240567000D01*
X98782500Y-259617000D02*
X127357500Y-259617000D01*
X127357500Y-240567000D02*
X127357500Y-259617000D01*
%TO.C,SW30*%
X93065000Y-297697000D02*
X93065000Y-316747000D01*
X93065000Y-297697000D02*
X112115000Y-297697000D01*
X93065000Y-316747000D02*
X112115000Y-316747000D01*
X112115000Y-297697000D02*
X112115000Y-316747000D01*
%TO.C,SW62*%
X194045000Y-221517000D02*
X194045000Y-240567000D01*
X194045000Y-221517000D02*
X213095000Y-221517000D01*
X194045000Y-240567000D02*
X213095000Y-240567000D01*
X213095000Y-221517000D02*
X213095000Y-240567000D01*
%TO.C,SW57*%
X131205000Y-297747000D02*
X131205000Y-316797000D01*
X131205000Y-297747000D02*
X150255000Y-297747000D01*
X131205000Y-316797000D02*
X150255000Y-316797000D01*
X150255000Y-297747000D02*
X150255000Y-316797000D01*
%TO.C,SW63*%
X333372500Y-278677000D02*
X333372500Y-297727000D01*
X333372500Y-278677000D02*
X361947500Y-278677000D01*
X333372500Y-297727000D02*
X361947500Y-297727000D01*
X361947500Y-278677000D02*
X361947500Y-297727000D01*
%TO.C,SW54*%
X165465000Y-240575000D02*
X165465000Y-259625000D01*
X165465000Y-240575000D02*
X184515000Y-240575000D01*
X165465000Y-259625000D02*
X184515000Y-259625000D01*
X184515000Y-240575000D02*
X184515000Y-259625000D01*
%TO.C,SW65*%
X384545000Y-259617000D02*
X384545000Y-278667000D01*
X384545000Y-259617000D02*
X403595000Y-259617000D01*
X384545000Y-278667000D02*
X403595000Y-278667000D01*
X403595000Y-259617000D02*
X403595000Y-278667000D01*
%TO.C,SW2*%
X365495000Y-278667000D02*
X365495000Y-297717000D01*
X365495000Y-278667000D02*
X384545000Y-278667000D01*
X365495000Y-297717000D02*
X384545000Y-297717000D01*
X384545000Y-278667000D02*
X384545000Y-297717000D01*
%TO.C,SW41*%
X112125000Y-297717000D02*
X112125000Y-316767000D01*
X112125000Y-297717000D02*
X131175000Y-297717000D01*
X112125000Y-316767000D02*
X131175000Y-316767000D01*
X131175000Y-297717000D02*
X131175000Y-316767000D01*
%TO.C,SW1*%
X346445000Y-297717000D02*
X346445000Y-316767000D01*
X346445000Y-297717000D02*
X365495000Y-297717000D01*
X346445000Y-316767000D02*
X365495000Y-316767000D01*
X365495000Y-297717000D02*
X365495000Y-316767000D01*
%TO.C,SW4*%
X384545000Y-297717000D02*
X384545000Y-316767000D01*
X384545000Y-297717000D02*
X403595000Y-297717000D01*
X384545000Y-316767000D02*
X403595000Y-316767000D01*
X403595000Y-297717000D02*
X403595000Y-316767000D01*
%TO.C,SW48*%
X272665000Y-278677000D02*
X272665000Y-297727000D01*
X272665000Y-278677000D02*
X291715000Y-278677000D01*
X272665000Y-297727000D02*
X291715000Y-297727000D01*
X291715000Y-278677000D02*
X291715000Y-297727000D01*
%TO.C,SW51*%
X289285000Y-221450700D02*
X289285000Y-240500700D01*
X289285000Y-221450700D02*
X308335000Y-221450700D01*
X289285000Y-240500700D02*
X308335000Y-240500700D01*
X308335000Y-221450700D02*
X308335000Y-240500700D01*
%TO.C,SW5*%
X139295000Y-278687000D02*
X139295000Y-297737000D01*
X139295000Y-278687000D02*
X158345000Y-278687000D01*
X139295000Y-297737000D02*
X158345000Y-297737000D01*
X158345000Y-278687000D02*
X158345000Y-297737000D01*
%TO.C,SW26*%
X289295000Y-297767000D02*
X289295000Y-316817000D01*
X289295000Y-297767000D02*
X308345000Y-297767000D01*
X289295000Y-316817000D02*
X308345000Y-316817000D01*
X308345000Y-297767000D02*
X308345000Y-316817000D01*
%TO.C,SW34*%
X322645000Y-259617000D02*
X322645000Y-278667000D01*
X322645000Y-259617000D02*
X341695000Y-259617000D01*
X322645000Y-278667000D02*
X341695000Y-278667000D01*
X341695000Y-259617000D02*
X341695000Y-278667000D01*
%TO.C,SW69*%
X346535000Y-221497000D02*
X346535000Y-240547000D01*
X346535000Y-221497000D02*
X365585000Y-221497000D01*
X346535000Y-240547000D02*
X365585000Y-240547000D01*
X365585000Y-221497000D02*
X365585000Y-240547000D01*
%TO.C,SW17*%
X365505000Y-297747000D02*
X365505000Y-316797000D01*
X365505000Y-297747000D02*
X384555000Y-297747000D01*
X365505000Y-316797000D02*
X384555000Y-316797000D01*
X384555000Y-297747000D02*
X384555000Y-316797000D01*
%TO.C,SW7*%
X177435000Y-278677000D02*
X177435000Y-297727000D01*
X177435000Y-278677000D02*
X196485000Y-278677000D01*
X177435000Y-297727000D02*
X196485000Y-297727000D01*
X196485000Y-278677000D02*
X196485000Y-297727000D01*
%TO.C,SW13*%
X127365000Y-240575000D02*
X127365000Y-259625000D01*
X127365000Y-240575000D02*
X146415000Y-240575000D01*
X127365000Y-259625000D02*
X146415000Y-259625000D01*
X146415000Y-240575000D02*
X146415000Y-259625000D01*
%TO.C,SW35*%
X241665000Y-240575000D02*
X241665000Y-259625000D01*
X241665000Y-240575000D02*
X260715000Y-240575000D01*
X241665000Y-259625000D02*
X260715000Y-259625000D01*
X260715000Y-240575000D02*
X260715000Y-259625000D01*
%TO.C,SW71*%
X269385000Y-297737000D02*
X269385000Y-316787000D01*
X269385000Y-297737000D02*
X288435000Y-297737000D01*
X269385000Y-316787000D02*
X288435000Y-316787000D01*
X288435000Y-297737000D02*
X288435000Y-316787000D01*
%TO.C,SW40*%
X234575000Y-278657000D02*
X234575000Y-297707000D01*
X234575000Y-278657000D02*
X253625000Y-278657000D01*
X234575000Y-297707000D02*
X253625000Y-297707000D01*
X253625000Y-278657000D02*
X253625000Y-297707000D01*
%TO.C,SW22*%
X361005000Y-240587000D02*
X361005000Y-259637000D01*
X361005000Y-240587000D02*
X380055000Y-240587000D01*
X361005000Y-259637000D02*
X380055000Y-259637000D01*
X380055000Y-240587000D02*
X380055000Y-259637000D01*
%TO.C,SW58*%
X232195000Y-221497000D02*
X232195000Y-240547000D01*
X232195000Y-221497000D02*
X251245000Y-221497000D01*
X232195000Y-240547000D02*
X251245000Y-240547000D01*
X251245000Y-221497000D02*
X251245000Y-240547000D01*
%TO.C,SW36*%
X151265000Y-259597000D02*
X151265000Y-278647000D01*
X151265000Y-259597000D02*
X170315000Y-259597000D01*
X151265000Y-278647000D02*
X170315000Y-278647000D01*
X170315000Y-259597000D02*
X170315000Y-278647000D01*
%TO.C,SW25*%
X284585000Y-259617000D02*
X284585000Y-278667000D01*
X284585000Y-259617000D02*
X303635000Y-259617000D01*
X284585000Y-278667000D02*
X303635000Y-278667000D01*
X303635000Y-259617000D02*
X303635000Y-278667000D01*
%TO.C,SW28*%
X384535000Y-278647000D02*
X384535000Y-297697000D01*
X384535000Y-278647000D02*
X403585000Y-278647000D01*
X384535000Y-297697000D02*
X403585000Y-297697000D01*
X403585000Y-278647000D02*
X403585000Y-297697000D01*
%TO.C,SW31*%
X150315000Y-297750700D02*
X150315000Y-316800700D01*
X150315000Y-297750700D02*
X169365000Y-297750700D01*
X150315000Y-316800700D02*
X169365000Y-316800700D01*
X169365000Y-297750700D02*
X169365000Y-316800700D01*
%TO.C,SW43*%
X203565000Y-240575000D02*
X203565000Y-259625000D01*
X203565000Y-240575000D02*
X222615000Y-240575000D01*
X203565000Y-259625000D02*
X222615000Y-259625000D01*
X222615000Y-240575000D02*
X222615000Y-259625000D01*
%TO.C,SW6*%
X189345000Y-259637000D02*
X189345000Y-278687000D01*
X189345000Y-259637000D02*
X208395000Y-259637000D01*
X189345000Y-278687000D02*
X208395000Y-278687000D01*
X208395000Y-259637000D02*
X208395000Y-278687000D01*
%TO.C,SW23*%
X184515000Y-240575000D02*
X184515000Y-259625000D01*
X184515000Y-240575000D02*
X203565000Y-240575000D01*
X184515000Y-259625000D02*
X203565000Y-259625000D01*
X203565000Y-240575000D02*
X203565000Y-259625000D01*
%TO.C,SW3*%
X308320000Y-297727000D02*
X308320000Y-316777000D01*
X308320000Y-297727000D02*
X346420000Y-297727000D01*
X308320000Y-316777000D02*
X346420000Y-316777000D01*
X346420000Y-297727000D02*
X346420000Y-316777000D01*
%TO.C,SW18*%
X115495000Y-260707000D02*
X115495000Y-279757000D01*
X115495000Y-260707000D02*
X134545000Y-260707000D01*
X115495000Y-279757000D02*
X134545000Y-279757000D01*
X134545000Y-260707000D02*
X134545000Y-279757000D01*
%TO.C,SW61*%
X308265000Y-221447000D02*
X308265000Y-240497000D01*
X308265000Y-221447000D02*
X327315000Y-221447000D01*
X308265000Y-240497000D02*
X327315000Y-240497000D01*
X327315000Y-221447000D02*
X327315000Y-240497000D01*
%TO.C,SW21*%
X117845000Y-221517000D02*
X117845000Y-240567000D01*
X117845000Y-221517000D02*
X136895000Y-221517000D01*
X117845000Y-240567000D02*
X136895000Y-240567000D01*
X136895000Y-221517000D02*
X136895000Y-240567000D01*
%TO.C,SW68*%
X178950000Y-200567000D02*
X178950000Y-219617000D01*
X178950000Y-200567000D02*
X217050000Y-200567000D01*
X178950000Y-219617000D02*
X217050000Y-219617000D01*
X217050000Y-200567000D02*
X217050000Y-219617000D01*
%TO.C,SW39*%
X227455000Y-259657000D02*
X227455000Y-278707000D01*
X227455000Y-259657000D02*
X246505000Y-259657000D01*
X227455000Y-278707000D02*
X246505000Y-278707000D01*
X246505000Y-259657000D02*
X246505000Y-278707000D01*
%TO.C,SW50*%
X253655000Y-278677000D02*
X253655000Y-297727000D01*
X253655000Y-278677000D02*
X272705000Y-278677000D01*
X253655000Y-297727000D02*
X272705000Y-297727000D01*
X272705000Y-278677000D02*
X272705000Y-297727000D01*
%TO.C,SW67*%
X270315000Y-221497000D02*
X270315000Y-240547000D01*
X270315000Y-221497000D02*
X289365000Y-221497000D01*
X270315000Y-240547000D02*
X289365000Y-240547000D01*
X289365000Y-221497000D02*
X289365000Y-240547000D01*
%TO.C,SW27*%
X170275000Y-259617000D02*
X170275000Y-278667000D01*
X170275000Y-259617000D02*
X189325000Y-259617000D01*
X170275000Y-278667000D02*
X189325000Y-278667000D01*
X189325000Y-259617000D02*
X189325000Y-278667000D01*
%TO.C,SW44*%
X317865000Y-240567000D02*
X317865000Y-259617000D01*
X317865000Y-240567000D02*
X336915000Y-240567000D01*
X317865000Y-259617000D02*
X336915000Y-259617000D01*
X336915000Y-240567000D02*
X336915000Y-259617000D01*
%TO.C,SW52*%
X174995000Y-221517000D02*
X174995000Y-240567000D01*
X174995000Y-221517000D02*
X194045000Y-221517000D01*
X174995000Y-240567000D02*
X194045000Y-240567000D01*
X194045000Y-221517000D02*
X194045000Y-240567000D01*
%TO.C,SW24*%
X222615000Y-240575000D02*
X222615000Y-259625000D01*
X222615000Y-240575000D02*
X241665000Y-240575000D01*
X222615000Y-259625000D02*
X241665000Y-259625000D01*
X241665000Y-240575000D02*
X241665000Y-259625000D01*
%TO.C,SW14*%
X215555000Y-278657000D02*
X215555000Y-297707000D01*
X215555000Y-278657000D02*
X234605000Y-278657000D01*
X215555000Y-297707000D02*
X234605000Y-297707000D01*
X234605000Y-278657000D02*
X234605000Y-297707000D01*
%TO.C,SW12*%
X146415000Y-240575000D02*
X146415000Y-259625000D01*
X146415000Y-240575000D02*
X165465000Y-240575000D01*
X146415000Y-259625000D02*
X165465000Y-259625000D01*
X165465000Y-240575000D02*
X165465000Y-259625000D01*
%TO.C,SW32*%
X155945000Y-221517000D02*
X155945000Y-240567000D01*
X155945000Y-221517000D02*
X174995000Y-221517000D01*
X155945000Y-240567000D02*
X174995000Y-240567000D01*
X174995000Y-221517000D02*
X174995000Y-240567000D01*
%TO.C,SW10*%
X310815000Y-278667000D02*
X310815000Y-297717000D01*
X310815000Y-278667000D02*
X329865000Y-278667000D01*
X310815000Y-297717000D02*
X329865000Y-297717000D01*
X329865000Y-278667000D02*
X329865000Y-297717000D01*
%TO.C,SW37*%
X246485000Y-259607000D02*
X246485000Y-278657000D01*
X246485000Y-259607000D02*
X265535000Y-259607000D01*
X246485000Y-278657000D02*
X265535000Y-278657000D01*
X265535000Y-259607000D02*
X265535000Y-278657000D01*
%TO.C,SW8*%
X196495000Y-278677000D02*
X196495000Y-297727000D01*
X196495000Y-278677000D02*
X215545000Y-278677000D01*
X196495000Y-297727000D02*
X215545000Y-297727000D01*
X215545000Y-278677000D02*
X215545000Y-297727000D01*
%TO.C,SW42*%
X136895000Y-221517000D02*
X136895000Y-240567000D01*
X136895000Y-221517000D02*
X155945000Y-221517000D01*
X136895000Y-240567000D02*
X155945000Y-240567000D01*
X155945000Y-221517000D02*
X155945000Y-240567000D01*
%TO.C,SW49*%
X213085000Y-221507000D02*
X213085000Y-240557000D01*
X213085000Y-221507000D02*
X232135000Y-221507000D01*
X213085000Y-240557000D02*
X232135000Y-240557000D01*
X232135000Y-221507000D02*
X232135000Y-240557000D01*
%TO.C,SW53*%
X298815000Y-240567000D02*
X298815000Y-259617000D01*
X298815000Y-240567000D02*
X317865000Y-240567000D01*
X298815000Y-259617000D02*
X317865000Y-259617000D01*
X317865000Y-240567000D02*
X317865000Y-259617000D01*
%TO.C,SW55*%
X260715000Y-240575000D02*
X260715000Y-259625000D01*
X260715000Y-240575000D02*
X279765000Y-240575000D01*
X260715000Y-259625000D02*
X279765000Y-259625000D01*
X279765000Y-240575000D02*
X279765000Y-259625000D01*
%TO.C,SW11*%
X98795000Y-221517000D02*
X98795000Y-240567000D01*
X98795000Y-221517000D02*
X117845000Y-221517000D01*
X98795000Y-240567000D02*
X117845000Y-240567000D01*
X117845000Y-221517000D02*
X117845000Y-240567000D01*
%TO.C,SW47*%
X208375000Y-259627000D02*
X208375000Y-278677000D01*
X208375000Y-259627000D02*
X227425000Y-259627000D01*
X208375000Y-278677000D02*
X227425000Y-278677000D01*
X227425000Y-259627000D02*
X227425000Y-278677000D01*
%TO.C,SW29*%
X158375000Y-278677000D02*
X158375000Y-297727000D01*
X158375000Y-278677000D02*
X177425000Y-278677000D01*
X158375000Y-297727000D02*
X177425000Y-297727000D01*
X177425000Y-278677000D02*
X177425000Y-297727000D01*
%TO.C,SW20*%
X251255000Y-221517000D02*
X251255000Y-240567000D01*
X251255000Y-221517000D02*
X270305000Y-221517000D01*
X251255000Y-240567000D02*
X270305000Y-240567000D01*
X270305000Y-221517000D02*
X270305000Y-240567000D01*
%TO.C,SW59*%
X327415000Y-221487000D02*
X327415000Y-240537000D01*
X327415000Y-221487000D02*
X346465000Y-221487000D01*
X327415000Y-240537000D02*
X346465000Y-240537000D01*
X346465000Y-221487000D02*
X346465000Y-240537000D01*
%TO.C,SW46*%
X303625000Y-259617000D02*
X303625000Y-278667000D01*
X303625000Y-259617000D02*
X322675000Y-259617000D01*
X303625000Y-278667000D02*
X322675000Y-278667000D01*
X322675000Y-259617000D02*
X322675000Y-278667000D01*
%TO.C,SW64*%
X384545000Y-240567000D02*
X384545000Y-259617000D01*
X384545000Y-240567000D02*
X403595000Y-240567000D01*
X384545000Y-259617000D02*
X403595000Y-259617000D01*
X403595000Y-240567000D02*
X403595000Y-259617000D01*
%TD*%
M02*
