%TF.GenerationSoftware,KiCad,Pcbnew,9.0.2*%
%TF.CreationDate,2025-06-27T22:30:48-07:00*%
%TF.ProjectId,Proj3,50726f6a-332e-46b6-9963-61645f706362,rev?*%
%TF.SameCoordinates,Original*%
%TF.FileFunction,Soldermask,Top*%
%TF.FilePolarity,Negative*%
%FSLAX46Y46*%
G04 Gerber Fmt 4.6, Leading zero omitted, Abs format (unit mm)*
G04 Created by KiCad (PCBNEW 9.0.2) date 2025-06-27 22:30:48*
%MOMM*%
%LPD*%
G01*
G04 APERTURE LIST*
G04 Aperture macros list*
%AMRoundRect*
0 Rectangle with rounded corners*
0 $1 Rounding radius*
0 $2 $3 $4 $5 $6 $7 $8 $9 X,Y pos of 4 corners*
0 Add a 4 corners polygon primitive as box body*
4,1,4,$2,$3,$4,$5,$6,$7,$8,$9,$2,$3,0*
0 Add four circle primitives for the rounded corners*
1,1,$1+$1,$2,$3*
1,1,$1+$1,$4,$5*
1,1,$1+$1,$6,$7*
1,1,$1+$1,$8,$9*
0 Add four rect primitives between the rounded corners*
20,1,$1+$1,$2,$3,$4,$5,0*
20,1,$1+$1,$4,$5,$6,$7,0*
20,1,$1+$1,$6,$7,$8,$9,0*
20,1,$1+$1,$8,$9,$2,$3,0*%
G04 Aperture macros list end*
%ADD10RoundRect,0.090000X-0.360000X0.660000X-0.360000X-0.660000X0.360000X-0.660000X0.360000X0.660000X0*%
%ADD11C,1.700000*%
%ADD12C,3.400000*%
%ADD13C,2.250000*%
%ADD14C,1.905000*%
%ADD15R,1.905000X1.905000*%
%ADD16C,1.600000*%
%ADD17RoundRect,0.250000X-0.550000X0.550000X-0.550000X-0.550000X0.550000X-0.550000X0.550000X0.550000X0*%
%ADD18C,1.200000*%
%ADD19RoundRect,0.250000X0.550000X-0.550000X0.550000X0.550000X-0.550000X0.550000X-0.550000X-0.550000X0*%
%ADD20R,2.000000X2.000000*%
%ADD21C,2.000000*%
%ADD22R,3.200000X2.000000*%
%ADD23RoundRect,0.090000X0.360000X-0.660000X0.360000X0.660000X-0.360000X0.660000X-0.360000X-0.660000X0*%
%ADD24RoundRect,0.090000X0.660000X0.360000X-0.660000X0.360000X-0.660000X-0.360000X0.660000X-0.360000X0*%
%ADD25RoundRect,0.090000X-0.660000X-0.360000X0.660000X-0.360000X0.660000X0.360000X-0.660000X0.360000X0*%
%ADD26RoundRect,0.250000X0.450000X-0.262500X0.450000X0.262500X-0.450000X0.262500X-0.450000X-0.262500X0*%
%ADD27RoundRect,0.200000X0.600000X0.600000X-0.600000X0.600000X-0.600000X-0.600000X0.600000X-0.600000X0*%
%ADD28C,2.200000*%
%ADD29C,1.850000*%
G04 APERTURE END LIST*
D10*
%TO.C,D37*%
X110900000Y-216312000D03*
X107600000Y-216312000D03*
X107600000Y-211412000D03*
X110900000Y-211412000D03*
%TD*%
D11*
%TO.C,SW60*%
X113550000Y-289212000D03*
D12*
X119050000Y-289212000D03*
D11*
X124550000Y-289212000D03*
D13*
X119050000Y-295112000D03*
X114050000Y-293012000D03*
D14*
X120320000Y-284412000D03*
D15*
X117780000Y-284412000D03*
%TD*%
D16*
%TO.C,D67*%
X253720000Y-294772000D03*
D17*
X253720000Y-287152000D03*
%TD*%
D16*
%TO.C,D75*%
X298740000Y-256812000D03*
D17*
X298740000Y-249192000D03*
%TD*%
%TO.C,D95*%
X240380000Y-306042000D03*
D16*
X240380000Y-313662000D03*
%TD*%
%TO.C,D57*%
X355630000Y-256632000D03*
D17*
X355630000Y-249012000D03*
%TD*%
D16*
%TO.C,D24*%
X241640000Y-256732000D03*
D17*
X241640000Y-249112000D03*
%TD*%
D16*
%TO.C,D42*%
X222520000Y-259432000D03*
D17*
X222520000Y-251812000D03*
%TD*%
D16*
%TO.C,D43*%
X303680000Y-275442000D03*
D17*
X303680000Y-267822000D03*
%TD*%
D16*
%TO.C,D59*%
X260610000Y-256172000D03*
D17*
X260610000Y-248552000D03*
%TD*%
D16*
%TO.C,D74*%
X336960000Y-256332000D03*
D17*
X336960000Y-248712000D03*
%TD*%
D16*
%TO.C,D80*%
X227360000Y-275172000D03*
D17*
X227360000Y-267552000D03*
%TD*%
D16*
%TO.C,D91*%
X279750000Y-256092000D03*
D17*
X279750000Y-248472000D03*
%TD*%
D16*
%TO.C,D40*%
X379920000Y-256582000D03*
D17*
X379920000Y-248962000D03*
%TD*%
D11*
%TO.C,SW56*%
X223370000Y-307515700D03*
D12*
X228870000Y-307515700D03*
D18*
X234090000Y-303315700D03*
D11*
X234370000Y-307515700D03*
D13*
X228870000Y-313415700D03*
X223870000Y-311315700D03*
D14*
X230140000Y-302715700D03*
D15*
X227600000Y-302715700D03*
%TD*%
D17*
%TO.C,D66*%
X246410000Y-268312000D03*
D16*
X246410000Y-275932000D03*
%TD*%
%TO.C,D41*%
X203550000Y-256522000D03*
D17*
X203550000Y-248902000D03*
%TD*%
D16*
%TO.C,D14*%
X208500000Y-275272000D03*
D17*
X208500000Y-267652000D03*
%TD*%
D16*
%TO.C,D17*%
X234540000Y-286172000D03*
D19*
X234540000Y-293792000D03*
%TD*%
D16*
%TO.C,D34*%
X380780000Y-276342000D03*
D17*
X380780000Y-268722000D03*
%TD*%
D16*
%TO.C,D64*%
X265380000Y-275472000D03*
D17*
X265380000Y-267852000D03*
%TD*%
D16*
%TO.C,D26*%
X308410000Y-313442000D03*
D17*
X308410000Y-305822000D03*
%TD*%
D16*
%TO.C,D107*%
X403520000Y-275602000D03*
D17*
X403520000Y-267982000D03*
%TD*%
D16*
%TO.C,D79*%
X322530000Y-275362000D03*
D17*
X322530000Y-267742000D03*
%TD*%
D16*
%TO.C,D8*%
X403490000Y-313122000D03*
D17*
X403490000Y-305502000D03*
%TD*%
D16*
%TO.C,D18*%
X329810000Y-294552000D03*
D17*
X329810000Y-286932000D03*
%TD*%
D16*
%TO.C,D32*%
X384270000Y-313872000D03*
D17*
X384270000Y-306252000D03*
%TD*%
D16*
%TO.C,D65*%
X284330000Y-275672000D03*
D17*
X284330000Y-268052000D03*
%TD*%
D16*
%TO.C,D81*%
X272420000Y-296662000D03*
D17*
X272420000Y-289042000D03*
%TD*%
D16*
%TO.C,D83*%
X272480000Y-286822000D03*
D17*
X272480000Y-279202000D03*
%TD*%
D16*
%TO.C,D7*%
X310930000Y-313392000D03*
D17*
X310930000Y-305772000D03*
%TD*%
D16*
%TO.C,D106*%
X403630000Y-256142000D03*
D17*
X403630000Y-248522000D03*
%TD*%
D16*
%TO.C,D47*%
X288890000Y-314222000D03*
D17*
X288890000Y-306602000D03*
%TD*%
D16*
%TO.C,D58*%
X341580000Y-275752000D03*
D17*
X341580000Y-268132000D03*
%TD*%
D16*
%TO.C,D5*%
X365620000Y-314262000D03*
D17*
X365620000Y-306642000D03*
%TD*%
D16*
%TO.C,D89*%
X317850000Y-256462000D03*
D17*
X317850000Y-248842000D03*
%TD*%
D10*
%TO.C,D12*%
X121830000Y-211562000D03*
X118530000Y-211562000D03*
X118530000Y-216462000D03*
X121830000Y-216462000D03*
%TD*%
D18*
%TO.C,SW70*%
X184110000Y-303085700D03*
D12*
X178890000Y-307285700D03*
D15*
X177620000Y-302485700D03*
D14*
X180160000Y-302485700D03*
D13*
X178890000Y-313185700D03*
X173890000Y-311085700D03*
D11*
X173390000Y-307285700D03*
X184390000Y-307285700D03*
%TD*%
D20*
%TO.C,SW66*%
X295650000Y-205462000D03*
D21*
X295650000Y-207962000D03*
X295650000Y-210462000D03*
D22*
X303150000Y-202362000D03*
X303150000Y-213562000D03*
D21*
X310150000Y-205462000D03*
X310150000Y-210462000D03*
%TD*%
D10*
%TO.C,D2*%
X404700000Y-201772000D03*
X401400000Y-201772000D03*
X401400000Y-206672000D03*
X404700000Y-206672000D03*
%TD*%
D23*
%TO.C,D38*%
X401250000Y-214262000D03*
X404550000Y-214262000D03*
X404550000Y-209362000D03*
X401250000Y-209362000D03*
%TD*%
D11*
%TO.C,SW33*%
X340940000Y-250092000D03*
D12*
X346440000Y-250092000D03*
D18*
X351660000Y-245892000D03*
D11*
X351940000Y-250092000D03*
D13*
X346440000Y-255992000D03*
X341440000Y-253892000D03*
D14*
X347710000Y-245292000D03*
D15*
X345170000Y-245292000D03*
%TD*%
D11*
%TO.C,SW45*%
X283790000Y-250100000D03*
D12*
X289290000Y-250100000D03*
D18*
X294510000Y-245900000D03*
D11*
X294790000Y-250100000D03*
D13*
X289290000Y-256000000D03*
X284290000Y-253900000D03*
D14*
X290560000Y-245300000D03*
D15*
X288020000Y-245300000D03*
%TD*%
D11*
%TO.C,SW9*%
X295760000Y-288212000D03*
D12*
X301260000Y-288212000D03*
D18*
X306480000Y-284012000D03*
D11*
X306760000Y-288212000D03*
D13*
X301260000Y-294112000D03*
X296260000Y-292012000D03*
D14*
X302530000Y-283412000D03*
D15*
X299990000Y-283412000D03*
%TD*%
D11*
%TO.C,SW38*%
X269560000Y-269142000D03*
D12*
X275060000Y-269142000D03*
D18*
X280280000Y-264942000D03*
D11*
X280560000Y-269142000D03*
D13*
X275060000Y-275042000D03*
X270060000Y-272942000D03*
D14*
X276330000Y-264342000D03*
D15*
X273790000Y-264342000D03*
%TD*%
D11*
%TO.C,SW15*%
X107570000Y-250092000D03*
D12*
X113070000Y-250092000D03*
D18*
X118290000Y-245892000D03*
D11*
X118570000Y-250092000D03*
D13*
X113070000Y-255992000D03*
X108070000Y-253892000D03*
D14*
X114340000Y-245292000D03*
D15*
X111800000Y-245292000D03*
%TD*%
D11*
%TO.C,SW19*%
X357620000Y-269142000D03*
D12*
X363120000Y-269142000D03*
D11*
X368620000Y-269142000D03*
D13*
X363120000Y-275042000D03*
X358120000Y-272942000D03*
D14*
X364390000Y-264342000D03*
D15*
X361850000Y-264342000D03*
%TD*%
D11*
%TO.C,SW30*%
X97090000Y-307222000D03*
D12*
X102590000Y-307222000D03*
D18*
X107810000Y-303022000D03*
D11*
X108090000Y-307222000D03*
D13*
X102590000Y-313122000D03*
X97590000Y-311022000D03*
D14*
X103860000Y-302422000D03*
D15*
X101320000Y-302422000D03*
%TD*%
D23*
%TO.C,D10*%
X92830000Y-209002000D03*
X96130000Y-209002000D03*
X96130000Y-204102000D03*
X92830000Y-204102000D03*
%TD*%
D24*
%TO.C,D93*%
X371417700Y-206102000D03*
X371417700Y-202802000D03*
X366517700Y-202802000D03*
X366517700Y-206102000D03*
%TD*%
D11*
%TO.C,SW62*%
X198070000Y-231042000D03*
D12*
X203570000Y-231042000D03*
D18*
X208790000Y-226842000D03*
D11*
X209070000Y-231042000D03*
D13*
X203570000Y-236942000D03*
X198570000Y-234842000D03*
D14*
X204840000Y-226242000D03*
D15*
X202300000Y-226242000D03*
%TD*%
D25*
%TO.C,D77*%
X358887700Y-202892000D03*
X358887700Y-206192000D03*
X363787700Y-206192000D03*
X363787700Y-202892000D03*
%TD*%
D11*
%TO.C,SW57*%
X135230000Y-307272000D03*
D12*
X140730000Y-307272000D03*
D18*
X145950000Y-303072000D03*
D11*
X146230000Y-307272000D03*
D13*
X140730000Y-313172000D03*
X135730000Y-311072000D03*
D14*
X142000000Y-302472000D03*
D15*
X139460000Y-302472000D03*
%TD*%
D10*
%TO.C,D117*%
X395960000Y-201482000D03*
X392660000Y-201482000D03*
X392660000Y-206382000D03*
X395960000Y-206382000D03*
%TD*%
D11*
%TO.C,SW63*%
X342160000Y-288202000D03*
D12*
X347660000Y-288202000D03*
D18*
X352880000Y-284002000D03*
D11*
X353160000Y-288202000D03*
D13*
X347660000Y-294102000D03*
X342660000Y-292002000D03*
D14*
X348930000Y-283402000D03*
D15*
X346390000Y-283402000D03*
%TD*%
D10*
%TO.C,D13*%
X279100000Y-202232000D03*
X275800000Y-202232000D03*
X275800000Y-207132000D03*
X279100000Y-207132000D03*
%TD*%
D11*
%TO.C,SW54*%
X169490000Y-250100000D03*
D12*
X174990000Y-250100000D03*
D18*
X180210000Y-245900000D03*
D11*
X180490000Y-250100000D03*
D13*
X174990000Y-256000000D03*
X169990000Y-253900000D03*
D14*
X176260000Y-245300000D03*
D15*
X173720000Y-245300000D03*
%TD*%
D11*
%TO.C,SW65*%
X388570000Y-269142000D03*
D12*
X394070000Y-269142000D03*
D18*
X399290000Y-264942000D03*
D11*
X399570000Y-269142000D03*
D13*
X394070000Y-275042000D03*
X389070000Y-272942000D03*
D14*
X395340000Y-264342000D03*
D15*
X392800000Y-264342000D03*
%TD*%
D23*
%TO.C,D21*%
X123140000Y-208452000D03*
X126440000Y-208452000D03*
X126440000Y-203552000D03*
X123140000Y-203552000D03*
%TD*%
D11*
%TO.C,SW2*%
X369520000Y-288192000D03*
D12*
X375020000Y-288192000D03*
D18*
X380240000Y-283992000D03*
D11*
X380520000Y-288192000D03*
D13*
X375020000Y-294092000D03*
X370020000Y-291992000D03*
D14*
X376290000Y-283392000D03*
D15*
X373750000Y-283392000D03*
%TD*%
D10*
%TO.C,D60*%
X147390000Y-203222000D03*
X144090000Y-203222000D03*
X144090000Y-208122000D03*
X147390000Y-208122000D03*
%TD*%
D11*
%TO.C,SW41*%
X116150000Y-307242000D03*
D12*
X121650000Y-307242000D03*
D18*
X126870000Y-303042000D03*
D11*
X127150000Y-307242000D03*
D13*
X121650000Y-313142000D03*
X116650000Y-311042000D03*
D14*
X122920000Y-302442000D03*
D15*
X120380000Y-302442000D03*
%TD*%
D11*
%TO.C,SW1*%
X350470000Y-307242000D03*
D12*
X355970000Y-307242000D03*
D18*
X361190000Y-303042000D03*
D11*
X361470000Y-307242000D03*
D13*
X355970000Y-313142000D03*
X350970000Y-311042000D03*
D14*
X357240000Y-302442000D03*
D15*
X354700000Y-302442000D03*
%TD*%
D24*
%TO.C,D30*%
X387657700Y-212722000D03*
X387657700Y-209422000D03*
X382757700Y-209422000D03*
X382757700Y-212722000D03*
%TD*%
D10*
%TO.C,D45*%
X116330000Y-204042000D03*
X113030000Y-204042000D03*
X113030000Y-208942000D03*
X116330000Y-208942000D03*
%TD*%
D11*
%TO.C,SW4*%
X388570000Y-307242000D03*
D12*
X394070000Y-307242000D03*
D18*
X399290000Y-303042000D03*
D11*
X399570000Y-307242000D03*
D13*
X394070000Y-313142000D03*
X389070000Y-311042000D03*
D14*
X395340000Y-302442000D03*
D15*
X392800000Y-302442000D03*
%TD*%
D25*
%TO.C,D44*%
X350767700Y-202892000D03*
X350767700Y-206192000D03*
X355667700Y-206192000D03*
X355667700Y-202892000D03*
%TD*%
D11*
%TO.C,SW48*%
X276690000Y-288202000D03*
D12*
X282190000Y-288202000D03*
D18*
X287410000Y-284002000D03*
D11*
X287690000Y-288202000D03*
D13*
X282190000Y-294102000D03*
X277190000Y-292002000D03*
D14*
X283460000Y-283402000D03*
D15*
X280920000Y-283402000D03*
%TD*%
D11*
%TO.C,SW51*%
X293310000Y-230975700D03*
D12*
X298810000Y-230975700D03*
D18*
X304030000Y-226775700D03*
D11*
X304310000Y-230975700D03*
D13*
X298810000Y-236875700D03*
X293810000Y-234775700D03*
D14*
X300080000Y-226175700D03*
D15*
X297540000Y-226175700D03*
%TD*%
D11*
%TO.C,SW5*%
X143320000Y-288212000D03*
D12*
X148820000Y-288212000D03*
D18*
X154040000Y-284012000D03*
D11*
X154320000Y-288212000D03*
D13*
X148820000Y-294112000D03*
X143820000Y-292012000D03*
D14*
X150090000Y-283412000D03*
D15*
X147550000Y-283412000D03*
%TD*%
D10*
%TO.C,D92*%
X227890000Y-210122000D03*
X224590000Y-210122000D03*
X224590000Y-215022000D03*
X227890000Y-215022000D03*
%TD*%
D25*
%TO.C,D86*%
X335007700Y-203022000D03*
X335007700Y-206322000D03*
X339907700Y-206322000D03*
X339907700Y-203022000D03*
%TD*%
%TO.C,D4*%
X342647700Y-202892000D03*
X342647700Y-206192000D03*
X347547700Y-206192000D03*
X347547700Y-202892000D03*
%TD*%
%TO.C,D1*%
X342647700Y-209512000D03*
X342647700Y-212812000D03*
X347547700Y-212812000D03*
X347547700Y-209512000D03*
%TD*%
D11*
%TO.C,SW26*%
X293320000Y-307292000D03*
D12*
X298820000Y-307292000D03*
D18*
X304040000Y-303092000D03*
D11*
X304320000Y-307292000D03*
D13*
X298820000Y-313192000D03*
X293820000Y-311092000D03*
D14*
X300090000Y-302492000D03*
D15*
X297550000Y-302492000D03*
%TD*%
D11*
%TO.C,SW34*%
X326670000Y-269142000D03*
D12*
X332170000Y-269142000D03*
D18*
X337390000Y-264942000D03*
D11*
X337670000Y-269142000D03*
D13*
X332170000Y-275042000D03*
X327170000Y-272942000D03*
D14*
X333440000Y-264342000D03*
D15*
X330900000Y-264342000D03*
%TD*%
D11*
%TO.C,SW69*%
X350560000Y-231022000D03*
D12*
X356060000Y-231022000D03*
D18*
X361280000Y-226822000D03*
D11*
X361560000Y-231022000D03*
D13*
X356060000Y-236922000D03*
X351060000Y-234822000D03*
D14*
X357330000Y-226222000D03*
D15*
X354790000Y-226222000D03*
%TD*%
D11*
%TO.C,SW17*%
X369530000Y-307272000D03*
D12*
X375030000Y-307272000D03*
D18*
X380250000Y-303072000D03*
D11*
X380530000Y-307272000D03*
D13*
X375030000Y-313172000D03*
X370030000Y-311072000D03*
D14*
X376300000Y-302472000D03*
D15*
X373760000Y-302472000D03*
%TD*%
D10*
%TO.C,D68*%
X173650000Y-210932000D03*
X170350000Y-210932000D03*
X170350000Y-215832000D03*
X173650000Y-215832000D03*
%TD*%
%TO.C,D76*%
X165680000Y-210712000D03*
X162380000Y-210712000D03*
X162380000Y-215612000D03*
X165680000Y-215612000D03*
%TD*%
D11*
%TO.C,SW7*%
X181460000Y-288202000D03*
D12*
X186960000Y-288202000D03*
D18*
X192180000Y-284002000D03*
D11*
X192460000Y-288202000D03*
D13*
X186960000Y-294102000D03*
X181960000Y-292002000D03*
D14*
X188230000Y-283402000D03*
D15*
X185690000Y-283402000D03*
%TD*%
D10*
%TO.C,D110*%
X240020000Y-210282000D03*
X236720000Y-210282000D03*
X236720000Y-215182000D03*
X240020000Y-215182000D03*
%TD*%
D11*
%TO.C,SW13*%
X131390000Y-250100000D03*
D12*
X136890000Y-250100000D03*
D18*
X142110000Y-245900000D03*
D11*
X142390000Y-250100000D03*
D13*
X136890000Y-256000000D03*
X131890000Y-253900000D03*
D14*
X138160000Y-245300000D03*
D15*
X135620000Y-245300000D03*
%TD*%
D11*
%TO.C,SW35*%
X245690000Y-250100000D03*
D12*
X251190000Y-250100000D03*
D18*
X256410000Y-245900000D03*
D11*
X256690000Y-250100000D03*
D13*
X251190000Y-256000000D03*
X246190000Y-253900000D03*
D14*
X252460000Y-245300000D03*
D15*
X249920000Y-245300000D03*
%TD*%
D11*
%TO.C,SW71*%
X273410000Y-307262000D03*
D12*
X278910000Y-307262000D03*
D18*
X284130000Y-303062000D03*
D11*
X284410000Y-307262000D03*
D13*
X278910000Y-313162000D03*
X273910000Y-311062000D03*
D14*
X280180000Y-302462000D03*
D15*
X277640000Y-302462000D03*
%TD*%
D10*
%TO.C,D100*%
X262660000Y-202062000D03*
X259360000Y-202062000D03*
X259360000Y-206962000D03*
X262660000Y-206962000D03*
%TD*%
D11*
%TO.C,SW40*%
X238600000Y-288182000D03*
D12*
X244100000Y-288182000D03*
D18*
X249320000Y-283982000D03*
D11*
X249600000Y-288182000D03*
D13*
X244100000Y-294082000D03*
X239100000Y-291982000D03*
D14*
X245370000Y-283382000D03*
D15*
X242830000Y-283382000D03*
%TD*%
D11*
%TO.C,SW22*%
X365030000Y-250112000D03*
D12*
X370530000Y-250112000D03*
D18*
X375750000Y-245912000D03*
D11*
X376030000Y-250112000D03*
D13*
X370530000Y-256012000D03*
X365530000Y-253912000D03*
D14*
X371800000Y-245312000D03*
D15*
X369260000Y-245312000D03*
%TD*%
D10*
%TO.C,D116*%
X234140000Y-202152000D03*
X230840000Y-202152000D03*
X230840000Y-207052000D03*
X234140000Y-207052000D03*
%TD*%
D11*
%TO.C,SW58*%
X236220000Y-231022000D03*
D12*
X241720000Y-231022000D03*
D18*
X246940000Y-226822000D03*
D11*
X247220000Y-231022000D03*
D13*
X241720000Y-236922000D03*
X236720000Y-234822000D03*
D14*
X242990000Y-226222000D03*
D15*
X240450000Y-226222000D03*
%TD*%
D24*
%TO.C,D62*%
X379537700Y-212722000D03*
X379537700Y-209422000D03*
X374637700Y-209422000D03*
X374637700Y-212722000D03*
%TD*%
D11*
%TO.C,SW36*%
X155290000Y-269122000D03*
D12*
X160790000Y-269122000D03*
D18*
X166010000Y-264922000D03*
D11*
X166290000Y-269122000D03*
D13*
X160790000Y-275022000D03*
X155790000Y-272922000D03*
D14*
X162060000Y-264322000D03*
D15*
X159520000Y-264322000D03*
%TD*%
D24*
%TO.C,D94*%
X371417700Y-212722000D03*
X371417700Y-209422000D03*
X366517700Y-209422000D03*
X366517700Y-212722000D03*
%TD*%
D11*
%TO.C,SW25*%
X288610000Y-269142000D03*
D12*
X294110000Y-269142000D03*
D18*
X299330000Y-264942000D03*
D11*
X299610000Y-269142000D03*
D13*
X294110000Y-275042000D03*
X289110000Y-272942000D03*
D14*
X295380000Y-264342000D03*
D15*
X292840000Y-264342000D03*
%TD*%
D11*
%TO.C,SW28*%
X388560000Y-288172000D03*
D12*
X394060000Y-288172000D03*
D18*
X399280000Y-283972000D03*
D11*
X399560000Y-288172000D03*
D13*
X394060000Y-294072000D03*
X389060000Y-291972000D03*
D14*
X395330000Y-283372000D03*
D15*
X392790000Y-283372000D03*
%TD*%
D11*
%TO.C,SW31*%
X154340000Y-307275700D03*
D12*
X159840000Y-307275700D03*
D18*
X165060000Y-303075700D03*
D11*
X165340000Y-307275700D03*
D13*
X159840000Y-313175700D03*
X154840000Y-311075700D03*
D14*
X161110000Y-302475700D03*
D15*
X158570000Y-302475700D03*
%TD*%
D11*
%TO.C,SW43*%
X207590000Y-250100000D03*
D12*
X213090000Y-250100000D03*
D18*
X218310000Y-245900000D03*
D11*
X218590000Y-250100000D03*
D13*
X213090000Y-256000000D03*
X208090000Y-253900000D03*
D14*
X214360000Y-245300000D03*
D15*
X211820000Y-245300000D03*
%TD*%
D10*
%TO.C,D109*%
X165680000Y-202592000D03*
X162380000Y-202592000D03*
X162380000Y-207492000D03*
X165680000Y-207492000D03*
%TD*%
D24*
%TO.C,D61*%
X379537700Y-206102000D03*
X379537700Y-202802000D03*
X374637700Y-202802000D03*
X374637700Y-206102000D03*
%TD*%
D23*
%TO.C,D111*%
X251660000Y-214692000D03*
X254960000Y-214692000D03*
X254960000Y-209792000D03*
X251660000Y-209792000D03*
%TD*%
D11*
%TO.C,SW6*%
X193370000Y-269162000D03*
D12*
X198870000Y-269162000D03*
D18*
X204090000Y-264962000D03*
D11*
X204370000Y-269162000D03*
D13*
X198870000Y-275062000D03*
X193870000Y-272962000D03*
D14*
X200140000Y-264362000D03*
D15*
X197600000Y-264362000D03*
%TD*%
D26*
%TO.C,R1*%
X412950000Y-239252000D03*
X412950000Y-237427000D03*
%TD*%
D11*
%TO.C,SW23*%
X188540000Y-250100000D03*
D12*
X194040000Y-250100000D03*
D18*
X199260000Y-245900000D03*
D11*
X199540000Y-250100000D03*
D13*
X194040000Y-256000000D03*
X189040000Y-253900000D03*
D14*
X195310000Y-245300000D03*
D15*
X192770000Y-245300000D03*
%TD*%
D23*
%TO.C,D19*%
X282690000Y-214692000D03*
X285990000Y-214692000D03*
X285990000Y-209792000D03*
X282690000Y-209792000D03*
%TD*%
D11*
%TO.C,SW3*%
X321870000Y-307252000D03*
D12*
X327370000Y-307252000D03*
D18*
X332590000Y-303052000D03*
D11*
X332870000Y-307252000D03*
D13*
X327370000Y-313152000D03*
X322370000Y-311052000D03*
D14*
X328640000Y-302452000D03*
D15*
X326100000Y-302452000D03*
%TD*%
D11*
%TO.C,SW18*%
X119520000Y-270232000D03*
D12*
X125020000Y-270232000D03*
D18*
X130240000Y-266032000D03*
D11*
X130520000Y-270232000D03*
D13*
X125020000Y-276132000D03*
X120020000Y-274032000D03*
D14*
X126290000Y-265432000D03*
D15*
X123750000Y-265432000D03*
%TD*%
D11*
%TO.C,SW61*%
X312290000Y-230972000D03*
D12*
X317790000Y-230972000D03*
D18*
X323010000Y-226772000D03*
D11*
X323290000Y-230972000D03*
D13*
X317790000Y-236872000D03*
X312790000Y-234772000D03*
D14*
X319060000Y-226172000D03*
D15*
X316520000Y-226172000D03*
%TD*%
D11*
%TO.C,SW21*%
X121870000Y-231042000D03*
D12*
X127370000Y-231042000D03*
D18*
X132590000Y-226842000D03*
D11*
X132870000Y-231042000D03*
D13*
X127370000Y-236942000D03*
X122370000Y-234842000D03*
D14*
X128640000Y-226242000D03*
D15*
X126100000Y-226242000D03*
%TD*%
D11*
%TO.C,SW68*%
X192500000Y-210092000D03*
D12*
X198000000Y-210092000D03*
D18*
X203220000Y-205892000D03*
D11*
X203500000Y-210092000D03*
D13*
X198000000Y-215992000D03*
X193000000Y-213892000D03*
D14*
X199270000Y-205292000D03*
D15*
X196730000Y-205292000D03*
%TD*%
D11*
%TO.C,SW39*%
X231480000Y-269182000D03*
D12*
X236980000Y-269182000D03*
D18*
X242200000Y-264982000D03*
D11*
X242480000Y-269182000D03*
D13*
X236980000Y-275082000D03*
X231980000Y-272982000D03*
D14*
X238250000Y-264382000D03*
D15*
X235710000Y-264382000D03*
%TD*%
D10*
%TO.C,D28*%
X105430000Y-204082000D03*
X102130000Y-204082000D03*
X102130000Y-208982000D03*
X105430000Y-208982000D03*
%TD*%
D11*
%TO.C,SW50*%
X257680000Y-288202000D03*
D12*
X263180000Y-288202000D03*
D18*
X268400000Y-284002000D03*
D11*
X268680000Y-288202000D03*
D13*
X263180000Y-294102000D03*
X258180000Y-292002000D03*
D14*
X264450000Y-283402000D03*
D15*
X261910000Y-283402000D03*
%TD*%
D11*
%TO.C,SW67*%
X274340000Y-231022000D03*
D12*
X279840000Y-231022000D03*
D18*
X285060000Y-226822000D03*
D11*
X285340000Y-231022000D03*
D13*
X279840000Y-236922000D03*
X274840000Y-234822000D03*
D14*
X281110000Y-226222000D03*
D15*
X278570000Y-226222000D03*
%TD*%
D11*
%TO.C,SW27*%
X174300000Y-269142000D03*
D12*
X179800000Y-269142000D03*
D18*
X185020000Y-264942000D03*
D11*
X185300000Y-269142000D03*
D13*
X179800000Y-275042000D03*
X174800000Y-272942000D03*
D14*
X181070000Y-264342000D03*
D15*
X178530000Y-264342000D03*
%TD*%
D10*
%TO.C,D108*%
X173510000Y-202672000D03*
X170210000Y-202672000D03*
X170210000Y-207572000D03*
X173510000Y-207572000D03*
%TD*%
D11*
%TO.C,SW44*%
X321890000Y-250092000D03*
D12*
X327390000Y-250092000D03*
D18*
X332610000Y-245892000D03*
D11*
X332890000Y-250092000D03*
D13*
X327390000Y-255992000D03*
X322390000Y-253892000D03*
D14*
X328660000Y-245292000D03*
D15*
X326120000Y-245292000D03*
%TD*%
D11*
%TO.C,SW16*%
X379730000Y-232105700D03*
D12*
X385230000Y-232105700D03*
D11*
X390730000Y-232105700D03*
D13*
X385230000Y-238005700D03*
X380230000Y-235905700D03*
D14*
X386500000Y-227305700D03*
D15*
X383960000Y-227305700D03*
%TD*%
D23*
%TO.C,D69*%
X133100000Y-208822000D03*
X136400000Y-208822000D03*
X136400000Y-203922000D03*
X133100000Y-203922000D03*
%TD*%
D11*
%TO.C,SW52*%
X179020000Y-231042000D03*
D12*
X184520000Y-231042000D03*
D18*
X189740000Y-226842000D03*
D11*
X190020000Y-231042000D03*
D13*
X184520000Y-236942000D03*
X179520000Y-234842000D03*
D14*
X185790000Y-226242000D03*
D15*
X183250000Y-226242000D03*
%TD*%
D25*
%TO.C,D36*%
X350767700Y-209512000D03*
X350767700Y-212812000D03*
X355667700Y-212812000D03*
X355667700Y-209512000D03*
%TD*%
D11*
%TO.C,SW24*%
X226640000Y-250100000D03*
D12*
X232140000Y-250100000D03*
D18*
X237360000Y-245900000D03*
D11*
X237640000Y-250100000D03*
D13*
X232140000Y-256000000D03*
X227140000Y-253900000D03*
D14*
X233410000Y-245300000D03*
D15*
X230870000Y-245300000D03*
%TD*%
D25*
%TO.C,D52*%
X326887700Y-209642000D03*
X326887700Y-212942000D03*
X331787700Y-212942000D03*
X331787700Y-209642000D03*
%TD*%
D11*
%TO.C,SW14*%
X219580000Y-288182000D03*
D12*
X225080000Y-288182000D03*
D18*
X230300000Y-283982000D03*
D11*
X230580000Y-288182000D03*
D13*
X225080000Y-294082000D03*
X220080000Y-291982000D03*
D14*
X226350000Y-283382000D03*
D15*
X223810000Y-283382000D03*
%TD*%
D11*
%TO.C,SW12*%
X150440000Y-250100000D03*
D12*
X155940000Y-250100000D03*
D18*
X161160000Y-245900000D03*
D11*
X161440000Y-250100000D03*
D13*
X155940000Y-256000000D03*
X150940000Y-253900000D03*
D14*
X157210000Y-245300000D03*
D15*
X154670000Y-245300000D03*
%TD*%
D11*
%TO.C,SW32*%
X159970000Y-231042000D03*
D12*
X165470000Y-231042000D03*
D18*
X170690000Y-226842000D03*
D11*
X170970000Y-231042000D03*
D13*
X165470000Y-236942000D03*
X160470000Y-234842000D03*
D14*
X166740000Y-226242000D03*
D15*
X164200000Y-226242000D03*
%TD*%
D10*
%TO.C,D115*%
X157350000Y-202702000D03*
X154050000Y-202702000D03*
X154050000Y-207602000D03*
X157350000Y-207602000D03*
%TD*%
D11*
%TO.C,SW10*%
X314840000Y-288192000D03*
D12*
X320340000Y-288192000D03*
D18*
X325560000Y-283992000D03*
D11*
X325840000Y-288192000D03*
D13*
X320340000Y-294092000D03*
X315340000Y-291992000D03*
D14*
X321610000Y-283392000D03*
D15*
X319070000Y-283392000D03*
%TD*%
D11*
%TO.C,SW37*%
X250510000Y-269132000D03*
D12*
X256010000Y-269132000D03*
D18*
X261230000Y-264932000D03*
D11*
X261510000Y-269132000D03*
D13*
X256010000Y-275032000D03*
X251010000Y-272932000D03*
D14*
X257280000Y-264332000D03*
D15*
X254740000Y-264332000D03*
%TD*%
D25*
%TO.C,D70*%
X358887700Y-209512000D03*
X358887700Y-212812000D03*
X363787700Y-212812000D03*
X363787700Y-209512000D03*
%TD*%
D11*
%TO.C,SW8*%
X200520000Y-288202000D03*
D12*
X206020000Y-288202000D03*
D18*
X211240000Y-284002000D03*
D11*
X211520000Y-288202000D03*
D13*
X206020000Y-294102000D03*
X201020000Y-292002000D03*
D14*
X207290000Y-283402000D03*
D15*
X204750000Y-283402000D03*
%TD*%
D10*
%TO.C,D102*%
X395960000Y-209602000D03*
X392660000Y-209602000D03*
X392660000Y-214502000D03*
X395960000Y-214502000D03*
%TD*%
D11*
%TO.C,SW42*%
X140920000Y-231042000D03*
D12*
X146420000Y-231042000D03*
D18*
X151640000Y-226842000D03*
D11*
X151920000Y-231042000D03*
D13*
X146420000Y-236942000D03*
X141420000Y-234842000D03*
D14*
X147690000Y-226242000D03*
D15*
X145150000Y-226242000D03*
%TD*%
D24*
%TO.C,D29*%
X387657700Y-206102000D03*
X387657700Y-202802000D03*
X382757700Y-202802000D03*
X382757700Y-206102000D03*
%TD*%
D25*
%TO.C,D84*%
X335007700Y-209642000D03*
X335007700Y-212942000D03*
X339907700Y-212942000D03*
X339907700Y-209642000D03*
%TD*%
D11*
%TO.C,SW49*%
X217110000Y-231032000D03*
D12*
X222610000Y-231032000D03*
D18*
X227830000Y-226832000D03*
D11*
X228110000Y-231032000D03*
D13*
X222610000Y-236932000D03*
X217610000Y-234832000D03*
D14*
X223880000Y-226232000D03*
D15*
X221340000Y-226232000D03*
%TD*%
D11*
%TO.C,SW53*%
X302840000Y-250092000D03*
D12*
X308340000Y-250092000D03*
D18*
X313560000Y-245892000D03*
D11*
X313840000Y-250092000D03*
D13*
X308340000Y-255992000D03*
X303340000Y-253892000D03*
D14*
X309610000Y-245292000D03*
D15*
X307070000Y-245292000D03*
%TD*%
D11*
%TO.C,SW55*%
X264740000Y-250100000D03*
D12*
X270240000Y-250100000D03*
D18*
X275460000Y-245900000D03*
D11*
X275740000Y-250100000D03*
D13*
X270240000Y-256000000D03*
X265240000Y-253900000D03*
D14*
X271510000Y-245300000D03*
D15*
X268970000Y-245300000D03*
%TD*%
D25*
%TO.C,D53*%
X326887700Y-203022000D03*
X326887700Y-206322000D03*
X331787700Y-206322000D03*
X331787700Y-203022000D03*
%TD*%
D10*
%TO.C,D85*%
X157350000Y-210822000D03*
X154050000Y-210822000D03*
X154050000Y-215722000D03*
X157350000Y-215722000D03*
%TD*%
D11*
%TO.C,SW11*%
X102820000Y-231042000D03*
D12*
X108320000Y-231042000D03*
D18*
X113540000Y-226842000D03*
D11*
X113820000Y-231042000D03*
D13*
X108320000Y-236942000D03*
X103320000Y-234842000D03*
D14*
X109590000Y-226242000D03*
D15*
X107050000Y-226242000D03*
%TD*%
D11*
%TO.C,SW47*%
X212400000Y-269152000D03*
D12*
X217900000Y-269152000D03*
D18*
X223120000Y-264952000D03*
D11*
X223400000Y-269152000D03*
D13*
X217900000Y-275052000D03*
X212900000Y-272952000D03*
D14*
X219170000Y-264352000D03*
D15*
X216630000Y-264352000D03*
%TD*%
D11*
%TO.C,SW29*%
X162400000Y-288202000D03*
D12*
X167900000Y-288202000D03*
D18*
X173120000Y-284002000D03*
D11*
X173400000Y-288202000D03*
D13*
X167900000Y-294102000D03*
X162900000Y-292002000D03*
D14*
X169170000Y-283402000D03*
D15*
X166630000Y-283402000D03*
%TD*%
D23*
%TO.C,D54*%
X266430000Y-214862000D03*
X269730000Y-214862000D03*
X269730000Y-209962000D03*
X266430000Y-209962000D03*
%TD*%
D25*
%TO.C,D20*%
X318430000Y-206122000D03*
X318430000Y-209422000D03*
X323330000Y-209422000D03*
X323330000Y-206122000D03*
%TD*%
D10*
%TO.C,D101*%
X248560000Y-202232000D03*
X245260000Y-202232000D03*
X245260000Y-207132000D03*
X248560000Y-207132000D03*
%TD*%
D11*
%TO.C,SW20*%
X255280000Y-231042000D03*
D12*
X260780000Y-231042000D03*
D18*
X266000000Y-226842000D03*
D11*
X266280000Y-231042000D03*
D13*
X260780000Y-236942000D03*
X255780000Y-234842000D03*
D14*
X262050000Y-226242000D03*
D15*
X259510000Y-226242000D03*
%TD*%
D11*
%TO.C,SW59*%
X331440000Y-231012000D03*
D12*
X336940000Y-231012000D03*
D18*
X342160000Y-226812000D03*
D11*
X342440000Y-231012000D03*
D13*
X336940000Y-236912000D03*
X331940000Y-234812000D03*
D14*
X338210000Y-226212000D03*
D15*
X335670000Y-226212000D03*
%TD*%
D11*
%TO.C,SW46*%
X307650000Y-269142000D03*
D12*
X313150000Y-269142000D03*
D18*
X318370000Y-264942000D03*
D11*
X318650000Y-269142000D03*
D13*
X313150000Y-275042000D03*
X308150000Y-272942000D03*
D14*
X314420000Y-264342000D03*
D15*
X311880000Y-264342000D03*
%TD*%
D11*
%TO.C,SW64*%
X388570000Y-250092000D03*
D12*
X394070000Y-250092000D03*
D18*
X399290000Y-245892000D03*
D11*
X399570000Y-250092000D03*
D13*
X394070000Y-255992000D03*
X389070000Y-253892000D03*
D14*
X395340000Y-245292000D03*
D15*
X392800000Y-245292000D03*
%TD*%
D17*
%TO.C,D99*%
X138040000Y-288762000D03*
D16*
X138040000Y-296382000D03*
%TD*%
D17*
%TO.C,D114*%
X366060000Y-229222000D03*
D16*
X366060000Y-236842000D03*
%TD*%
D17*
%TO.C,D112*%
X289240000Y-229732000D03*
D16*
X289240000Y-237352000D03*
%TD*%
D17*
%TO.C,D71*%
X131090000Y-306242000D03*
D16*
X131090000Y-313862000D03*
%TD*%
D24*
%TO.C,D119*%
X426360000Y-296842000D03*
X426360000Y-293542000D03*
X421460000Y-293542000D03*
X421460000Y-296842000D03*
%TD*%
D17*
%TO.C,D105*%
X359110000Y-286542000D03*
D16*
X359110000Y-294162000D03*
%TD*%
D17*
%TO.C,D27*%
X122780000Y-248992000D03*
D16*
X122780000Y-256612000D03*
%TD*%
D19*
%TO.C,D103*%
X327200000Y-237702000D03*
D16*
X327200000Y-230082000D03*
%TD*%
D23*
%TO.C,D11*%
X408390000Y-207222000D03*
X411690000Y-207222000D03*
X411690000Y-202322000D03*
X408390000Y-202322000D03*
%TD*%
D25*
%TO.C,D3*%
X421740000Y-280992000D03*
X421740000Y-284292000D03*
X426640000Y-284292000D03*
X426640000Y-280992000D03*
%TD*%
D17*
%TO.C,D90*%
X184560000Y-248552000D03*
D16*
X184560000Y-256172000D03*
%TD*%
D17*
%TO.C,D51*%
X112200000Y-306152000D03*
D16*
X112200000Y-313772000D03*
%TD*%
D19*
%TO.C,D113*%
X215710000Y-218562000D03*
D16*
X215710000Y-210942000D03*
%TD*%
D17*
%TO.C,D48*%
X189390000Y-268262000D03*
D16*
X189390000Y-275882000D03*
%TD*%
D17*
%TO.C,D49*%
X402430000Y-284612000D03*
D16*
X402430000Y-292232000D03*
%TD*%
D17*
%TO.C,D35*%
X270030000Y-230132000D03*
D16*
X270030000Y-237752000D03*
%TD*%
D19*
%TO.C,D98*%
X346460000Y-237110000D03*
D16*
X346460000Y-229490000D03*
%TD*%
D17*
%TO.C,D56*%
X174660000Y-229762000D03*
D16*
X174660000Y-237382000D03*
%TD*%
D24*
%TO.C,D120*%
X426640000Y-309392000D03*
X426640000Y-306092000D03*
X421740000Y-306092000D03*
X421740000Y-309392000D03*
%TD*%
D17*
%TO.C,D33*%
X135790000Y-268712000D03*
D16*
X135790000Y-276332000D03*
%TD*%
D17*
%TO.C,D104*%
X213170000Y-229912000D03*
D16*
X213170000Y-237532000D03*
%TD*%
D17*
%TO.C,D23*%
X117850000Y-228692000D03*
D16*
X117850000Y-236312000D03*
%TD*%
D17*
%TO.C,D31*%
X396240000Y-231352000D03*
D16*
X396240000Y-238972000D03*
%TD*%
D23*
%TO.C,D78*%
X408390000Y-223462000D03*
X411690000Y-223462000D03*
X411690000Y-218562000D03*
X408390000Y-218562000D03*
%TD*%
D24*
%TO.C,D118*%
X426530000Y-271892000D03*
X426530000Y-268592000D03*
X421630000Y-268592000D03*
X421630000Y-271892000D03*
%TD*%
D17*
%TO.C,D9*%
X158640000Y-287042000D03*
D16*
X158640000Y-294662000D03*
%TD*%
D17*
%TO.C,D25*%
X146050000Y-249002000D03*
D16*
X146050000Y-256622000D03*
%TD*%
D17*
%TO.C,D97*%
X250990000Y-230032000D03*
D16*
X250990000Y-237652000D03*
%TD*%
D17*
%TO.C,D88*%
X194310000Y-229882000D03*
D16*
X194310000Y-237502000D03*
%TD*%
D17*
%TO.C,D82*%
X232090000Y-229442000D03*
D16*
X232090000Y-237062000D03*
%TD*%
D17*
%TO.C,D39*%
X136770000Y-229722000D03*
D16*
X136770000Y-237342000D03*
%TD*%
D17*
%TO.C,D96*%
X150160000Y-305692000D03*
D16*
X150160000Y-313312000D03*
%TD*%
D17*
%TO.C,D63*%
X170300000Y-267522000D03*
D16*
X170300000Y-275142000D03*
%TD*%
D17*
%TO.C,D72*%
X155920000Y-229702000D03*
D16*
X155920000Y-237322000D03*
%TD*%
D17*
%TO.C,D6*%
X384340000Y-286312000D03*
D16*
X384340000Y-293932000D03*
%TD*%
D17*
%TO.C,D87*%
X308170000Y-229832000D03*
D16*
X308170000Y-237452000D03*
%TD*%
D17*
%TO.C,D16*%
X215570000Y-286762000D03*
D16*
X215570000Y-294382000D03*
%TD*%
D17*
%TO.C,D50*%
X177280000Y-286592000D03*
D16*
X177280000Y-294212000D03*
%TD*%
D17*
%TO.C,D15*%
X196480000Y-286892000D03*
D16*
X196480000Y-294512000D03*
%TD*%
D23*
%TO.C,D46*%
X408390000Y-215342000D03*
X411690000Y-215342000D03*
X411690000Y-210442000D03*
X408390000Y-210442000D03*
%TD*%
D17*
%TO.C,D73*%
X222550000Y-241892000D03*
D16*
X222550000Y-249512000D03*
%TD*%
D10*
%TO.C,D22*%
X411760000Y-227312000D03*
X408460000Y-227312000D03*
X408460000Y-232212000D03*
X411760000Y-232212000D03*
%TD*%
D17*
%TO.C,D55*%
X169250000Y-305952000D03*
D16*
X169250000Y-313572000D03*
%TD*%
%TO.C,A1*%
X421585900Y-230542000D03*
X424125900Y-230542000D03*
D27*
X426665900Y-230542000D03*
D28*
X424525000Y-199572000D03*
D29*
X424825000Y-202602000D03*
X429675000Y-202602000D03*
D28*
X429975000Y-199572000D03*
%TD*%
M02*
